<?xml version="1.0" standalone="no"?>
<!DOCTYPE svg PUBLIC "-//W3C//DTD SVG 1.1//EN" "http://www.w3.org/Graphics/SVG/1.1/DTD/svg11.dtd" >
<svg xmlns="http://www.w3.org/2000/svg" xmlns:xlink="http://www.w3.org/1999/xlink" version="1.1">
<metadata>
Created by FontForge 20170731 at Fri Nov 10 10:03:47 2023
 By Aleksey,,,
Copyright (c) 2021 by Daniel Sabino. All rights reserved.
</metadata>
<defs>
<font id="ElzaTextTrial-Semibold" horiz-adv-x="1439" >
  <font-face 
    font-family="Elza Text Trial Semibold"
    font-weight="600"
    font-stretch="normal"
    units-per-em="2048"
    panose-1="0 0 7 0 0 0 0 0 0 0"
    ascent="1638"
    descent="-410"
    x-height="1057"
    cap-height="1454"
    bbox="-80 -375 1993 1567"
    underline-thickness="102"
    underline-position="-307"
    unicode-range="U+0020-FB02"
  />
<missing-glyph 
d="M1235 0h-1030v1516h1030v-1516zM506 1270v-1024h428v1024h-428z" />
    <glyph glyph-name=".notdef" 
d="M1235 0h-1030v1516h1030v-1516zM506 1270v-1024h428v1024h-428z" />
    <glyph glyph-name=".null" horiz-adv-x="0" 
 />
    <glyph glyph-name="nonmarkingreturn" horiz-adv-x="682" 
 />
    <glyph glyph-name="space" unicode=" " horiz-adv-x="395" 
 />
    <glyph glyph-name="exclam" unicode="!" 
d="M1235 0h-1030v1516h1030v-1516zM506 1270v-1024h428v1024h-428z" />
    <glyph glyph-name="quotedbl" unicode="&#x22;" 
d="M1235 0h-1030v1516h1030v-1516zM506 1270v-1024h428v1024h-428z" />
    <glyph glyph-name="numbersign" unicode="#" 
d="M1235 0h-1030v1516h1030v-1516zM506 1270v-1024h428v1024h-428z" />
    <glyph glyph-name="dollar" unicode="$" 
d="M1235 0h-1030v1516h1030v-1516zM506 1270v-1024h428v1024h-428z" />
    <glyph glyph-name="percent" unicode="%" 
d="M1235 0h-1030v1516h1030v-1516zM506 1270v-1024h428v1024h-428z" />
    <glyph glyph-name="ampersand" unicode="&#x26;" 
d="M1235 0h-1030v1516h1030v-1516zM506 1270v-1024h428v1024h-428z" />
    <glyph glyph-name="quotesingle" unicode="'" 
d="M1235 0h-1030v1516h1030v-1516zM506 1270v-1024h428v1024h-428z" />
    <glyph glyph-name="parenleft" unicode="(" 
d="M1235 0h-1030v1516h1030v-1516zM506 1270v-1024h428v1024h-428z" />
    <glyph glyph-name="parenright" unicode=")" 
d="M1235 0h-1030v1516h1030v-1516zM506 1270v-1024h428v1024h-428z" />
    <glyph glyph-name="asterisk" unicode="*" 
d="M1235 0h-1030v1516h1030v-1516zM506 1270v-1024h428v1024h-428z" />
    <glyph glyph-name="plus" unicode="+" 
d="M1235 0h-1030v1516h1030v-1516zM506 1270v-1024h428v1024h-428z" />
    <glyph glyph-name="comma" unicode="," horiz-adv-x="688" 
d="M154 -350v149q97 0 137.5 39t40.5 137v25h-152v311h326v-323q0 -169 -89.5 -253.5t-262.5 -84.5z" />
    <glyph glyph-name="hyphen" unicode="-" horiz-adv-x="942" 
d="M793 469h-643v246h643v-246z" />
    <glyph glyph-name="period" unicode="." horiz-adv-x="688" 
d="M506 0h-326v311h326v-311z" />
    <glyph glyph-name="slash" unicode="/" 
d="M1235 0h-1030v1516h1030v-1516zM506 1270v-1024h428v1024h-428z" />
    <glyph glyph-name="zero" unicode="0" horiz-adv-x="1259" 
d="M629 -27q-134 0 -237.5 53t-169 150.5t-99 231.5t-33.5 299v41q0 165 33.5 298t99 231t169 151t237.5 53q138 0 242.5 -53t169 -151t96.5 -230.5t32 -298.5v-41q0 -166 -32 -299t-96.5 -231t-168.5 -151t-243 -53zM629 217q135 0 182 110.5t47 372.5v50q0 263 -47 375
t-182 112q-128 0 -178 -114.5t-50 -372.5v-50q0 -256 50 -369.5t178 -113.5z" />
    <glyph glyph-name="one" unicode="1" horiz-adv-x="827" 
d="M668 0h-306v1061q-125 -98 -286 -127v264q233 51 373 256h219v-1454z" />
    <glyph glyph-name="two" unicode="2" horiz-adv-x="1095" 
d="M1055 0h-1020v188q0 76 11.5 138t42 124.5t81.5 114t132.5 100.5t191.5 91q154 58 207 118.5t53 163.5v4q0 87 -51 144t-140 57q-103 0 -158.5 -59.5t-60.5 -169.5h-297q15 217 148.5 342t363.5 125q110 0 203 -34.5t155.5 -93.5t97 -136.5t34.5 -163.5v-13
q0 -75 -17.5 -137.5t-60 -125.5t-121.5 -118.5t-195 -103.5q-94 -38 -153 -71.5t-91.5 -70t-44.5 -73t-14 -88.5h703v-252z" />
    <glyph glyph-name="three" unicode="3" horiz-adv-x="1259" 
d="M631 -27q-252 0 -402.5 128t-156.5 348h301q8 -110 73.5 -170t182.5 -60q112 0 176.5 55t64.5 146v20q0 94 -64.5 147.5t-174.5 53.5h-150v227h148q97 0 156 46.5t59 129.5v21q0 78 -57 127t-154 49q-110 0 -172.5 -59.5t-67.5 -165.5h-289q9 210 156.5 337.5
t370.5 127.5q215 0 356 -109t141 -285v-18q0 -106 -62 -188.5t-163 -118.5q122 -32 199.5 -122.5t77.5 -219.5v-23q0 -191 -152.5 -307.5t-396.5 -116.5z" />
    <glyph glyph-name="four" unicode="4" horiz-adv-x="1259" 
d="M1006 0h-299v326h-666v227l657 901h308v-893h202v-235h-202v-326zM707 1098l-392 -539h392v539z" />
    <glyph glyph-name="five" unicode="5" horiz-adv-x="1259" 
d="M637 -27q-236 0 -381 120t-160 329h295q13 -100 81 -154.5t169 -54.5q109 0 176.5 67.5t67.5 176.5v22q0 112 -67.5 178t-180.5 66q-75 0 -137 -32.5t-97 -84.5l-256 19l132 829h825v-252h-610l-54 -340q108 88 271 88q202 0 335.5 -127.5t133.5 -333.5v-22
q0 -220 -150.5 -357t-392.5 -137z" />
    <glyph glyph-name="six" unicode="6" horiz-adv-x="1259" 
d="M643 -27q-263 0 -412 186.5t-149 522.5v74q0 346 150 535.5t413 189.5q217 0 354.5 -112t163.5 -308h-280q-17 87 -78.5 132.5t-157.5 45.5q-293 0 -293 -438v-43q44 85 134 133.5t221 48.5q199 0 332 -124.5t133 -326.5v-22q0 -217 -148 -355.5t-383 -138.5zM643 211
q105 0 167 67.5t62 178.5v22q0 101 -64 165.5t-167 64.5q-105 0 -170 -65t-65 -167v-20q0 -109 65 -177.5t172 -68.5z" />
    <glyph glyph-name="seven" unicode="7" horiz-adv-x="1183" 
d="M592 0h-332q97 591 541 1202h-735v252h1073v-201q-461 -605 -547 -1253z" />
    <glyph glyph-name="eight" unicode="8" horiz-adv-x="1259" 
d="M631 -27q-247 0 -399 115.5t-152 308.5v21q0 129 76 219.5t196 124.5q-100 37 -159.5 119t-59.5 188v21q0 173 141 282t357 109q214 0 354.5 -109t140.5 -282v-21q0 -106 -60 -188t-161 -119q121 -34 198 -124.5t77 -219.5v-21q0 -193 -151 -308.5t-398 -115.5zM631 877
q95 0 153 47t58 129v18q0 82 -58 129t-153 47t-154 -47t-59 -129v-18q0 -82 58 -129t155 -47zM631 213q106 0 173.5 55.5t67.5 147.5v18q0 92 -67.5 147.5t-173.5 55.5q-107 0 -175.5 -55.5t-68.5 -147.5v-18q0 -92 69 -147.5t175 -55.5z" />
    <glyph glyph-name="nine" unicode="9" horiz-adv-x="1259" 
d="M614 -27q-217 0 -354.5 112t-163.5 308h279q17 -87 79 -132.5t160 -45.5q291 0 291 436v45q-44 -85 -134.5 -133.5t-221.5 -48.5q-199 0 -331 125t-132 328v20q0 218 146.5 356t381.5 138q265 0 414.5 -186.5t149.5 -522.5v-74q0 -346 -150 -535.5t-414 -189.5zM618 745
q105 0 170.5 65t65.5 167v20q0 108 -65 177t-173 69q-105 0 -167 -67.5t-62 -178.5v-22q0 -101 64 -165.5t167 -64.5z" />
    <glyph glyph-name="colon" unicode=":" 
d="M1235 0h-1030v1516h1030v-1516zM506 1270v-1024h428v1024h-428z" />
    <glyph glyph-name="semicolon" unicode=";" 
d="M1235 0h-1030v1516h1030v-1516zM506 1270v-1024h428v1024h-428z" />
    <glyph glyph-name="less" unicode="&#x3c;" 
d="M1235 0h-1030v1516h1030v-1516zM506 1270v-1024h428v1024h-428z" />
    <glyph glyph-name="equal" unicode="=" 
d="M1235 0h-1030v1516h1030v-1516zM506 1270v-1024h428v1024h-428z" />
    <glyph glyph-name="greater" unicode="&#x3e;" 
d="M1235 0h-1030v1516h1030v-1516zM506 1270v-1024h428v1024h-428z" />
    <glyph glyph-name="question" unicode="?" 
d="M1235 0h-1030v1516h1030v-1516zM506 1270v-1024h428v1024h-428z" />
    <glyph glyph-name="at" unicode="@" 
d="M1235 0h-1030v1516h1030v-1516zM506 1270v-1024h428v1024h-428z" />
    <glyph glyph-name="A" unicode="A" horiz-adv-x="1470" 
d="M1452 0h-317l-113 322h-582l-114 -322h-308l553 1454h328zM731 1145l-209 -588h416z" />
    <glyph glyph-name="B" unicode="B" horiz-adv-x="1411" 
d="M827 0h-675v1454h630q225 0 354.5 -94t129.5 -277v-22q0 -93 -48.5 -171.5t-138.5 -123.5q117 -43 182.5 -132.5t65.5 -205.5v-20q0 -186 -139.5 -297t-360.5 -111zM451 1206v-348h292q112 0 162.5 40.5t50.5 127.5v21q0 83 -53 121t-162 38h-290zM451 612v-364h335
q108 0 170 45.5t62 126.5v22q0 170 -230 170h-337z" />
    <glyph glyph-name="C" unicode="C" horiz-adv-x="1476" 
d="M793 -27q-213 0 -373 93t-245 259t-85 380v45q0 159 50.5 294.5t141.5 231.5t222 150.5t287 54.5q262 0 429.5 -140t200.5 -368h-307q-30 121 -114 188.5t-214 67.5q-180 0 -280 -130.5t-100 -348.5v-45q0 -217 102.5 -347.5t282.5 -130.5q136 0 220.5 74t108.5 199h305
q-34 -235 -198.5 -381t-433.5 -146z" />
    <glyph glyph-name="D" unicode="D" horiz-adv-x="1517" 
d="M688 0h-536v1454h536q220 0 385.5 -80t259.5 -240.5t94 -383.5v-45q0 -222 -94 -382.5t-259.5 -241.5t-385.5 -81zM453 1204v-954h217q442 0 442 455v45q0 454 -444 454h-215z" />
    <glyph glyph-name="E" unicode="E" horiz-adv-x="1310" 
d="M1210 0h-1058v1454h1042v-248h-739v-342h675v-246h-675v-364h755v-254z" />
    <glyph glyph-name="F" unicode="F" horiz-adv-x="1226" 
d="M455 0h-303v1454h993v-248h-690v-375h622v-245h-622v-586z" />
    <glyph glyph-name="G" unicode="G" horiz-adv-x="1529" 
d="M754 -27q-196 0 -348 94t-234 260t-82 378v45q0 159 51 294.5t142.5 231.5t224 150.5t289.5 54.5q258 0 422.5 -134.5t203.5 -355.5h-305q-28 112 -111.5 175t-213.5 63q-184 0 -285.5 -130.5t-101.5 -348.5v-45q0 -218 105 -348t290 -130q176 0 272.5 94t102.5 240h-410
v234h666v-795h-226l-24 188q-57 -97 -171.5 -156t-256.5 -59z" />
    <glyph glyph-name="H" unicode="H" horiz-adv-x="1544" 
d="M457 0h-305v1454h305v-582h630v582h306v-1454h-306v623h-630v-623z" />
    <glyph glyph-name="I" unicode="I" horiz-adv-x="647" 
d="M475 0h-303v1454h303v-1454z" />
    <glyph glyph-name="J" unicode="J" horiz-adv-x="1232" 
d="M586 -27q-248 0 -379 127.5t-131 341.5v72h299v-68q0 -215 205 -215q211 0 211 234v989h303v-975q0 -237 -135.5 -371.5t-372.5 -134.5z" />
    <glyph glyph-name="K" unicode="K" horiz-adv-x="1382" 
d="M455 0h-303v1454h303v-618l538 618h348l-555 -623l578 -831h-346l-432 633l-131 -146v-487z" />
    <glyph glyph-name="L" unicode="L" horiz-adv-x="1101" 
d="M1030 0h-878v1454h303v-1200h575v-254z" />
    <glyph glyph-name="M" unicode="M" horiz-adv-x="1859" 
d="M444 0h-292v1454h434l354 -1077l356 1077h414v-1454h-287v1112l-368 -1112h-240l-371 1114v-1114z" />
    <glyph glyph-name="N" unicode="N" horiz-adv-x="1548" 
d="M440 0h-288v1454h354l604 -1030v1030h287v-1454h-338l-619 1065v-1065z" />
    <glyph glyph-name="O" unicode="O" horiz-adv-x="1599" 
d="M801 -27q-214 0 -376.5 94t-248.5 260t-86 378v45q0 212 86 377.5t248.5 259.5t376.5 94t376 -94t247 -259t85 -378v-45q0 -159 -50 -294t-140.5 -232t-223.5 -151.5t-294 -54.5zM801 227q187 0 292 128.5t105 349.5v45q0 222 -105 350.5t-292 128.5q-188 0 -291.5 -128
t-103.5 -351v-45q0 -221 104 -349.5t291 -128.5z" />
    <glyph glyph-name="P" unicode="P" horiz-adv-x="1355" 
d="M453 0h-301v1454h616q152 0 270 -51.5t187 -156t69 -249.5v-24q0 -218 -145.5 -337.5t-380.5 -119.5h-315v-516zM453 1204v-438h284q112 0 179 52t67 155v24q0 104 -66.5 155.5t-179.5 51.5h-284z" />
    <glyph glyph-name="Q" unicode="Q" horiz-adv-x="1599" 
d="M1509 750v-45q0 -196 -73.5 -352.5t-208.5 -252.5l166 -274h-283l-104 172q-98 -25 -205 -25q-214 0 -376.5 94t-248.5 260t-86 378v45q0 212 86 377.5t248.5 259.5t376.5 94t376 -94t247 -259t85 -378zM705 500h280l96 -158q117 126 117 363v45q0 222 -105 350.5
t-292 128.5q-188 0 -291.5 -128t-103.5 -351v-45q0 -221 104 -349.5t291 -128.5q25 0 65 4z" />
    <glyph glyph-name="R" unicode="R" horiz-adv-x="1376" 
d="M453 0h-301v1454h636q233 0 380 -120.5t147 -336.5v-24q0 -163 -83 -271.5t-228 -154.5l360 -547h-338l-330 516h-243v-516zM453 1204v-438h305q112 0 179 52t67 155v24q0 104 -66.5 155.5t-179.5 51.5h-305z" />
    <glyph glyph-name="S" unicode="S" horiz-adv-x="1353" 
d="M694 -27q-276 0 -437 124t-183 347h299q40 -229 327 -229q118 0 195.5 46t77.5 128v19q0 76 -79.5 122t-281.5 84q-262 49 -375.5 147.5t-113.5 270.5v21q0 191 152.5 309.5t396.5 118.5q249 0 401 -112.5t178 -324.5h-299q-17 97 -90 148t-196 51q-116 0 -178 -48.5
t-62 -127.5v-12q0 -37 11 -62t45 -49.5t101 -43.5t173 -36q265 -45 392.5 -146.5t127.5 -279.5v-20q0 -200 -161.5 -322.5t-420.5 -122.5z" />
    <glyph glyph-name="T" unicode="T" horiz-adv-x="1251" 
d="M778 0h-305v1202h-412v252h1129v-252h-412v-1202z" />
    <glyph glyph-name="U" unicode="U" horiz-adv-x="1501" 
d="M752 -27q-302 0 -456.5 152.5t-154.5 439.5v889h305v-883q0 -169 74.5 -254.5t231.5 -85.5q307 0 307 342v881h301v-887q0 -287 -154.5 -440.5t-453.5 -153.5z" />
    <glyph glyph-name="V" unicode="V" horiz-adv-x="1372" 
d="M852 0h-334l-502 1454h322l354 -1120l352 1120h312z" />
    <glyph glyph-name="W" unicode="W" horiz-adv-x="2007" 
d="M741 0h-346l-379 1454h314l248 -1079l278 1079h315l271 -1085l252 1085h299l-385 -1454h-334l-266 1047z" />
    <glyph glyph-name="X" unicode="X" horiz-adv-x="1431" 
d="M352 0h-336l521 754l-484 700h348l320 -483l323 483h336l-487 -696l524 -758h-352l-354 532z" />
    <glyph glyph-name="Y" unicode="Y" horiz-adv-x="1323" 
d="M813 0h-301v473l-500 981h326l332 -696l325 696h316l-498 -981v-473z" />
    <glyph glyph-name="Z" unicode="Z" horiz-adv-x="1200" 
d="M1130 0h-1058v221l682 983h-643v250h997v-225l-674 -977h696v-252z" />
    <glyph glyph-name="bracketleft" unicode="[" 
d="M1235 0h-1030v1516h1030v-1516zM506 1270v-1024h428v1024h-428z" />
    <glyph glyph-name="backslash" unicode="\" 
d="M1235 0h-1030v1516h1030v-1516zM506 1270v-1024h428v1024h-428z" />
    <glyph glyph-name="bracketright" unicode="]" 
d="M1235 0h-1030v1516h1030v-1516zM506 1270v-1024h428v1024h-428z" />
    <glyph glyph-name="asciicircum" unicode="^" 
d="M1235 0h-1030v1516h1030v-1516zM506 1270v-1024h428v1024h-428z" />
    <glyph glyph-name="underscore" unicode="_" 
d="M1235 0h-1030v1516h1030v-1516zM506 1270v-1024h428v1024h-428z" />
    <glyph glyph-name="grave" unicode="`" 
d="M1235 0h-1030v1516h1030v-1516zM506 1270v-1024h428v1024h-428z" />
    <glyph glyph-name="a" unicode="a" horiz-adv-x="1183" 
d="M436 -27q-158 0 -257 90.5t-99 231.5q0 133 80 212.5t227 100.5l389 56v61q0 141 -182 141q-174 0 -201 -116h-270q19 158 145 245.5t332 87.5q212 0 332.5 -97.5t120.5 -264.5v-721h-265l-10 164q-51 -90 -139 -140.5t-203 -50.5zM522 188q106 0 180 56.5t74 142.5v84
l-287 -39q-67 -9 -100 -38.5t-33 -84.5q0 -57 44 -89t122 -32z" />
    <glyph glyph-name="b" unicode="b" horiz-adv-x="1300" 
d="M752 -27q-121 0 -207.5 56.5t-126.5 136.5l-8 -166h-269v1540h289v-625q51 76 134.5 122t195.5 46q207 0 328.5 -151t121.5 -389v-27q0 -240 -124.5 -391.5t-333.5 -151.5zM670 195q122 0 186 82.5t64 238.5v27q0 156 -64 238.5t-186 82.5t-186 -82.5t-64 -238.5v-27
q0 -156 64 -238.5t186 -82.5z" />
    <glyph glyph-name="c" unicode="c" horiz-adv-x="1181" 
d="M618 -27q-245 0 -386.5 148.5t-141.5 394.5v27q0 245 141.5 392.5t386.5 147.5q206 0 336 -106.5t156 -294.5h-283q-19 86 -68 131t-145 45q-229 0 -229 -315v-27q0 -317 229 -317q96 0 146 46t69 132h281q-25 -189 -155 -296.5t-337 -107.5z" />
    <glyph glyph-name="d" unicode="d" horiz-adv-x="1300" 
d="M551 -27q-211 0 -336 151.5t-125 391.5v27q0 238 122 389t329 151q112 0 196 -46t133 -122v625h289v-1540h-266l-10 166q-40 -80 -126 -136.5t-206 -56.5zM631 195q122 0 186 82.5t64 238.5v27q0 156 -64 238.5t-186 82.5q-121 0 -185.5 -83t-64.5 -238v-27
q0 -155 64.5 -238t185.5 -83z" />
    <glyph glyph-name="e" unicode="e" horiz-adv-x="1234" 
d="M629 -27q-250 0 -394.5 148t-144.5 395v27q0 243 146 391.5t393 148.5q262 0 395 -166.5t119 -449.5h-776q9 -137 75.5 -205.5t186.5 -68.5q176 0 223 129h285q-39 -162 -172.5 -255.5t-335.5 -93.5zM371 647h485q-11 105 -69 164t-160 59q-216 0 -256 -223z" />
    <glyph glyph-name="f" unicode="f" horiz-adv-x="833" 
d="M514 0h-287v848h-196v209h196v178q0 332 375 332q85 0 191 -25v-221q-73 20 -127 20q-84 0 -118 -30.5t-34 -100.5v-153h274v-209h-274v-848z" />
    <glyph glyph-name="g" unicode="g" horiz-adv-x="1300" 
d="M614 -375q-225 0 -351.5 85.5t-149.5 226.5h309q12 -59 61.5 -87t149.5 -28q237 0 237 219v154q-44 -75 -126.5 -121.5t-192.5 -46.5q-139 0 -245 68.5t-161 185.5t-55 264v22q0 224 123 370t330 146q122 0 210.5 -54.5t129.5 -133.5l10 162h266v-975
q0 -220 -140.5 -338.5t-404.5 -118.5zM631 248q122 0 186 78t64 219v22q0 141 -64 219t-186 78q-121 0 -185.5 -78t-64.5 -219v-22q0 -141 64.5 -219t185.5 -78z" />
    <glyph glyph-name="h" unicode="h" horiz-adv-x="1257" 
d="M428 0h-287v1540h289v-637q46 79 129.5 129.5t200.5 50.5q188 0 277 -107.5t89 -295.5v-680h-284v608q0 244 -191 244q-101 0 -162 -71t-61 -195v-586z" />
    <glyph glyph-name="i" unicode="i" horiz-adv-x="569" 
d="M436 1245h-303v295h303v-295zM428 0h-287v1057h287v-1057z" />
    <glyph glyph-name="j" unicode="j" horiz-adv-x="581" 
d="M451 1245h-304v295h304v-295zM90 -375q-97 0 -170 27v219q47 -21 107 -21q67 0 97 32t30 100v1075h286v-1100q0 -332 -350 -332z" />
    <glyph glyph-name="k" unicode="k" horiz-adv-x="1165" 
d="M428 0h-287v1540h287v-862l375 379h336l-408 -406l424 -651h-321l-306 477l-100 -100v-377z" />
    <glyph glyph-name="l" unicode="l" horiz-adv-x="569" 
d="M428 0h-287v1540h287v-1540z" />
    <glyph glyph-name="m" unicode="m" horiz-adv-x="1896" 
d="M428 0h-287v1057h277l8 -162q43 81 123 134.5t194 53.5q241 0 320 -198q119 198 342 198q184 0 272 -107.5t88 -299.5v-676h-286v621q0 233 -176 233q-98 0 -151.5 -72t-53.5 -207v-575h-287v618q0 236 -172 236q-99 0 -155 -71t-56 -208v-575z" />
    <glyph glyph-name="n" unicode="n" horiz-adv-x="1257" 
d="M428 0h-287v1057h277l8 -164q43 82 127 136t207 54q188 0 277 -107.5t89 -295.5v-680h-284v608q0 244 -191 244q-101 0 -162 -71t-61 -195v-586z" />
    <glyph glyph-name="o" unicode="o" horiz-adv-x="1265" 
d="M633 -27q-245 0 -394 150t-149 393v27q0 241 149 390.5t394 149.5t394 -150t149 -392v-25q0 -243 -149 -393t-394 -150zM633 197q125 0 188.5 81.5t63.5 237.5v25q0 156 -63.5 237.5t-188.5 81.5t-188.5 -81t-63.5 -236v-27q0 -156 63.5 -237.5t188.5 -81.5z" />
    <glyph glyph-name="p" unicode="p" horiz-adv-x="1300" 
d="M430 -348h-289v1405h269l8 -162q41 78 130.5 133t209.5 55q208 0 330 -151t122 -389v-27q0 -239 -124.5 -391t-333.5 -152q-108 0 -192.5 49.5t-129.5 127.5v-498zM670 195q122 0 186 82.5t64 238.5v27q0 156 -64 238.5t-186 82.5t-186 -82.5t-64 -238.5v-27
q0 -156 64 -238.5t186 -82.5z" />
    <glyph glyph-name="q" unicode="q" horiz-adv-x="1300" 
d="M1159 -348h-289v498q-46 -78 -129 -127.5t-192 -49.5q-209 0 -334 152t-125 391v27q0 238 122.5 389t330.5 151q122 0 210.5 -54.5t129.5 -133.5l10 162h266v-1405zM631 195q122 0 186 82.5t64 238.5v27q0 156 -64 238.5t-186 82.5q-121 0 -185.5 -83t-64.5 -238v-27
q0 -155 64.5 -238t185.5 -83z" />
    <glyph glyph-name="r" unicode="r" horiz-adv-x="854" 
d="M428 0h-287v1057h275l8 -207q40 102 119.5 163.5t191.5 61.5q37 0 64 -6v-274q-40 4 -80 4q-142 0 -216.5 -74.5t-74.5 -214.5v-510z" />
    <glyph glyph-name="s" unicode="s" horiz-adv-x="1107" 
d="M563 -27q-221 0 -346 94.5t-139 266.5h272q12 -76 68 -116t145 -40q83 0 132.5 30.5t49.5 86.5q0 52 -50.5 82.5t-186.5 54.5q-208 34 -302.5 108t-94.5 214q0 148 122.5 238.5t317.5 90.5q203 0 322.5 -89t134.5 -251h-271q-9 67 -59 103.5t-129 36.5q-76 0 -120 -29.5
t-44 -81.5q0 -50 51 -79t185 -50q215 -34 310 -109t95 -212q0 -158 -126 -253.5t-337 -95.5z" />
    <glyph glyph-name="t" unicode="t" horiz-adv-x="874" 
d="M602 -27q-375 0 -375 332v543h-196v209h196v336h287v-336h274v-209h-274v-518q0 -70 34 -100.5t118 -30.5q54 0 127 20v-221q-106 -25 -191 -25z" />
    <glyph glyph-name="u" unicode="u" horiz-adv-x="1245" 
d="M498 -27q-183 0 -275 107.5t-92 300.5v676h289v-621q0 -114 44 -171.5t138 -57.5q100 0 156.5 71t56.5 201v578h289v-1057h-279l-6 154q-49 -78 -131.5 -129.5t-189.5 -51.5z" />
    <glyph glyph-name="v" unicode="v" horiz-adv-x="1132" 
d="M725 0h-315l-387 1057h305l245 -770l246 770h291z" />
    <glyph glyph-name="w" unicode="w" horiz-adv-x="1671" 
d="M635 0h-299l-313 1057h288l193 -758l192 758h279l194 -762l197 762h283l-316 -1057h-299l-200 748z" />
    <glyph glyph-name="x" unicode="x" horiz-adv-x="1138" 
d="M332 0h-309l378 543l-360 514h328l206 -316l211 316h308l-359 -510l381 -547h-328l-229 348z" />
    <glyph glyph-name="y" unicode="y" horiz-adv-x="1136" 
d="M584 -348h-295l137 358l-403 1047h305l250 -738l241 738h293z" />
    <glyph glyph-name="z" unicode="z" horiz-adv-x="1052" 
d="M971 0h-879v203l512 633h-473v221h817v-199l-508 -633h531v-225z" />
    <glyph glyph-name="braceleft" unicode="{" 
d="M1235 0h-1030v1516h1030v-1516zM506 1270v-1024h428v1024h-428z" />
    <glyph glyph-name="bar" unicode="|" 
d="M1235 0h-1030v1516h1030v-1516zM506 1270v-1024h428v1024h-428z" />
    <glyph glyph-name="braceright" unicode="}" 
d="M1235 0h-1030v1516h1030v-1516zM506 1270v-1024h428v1024h-428z" />
    <glyph glyph-name="asciitilde" unicode="~" 
d="M1235 0h-1030v1516h1030v-1516zM506 1270v-1024h428v1024h-428z" />
    <glyph glyph-name="uni00A0" unicode="&#xa0;" 
d="M1235 0h-1030v1516h1030v-1516zM506 1270v-1024h428v1024h-428z" />
    <glyph glyph-name="exclamdown" unicode="&#xa1;" 
d="M1235 0h-1030v1516h1030v-1516zM506 1270v-1024h428v1024h-428z" />
    <glyph glyph-name="cent" unicode="&#xa2;" 
d="M1235 0h-1030v1516h1030v-1516zM506 1270v-1024h428v1024h-428z" />
    <glyph glyph-name="sterling" unicode="&#xa3;" 
d="M1235 0h-1030v1516h1030v-1516zM506 1270v-1024h428v1024h-428z" />
    <glyph glyph-name="currency" unicode="&#xa4;" 
d="M1235 0h-1030v1516h1030v-1516zM506 1270v-1024h428v1024h-428z" />
    <glyph glyph-name="yen" unicode="&#xa5;" 
d="M1235 0h-1030v1516h1030v-1516zM506 1270v-1024h428v1024h-428z" />
    <glyph glyph-name="brokenbar" unicode="&#xa6;" 
d="M1235 0h-1030v1516h1030v-1516zM506 1270v-1024h428v1024h-428z" />
    <glyph glyph-name="section" unicode="&#xa7;" 
d="M1235 0h-1030v1516h1030v-1516zM506 1270v-1024h428v1024h-428z" />
    <glyph glyph-name="dieresis" unicode="&#xa8;" 
d="M1235 0h-1030v1516h1030v-1516zM506 1270v-1024h428v1024h-428z" />
    <glyph glyph-name="copyright" unicode="&#xa9;" 
d="M1235 0h-1030v1516h1030v-1516zM506 1270v-1024h428v1024h-428z" />
    <glyph glyph-name="ordfeminine" unicode="&#xaa;" 
d="M1235 0h-1030v1516h1030v-1516zM506 1270v-1024h428v1024h-428z" />
    <glyph glyph-name="guillemotleft" unicode="&#xab;" 
d="M1235 0h-1030v1516h1030v-1516zM506 1270v-1024h428v1024h-428z" />
    <glyph glyph-name="logicalnot" unicode="&#xac;" 
d="M1235 0h-1030v1516h1030v-1516zM506 1270v-1024h428v1024h-428z" />
    <glyph glyph-name="uni00AD" unicode="&#xad;" 
d="M1235 0h-1030v1516h1030v-1516zM506 1270v-1024h428v1024h-428z" />
    <glyph glyph-name="registered" unicode="&#xae;" 
d="M1235 0h-1030v1516h1030v-1516zM506 1270v-1024h428v1024h-428z" />
    <glyph glyph-name="macron" unicode="&#xaf;" 
d="M1235 0h-1030v1516h1030v-1516zM506 1270v-1024h428v1024h-428z" />
    <glyph glyph-name="degree" unicode="&#xb0;" 
d="M1235 0h-1030v1516h1030v-1516zM506 1270v-1024h428v1024h-428z" />
    <glyph glyph-name="plusminus" unicode="&#xb1;" 
d="M1235 0h-1030v1516h1030v-1516zM506 1270v-1024h428v1024h-428z" />
    <glyph glyph-name="uni00B2" unicode="&#xb2;" 
d="M1235 0h-1030v1516h1030v-1516zM506 1270v-1024h428v1024h-428z" />
    <glyph glyph-name="uni00B3" unicode="&#xb3;" 
d="M1235 0h-1030v1516h1030v-1516zM506 1270v-1024h428v1024h-428z" />
    <glyph glyph-name="acute" unicode="&#xb4;" 
d="M1235 0h-1030v1516h1030v-1516zM506 1270v-1024h428v1024h-428z" />
    <glyph glyph-name="uni00B5" unicode="&#xb5;" 
d="M1235 0h-1030v1516h1030v-1516zM506 1270v-1024h428v1024h-428z" />
    <glyph glyph-name="paragraph" unicode="&#xb6;" 
d="M1235 0h-1030v1516h1030v-1516zM506 1270v-1024h428v1024h-428z" />
    <glyph glyph-name="periodcentered" unicode="&#xb7;" 
d="M1235 0h-1030v1516h1030v-1516zM506 1270v-1024h428v1024h-428z" />
    <glyph glyph-name="cedilla" unicode="&#xb8;" 
d="M1235 0h-1030v1516h1030v-1516zM506 1270v-1024h428v1024h-428z" />
    <glyph glyph-name="uni00B9" unicode="&#xb9;" 
d="M1235 0h-1030v1516h1030v-1516zM506 1270v-1024h428v1024h-428z" />
    <glyph glyph-name="ordmasculine" unicode="&#xba;" 
d="M1235 0h-1030v1516h1030v-1516zM506 1270v-1024h428v1024h-428z" />
    <glyph glyph-name="guillemotright" unicode="&#xbb;" 
d="M1235 0h-1030v1516h1030v-1516zM506 1270v-1024h428v1024h-428z" />
    <glyph glyph-name="onequarter" unicode="&#xbc;" 
d="M1235 0h-1030v1516h1030v-1516zM506 1270v-1024h428v1024h-428z" />
    <glyph glyph-name="onehalf" unicode="&#xbd;" 
d="M1235 0h-1030v1516h1030v-1516zM506 1270v-1024h428v1024h-428z" />
    <glyph glyph-name="threequarters" unicode="&#xbe;" 
d="M1235 0h-1030v1516h1030v-1516zM506 1270v-1024h428v1024h-428z" />
    <glyph glyph-name="questiondown" unicode="&#xbf;" 
d="M1235 0h-1030v1516h1030v-1516zM506 1270v-1024h428v1024h-428z" />
    <glyph glyph-name="Agrave" unicode="&#xc0;" 
d="M1235 0h-1030v1516h1030v-1516zM506 1270v-1024h428v1024h-428z" />
    <glyph glyph-name="Aacute" unicode="&#xc1;" 
d="M1235 0h-1030v1516h1030v-1516zM506 1270v-1024h428v1024h-428z" />
    <glyph glyph-name="Acircumflex" unicode="&#xc2;" 
d="M1235 0h-1030v1516h1030v-1516zM506 1270v-1024h428v1024h-428z" />
    <glyph glyph-name="Atilde" unicode="&#xc3;" 
d="M1235 0h-1030v1516h1030v-1516zM506 1270v-1024h428v1024h-428z" />
    <glyph glyph-name="Adieresis" unicode="&#xc4;" 
d="M1235 0h-1030v1516h1030v-1516zM506 1270v-1024h428v1024h-428z" />
    <glyph glyph-name="Aring" unicode="&#xc5;" 
d="M1235 0h-1030v1516h1030v-1516zM506 1270v-1024h428v1024h-428z" />
    <glyph glyph-name="AE" unicode="&#xc6;" 
d="M1235 0h-1030v1516h1030v-1516zM506 1270v-1024h428v1024h-428z" />
    <glyph glyph-name="Ccedilla" unicode="&#xc7;" 
d="M1235 0h-1030v1516h1030v-1516zM506 1270v-1024h428v1024h-428z" />
    <glyph glyph-name="Egrave" unicode="&#xc8;" 
d="M1235 0h-1030v1516h1030v-1516zM506 1270v-1024h428v1024h-428z" />
    <glyph glyph-name="Eacute" unicode="&#xc9;" 
d="M1235 0h-1030v1516h1030v-1516zM506 1270v-1024h428v1024h-428z" />
    <glyph glyph-name="Ecircumflex" unicode="&#xca;" 
d="M1235 0h-1030v1516h1030v-1516zM506 1270v-1024h428v1024h-428z" />
    <glyph glyph-name="Edieresis" unicode="&#xcb;" 
d="M1235 0h-1030v1516h1030v-1516zM506 1270v-1024h428v1024h-428z" />
    <glyph glyph-name="Igrave" unicode="&#xcc;" 
d="M1235 0h-1030v1516h1030v-1516zM506 1270v-1024h428v1024h-428z" />
    <glyph glyph-name="Iacute" unicode="&#xcd;" 
d="M1235 0h-1030v1516h1030v-1516zM506 1270v-1024h428v1024h-428z" />
    <glyph glyph-name="Icircumflex" unicode="&#xce;" 
d="M1235 0h-1030v1516h1030v-1516zM506 1270v-1024h428v1024h-428z" />
    <glyph glyph-name="Idieresis" unicode="&#xcf;" 
d="M1235 0h-1030v1516h1030v-1516zM506 1270v-1024h428v1024h-428z" />
    <glyph glyph-name="Eth" unicode="&#xd0;" 
d="M1235 0h-1030v1516h1030v-1516zM506 1270v-1024h428v1024h-428z" />
    <glyph glyph-name="Ntilde" unicode="&#xd1;" 
d="M1235 0h-1030v1516h1030v-1516zM506 1270v-1024h428v1024h-428z" />
    <glyph glyph-name="Ograve" unicode="&#xd2;" 
d="M1235 0h-1030v1516h1030v-1516zM506 1270v-1024h428v1024h-428z" />
    <glyph glyph-name="Oacute" unicode="&#xd3;" 
d="M1235 0h-1030v1516h1030v-1516zM506 1270v-1024h428v1024h-428z" />
    <glyph glyph-name="Ocircumflex" unicode="&#xd4;" 
d="M1235 0h-1030v1516h1030v-1516zM506 1270v-1024h428v1024h-428z" />
    <glyph glyph-name="Otilde" unicode="&#xd5;" 
d="M1235 0h-1030v1516h1030v-1516zM506 1270v-1024h428v1024h-428z" />
    <glyph glyph-name="Odieresis" unicode="&#xd6;" 
d="M1235 0h-1030v1516h1030v-1516zM506 1270v-1024h428v1024h-428z" />
    <glyph glyph-name="multiply" unicode="&#xd7;" 
d="M1235 0h-1030v1516h1030v-1516zM506 1270v-1024h428v1024h-428z" />
    <glyph glyph-name="Oslash" unicode="&#xd8;" 
d="M1235 0h-1030v1516h1030v-1516zM506 1270v-1024h428v1024h-428z" />
    <glyph glyph-name="Ugrave" unicode="&#xd9;" 
d="M1235 0h-1030v1516h1030v-1516zM506 1270v-1024h428v1024h-428z" />
    <glyph glyph-name="Uacute" unicode="&#xda;" 
d="M1235 0h-1030v1516h1030v-1516zM506 1270v-1024h428v1024h-428z" />
    <glyph glyph-name="Ucircumflex" unicode="&#xdb;" 
d="M1235 0h-1030v1516h1030v-1516zM506 1270v-1024h428v1024h-428z" />
    <glyph glyph-name="Udieresis" unicode="&#xdc;" 
d="M1235 0h-1030v1516h1030v-1516zM506 1270v-1024h428v1024h-428z" />
    <glyph glyph-name="Yacute" unicode="&#xdd;" 
d="M1235 0h-1030v1516h1030v-1516zM506 1270v-1024h428v1024h-428z" />
    <glyph glyph-name="Thorn" unicode="&#xde;" 
d="M1235 0h-1030v1516h1030v-1516zM506 1270v-1024h428v1024h-428z" />
    <glyph glyph-name="germandbls" unicode="&#xdf;" 
d="M1235 0h-1030v1516h1030v-1516zM506 1270v-1024h428v1024h-428z" />
    <glyph glyph-name="agrave" unicode="&#xe0;" 
d="M1235 0h-1030v1516h1030v-1516zM506 1270v-1024h428v1024h-428z" />
    <glyph glyph-name="aacute" unicode="&#xe1;" 
d="M1235 0h-1030v1516h1030v-1516zM506 1270v-1024h428v1024h-428z" />
    <glyph glyph-name="acircumflex" unicode="&#xe2;" 
d="M1235 0h-1030v1516h1030v-1516zM506 1270v-1024h428v1024h-428z" />
    <glyph glyph-name="atilde" unicode="&#xe3;" 
d="M1235 0h-1030v1516h1030v-1516zM506 1270v-1024h428v1024h-428z" />
    <glyph glyph-name="adieresis" unicode="&#xe4;" 
d="M1235 0h-1030v1516h1030v-1516zM506 1270v-1024h428v1024h-428z" />
    <glyph glyph-name="aring" unicode="&#xe5;" 
d="M1235 0h-1030v1516h1030v-1516zM506 1270v-1024h428v1024h-428z" />
    <glyph glyph-name="ae" unicode="&#xe6;" 
d="M1235 0h-1030v1516h1030v-1516zM506 1270v-1024h428v1024h-428z" />
    <glyph glyph-name="ccedilla" unicode="&#xe7;" 
d="M1235 0h-1030v1516h1030v-1516zM506 1270v-1024h428v1024h-428z" />
    <glyph glyph-name="egrave" unicode="&#xe8;" 
d="M1235 0h-1030v1516h1030v-1516zM506 1270v-1024h428v1024h-428z" />
    <glyph glyph-name="eacute" unicode="&#xe9;" 
d="M1235 0h-1030v1516h1030v-1516zM506 1270v-1024h428v1024h-428z" />
    <glyph glyph-name="ecircumflex" unicode="&#xea;" 
d="M1235 0h-1030v1516h1030v-1516zM506 1270v-1024h428v1024h-428z" />
    <glyph glyph-name="edieresis" unicode="&#xeb;" 
d="M1235 0h-1030v1516h1030v-1516zM506 1270v-1024h428v1024h-428z" />
    <glyph glyph-name="igrave" unicode="&#xec;" 
d="M1235 0h-1030v1516h1030v-1516zM506 1270v-1024h428v1024h-428z" />
    <glyph glyph-name="iacute" unicode="&#xed;" 
d="M1235 0h-1030v1516h1030v-1516zM506 1270v-1024h428v1024h-428z" />
    <glyph glyph-name="icircumflex" unicode="&#xee;" 
d="M1235 0h-1030v1516h1030v-1516zM506 1270v-1024h428v1024h-428z" />
    <glyph glyph-name="idieresis" unicode="&#xef;" 
d="M1235 0h-1030v1516h1030v-1516zM506 1270v-1024h428v1024h-428z" />
    <glyph glyph-name="eth" unicode="&#xf0;" 
d="M1235 0h-1030v1516h1030v-1516zM506 1270v-1024h428v1024h-428z" />
    <glyph glyph-name="ntilde" unicode="&#xf1;" 
d="M1235 0h-1030v1516h1030v-1516zM506 1270v-1024h428v1024h-428z" />
    <glyph glyph-name="ograve" unicode="&#xf2;" 
d="M1235 0h-1030v1516h1030v-1516zM506 1270v-1024h428v1024h-428z" />
    <glyph glyph-name="oacute" unicode="&#xf3;" 
d="M1235 0h-1030v1516h1030v-1516zM506 1270v-1024h428v1024h-428z" />
    <glyph glyph-name="ocircumflex" unicode="&#xf4;" 
d="M1235 0h-1030v1516h1030v-1516zM506 1270v-1024h428v1024h-428z" />
    <glyph glyph-name="otilde" unicode="&#xf5;" 
d="M1235 0h-1030v1516h1030v-1516zM506 1270v-1024h428v1024h-428z" />
    <glyph glyph-name="odieresis" unicode="&#xf6;" 
d="M1235 0h-1030v1516h1030v-1516zM506 1270v-1024h428v1024h-428z" />
    <glyph glyph-name="divide" unicode="&#xf7;" 
d="M1235 0h-1030v1516h1030v-1516zM506 1270v-1024h428v1024h-428z" />
    <glyph glyph-name="oslash" unicode="&#xf8;" 
d="M1235 0h-1030v1516h1030v-1516zM506 1270v-1024h428v1024h-428z" />
    <glyph glyph-name="ugrave" unicode="&#xf9;" 
d="M1235 0h-1030v1516h1030v-1516zM506 1270v-1024h428v1024h-428z" />
    <glyph glyph-name="uacute" unicode="&#xfa;" 
d="M1235 0h-1030v1516h1030v-1516zM506 1270v-1024h428v1024h-428z" />
    <glyph glyph-name="ucircumflex" unicode="&#xfb;" 
d="M1235 0h-1030v1516h1030v-1516zM506 1270v-1024h428v1024h-428z" />
    <glyph glyph-name="udieresis" unicode="&#xfc;" 
d="M1235 0h-1030v1516h1030v-1516zM506 1270v-1024h428v1024h-428z" />
    <glyph glyph-name="yacute" unicode="&#xfd;" 
d="M1235 0h-1030v1516h1030v-1516zM506 1270v-1024h428v1024h-428z" />
    <glyph glyph-name="thorn" unicode="&#xfe;" 
d="M1235 0h-1030v1516h1030v-1516zM506 1270v-1024h428v1024h-428z" />
    <glyph glyph-name="ydieresis" unicode="&#xff;" 
d="M1235 0h-1030v1516h1030v-1516zM506 1270v-1024h428v1024h-428z" />
    <glyph glyph-name="Amacron" unicode="&#x100;" 
d="M1235 0h-1030v1516h1030v-1516zM506 1270v-1024h428v1024h-428z" />
    <glyph glyph-name="amacron" unicode="&#x101;" 
d="M1235 0h-1030v1516h1030v-1516zM506 1270v-1024h428v1024h-428z" />
    <glyph glyph-name="Abreve" unicode="&#x102;" 
d="M1235 0h-1030v1516h1030v-1516zM506 1270v-1024h428v1024h-428z" />
    <glyph glyph-name="abreve" unicode="&#x103;" 
d="M1235 0h-1030v1516h1030v-1516zM506 1270v-1024h428v1024h-428z" />
    <glyph glyph-name="Aogonek" unicode="&#x104;" 
d="M1235 0h-1030v1516h1030v-1516zM506 1270v-1024h428v1024h-428z" />
    <glyph glyph-name="aogonek" unicode="&#x105;" 
d="M1235 0h-1030v1516h1030v-1516zM506 1270v-1024h428v1024h-428z" />
    <glyph glyph-name="Cacute" unicode="&#x106;" 
d="M1235 0h-1030v1516h1030v-1516zM506 1270v-1024h428v1024h-428z" />
    <glyph glyph-name="cacute" unicode="&#x107;" 
d="M1235 0h-1030v1516h1030v-1516zM506 1270v-1024h428v1024h-428z" />
    <glyph glyph-name="Ccircumflex" unicode="&#x108;" 
d="M1235 0h-1030v1516h1030v-1516zM506 1270v-1024h428v1024h-428z" />
    <glyph glyph-name="ccircumflex" unicode="&#x109;" 
d="M1235 0h-1030v1516h1030v-1516zM506 1270v-1024h428v1024h-428z" />
    <glyph glyph-name="Cdotaccent" unicode="&#x10a;" 
d="M1235 0h-1030v1516h1030v-1516zM506 1270v-1024h428v1024h-428z" />
    <glyph glyph-name="cdotaccent" unicode="&#x10b;" 
d="M1235 0h-1030v1516h1030v-1516zM506 1270v-1024h428v1024h-428z" />
    <glyph glyph-name="Ccaron" unicode="&#x10c;" 
d="M1235 0h-1030v1516h1030v-1516zM506 1270v-1024h428v1024h-428z" />
    <glyph glyph-name="ccaron" unicode="&#x10d;" 
d="M1235 0h-1030v1516h1030v-1516zM506 1270v-1024h428v1024h-428z" />
    <glyph glyph-name="Dcaron" unicode="&#x10e;" 
d="M1235 0h-1030v1516h1030v-1516zM506 1270v-1024h428v1024h-428z" />
    <glyph glyph-name="dcaron" unicode="&#x10f;" 
d="M1235 0h-1030v1516h1030v-1516zM506 1270v-1024h428v1024h-428z" />
    <glyph glyph-name="Dcroat" unicode="&#x110;" 
d="M1235 0h-1030v1516h1030v-1516zM506 1270v-1024h428v1024h-428z" />
    <glyph glyph-name="dcroat" unicode="&#x111;" 
d="M1235 0h-1030v1516h1030v-1516zM506 1270v-1024h428v1024h-428z" />
    <glyph glyph-name="Emacron" unicode="&#x112;" 
d="M1235 0h-1030v1516h1030v-1516zM506 1270v-1024h428v1024h-428z" />
    <glyph glyph-name="emacron" unicode="&#x113;" 
d="M1235 0h-1030v1516h1030v-1516zM506 1270v-1024h428v1024h-428z" />
    <glyph glyph-name="Ebreve" unicode="&#x114;" 
d="M1235 0h-1030v1516h1030v-1516zM506 1270v-1024h428v1024h-428z" />
    <glyph glyph-name="ebreve" unicode="&#x115;" 
d="M1235 0h-1030v1516h1030v-1516zM506 1270v-1024h428v1024h-428z" />
    <glyph glyph-name="Edotaccent" unicode="&#x116;" 
d="M1235 0h-1030v1516h1030v-1516zM506 1270v-1024h428v1024h-428z" />
    <glyph glyph-name="edotaccent" unicode="&#x117;" 
d="M1235 0h-1030v1516h1030v-1516zM506 1270v-1024h428v1024h-428z" />
    <glyph glyph-name="Eogonek" unicode="&#x118;" 
d="M1235 0h-1030v1516h1030v-1516zM506 1270v-1024h428v1024h-428z" />
    <glyph glyph-name="eogonek" unicode="&#x119;" 
d="M1235 0h-1030v1516h1030v-1516zM506 1270v-1024h428v1024h-428z" />
    <glyph glyph-name="Ecaron" unicode="&#x11a;" 
d="M1235 0h-1030v1516h1030v-1516zM506 1270v-1024h428v1024h-428z" />
    <glyph glyph-name="ecaron" unicode="&#x11b;" 
d="M1235 0h-1030v1516h1030v-1516zM506 1270v-1024h428v1024h-428z" />
    <glyph glyph-name="Gcircumflex" unicode="&#x11c;" 
d="M1235 0h-1030v1516h1030v-1516zM506 1270v-1024h428v1024h-428z" />
    <glyph glyph-name="gcircumflex" unicode="&#x11d;" 
d="M1235 0h-1030v1516h1030v-1516zM506 1270v-1024h428v1024h-428z" />
    <glyph glyph-name="Gbreve" unicode="&#x11e;" 
d="M1235 0h-1030v1516h1030v-1516zM506 1270v-1024h428v1024h-428z" />
    <glyph glyph-name="gbreve" unicode="&#x11f;" 
d="M1235 0h-1030v1516h1030v-1516zM506 1270v-1024h428v1024h-428z" />
    <glyph glyph-name="Gdotaccent" unicode="&#x120;" 
d="M1235 0h-1030v1516h1030v-1516zM506 1270v-1024h428v1024h-428z" />
    <glyph glyph-name="gdotaccent" unicode="&#x121;" 
d="M1235 0h-1030v1516h1030v-1516zM506 1270v-1024h428v1024h-428z" />
    <glyph glyph-name="uni0122" unicode="&#x122;" 
d="M1235 0h-1030v1516h1030v-1516zM506 1270v-1024h428v1024h-428z" />
    <glyph glyph-name="uni0123" unicode="&#x123;" 
d="M1235 0h-1030v1516h1030v-1516zM506 1270v-1024h428v1024h-428z" />
    <glyph glyph-name="Hcircumflex" unicode="&#x124;" 
d="M1235 0h-1030v1516h1030v-1516zM506 1270v-1024h428v1024h-428z" />
    <glyph glyph-name="hcircumflex" unicode="&#x125;" 
d="M1235 0h-1030v1516h1030v-1516zM506 1270v-1024h428v1024h-428z" />
    <glyph glyph-name="Hbar" unicode="&#x126;" 
d="M1235 0h-1030v1516h1030v-1516zM506 1270v-1024h428v1024h-428z" />
    <glyph glyph-name="hbar" unicode="&#x127;" 
d="M1235 0h-1030v1516h1030v-1516zM506 1270v-1024h428v1024h-428z" />
    <glyph glyph-name="Itilde" unicode="&#x128;" 
d="M1235 0h-1030v1516h1030v-1516zM506 1270v-1024h428v1024h-428z" />
    <glyph glyph-name="itilde" unicode="&#x129;" 
d="M1235 0h-1030v1516h1030v-1516zM506 1270v-1024h428v1024h-428z" />
    <glyph glyph-name="Imacron" unicode="&#x12a;" 
d="M1235 0h-1030v1516h1030v-1516zM506 1270v-1024h428v1024h-428z" />
    <glyph glyph-name="imacron" unicode="&#x12b;" 
d="M1235 0h-1030v1516h1030v-1516zM506 1270v-1024h428v1024h-428z" />
    <glyph glyph-name="Ibreve" unicode="&#x12c;" 
d="M1235 0h-1030v1516h1030v-1516zM506 1270v-1024h428v1024h-428z" />
    <glyph glyph-name="ibreve" unicode="&#x12d;" 
d="M1235 0h-1030v1516h1030v-1516zM506 1270v-1024h428v1024h-428z" />
    <glyph glyph-name="Iogonek" unicode="&#x12e;" 
d="M1235 0h-1030v1516h1030v-1516zM506 1270v-1024h428v1024h-428z" />
    <glyph glyph-name="iogonek" unicode="&#x12f;" 
d="M1235 0h-1030v1516h1030v-1516zM506 1270v-1024h428v1024h-428z" />
    <glyph glyph-name="Idotaccent" unicode="&#x130;" 
d="M1235 0h-1030v1516h1030v-1516zM506 1270v-1024h428v1024h-428z" />
    <glyph glyph-name="dotlessi" unicode="&#x131;" 
d="M1235 0h-1030v1516h1030v-1516zM506 1270v-1024h428v1024h-428z" />
    <glyph glyph-name="IJ" unicode="&#x132;" 
d="M1235 0h-1030v1516h1030v-1516zM506 1270v-1024h428v1024h-428z" />
    <glyph glyph-name="ij" unicode="&#x133;" 
d="M1235 0h-1030v1516h1030v-1516zM506 1270v-1024h428v1024h-428z" />
    <glyph glyph-name="Jcircumflex" unicode="&#x134;" 
d="M1235 0h-1030v1516h1030v-1516zM506 1270v-1024h428v1024h-428z" />
    <glyph glyph-name="jcircumflex" unicode="&#x135;" 
d="M1235 0h-1030v1516h1030v-1516zM506 1270v-1024h428v1024h-428z" />
    <glyph glyph-name="uni0136" unicode="&#x136;" 
d="M1235 0h-1030v1516h1030v-1516zM506 1270v-1024h428v1024h-428z" />
    <glyph glyph-name="uni0137" unicode="&#x137;" 
d="M1235 0h-1030v1516h1030v-1516zM506 1270v-1024h428v1024h-428z" />
    <glyph glyph-name="Lacute" unicode="&#x139;" 
d="M1235 0h-1030v1516h1030v-1516zM506 1270v-1024h428v1024h-428z" />
    <glyph glyph-name="lacute" unicode="&#x13a;" 
d="M1235 0h-1030v1516h1030v-1516zM506 1270v-1024h428v1024h-428z" />
    <glyph glyph-name="uni013B" unicode="&#x13b;" 
d="M1235 0h-1030v1516h1030v-1516zM506 1270v-1024h428v1024h-428z" />
    <glyph glyph-name="uni013C" unicode="&#x13c;" 
d="M1235 0h-1030v1516h1030v-1516zM506 1270v-1024h428v1024h-428z" />
    <glyph glyph-name="Lcaron" unicode="&#x13d;" 
d="M1235 0h-1030v1516h1030v-1516zM506 1270v-1024h428v1024h-428z" />
    <glyph glyph-name="lcaron" unicode="&#x13e;" 
d="M1235 0h-1030v1516h1030v-1516zM506 1270v-1024h428v1024h-428z" />
    <glyph glyph-name="Ldot" unicode="&#x13f;" 
d="M1235 0h-1030v1516h1030v-1516zM506 1270v-1024h428v1024h-428z" />
    <glyph glyph-name="ldot" unicode="&#x140;" 
d="M1235 0h-1030v1516h1030v-1516zM506 1270v-1024h428v1024h-428z" />
    <glyph glyph-name="Lslash" unicode="&#x141;" 
d="M1235 0h-1030v1516h1030v-1516zM506 1270v-1024h428v1024h-428z" />
    <glyph glyph-name="lslash" unicode="&#x142;" 
d="M1235 0h-1030v1516h1030v-1516zM506 1270v-1024h428v1024h-428z" />
    <glyph glyph-name="Nacute" unicode="&#x143;" 
d="M1235 0h-1030v1516h1030v-1516zM506 1270v-1024h428v1024h-428z" />
    <glyph glyph-name="nacute" unicode="&#x144;" 
d="M1235 0h-1030v1516h1030v-1516zM506 1270v-1024h428v1024h-428z" />
    <glyph glyph-name="uni0145" unicode="&#x145;" 
d="M1235 0h-1030v1516h1030v-1516zM506 1270v-1024h428v1024h-428z" />
    <glyph glyph-name="uni0146" unicode="&#x146;" 
d="M1235 0h-1030v1516h1030v-1516zM506 1270v-1024h428v1024h-428z" />
    <glyph glyph-name="Ncaron" unicode="&#x147;" 
d="M1235 0h-1030v1516h1030v-1516zM506 1270v-1024h428v1024h-428z" />
    <glyph glyph-name="ncaron" unicode="&#x148;" 
d="M1235 0h-1030v1516h1030v-1516zM506 1270v-1024h428v1024h-428z" />
    <glyph glyph-name="Eng" unicode="&#x14a;" 
d="M1235 0h-1030v1516h1030v-1516zM506 1270v-1024h428v1024h-428z" />
    <glyph glyph-name="eng" unicode="&#x14b;" 
d="M1235 0h-1030v1516h1030v-1516zM506 1270v-1024h428v1024h-428z" />
    <glyph glyph-name="Omacron" unicode="&#x14c;" 
d="M1235 0h-1030v1516h1030v-1516zM506 1270v-1024h428v1024h-428z" />
    <glyph glyph-name="omacron" unicode="&#x14d;" 
d="M1235 0h-1030v1516h1030v-1516zM506 1270v-1024h428v1024h-428z" />
    <glyph glyph-name="Obreve" unicode="&#x14e;" 
d="M1235 0h-1030v1516h1030v-1516zM506 1270v-1024h428v1024h-428z" />
    <glyph glyph-name="obreve" unicode="&#x14f;" 
d="M1235 0h-1030v1516h1030v-1516zM506 1270v-1024h428v1024h-428z" />
    <glyph glyph-name="Ohungarumlaut" unicode="&#x150;" 
d="M1235 0h-1030v1516h1030v-1516zM506 1270v-1024h428v1024h-428z" />
    <glyph glyph-name="ohungarumlaut" unicode="&#x151;" 
d="M1235 0h-1030v1516h1030v-1516zM506 1270v-1024h428v1024h-428z" />
    <glyph glyph-name="OE" unicode="&#x152;" 
d="M1235 0h-1030v1516h1030v-1516zM506 1270v-1024h428v1024h-428z" />
    <glyph glyph-name="oe" unicode="&#x153;" 
d="M1235 0h-1030v1516h1030v-1516zM506 1270v-1024h428v1024h-428z" />
    <glyph glyph-name="Racute" unicode="&#x154;" 
d="M1235 0h-1030v1516h1030v-1516zM506 1270v-1024h428v1024h-428z" />
    <glyph glyph-name="racute" unicode="&#x155;" 
d="M1235 0h-1030v1516h1030v-1516zM506 1270v-1024h428v1024h-428z" />
    <glyph glyph-name="uni0156" unicode="&#x156;" 
d="M1235 0h-1030v1516h1030v-1516zM506 1270v-1024h428v1024h-428z" />
    <glyph glyph-name="uni0157" unicode="&#x157;" 
d="M1235 0h-1030v1516h1030v-1516zM506 1270v-1024h428v1024h-428z" />
    <glyph glyph-name="Rcaron" unicode="&#x158;" 
d="M1235 0h-1030v1516h1030v-1516zM506 1270v-1024h428v1024h-428z" />
    <glyph glyph-name="rcaron" unicode="&#x159;" 
d="M1235 0h-1030v1516h1030v-1516zM506 1270v-1024h428v1024h-428z" />
    <glyph glyph-name="Sacute" unicode="&#x15a;" 
d="M1235 0h-1030v1516h1030v-1516zM506 1270v-1024h428v1024h-428z" />
    <glyph glyph-name="sacute" unicode="&#x15b;" 
d="M1235 0h-1030v1516h1030v-1516zM506 1270v-1024h428v1024h-428z" />
    <glyph glyph-name="Scircumflex" unicode="&#x15c;" 
d="M1235 0h-1030v1516h1030v-1516zM506 1270v-1024h428v1024h-428z" />
    <glyph glyph-name="scircumflex" unicode="&#x15d;" 
d="M1235 0h-1030v1516h1030v-1516zM506 1270v-1024h428v1024h-428z" />
    <glyph glyph-name="Scedilla" unicode="&#x15e;" 
d="M1235 0h-1030v1516h1030v-1516zM506 1270v-1024h428v1024h-428z" />
    <glyph glyph-name="scedilla" unicode="&#x15f;" 
d="M1235 0h-1030v1516h1030v-1516zM506 1270v-1024h428v1024h-428z" />
    <glyph glyph-name="Scaron" unicode="&#x160;" 
d="M1235 0h-1030v1516h1030v-1516zM506 1270v-1024h428v1024h-428z" />
    <glyph glyph-name="scaron" unicode="&#x161;" 
d="M1235 0h-1030v1516h1030v-1516zM506 1270v-1024h428v1024h-428z" />
    <glyph glyph-name="uni0162" unicode="&#x162;" 
d="M1235 0h-1030v1516h1030v-1516zM506 1270v-1024h428v1024h-428z" />
    <glyph glyph-name="uni0163" unicode="&#x163;" 
d="M1235 0h-1030v1516h1030v-1516zM506 1270v-1024h428v1024h-428z" />
    <glyph glyph-name="Tcaron" unicode="&#x164;" 
d="M1235 0h-1030v1516h1030v-1516zM506 1270v-1024h428v1024h-428z" />
    <glyph glyph-name="tcaron" unicode="&#x165;" 
d="M1235 0h-1030v1516h1030v-1516zM506 1270v-1024h428v1024h-428z" />
    <glyph glyph-name="Tbar" unicode="&#x166;" 
d="M1235 0h-1030v1516h1030v-1516zM506 1270v-1024h428v1024h-428z" />
    <glyph glyph-name="tbar" unicode="&#x167;" 
d="M1235 0h-1030v1516h1030v-1516zM506 1270v-1024h428v1024h-428z" />
    <glyph glyph-name="Utilde" unicode="&#x168;" 
d="M1235 0h-1030v1516h1030v-1516zM506 1270v-1024h428v1024h-428z" />
    <glyph glyph-name="utilde" unicode="&#x169;" 
d="M1235 0h-1030v1516h1030v-1516zM506 1270v-1024h428v1024h-428z" />
    <glyph glyph-name="Umacron" unicode="&#x16a;" 
d="M1235 0h-1030v1516h1030v-1516zM506 1270v-1024h428v1024h-428z" />
    <glyph glyph-name="umacron" unicode="&#x16b;" 
d="M1235 0h-1030v1516h1030v-1516zM506 1270v-1024h428v1024h-428z" />
    <glyph glyph-name="Ubreve" unicode="&#x16c;" 
d="M1235 0h-1030v1516h1030v-1516zM506 1270v-1024h428v1024h-428z" />
    <glyph glyph-name="ubreve" unicode="&#x16d;" 
d="M1235 0h-1030v1516h1030v-1516zM506 1270v-1024h428v1024h-428z" />
    <glyph glyph-name="Uring" unicode="&#x16e;" 
d="M1235 0h-1030v1516h1030v-1516zM506 1270v-1024h428v1024h-428z" />
    <glyph glyph-name="uring" unicode="&#x16f;" 
d="M1235 0h-1030v1516h1030v-1516zM506 1270v-1024h428v1024h-428z" />
    <glyph glyph-name="Uhungarumlaut" unicode="&#x170;" 
d="M1235 0h-1030v1516h1030v-1516zM506 1270v-1024h428v1024h-428z" />
    <glyph glyph-name="uhungarumlaut" unicode="&#x171;" 
d="M1235 0h-1030v1516h1030v-1516zM506 1270v-1024h428v1024h-428z" />
    <glyph glyph-name="Uogonek" unicode="&#x172;" 
d="M1235 0h-1030v1516h1030v-1516zM506 1270v-1024h428v1024h-428z" />
    <glyph glyph-name="uogonek" unicode="&#x173;" 
d="M1235 0h-1030v1516h1030v-1516zM506 1270v-1024h428v1024h-428z" />
    <glyph glyph-name="Wcircumflex" unicode="&#x174;" 
d="M1235 0h-1030v1516h1030v-1516zM506 1270v-1024h428v1024h-428z" />
    <glyph glyph-name="wcircumflex" unicode="&#x175;" 
d="M1235 0h-1030v1516h1030v-1516zM506 1270v-1024h428v1024h-428z" />
    <glyph glyph-name="Ycircumflex" unicode="&#x176;" 
d="M1235 0h-1030v1516h1030v-1516zM506 1270v-1024h428v1024h-428z" />
    <glyph glyph-name="ycircumflex" unicode="&#x177;" 
d="M1235 0h-1030v1516h1030v-1516zM506 1270v-1024h428v1024h-428z" />
    <glyph glyph-name="Ydieresis" unicode="&#x178;" 
d="M1235 0h-1030v1516h1030v-1516zM506 1270v-1024h428v1024h-428z" />
    <glyph glyph-name="Zacute" unicode="&#x179;" 
d="M1235 0h-1030v1516h1030v-1516zM506 1270v-1024h428v1024h-428z" />
    <glyph glyph-name="zacute" unicode="&#x17a;" 
d="M1235 0h-1030v1516h1030v-1516zM506 1270v-1024h428v1024h-428z" />
    <glyph glyph-name="Zdotaccent" unicode="&#x17b;" 
d="M1235 0h-1030v1516h1030v-1516zM506 1270v-1024h428v1024h-428z" />
    <glyph glyph-name="zdotaccent" unicode="&#x17c;" 
d="M1235 0h-1030v1516h1030v-1516zM506 1270v-1024h428v1024h-428z" />
    <glyph glyph-name="Zcaron" unicode="&#x17d;" 
d="M1235 0h-1030v1516h1030v-1516zM506 1270v-1024h428v1024h-428z" />
    <glyph glyph-name="zcaron" unicode="&#x17e;" 
d="M1235 0h-1030v1516h1030v-1516zM506 1270v-1024h428v1024h-428z" />
    <glyph glyph-name="florin" unicode="&#x192;" 
d="M1235 0h-1030v1516h1030v-1516zM506 1270v-1024h428v1024h-428z" />
    <glyph glyph-name="uni01EA" unicode="&#x1ea;" 
d="M1235 0h-1030v1516h1030v-1516zM506 1270v-1024h428v1024h-428z" />
    <glyph glyph-name="uni01EB" unicode="&#x1eb;" 
d="M1235 0h-1030v1516h1030v-1516zM506 1270v-1024h428v1024h-428z" />
    <glyph glyph-name="Aringacute" unicode="&#x1fa;" 
d="M1235 0h-1030v1516h1030v-1516zM506 1270v-1024h428v1024h-428z" />
    <glyph glyph-name="aringacute" unicode="&#x1fb;" 
d="M1235 0h-1030v1516h1030v-1516zM506 1270v-1024h428v1024h-428z" />
    <glyph glyph-name="AEacute" unicode="&#x1fc;" 
d="M1235 0h-1030v1516h1030v-1516zM506 1270v-1024h428v1024h-428z" />
    <glyph glyph-name="aeacute" unicode="&#x1fd;" 
d="M1235 0h-1030v1516h1030v-1516zM506 1270v-1024h428v1024h-428z" />
    <glyph glyph-name="Oslashacute" unicode="&#x1fe;" 
d="M1235 0h-1030v1516h1030v-1516zM506 1270v-1024h428v1024h-428z" />
    <glyph glyph-name="oslashacute" unicode="&#x1ff;" 
d="M1235 0h-1030v1516h1030v-1516zM506 1270v-1024h428v1024h-428z" />
    <glyph glyph-name="uni0218" unicode="&#x218;" 
d="M1235 0h-1030v1516h1030v-1516zM506 1270v-1024h428v1024h-428z" />
    <glyph glyph-name="uni0219" unicode="&#x219;" 
d="M1235 0h-1030v1516h1030v-1516zM506 1270v-1024h428v1024h-428z" />
    <glyph glyph-name="uni021A" unicode="&#x21a;" 
d="M1235 0h-1030v1516h1030v-1516zM506 1270v-1024h428v1024h-428z" />
    <glyph glyph-name="uni021B" unicode="&#x21b;" 
d="M1235 0h-1030v1516h1030v-1516zM506 1270v-1024h428v1024h-428z" />
    <glyph glyph-name="uni0237" unicode="&#x237;" 
d="M1235 0h-1030v1516h1030v-1516zM506 1270v-1024h428v1024h-428z" />
    <glyph glyph-name="circumflex" unicode="&#x2c6;" 
d="M1235 0h-1030v1516h1030v-1516zM506 1270v-1024h428v1024h-428z" />
    <glyph glyph-name="caron" unicode="&#x2c7;" 
d="M1235 0h-1030v1516h1030v-1516zM506 1270v-1024h428v1024h-428z" />
    <glyph glyph-name="breve" unicode="&#x2d8;" 
d="M1235 0h-1030v1516h1030v-1516zM506 1270v-1024h428v1024h-428z" />
    <glyph glyph-name="dotaccent" unicode="&#x2d9;" 
d="M1235 0h-1030v1516h1030v-1516zM506 1270v-1024h428v1024h-428z" />
    <glyph glyph-name="ring" unicode="&#x2da;" 
d="M1235 0h-1030v1516h1030v-1516zM506 1270v-1024h428v1024h-428z" />
    <glyph glyph-name="ogonek" unicode="&#x2db;" 
d="M1235 0h-1030v1516h1030v-1516zM506 1270v-1024h428v1024h-428z" />
    <glyph glyph-name="tilde" unicode="&#x2dc;" 
d="M1235 0h-1030v1516h1030v-1516zM506 1270v-1024h428v1024h-428z" />
    <glyph glyph-name="hungarumlaut" unicode="&#x2dd;" 
d="M1235 0h-1030v1516h1030v-1516zM506 1270v-1024h428v1024h-428z" />
    <glyph glyph-name="gravecomb" unicode="&#x300;" 
d="M1235 0h-1030v1516h1030v-1516zM506 1270v-1024h428v1024h-428z" />
    <glyph glyph-name="acutecomb" unicode="&#x301;" 
d="M1235 0h-1030v1516h1030v-1516zM506 1270v-1024h428v1024h-428z" />
    <glyph glyph-name="uni0302" unicode="&#x302;" 
d="M1235 0h-1030v1516h1030v-1516zM506 1270v-1024h428v1024h-428z" />
    <glyph glyph-name="tildecomb" unicode="&#x303;" 
d="M1235 0h-1030v1516h1030v-1516zM506 1270v-1024h428v1024h-428z" />
    <glyph glyph-name="uni0304" unicode="&#x304;" 
d="M1235 0h-1030v1516h1030v-1516zM506 1270v-1024h428v1024h-428z" />
    <glyph glyph-name="uni0306" unicode="&#x306;" 
d="M1235 0h-1030v1516h1030v-1516zM506 1270v-1024h428v1024h-428z" />
    <glyph glyph-name="uni0307" unicode="&#x307;" 
d="M1235 0h-1030v1516h1030v-1516zM506 1270v-1024h428v1024h-428z" />
    <glyph glyph-name="uni0308" unicode="&#x308;" 
d="M1235 0h-1030v1516h1030v-1516zM506 1270v-1024h428v1024h-428z" />
    <glyph glyph-name="uni030A" unicode="&#x30a;" 
d="M1235 0h-1030v1516h1030v-1516zM506 1270v-1024h428v1024h-428z" />
    <glyph glyph-name="uni030B" unicode="&#x30b;" 
d="M1235 0h-1030v1516h1030v-1516zM506 1270v-1024h428v1024h-428z" />
    <glyph glyph-name="uni030C" unicode="&#x30c;" 
d="M1235 0h-1030v1516h1030v-1516zM506 1270v-1024h428v1024h-428z" />
    <glyph glyph-name="uni0312" unicode="&#x312;" 
d="M1235 0h-1030v1516h1030v-1516zM506 1270v-1024h428v1024h-428z" />
    <glyph glyph-name="uni0326" unicode="&#x326;" 
d="M1235 0h-1030v1516h1030v-1516zM506 1270v-1024h428v1024h-428z" />
    <glyph glyph-name="uni0327" unicode="&#x327;" 
d="M1235 0h-1030v1516h1030v-1516zM506 1270v-1024h428v1024h-428z" />
    <glyph glyph-name="uni0328" unicode="&#x328;" 
d="M1235 0h-1030v1516h1030v-1516zM506 1270v-1024h428v1024h-428z" />
    <glyph glyph-name="uni0394" unicode="&#x394;" 
d="M1235 0h-1030v1516h1030v-1516zM506 1270v-1024h428v1024h-428z" />
    <glyph glyph-name="uni03A9" unicode="&#x3a9;" 
d="M1235 0h-1030v1516h1030v-1516zM506 1270v-1024h428v1024h-428z" />
    <glyph glyph-name="uni03BC" unicode="&#x3bc;" 
d="M1235 0h-1030v1516h1030v-1516zM506 1270v-1024h428v1024h-428z" />
    <glyph glyph-name="pi" unicode="&#x3c0;" 
d="M1235 0h-1030v1516h1030v-1516zM506 1270v-1024h428v1024h-428z" />
    <glyph glyph-name="Wgrave" unicode="&#x1e80;" 
d="M1235 0h-1030v1516h1030v-1516zM506 1270v-1024h428v1024h-428z" />
    <glyph glyph-name="wgrave" unicode="&#x1e81;" 
d="M1235 0h-1030v1516h1030v-1516zM506 1270v-1024h428v1024h-428z" />
    <glyph glyph-name="Wacute" unicode="&#x1e82;" 
d="M1235 0h-1030v1516h1030v-1516zM506 1270v-1024h428v1024h-428z" />
    <glyph glyph-name="wacute" unicode="&#x1e83;" 
d="M1235 0h-1030v1516h1030v-1516zM506 1270v-1024h428v1024h-428z" />
    <glyph glyph-name="Wdieresis" unicode="&#x1e84;" 
d="M1235 0h-1030v1516h1030v-1516zM506 1270v-1024h428v1024h-428z" />
    <glyph glyph-name="wdieresis" unicode="&#x1e85;" 
d="M1235 0h-1030v1516h1030v-1516zM506 1270v-1024h428v1024h-428z" />
    <glyph glyph-name="uni1E9E" unicode="&#x1e9e;" 
d="M1235 0h-1030v1516h1030v-1516zM506 1270v-1024h428v1024h-428z" />
    <glyph glyph-name="Ygrave" unicode="&#x1ef2;" 
d="M1235 0h-1030v1516h1030v-1516zM506 1270v-1024h428v1024h-428z" />
    <glyph glyph-name="ygrave" unicode="&#x1ef3;" 
d="M1235 0h-1030v1516h1030v-1516zM506 1270v-1024h428v1024h-428z" />
    <glyph glyph-name="uni2009" unicode="&#x2009;" 
d="M1235 0h-1030v1516h1030v-1516zM506 1270v-1024h428v1024h-428z" />
    <glyph glyph-name="endash" unicode="&#x2013;" 
d="M1235 0h-1030v1516h1030v-1516zM506 1270v-1024h428v1024h-428z" />
    <glyph glyph-name="emdash" unicode="&#x2014;" 
d="M1235 0h-1030v1516h1030v-1516zM506 1270v-1024h428v1024h-428z" />
    <glyph glyph-name="quoteleft" unicode="&#x2018;" 
d="M1235 0h-1030v1516h1030v-1516zM506 1270v-1024h428v1024h-428z" />
    <glyph glyph-name="quoteright" unicode="&#x2019;" 
d="M1235 0h-1030v1516h1030v-1516zM506 1270v-1024h428v1024h-428z" />
    <glyph glyph-name="quotesinglbase" unicode="&#x201a;" 
d="M1235 0h-1030v1516h1030v-1516zM506 1270v-1024h428v1024h-428z" />
    <glyph glyph-name="quotedblleft" unicode="&#x201c;" 
d="M1235 0h-1030v1516h1030v-1516zM506 1270v-1024h428v1024h-428z" />
    <glyph glyph-name="quotedblright" unicode="&#x201d;" 
d="M1235 0h-1030v1516h1030v-1516zM506 1270v-1024h428v1024h-428z" />
    <glyph glyph-name="quotedblbase" unicode="&#x201e;" 
d="M1235 0h-1030v1516h1030v-1516zM506 1270v-1024h428v1024h-428z" />
    <glyph glyph-name="dagger" unicode="&#x2020;" 
d="M1235 0h-1030v1516h1030v-1516zM506 1270v-1024h428v1024h-428z" />
    <glyph glyph-name="daggerdbl" unicode="&#x2021;" 
d="M1235 0h-1030v1516h1030v-1516zM506 1270v-1024h428v1024h-428z" />
    <glyph glyph-name="bullet" unicode="&#x2022;" 
d="M1235 0h-1030v1516h1030v-1516zM506 1270v-1024h428v1024h-428z" />
    <glyph glyph-name="ellipsis" unicode="&#x2026;" 
d="M1235 0h-1030v1516h1030v-1516zM506 1270v-1024h428v1024h-428z" />
    <glyph glyph-name="perthousand" unicode="&#x2030;" 
d="M1235 0h-1030v1516h1030v-1516zM506 1270v-1024h428v1024h-428z" />
    <glyph glyph-name="guilsinglleft" unicode="&#x2039;" 
d="M1235 0h-1030v1516h1030v-1516zM506 1270v-1024h428v1024h-428z" />
    <glyph glyph-name="guilsinglright" unicode="&#x203a;" 
d="M1235 0h-1030v1516h1030v-1516zM506 1270v-1024h428v1024h-428z" />
    <glyph glyph-name="fraction" unicode="&#x2044;" 
d="M1235 0h-1030v1516h1030v-1516zM506 1270v-1024h428v1024h-428z" />
    <glyph glyph-name="uni2070" unicode="&#x2070;" 
d="M1235 0h-1030v1516h1030v-1516zM506 1270v-1024h428v1024h-428z" />
    <glyph glyph-name="uni2074" unicode="&#x2074;" 
d="M1235 0h-1030v1516h1030v-1516zM506 1270v-1024h428v1024h-428z" />
    <glyph glyph-name="uni2075" unicode="&#x2075;" 
d="M1235 0h-1030v1516h1030v-1516zM506 1270v-1024h428v1024h-428z" />
    <glyph glyph-name="uni2076" unicode="&#x2076;" 
d="M1235 0h-1030v1516h1030v-1516zM506 1270v-1024h428v1024h-428z" />
    <glyph glyph-name="uni2077" unicode="&#x2077;" 
d="M1235 0h-1030v1516h1030v-1516zM506 1270v-1024h428v1024h-428z" />
    <glyph glyph-name="uni2078" unicode="&#x2078;" 
d="M1235 0h-1030v1516h1030v-1516zM506 1270v-1024h428v1024h-428z" />
    <glyph glyph-name="uni2079" unicode="&#x2079;" 
d="M1235 0h-1030v1516h1030v-1516zM506 1270v-1024h428v1024h-428z" />
    <glyph glyph-name="uni207A" unicode="&#x207a;" 
d="M1235 0h-1030v1516h1030v-1516zM506 1270v-1024h428v1024h-428z" />
    <glyph glyph-name="uni207B" unicode="&#x207b;" 
d="M1235 0h-1030v1516h1030v-1516zM506 1270v-1024h428v1024h-428z" />
    <glyph glyph-name="uni207C" unicode="&#x207c;" 
d="M1235 0h-1030v1516h1030v-1516zM506 1270v-1024h428v1024h-428z" />
    <glyph glyph-name="uni2080" unicode="&#x2080;" 
d="M1235 0h-1030v1516h1030v-1516zM506 1270v-1024h428v1024h-428z" />
    <glyph glyph-name="uni2081" unicode="&#x2081;" 
d="M1235 0h-1030v1516h1030v-1516zM506 1270v-1024h428v1024h-428z" />
    <glyph glyph-name="uni2082" unicode="&#x2082;" 
d="M1235 0h-1030v1516h1030v-1516zM506 1270v-1024h428v1024h-428z" />
    <glyph glyph-name="uni2083" unicode="&#x2083;" 
d="M1235 0h-1030v1516h1030v-1516zM506 1270v-1024h428v1024h-428z" />
    <glyph glyph-name="uni2084" unicode="&#x2084;" 
d="M1235 0h-1030v1516h1030v-1516zM506 1270v-1024h428v1024h-428z" />
    <glyph glyph-name="uni2085" unicode="&#x2085;" 
d="M1235 0h-1030v1516h1030v-1516zM506 1270v-1024h428v1024h-428z" />
    <glyph glyph-name="uni2086" unicode="&#x2086;" 
d="M1235 0h-1030v1516h1030v-1516zM506 1270v-1024h428v1024h-428z" />
    <glyph glyph-name="uni2087" unicode="&#x2087;" 
d="M1235 0h-1030v1516h1030v-1516zM506 1270v-1024h428v1024h-428z" />
    <glyph glyph-name="uni2088" unicode="&#x2088;" 
d="M1235 0h-1030v1516h1030v-1516zM506 1270v-1024h428v1024h-428z" />
    <glyph glyph-name="uni2089" unicode="&#x2089;" 
d="M1235 0h-1030v1516h1030v-1516zM506 1270v-1024h428v1024h-428z" />
    <glyph glyph-name="uni208A" unicode="&#x208a;" 
d="M1235 0h-1030v1516h1030v-1516zM506 1270v-1024h428v1024h-428z" />
    <glyph glyph-name="uni208B" unicode="&#x208b;" 
d="M1235 0h-1030v1516h1030v-1516zM506 1270v-1024h428v1024h-428z" />
    <glyph glyph-name="uni208C" unicode="&#x208c;" 
d="M1235 0h-1030v1516h1030v-1516zM506 1270v-1024h428v1024h-428z" />
    <glyph glyph-name="Euro" unicode="&#x20ac;" 
d="M1235 0h-1030v1516h1030v-1516zM506 1270v-1024h428v1024h-428z" />
    <glyph glyph-name="uni20B9" unicode="&#x20b9;" 
d="M1235 0h-1030v1516h1030v-1516zM506 1270v-1024h428v1024h-428z" />
    <glyph glyph-name="uni20BA" unicode="&#x20ba;" 
d="M1235 0h-1030v1516h1030v-1516zM506 1270v-1024h428v1024h-428z" />
    <glyph glyph-name="uni20BF" unicode="&#x20bf;" 
d="M1235 0h-1030v1516h1030v-1516zM506 1270v-1024h428v1024h-428z" />
    <glyph glyph-name="uni2113" unicode="&#x2113;" 
d="M1235 0h-1030v1516h1030v-1516zM506 1270v-1024h428v1024h-428z" />
    <glyph glyph-name="uni2116" unicode="&#x2116;" 
d="M1235 0h-1030v1516h1030v-1516zM506 1270v-1024h428v1024h-428z" />
    <glyph glyph-name="uni2117" unicode="&#x2117;" 
d="M1235 0h-1030v1516h1030v-1516zM506 1270v-1024h428v1024h-428z" />
    <glyph glyph-name="uni2120" unicode="&#x2120;" 
d="M1235 0h-1030v1516h1030v-1516zM506 1270v-1024h428v1024h-428z" />
    <glyph glyph-name="trademark" unicode="&#x2122;" 
d="M1235 0h-1030v1516h1030v-1516zM506 1270v-1024h428v1024h-428z" />
    <glyph glyph-name="estimated" unicode="&#x212e;" 
d="M1235 0h-1030v1516h1030v-1516zM506 1270v-1024h428v1024h-428z" />
    <glyph glyph-name="uni2150" unicode="&#x2150;" 
d="M1235 0h-1030v1516h1030v-1516zM506 1270v-1024h428v1024h-428z" />
    <glyph glyph-name="uni2151" unicode="&#x2151;" 
d="M1235 0h-1030v1516h1030v-1516zM506 1270v-1024h428v1024h-428z" />
    <glyph glyph-name="uni2153" unicode="&#x2153;" 
d="M1235 0h-1030v1516h1030v-1516zM506 1270v-1024h428v1024h-428z" />
    <glyph glyph-name="uni2154" unicode="&#x2154;" 
d="M1235 0h-1030v1516h1030v-1516zM506 1270v-1024h428v1024h-428z" />
    <glyph glyph-name="uni2155" unicode="&#x2155;" 
d="M1235 0h-1030v1516h1030v-1516zM506 1270v-1024h428v1024h-428z" />
    <glyph glyph-name="uni2156" unicode="&#x2156;" 
d="M1235 0h-1030v1516h1030v-1516zM506 1270v-1024h428v1024h-428z" />
    <glyph glyph-name="uni2157" unicode="&#x2157;" 
d="M1235 0h-1030v1516h1030v-1516zM506 1270v-1024h428v1024h-428z" />
    <glyph glyph-name="uni2158" unicode="&#x2158;" 
d="M1235 0h-1030v1516h1030v-1516zM506 1270v-1024h428v1024h-428z" />
    <glyph glyph-name="uni2159" unicode="&#x2159;" 
d="M1235 0h-1030v1516h1030v-1516zM506 1270v-1024h428v1024h-428z" />
    <glyph glyph-name="oneeighth" unicode="&#x215b;" 
d="M1235 0h-1030v1516h1030v-1516zM506 1270v-1024h428v1024h-428z" />
    <glyph glyph-name="threeeighths" unicode="&#x215c;" 
d="M1235 0h-1030v1516h1030v-1516zM506 1270v-1024h428v1024h-428z" />
    <glyph glyph-name="fiveeighths" unicode="&#x215d;" 
d="M1235 0h-1030v1516h1030v-1516zM506 1270v-1024h428v1024h-428z" />
    <glyph glyph-name="seveneighths" unicode="&#x215e;" 
d="M1235 0h-1030v1516h1030v-1516zM506 1270v-1024h428v1024h-428z" />
    <glyph glyph-name="arrowleft" unicode="&#x2190;" 
d="M1235 0h-1030v1516h1030v-1516zM506 1270v-1024h428v1024h-428z" />
    <glyph glyph-name="arrowup" unicode="&#x2191;" 
d="M1235 0h-1030v1516h1030v-1516zM506 1270v-1024h428v1024h-428z" />
    <glyph glyph-name="arrowright" unicode="&#x2192;" 
d="M1235 0h-1030v1516h1030v-1516zM506 1270v-1024h428v1024h-428z" />
    <glyph glyph-name="arrowdown" unicode="&#x2193;" 
d="M1235 0h-1030v1516h1030v-1516zM506 1270v-1024h428v1024h-428z" />
    <glyph glyph-name="arrowboth" unicode="&#x2194;" 
d="M1235 0h-1030v1516h1030v-1516zM506 1270v-1024h428v1024h-428z" />
    <glyph glyph-name="arrowupdn" unicode="&#x2195;" 
d="M1235 0h-1030v1516h1030v-1516zM506 1270v-1024h428v1024h-428z" />
    <glyph glyph-name="uni2196" unicode="&#x2196;" 
d="M1235 0h-1030v1516h1030v-1516zM506 1270v-1024h428v1024h-428z" />
    <glyph glyph-name="uni2197" unicode="&#x2197;" 
d="M1235 0h-1030v1516h1030v-1516zM506 1270v-1024h428v1024h-428z" />
    <glyph glyph-name="uni2198" unicode="&#x2198;" 
d="M1235 0h-1030v1516h1030v-1516zM506 1270v-1024h428v1024h-428z" />
    <glyph glyph-name="uni2199" unicode="&#x2199;" 
d="M1235 0h-1030v1516h1030v-1516zM506 1270v-1024h428v1024h-428z" />
    <glyph glyph-name="partialdiff" unicode="&#x2202;" 
d="M1235 0h-1030v1516h1030v-1516zM506 1270v-1024h428v1024h-428z" />
    <glyph glyph-name="product" unicode="&#x220f;" 
d="M1235 0h-1030v1516h1030v-1516zM506 1270v-1024h428v1024h-428z" />
    <glyph glyph-name="summation" unicode="&#x2211;" 
d="M1235 0h-1030v1516h1030v-1516zM506 1270v-1024h428v1024h-428z" />
    <glyph glyph-name="minus" unicode="&#x2212;" 
d="M1235 0h-1030v1516h1030v-1516zM506 1270v-1024h428v1024h-428z" />
    <glyph glyph-name="radical" unicode="&#x221a;" 
d="M1235 0h-1030v1516h1030v-1516zM506 1270v-1024h428v1024h-428z" />
    <glyph glyph-name="infinity" unicode="&#x221e;" 
d="M1235 0h-1030v1516h1030v-1516zM506 1270v-1024h428v1024h-428z" />
    <glyph glyph-name="integral" unicode="&#x222b;" 
d="M1235 0h-1030v1516h1030v-1516zM506 1270v-1024h428v1024h-428z" />
    <glyph glyph-name="approxequal" unicode="&#x2248;" 
d="M1235 0h-1030v1516h1030v-1516zM506 1270v-1024h428v1024h-428z" />
    <glyph glyph-name="notequal" unicode="&#x2260;" 
d="M1235 0h-1030v1516h1030v-1516zM506 1270v-1024h428v1024h-428z" />
    <glyph glyph-name="lessequal" unicode="&#x2264;" 
d="M1235 0h-1030v1516h1030v-1516zM506 1270v-1024h428v1024h-428z" />
    <glyph glyph-name="greaterequal" unicode="&#x2265;" 
d="M1235 0h-1030v1516h1030v-1516zM506 1270v-1024h428v1024h-428z" />
    <glyph glyph-name="uni22A0" unicode="&#x22a0;" 
d="M1235 0h-1030v1516h1030v-1516zM506 1270v-1024h428v1024h-428z" />
    <glyph glyph-name="house" unicode="&#x2302;" 
d="M1235 0h-1030v1516h1030v-1516zM506 1270v-1024h428v1024h-428z" />
    <glyph glyph-name="uni2460" unicode="&#x2460;" 
d="M1235 0h-1030v1516h1030v-1516zM506 1270v-1024h428v1024h-428z" />
    <glyph glyph-name="uni2461" unicode="&#x2461;" 
d="M1235 0h-1030v1516h1030v-1516zM506 1270v-1024h428v1024h-428z" />
    <glyph glyph-name="uni2462" unicode="&#x2462;" 
d="M1235 0h-1030v1516h1030v-1516zM506 1270v-1024h428v1024h-428z" />
    <glyph glyph-name="uni2463" unicode="&#x2463;" 
d="M1235 0h-1030v1516h1030v-1516zM506 1270v-1024h428v1024h-428z" />
    <glyph glyph-name="uni2464" unicode="&#x2464;" 
d="M1235 0h-1030v1516h1030v-1516zM506 1270v-1024h428v1024h-428z" />
    <glyph glyph-name="uni2465" unicode="&#x2465;" 
d="M1235 0h-1030v1516h1030v-1516zM506 1270v-1024h428v1024h-428z" />
    <glyph glyph-name="uni2466" unicode="&#x2466;" 
d="M1235 0h-1030v1516h1030v-1516zM506 1270v-1024h428v1024h-428z" />
    <glyph glyph-name="uni2467" unicode="&#x2467;" 
d="M1235 0h-1030v1516h1030v-1516zM506 1270v-1024h428v1024h-428z" />
    <glyph glyph-name="uni2468" unicode="&#x2468;" 
d="M1235 0h-1030v1516h1030v-1516zM506 1270v-1024h428v1024h-428z" />
    <glyph glyph-name="uni24EA" unicode="&#x24ea;" 
d="M1235 0h-1030v1516h1030v-1516zM506 1270v-1024h428v1024h-428z" />
    <glyph glyph-name="uni24FF" unicode="&#x24ff;" 
d="M1235 0h-1030v1516h1030v-1516zM506 1270v-1024h428v1024h-428z" />
    <glyph glyph-name="filledbox" unicode="&#x25a0;" 
d="M1235 0h-1030v1516h1030v-1516zM506 1270v-1024h428v1024h-428z" />
    <glyph glyph-name="uni25A1" unicode="&#x25a1;" 
d="M1235 0h-1030v1516h1030v-1516zM506 1270v-1024h428v1024h-428z" />
    <glyph glyph-name="uni25AA" unicode="&#x25aa;" 
d="M1235 0h-1030v1516h1030v-1516zM506 1270v-1024h428v1024h-428z" />
    <glyph glyph-name="uni25AB" unicode="&#x25ab;" 
d="M1235 0h-1030v1516h1030v-1516zM506 1270v-1024h428v1024h-428z" />
    <glyph glyph-name="triagup" unicode="&#x25b2;" 
d="M1235 0h-1030v1516h1030v-1516zM506 1270v-1024h428v1024h-428z" />
    <glyph glyph-name="triagrt" unicode="&#x25ba;" 
d="M1235 0h-1030v1516h1030v-1516zM506 1270v-1024h428v1024h-428z" />
    <glyph glyph-name="triagdn" unicode="&#x25bc;" 
d="M1235 0h-1030v1516h1030v-1516zM506 1270v-1024h428v1024h-428z" />
    <glyph glyph-name="triaglf" unicode="&#x25c4;" 
d="M1235 0h-1030v1516h1030v-1516zM506 1270v-1024h428v1024h-428z" />
    <glyph glyph-name="lozenge" unicode="&#x25ca;" 
d="M1235 0h-1030v1516h1030v-1516zM506 1270v-1024h428v1024h-428z" />
    <glyph glyph-name="circle" unicode="&#x25cb;" 
d="M1235 0h-1030v1516h1030v-1516zM506 1270v-1024h428v1024h-428z" />
    <glyph glyph-name="uni25CF" unicode="&#x25cf;" 
d="M1235 0h-1030v1516h1030v-1516zM506 1270v-1024h428v1024h-428z" />
    <glyph glyph-name="uni2612" unicode="&#x2612;" 
d="M1235 0h-1030v1516h1030v-1516zM506 1270v-1024h428v1024h-428z" />
    <glyph glyph-name="uni26AB" unicode="&#x26ab;" 
d="M1235 0h-1030v1516h1030v-1516zM506 1270v-1024h428v1024h-428z" />
    <glyph glyph-name="uni26AC" unicode="&#x26ac;" 
d="M1235 0h-1030v1516h1030v-1516zM506 1270v-1024h428v1024h-428z" />
    <glyph glyph-name="uni2776" unicode="&#x2776;" 
d="M1235 0h-1030v1516h1030v-1516zM506 1270v-1024h428v1024h-428z" />
    <glyph glyph-name="uni2777" unicode="&#x2777;" 
d="M1235 0h-1030v1516h1030v-1516zM506 1270v-1024h428v1024h-428z" />
    <glyph glyph-name="uni2778" unicode="&#x2778;" 
d="M1235 0h-1030v1516h1030v-1516zM506 1270v-1024h428v1024h-428z" />
    <glyph glyph-name="uni2779" unicode="&#x2779;" 
d="M1235 0h-1030v1516h1030v-1516zM506 1270v-1024h428v1024h-428z" />
    <glyph glyph-name="uni277A" unicode="&#x277a;" 
d="M1235 0h-1030v1516h1030v-1516zM506 1270v-1024h428v1024h-428z" />
    <glyph glyph-name="uni277B" unicode="&#x277b;" 
d="M1235 0h-1030v1516h1030v-1516zM506 1270v-1024h428v1024h-428z" />
    <glyph glyph-name="uni277C" unicode="&#x277c;" 
d="M1235 0h-1030v1516h1030v-1516zM506 1270v-1024h428v1024h-428z" />
    <glyph glyph-name="uni277D" unicode="&#x277d;" 
d="M1235 0h-1030v1516h1030v-1516zM506 1270v-1024h428v1024h-428z" />
    <glyph glyph-name="uni277E" unicode="&#x277e;" 
d="M1235 0h-1030v1516h1030v-1516zM506 1270v-1024h428v1024h-428z" />
    <glyph glyph-name="fi" unicode="&#xfb01;" 
d="M1235 0h-1030v1516h1030v-1516zM506 1270v-1024h428v1024h-428z" />
    <glyph glyph-name="fl" unicode="&#xfb02;" 
d="M1235 0h-1030v1516h1030v-1516zM506 1270v-1024h428v1024h-428z" />
    <glyph glyph-name="Iacute_J.loclNLD" 
d="M1235 0h-1030v1516h1030v-1516zM506 1270v-1024h428v1024h-428z" />
    <glyph glyph-name="iacute_j.loclNLD" 
d="M1235 0h-1030v1516h1030v-1516zM506 1270v-1024h428v1024h-428z" />
    <glyph glyph-name="a.ss01" 
d="M1235 0h-1030v1516h1030v-1516zM506 1270v-1024h428v1024h-428z" />
    <glyph glyph-name="aacute.ss01" 
d="M1235 0h-1030v1516h1030v-1516zM506 1270v-1024h428v1024h-428z" />
    <glyph glyph-name="abreve.ss01" 
d="M1235 0h-1030v1516h1030v-1516zM506 1270v-1024h428v1024h-428z" />
    <glyph glyph-name="acircumflex.ss01" 
d="M1235 0h-1030v1516h1030v-1516zM506 1270v-1024h428v1024h-428z" />
    <glyph glyph-name="adieresis.ss01" 
d="M1235 0h-1030v1516h1030v-1516zM506 1270v-1024h428v1024h-428z" />
    <glyph glyph-name="agrave.ss01" 
d="M1235 0h-1030v1516h1030v-1516zM506 1270v-1024h428v1024h-428z" />
    <glyph glyph-name="amacron.ss01" 
d="M1235 0h-1030v1516h1030v-1516zM506 1270v-1024h428v1024h-428z" />
    <glyph glyph-name="aogonek.ss01" 
d="M1235 0h-1030v1516h1030v-1516zM506 1270v-1024h428v1024h-428z" />
    <glyph glyph-name="aring.ss01" 
d="M1235 0h-1030v1516h1030v-1516zM506 1270v-1024h428v1024h-428z" />
    <glyph glyph-name="aringacute.ss01" 
d="M1235 0h-1030v1516h1030v-1516zM506 1270v-1024h428v1024h-428z" />
    <glyph glyph-name="atilde.ss01" 
d="M1235 0h-1030v1516h1030v-1516zM506 1270v-1024h428v1024h-428z" />
    <glyph glyph-name="ae.ss01" 
d="M1235 0h-1030v1516h1030v-1516zM506 1270v-1024h428v1024h-428z" />
    <glyph glyph-name="aeacute.ss01" 
d="M1235 0h-1030v1516h1030v-1516zM506 1270v-1024h428v1024h-428z" />
    <glyph glyph-name="f_b.liga" 
d="M1235 0h-1030v1516h1030v-1516zM506 1270v-1024h428v1024h-428z" />
    <glyph glyph-name="f_f.liga" 
d="M1235 0h-1030v1516h1030v-1516zM506 1270v-1024h428v1024h-428z" />
    <glyph glyph-name="f_f_b.liga" 
d="M1235 0h-1030v1516h1030v-1516zM506 1270v-1024h428v1024h-428z" />
    <glyph glyph-name="f_f_h.liga" 
d="M1235 0h-1030v1516h1030v-1516zM506 1270v-1024h428v1024h-428z" />
    <glyph glyph-name="f_f_i.liga" 
d="M1235 0h-1030v1516h1030v-1516zM506 1270v-1024h428v1024h-428z" />
    <glyph glyph-name="f_f_j.liga" 
d="M1235 0h-1030v1516h1030v-1516zM506 1270v-1024h428v1024h-428z" />
    <glyph glyph-name="f_f_k.liga" 
d="M1235 0h-1030v1516h1030v-1516zM506 1270v-1024h428v1024h-428z" />
    <glyph glyph-name="f_f_l.liga" 
d="M1235 0h-1030v1516h1030v-1516zM506 1270v-1024h428v1024h-428z" />
    <glyph glyph-name="f_h.liga" 
d="M1235 0h-1030v1516h1030v-1516zM506 1270v-1024h428v1024h-428z" />
    <glyph glyph-name="f_idieresis.liga" 
d="M1235 0h-1030v1516h1030v-1516zM506 1270v-1024h428v1024h-428z" />
    <glyph glyph-name="f_j.liga" 
d="M1235 0h-1030v1516h1030v-1516zM506 1270v-1024h428v1024h-428z" />
    <glyph glyph-name="f_k.liga" 
d="M1235 0h-1030v1516h1030v-1516zM506 1270v-1024h428v1024h-428z" />
    <glyph glyph-name="a.sc" 
d="M1235 0h-1030v1516h1030v-1516zM506 1270v-1024h428v1024h-428z" />
    <glyph glyph-name="aacute.sc" 
d="M1235 0h-1030v1516h1030v-1516zM506 1270v-1024h428v1024h-428z" />
    <glyph glyph-name="abreve.sc" 
d="M1235 0h-1030v1516h1030v-1516zM506 1270v-1024h428v1024h-428z" />
    <glyph glyph-name="acircumflex.sc" 
d="M1235 0h-1030v1516h1030v-1516zM506 1270v-1024h428v1024h-428z" />
    <glyph glyph-name="adieresis.sc" 
d="M1235 0h-1030v1516h1030v-1516zM506 1270v-1024h428v1024h-428z" />
    <glyph glyph-name="agrave.sc" 
d="M1235 0h-1030v1516h1030v-1516zM506 1270v-1024h428v1024h-428z" />
    <glyph glyph-name="amacron.sc" 
d="M1235 0h-1030v1516h1030v-1516zM506 1270v-1024h428v1024h-428z" />
    <glyph glyph-name="aogonek.sc" 
d="M1235 0h-1030v1516h1030v-1516zM506 1270v-1024h428v1024h-428z" />
    <glyph glyph-name="aring.sc" 
d="M1235 0h-1030v1516h1030v-1516zM506 1270v-1024h428v1024h-428z" />
    <glyph glyph-name="aringacute.sc" 
d="M1235 0h-1030v1516h1030v-1516zM506 1270v-1024h428v1024h-428z" />
    <glyph glyph-name="atilde.sc" 
d="M1235 0h-1030v1516h1030v-1516zM506 1270v-1024h428v1024h-428z" />
    <glyph glyph-name="ae.sc" 
d="M1235 0h-1030v1516h1030v-1516zM506 1270v-1024h428v1024h-428z" />
    <glyph glyph-name="aeacute.sc" 
d="M1235 0h-1030v1516h1030v-1516zM506 1270v-1024h428v1024h-428z" />
    <glyph glyph-name="b.sc" 
d="M1235 0h-1030v1516h1030v-1516zM506 1270v-1024h428v1024h-428z" />
    <glyph glyph-name="c.sc" 
d="M1235 0h-1030v1516h1030v-1516zM506 1270v-1024h428v1024h-428z" />
    <glyph glyph-name="cacute.sc" 
d="M1235 0h-1030v1516h1030v-1516zM506 1270v-1024h428v1024h-428z" />
    <glyph glyph-name="ccaron.sc" 
d="M1235 0h-1030v1516h1030v-1516zM506 1270v-1024h428v1024h-428z" />
    <glyph glyph-name="ccedilla.sc" 
d="M1235 0h-1030v1516h1030v-1516zM506 1270v-1024h428v1024h-428z" />
    <glyph glyph-name="ccircumflex.sc" 
d="M1235 0h-1030v1516h1030v-1516zM506 1270v-1024h428v1024h-428z" />
    <glyph glyph-name="cdotaccent.sc" 
d="M1235 0h-1030v1516h1030v-1516zM506 1270v-1024h428v1024h-428z" />
    <glyph glyph-name="d.sc" 
d="M1235 0h-1030v1516h1030v-1516zM506 1270v-1024h428v1024h-428z" />
    <glyph glyph-name="eth.sc" 
d="M1235 0h-1030v1516h1030v-1516zM506 1270v-1024h428v1024h-428z" />
    <glyph glyph-name="dcaron.sc" 
d="M1235 0h-1030v1516h1030v-1516zM506 1270v-1024h428v1024h-428z" />
    <glyph glyph-name="dcroat.sc" 
d="M1235 0h-1030v1516h1030v-1516zM506 1270v-1024h428v1024h-428z" />
    <glyph glyph-name="e.sc" 
d="M1235 0h-1030v1516h1030v-1516zM506 1270v-1024h428v1024h-428z" />
    <glyph glyph-name="eacute.sc" 
d="M1235 0h-1030v1516h1030v-1516zM506 1270v-1024h428v1024h-428z" />
    <glyph glyph-name="ebreve.sc" 
d="M1235 0h-1030v1516h1030v-1516zM506 1270v-1024h428v1024h-428z" />
    <glyph glyph-name="ecaron.sc" 
d="M1235 0h-1030v1516h1030v-1516zM506 1270v-1024h428v1024h-428z" />
    <glyph glyph-name="ecircumflex.sc" 
d="M1235 0h-1030v1516h1030v-1516zM506 1270v-1024h428v1024h-428z" />
    <glyph glyph-name="edieresis.sc" 
d="M1235 0h-1030v1516h1030v-1516zM506 1270v-1024h428v1024h-428z" />
    <glyph glyph-name="edotaccent.sc" 
d="M1235 0h-1030v1516h1030v-1516zM506 1270v-1024h428v1024h-428z" />
    <glyph glyph-name="egrave.sc" 
d="M1235 0h-1030v1516h1030v-1516zM506 1270v-1024h428v1024h-428z" />
    <glyph glyph-name="emacron.sc" 
d="M1235 0h-1030v1516h1030v-1516zM506 1270v-1024h428v1024h-428z" />
    <glyph glyph-name="eogonek.sc" 
d="M1235 0h-1030v1516h1030v-1516zM506 1270v-1024h428v1024h-428z" />
    <glyph glyph-name="f.sc" 
d="M1235 0h-1030v1516h1030v-1516zM506 1270v-1024h428v1024h-428z" />
    <glyph glyph-name="g.sc" 
d="M1235 0h-1030v1516h1030v-1516zM506 1270v-1024h428v1024h-428z" />
    <glyph glyph-name="gbreve.sc" 
d="M1235 0h-1030v1516h1030v-1516zM506 1270v-1024h428v1024h-428z" />
    <glyph glyph-name="gcircumflex.sc" 
d="M1235 0h-1030v1516h1030v-1516zM506 1270v-1024h428v1024h-428z" />
    <glyph glyph-name="uni0123.sc" 
d="M1235 0h-1030v1516h1030v-1516zM506 1270v-1024h428v1024h-428z" />
    <glyph glyph-name="gdotaccent.sc" 
d="M1235 0h-1030v1516h1030v-1516zM506 1270v-1024h428v1024h-428z" />
    <glyph glyph-name="h.sc" 
d="M1235 0h-1030v1516h1030v-1516zM506 1270v-1024h428v1024h-428z" />
    <glyph glyph-name="hbar.sc" 
d="M1235 0h-1030v1516h1030v-1516zM506 1270v-1024h428v1024h-428z" />
    <glyph glyph-name="hcircumflex.sc" 
d="M1235 0h-1030v1516h1030v-1516zM506 1270v-1024h428v1024h-428z" />
    <glyph glyph-name="i.sc" 
d="M1235 0h-1030v1516h1030v-1516zM506 1270v-1024h428v1024h-428z" />
    <glyph glyph-name="iacute.sc" 
d="M1235 0h-1030v1516h1030v-1516zM506 1270v-1024h428v1024h-428z" />
    <glyph glyph-name="iacute_j.loclNLD.sc" 
d="M1235 0h-1030v1516h1030v-1516zM506 1270v-1024h428v1024h-428z" />
    <glyph glyph-name="ibreve.sc" 
d="M1235 0h-1030v1516h1030v-1516zM506 1270v-1024h428v1024h-428z" />
    <glyph glyph-name="icircumflex.sc" 
d="M1235 0h-1030v1516h1030v-1516zM506 1270v-1024h428v1024h-428z" />
    <glyph glyph-name="idieresis.sc" 
d="M1235 0h-1030v1516h1030v-1516zM506 1270v-1024h428v1024h-428z" />
    <glyph glyph-name="i.sc.loclTRK" 
d="M1235 0h-1030v1516h1030v-1516zM506 1270v-1024h428v1024h-428z" />
    <glyph glyph-name="igrave.sc" 
d="M1235 0h-1030v1516h1030v-1516zM506 1270v-1024h428v1024h-428z" />
    <glyph glyph-name="ij.sc" 
d="M1235 0h-1030v1516h1030v-1516zM506 1270v-1024h428v1024h-428z" />
    <glyph glyph-name="imacron.sc" 
d="M1235 0h-1030v1516h1030v-1516zM506 1270v-1024h428v1024h-428z" />
    <glyph glyph-name="iogonek.sc" 
d="M1235 0h-1030v1516h1030v-1516zM506 1270v-1024h428v1024h-428z" />
    <glyph glyph-name="itilde.sc" 
d="M1235 0h-1030v1516h1030v-1516zM506 1270v-1024h428v1024h-428z" />
    <glyph glyph-name="j.sc" 
d="M1235 0h-1030v1516h1030v-1516zM506 1270v-1024h428v1024h-428z" />
    <glyph glyph-name="jcircumflex.sc" 
d="M1235 0h-1030v1516h1030v-1516zM506 1270v-1024h428v1024h-428z" />
    <glyph glyph-name="k.sc" 
d="M1235 0h-1030v1516h1030v-1516zM506 1270v-1024h428v1024h-428z" />
    <glyph glyph-name="uni0137.sc" 
d="M1235 0h-1030v1516h1030v-1516zM506 1270v-1024h428v1024h-428z" />
    <glyph glyph-name="l.sc" 
d="M1235 0h-1030v1516h1030v-1516zM506 1270v-1024h428v1024h-428z" />
    <glyph glyph-name="lacute.sc" 
d="M1235 0h-1030v1516h1030v-1516zM506 1270v-1024h428v1024h-428z" />
    <glyph glyph-name="lcaron.sc" 
d="M1235 0h-1030v1516h1030v-1516zM506 1270v-1024h428v1024h-428z" />
    <glyph glyph-name="uni013C.sc" 
d="M1235 0h-1030v1516h1030v-1516zM506 1270v-1024h428v1024h-428z" />
    <glyph glyph-name="ldot.sc" 
d="M1235 0h-1030v1516h1030v-1516zM506 1270v-1024h428v1024h-428z" />
    <glyph glyph-name="lslash.sc" 
d="M1235 0h-1030v1516h1030v-1516zM506 1270v-1024h428v1024h-428z" />
    <glyph glyph-name="m.sc" 
d="M1235 0h-1030v1516h1030v-1516zM506 1270v-1024h428v1024h-428z" />
    <glyph glyph-name="n.sc" 
d="M1235 0h-1030v1516h1030v-1516zM506 1270v-1024h428v1024h-428z" />
    <glyph glyph-name="nacute.sc" 
d="M1235 0h-1030v1516h1030v-1516zM506 1270v-1024h428v1024h-428z" />
    <glyph glyph-name="ncaron.sc" 
d="M1235 0h-1030v1516h1030v-1516zM506 1270v-1024h428v1024h-428z" />
    <glyph glyph-name="uni0146.sc" 
d="M1235 0h-1030v1516h1030v-1516zM506 1270v-1024h428v1024h-428z" />
    <glyph glyph-name="eng.sc" 
d="M1235 0h-1030v1516h1030v-1516zM506 1270v-1024h428v1024h-428z" />
    <glyph glyph-name="ntilde.sc" 
d="M1235 0h-1030v1516h1030v-1516zM506 1270v-1024h428v1024h-428z" />
    <glyph glyph-name="o.sc" 
d="M1235 0h-1030v1516h1030v-1516zM506 1270v-1024h428v1024h-428z" />
    <glyph glyph-name="oacute.sc" 
d="M1235 0h-1030v1516h1030v-1516zM506 1270v-1024h428v1024h-428z" />
    <glyph glyph-name="obreve.sc" 
d="M1235 0h-1030v1516h1030v-1516zM506 1270v-1024h428v1024h-428z" />
    <glyph glyph-name="ocircumflex.sc" 
d="M1235 0h-1030v1516h1030v-1516zM506 1270v-1024h428v1024h-428z" />
    <glyph glyph-name="odieresis.sc" 
d="M1235 0h-1030v1516h1030v-1516zM506 1270v-1024h428v1024h-428z" />
    <glyph glyph-name="ograve.sc" 
d="M1235 0h-1030v1516h1030v-1516zM506 1270v-1024h428v1024h-428z" />
    <glyph glyph-name="ohungarumlaut.sc" 
d="M1235 0h-1030v1516h1030v-1516zM506 1270v-1024h428v1024h-428z" />
    <glyph glyph-name="omacron.sc" 
d="M1235 0h-1030v1516h1030v-1516zM506 1270v-1024h428v1024h-428z" />
    <glyph glyph-name="uni01EB.sc" 
d="M1235 0h-1030v1516h1030v-1516zM506 1270v-1024h428v1024h-428z" />
    <glyph glyph-name="oslash.sc" 
d="M1235 0h-1030v1516h1030v-1516zM506 1270v-1024h428v1024h-428z" />
    <glyph glyph-name="oslashacute.sc" 
d="M1235 0h-1030v1516h1030v-1516zM506 1270v-1024h428v1024h-428z" />
    <glyph glyph-name="otilde.sc" 
d="M1235 0h-1030v1516h1030v-1516zM506 1270v-1024h428v1024h-428z" />
    <glyph glyph-name="oe.sc" 
d="M1235 0h-1030v1516h1030v-1516zM506 1270v-1024h428v1024h-428z" />
    <glyph glyph-name="p.sc" 
d="M1235 0h-1030v1516h1030v-1516zM506 1270v-1024h428v1024h-428z" />
    <glyph glyph-name="thorn.sc" 
d="M1235 0h-1030v1516h1030v-1516zM506 1270v-1024h428v1024h-428z" />
    <glyph glyph-name="q.sc" 
d="M1235 0h-1030v1516h1030v-1516zM506 1270v-1024h428v1024h-428z" />
    <glyph glyph-name="r.sc" 
d="M1235 0h-1030v1516h1030v-1516zM506 1270v-1024h428v1024h-428z" />
    <glyph glyph-name="racute.sc" 
d="M1235 0h-1030v1516h1030v-1516zM506 1270v-1024h428v1024h-428z" />
    <glyph glyph-name="rcaron.sc" 
d="M1235 0h-1030v1516h1030v-1516zM506 1270v-1024h428v1024h-428z" />
    <glyph glyph-name="uni0157.sc" 
d="M1235 0h-1030v1516h1030v-1516zM506 1270v-1024h428v1024h-428z" />
    <glyph glyph-name="s.sc" 
d="M1235 0h-1030v1516h1030v-1516zM506 1270v-1024h428v1024h-428z" />
    <glyph glyph-name="sacute.sc" 
d="M1235 0h-1030v1516h1030v-1516zM506 1270v-1024h428v1024h-428z" />
    <glyph glyph-name="scaron.sc" 
d="M1235 0h-1030v1516h1030v-1516zM506 1270v-1024h428v1024h-428z" />
    <glyph glyph-name="scedilla.sc" 
d="M1235 0h-1030v1516h1030v-1516zM506 1270v-1024h428v1024h-428z" />
    <glyph glyph-name="scircumflex.sc" 
d="M1235 0h-1030v1516h1030v-1516zM506 1270v-1024h428v1024h-428z" />
    <glyph glyph-name="uni0219.sc" 
d="M1235 0h-1030v1516h1030v-1516zM506 1270v-1024h428v1024h-428z" />
    <glyph glyph-name="germandbls.sc" 
d="M1235 0h-1030v1516h1030v-1516zM506 1270v-1024h428v1024h-428z" />
    <glyph glyph-name="t.sc" 
d="M1235 0h-1030v1516h1030v-1516zM506 1270v-1024h428v1024h-428z" />
    <glyph glyph-name="tbar.sc" 
d="M1235 0h-1030v1516h1030v-1516zM506 1270v-1024h428v1024h-428z" />
    <glyph glyph-name="tcaron.sc" 
d="M1235 0h-1030v1516h1030v-1516zM506 1270v-1024h428v1024h-428z" />
    <glyph glyph-name="uni0163.sc" 
d="M1235 0h-1030v1516h1030v-1516zM506 1270v-1024h428v1024h-428z" />
    <glyph glyph-name="uni021B.sc" 
d="M1235 0h-1030v1516h1030v-1516zM506 1270v-1024h428v1024h-428z" />
    <glyph glyph-name="u.sc" 
d="M1235 0h-1030v1516h1030v-1516zM506 1270v-1024h428v1024h-428z" />
    <glyph glyph-name="uacute.sc" 
d="M1235 0h-1030v1516h1030v-1516zM506 1270v-1024h428v1024h-428z" />
    <glyph glyph-name="ubreve.sc" 
d="M1235 0h-1030v1516h1030v-1516zM506 1270v-1024h428v1024h-428z" />
    <glyph glyph-name="ucircumflex.sc" 
d="M1235 0h-1030v1516h1030v-1516zM506 1270v-1024h428v1024h-428z" />
    <glyph glyph-name="udieresis.sc" 
d="M1235 0h-1030v1516h1030v-1516zM506 1270v-1024h428v1024h-428z" />
    <glyph glyph-name="ugrave.sc" 
d="M1235 0h-1030v1516h1030v-1516zM506 1270v-1024h428v1024h-428z" />
    <glyph glyph-name="uhungarumlaut.sc" 
d="M1235 0h-1030v1516h1030v-1516zM506 1270v-1024h428v1024h-428z" />
    <glyph glyph-name="umacron.sc" 
d="M1235 0h-1030v1516h1030v-1516zM506 1270v-1024h428v1024h-428z" />
    <glyph glyph-name="uogonek.sc" 
d="M1235 0h-1030v1516h1030v-1516zM506 1270v-1024h428v1024h-428z" />
    <glyph glyph-name="uring.sc" 
d="M1235 0h-1030v1516h1030v-1516zM506 1270v-1024h428v1024h-428z" />
    <glyph glyph-name="utilde.sc" 
d="M1235 0h-1030v1516h1030v-1516zM506 1270v-1024h428v1024h-428z" />
    <glyph glyph-name="v.sc" 
d="M1235 0h-1030v1516h1030v-1516zM506 1270v-1024h428v1024h-428z" />
    <glyph glyph-name="w.sc" 
d="M1235 0h-1030v1516h1030v-1516zM506 1270v-1024h428v1024h-428z" />
    <glyph glyph-name="wacute.sc" 
d="M1235 0h-1030v1516h1030v-1516zM506 1270v-1024h428v1024h-428z" />
    <glyph glyph-name="wcircumflex.sc" 
d="M1235 0h-1030v1516h1030v-1516zM506 1270v-1024h428v1024h-428z" />
    <glyph glyph-name="wdieresis.sc" 
d="M1235 0h-1030v1516h1030v-1516zM506 1270v-1024h428v1024h-428z" />
    <glyph glyph-name="wgrave.sc" 
d="M1235 0h-1030v1516h1030v-1516zM506 1270v-1024h428v1024h-428z" />
    <glyph glyph-name="x.sc" 
d="M1235 0h-1030v1516h1030v-1516zM506 1270v-1024h428v1024h-428z" />
    <glyph glyph-name="y.sc" 
d="M1235 0h-1030v1516h1030v-1516zM506 1270v-1024h428v1024h-428z" />
    <glyph glyph-name="yacute.sc" 
d="M1235 0h-1030v1516h1030v-1516zM506 1270v-1024h428v1024h-428z" />
    <glyph glyph-name="ycircumflex.sc" 
d="M1235 0h-1030v1516h1030v-1516zM506 1270v-1024h428v1024h-428z" />
    <glyph glyph-name="ydieresis.sc" 
d="M1235 0h-1030v1516h1030v-1516zM506 1270v-1024h428v1024h-428z" />
    <glyph glyph-name="ygrave.sc" 
d="M1235 0h-1030v1516h1030v-1516zM506 1270v-1024h428v1024h-428z" />
    <glyph glyph-name="z.sc" 
d="M1235 0h-1030v1516h1030v-1516zM506 1270v-1024h428v1024h-428z" />
    <glyph glyph-name="zacute.sc" 
d="M1235 0h-1030v1516h1030v-1516zM506 1270v-1024h428v1024h-428z" />
    <glyph glyph-name="zcaron.sc" 
d="M1235 0h-1030v1516h1030v-1516zM506 1270v-1024h428v1024h-428z" />
    <glyph glyph-name="zdotaccent.sc" 
d="M1235 0h-1030v1516h1030v-1516zM506 1270v-1024h428v1024h-428z" />
    <glyph glyph-name="a.subs.ss01" 
d="M1235 0h-1030v1516h1030v-1516zM506 1270v-1024h428v1024h-428z" />
    <glyph glyph-name="a.sups.ss01" 
d="M1235 0h-1030v1516h1030v-1516zM506 1270v-1024h428v1024h-428z" />
    <glyph glyph-name="a.subs" 
d="M1235 0h-1030v1516h1030v-1516zM506 1270v-1024h428v1024h-428z" />
    <glyph glyph-name="b.subs" 
d="M1235 0h-1030v1516h1030v-1516zM506 1270v-1024h428v1024h-428z" />
    <glyph glyph-name="c.subs" 
d="M1235 0h-1030v1516h1030v-1516zM506 1270v-1024h428v1024h-428z" />
    <glyph glyph-name="d.subs" 
d="M1235 0h-1030v1516h1030v-1516zM506 1270v-1024h428v1024h-428z" />
    <glyph glyph-name="e.subs" 
d="M1235 0h-1030v1516h1030v-1516zM506 1270v-1024h428v1024h-428z" />
    <glyph glyph-name="f.subs" 
d="M1235 0h-1030v1516h1030v-1516zM506 1270v-1024h428v1024h-428z" />
    <glyph glyph-name="g.subs" 
d="M1235 0h-1030v1516h1030v-1516zM506 1270v-1024h428v1024h-428z" />
    <glyph glyph-name="h.subs" 
d="M1235 0h-1030v1516h1030v-1516zM506 1270v-1024h428v1024h-428z" />
    <glyph glyph-name="i.subs" 
d="M1235 0h-1030v1516h1030v-1516zM506 1270v-1024h428v1024h-428z" />
    <glyph glyph-name="j.subs" 
d="M1235 0h-1030v1516h1030v-1516zM506 1270v-1024h428v1024h-428z" />
    <glyph glyph-name="k.subs" 
d="M1235 0h-1030v1516h1030v-1516zM506 1270v-1024h428v1024h-428z" />
    <glyph glyph-name="l.subs" 
d="M1235 0h-1030v1516h1030v-1516zM506 1270v-1024h428v1024h-428z" />
    <glyph glyph-name="m.subs" 
d="M1235 0h-1030v1516h1030v-1516zM506 1270v-1024h428v1024h-428z" />
    <glyph glyph-name="n.subs" 
d="M1235 0h-1030v1516h1030v-1516zM506 1270v-1024h428v1024h-428z" />
    <glyph glyph-name="o.subs" 
d="M1235 0h-1030v1516h1030v-1516zM506 1270v-1024h428v1024h-428z" />
    <glyph glyph-name="p.subs" 
d="M1235 0h-1030v1516h1030v-1516zM506 1270v-1024h428v1024h-428z" />
    <glyph glyph-name="q.subs" 
d="M1235 0h-1030v1516h1030v-1516zM506 1270v-1024h428v1024h-428z" />
    <glyph glyph-name="r.subs" 
d="M1235 0h-1030v1516h1030v-1516zM506 1270v-1024h428v1024h-428z" />
    <glyph glyph-name="s.subs" 
d="M1235 0h-1030v1516h1030v-1516zM506 1270v-1024h428v1024h-428z" />
    <glyph glyph-name="t.subs" 
d="M1235 0h-1030v1516h1030v-1516zM506 1270v-1024h428v1024h-428z" />
    <glyph glyph-name="u.subs" 
d="M1235 0h-1030v1516h1030v-1516zM506 1270v-1024h428v1024h-428z" />
    <glyph glyph-name="v.subs" 
d="M1235 0h-1030v1516h1030v-1516zM506 1270v-1024h428v1024h-428z" />
    <glyph glyph-name="w.subs" 
d="M1235 0h-1030v1516h1030v-1516zM506 1270v-1024h428v1024h-428z" />
    <glyph glyph-name="x.subs" 
d="M1235 0h-1030v1516h1030v-1516zM506 1270v-1024h428v1024h-428z" />
    <glyph glyph-name="y.subs" 
d="M1235 0h-1030v1516h1030v-1516zM506 1270v-1024h428v1024h-428z" />
    <glyph glyph-name="z.subs" 
d="M1235 0h-1030v1516h1030v-1516zM506 1270v-1024h428v1024h-428z" />
    <glyph glyph-name="a.sups" 
d="M1235 0h-1030v1516h1030v-1516zM506 1270v-1024h428v1024h-428z" />
    <glyph glyph-name="b.sups" 
d="M1235 0h-1030v1516h1030v-1516zM506 1270v-1024h428v1024h-428z" />
    <glyph glyph-name="c.sups" 
d="M1235 0h-1030v1516h1030v-1516zM506 1270v-1024h428v1024h-428z" />
    <glyph glyph-name="d.sups" 
d="M1235 0h-1030v1516h1030v-1516zM506 1270v-1024h428v1024h-428z" />
    <glyph glyph-name="e.sups" 
d="M1235 0h-1030v1516h1030v-1516zM506 1270v-1024h428v1024h-428z" />
    <glyph glyph-name="f.sups" 
d="M1235 0h-1030v1516h1030v-1516zM506 1270v-1024h428v1024h-428z" />
    <glyph glyph-name="g.sups" 
d="M1235 0h-1030v1516h1030v-1516zM506 1270v-1024h428v1024h-428z" />
    <glyph glyph-name="h.sups" 
d="M1235 0h-1030v1516h1030v-1516zM506 1270v-1024h428v1024h-428z" />
    <glyph glyph-name="i.sups" 
d="M1235 0h-1030v1516h1030v-1516zM506 1270v-1024h428v1024h-428z" />
    <glyph glyph-name="j.sups" 
d="M1235 0h-1030v1516h1030v-1516zM506 1270v-1024h428v1024h-428z" />
    <glyph glyph-name="k.sups" 
d="M1235 0h-1030v1516h1030v-1516zM506 1270v-1024h428v1024h-428z" />
    <glyph glyph-name="l.sups" 
d="M1235 0h-1030v1516h1030v-1516zM506 1270v-1024h428v1024h-428z" />
    <glyph glyph-name="m.sups" 
d="M1235 0h-1030v1516h1030v-1516zM506 1270v-1024h428v1024h-428z" />
    <glyph glyph-name="n.sups" 
d="M1235 0h-1030v1516h1030v-1516zM506 1270v-1024h428v1024h-428z" />
    <glyph glyph-name="o.sups" 
d="M1235 0h-1030v1516h1030v-1516zM506 1270v-1024h428v1024h-428z" />
    <glyph glyph-name="p.sups" 
d="M1235 0h-1030v1516h1030v-1516zM506 1270v-1024h428v1024h-428z" />
    <glyph glyph-name="q.sups" 
d="M1235 0h-1030v1516h1030v-1516zM506 1270v-1024h428v1024h-428z" />
    <glyph glyph-name="r.sups" 
d="M1235 0h-1030v1516h1030v-1516zM506 1270v-1024h428v1024h-428z" />
    <glyph glyph-name="s.sups" 
d="M1235 0h-1030v1516h1030v-1516zM506 1270v-1024h428v1024h-428z" />
    <glyph glyph-name="t.sups" 
d="M1235 0h-1030v1516h1030v-1516zM506 1270v-1024h428v1024h-428z" />
    <glyph glyph-name="u.sups" 
d="M1235 0h-1030v1516h1030v-1516zM506 1270v-1024h428v1024h-428z" />
    <glyph glyph-name="v.sups" 
d="M1235 0h-1030v1516h1030v-1516zM506 1270v-1024h428v1024h-428z" />
    <glyph glyph-name="w.sups" 
d="M1235 0h-1030v1516h1030v-1516zM506 1270v-1024h428v1024h-428z" />
    <glyph glyph-name="x.sups" 
d="M1235 0h-1030v1516h1030v-1516zM506 1270v-1024h428v1024h-428z" />
    <glyph glyph-name="y.sups" 
d="M1235 0h-1030v1516h1030v-1516zM506 1270v-1024h428v1024h-428z" />
    <glyph glyph-name="z.sups" 
d="M1235 0h-1030v1516h1030v-1516zM506 1270v-1024h428v1024h-428z" />
    <glyph glyph-name="zero.zero" 
d="M1235 0h-1030v1516h1030v-1516zM506 1270v-1024h428v1024h-428z" />
    <glyph glyph-name="zero.lf" 
d="M1235 0h-1030v1516h1030v-1516zM506 1270v-1024h428v1024h-428z" />
    <glyph glyph-name="one.lf" 
d="M1235 0h-1030v1516h1030v-1516zM506 1270v-1024h428v1024h-428z" />
    <glyph glyph-name="two.lf" 
d="M1235 0h-1030v1516h1030v-1516zM506 1270v-1024h428v1024h-428z" />
    <glyph glyph-name="three.lf" 
d="M1235 0h-1030v1516h1030v-1516zM506 1270v-1024h428v1024h-428z" />
    <glyph glyph-name="four.lf" 
d="M1235 0h-1030v1516h1030v-1516zM506 1270v-1024h428v1024h-428z" />
    <glyph glyph-name="five.lf" 
d="M1235 0h-1030v1516h1030v-1516zM506 1270v-1024h428v1024h-428z" />
    <glyph glyph-name="six.lf" 
d="M1235 0h-1030v1516h1030v-1516zM506 1270v-1024h428v1024h-428z" />
    <glyph glyph-name="seven.lf" 
d="M1235 0h-1030v1516h1030v-1516zM506 1270v-1024h428v1024h-428z" />
    <glyph glyph-name="eight.lf" 
d="M1235 0h-1030v1516h1030v-1516zM506 1270v-1024h428v1024h-428z" />
    <glyph glyph-name="nine.lf" 
d="M1235 0h-1030v1516h1030v-1516zM506 1270v-1024h428v1024h-428z" />
    <glyph glyph-name="zero.lf.zero" 
d="M1235 0h-1030v1516h1030v-1516zM506 1270v-1024h428v1024h-428z" />
    <glyph glyph-name="zero.osf" 
d="M1235 0h-1030v1516h1030v-1516zM506 1270v-1024h428v1024h-428z" />
    <glyph glyph-name="one.osf" 
d="M1235 0h-1030v1516h1030v-1516zM506 1270v-1024h428v1024h-428z" />
    <glyph glyph-name="two.osf" 
d="M1235 0h-1030v1516h1030v-1516zM506 1270v-1024h428v1024h-428z" />
    <glyph glyph-name="three.osf" 
d="M1235 0h-1030v1516h1030v-1516zM506 1270v-1024h428v1024h-428z" />
    <glyph glyph-name="four.osf" 
d="M1235 0h-1030v1516h1030v-1516zM506 1270v-1024h428v1024h-428z" />
    <glyph glyph-name="five.osf" 
d="M1235 0h-1030v1516h1030v-1516zM506 1270v-1024h428v1024h-428z" />
    <glyph glyph-name="six.osf" 
d="M1235 0h-1030v1516h1030v-1516zM506 1270v-1024h428v1024h-428z" />
    <glyph glyph-name="seven.osf" 
d="M1235 0h-1030v1516h1030v-1516zM506 1270v-1024h428v1024h-428z" />
    <glyph glyph-name="eight.osf" 
d="M1235 0h-1030v1516h1030v-1516zM506 1270v-1024h428v1024h-428z" />
    <glyph glyph-name="nine.osf" 
d="M1235 0h-1030v1516h1030v-1516zM506 1270v-1024h428v1024h-428z" />
    <glyph glyph-name="zero.osf.zero" 
d="M1235 0h-1030v1516h1030v-1516zM506 1270v-1024h428v1024h-428z" />
    <glyph glyph-name="zero.tf" 
d="M1235 0h-1030v1516h1030v-1516zM506 1270v-1024h428v1024h-428z" />
    <glyph glyph-name="one.tf" 
d="M1235 0h-1030v1516h1030v-1516zM506 1270v-1024h428v1024h-428z" />
    <glyph glyph-name="two.tf" 
d="M1235 0h-1030v1516h1030v-1516zM506 1270v-1024h428v1024h-428z" />
    <glyph glyph-name="three.tf" 
d="M1235 0h-1030v1516h1030v-1516zM506 1270v-1024h428v1024h-428z" />
    <glyph glyph-name="four.tf" 
d="M1235 0h-1030v1516h1030v-1516zM506 1270v-1024h428v1024h-428z" />
    <glyph glyph-name="five.tf" 
d="M1235 0h-1030v1516h1030v-1516zM506 1270v-1024h428v1024h-428z" />
    <glyph glyph-name="six.tf" 
d="M1235 0h-1030v1516h1030v-1516zM506 1270v-1024h428v1024h-428z" />
    <glyph glyph-name="seven.tf" 
d="M1235 0h-1030v1516h1030v-1516zM506 1270v-1024h428v1024h-428z" />
    <glyph glyph-name="eight.tf" 
d="M1235 0h-1030v1516h1030v-1516zM506 1270v-1024h428v1024h-428z" />
    <glyph glyph-name="nine.tf" 
d="M1235 0h-1030v1516h1030v-1516zM506 1270v-1024h428v1024h-428z" />
    <glyph glyph-name="zero.tf.zero" 
d="M1235 0h-1030v1516h1030v-1516zM506 1270v-1024h428v1024h-428z" />
    <glyph glyph-name="uni24FF.zero" 
d="M1235 0h-1030v1516h1030v-1516zM506 1270v-1024h428v1024h-428z" />
    <glyph glyph-name="uni24EA.zero" 
d="M1235 0h-1030v1516h1030v-1516zM506 1270v-1024h428v1024h-428z" />
    <glyph glyph-name="zero.dnom" 
d="M1235 0h-1030v1516h1030v-1516zM506 1270v-1024h428v1024h-428z" />
    <glyph glyph-name="one.dnom" 
d="M1235 0h-1030v1516h1030v-1516zM506 1270v-1024h428v1024h-428z" />
    <glyph glyph-name="two.dnom" 
d="M1235 0h-1030v1516h1030v-1516zM506 1270v-1024h428v1024h-428z" />
    <glyph glyph-name="three.dnom" 
d="M1235 0h-1030v1516h1030v-1516zM506 1270v-1024h428v1024h-428z" />
    <glyph glyph-name="four.dnom" 
d="M1235 0h-1030v1516h1030v-1516zM506 1270v-1024h428v1024h-428z" />
    <glyph glyph-name="five.dnom" 
d="M1235 0h-1030v1516h1030v-1516zM506 1270v-1024h428v1024h-428z" />
    <glyph glyph-name="six.dnom" 
d="M1235 0h-1030v1516h1030v-1516zM506 1270v-1024h428v1024h-428z" />
    <glyph glyph-name="seven.dnom" 
d="M1235 0h-1030v1516h1030v-1516zM506 1270v-1024h428v1024h-428z" />
    <glyph glyph-name="eight.dnom" 
d="M1235 0h-1030v1516h1030v-1516zM506 1270v-1024h428v1024h-428z" />
    <glyph glyph-name="nine.dnom" 
d="M1235 0h-1030v1516h1030v-1516zM506 1270v-1024h428v1024h-428z" />
    <glyph glyph-name="zero.numr" 
d="M1235 0h-1030v1516h1030v-1516zM506 1270v-1024h428v1024h-428z" />
    <glyph glyph-name="one.numr" 
d="M1235 0h-1030v1516h1030v-1516zM506 1270v-1024h428v1024h-428z" />
    <glyph glyph-name="two.numr" 
d="M1235 0h-1030v1516h1030v-1516zM506 1270v-1024h428v1024h-428z" />
    <glyph glyph-name="three.numr" 
d="M1235 0h-1030v1516h1030v-1516zM506 1270v-1024h428v1024h-428z" />
    <glyph glyph-name="four.numr" 
d="M1235 0h-1030v1516h1030v-1516zM506 1270v-1024h428v1024h-428z" />
    <glyph glyph-name="five.numr" 
d="M1235 0h-1030v1516h1030v-1516zM506 1270v-1024h428v1024h-428z" />
    <glyph glyph-name="six.numr" 
d="M1235 0h-1030v1516h1030v-1516zM506 1270v-1024h428v1024h-428z" />
    <glyph glyph-name="seven.numr" 
d="M1235 0h-1030v1516h1030v-1516zM506 1270v-1024h428v1024h-428z" />
    <glyph glyph-name="eight.numr" 
d="M1235 0h-1030v1516h1030v-1516zM506 1270v-1024h428v1024h-428z" />
    <glyph glyph-name="nine.numr" 
d="M1235 0h-1030v1516h1030v-1516zM506 1270v-1024h428v1024h-428z" />
    <glyph glyph-name="uni2080.zero" 
d="M1235 0h-1030v1516h1030v-1516zM506 1270v-1024h428v1024h-428z" />
    <glyph glyph-name="zero.dnom.zero" 
d="M1235 0h-1030v1516h1030v-1516zM506 1270v-1024h428v1024h-428z" />
    <glyph glyph-name="zero.numr.zero" 
d="M1235 0h-1030v1516h1030v-1516zM506 1270v-1024h428v1024h-428z" />
    <glyph glyph-name="uni2070.zero" 
d="M1235 0h-1030v1516h1030v-1516zM506 1270v-1024h428v1024h-428z" />
    <glyph glyph-name="zero.c2sc" 
d="M1235 0h-1030v1516h1030v-1516zM506 1270v-1024h428v1024h-428z" />
    <glyph glyph-name="one.c2sc" 
d="M1235 0h-1030v1516h1030v-1516zM506 1270v-1024h428v1024h-428z" />
    <glyph glyph-name="two.c2sc" 
d="M1235 0h-1030v1516h1030v-1516zM506 1270v-1024h428v1024h-428z" />
    <glyph glyph-name="three.c2sc" 
d="M1235 0h-1030v1516h1030v-1516zM506 1270v-1024h428v1024h-428z" />
    <glyph glyph-name="four.c2sc" 
d="M1235 0h-1030v1516h1030v-1516zM506 1270v-1024h428v1024h-428z" />
    <glyph glyph-name="five.c2sc" 
d="M1235 0h-1030v1516h1030v-1516zM506 1270v-1024h428v1024h-428z" />
    <glyph glyph-name="six.c2sc" 
d="M1235 0h-1030v1516h1030v-1516zM506 1270v-1024h428v1024h-428z" />
    <glyph glyph-name="seven.c2sc" 
d="M1235 0h-1030v1516h1030v-1516zM506 1270v-1024h428v1024h-428z" />
    <glyph glyph-name="eight.c2sc" 
d="M1235 0h-1030v1516h1030v-1516zM506 1270v-1024h428v1024h-428z" />
    <glyph glyph-name="nine.c2sc" 
d="M1235 0h-1030v1516h1030v-1516zM506 1270v-1024h428v1024h-428z" />
    <glyph glyph-name="zero.c2sc.zero" 
d="M1235 0h-1030v1516h1030v-1516zM506 1270v-1024h428v1024h-428z" />
    <glyph glyph-name="colon.case" 
d="M1235 0h-1030v1516h1030v-1516zM506 1270v-1024h428v1024h-428z" />
    <glyph glyph-name="exclamdown.case" 
d="M1235 0h-1030v1516h1030v-1516zM506 1270v-1024h428v1024h-428z" />
    <glyph glyph-name="questiondown.case" 
d="M1235 0h-1030v1516h1030v-1516zM506 1270v-1024h428v1024h-428z" />
    <glyph glyph-name="periodcentered.case" 
d="M1235 0h-1030v1516h1030v-1516zM506 1270v-1024h428v1024h-428z" />
    <glyph glyph-name="parenleft.case" 
d="M1235 0h-1030v1516h1030v-1516zM506 1270v-1024h428v1024h-428z" />
    <glyph glyph-name="parenright.case" 
d="M1235 0h-1030v1516h1030v-1516zM506 1270v-1024h428v1024h-428z" />
    <glyph glyph-name="braceleft.case" 
d="M1235 0h-1030v1516h1030v-1516zM506 1270v-1024h428v1024h-428z" />
    <glyph glyph-name="braceright.case" 
d="M1235 0h-1030v1516h1030v-1516zM506 1270v-1024h428v1024h-428z" />
    <glyph glyph-name="bracketleft.case" 
d="M1235 0h-1030v1516h1030v-1516zM506 1270v-1024h428v1024h-428z" />
    <glyph glyph-name="bracketright.case" 
d="M1235 0h-1030v1516h1030v-1516zM506 1270v-1024h428v1024h-428z" />
    <glyph glyph-name="hyphen.case" 
d="M1235 0h-1030v1516h1030v-1516zM506 1270v-1024h428v1024h-428z" />
    <glyph glyph-name="uni00AD.case" 
d="M1235 0h-1030v1516h1030v-1516zM506 1270v-1024h428v1024h-428z" />
    <glyph glyph-name="endash.case" 
d="M1235 0h-1030v1516h1030v-1516zM506 1270v-1024h428v1024h-428z" />
    <glyph glyph-name="emdash.case" 
d="M1235 0h-1030v1516h1030v-1516zM506 1270v-1024h428v1024h-428z" />
    <glyph glyph-name="guillemotleft.case" 
d="M1235 0h-1030v1516h1030v-1516zM506 1270v-1024h428v1024h-428z" />
    <glyph glyph-name="guillemotright.case" 
d="M1235 0h-1030v1516h1030v-1516zM506 1270v-1024h428v1024h-428z" />
    <glyph glyph-name="guilsinglleft.case" 
d="M1235 0h-1030v1516h1030v-1516zM506 1270v-1024h428v1024h-428z" />
    <glyph glyph-name="guilsinglright.case" 
d="M1235 0h-1030v1516h1030v-1516zM506 1270v-1024h428v1024h-428z" />
    <glyph glyph-name="parenleft.c2sc" 
d="M1235 0h-1030v1516h1030v-1516zM506 1270v-1024h428v1024h-428z" />
    <glyph glyph-name="parenright.c2sc" 
d="M1235 0h-1030v1516h1030v-1516zM506 1270v-1024h428v1024h-428z" />
    <glyph glyph-name="braceleft.c2sc" 
d="M1235 0h-1030v1516h1030v-1516zM506 1270v-1024h428v1024h-428z" />
    <glyph glyph-name="braceright.c2sc" 
d="M1235 0h-1030v1516h1030v-1516zM506 1270v-1024h428v1024h-428z" />
    <glyph glyph-name="bracketleft.c2sc" 
d="M1235 0h-1030v1516h1030v-1516zM506 1270v-1024h428v1024h-428z" />
    <glyph glyph-name="bracketright.c2sc" 
d="M1235 0h-1030v1516h1030v-1516zM506 1270v-1024h428v1024h-428z" />
    <glyph glyph-name="exclam.c2sc" 
d="M1235 0h-1030v1516h1030v-1516zM506 1270v-1024h428v1024h-428z" />
    <glyph glyph-name="exclamdown.c2sc" 
d="M1235 0h-1030v1516h1030v-1516zM506 1270v-1024h428v1024h-428z" />
    <glyph glyph-name="question.c2sc" 
d="M1235 0h-1030v1516h1030v-1516zM506 1270v-1024h428v1024h-428z" />
    <glyph glyph-name="questiondown.c2sc" 
d="M1235 0h-1030v1516h1030v-1516zM506 1270v-1024h428v1024h-428z" />
    <glyph glyph-name="quotedblleft.c2sc" 
d="M1235 0h-1030v1516h1030v-1516zM506 1270v-1024h428v1024h-428z" />
    <glyph glyph-name="quotedblright.c2sc" 
d="M1235 0h-1030v1516h1030v-1516zM506 1270v-1024h428v1024h-428z" />
    <glyph glyph-name="quoteleft.c2sc" 
d="M1235 0h-1030v1516h1030v-1516zM506 1270v-1024h428v1024h-428z" />
    <glyph glyph-name="quoteright.c2sc" 
d="M1235 0h-1030v1516h1030v-1516zM506 1270v-1024h428v1024h-428z" />
    <glyph glyph-name="slash.c2sc" 
d="M1235 0h-1030v1516h1030v-1516zM506 1270v-1024h428v1024h-428z" />
    <glyph glyph-name="backslash.c2sc" 
d="M1235 0h-1030v1516h1030v-1516zM506 1270v-1024h428v1024h-428z" />
    <glyph glyph-name="quotedbl.c2sc" 
d="M1235 0h-1030v1516h1030v-1516zM506 1270v-1024h428v1024h-428z" />
    <glyph glyph-name="quotesingle.c2sc" 
d="M1235 0h-1030v1516h1030v-1516zM506 1270v-1024h428v1024h-428z" />
    <glyph glyph-name="hyphen.subs" 
d="M1235 0h-1030v1516h1030v-1516zM506 1270v-1024h428v1024h-428z" />
    <glyph glyph-name="parenleft.subs" 
d="M1235 0h-1030v1516h1030v-1516zM506 1270v-1024h428v1024h-428z" />
    <glyph glyph-name="parenright.subs" 
d="M1235 0h-1030v1516h1030v-1516zM506 1270v-1024h428v1024h-428z" />
    <glyph glyph-name="period.subs" 
d="M1235 0h-1030v1516h1030v-1516zM506 1270v-1024h428v1024h-428z" />
    <glyph glyph-name="comma.subs" 
d="M1235 0h-1030v1516h1030v-1516zM506 1270v-1024h428v1024h-428z" />
    <glyph glyph-name="hyphen.sups" 
d="M1235 0h-1030v1516h1030v-1516zM506 1270v-1024h428v1024h-428z" />
    <glyph glyph-name="parenleft.sups" 
d="M1235 0h-1030v1516h1030v-1516zM506 1270v-1024h428v1024h-428z" />
    <glyph glyph-name="parenright.sups" 
d="M1235 0h-1030v1516h1030v-1516zM506 1270v-1024h428v1024h-428z" />
    <glyph glyph-name="period.sups" 
d="M1235 0h-1030v1516h1030v-1516zM506 1270v-1024h428v1024h-428z" />
    <glyph glyph-name="comma.sups" 
d="M1235 0h-1030v1516h1030v-1516zM506 1270v-1024h428v1024h-428z" />
    <glyph glyph-name="uni20BF.lf" 
d="M1235 0h-1030v1516h1030v-1516zM506 1270v-1024h428v1024h-428z" />
    <glyph glyph-name="cent.lf" 
d="M1235 0h-1030v1516h1030v-1516zM506 1270v-1024h428v1024h-428z" />
    <glyph glyph-name="dollar.lf" 
d="M1235 0h-1030v1516h1030v-1516zM506 1270v-1024h428v1024h-428z" />
    <glyph glyph-name="Euro.lf" 
d="M1235 0h-1030v1516h1030v-1516zM506 1270v-1024h428v1024h-428z" />
    <glyph glyph-name="florin.lf" 
d="M1235 0h-1030v1516h1030v-1516zM506 1270v-1024h428v1024h-428z" />
    <glyph glyph-name="uni20BA.lf" 
d="M1235 0h-1030v1516h1030v-1516zM506 1270v-1024h428v1024h-428z" />
    <glyph glyph-name="uni20B9.lf" 
d="M1235 0h-1030v1516h1030v-1516zM506 1270v-1024h428v1024h-428z" />
    <glyph glyph-name="sterling.lf" 
d="M1235 0h-1030v1516h1030v-1516zM506 1270v-1024h428v1024h-428z" />
    <glyph glyph-name="yen.lf" 
d="M1235 0h-1030v1516h1030v-1516zM506 1270v-1024h428v1024h-428z" />
    <glyph glyph-name="arrowup.case" 
d="M1235 0h-1030v1516h1030v-1516zM506 1270v-1024h428v1024h-428z" />
    <glyph glyph-name="uni2197.case" 
d="M1235 0h-1030v1516h1030v-1516zM506 1270v-1024h428v1024h-428z" />
    <glyph glyph-name="arrowright.case" 
d="M1235 0h-1030v1516h1030v-1516zM506 1270v-1024h428v1024h-428z" />
    <glyph glyph-name="uni2198.case" 
d="M1235 0h-1030v1516h1030v-1516zM506 1270v-1024h428v1024h-428z" />
    <glyph glyph-name="arrowdown.case" 
d="M1235 0h-1030v1516h1030v-1516zM506 1270v-1024h428v1024h-428z" />
    <glyph glyph-name="uni2199.case" 
d="M1235 0h-1030v1516h1030v-1516zM506 1270v-1024h428v1024h-428z" />
    <glyph glyph-name="arrowleft.case" 
d="M1235 0h-1030v1516h1030v-1516zM506 1270v-1024h428v1024h-428z" />
    <glyph glyph-name="uni2196.case" 
d="M1235 0h-1030v1516h1030v-1516zM506 1270v-1024h428v1024h-428z" />
    <glyph glyph-name="arrowboth.case" 
d="M1235 0h-1030v1516h1030v-1516zM506 1270v-1024h428v1024h-428z" />
    <glyph glyph-name="arrowupdn.case" 
d="M1235 0h-1030v1516h1030v-1516zM506 1270v-1024h428v1024h-428z" />
    <glyph glyph-name="at.case" 
d="M1235 0h-1030v1516h1030v-1516zM506 1270v-1024h428v1024h-428z" />
    <glyph glyph-name="ampersand.c2sc" 
d="M1235 0h-1030v1516h1030v-1516zM506 1270v-1024h428v1024h-428z" />
    <glyph glyph-name="uni2116.c2sc" 
d="M1235 0h-1030v1516h1030v-1516zM506 1270v-1024h428v1024h-428z" />
    <glyph glyph-name="uni20BF.c2sc" 
d="M1235 0h-1030v1516h1030v-1516zM506 1270v-1024h428v1024h-428z" />
    <glyph glyph-name="cent.c2sc" 
d="M1235 0h-1030v1516h1030v-1516zM506 1270v-1024h428v1024h-428z" />
    <glyph glyph-name="dollar.c2sc" 
d="M1235 0h-1030v1516h1030v-1516zM506 1270v-1024h428v1024h-428z" />
    <glyph glyph-name="Euro.c2sc" 
d="M1235 0h-1030v1516h1030v-1516zM506 1270v-1024h428v1024h-428z" />
    <glyph glyph-name="uni20BA.c2sc" 
d="M1235 0h-1030v1516h1030v-1516zM506 1270v-1024h428v1024h-428z" />
    <glyph glyph-name="percent.c2sc" 
d="M1235 0h-1030v1516h1030v-1516zM506 1270v-1024h428v1024h-428z" />
    <glyph glyph-name="perthousand.c2sc" 
d="M1235 0h-1030v1516h1030v-1516zM506 1270v-1024h428v1024h-428z" />
    <glyph glyph-name="uni20B9.c2sc" 
d="M1235 0h-1030v1516h1030v-1516zM506 1270v-1024h428v1024h-428z" />
    <glyph glyph-name="sterling.c2sc" 
d="M1235 0h-1030v1516h1030v-1516zM506 1270v-1024h428v1024h-428z" />
    <glyph glyph-name="yen.c2sc" 
d="M1235 0h-1030v1516h1030v-1516zM506 1270v-1024h428v1024h-428z" />
    <glyph glyph-name="multiply.subs" 
d="M1235 0h-1030v1516h1030v-1516zM506 1270v-1024h428v1024h-428z" />
    <glyph glyph-name="divide.subs" 
d="M1235 0h-1030v1516h1030v-1516zM506 1270v-1024h428v1024h-428z" />
    <glyph glyph-name="multiply.sups" 
d="M1235 0h-1030v1516h1030v-1516zM506 1270v-1024h428v1024h-428z" />
    <glyph glyph-name="divide.sups" 
d="M1235 0h-1030v1516h1030v-1516zM506 1270v-1024h428v1024h-428z" />
    <glyph glyph-name="florin.c2sc" 
d="M1235 0h-1030v1516h1030v-1516zM506 1270v-1024h428v1024h-428z" />
    <glyph glyph-name="uni030C.alt" 
d="M1235 0h-1030v1516h1030v-1516zM506 1270v-1024h428v1024h-428z" />
    <glyph glyph-name="uni0308.case" 
d="M1235 0h-1030v1516h1030v-1516zM506 1270v-1024h428v1024h-428z" />
    <glyph glyph-name="uni0307.case" 
d="M1235 0h-1030v1516h1030v-1516zM506 1270v-1024h428v1024h-428z" />
    <glyph glyph-name="gravecomb.case" 
d="M1235 0h-1030v1516h1030v-1516zM506 1270v-1024h428v1024h-428z" />
    <glyph glyph-name="acutecomb.case" 
d="M1235 0h-1030v1516h1030v-1516zM506 1270v-1024h428v1024h-428z" />
    <glyph glyph-name="uni030B.case" 
d="M1235 0h-1030v1516h1030v-1516zM506 1270v-1024h428v1024h-428z" />
    <glyph glyph-name="uni030C.alt.case" 
d="M1235 0h-1030v1516h1030v-1516zM506 1270v-1024h428v1024h-428z" />
    <glyph glyph-name="uni0302.case" 
d="M1235 0h-1030v1516h1030v-1516zM506 1270v-1024h428v1024h-428z" />
    <glyph glyph-name="uni030C.case" 
d="M1235 0h-1030v1516h1030v-1516zM506 1270v-1024h428v1024h-428z" />
    <glyph glyph-name="uni0306.case" 
d="M1235 0h-1030v1516h1030v-1516zM506 1270v-1024h428v1024h-428z" />
    <glyph glyph-name="uni030A.case" 
d="M1235 0h-1030v1516h1030v-1516zM506 1270v-1024h428v1024h-428z" />
    <glyph glyph-name="tildecomb.case" 
d="M1235 0h-1030v1516h1030v-1516zM506 1270v-1024h428v1024h-428z" />
    <glyph glyph-name="uni0304.case" 
d="M1235 0h-1030v1516h1030v-1516zM506 1270v-1024h428v1024h-428z" />
    <glyph glyph-name="uni0308.narrow" 
d="M1235 0h-1030v1516h1030v-1516zM506 1270v-1024h428v1024h-428z" />
    <glyph glyph-name="gravecomb.narrow" 
d="M1235 0h-1030v1516h1030v-1516zM506 1270v-1024h428v1024h-428z" />
    <glyph glyph-name="acutecomb.narrow" 
d="M1235 0h-1030v1516h1030v-1516zM506 1270v-1024h428v1024h-428z" />
    <glyph glyph-name="uni0302.narrow" 
d="M1235 0h-1030v1516h1030v-1516zM506 1270v-1024h428v1024h-428z" />
    <glyph glyph-name="uni0306.narrow" 
d="M1235 0h-1030v1516h1030v-1516zM506 1270v-1024h428v1024h-428z" />
    <glyph glyph-name="tildecomb.narrow" 
d="M1235 0h-1030v1516h1030v-1516zM506 1270v-1024h428v1024h-428z" />
    <glyph glyph-name="uni0304.narrow" 
d="M1235 0h-1030v1516h1030v-1516zM506 1270v-1024h428v1024h-428z" />
    <glyph glyph-name="uni0328.narrow" 
d="M1235 0h-1030v1516h1030v-1516zM506 1270v-1024h428v1024h-428z" />
    <glyph glyph-name="uni0308.case.narrow" 
d="M1235 0h-1030v1516h1030v-1516zM506 1270v-1024h428v1024h-428z" />
    <glyph glyph-name="gravecomb.case.narrow" 
d="M1235 0h-1030v1516h1030v-1516zM506 1270v-1024h428v1024h-428z" />
    <glyph glyph-name="acutecomb.case.narrow" 
d="M1235 0h-1030v1516h1030v-1516zM506 1270v-1024h428v1024h-428z" />
    <glyph glyph-name="uni0302.case.narrow" 
d="M1235 0h-1030v1516h1030v-1516zM506 1270v-1024h428v1024h-428z" />
    <glyph glyph-name="uni0306.case.narrow" 
d="M1235 0h-1030v1516h1030v-1516zM506 1270v-1024h428v1024h-428z" />
    <glyph glyph-name="tildecomb.case.narrow" 
d="M1235 0h-1030v1516h1030v-1516zM506 1270v-1024h428v1024h-428z" />
    <glyph glyph-name="uni0304.case.narrow" 
d="M1235 0h-1030v1516h1030v-1516zM506 1270v-1024h428v1024h-428z" />
    <glyph glyph-name="ringacutecomb" 
d="M1235 0h-1030v1516h1030v-1516zM506 1270v-1024h428v1024h-428z" />
    <glyph glyph-name="ringacutecomb.case" 
d="M1235 0h-1030v1516h1030v-1516zM506 1270v-1024h428v1024h-428z" />
    </font>
</defs>
</svg>
