<?xml version="1.0" standalone="no"?>
<!DOCTYPE svg PUBLIC "-//W3C//DTD SVG 1.1//EN" "http://www.w3.org/Graphics/SVG/1.1/DTD/svg11.dtd" >
<svg xmlns="http://www.w3.org/2000/svg" xmlns:xlink="http://www.w3.org/1999/xlink" version="1.1">
<metadata>
Created by FontForge 20170731 at Fri Nov 10 10:03:50 2023
 By Aleksey,,,
Copyright (c) 2021 by Daniel Sabino. All rights reserved.
</metadata>
<defs>
<font id="ElzaTextTrial-LightOblique" horiz-adv-x="1353" >
  <font-face 
    font-family="Elza Text Trial Light Oblique"
    font-weight="300"
    font-style="oblique"
    font-stretch="normal"
    units-per-em="2048"
    panose-1="0 0 4 0 0 0 0 0 0 0"
    ascent="1638"
    descent="-410"
    x-height="1049"
    cap-height="1454"
    bbox="-242 -373 1862 1565"
    underline-thickness="102"
    underline-position="-307"
    slope="-9"
    unicode-range="U+0020-FB02"
  />
<missing-glyph 
d="M1065 0h-944l241 1516h945zM485 1391l-202 -1266h661l201 1266h-660z" />
    <glyph glyph-name=".notdef" 
d="M1065 0h-944l241 1516h945zM485 1391l-202 -1266h661l201 1266h-660z" />
    <glyph glyph-name=".null" horiz-adv-x="0" 
 />
    <glyph glyph-name="nonmarkingreturn" horiz-adv-x="682" 
 />
    <glyph glyph-name="space" unicode=" " horiz-adv-x="432" 
 />
    <glyph glyph-name="exclam" unicode="!" 
d="M1065 0h-944l241 1516h945zM485 1391l-202 -1266h661l201 1266h-660z" />
    <glyph glyph-name="quotedbl" unicode="&#x22;" 
d="M1065 0h-944l241 1516h945zM485 1391l-202 -1266h661l201 1266h-660z" />
    <glyph glyph-name="numbersign" unicode="#" 
d="M1065 0h-944l241 1516h945zM485 1391l-202 -1266h661l201 1266h-660z" />
    <glyph glyph-name="dollar" unicode="$" 
d="M1065 0h-944l241 1516h945zM485 1391l-202 -1266h661l201 1266h-660z" />
    <glyph glyph-name="percent" unicode="%" 
d="M1065 0h-944l241 1516h945zM485 1391l-202 -1266h661l201 1266h-660z" />
    <glyph glyph-name="ampersand" unicode="&#x26;" 
d="M1065 0h-944l241 1516h945zM485 1391l-202 -1266h661l201 1266h-660z" />
    <glyph glyph-name="quotesingle" unicode="'" 
d="M1065 0h-944l241 1516h945zM485 1391l-202 -1266h661l201 1266h-660z" />
    <glyph glyph-name="parenleft" unicode="(" 
d="M1065 0h-944l241 1516h945zM485 1391l-202 -1266h661l201 1266h-660z" />
    <glyph glyph-name="parenright" unicode=")" 
d="M1065 0h-944l241 1516h945zM485 1391l-202 -1266h661l201 1266h-660z" />
    <glyph glyph-name="asterisk" unicode="*" 
d="M1065 0h-944l241 1516h945zM485 1391l-202 -1266h661l201 1266h-660z" />
    <glyph glyph-name="plus" unicode="+" 
d="M1065 0h-944l241 1516h945zM485 1391l-202 -1266h661l201 1266h-660z" />
    <glyph glyph-name="comma" unicode="," horiz-adv-x="591" 
d="M-2 -332l14 99q82 0 125.5 32.5t52.5 102.5l15 98h-82l31 203h182l-47 -301q-18 -117 -93.5 -175.5t-197.5 -58.5z" />
    <glyph glyph-name="hyphen" unicode="-" horiz-adv-x="897" 
d="M731 518h-567l20 131h570z" />
    <glyph glyph-name="period" unicode="." horiz-adv-x="593" 
d="M305 0h-182l31 203h182z" />
    <glyph glyph-name="slash" unicode="/" 
d="M1065 0h-944l241 1516h945zM485 1391l-202 -1266h661l201 1266h-660z" />
    <glyph glyph-name="zero" unicode="0" horiz-adv-x="1167" 
d="M545 -25q-234 0 -346.5 192.5t-57.5 557.5l17 113q47 310 173 475.5t353 165.5q233 0 345.5 -194t57.5 -556l-16 -115q-48 -313 -173 -476t-353 -163zM553 96q156 0 244.5 123.5t126.5 372.5l26 158q44 307 -31 457.5t-241 150.5q-158 0 -246.5 -124t-126.5 -374
l-24 -155q-35 -213 -6.5 -348t99 -198t179.5 -63z" />
    <glyph glyph-name="one" unicode="1" horiz-adv-x="675" 
d="M401 0h-141l193 1212q-112 -112 -287 -170l22 152q191 67 334 260h109z" />
    <glyph glyph-name="two" unicode="2" horiz-adv-x="1056" 
d="M887 0h-869l15 100q12 74 28 131t51.5 124t87 122.5t135.5 115t197 112.5q102 49 172.5 95t109 88t56.5 78t25 76l2 17q23 133 -43.5 213t-196.5 80q-266 0 -321 -316h-146q37 211 157 327t315 116q88 0 163.5 -31t128 -85t77 -133.5t11.5 -170.5l-2 -15
q-8 -61 -31 -111.5t-71.5 -107t-135.5 -114.5t-214 -119q-113 -53 -189.5 -107t-120 -113t-64 -113.5t-32.5 -127.5v-6h725z" />
    <glyph glyph-name="three" unicode="3" horiz-adv-x="1167" 
d="M545 -25q-203 0 -326.5 116.5t-116.5 324.5h138q-4 -157 80 -238.5t231 -81.5q133 0 219 68t107 182l6 31q24 139 -50.5 226t-207.5 87h-131l18 119h143q110 0 194 60t101 161l4 25q23 139 -48 222t-204 83q-274 0 -335 -324h-136q39 214 158.5 328.5t321.5 114.5
q85 0 161 -30.5t130 -84.5t79 -136t9 -177l-5 -25q-17 -97 -90 -175t-170 -108q101 -39 157 -142t38 -232l-4 -31q-22 -163 -147.5 -263t-323.5 -100z" />
    <glyph glyph-name="four" unicode="4" horiz-adv-x="1167" 
d="M799 0h-131l61 385h-680l21 121l823 948h135l-149 -950h190l-20 -119h-189zM864 1251l-653 -747h534z" />
    <glyph glyph-name="five" unicode="5" horiz-adv-x="1167" 
d="M541 -25q-189 0 -310.5 116t-117.5 315h141q0 -151 80.5 -229.5t210.5 -78.5q143 0 231 82.5t111 218.5l6 35q29 184 -50.5 288.5t-217.5 104.5q-192 0 -306 -178l-116 8l237 797h697l-19 -125h-592l-147 -500q95 117 272 117q88 0 165.5 -36t132.5 -100.5t79 -164.5
t6 -219l-4 -29q-30 -189 -159 -305.5t-330 -116.5z" />
    <glyph glyph-name="six" unicode="6" horiz-adv-x="1167" 
d="M567 -25q-114 0 -202.5 45.5t-147 137t-75 230t11.5 325.5l16 110q52 322 175.5 489t346.5 167q170 0 284.5 -104t127.5 -285h-137q-12 133 -86 202.5t-193 69.5q-164 0 -252.5 -134t-140.5 -446l-4 -30q42 84 133 136t205 52q91 0 171.5 -39t137 -107t81.5 -169t7 -217
l-6 -31q-13 -82 -49 -154t-92.5 -127.5t-137 -88t-174.5 -32.5zM567 96q128 0 209.5 79t102.5 206l6 33q30 181 -51 294t-234 113q-129 0 -212 -86t-103 -209l-4 -24q-29 -181 52 -293.5t234 -112.5z" />
    <glyph glyph-name="seven" unicode="7" horiz-adv-x="1028" 
d="M334 0h-146q227 715 744 1329h-721l18 125h891l-16 -108q-547 -619 -770 -1346z" />
    <glyph glyph-name="eight" unicode="8" horiz-adv-x="1167" 
d="M543 -25q-101 0 -188.5 32.5t-148.5 89.5t-89.5 142.5t-12.5 184.5l5 27q19 125 115.5 212t213.5 109q-93 40 -148.5 138.5t-33.5 224.5l4 24q24 142 138.5 231t285.5 89q86 0 163.5 -30.5t134 -83.5t83.5 -132t12 -170l-4 -25q-18 -105 -95 -181.5t-175 -104.5
q108 -45 173 -148.5t44 -241.5l-4 -26q-24 -163 -147.5 -262t-325.5 -99zM645 821q115 0 195.5 60t99.5 161l4 23q24 132 -54.5 216.5t-209.5 84.5q-115 0 -192 -60t-99 -159l-4 -19q-29 -139 52 -223t208 -84zM551 94q133 0 224 70t106 178l4 27q22 144 -68 234.5
t-231 90.5q-131 0 -227 -70t-115 -178l-4 -24q-24 -146 68 -237t243 -91z" />
    <glyph glyph-name="nine" unicode="9" horiz-adv-x="1167" 
d="M541 -25q-171 0 -286 104.5t-128 285.5h137q13 -132 87 -202.5t194 -70.5q162 0 248 133t143 447l6 30q-47 -85 -136.5 -136.5t-203.5 -51.5q-91 0 -170.5 39t-135 107.5t-80.5 169.5t-9 217l6 30q24 171 144.5 286.5t306.5 115.5q115 0 203.5 -45t147.5 -136.5
t75.5 -230.5t-13.5 -326l-16 -110q-27 -159 -67.5 -275.5t-101.5 -204.5t-149 -132t-202 -44zM631 633q129 0 212 86t103 209l4 24q29 181 -52.5 293.5t-235.5 112.5q-127 0 -208.5 -79.5t-99.5 -205.5l-4 -33q-26 -183 52.5 -295t228.5 -112z" />
    <glyph glyph-name="colon" unicode=":" 
d="M1065 0h-944l241 1516h945zM485 1391l-202 -1266h661l201 1266h-660z" />
    <glyph glyph-name="semicolon" unicode=";" 
d="M1065 0h-944l241 1516h945zM485 1391l-202 -1266h661l201 1266h-660z" />
    <glyph glyph-name="less" unicode="&#x3c;" 
d="M1065 0h-944l241 1516h945zM485 1391l-202 -1266h661l201 1266h-660z" />
    <glyph glyph-name="equal" unicode="=" 
d="M1065 0h-944l241 1516h945zM485 1391l-202 -1266h661l201 1266h-660z" />
    <glyph glyph-name="greater" unicode="&#x3e;" 
d="M1065 0h-944l241 1516h945zM485 1391l-202 -1266h661l201 1266h-660z" />
    <glyph glyph-name="question" unicode="?" 
d="M1065 0h-944l241 1516h945zM485 1391l-202 -1266h661l201 1266h-660z" />
    <glyph glyph-name="at" unicode="@" 
d="M1065 0h-944l241 1516h945zM485 1391l-202 -1266h661l201 1266h-660z" />
    <glyph glyph-name="A" unicode="A" horiz-adv-x="1243" 
d="M1126 0h-147l-78 420h-590l-209 -420h-153l743 1454h152zM743 1284l-368 -739h504z" />
    <glyph glyph-name="B" unicode="B" horiz-adv-x="1263" 
d="M682 0h-573l229 1454h485q187 0 288.5 -118.5t72.5 -297.5l-4 -26q-15 -88 -72 -158t-139 -102q93 -47 140 -153.5t28 -227.5l-4 -27q-25 -161 -143 -252.5t-308 -91.5zM459 1329l-80 -514h389q107 0 178.5 59t85.5 150l4 25q21 123 -39.5 201.5t-185.5 78.5h-352z
M358 690l-88 -565h422q122 0 199 61t94 170l4 27q21 131 -45 219t-199 88h-387z" />
    <glyph glyph-name="C" unicode="C" horiz-adv-x="1306" 
d="M674 -25q-181 0 -310.5 90t-187.5 264t-26 406l12 88q43 311 202.5 483.5t419.5 172.5q201 0 338.5 -118t163.5 -329h-143q-25 154 -120 236t-243 82q-193 0 -316 -139t-157 -388l-12 -88q-41 -290 65 -460.5t322 -170.5q323 0 410 342h143q-54 -226 -194.5 -348.5
t-366.5 -122.5z" />
    <glyph glyph-name="D" unicode="D" 
d="M571 0h-462l229 1454h418q129 0 234 -49t176.5 -140t99.5 -232.5t2 -315.5l-13 -88q-46 -305 -223.5 -467t-460.5 -162zM461 1329l-191 -1204h308q226 0 360.5 127t171.5 379l12 86q45 303 -64 457.5t-327 154.5h-270z" />
    <glyph glyph-name="E" unicode="E" horiz-adv-x="1183" 
d="M967 0h-858l229 1454h852l-21 -125h-710l-82 -522h653l-20 -125h-652l-88 -557h717z" />
    <glyph glyph-name="F" unicode="F" horiz-adv-x="1089" 
d="M250 0h-141l229 1454h805l-21 -125h-663l-84 -534h602l-19 -125h-602z" />
    <glyph glyph-name="G" unicode="G" horiz-adv-x="1370" 
d="M668 -25q-131 0 -238.5 52.5t-179.5 147.5t-100.5 238.5t-2.5 315.5l13 88q45 314 204.5 488t419.5 174q210 0 348.5 -124t155.5 -345h-143q-12 165 -108 252.5t-257 87.5q-193 0 -315.5 -140.5t-159.5 -392.5l-12 -88q-41 -286 65.5 -455.5t321.5 -169.5q181 0 289 115
t141 324l10 73h-422l21 125h553l-119 -741h-121l17 172q-62 -94 -160 -145.5t-221 -51.5z" />
    <glyph glyph-name="H" unicode="H" horiz-adv-x="1398" 
d="M250 0h-141l229 1454h141l-100 -641h737l98 641h142l-230 -1454h-141l109 688h-736z" />
    <glyph glyph-name="I" unicode="I" horiz-adv-x="524" 
d="M250 0h-141l229 1454h141z" />
    <glyph glyph-name="J" unicode="J" horiz-adv-x="1116" 
d="M459 -25q-194 0 -305.5 123t-77.5 336l10 60h137l-8 -60q-26 -165 44 -247.5t206 -82.5q263 0 313 314l164 1036h141l-163 -1036q-72 -443 -461 -443z" />
    <glyph glyph-name="K" unicode="K" horiz-adv-x="1200" 
d="M250 0h-141l229 1454h141l-123 -770l766 770h174l-620 -627l409 -827h-153l-363 731l-241 -235z" />
    <glyph glyph-name="L" unicode="L" horiz-adv-x="962" 
d="M834 0h-725l229 1454h141l-209 -1329h584z" />
    <glyph glyph-name="M" unicode="M" horiz-adv-x="1665" 
d="M248 0h-139l229 1454h209l235 -1261l621 1261h217l-229 -1454h-140l197 1251l-627 -1251h-133l-239 1260z" />
    <glyph glyph-name="N" unicode="N" horiz-adv-x="1398" 
d="M246 0h-137l229 1454h168l514 -1237l197 1237h137l-230 -1454h-159l-519 1253z" />
    <glyph glyph-name="O" unicode="O" horiz-adv-x="1433" 
d="M694 -25q-297 0 -445 205t-99 553l12 88q44 311 205 484.5t436 173.5q195 0 330 -92t192 -265t23 -405l-13 -86q-44 -310 -205 -483t-436 -173zM700 104q207 0 328.5 137t159.5 388l14 96q42 287 -65 456t-340 169q-207 0 -330.5 -138.5t-159.5 -388.5l-14 -94
q-43 -289 65.5 -457t341.5 -168z" />
    <glyph glyph-name="P" unicode="P" horiz-adv-x="1196" 
d="M250 0h-141l229 1454h469q102 0 182.5 -39.5t126.5 -103.5t64.5 -143.5t5.5 -161.5l-4 -33q-25 -168 -148.5 -266.5t-324.5 -98.5h-363zM459 1329l-94 -596h364q134 0 212.5 66.5t96.5 179.5l4 31q21 138 -47.5 228.5t-214.5 90.5h-321z" />
    <glyph glyph-name="Q" unicode="Q" horiz-adv-x="1433" 
d="M803 1479q195 0 330 -92t192 -265t23 -405l-13 -86q-65 -444 -346 -590l96 -215h-153l-76 168q-78 -19 -162 -19q-297 0 -445 205t-99 553l12 88q44 311 205 484.5t436 173.5zM1188 629l14 96q42 287 -65 456t-340 169q-207 0 -330.5 -138.5t-159.5 -388.5l-14 -94
q-43 -289 65.5 -457t341.5 -168q44 0 101 11l-133 295h155l111 -246q202 121 254 465z" />
    <glyph glyph-name="R" unicode="R" horiz-adv-x="1198" 
d="M250 0h-141l229 1454h485q101 0 181 -39.5t126 -103.5t65 -143.5t7 -161.5l-4 -33q-22 -152 -127.5 -248t-277.5 -113l264 -612h-154l-258 608h-299zM459 1329l-94 -596h380q134 0 213 66.5t97 179.5l4 31q20 138 -48 228.5t-212 90.5h-340z" />
    <glyph glyph-name="S" unicode="S" horiz-adv-x="1187" 
d="M571 -25q-112 0 -207.5 32t-163.5 90.5t-99 148.5t-15 198h143q-25 -165 73 -253.5t280 -88.5q142 0 230 59.5t103 162.5l5 18q20 130 -53 210.5t-261 129.5q-213 58 -306.5 167t-66.5 279l5 23q25 148 145.5 238t308.5 90q221 0 344 -116.5t109 -307.5h-141
q9 141 -73 220t-237 79q-138 0 -219.5 -58.5t-95.5 -160.5l-4 -17q-17 -123 52.5 -195t246.5 -118q445 -121 387 -473l-4 -27q-23 -151 -154.5 -240.5t-331.5 -89.5z" />
    <glyph glyph-name="T" unicode="T" horiz-adv-x="1056" 
d="M516 0h-141l209 1329h-406l21 125h954l-18 -125h-408z" />
    <glyph glyph-name="U" unicode="U" horiz-adv-x="1368" 
d="M637 -25q-118 0 -211 38t-154.5 109t-85 179.5t-2.5 243.5l144 909h141l-143 -911q-34 -217 50.5 -328t276.5 -111q166 0 260.5 94t120.5 259l158 997h143l-157 -1003q-16 -102 -55 -186t-103 -150.5t-161.5 -103t-221.5 -36.5z" />
    <glyph glyph-name="V" unicode="V" horiz-adv-x="1163" 
d="M575 0h-151l-244 1454h142l200 -1274l600 1274h156z" />
    <glyph glyph-name="W" unicode="W" horiz-adv-x="1746" 
d="M479 0h-168l-131 1454h148l102 -1255l514 1255h162l117 -1257l497 1257h142l-588 -1454h-160l-115 1268z" />
    <glyph glyph-name="X" unicode="X" horiz-adv-x="1204" 
d="M115 0h-166l608 762l-342 692h156l278 -586l465 586h164l-561 -696l370 -758h-157l-305 641z" />
    <glyph glyph-name="Y" unicode="Y" horiz-adv-x="1136" 
d="M555 0h-139l73 467l-321 987h145l262 -844l531 844h158l-635 -989z" />
    <glyph glyph-name="Z" unicode="Z" horiz-adv-x="1048" 
d="M883 0h-883l16 113l897 1216h-667l18 125h838l-19 -115l-890 -1214h710z" />
    <glyph glyph-name="bracketleft" unicode="[" 
d="M1065 0h-944l241 1516h945zM485 1391l-202 -1266h661l201 1266h-660z" />
    <glyph glyph-name="backslash" unicode="\" 
d="M1065 0h-944l241 1516h945zM485 1391l-202 -1266h661l201 1266h-660z" />
    <glyph glyph-name="bracketright" unicode="]" 
d="M1065 0h-944l241 1516h945zM485 1391l-202 -1266h661l201 1266h-660z" />
    <glyph glyph-name="asciicircum" unicode="^" 
d="M1065 0h-944l241 1516h945zM485 1391l-202 -1266h661l201 1266h-660z" />
    <glyph glyph-name="underscore" unicode="_" 
d="M1065 0h-944l241 1516h945zM485 1391l-202 -1266h661l201 1266h-660z" />
    <glyph glyph-name="grave" unicode="`" 
d="M1065 0h-944l241 1516h945zM485 1391l-202 -1266h661l201 1266h-660z" />
    <glyph glyph-name="a" unicode="a" horiz-adv-x="1028" 
d="M356 -25q-148 0 -231 92t-64 222q30 223 301 266l388 63l14 89q20 127 -43.5 191.5t-167.5 64.5q-98 0 -161.5 -51.5t-88.5 -153.5h-129q32 154 130.5 234.5t252.5 80.5q81 0 148.5 -25.5t115 -73t67.5 -121.5t5 -165l-109 -688h-127l19 137q-113 -162 -320 -162zM379 88
q124 0 217 79t115 204l20 135l-348 -55q-166 -28 -186 -162q-12 -91 37 -146t145 -55z" />
    <glyph glyph-name="b" unicode="b" horiz-adv-x="1144" 
d="M567 -25q-132 0 -213.5 63t-109.5 155l-33 -193h-123l244 1540h133l-100 -614q107 147 307 147q93 0 168.5 -39t125.5 -109t69.5 -173t2.5 -226l-12 -88q-32 -223 -152.5 -343t-306.5 -120zM569 92q133 0 214 90t106 264l14 103q27 191 -44.5 300t-217.5 109
q-137 0 -221.5 -88.5t-110.5 -261.5l-14 -98q-29 -196 45 -307t229 -111z" />
    <glyph glyph-name="c" unicode="c" horiz-adv-x="1030" 
d="M508 -25q-220 0 -329.5 151t-72.5 402l13 84q32 227 150 344t315 117q164 0 266.5 -95.5t110.5 -254.5h-132q-9 111 -73.5 173t-175.5 62q-272 0 -324 -350l-14 -98q-28 -198 44.5 -308t227.5 -110q221 0 272 236h129q-27 -165 -132.5 -259t-274.5 -94z" />
    <glyph glyph-name="d" unicode="d" horiz-adv-x="1142" 
d="M475 -25q-192 0 -298 152t-71 397l13 88q30 222 150 341.5t306 119.5q127 0 208 -57t110 -142l106 666h134l-244 -1540h-123l18 129q-47 -69 -125 -111.5t-184 -42.5zM504 92q278 0 330 350l14 99q29 196 -44.5 306.5t-228.5 110.5q-268 0 -319 -356l-14 -100
q-28 -191 43.5 -300.5t218.5 -109.5z" />
    <glyph glyph-name="e" unicode="e" horiz-adv-x="1060" 
d="M506 -25q-218 0 -327.5 151t-72.5 402l13 84q32 226 153 343.5t320 117.5q216 0 318 -154.5t55 -416.5h-723v-4q-25 -192 47.5 -299t224.5 -107q223 0 283 221h135q-39 -161 -148 -249.5t-278 -88.5zM258 614h584q12 163 -54.5 253.5t-199.5 90.5q-137 0 -220.5 -87
t-109.5 -257z" />
    <glyph glyph-name="f" unicode="f" horiz-adv-x="677" 
d="M272 0h-133l150 940h-191l17 109h190l43 264q21 132 96.5 192t208.5 60q81 0 144 -25l-19 -108q-70 18 -121 18q-86 0 -127.5 -37.5t-52.5 -114.5l-39 -249h275l-15 -109h-276z" />
    <glyph glyph-name="g" unicode="g" horiz-adv-x="1142" 
d="M428 -373q-162 0 -270 82t-111 217h139q4 -88 73.5 -138t174.5 -50q282 0 322 268l26 160q-50 -70 -129.5 -114t-181.5 -44q-123 0 -213.5 67.5t-130.5 189t-18 272.5l10 75q30 221 147.5 341t296.5 120q132 0 218.5 -63t113.5 -154l35 193h125l-164 -1037
q-60 -385 -463 -385zM514 125q136 0 218 87.5t104 254.5l12 80q26 193 -45.5 302t-224.5 109q-132 0 -214 -88.5t-108 -261.5l-14 -96q-26 -174 49.5 -280.5t222.5 -106.5z" />
    <glyph glyph-name="h" unicode="h" horiz-adv-x="1097" 
d="M219 0h-133l244 1540h133l-101 -629q42 74 119.5 118t173.5 44q158 0 248 -106t60 -285l-109 -682h-131l104 674q20 136 -31.5 209t-166.5 73q-127 0 -206.5 -85t-103.5 -236z" />
    <glyph glyph-name="i" unicode="i" horiz-adv-x="473" 
d="M426 1272h-139l41 268h141zM221 0h-133l166 1049h133z" />
    <glyph glyph-name="j" unicode="j" horiz-adv-x="448" 
d="M395 1272h-139l41 268h141zM-119 -373q-67 0 -123 27l19 106q47 -18 102 -18q82 0 118.5 37.5t49.5 118.5l182 1151h133l-184 -1168q-42 -254 -297 -254z" />
    <glyph glyph-name="k" unicode="k" horiz-adv-x="927" 
d="M219 0h-133l246 1540h133l-156 -979l508 488h162l-459 -439l303 -610h-143l-260 530l-137 -131z" />
    <glyph glyph-name="l" unicode="l" horiz-adv-x="471" 
d="M219 0h-133l244 1540h133z" />
    <glyph glyph-name="m" unicode="m" horiz-adv-x="1675" 
d="M221 0h-133l166 1049h127l-19 -138q41 74 114.5 118t166.5 44q107 0 181 -54.5t102 -152.5q101 207 311 207q155 0 244 -105.5t61 -281.5l-110 -686h-134l107 678q22 131 -29.5 204.5t-158.5 73.5q-116 0 -190 -85t-99 -236l-103 -635h-131l107 678q21 130 -30.5 204
t-156.5 74q-121 0 -195.5 -85t-96.5 -236z" />
    <glyph glyph-name="n" unicode="n" horiz-adv-x="1101" 
d="M221 0h-133l166 1049h127l-19 -144q44 77 121.5 122.5t173.5 45.5q161 0 250.5 -106t59.5 -285l-107 -682h-133l104 674q20 136 -31 209t-167 73q-127 0 -208 -85.5t-103 -235.5z" />
    <glyph glyph-name="o" unicode="o" horiz-adv-x="1099" 
d="M510 -25q-220 0 -330.5 151.5t-73.5 401.5l13 84q32 226 153 343.5t320 117.5q218 0 328 -151t75 -402l-12 -86q-32 -225 -154 -342t-319 -117zM516 92q276 0 328 350l14 99q29 196 -44.5 306.5t-225.5 110.5q-280 0 -332 -350l-14 -98q-28 -197 45 -307.5t229 -110.5z
" />
    <glyph glyph-name="p" unicode="p" horiz-adv-x="1146" 
d="M166 -348h-133l221 1397h125l-21 -134q108 158 314 158q93 0 169.5 -39t126 -109t69.5 -173t3 -226l-12 -88q-32 -223 -152.5 -343t-306.5 -120q-128 0 -209 59t-110 146zM571 92q133 0 214 90t106 264l14 103q27 191 -44.5 300t-217.5 109q-137 0 -221.5 -88.5
t-110.5 -261.5l-14 -98q-29 -196 45 -307t229 -111z" />
    <glyph glyph-name="q" unicode="q" horiz-adv-x="1142" 
d="M834 -348h-134l74 465q-46 -64 -121.5 -103t-177.5 -39q-192 0 -298 152t-71 397l13 88q32 223 151 342t305 119q133 0 214.5 -61t109.5 -152l33 189h123zM504 92q278 0 330 350l14 99q29 196 -44.5 306.5t-228.5 110.5q-268 0 -319 -356l-14 -100q-29 -190 42.5 -300
t219.5 -110z" />
    <glyph glyph-name="r" unicode="r" horiz-adv-x="686" 
d="M221 0h-133l166 1049h127l-23 -158q51 88 134 135t186 47q35 0 53 -2l-22 -135q-20 2 -56 2q-136 0 -224.5 -87t-117.5 -263z" />
    <glyph glyph-name="s" unicode="s" horiz-adv-x="956" 
d="M438 -25q-173 0 -274.5 89.5t-102.5 252.5h129q3 -119 71.5 -175t182.5 -56q207 0 232 154q17 101 -31 152.5t-190 88.5q-325 89 -283 346q20 118 108.5 182t233.5 64q160 0 254.5 -84.5t95.5 -230.5h-127q-3 98 -62.5 151.5t-164.5 53.5q-92 0 -145 -37.5t-64 -108.5
q-12 -94 34.5 -142t184.5 -85q169 -45 242 -133t47 -232q-19 -115 -119 -182.5t-252 -67.5z" />
    <glyph glyph-name="t" unicode="t" horiz-adv-x="720" 
d="M438 -25q-138 0 -208 75t-46 226l105 664h-191l17 109h190l51 323h133l-51 -323h275l-15 -109h-276l-103 -666q-17 -96 16.5 -140t125.5 -44q58 0 110 19l-16 -115q-52 -19 -117 -19z" />
    <glyph glyph-name="u" unicode="u" horiz-adv-x="1089" 
d="M426 -25q-154 0 -237 107t-54 289l109 678h133l-107 -674q-22 -136 26 -208.5t163 -72.5q125 0 205 85.5t104 236.5l100 633h133l-165 -1049h-129l20 143q-44 -76 -123.5 -122t-177.5 -46z" />
    <glyph glyph-name="v" unicode="v" horiz-adv-x="950" 
d="M467 0h-145l-195 1049h133l154 -897l440 897h137z" />
    <glyph glyph-name="w" unicode="w" horiz-adv-x="1417" 
d="M395 0h-143l-125 1049h129l92 -881l375 881h131l98 -879l373 879h133l-461 -1049h-141l-92 858z" />
    <glyph glyph-name="x" unicode="x" horiz-adv-x="942" 
d="M113 0h-154l436 543l-252 506h146l196 -404l322 404h151l-411 -508l268 -541h-139l-217 438z" />
    <glyph glyph-name="y" unicode="y" horiz-adv-x="946" 
d="M289 -348h-135l176 352l-203 1045h133l160 -877l430 877h137z" />
    <glyph glyph-name="z" unicode="z" horiz-adv-x="899" 
d="M717 0h-701l17 104l657 832h-500l19 113h653l-16 -103l-653 -831h540z" />
    <glyph glyph-name="braceleft" unicode="{" 
d="M1065 0h-944l241 1516h945zM485 1391l-202 -1266h661l201 1266h-660z" />
    <glyph glyph-name="bar" unicode="|" 
d="M1065 0h-944l241 1516h945zM485 1391l-202 -1266h661l201 1266h-660z" />
    <glyph glyph-name="braceright" unicode="}" 
d="M1065 0h-944l241 1516h945zM485 1391l-202 -1266h661l201 1266h-660z" />
    <glyph glyph-name="asciitilde" unicode="~" 
d="M1065 0h-944l241 1516h945zM485 1391l-202 -1266h661l201 1266h-660z" />
    <glyph glyph-name="uni00A0" unicode="&#xa0;" 
d="M1065 0h-944l241 1516h945zM485 1391l-202 -1266h661l201 1266h-660z" />
    <glyph glyph-name="exclamdown" unicode="&#xa1;" 
d="M1065 0h-944l241 1516h945zM485 1391l-202 -1266h661l201 1266h-660z" />
    <glyph glyph-name="cent" unicode="&#xa2;" 
d="M1065 0h-944l241 1516h945zM485 1391l-202 -1266h661l201 1266h-660z" />
    <glyph glyph-name="sterling" unicode="&#xa3;" 
d="M1065 0h-944l241 1516h945zM485 1391l-202 -1266h661l201 1266h-660z" />
    <glyph glyph-name="currency" unicode="&#xa4;" 
d="M1065 0h-944l241 1516h945zM485 1391l-202 -1266h661l201 1266h-660z" />
    <glyph glyph-name="yen" unicode="&#xa5;" 
d="M1065 0h-944l241 1516h945zM485 1391l-202 -1266h661l201 1266h-660z" />
    <glyph glyph-name="brokenbar" unicode="&#xa6;" 
d="M1065 0h-944l241 1516h945zM485 1391l-202 -1266h661l201 1266h-660z" />
    <glyph glyph-name="section" unicode="&#xa7;" 
d="M1065 0h-944l241 1516h945zM485 1391l-202 -1266h661l201 1266h-660z" />
    <glyph glyph-name="dieresis" unicode="&#xa8;" 
d="M1065 0h-944l241 1516h945zM485 1391l-202 -1266h661l201 1266h-660z" />
    <glyph glyph-name="copyright" unicode="&#xa9;" 
d="M1065 0h-944l241 1516h945zM485 1391l-202 -1266h661l201 1266h-660z" />
    <glyph glyph-name="ordfeminine" unicode="&#xaa;" 
d="M1065 0h-944l241 1516h945zM485 1391l-202 -1266h661l201 1266h-660z" />
    <glyph glyph-name="guillemotleft" unicode="&#xab;" 
d="M1065 0h-944l241 1516h945zM485 1391l-202 -1266h661l201 1266h-660z" />
    <glyph glyph-name="logicalnot" unicode="&#xac;" 
d="M1065 0h-944l241 1516h945zM485 1391l-202 -1266h661l201 1266h-660z" />
    <glyph glyph-name="uni00AD" unicode="&#xad;" 
d="M1065 0h-944l241 1516h945zM485 1391l-202 -1266h661l201 1266h-660z" />
    <glyph glyph-name="registered" unicode="&#xae;" 
d="M1065 0h-944l241 1516h945zM485 1391l-202 -1266h661l201 1266h-660z" />
    <glyph glyph-name="macron" unicode="&#xaf;" 
d="M1065 0h-944l241 1516h945zM485 1391l-202 -1266h661l201 1266h-660z" />
    <glyph glyph-name="degree" unicode="&#xb0;" 
d="M1065 0h-944l241 1516h945zM485 1391l-202 -1266h661l201 1266h-660z" />
    <glyph glyph-name="plusminus" unicode="&#xb1;" 
d="M1065 0h-944l241 1516h945zM485 1391l-202 -1266h661l201 1266h-660z" />
    <glyph glyph-name="uni00B2" unicode="&#xb2;" 
d="M1065 0h-944l241 1516h945zM485 1391l-202 -1266h661l201 1266h-660z" />
    <glyph glyph-name="uni00B3" unicode="&#xb3;" 
d="M1065 0h-944l241 1516h945zM485 1391l-202 -1266h661l201 1266h-660z" />
    <glyph glyph-name="acute" unicode="&#xb4;" 
d="M1065 0h-944l241 1516h945zM485 1391l-202 -1266h661l201 1266h-660z" />
    <glyph glyph-name="uni00B5" unicode="&#xb5;" 
d="M1065 0h-944l241 1516h945zM485 1391l-202 -1266h661l201 1266h-660z" />
    <glyph glyph-name="paragraph" unicode="&#xb6;" 
d="M1065 0h-944l241 1516h945zM485 1391l-202 -1266h661l201 1266h-660z" />
    <glyph glyph-name="periodcentered" unicode="&#xb7;" 
d="M1065 0h-944l241 1516h945zM485 1391l-202 -1266h661l201 1266h-660z" />
    <glyph glyph-name="cedilla" unicode="&#xb8;" 
d="M1065 0h-944l241 1516h945zM485 1391l-202 -1266h661l201 1266h-660z" />
    <glyph glyph-name="uni00B9" unicode="&#xb9;" 
d="M1065 0h-944l241 1516h945zM485 1391l-202 -1266h661l201 1266h-660z" />
    <glyph glyph-name="ordmasculine" unicode="&#xba;" 
d="M1065 0h-944l241 1516h945zM485 1391l-202 -1266h661l201 1266h-660z" />
    <glyph glyph-name="guillemotright" unicode="&#xbb;" 
d="M1065 0h-944l241 1516h945zM485 1391l-202 -1266h661l201 1266h-660z" />
    <glyph glyph-name="onequarter" unicode="&#xbc;" 
d="M1065 0h-944l241 1516h945zM485 1391l-202 -1266h661l201 1266h-660z" />
    <glyph glyph-name="onehalf" unicode="&#xbd;" 
d="M1065 0h-944l241 1516h945zM485 1391l-202 -1266h661l201 1266h-660z" />
    <glyph glyph-name="threequarters" unicode="&#xbe;" 
d="M1065 0h-944l241 1516h945zM485 1391l-202 -1266h661l201 1266h-660z" />
    <glyph glyph-name="questiondown" unicode="&#xbf;" 
d="M1065 0h-944l241 1516h945zM485 1391l-202 -1266h661l201 1266h-660z" />
    <glyph glyph-name="Agrave" unicode="&#xc0;" 
d="M1065 0h-944l241 1516h945zM485 1391l-202 -1266h661l201 1266h-660z" />
    <glyph glyph-name="Aacute" unicode="&#xc1;" 
d="M1065 0h-944l241 1516h945zM485 1391l-202 -1266h661l201 1266h-660z" />
    <glyph glyph-name="Acircumflex" unicode="&#xc2;" 
d="M1065 0h-944l241 1516h945zM485 1391l-202 -1266h661l201 1266h-660z" />
    <glyph glyph-name="Atilde" unicode="&#xc3;" 
d="M1065 0h-944l241 1516h945zM485 1391l-202 -1266h661l201 1266h-660z" />
    <glyph glyph-name="Adieresis" unicode="&#xc4;" 
d="M1065 0h-944l241 1516h945zM485 1391l-202 -1266h661l201 1266h-660z" />
    <glyph glyph-name="Aring" unicode="&#xc5;" 
d="M1065 0h-944l241 1516h945zM485 1391l-202 -1266h661l201 1266h-660z" />
    <glyph glyph-name="AE" unicode="&#xc6;" 
d="M1065 0h-944l241 1516h945zM485 1391l-202 -1266h661l201 1266h-660z" />
    <glyph glyph-name="Ccedilla" unicode="&#xc7;" 
d="M1065 0h-944l241 1516h945zM485 1391l-202 -1266h661l201 1266h-660z" />
    <glyph glyph-name="Egrave" unicode="&#xc8;" 
d="M1065 0h-944l241 1516h945zM485 1391l-202 -1266h661l201 1266h-660z" />
    <glyph glyph-name="Eacute" unicode="&#xc9;" 
d="M1065 0h-944l241 1516h945zM485 1391l-202 -1266h661l201 1266h-660z" />
    <glyph glyph-name="Ecircumflex" unicode="&#xca;" 
d="M1065 0h-944l241 1516h945zM485 1391l-202 -1266h661l201 1266h-660z" />
    <glyph glyph-name="Edieresis" unicode="&#xcb;" 
d="M1065 0h-944l241 1516h945zM485 1391l-202 -1266h661l201 1266h-660z" />
    <glyph glyph-name="Igrave" unicode="&#xcc;" 
d="M1065 0h-944l241 1516h945zM485 1391l-202 -1266h661l201 1266h-660z" />
    <glyph glyph-name="Iacute" unicode="&#xcd;" 
d="M1065 0h-944l241 1516h945zM485 1391l-202 -1266h661l201 1266h-660z" />
    <glyph glyph-name="Icircumflex" unicode="&#xce;" 
d="M1065 0h-944l241 1516h945zM485 1391l-202 -1266h661l201 1266h-660z" />
    <glyph glyph-name="Idieresis" unicode="&#xcf;" 
d="M1065 0h-944l241 1516h945zM485 1391l-202 -1266h661l201 1266h-660z" />
    <glyph glyph-name="Eth" unicode="&#xd0;" 
d="M1065 0h-944l241 1516h945zM485 1391l-202 -1266h661l201 1266h-660z" />
    <glyph glyph-name="Ntilde" unicode="&#xd1;" 
d="M1065 0h-944l241 1516h945zM485 1391l-202 -1266h661l201 1266h-660z" />
    <glyph glyph-name="Ograve" unicode="&#xd2;" 
d="M1065 0h-944l241 1516h945zM485 1391l-202 -1266h661l201 1266h-660z" />
    <glyph glyph-name="Oacute" unicode="&#xd3;" 
d="M1065 0h-944l241 1516h945zM485 1391l-202 -1266h661l201 1266h-660z" />
    <glyph glyph-name="Ocircumflex" unicode="&#xd4;" 
d="M1065 0h-944l241 1516h945zM485 1391l-202 -1266h661l201 1266h-660z" />
    <glyph glyph-name="Otilde" unicode="&#xd5;" 
d="M1065 0h-944l241 1516h945zM485 1391l-202 -1266h661l201 1266h-660z" />
    <glyph glyph-name="Odieresis" unicode="&#xd6;" 
d="M1065 0h-944l241 1516h945zM485 1391l-202 -1266h661l201 1266h-660z" />
    <glyph glyph-name="multiply" unicode="&#xd7;" 
d="M1065 0h-944l241 1516h945zM485 1391l-202 -1266h661l201 1266h-660z" />
    <glyph glyph-name="Oslash" unicode="&#xd8;" 
d="M1065 0h-944l241 1516h945zM485 1391l-202 -1266h661l201 1266h-660z" />
    <glyph glyph-name="Ugrave" unicode="&#xd9;" 
d="M1065 0h-944l241 1516h945zM485 1391l-202 -1266h661l201 1266h-660z" />
    <glyph glyph-name="Uacute" unicode="&#xda;" 
d="M1065 0h-944l241 1516h945zM485 1391l-202 -1266h661l201 1266h-660z" />
    <glyph glyph-name="Ucircumflex" unicode="&#xdb;" 
d="M1065 0h-944l241 1516h945zM485 1391l-202 -1266h661l201 1266h-660z" />
    <glyph glyph-name="Udieresis" unicode="&#xdc;" 
d="M1065 0h-944l241 1516h945zM485 1391l-202 -1266h661l201 1266h-660z" />
    <glyph glyph-name="Yacute" unicode="&#xdd;" 
d="M1065 0h-944l241 1516h945zM485 1391l-202 -1266h661l201 1266h-660z" />
    <glyph glyph-name="Thorn" unicode="&#xde;" 
d="M1065 0h-944l241 1516h945zM485 1391l-202 -1266h661l201 1266h-660z" />
    <glyph glyph-name="germandbls" unicode="&#xdf;" 
d="M1065 0h-944l241 1516h945zM485 1391l-202 -1266h661l201 1266h-660z" />
    <glyph glyph-name="agrave" unicode="&#xe0;" 
d="M1065 0h-944l241 1516h945zM485 1391l-202 -1266h661l201 1266h-660z" />
    <glyph glyph-name="aacute" unicode="&#xe1;" 
d="M1065 0h-944l241 1516h945zM485 1391l-202 -1266h661l201 1266h-660z" />
    <glyph glyph-name="acircumflex" unicode="&#xe2;" 
d="M1065 0h-944l241 1516h945zM485 1391l-202 -1266h661l201 1266h-660z" />
    <glyph glyph-name="atilde" unicode="&#xe3;" 
d="M1065 0h-944l241 1516h945zM485 1391l-202 -1266h661l201 1266h-660z" />
    <glyph glyph-name="adieresis" unicode="&#xe4;" 
d="M1065 0h-944l241 1516h945zM485 1391l-202 -1266h661l201 1266h-660z" />
    <glyph glyph-name="aring" unicode="&#xe5;" 
d="M1065 0h-944l241 1516h945zM485 1391l-202 -1266h661l201 1266h-660z" />
    <glyph glyph-name="ae" unicode="&#xe6;" 
d="M1065 0h-944l241 1516h945zM485 1391l-202 -1266h661l201 1266h-660z" />
    <glyph glyph-name="ccedilla" unicode="&#xe7;" 
d="M1065 0h-944l241 1516h945zM485 1391l-202 -1266h661l201 1266h-660z" />
    <glyph glyph-name="egrave" unicode="&#xe8;" 
d="M1065 0h-944l241 1516h945zM485 1391l-202 -1266h661l201 1266h-660z" />
    <glyph glyph-name="eacute" unicode="&#xe9;" 
d="M1065 0h-944l241 1516h945zM485 1391l-202 -1266h661l201 1266h-660z" />
    <glyph glyph-name="ecircumflex" unicode="&#xea;" 
d="M1065 0h-944l241 1516h945zM485 1391l-202 -1266h661l201 1266h-660z" />
    <glyph glyph-name="edieresis" unicode="&#xeb;" 
d="M1065 0h-944l241 1516h945zM485 1391l-202 -1266h661l201 1266h-660z" />
    <glyph glyph-name="igrave" unicode="&#xec;" 
d="M1065 0h-944l241 1516h945zM485 1391l-202 -1266h661l201 1266h-660z" />
    <glyph glyph-name="iacute" unicode="&#xed;" 
d="M1065 0h-944l241 1516h945zM485 1391l-202 -1266h661l201 1266h-660z" />
    <glyph glyph-name="icircumflex" unicode="&#xee;" 
d="M1065 0h-944l241 1516h945zM485 1391l-202 -1266h661l201 1266h-660z" />
    <glyph glyph-name="idieresis" unicode="&#xef;" 
d="M1065 0h-944l241 1516h945zM485 1391l-202 -1266h661l201 1266h-660z" />
    <glyph glyph-name="eth" unicode="&#xf0;" 
d="M1065 0h-944l241 1516h945zM485 1391l-202 -1266h661l201 1266h-660z" />
    <glyph glyph-name="ntilde" unicode="&#xf1;" 
d="M1065 0h-944l241 1516h945zM485 1391l-202 -1266h661l201 1266h-660z" />
    <glyph glyph-name="ograve" unicode="&#xf2;" 
d="M1065 0h-944l241 1516h945zM485 1391l-202 -1266h661l201 1266h-660z" />
    <glyph glyph-name="oacute" unicode="&#xf3;" 
d="M1065 0h-944l241 1516h945zM485 1391l-202 -1266h661l201 1266h-660z" />
    <glyph glyph-name="ocircumflex" unicode="&#xf4;" 
d="M1065 0h-944l241 1516h945zM485 1391l-202 -1266h661l201 1266h-660z" />
    <glyph glyph-name="otilde" unicode="&#xf5;" 
d="M1065 0h-944l241 1516h945zM485 1391l-202 -1266h661l201 1266h-660z" />
    <glyph glyph-name="odieresis" unicode="&#xf6;" 
d="M1065 0h-944l241 1516h945zM485 1391l-202 -1266h661l201 1266h-660z" />
    <glyph glyph-name="divide" unicode="&#xf7;" 
d="M1065 0h-944l241 1516h945zM485 1391l-202 -1266h661l201 1266h-660z" />
    <glyph glyph-name="oslash" unicode="&#xf8;" 
d="M1065 0h-944l241 1516h945zM485 1391l-202 -1266h661l201 1266h-660z" />
    <glyph glyph-name="ugrave" unicode="&#xf9;" 
d="M1065 0h-944l241 1516h945zM485 1391l-202 -1266h661l201 1266h-660z" />
    <glyph glyph-name="uacute" unicode="&#xfa;" 
d="M1065 0h-944l241 1516h945zM485 1391l-202 -1266h661l201 1266h-660z" />
    <glyph glyph-name="ucircumflex" unicode="&#xfb;" 
d="M1065 0h-944l241 1516h945zM485 1391l-202 -1266h661l201 1266h-660z" />
    <glyph glyph-name="udieresis" unicode="&#xfc;" 
d="M1065 0h-944l241 1516h945zM485 1391l-202 -1266h661l201 1266h-660z" />
    <glyph glyph-name="yacute" unicode="&#xfd;" 
d="M1065 0h-944l241 1516h945zM485 1391l-202 -1266h661l201 1266h-660z" />
    <glyph glyph-name="thorn" unicode="&#xfe;" 
d="M1065 0h-944l241 1516h945zM485 1391l-202 -1266h661l201 1266h-660z" />
    <glyph glyph-name="ydieresis" unicode="&#xff;" 
d="M1065 0h-944l241 1516h945zM485 1391l-202 -1266h661l201 1266h-660z" />
    <glyph glyph-name="Amacron" unicode="&#x100;" 
d="M1065 0h-944l241 1516h945zM485 1391l-202 -1266h661l201 1266h-660z" />
    <glyph glyph-name="amacron" unicode="&#x101;" 
d="M1065 0h-944l241 1516h945zM485 1391l-202 -1266h661l201 1266h-660z" />
    <glyph glyph-name="Abreve" unicode="&#x102;" 
d="M1065 0h-944l241 1516h945zM485 1391l-202 -1266h661l201 1266h-660z" />
    <glyph glyph-name="abreve" unicode="&#x103;" 
d="M1065 0h-944l241 1516h945zM485 1391l-202 -1266h661l201 1266h-660z" />
    <glyph glyph-name="Aogonek" unicode="&#x104;" 
d="M1065 0h-944l241 1516h945zM485 1391l-202 -1266h661l201 1266h-660z" />
    <glyph glyph-name="aogonek" unicode="&#x105;" 
d="M1065 0h-944l241 1516h945zM485 1391l-202 -1266h661l201 1266h-660z" />
    <glyph glyph-name="Cacute" unicode="&#x106;" 
d="M1065 0h-944l241 1516h945zM485 1391l-202 -1266h661l201 1266h-660z" />
    <glyph glyph-name="cacute" unicode="&#x107;" 
d="M1065 0h-944l241 1516h945zM485 1391l-202 -1266h661l201 1266h-660z" />
    <glyph glyph-name="Ccircumflex" unicode="&#x108;" 
d="M1065 0h-944l241 1516h945zM485 1391l-202 -1266h661l201 1266h-660z" />
    <glyph glyph-name="ccircumflex" unicode="&#x109;" 
d="M1065 0h-944l241 1516h945zM485 1391l-202 -1266h661l201 1266h-660z" />
    <glyph glyph-name="Cdotaccent" unicode="&#x10a;" 
d="M1065 0h-944l241 1516h945zM485 1391l-202 -1266h661l201 1266h-660z" />
    <glyph glyph-name="cdotaccent" unicode="&#x10b;" 
d="M1065 0h-944l241 1516h945zM485 1391l-202 -1266h661l201 1266h-660z" />
    <glyph glyph-name="Ccaron" unicode="&#x10c;" 
d="M1065 0h-944l241 1516h945zM485 1391l-202 -1266h661l201 1266h-660z" />
    <glyph glyph-name="ccaron" unicode="&#x10d;" 
d="M1065 0h-944l241 1516h945zM485 1391l-202 -1266h661l201 1266h-660z" />
    <glyph glyph-name="Dcaron" unicode="&#x10e;" 
d="M1065 0h-944l241 1516h945zM485 1391l-202 -1266h661l201 1266h-660z" />
    <glyph glyph-name="dcaron" unicode="&#x10f;" 
d="M1065 0h-944l241 1516h945zM485 1391l-202 -1266h661l201 1266h-660z" />
    <glyph glyph-name="Dcroat" unicode="&#x110;" 
d="M1065 0h-944l241 1516h945zM485 1391l-202 -1266h661l201 1266h-660z" />
    <glyph glyph-name="dcroat" unicode="&#x111;" 
d="M1065 0h-944l241 1516h945zM485 1391l-202 -1266h661l201 1266h-660z" />
    <glyph glyph-name="Emacron" unicode="&#x112;" 
d="M1065 0h-944l241 1516h945zM485 1391l-202 -1266h661l201 1266h-660z" />
    <glyph glyph-name="emacron" unicode="&#x113;" 
d="M1065 0h-944l241 1516h945zM485 1391l-202 -1266h661l201 1266h-660z" />
    <glyph glyph-name="Ebreve" unicode="&#x114;" 
d="M1065 0h-944l241 1516h945zM485 1391l-202 -1266h661l201 1266h-660z" />
    <glyph glyph-name="ebreve" unicode="&#x115;" 
d="M1065 0h-944l241 1516h945zM485 1391l-202 -1266h661l201 1266h-660z" />
    <glyph glyph-name="Edotaccent" unicode="&#x116;" 
d="M1065 0h-944l241 1516h945zM485 1391l-202 -1266h661l201 1266h-660z" />
    <glyph glyph-name="edotaccent" unicode="&#x117;" 
d="M1065 0h-944l241 1516h945zM485 1391l-202 -1266h661l201 1266h-660z" />
    <glyph glyph-name="Eogonek" unicode="&#x118;" 
d="M1065 0h-944l241 1516h945zM485 1391l-202 -1266h661l201 1266h-660z" />
    <glyph glyph-name="eogonek" unicode="&#x119;" 
d="M1065 0h-944l241 1516h945zM485 1391l-202 -1266h661l201 1266h-660z" />
    <glyph glyph-name="Ecaron" unicode="&#x11a;" 
d="M1065 0h-944l241 1516h945zM485 1391l-202 -1266h661l201 1266h-660z" />
    <glyph glyph-name="ecaron" unicode="&#x11b;" 
d="M1065 0h-944l241 1516h945zM485 1391l-202 -1266h661l201 1266h-660z" />
    <glyph glyph-name="Gcircumflex" unicode="&#x11c;" 
d="M1065 0h-944l241 1516h945zM485 1391l-202 -1266h661l201 1266h-660z" />
    <glyph glyph-name="gcircumflex" unicode="&#x11d;" 
d="M1065 0h-944l241 1516h945zM485 1391l-202 -1266h661l201 1266h-660z" />
    <glyph glyph-name="Gbreve" unicode="&#x11e;" 
d="M1065 0h-944l241 1516h945zM485 1391l-202 -1266h661l201 1266h-660z" />
    <glyph glyph-name="gbreve" unicode="&#x11f;" 
d="M1065 0h-944l241 1516h945zM485 1391l-202 -1266h661l201 1266h-660z" />
    <glyph glyph-name="Gdotaccent" unicode="&#x120;" 
d="M1065 0h-944l241 1516h945zM485 1391l-202 -1266h661l201 1266h-660z" />
    <glyph glyph-name="gdotaccent" unicode="&#x121;" 
d="M1065 0h-944l241 1516h945zM485 1391l-202 -1266h661l201 1266h-660z" />
    <glyph glyph-name="uni0122" unicode="&#x122;" 
d="M1065 0h-944l241 1516h945zM485 1391l-202 -1266h661l201 1266h-660z" />
    <glyph glyph-name="uni0123" unicode="&#x123;" 
d="M1065 0h-944l241 1516h945zM485 1391l-202 -1266h661l201 1266h-660z" />
    <glyph glyph-name="Hcircumflex" unicode="&#x124;" 
d="M1065 0h-944l241 1516h945zM485 1391l-202 -1266h661l201 1266h-660z" />
    <glyph glyph-name="hcircumflex" unicode="&#x125;" 
d="M1065 0h-944l241 1516h945zM485 1391l-202 -1266h661l201 1266h-660z" />
    <glyph glyph-name="Hbar" unicode="&#x126;" 
d="M1065 0h-944l241 1516h945zM485 1391l-202 -1266h661l201 1266h-660z" />
    <glyph glyph-name="hbar" unicode="&#x127;" 
d="M1065 0h-944l241 1516h945zM485 1391l-202 -1266h661l201 1266h-660z" />
    <glyph glyph-name="Itilde" unicode="&#x128;" 
d="M1065 0h-944l241 1516h945zM485 1391l-202 -1266h661l201 1266h-660z" />
    <glyph glyph-name="itilde" unicode="&#x129;" 
d="M1065 0h-944l241 1516h945zM485 1391l-202 -1266h661l201 1266h-660z" />
    <glyph glyph-name="Imacron" unicode="&#x12a;" 
d="M1065 0h-944l241 1516h945zM485 1391l-202 -1266h661l201 1266h-660z" />
    <glyph glyph-name="imacron" unicode="&#x12b;" 
d="M1065 0h-944l241 1516h945zM485 1391l-202 -1266h661l201 1266h-660z" />
    <glyph glyph-name="Ibreve" unicode="&#x12c;" 
d="M1065 0h-944l241 1516h945zM485 1391l-202 -1266h661l201 1266h-660z" />
    <glyph glyph-name="ibreve" unicode="&#x12d;" 
d="M1065 0h-944l241 1516h945zM485 1391l-202 -1266h661l201 1266h-660z" />
    <glyph glyph-name="Iogonek" unicode="&#x12e;" 
d="M1065 0h-944l241 1516h945zM485 1391l-202 -1266h661l201 1266h-660z" />
    <glyph glyph-name="iogonek" unicode="&#x12f;" 
d="M1065 0h-944l241 1516h945zM485 1391l-202 -1266h661l201 1266h-660z" />
    <glyph glyph-name="Idotaccent" unicode="&#x130;" 
d="M1065 0h-944l241 1516h945zM485 1391l-202 -1266h661l201 1266h-660z" />
    <glyph glyph-name="dotlessi" unicode="&#x131;" 
d="M1065 0h-944l241 1516h945zM485 1391l-202 -1266h661l201 1266h-660z" />
    <glyph glyph-name="IJ" unicode="&#x132;" 
d="M1065 0h-944l241 1516h945zM485 1391l-202 -1266h661l201 1266h-660z" />
    <glyph glyph-name="ij" unicode="&#x133;" 
d="M1065 0h-944l241 1516h945zM485 1391l-202 -1266h661l201 1266h-660z" />
    <glyph glyph-name="Jcircumflex" unicode="&#x134;" 
d="M1065 0h-944l241 1516h945zM485 1391l-202 -1266h661l201 1266h-660z" />
    <glyph glyph-name="jcircumflex" unicode="&#x135;" 
d="M1065 0h-944l241 1516h945zM485 1391l-202 -1266h661l201 1266h-660z" />
    <glyph glyph-name="uni0136" unicode="&#x136;" 
d="M1065 0h-944l241 1516h945zM485 1391l-202 -1266h661l201 1266h-660z" />
    <glyph glyph-name="uni0137" unicode="&#x137;" 
d="M1065 0h-944l241 1516h945zM485 1391l-202 -1266h661l201 1266h-660z" />
    <glyph glyph-name="Lacute" unicode="&#x139;" 
d="M1065 0h-944l241 1516h945zM485 1391l-202 -1266h661l201 1266h-660z" />
    <glyph glyph-name="lacute" unicode="&#x13a;" 
d="M1065 0h-944l241 1516h945zM485 1391l-202 -1266h661l201 1266h-660z" />
    <glyph glyph-name="uni013B" unicode="&#x13b;" 
d="M1065 0h-944l241 1516h945zM485 1391l-202 -1266h661l201 1266h-660z" />
    <glyph glyph-name="uni013C" unicode="&#x13c;" 
d="M1065 0h-944l241 1516h945zM485 1391l-202 -1266h661l201 1266h-660z" />
    <glyph glyph-name="Lcaron" unicode="&#x13d;" 
d="M1065 0h-944l241 1516h945zM485 1391l-202 -1266h661l201 1266h-660z" />
    <glyph glyph-name="lcaron" unicode="&#x13e;" 
d="M1065 0h-944l241 1516h945zM485 1391l-202 -1266h661l201 1266h-660z" />
    <glyph glyph-name="Ldot" unicode="&#x13f;" 
d="M1065 0h-944l241 1516h945zM485 1391l-202 -1266h661l201 1266h-660z" />
    <glyph glyph-name="ldot" unicode="&#x140;" 
d="M1065 0h-944l241 1516h945zM485 1391l-202 -1266h661l201 1266h-660z" />
    <glyph glyph-name="Lslash" unicode="&#x141;" 
d="M1065 0h-944l241 1516h945zM485 1391l-202 -1266h661l201 1266h-660z" />
    <glyph glyph-name="lslash" unicode="&#x142;" 
d="M1065 0h-944l241 1516h945zM485 1391l-202 -1266h661l201 1266h-660z" />
    <glyph glyph-name="Nacute" unicode="&#x143;" 
d="M1065 0h-944l241 1516h945zM485 1391l-202 -1266h661l201 1266h-660z" />
    <glyph glyph-name="nacute" unicode="&#x144;" 
d="M1065 0h-944l241 1516h945zM485 1391l-202 -1266h661l201 1266h-660z" />
    <glyph glyph-name="uni0145" unicode="&#x145;" 
d="M1065 0h-944l241 1516h945zM485 1391l-202 -1266h661l201 1266h-660z" />
    <glyph glyph-name="uni0146" unicode="&#x146;" 
d="M1065 0h-944l241 1516h945zM485 1391l-202 -1266h661l201 1266h-660z" />
    <glyph glyph-name="Ncaron" unicode="&#x147;" 
d="M1065 0h-944l241 1516h945zM485 1391l-202 -1266h661l201 1266h-660z" />
    <glyph glyph-name="ncaron" unicode="&#x148;" 
d="M1065 0h-944l241 1516h945zM485 1391l-202 -1266h661l201 1266h-660z" />
    <glyph glyph-name="Eng" unicode="&#x14a;" 
d="M1065 0h-944l241 1516h945zM485 1391l-202 -1266h661l201 1266h-660z" />
    <glyph glyph-name="eng" unicode="&#x14b;" 
d="M1065 0h-944l241 1516h945zM485 1391l-202 -1266h661l201 1266h-660z" />
    <glyph glyph-name="Omacron" unicode="&#x14c;" 
d="M1065 0h-944l241 1516h945zM485 1391l-202 -1266h661l201 1266h-660z" />
    <glyph glyph-name="omacron" unicode="&#x14d;" 
d="M1065 0h-944l241 1516h945zM485 1391l-202 -1266h661l201 1266h-660z" />
    <glyph glyph-name="Obreve" unicode="&#x14e;" 
d="M1065 0h-944l241 1516h945zM485 1391l-202 -1266h661l201 1266h-660z" />
    <glyph glyph-name="obreve" unicode="&#x14f;" 
d="M1065 0h-944l241 1516h945zM485 1391l-202 -1266h661l201 1266h-660z" />
    <glyph glyph-name="Ohungarumlaut" unicode="&#x150;" 
d="M1065 0h-944l241 1516h945zM485 1391l-202 -1266h661l201 1266h-660z" />
    <glyph glyph-name="ohungarumlaut" unicode="&#x151;" 
d="M1065 0h-944l241 1516h945zM485 1391l-202 -1266h661l201 1266h-660z" />
    <glyph glyph-name="OE" unicode="&#x152;" 
d="M1065 0h-944l241 1516h945zM485 1391l-202 -1266h661l201 1266h-660z" />
    <glyph glyph-name="oe" unicode="&#x153;" 
d="M1065 0h-944l241 1516h945zM485 1391l-202 -1266h661l201 1266h-660z" />
    <glyph glyph-name="Racute" unicode="&#x154;" 
d="M1065 0h-944l241 1516h945zM485 1391l-202 -1266h661l201 1266h-660z" />
    <glyph glyph-name="racute" unicode="&#x155;" 
d="M1065 0h-944l241 1516h945zM485 1391l-202 -1266h661l201 1266h-660z" />
    <glyph glyph-name="uni0156" unicode="&#x156;" 
d="M1065 0h-944l241 1516h945zM485 1391l-202 -1266h661l201 1266h-660z" />
    <glyph glyph-name="uni0157" unicode="&#x157;" 
d="M1065 0h-944l241 1516h945zM485 1391l-202 -1266h661l201 1266h-660z" />
    <glyph glyph-name="Rcaron" unicode="&#x158;" 
d="M1065 0h-944l241 1516h945zM485 1391l-202 -1266h661l201 1266h-660z" />
    <glyph glyph-name="rcaron" unicode="&#x159;" 
d="M1065 0h-944l241 1516h945zM485 1391l-202 -1266h661l201 1266h-660z" />
    <glyph glyph-name="Sacute" unicode="&#x15a;" 
d="M1065 0h-944l241 1516h945zM485 1391l-202 -1266h661l201 1266h-660z" />
    <glyph glyph-name="sacute" unicode="&#x15b;" 
d="M1065 0h-944l241 1516h945zM485 1391l-202 -1266h661l201 1266h-660z" />
    <glyph glyph-name="Scircumflex" unicode="&#x15c;" 
d="M1065 0h-944l241 1516h945zM485 1391l-202 -1266h661l201 1266h-660z" />
    <glyph glyph-name="scircumflex" unicode="&#x15d;" 
d="M1065 0h-944l241 1516h945zM485 1391l-202 -1266h661l201 1266h-660z" />
    <glyph glyph-name="Scedilla" unicode="&#x15e;" 
d="M1065 0h-944l241 1516h945zM485 1391l-202 -1266h661l201 1266h-660z" />
    <glyph glyph-name="scedilla" unicode="&#x15f;" 
d="M1065 0h-944l241 1516h945zM485 1391l-202 -1266h661l201 1266h-660z" />
    <glyph glyph-name="Scaron" unicode="&#x160;" 
d="M1065 0h-944l241 1516h945zM485 1391l-202 -1266h661l201 1266h-660z" />
    <glyph glyph-name="scaron" unicode="&#x161;" 
d="M1065 0h-944l241 1516h945zM485 1391l-202 -1266h661l201 1266h-660z" />
    <glyph glyph-name="uni0162" unicode="&#x162;" 
d="M1065 0h-944l241 1516h945zM485 1391l-202 -1266h661l201 1266h-660z" />
    <glyph glyph-name="uni0163" unicode="&#x163;" 
d="M1065 0h-944l241 1516h945zM485 1391l-202 -1266h661l201 1266h-660z" />
    <glyph glyph-name="Tcaron" unicode="&#x164;" 
d="M1065 0h-944l241 1516h945zM485 1391l-202 -1266h661l201 1266h-660z" />
    <glyph glyph-name="tcaron" unicode="&#x165;" 
d="M1065 0h-944l241 1516h945zM485 1391l-202 -1266h661l201 1266h-660z" />
    <glyph glyph-name="Tbar" unicode="&#x166;" 
d="M1065 0h-944l241 1516h945zM485 1391l-202 -1266h661l201 1266h-660z" />
    <glyph glyph-name="tbar" unicode="&#x167;" 
d="M1065 0h-944l241 1516h945zM485 1391l-202 -1266h661l201 1266h-660z" />
    <glyph glyph-name="Utilde" unicode="&#x168;" 
d="M1065 0h-944l241 1516h945zM485 1391l-202 -1266h661l201 1266h-660z" />
    <glyph glyph-name="utilde" unicode="&#x169;" 
d="M1065 0h-944l241 1516h945zM485 1391l-202 -1266h661l201 1266h-660z" />
    <glyph glyph-name="Umacron" unicode="&#x16a;" 
d="M1065 0h-944l241 1516h945zM485 1391l-202 -1266h661l201 1266h-660z" />
    <glyph glyph-name="umacron" unicode="&#x16b;" 
d="M1065 0h-944l241 1516h945zM485 1391l-202 -1266h661l201 1266h-660z" />
    <glyph glyph-name="Ubreve" unicode="&#x16c;" 
d="M1065 0h-944l241 1516h945zM485 1391l-202 -1266h661l201 1266h-660z" />
    <glyph glyph-name="ubreve" unicode="&#x16d;" 
d="M1065 0h-944l241 1516h945zM485 1391l-202 -1266h661l201 1266h-660z" />
    <glyph glyph-name="Uring" unicode="&#x16e;" 
d="M1065 0h-944l241 1516h945zM485 1391l-202 -1266h661l201 1266h-660z" />
    <glyph glyph-name="uring" unicode="&#x16f;" 
d="M1065 0h-944l241 1516h945zM485 1391l-202 -1266h661l201 1266h-660z" />
    <glyph glyph-name="Uhungarumlaut" unicode="&#x170;" 
d="M1065 0h-944l241 1516h945zM485 1391l-202 -1266h661l201 1266h-660z" />
    <glyph glyph-name="uhungarumlaut" unicode="&#x171;" 
d="M1065 0h-944l241 1516h945zM485 1391l-202 -1266h661l201 1266h-660z" />
    <glyph glyph-name="Uogonek" unicode="&#x172;" 
d="M1065 0h-944l241 1516h945zM485 1391l-202 -1266h661l201 1266h-660z" />
    <glyph glyph-name="uogonek" unicode="&#x173;" 
d="M1065 0h-944l241 1516h945zM485 1391l-202 -1266h661l201 1266h-660z" />
    <glyph glyph-name="Wcircumflex" unicode="&#x174;" 
d="M1065 0h-944l241 1516h945zM485 1391l-202 -1266h661l201 1266h-660z" />
    <glyph glyph-name="wcircumflex" unicode="&#x175;" 
d="M1065 0h-944l241 1516h945zM485 1391l-202 -1266h661l201 1266h-660z" />
    <glyph glyph-name="Ycircumflex" unicode="&#x176;" 
d="M1065 0h-944l241 1516h945zM485 1391l-202 -1266h661l201 1266h-660z" />
    <glyph glyph-name="ycircumflex" unicode="&#x177;" 
d="M1065 0h-944l241 1516h945zM485 1391l-202 -1266h661l201 1266h-660z" />
    <glyph glyph-name="Ydieresis" unicode="&#x178;" 
d="M1065 0h-944l241 1516h945zM485 1391l-202 -1266h661l201 1266h-660z" />
    <glyph glyph-name="Zacute" unicode="&#x179;" 
d="M1065 0h-944l241 1516h945zM485 1391l-202 -1266h661l201 1266h-660z" />
    <glyph glyph-name="zacute" unicode="&#x17a;" 
d="M1065 0h-944l241 1516h945zM485 1391l-202 -1266h661l201 1266h-660z" />
    <glyph glyph-name="Zdotaccent" unicode="&#x17b;" 
d="M1065 0h-944l241 1516h945zM485 1391l-202 -1266h661l201 1266h-660z" />
    <glyph glyph-name="zdotaccent" unicode="&#x17c;" 
d="M1065 0h-944l241 1516h945zM485 1391l-202 -1266h661l201 1266h-660z" />
    <glyph glyph-name="Zcaron" unicode="&#x17d;" 
d="M1065 0h-944l241 1516h945zM485 1391l-202 -1266h661l201 1266h-660z" />
    <glyph glyph-name="zcaron" unicode="&#x17e;" 
d="M1065 0h-944l241 1516h945zM485 1391l-202 -1266h661l201 1266h-660z" />
    <glyph glyph-name="florin" unicode="&#x192;" 
d="M1065 0h-944l241 1516h945zM485 1391l-202 -1266h661l201 1266h-660z" />
    <glyph glyph-name="uni01EA" unicode="&#x1ea;" 
d="M1065 0h-944l241 1516h945zM485 1391l-202 -1266h661l201 1266h-660z" />
    <glyph glyph-name="uni01EB" unicode="&#x1eb;" 
d="M1065 0h-944l241 1516h945zM485 1391l-202 -1266h661l201 1266h-660z" />
    <glyph glyph-name="Aringacute" unicode="&#x1fa;" 
d="M1065 0h-944l241 1516h945zM485 1391l-202 -1266h661l201 1266h-660z" />
    <glyph glyph-name="aringacute" unicode="&#x1fb;" 
d="M1065 0h-944l241 1516h945zM485 1391l-202 -1266h661l201 1266h-660z" />
    <glyph glyph-name="AEacute" unicode="&#x1fc;" 
d="M1065 0h-944l241 1516h945zM485 1391l-202 -1266h661l201 1266h-660z" />
    <glyph glyph-name="aeacute" unicode="&#x1fd;" 
d="M1065 0h-944l241 1516h945zM485 1391l-202 -1266h661l201 1266h-660z" />
    <glyph glyph-name="Oslashacute" unicode="&#x1fe;" 
d="M1065 0h-944l241 1516h945zM485 1391l-202 -1266h661l201 1266h-660z" />
    <glyph glyph-name="oslashacute" unicode="&#x1ff;" 
d="M1065 0h-944l241 1516h945zM485 1391l-202 -1266h661l201 1266h-660z" />
    <glyph glyph-name="uni0218" unicode="&#x218;" 
d="M1065 0h-944l241 1516h945zM485 1391l-202 -1266h661l201 1266h-660z" />
    <glyph glyph-name="uni0219" unicode="&#x219;" 
d="M1065 0h-944l241 1516h945zM485 1391l-202 -1266h661l201 1266h-660z" />
    <glyph glyph-name="uni021A" unicode="&#x21a;" 
d="M1065 0h-944l241 1516h945zM485 1391l-202 -1266h661l201 1266h-660z" />
    <glyph glyph-name="uni021B" unicode="&#x21b;" 
d="M1065 0h-944l241 1516h945zM485 1391l-202 -1266h661l201 1266h-660z" />
    <glyph glyph-name="uni0237" unicode="&#x237;" 
d="M1065 0h-944l241 1516h945zM485 1391l-202 -1266h661l201 1266h-660z" />
    <glyph glyph-name="circumflex" unicode="&#x2c6;" 
d="M1065 0h-944l241 1516h945zM485 1391l-202 -1266h661l201 1266h-660z" />
    <glyph glyph-name="caron" unicode="&#x2c7;" 
d="M1065 0h-944l241 1516h945zM485 1391l-202 -1266h661l201 1266h-660z" />
    <glyph glyph-name="breve" unicode="&#x2d8;" 
d="M1065 0h-944l241 1516h945zM485 1391l-202 -1266h661l201 1266h-660z" />
    <glyph glyph-name="dotaccent" unicode="&#x2d9;" 
d="M1065 0h-944l241 1516h945zM485 1391l-202 -1266h661l201 1266h-660z" />
    <glyph glyph-name="ring" unicode="&#x2da;" 
d="M1065 0h-944l241 1516h945zM485 1391l-202 -1266h661l201 1266h-660z" />
    <glyph glyph-name="ogonek" unicode="&#x2db;" 
d="M1065 0h-944l241 1516h945zM485 1391l-202 -1266h661l201 1266h-660z" />
    <glyph glyph-name="tilde" unicode="&#x2dc;" 
d="M1065 0h-944l241 1516h945zM485 1391l-202 -1266h661l201 1266h-660z" />
    <glyph glyph-name="hungarumlaut" unicode="&#x2dd;" 
d="M1065 0h-944l241 1516h945zM485 1391l-202 -1266h661l201 1266h-660z" />
    <glyph glyph-name="gravecomb" unicode="&#x300;" 
d="M1065 0h-944l241 1516h945zM485 1391l-202 -1266h661l201 1266h-660z" />
    <glyph glyph-name="acutecomb" unicode="&#x301;" 
d="M1065 0h-944l241 1516h945zM485 1391l-202 -1266h661l201 1266h-660z" />
    <glyph glyph-name="uni0302" unicode="&#x302;" 
d="M1065 0h-944l241 1516h945zM485 1391l-202 -1266h661l201 1266h-660z" />
    <glyph glyph-name="tildecomb" unicode="&#x303;" 
d="M1065 0h-944l241 1516h945zM485 1391l-202 -1266h661l201 1266h-660z" />
    <glyph glyph-name="uni0304" unicode="&#x304;" 
d="M1065 0h-944l241 1516h945zM485 1391l-202 -1266h661l201 1266h-660z" />
    <glyph glyph-name="uni0306" unicode="&#x306;" 
d="M1065 0h-944l241 1516h945zM485 1391l-202 -1266h661l201 1266h-660z" />
    <glyph glyph-name="uni0307" unicode="&#x307;" 
d="M1065 0h-944l241 1516h945zM485 1391l-202 -1266h661l201 1266h-660z" />
    <glyph glyph-name="uni0308" unicode="&#x308;" 
d="M1065 0h-944l241 1516h945zM485 1391l-202 -1266h661l201 1266h-660z" />
    <glyph glyph-name="uni030A" unicode="&#x30a;" 
d="M1065 0h-944l241 1516h945zM485 1391l-202 -1266h661l201 1266h-660z" />
    <glyph glyph-name="uni030B" unicode="&#x30b;" 
d="M1065 0h-944l241 1516h945zM485 1391l-202 -1266h661l201 1266h-660z" />
    <glyph glyph-name="uni030C" unicode="&#x30c;" 
d="M1065 0h-944l241 1516h945zM485 1391l-202 -1266h661l201 1266h-660z" />
    <glyph glyph-name="uni0312" unicode="&#x312;" 
d="M1065 0h-944l241 1516h945zM485 1391l-202 -1266h661l201 1266h-660z" />
    <glyph glyph-name="uni0326" unicode="&#x326;" 
d="M1065 0h-944l241 1516h945zM485 1391l-202 -1266h661l201 1266h-660z" />
    <glyph glyph-name="uni0327" unicode="&#x327;" 
d="M1065 0h-944l241 1516h945zM485 1391l-202 -1266h661l201 1266h-660z" />
    <glyph glyph-name="uni0328" unicode="&#x328;" 
d="M1065 0h-944l241 1516h945zM485 1391l-202 -1266h661l201 1266h-660z" />
    <glyph glyph-name="uni0394" unicode="&#x394;" 
d="M1065 0h-944l241 1516h945zM485 1391l-202 -1266h661l201 1266h-660z" />
    <glyph glyph-name="uni03A9" unicode="&#x3a9;" 
d="M1065 0h-944l241 1516h945zM485 1391l-202 -1266h661l201 1266h-660z" />
    <glyph glyph-name="uni03BC" unicode="&#x3bc;" 
d="M1065 0h-944l241 1516h945zM485 1391l-202 -1266h661l201 1266h-660z" />
    <glyph glyph-name="pi" unicode="&#x3c0;" 
d="M1065 0h-944l241 1516h945zM485 1391l-202 -1266h661l201 1266h-660z" />
    <glyph glyph-name="Wgrave" unicode="&#x1e80;" 
d="M1065 0h-944l241 1516h945zM485 1391l-202 -1266h661l201 1266h-660z" />
    <glyph glyph-name="wgrave" unicode="&#x1e81;" 
d="M1065 0h-944l241 1516h945zM485 1391l-202 -1266h661l201 1266h-660z" />
    <glyph glyph-name="Wacute" unicode="&#x1e82;" 
d="M1065 0h-944l241 1516h945zM485 1391l-202 -1266h661l201 1266h-660z" />
    <glyph glyph-name="wacute" unicode="&#x1e83;" 
d="M1065 0h-944l241 1516h945zM485 1391l-202 -1266h661l201 1266h-660z" />
    <glyph glyph-name="Wdieresis" unicode="&#x1e84;" 
d="M1065 0h-944l241 1516h945zM485 1391l-202 -1266h661l201 1266h-660z" />
    <glyph glyph-name="wdieresis" unicode="&#x1e85;" 
d="M1065 0h-944l241 1516h945zM485 1391l-202 -1266h661l201 1266h-660z" />
    <glyph glyph-name="uni1E9E" unicode="&#x1e9e;" 
d="M1065 0h-944l241 1516h945zM485 1391l-202 -1266h661l201 1266h-660z" />
    <glyph glyph-name="Ygrave" unicode="&#x1ef2;" 
d="M1065 0h-944l241 1516h945zM485 1391l-202 -1266h661l201 1266h-660z" />
    <glyph glyph-name="ygrave" unicode="&#x1ef3;" 
d="M1065 0h-944l241 1516h945zM485 1391l-202 -1266h661l201 1266h-660z" />
    <glyph glyph-name="uni2009" unicode="&#x2009;" 
d="M1065 0h-944l241 1516h945zM485 1391l-202 -1266h661l201 1266h-660z" />
    <glyph glyph-name="endash" unicode="&#x2013;" 
d="M1065 0h-944l241 1516h945zM485 1391l-202 -1266h661l201 1266h-660z" />
    <glyph glyph-name="emdash" unicode="&#x2014;" 
d="M1065 0h-944l241 1516h945zM485 1391l-202 -1266h661l201 1266h-660z" />
    <glyph glyph-name="quoteleft" unicode="&#x2018;" 
d="M1065 0h-944l241 1516h945zM485 1391l-202 -1266h661l201 1266h-660z" />
    <glyph glyph-name="quoteright" unicode="&#x2019;" 
d="M1065 0h-944l241 1516h945zM485 1391l-202 -1266h661l201 1266h-660z" />
    <glyph glyph-name="quotesinglbase" unicode="&#x201a;" 
d="M1065 0h-944l241 1516h945zM485 1391l-202 -1266h661l201 1266h-660z" />
    <glyph glyph-name="quotedblleft" unicode="&#x201c;" 
d="M1065 0h-944l241 1516h945zM485 1391l-202 -1266h661l201 1266h-660z" />
    <glyph glyph-name="quotedblright" unicode="&#x201d;" 
d="M1065 0h-944l241 1516h945zM485 1391l-202 -1266h661l201 1266h-660z" />
    <glyph glyph-name="quotedblbase" unicode="&#x201e;" 
d="M1065 0h-944l241 1516h945zM485 1391l-202 -1266h661l201 1266h-660z" />
    <glyph glyph-name="dagger" unicode="&#x2020;" 
d="M1065 0h-944l241 1516h945zM485 1391l-202 -1266h661l201 1266h-660z" />
    <glyph glyph-name="daggerdbl" unicode="&#x2021;" 
d="M1065 0h-944l241 1516h945zM485 1391l-202 -1266h661l201 1266h-660z" />
    <glyph glyph-name="bullet" unicode="&#x2022;" 
d="M1065 0h-944l241 1516h945zM485 1391l-202 -1266h661l201 1266h-660z" />
    <glyph glyph-name="ellipsis" unicode="&#x2026;" 
d="M1065 0h-944l241 1516h945zM485 1391l-202 -1266h661l201 1266h-660z" />
    <glyph glyph-name="perthousand" unicode="&#x2030;" 
d="M1065 0h-944l241 1516h945zM485 1391l-202 -1266h661l201 1266h-660z" />
    <glyph glyph-name="guilsinglleft" unicode="&#x2039;" 
d="M1065 0h-944l241 1516h945zM485 1391l-202 -1266h661l201 1266h-660z" />
    <glyph glyph-name="guilsinglright" unicode="&#x203a;" 
d="M1065 0h-944l241 1516h945zM485 1391l-202 -1266h661l201 1266h-660z" />
    <glyph glyph-name="fraction" unicode="&#x2044;" 
d="M1065 0h-944l241 1516h945zM485 1391l-202 -1266h661l201 1266h-660z" />
    <glyph glyph-name="uni2070" unicode="&#x2070;" 
d="M1065 0h-944l241 1516h945zM485 1391l-202 -1266h661l201 1266h-660z" />
    <glyph glyph-name="uni2074" unicode="&#x2074;" 
d="M1065 0h-944l241 1516h945zM485 1391l-202 -1266h661l201 1266h-660z" />
    <glyph glyph-name="uni2075" unicode="&#x2075;" 
d="M1065 0h-944l241 1516h945zM485 1391l-202 -1266h661l201 1266h-660z" />
    <glyph glyph-name="uni2076" unicode="&#x2076;" 
d="M1065 0h-944l241 1516h945zM485 1391l-202 -1266h661l201 1266h-660z" />
    <glyph glyph-name="uni2077" unicode="&#x2077;" 
d="M1065 0h-944l241 1516h945zM485 1391l-202 -1266h661l201 1266h-660z" />
    <glyph glyph-name="uni2078" unicode="&#x2078;" 
d="M1065 0h-944l241 1516h945zM485 1391l-202 -1266h661l201 1266h-660z" />
    <glyph glyph-name="uni2079" unicode="&#x2079;" 
d="M1065 0h-944l241 1516h945zM485 1391l-202 -1266h661l201 1266h-660z" />
    <glyph glyph-name="uni207A" unicode="&#x207a;" 
d="M1065 0h-944l241 1516h945zM485 1391l-202 -1266h661l201 1266h-660z" />
    <glyph glyph-name="uni207B" unicode="&#x207b;" 
d="M1065 0h-944l241 1516h945zM485 1391l-202 -1266h661l201 1266h-660z" />
    <glyph glyph-name="uni207C" unicode="&#x207c;" 
d="M1065 0h-944l241 1516h945zM485 1391l-202 -1266h661l201 1266h-660z" />
    <glyph glyph-name="uni2080" unicode="&#x2080;" 
d="M1065 0h-944l241 1516h945zM485 1391l-202 -1266h661l201 1266h-660z" />
    <glyph glyph-name="uni2081" unicode="&#x2081;" 
d="M1065 0h-944l241 1516h945zM485 1391l-202 -1266h661l201 1266h-660z" />
    <glyph glyph-name="uni2082" unicode="&#x2082;" 
d="M1065 0h-944l241 1516h945zM485 1391l-202 -1266h661l201 1266h-660z" />
    <glyph glyph-name="uni2083" unicode="&#x2083;" 
d="M1065 0h-944l241 1516h945zM485 1391l-202 -1266h661l201 1266h-660z" />
    <glyph glyph-name="uni2084" unicode="&#x2084;" 
d="M1065 0h-944l241 1516h945zM485 1391l-202 -1266h661l201 1266h-660z" />
    <glyph glyph-name="uni2085" unicode="&#x2085;" 
d="M1065 0h-944l241 1516h945zM485 1391l-202 -1266h661l201 1266h-660z" />
    <glyph glyph-name="uni2086" unicode="&#x2086;" 
d="M1065 0h-944l241 1516h945zM485 1391l-202 -1266h661l201 1266h-660z" />
    <glyph glyph-name="uni2087" unicode="&#x2087;" 
d="M1065 0h-944l241 1516h945zM485 1391l-202 -1266h661l201 1266h-660z" />
    <glyph glyph-name="uni2088" unicode="&#x2088;" 
d="M1065 0h-944l241 1516h945zM485 1391l-202 -1266h661l201 1266h-660z" />
    <glyph glyph-name="uni2089" unicode="&#x2089;" 
d="M1065 0h-944l241 1516h945zM485 1391l-202 -1266h661l201 1266h-660z" />
    <glyph glyph-name="uni208A" unicode="&#x208a;" 
d="M1065 0h-944l241 1516h945zM485 1391l-202 -1266h661l201 1266h-660z" />
    <glyph glyph-name="uni208B" unicode="&#x208b;" 
d="M1065 0h-944l241 1516h945zM485 1391l-202 -1266h661l201 1266h-660z" />
    <glyph glyph-name="uni208C" unicode="&#x208c;" 
d="M1065 0h-944l241 1516h945zM485 1391l-202 -1266h661l201 1266h-660z" />
    <glyph glyph-name="Euro" unicode="&#x20ac;" 
d="M1065 0h-944l241 1516h945zM485 1391l-202 -1266h661l201 1266h-660z" />
    <glyph glyph-name="uni20B9" unicode="&#x20b9;" 
d="M1065 0h-944l241 1516h945zM485 1391l-202 -1266h661l201 1266h-660z" />
    <glyph glyph-name="uni20BA" unicode="&#x20ba;" 
d="M1065 0h-944l241 1516h945zM485 1391l-202 -1266h661l201 1266h-660z" />
    <glyph glyph-name="uni20BF" unicode="&#x20bf;" 
d="M1065 0h-944l241 1516h945zM485 1391l-202 -1266h661l201 1266h-660z" />
    <glyph glyph-name="uni2113" unicode="&#x2113;" 
d="M1065 0h-944l241 1516h945zM485 1391l-202 -1266h661l201 1266h-660z" />
    <glyph glyph-name="uni2116" unicode="&#x2116;" 
d="M1065 0h-944l241 1516h945zM485 1391l-202 -1266h661l201 1266h-660z" />
    <glyph glyph-name="uni2117" unicode="&#x2117;" 
d="M1065 0h-944l241 1516h945zM485 1391l-202 -1266h661l201 1266h-660z" />
    <glyph glyph-name="uni2120" unicode="&#x2120;" 
d="M1065 0h-944l241 1516h945zM485 1391l-202 -1266h661l201 1266h-660z" />
    <glyph glyph-name="trademark" unicode="&#x2122;" 
d="M1065 0h-944l241 1516h945zM485 1391l-202 -1266h661l201 1266h-660z" />
    <glyph glyph-name="estimated" unicode="&#x212e;" 
d="M1065 0h-944l241 1516h945zM485 1391l-202 -1266h661l201 1266h-660z" />
    <glyph glyph-name="uni2150" unicode="&#x2150;" 
d="M1065 0h-944l241 1516h945zM485 1391l-202 -1266h661l201 1266h-660z" />
    <glyph glyph-name="uni2151" unicode="&#x2151;" 
d="M1065 0h-944l241 1516h945zM485 1391l-202 -1266h661l201 1266h-660z" />
    <glyph glyph-name="uni2153" unicode="&#x2153;" 
d="M1065 0h-944l241 1516h945zM485 1391l-202 -1266h661l201 1266h-660z" />
    <glyph glyph-name="uni2154" unicode="&#x2154;" 
d="M1065 0h-944l241 1516h945zM485 1391l-202 -1266h661l201 1266h-660z" />
    <glyph glyph-name="uni2155" unicode="&#x2155;" 
d="M1065 0h-944l241 1516h945zM485 1391l-202 -1266h661l201 1266h-660z" />
    <glyph glyph-name="uni2156" unicode="&#x2156;" 
d="M1065 0h-944l241 1516h945zM485 1391l-202 -1266h661l201 1266h-660z" />
    <glyph glyph-name="uni2157" unicode="&#x2157;" 
d="M1065 0h-944l241 1516h945zM485 1391l-202 -1266h661l201 1266h-660z" />
    <glyph glyph-name="uni2158" unicode="&#x2158;" 
d="M1065 0h-944l241 1516h945zM485 1391l-202 -1266h661l201 1266h-660z" />
    <glyph glyph-name="uni2159" unicode="&#x2159;" 
d="M1065 0h-944l241 1516h945zM485 1391l-202 -1266h661l201 1266h-660z" />
    <glyph glyph-name="oneeighth" unicode="&#x215b;" 
d="M1065 0h-944l241 1516h945zM485 1391l-202 -1266h661l201 1266h-660z" />
    <glyph glyph-name="threeeighths" unicode="&#x215c;" 
d="M1065 0h-944l241 1516h945zM485 1391l-202 -1266h661l201 1266h-660z" />
    <glyph glyph-name="fiveeighths" unicode="&#x215d;" 
d="M1065 0h-944l241 1516h945zM485 1391l-202 -1266h661l201 1266h-660z" />
    <glyph glyph-name="seveneighths" unicode="&#x215e;" 
d="M1065 0h-944l241 1516h945zM485 1391l-202 -1266h661l201 1266h-660z" />
    <glyph glyph-name="arrowleft" unicode="&#x2190;" 
d="M1065 0h-944l241 1516h945zM485 1391l-202 -1266h661l201 1266h-660z" />
    <glyph glyph-name="arrowup" unicode="&#x2191;" 
d="M1065 0h-944l241 1516h945zM485 1391l-202 -1266h661l201 1266h-660z" />
    <glyph glyph-name="arrowright" unicode="&#x2192;" 
d="M1065 0h-944l241 1516h945zM485 1391l-202 -1266h661l201 1266h-660z" />
    <glyph glyph-name="arrowdown" unicode="&#x2193;" 
d="M1065 0h-944l241 1516h945zM485 1391l-202 -1266h661l201 1266h-660z" />
    <glyph glyph-name="arrowboth" unicode="&#x2194;" 
d="M1065 0h-944l241 1516h945zM485 1391l-202 -1266h661l201 1266h-660z" />
    <glyph glyph-name="arrowupdn" unicode="&#x2195;" 
d="M1065 0h-944l241 1516h945zM485 1391l-202 -1266h661l201 1266h-660z" />
    <glyph glyph-name="uni2196" unicode="&#x2196;" 
d="M1065 0h-944l241 1516h945zM485 1391l-202 -1266h661l201 1266h-660z" />
    <glyph glyph-name="uni2197" unicode="&#x2197;" 
d="M1065 0h-944l241 1516h945zM485 1391l-202 -1266h661l201 1266h-660z" />
    <glyph glyph-name="uni2198" unicode="&#x2198;" 
d="M1065 0h-944l241 1516h945zM485 1391l-202 -1266h661l201 1266h-660z" />
    <glyph glyph-name="uni2199" unicode="&#x2199;" 
d="M1065 0h-944l241 1516h945zM485 1391l-202 -1266h661l201 1266h-660z" />
    <glyph glyph-name="partialdiff" unicode="&#x2202;" 
d="M1065 0h-944l241 1516h945zM485 1391l-202 -1266h661l201 1266h-660z" />
    <glyph glyph-name="product" unicode="&#x220f;" 
d="M1065 0h-944l241 1516h945zM485 1391l-202 -1266h661l201 1266h-660z" />
    <glyph glyph-name="summation" unicode="&#x2211;" 
d="M1065 0h-944l241 1516h945zM485 1391l-202 -1266h661l201 1266h-660z" />
    <glyph glyph-name="minus" unicode="&#x2212;" 
d="M1065 0h-944l241 1516h945zM485 1391l-202 -1266h661l201 1266h-660z" />
    <glyph glyph-name="radical" unicode="&#x221a;" 
d="M1065 0h-944l241 1516h945zM485 1391l-202 -1266h661l201 1266h-660z" />
    <glyph glyph-name="infinity" unicode="&#x221e;" 
d="M1065 0h-944l241 1516h945zM485 1391l-202 -1266h661l201 1266h-660z" />
    <glyph glyph-name="integral" unicode="&#x222b;" 
d="M1065 0h-944l241 1516h945zM485 1391l-202 -1266h661l201 1266h-660z" />
    <glyph glyph-name="approxequal" unicode="&#x2248;" 
d="M1065 0h-944l241 1516h945zM485 1391l-202 -1266h661l201 1266h-660z" />
    <glyph glyph-name="notequal" unicode="&#x2260;" 
d="M1065 0h-944l241 1516h945zM485 1391l-202 -1266h661l201 1266h-660z" />
    <glyph glyph-name="lessequal" unicode="&#x2264;" 
d="M1065 0h-944l241 1516h945zM485 1391l-202 -1266h661l201 1266h-660z" />
    <glyph glyph-name="greaterequal" unicode="&#x2265;" 
d="M1065 0h-944l241 1516h945zM485 1391l-202 -1266h661l201 1266h-660z" />
    <glyph glyph-name="uni22A0" unicode="&#x22a0;" 
d="M1065 0h-944l241 1516h945zM485 1391l-202 -1266h661l201 1266h-660z" />
    <glyph glyph-name="house" unicode="&#x2302;" 
d="M1065 0h-944l241 1516h945zM485 1391l-202 -1266h661l201 1266h-660z" />
    <glyph glyph-name="uni2460" unicode="&#x2460;" 
d="M1065 0h-944l241 1516h945zM485 1391l-202 -1266h661l201 1266h-660z" />
    <glyph glyph-name="uni2461" unicode="&#x2461;" 
d="M1065 0h-944l241 1516h945zM485 1391l-202 -1266h661l201 1266h-660z" />
    <glyph glyph-name="uni2462" unicode="&#x2462;" 
d="M1065 0h-944l241 1516h945zM485 1391l-202 -1266h661l201 1266h-660z" />
    <glyph glyph-name="uni2463" unicode="&#x2463;" 
d="M1065 0h-944l241 1516h945zM485 1391l-202 -1266h661l201 1266h-660z" />
    <glyph glyph-name="uni2464" unicode="&#x2464;" 
d="M1065 0h-944l241 1516h945zM485 1391l-202 -1266h661l201 1266h-660z" />
    <glyph glyph-name="uni2465" unicode="&#x2465;" 
d="M1065 0h-944l241 1516h945zM485 1391l-202 -1266h661l201 1266h-660z" />
    <glyph glyph-name="uni2466" unicode="&#x2466;" 
d="M1065 0h-944l241 1516h945zM485 1391l-202 -1266h661l201 1266h-660z" />
    <glyph glyph-name="uni2467" unicode="&#x2467;" 
d="M1065 0h-944l241 1516h945zM485 1391l-202 -1266h661l201 1266h-660z" />
    <glyph glyph-name="uni2468" unicode="&#x2468;" 
d="M1065 0h-944l241 1516h945zM485 1391l-202 -1266h661l201 1266h-660z" />
    <glyph glyph-name="uni24EA" unicode="&#x24ea;" 
d="M1065 0h-944l241 1516h945zM485 1391l-202 -1266h661l201 1266h-660z" />
    <glyph glyph-name="uni24FF" unicode="&#x24ff;" 
d="M1065 0h-944l241 1516h945zM485 1391l-202 -1266h661l201 1266h-660z" />
    <glyph glyph-name="filledbox" unicode="&#x25a0;" 
d="M1065 0h-944l241 1516h945zM485 1391l-202 -1266h661l201 1266h-660z" />
    <glyph glyph-name="uni25A1" unicode="&#x25a1;" 
d="M1065 0h-944l241 1516h945zM485 1391l-202 -1266h661l201 1266h-660z" />
    <glyph glyph-name="uni25AA" unicode="&#x25aa;" 
d="M1065 0h-944l241 1516h945zM485 1391l-202 -1266h661l201 1266h-660z" />
    <glyph glyph-name="uni25AB" unicode="&#x25ab;" 
d="M1065 0h-944l241 1516h945zM485 1391l-202 -1266h661l201 1266h-660z" />
    <glyph glyph-name="triagup" unicode="&#x25b2;" 
d="M1065 0h-944l241 1516h945zM485 1391l-202 -1266h661l201 1266h-660z" />
    <glyph glyph-name="triagrt" unicode="&#x25ba;" 
d="M1065 0h-944l241 1516h945zM485 1391l-202 -1266h661l201 1266h-660z" />
    <glyph glyph-name="triagdn" unicode="&#x25bc;" 
d="M1065 0h-944l241 1516h945zM485 1391l-202 -1266h661l201 1266h-660z" />
    <glyph glyph-name="triaglf" unicode="&#x25c4;" 
d="M1065 0h-944l241 1516h945zM485 1391l-202 -1266h661l201 1266h-660z" />
    <glyph glyph-name="lozenge" unicode="&#x25ca;" 
d="M1065 0h-944l241 1516h945zM485 1391l-202 -1266h661l201 1266h-660z" />
    <glyph glyph-name="circle" unicode="&#x25cb;" 
d="M1065 0h-944l241 1516h945zM485 1391l-202 -1266h661l201 1266h-660z" />
    <glyph glyph-name="uni25CF" unicode="&#x25cf;" 
d="M1065 0h-944l241 1516h945zM485 1391l-202 -1266h661l201 1266h-660z" />
    <glyph glyph-name="uni2612" unicode="&#x2612;" 
d="M1065 0h-944l241 1516h945zM485 1391l-202 -1266h661l201 1266h-660z" />
    <glyph glyph-name="uni26AB" unicode="&#x26ab;" 
d="M1065 0h-944l241 1516h945zM485 1391l-202 -1266h661l201 1266h-660z" />
    <glyph glyph-name="uni26AC" unicode="&#x26ac;" 
d="M1065 0h-944l241 1516h945zM485 1391l-202 -1266h661l201 1266h-660z" />
    <glyph glyph-name="uni2776" unicode="&#x2776;" 
d="M1065 0h-944l241 1516h945zM485 1391l-202 -1266h661l201 1266h-660z" />
    <glyph glyph-name="uni2777" unicode="&#x2777;" 
d="M1065 0h-944l241 1516h945zM485 1391l-202 -1266h661l201 1266h-660z" />
    <glyph glyph-name="uni2778" unicode="&#x2778;" 
d="M1065 0h-944l241 1516h945zM485 1391l-202 -1266h661l201 1266h-660z" />
    <glyph glyph-name="uni2779" unicode="&#x2779;" 
d="M1065 0h-944l241 1516h945zM485 1391l-202 -1266h661l201 1266h-660z" />
    <glyph glyph-name="uni277A" unicode="&#x277a;" 
d="M1065 0h-944l241 1516h945zM485 1391l-202 -1266h661l201 1266h-660z" />
    <glyph glyph-name="uni277B" unicode="&#x277b;" 
d="M1065 0h-944l241 1516h945zM485 1391l-202 -1266h661l201 1266h-660z" />
    <glyph glyph-name="uni277C" unicode="&#x277c;" 
d="M1065 0h-944l241 1516h945zM485 1391l-202 -1266h661l201 1266h-660z" />
    <glyph glyph-name="uni277D" unicode="&#x277d;" 
d="M1065 0h-944l241 1516h945zM485 1391l-202 -1266h661l201 1266h-660z" />
    <glyph glyph-name="uni277E" unicode="&#x277e;" 
d="M1065 0h-944l241 1516h945zM485 1391l-202 -1266h661l201 1266h-660z" />
    <glyph glyph-name="fi" unicode="&#xfb01;" 
d="M1065 0h-944l241 1516h945zM485 1391l-202 -1266h661l201 1266h-660z" />
    <glyph glyph-name="fl" unicode="&#xfb02;" 
d="M1065 0h-944l241 1516h945zM485 1391l-202 -1266h661l201 1266h-660z" />
    <glyph glyph-name="Iacute_J.loclNLD" 
d="M1065 0h-944l241 1516h945zM485 1391l-202 -1266h661l201 1266h-660z" />
    <glyph glyph-name="iacute_j.loclNLD" 
d="M1065 0h-944l241 1516h945zM485 1391l-202 -1266h661l201 1266h-660z" />
    <glyph glyph-name="a.ss01" 
d="M1065 0h-944l241 1516h945zM485 1391l-202 -1266h661l201 1266h-660z" />
    <glyph glyph-name="aacute.ss01" 
d="M1065 0h-944l241 1516h945zM485 1391l-202 -1266h661l201 1266h-660z" />
    <glyph glyph-name="abreve.ss01" 
d="M1065 0h-944l241 1516h945zM485 1391l-202 -1266h661l201 1266h-660z" />
    <glyph glyph-name="acircumflex.ss01" 
d="M1065 0h-944l241 1516h945zM485 1391l-202 -1266h661l201 1266h-660z" />
    <glyph glyph-name="adieresis.ss01" 
d="M1065 0h-944l241 1516h945zM485 1391l-202 -1266h661l201 1266h-660z" />
    <glyph glyph-name="agrave.ss01" 
d="M1065 0h-944l241 1516h945zM485 1391l-202 -1266h661l201 1266h-660z" />
    <glyph glyph-name="amacron.ss01" 
d="M1065 0h-944l241 1516h945zM485 1391l-202 -1266h661l201 1266h-660z" />
    <glyph glyph-name="aogonek.ss01" 
d="M1065 0h-944l241 1516h945zM485 1391l-202 -1266h661l201 1266h-660z" />
    <glyph glyph-name="aring.ss01" 
d="M1065 0h-944l241 1516h945zM485 1391l-202 -1266h661l201 1266h-660z" />
    <glyph glyph-name="aringacute.ss01" 
d="M1065 0h-944l241 1516h945zM485 1391l-202 -1266h661l201 1266h-660z" />
    <glyph glyph-name="atilde.ss01" 
d="M1065 0h-944l241 1516h945zM485 1391l-202 -1266h661l201 1266h-660z" />
    <glyph glyph-name="ae.ss01" 
d="M1065 0h-944l241 1516h945zM485 1391l-202 -1266h661l201 1266h-660z" />
    <glyph glyph-name="aeacute.ss01" 
d="M1065 0h-944l241 1516h945zM485 1391l-202 -1266h661l201 1266h-660z" />
    <glyph glyph-name="f_b.liga" 
d="M1065 0h-944l241 1516h945zM485 1391l-202 -1266h661l201 1266h-660z" />
    <glyph glyph-name="f_f.liga" 
d="M1065 0h-944l241 1516h945zM485 1391l-202 -1266h661l201 1266h-660z" />
    <glyph glyph-name="f_f_b.liga" 
d="M1065 0h-944l241 1516h945zM485 1391l-202 -1266h661l201 1266h-660z" />
    <glyph glyph-name="f_f_h.liga" 
d="M1065 0h-944l241 1516h945zM485 1391l-202 -1266h661l201 1266h-660z" />
    <glyph glyph-name="f_f_i.liga" 
d="M1065 0h-944l241 1516h945zM485 1391l-202 -1266h661l201 1266h-660z" />
    <glyph glyph-name="f_f_j.liga" 
d="M1065 0h-944l241 1516h945zM485 1391l-202 -1266h661l201 1266h-660z" />
    <glyph glyph-name="f_f_k.liga" 
d="M1065 0h-944l241 1516h945zM485 1391l-202 -1266h661l201 1266h-660z" />
    <glyph glyph-name="f_f_l.liga" 
d="M1065 0h-944l241 1516h945zM485 1391l-202 -1266h661l201 1266h-660z" />
    <glyph glyph-name="f_h.liga" 
d="M1065 0h-944l241 1516h945zM485 1391l-202 -1266h661l201 1266h-660z" />
    <glyph glyph-name="f_idieresis.liga" 
d="M1065 0h-944l241 1516h945zM485 1391l-202 -1266h661l201 1266h-660z" />
    <glyph glyph-name="f_j.liga" 
d="M1065 0h-944l241 1516h945zM485 1391l-202 -1266h661l201 1266h-660z" />
    <glyph glyph-name="f_k.liga" 
d="M1065 0h-944l241 1516h945zM485 1391l-202 -1266h661l201 1266h-660z" />
    <glyph glyph-name="a.sc" 
d="M1065 0h-944l241 1516h945zM485 1391l-202 -1266h661l201 1266h-660z" />
    <glyph glyph-name="aacute.sc" 
d="M1065 0h-944l241 1516h945zM485 1391l-202 -1266h661l201 1266h-660z" />
    <glyph glyph-name="abreve.sc" 
d="M1065 0h-944l241 1516h945zM485 1391l-202 -1266h661l201 1266h-660z" />
    <glyph glyph-name="acircumflex.sc" 
d="M1065 0h-944l241 1516h945zM485 1391l-202 -1266h661l201 1266h-660z" />
    <glyph glyph-name="adieresis.sc" 
d="M1065 0h-944l241 1516h945zM485 1391l-202 -1266h661l201 1266h-660z" />
    <glyph glyph-name="agrave.sc" 
d="M1065 0h-944l241 1516h945zM485 1391l-202 -1266h661l201 1266h-660z" />
    <glyph glyph-name="amacron.sc" 
d="M1065 0h-944l241 1516h945zM485 1391l-202 -1266h661l201 1266h-660z" />
    <glyph glyph-name="aogonek.sc" 
d="M1065 0h-944l241 1516h945zM485 1391l-202 -1266h661l201 1266h-660z" />
    <glyph glyph-name="aring.sc" 
d="M1065 0h-944l241 1516h945zM485 1391l-202 -1266h661l201 1266h-660z" />
    <glyph glyph-name="aringacute.sc" 
d="M1065 0h-944l241 1516h945zM485 1391l-202 -1266h661l201 1266h-660z" />
    <glyph glyph-name="atilde.sc" 
d="M1065 0h-944l241 1516h945zM485 1391l-202 -1266h661l201 1266h-660z" />
    <glyph glyph-name="ae.sc" 
d="M1065 0h-944l241 1516h945zM485 1391l-202 -1266h661l201 1266h-660z" />
    <glyph glyph-name="aeacute.sc" 
d="M1065 0h-944l241 1516h945zM485 1391l-202 -1266h661l201 1266h-660z" />
    <glyph glyph-name="b.sc" 
d="M1065 0h-944l241 1516h945zM485 1391l-202 -1266h661l201 1266h-660z" />
    <glyph glyph-name="c.sc" 
d="M1065 0h-944l241 1516h945zM485 1391l-202 -1266h661l201 1266h-660z" />
    <glyph glyph-name="cacute.sc" 
d="M1065 0h-944l241 1516h945zM485 1391l-202 -1266h661l201 1266h-660z" />
    <glyph glyph-name="ccaron.sc" 
d="M1065 0h-944l241 1516h945zM485 1391l-202 -1266h661l201 1266h-660z" />
    <glyph glyph-name="ccedilla.sc" 
d="M1065 0h-944l241 1516h945zM485 1391l-202 -1266h661l201 1266h-660z" />
    <glyph glyph-name="ccircumflex.sc" 
d="M1065 0h-944l241 1516h945zM485 1391l-202 -1266h661l201 1266h-660z" />
    <glyph glyph-name="cdotaccent.sc" 
d="M1065 0h-944l241 1516h945zM485 1391l-202 -1266h661l201 1266h-660z" />
    <glyph glyph-name="d.sc" 
d="M1065 0h-944l241 1516h945zM485 1391l-202 -1266h661l201 1266h-660z" />
    <glyph glyph-name="eth.sc" 
d="M1065 0h-944l241 1516h945zM485 1391l-202 -1266h661l201 1266h-660z" />
    <glyph glyph-name="dcaron.sc" 
d="M1065 0h-944l241 1516h945zM485 1391l-202 -1266h661l201 1266h-660z" />
    <glyph glyph-name="dcroat.sc" 
d="M1065 0h-944l241 1516h945zM485 1391l-202 -1266h661l201 1266h-660z" />
    <glyph glyph-name="e.sc" 
d="M1065 0h-944l241 1516h945zM485 1391l-202 -1266h661l201 1266h-660z" />
    <glyph glyph-name="eacute.sc" 
d="M1065 0h-944l241 1516h945zM485 1391l-202 -1266h661l201 1266h-660z" />
    <glyph glyph-name="ebreve.sc" 
d="M1065 0h-944l241 1516h945zM485 1391l-202 -1266h661l201 1266h-660z" />
    <glyph glyph-name="ecaron.sc" 
d="M1065 0h-944l241 1516h945zM485 1391l-202 -1266h661l201 1266h-660z" />
    <glyph glyph-name="ecircumflex.sc" 
d="M1065 0h-944l241 1516h945zM485 1391l-202 -1266h661l201 1266h-660z" />
    <glyph glyph-name="edieresis.sc" 
d="M1065 0h-944l241 1516h945zM485 1391l-202 -1266h661l201 1266h-660z" />
    <glyph glyph-name="edotaccent.sc" 
d="M1065 0h-944l241 1516h945zM485 1391l-202 -1266h661l201 1266h-660z" />
    <glyph glyph-name="egrave.sc" 
d="M1065 0h-944l241 1516h945zM485 1391l-202 -1266h661l201 1266h-660z" />
    <glyph glyph-name="emacron.sc" 
d="M1065 0h-944l241 1516h945zM485 1391l-202 -1266h661l201 1266h-660z" />
    <glyph glyph-name="eogonek.sc" 
d="M1065 0h-944l241 1516h945zM485 1391l-202 -1266h661l201 1266h-660z" />
    <glyph glyph-name="f.sc" 
d="M1065 0h-944l241 1516h945zM485 1391l-202 -1266h661l201 1266h-660z" />
    <glyph glyph-name="g.sc" 
d="M1065 0h-944l241 1516h945zM485 1391l-202 -1266h661l201 1266h-660z" />
    <glyph glyph-name="gbreve.sc" 
d="M1065 0h-944l241 1516h945zM485 1391l-202 -1266h661l201 1266h-660z" />
    <glyph glyph-name="gcircumflex.sc" 
d="M1065 0h-944l241 1516h945zM485 1391l-202 -1266h661l201 1266h-660z" />
    <glyph glyph-name="uni0123.sc" 
d="M1065 0h-944l241 1516h945zM485 1391l-202 -1266h661l201 1266h-660z" />
    <glyph glyph-name="gdotaccent.sc" 
d="M1065 0h-944l241 1516h945zM485 1391l-202 -1266h661l201 1266h-660z" />
    <glyph glyph-name="h.sc" 
d="M1065 0h-944l241 1516h945zM485 1391l-202 -1266h661l201 1266h-660z" />
    <glyph glyph-name="hbar.sc" 
d="M1065 0h-944l241 1516h945zM485 1391l-202 -1266h661l201 1266h-660z" />
    <glyph glyph-name="hcircumflex.sc" 
d="M1065 0h-944l241 1516h945zM485 1391l-202 -1266h661l201 1266h-660z" />
    <glyph glyph-name="i.sc" 
d="M1065 0h-944l241 1516h945zM485 1391l-202 -1266h661l201 1266h-660z" />
    <glyph glyph-name="iacute.sc" 
d="M1065 0h-944l241 1516h945zM485 1391l-202 -1266h661l201 1266h-660z" />
    <glyph glyph-name="iacute_j.loclNLD.sc" 
d="M1065 0h-944l241 1516h945zM485 1391l-202 -1266h661l201 1266h-660z" />
    <glyph glyph-name="ibreve.sc" 
d="M1065 0h-944l241 1516h945zM485 1391l-202 -1266h661l201 1266h-660z" />
    <glyph glyph-name="icircumflex.sc" 
d="M1065 0h-944l241 1516h945zM485 1391l-202 -1266h661l201 1266h-660z" />
    <glyph glyph-name="idieresis.sc" 
d="M1065 0h-944l241 1516h945zM485 1391l-202 -1266h661l201 1266h-660z" />
    <glyph glyph-name="i.sc.loclTRK" 
d="M1065 0h-944l241 1516h945zM485 1391l-202 -1266h661l201 1266h-660z" />
    <glyph glyph-name="igrave.sc" 
d="M1065 0h-944l241 1516h945zM485 1391l-202 -1266h661l201 1266h-660z" />
    <glyph glyph-name="ij.sc" 
d="M1065 0h-944l241 1516h945zM485 1391l-202 -1266h661l201 1266h-660z" />
    <glyph glyph-name="imacron.sc" 
d="M1065 0h-944l241 1516h945zM485 1391l-202 -1266h661l201 1266h-660z" />
    <glyph glyph-name="iogonek.sc" 
d="M1065 0h-944l241 1516h945zM485 1391l-202 -1266h661l201 1266h-660z" />
    <glyph glyph-name="itilde.sc" 
d="M1065 0h-944l241 1516h945zM485 1391l-202 -1266h661l201 1266h-660z" />
    <glyph glyph-name="j.sc" 
d="M1065 0h-944l241 1516h945zM485 1391l-202 -1266h661l201 1266h-660z" />
    <glyph glyph-name="jcircumflex.sc" 
d="M1065 0h-944l241 1516h945zM485 1391l-202 -1266h661l201 1266h-660z" />
    <glyph glyph-name="k.sc" 
d="M1065 0h-944l241 1516h945zM485 1391l-202 -1266h661l201 1266h-660z" />
    <glyph glyph-name="uni0137.sc" 
d="M1065 0h-944l241 1516h945zM485 1391l-202 -1266h661l201 1266h-660z" />
    <glyph glyph-name="l.sc" 
d="M1065 0h-944l241 1516h945zM485 1391l-202 -1266h661l201 1266h-660z" />
    <glyph glyph-name="lacute.sc" 
d="M1065 0h-944l241 1516h945zM485 1391l-202 -1266h661l201 1266h-660z" />
    <glyph glyph-name="lcaron.sc" 
d="M1065 0h-944l241 1516h945zM485 1391l-202 -1266h661l201 1266h-660z" />
    <glyph glyph-name="uni013C.sc" 
d="M1065 0h-944l241 1516h945zM485 1391l-202 -1266h661l201 1266h-660z" />
    <glyph glyph-name="ldot.sc" 
d="M1065 0h-944l241 1516h945zM485 1391l-202 -1266h661l201 1266h-660z" />
    <glyph glyph-name="lslash.sc" 
d="M1065 0h-944l241 1516h945zM485 1391l-202 -1266h661l201 1266h-660z" />
    <glyph glyph-name="m.sc" 
d="M1065 0h-944l241 1516h945zM485 1391l-202 -1266h661l201 1266h-660z" />
    <glyph glyph-name="n.sc" 
d="M1065 0h-944l241 1516h945zM485 1391l-202 -1266h661l201 1266h-660z" />
    <glyph glyph-name="nacute.sc" 
d="M1065 0h-944l241 1516h945zM485 1391l-202 -1266h661l201 1266h-660z" />
    <glyph glyph-name="ncaron.sc" 
d="M1065 0h-944l241 1516h945zM485 1391l-202 -1266h661l201 1266h-660z" />
    <glyph glyph-name="uni0146.sc" 
d="M1065 0h-944l241 1516h945zM485 1391l-202 -1266h661l201 1266h-660z" />
    <glyph glyph-name="eng.sc" 
d="M1065 0h-944l241 1516h945zM485 1391l-202 -1266h661l201 1266h-660z" />
    <glyph glyph-name="ntilde.sc" 
d="M1065 0h-944l241 1516h945zM485 1391l-202 -1266h661l201 1266h-660z" />
    <glyph glyph-name="o.sc" 
d="M1065 0h-944l241 1516h945zM485 1391l-202 -1266h661l201 1266h-660z" />
    <glyph glyph-name="oacute.sc" 
d="M1065 0h-944l241 1516h945zM485 1391l-202 -1266h661l201 1266h-660z" />
    <glyph glyph-name="obreve.sc" 
d="M1065 0h-944l241 1516h945zM485 1391l-202 -1266h661l201 1266h-660z" />
    <glyph glyph-name="ocircumflex.sc" 
d="M1065 0h-944l241 1516h945zM485 1391l-202 -1266h661l201 1266h-660z" />
    <glyph glyph-name="odieresis.sc" 
d="M1065 0h-944l241 1516h945zM485 1391l-202 -1266h661l201 1266h-660z" />
    <glyph glyph-name="ograve.sc" 
d="M1065 0h-944l241 1516h945zM485 1391l-202 -1266h661l201 1266h-660z" />
    <glyph glyph-name="ohungarumlaut.sc" 
d="M1065 0h-944l241 1516h945zM485 1391l-202 -1266h661l201 1266h-660z" />
    <glyph glyph-name="omacron.sc" 
d="M1065 0h-944l241 1516h945zM485 1391l-202 -1266h661l201 1266h-660z" />
    <glyph glyph-name="uni01EB.sc" 
d="M1065 0h-944l241 1516h945zM485 1391l-202 -1266h661l201 1266h-660z" />
    <glyph glyph-name="oslash.sc" 
d="M1065 0h-944l241 1516h945zM485 1391l-202 -1266h661l201 1266h-660z" />
    <glyph glyph-name="oslashacute.sc" 
d="M1065 0h-944l241 1516h945zM485 1391l-202 -1266h661l201 1266h-660z" />
    <glyph glyph-name="otilde.sc" 
d="M1065 0h-944l241 1516h945zM485 1391l-202 -1266h661l201 1266h-660z" />
    <glyph glyph-name="oe.sc" 
d="M1065 0h-944l241 1516h945zM485 1391l-202 -1266h661l201 1266h-660z" />
    <glyph glyph-name="p.sc" 
d="M1065 0h-944l241 1516h945zM485 1391l-202 -1266h661l201 1266h-660z" />
    <glyph glyph-name="thorn.sc" 
d="M1065 0h-944l241 1516h945zM485 1391l-202 -1266h661l201 1266h-660z" />
    <glyph glyph-name="q.sc" 
d="M1065 0h-944l241 1516h945zM485 1391l-202 -1266h661l201 1266h-660z" />
    <glyph glyph-name="r.sc" 
d="M1065 0h-944l241 1516h945zM485 1391l-202 -1266h661l201 1266h-660z" />
    <glyph glyph-name="racute.sc" 
d="M1065 0h-944l241 1516h945zM485 1391l-202 -1266h661l201 1266h-660z" />
    <glyph glyph-name="rcaron.sc" 
d="M1065 0h-944l241 1516h945zM485 1391l-202 -1266h661l201 1266h-660z" />
    <glyph glyph-name="uni0157.sc" 
d="M1065 0h-944l241 1516h945zM485 1391l-202 -1266h661l201 1266h-660z" />
    <glyph glyph-name="s.sc" 
d="M1065 0h-944l241 1516h945zM485 1391l-202 -1266h661l201 1266h-660z" />
    <glyph glyph-name="sacute.sc" 
d="M1065 0h-944l241 1516h945zM485 1391l-202 -1266h661l201 1266h-660z" />
    <glyph glyph-name="scaron.sc" 
d="M1065 0h-944l241 1516h945zM485 1391l-202 -1266h661l201 1266h-660z" />
    <glyph glyph-name="scedilla.sc" 
d="M1065 0h-944l241 1516h945zM485 1391l-202 -1266h661l201 1266h-660z" />
    <glyph glyph-name="scircumflex.sc" 
d="M1065 0h-944l241 1516h945zM485 1391l-202 -1266h661l201 1266h-660z" />
    <glyph glyph-name="uni0219.sc" 
d="M1065 0h-944l241 1516h945zM485 1391l-202 -1266h661l201 1266h-660z" />
    <glyph glyph-name="germandbls.sc" 
d="M1065 0h-944l241 1516h945zM485 1391l-202 -1266h661l201 1266h-660z" />
    <glyph glyph-name="t.sc" 
d="M1065 0h-944l241 1516h945zM485 1391l-202 -1266h661l201 1266h-660z" />
    <glyph glyph-name="tbar.sc" 
d="M1065 0h-944l241 1516h945zM485 1391l-202 -1266h661l201 1266h-660z" />
    <glyph glyph-name="tcaron.sc" 
d="M1065 0h-944l241 1516h945zM485 1391l-202 -1266h661l201 1266h-660z" />
    <glyph glyph-name="uni0163.sc" 
d="M1065 0h-944l241 1516h945zM485 1391l-202 -1266h661l201 1266h-660z" />
    <glyph glyph-name="uni021B.sc" 
d="M1065 0h-944l241 1516h945zM485 1391l-202 -1266h661l201 1266h-660z" />
    <glyph glyph-name="u.sc" 
d="M1065 0h-944l241 1516h945zM485 1391l-202 -1266h661l201 1266h-660z" />
    <glyph glyph-name="uacute.sc" 
d="M1065 0h-944l241 1516h945zM485 1391l-202 -1266h661l201 1266h-660z" />
    <glyph glyph-name="ubreve.sc" 
d="M1065 0h-944l241 1516h945zM485 1391l-202 -1266h661l201 1266h-660z" />
    <glyph glyph-name="ucircumflex.sc" 
d="M1065 0h-944l241 1516h945zM485 1391l-202 -1266h661l201 1266h-660z" />
    <glyph glyph-name="udieresis.sc" 
d="M1065 0h-944l241 1516h945zM485 1391l-202 -1266h661l201 1266h-660z" />
    <glyph glyph-name="ugrave.sc" 
d="M1065 0h-944l241 1516h945zM485 1391l-202 -1266h661l201 1266h-660z" />
    <glyph glyph-name="uhungarumlaut.sc" 
d="M1065 0h-944l241 1516h945zM485 1391l-202 -1266h661l201 1266h-660z" />
    <glyph glyph-name="umacron.sc" 
d="M1065 0h-944l241 1516h945zM485 1391l-202 -1266h661l201 1266h-660z" />
    <glyph glyph-name="uogonek.sc" 
d="M1065 0h-944l241 1516h945zM485 1391l-202 -1266h661l201 1266h-660z" />
    <glyph glyph-name="uring.sc" 
d="M1065 0h-944l241 1516h945zM485 1391l-202 -1266h661l201 1266h-660z" />
    <glyph glyph-name="utilde.sc" 
d="M1065 0h-944l241 1516h945zM485 1391l-202 -1266h661l201 1266h-660z" />
    <glyph glyph-name="v.sc" 
d="M1065 0h-944l241 1516h945zM485 1391l-202 -1266h661l201 1266h-660z" />
    <glyph glyph-name="w.sc" 
d="M1065 0h-944l241 1516h945zM485 1391l-202 -1266h661l201 1266h-660z" />
    <glyph glyph-name="wacute.sc" 
d="M1065 0h-944l241 1516h945zM485 1391l-202 -1266h661l201 1266h-660z" />
    <glyph glyph-name="wcircumflex.sc" 
d="M1065 0h-944l241 1516h945zM485 1391l-202 -1266h661l201 1266h-660z" />
    <glyph glyph-name="wdieresis.sc" 
d="M1065 0h-944l241 1516h945zM485 1391l-202 -1266h661l201 1266h-660z" />
    <glyph glyph-name="wgrave.sc" 
d="M1065 0h-944l241 1516h945zM485 1391l-202 -1266h661l201 1266h-660z" />
    <glyph glyph-name="x.sc" 
d="M1065 0h-944l241 1516h945zM485 1391l-202 -1266h661l201 1266h-660z" />
    <glyph glyph-name="y.sc" 
d="M1065 0h-944l241 1516h945zM485 1391l-202 -1266h661l201 1266h-660z" />
    <glyph glyph-name="yacute.sc" 
d="M1065 0h-944l241 1516h945zM485 1391l-202 -1266h661l201 1266h-660z" />
    <glyph glyph-name="ycircumflex.sc" 
d="M1065 0h-944l241 1516h945zM485 1391l-202 -1266h661l201 1266h-660z" />
    <glyph glyph-name="ydieresis.sc" 
d="M1065 0h-944l241 1516h945zM485 1391l-202 -1266h661l201 1266h-660z" />
    <glyph glyph-name="ygrave.sc" 
d="M1065 0h-944l241 1516h945zM485 1391l-202 -1266h661l201 1266h-660z" />
    <glyph glyph-name="z.sc" 
d="M1065 0h-944l241 1516h945zM485 1391l-202 -1266h661l201 1266h-660z" />
    <glyph glyph-name="zacute.sc" 
d="M1065 0h-944l241 1516h945zM485 1391l-202 -1266h661l201 1266h-660z" />
    <glyph glyph-name="zcaron.sc" 
d="M1065 0h-944l241 1516h945zM485 1391l-202 -1266h661l201 1266h-660z" />
    <glyph glyph-name="zdotaccent.sc" 
d="M1065 0h-944l241 1516h945zM485 1391l-202 -1266h661l201 1266h-660z" />
    <glyph glyph-name="a.subs.ss01" 
d="M1065 0h-944l241 1516h945zM485 1391l-202 -1266h661l201 1266h-660z" />
    <glyph glyph-name="a.sups.ss01" 
d="M1065 0h-944l241 1516h945zM485 1391l-202 -1266h661l201 1266h-660z" />
    <glyph glyph-name="a.subs" 
d="M1065 0h-944l241 1516h945zM485 1391l-202 -1266h661l201 1266h-660z" />
    <glyph glyph-name="b.subs" 
d="M1065 0h-944l241 1516h945zM485 1391l-202 -1266h661l201 1266h-660z" />
    <glyph glyph-name="c.subs" 
d="M1065 0h-944l241 1516h945zM485 1391l-202 -1266h661l201 1266h-660z" />
    <glyph glyph-name="d.subs" 
d="M1065 0h-944l241 1516h945zM485 1391l-202 -1266h661l201 1266h-660z" />
    <glyph glyph-name="e.subs" 
d="M1065 0h-944l241 1516h945zM485 1391l-202 -1266h661l201 1266h-660z" />
    <glyph glyph-name="f.subs" 
d="M1065 0h-944l241 1516h945zM485 1391l-202 -1266h661l201 1266h-660z" />
    <glyph glyph-name="g.subs" 
d="M1065 0h-944l241 1516h945zM485 1391l-202 -1266h661l201 1266h-660z" />
    <glyph glyph-name="h.subs" 
d="M1065 0h-944l241 1516h945zM485 1391l-202 -1266h661l201 1266h-660z" />
    <glyph glyph-name="i.subs" 
d="M1065 0h-944l241 1516h945zM485 1391l-202 -1266h661l201 1266h-660z" />
    <glyph glyph-name="j.subs" 
d="M1065 0h-944l241 1516h945zM485 1391l-202 -1266h661l201 1266h-660z" />
    <glyph glyph-name="k.subs" 
d="M1065 0h-944l241 1516h945zM485 1391l-202 -1266h661l201 1266h-660z" />
    <glyph glyph-name="l.subs" 
d="M1065 0h-944l241 1516h945zM485 1391l-202 -1266h661l201 1266h-660z" />
    <glyph glyph-name="m.subs" 
d="M1065 0h-944l241 1516h945zM485 1391l-202 -1266h661l201 1266h-660z" />
    <glyph glyph-name="n.subs" 
d="M1065 0h-944l241 1516h945zM485 1391l-202 -1266h661l201 1266h-660z" />
    <glyph glyph-name="o.subs" 
d="M1065 0h-944l241 1516h945zM485 1391l-202 -1266h661l201 1266h-660z" />
    <glyph glyph-name="p.subs" 
d="M1065 0h-944l241 1516h945zM485 1391l-202 -1266h661l201 1266h-660z" />
    <glyph glyph-name="q.subs" 
d="M1065 0h-944l241 1516h945zM485 1391l-202 -1266h661l201 1266h-660z" />
    <glyph glyph-name="r.subs" 
d="M1065 0h-944l241 1516h945zM485 1391l-202 -1266h661l201 1266h-660z" />
    <glyph glyph-name="s.subs" 
d="M1065 0h-944l241 1516h945zM485 1391l-202 -1266h661l201 1266h-660z" />
    <glyph glyph-name="t.subs" 
d="M1065 0h-944l241 1516h945zM485 1391l-202 -1266h661l201 1266h-660z" />
    <glyph glyph-name="u.subs" 
d="M1065 0h-944l241 1516h945zM485 1391l-202 -1266h661l201 1266h-660z" />
    <glyph glyph-name="v.subs" 
d="M1065 0h-944l241 1516h945zM485 1391l-202 -1266h661l201 1266h-660z" />
    <glyph glyph-name="w.subs" 
d="M1065 0h-944l241 1516h945zM485 1391l-202 -1266h661l201 1266h-660z" />
    <glyph glyph-name="x.subs" 
d="M1065 0h-944l241 1516h945zM485 1391l-202 -1266h661l201 1266h-660z" />
    <glyph glyph-name="y.subs" 
d="M1065 0h-944l241 1516h945zM485 1391l-202 -1266h661l201 1266h-660z" />
    <glyph glyph-name="z.subs" 
d="M1065 0h-944l241 1516h945zM485 1391l-202 -1266h661l201 1266h-660z" />
    <glyph glyph-name="a.sups" 
d="M1065 0h-944l241 1516h945zM485 1391l-202 -1266h661l201 1266h-660z" />
    <glyph glyph-name="b.sups" 
d="M1065 0h-944l241 1516h945zM485 1391l-202 -1266h661l201 1266h-660z" />
    <glyph glyph-name="c.sups" 
d="M1065 0h-944l241 1516h945zM485 1391l-202 -1266h661l201 1266h-660z" />
    <glyph glyph-name="d.sups" 
d="M1065 0h-944l241 1516h945zM485 1391l-202 -1266h661l201 1266h-660z" />
    <glyph glyph-name="e.sups" 
d="M1065 0h-944l241 1516h945zM485 1391l-202 -1266h661l201 1266h-660z" />
    <glyph glyph-name="f.sups" 
d="M1065 0h-944l241 1516h945zM485 1391l-202 -1266h661l201 1266h-660z" />
    <glyph glyph-name="g.sups" 
d="M1065 0h-944l241 1516h945zM485 1391l-202 -1266h661l201 1266h-660z" />
    <glyph glyph-name="h.sups" 
d="M1065 0h-944l241 1516h945zM485 1391l-202 -1266h661l201 1266h-660z" />
    <glyph glyph-name="i.sups" 
d="M1065 0h-944l241 1516h945zM485 1391l-202 -1266h661l201 1266h-660z" />
    <glyph glyph-name="j.sups" 
d="M1065 0h-944l241 1516h945zM485 1391l-202 -1266h661l201 1266h-660z" />
    <glyph glyph-name="k.sups" 
d="M1065 0h-944l241 1516h945zM485 1391l-202 -1266h661l201 1266h-660z" />
    <glyph glyph-name="l.sups" 
d="M1065 0h-944l241 1516h945zM485 1391l-202 -1266h661l201 1266h-660z" />
    <glyph glyph-name="m.sups" 
d="M1065 0h-944l241 1516h945zM485 1391l-202 -1266h661l201 1266h-660z" />
    <glyph glyph-name="n.sups" 
d="M1065 0h-944l241 1516h945zM485 1391l-202 -1266h661l201 1266h-660z" />
    <glyph glyph-name="o.sups" 
d="M1065 0h-944l241 1516h945zM485 1391l-202 -1266h661l201 1266h-660z" />
    <glyph glyph-name="p.sups" 
d="M1065 0h-944l241 1516h945zM485 1391l-202 -1266h661l201 1266h-660z" />
    <glyph glyph-name="q.sups" 
d="M1065 0h-944l241 1516h945zM485 1391l-202 -1266h661l201 1266h-660z" />
    <glyph glyph-name="r.sups" 
d="M1065 0h-944l241 1516h945zM485 1391l-202 -1266h661l201 1266h-660z" />
    <glyph glyph-name="s.sups" 
d="M1065 0h-944l241 1516h945zM485 1391l-202 -1266h661l201 1266h-660z" />
    <glyph glyph-name="t.sups" 
d="M1065 0h-944l241 1516h945zM485 1391l-202 -1266h661l201 1266h-660z" />
    <glyph glyph-name="u.sups" 
d="M1065 0h-944l241 1516h945zM485 1391l-202 -1266h661l201 1266h-660z" />
    <glyph glyph-name="v.sups" 
d="M1065 0h-944l241 1516h945zM485 1391l-202 -1266h661l201 1266h-660z" />
    <glyph glyph-name="w.sups" 
d="M1065 0h-944l241 1516h945zM485 1391l-202 -1266h661l201 1266h-660z" />
    <glyph glyph-name="x.sups" 
d="M1065 0h-944l241 1516h945zM485 1391l-202 -1266h661l201 1266h-660z" />
    <glyph glyph-name="y.sups" 
d="M1065 0h-944l241 1516h945zM485 1391l-202 -1266h661l201 1266h-660z" />
    <glyph glyph-name="z.sups" 
d="M1065 0h-944l241 1516h945zM485 1391l-202 -1266h661l201 1266h-660z" />
    <glyph glyph-name="zero.zero" 
d="M1065 0h-944l241 1516h945zM485 1391l-202 -1266h661l201 1266h-660z" />
    <glyph glyph-name="zero.lf" 
d="M1065 0h-944l241 1516h945zM485 1391l-202 -1266h661l201 1266h-660z" />
    <glyph glyph-name="one.lf" 
d="M1065 0h-944l241 1516h945zM485 1391l-202 -1266h661l201 1266h-660z" />
    <glyph glyph-name="two.lf" 
d="M1065 0h-944l241 1516h945zM485 1391l-202 -1266h661l201 1266h-660z" />
    <glyph glyph-name="three.lf" 
d="M1065 0h-944l241 1516h945zM485 1391l-202 -1266h661l201 1266h-660z" />
    <glyph glyph-name="four.lf" 
d="M1065 0h-944l241 1516h945zM485 1391l-202 -1266h661l201 1266h-660z" />
    <glyph glyph-name="five.lf" 
d="M1065 0h-944l241 1516h945zM485 1391l-202 -1266h661l201 1266h-660z" />
    <glyph glyph-name="six.lf" 
d="M1065 0h-944l241 1516h945zM485 1391l-202 -1266h661l201 1266h-660z" />
    <glyph glyph-name="seven.lf" 
d="M1065 0h-944l241 1516h945zM485 1391l-202 -1266h661l201 1266h-660z" />
    <glyph glyph-name="eight.lf" 
d="M1065 0h-944l241 1516h945zM485 1391l-202 -1266h661l201 1266h-660z" />
    <glyph glyph-name="nine.lf" 
d="M1065 0h-944l241 1516h945zM485 1391l-202 -1266h661l201 1266h-660z" />
    <glyph glyph-name="zero.lf.zero" 
d="M1065 0h-944l241 1516h945zM485 1391l-202 -1266h661l201 1266h-660z" />
    <glyph glyph-name="zero.osf" 
d="M1065 0h-944l241 1516h945zM485 1391l-202 -1266h661l201 1266h-660z" />
    <glyph glyph-name="one.osf" 
d="M1065 0h-944l241 1516h945zM485 1391l-202 -1266h661l201 1266h-660z" />
    <glyph glyph-name="two.osf" 
d="M1065 0h-944l241 1516h945zM485 1391l-202 -1266h661l201 1266h-660z" />
    <glyph glyph-name="three.osf" 
d="M1065 0h-944l241 1516h945zM485 1391l-202 -1266h661l201 1266h-660z" />
    <glyph glyph-name="four.osf" 
d="M1065 0h-944l241 1516h945zM485 1391l-202 -1266h661l201 1266h-660z" />
    <glyph glyph-name="five.osf" 
d="M1065 0h-944l241 1516h945zM485 1391l-202 -1266h661l201 1266h-660z" />
    <glyph glyph-name="six.osf" 
d="M1065 0h-944l241 1516h945zM485 1391l-202 -1266h661l201 1266h-660z" />
    <glyph glyph-name="seven.osf" 
d="M1065 0h-944l241 1516h945zM485 1391l-202 -1266h661l201 1266h-660z" />
    <glyph glyph-name="eight.osf" 
d="M1065 0h-944l241 1516h945zM485 1391l-202 -1266h661l201 1266h-660z" />
    <glyph glyph-name="nine.osf" 
d="M1065 0h-944l241 1516h945zM485 1391l-202 -1266h661l201 1266h-660z" />
    <glyph glyph-name="zero.osf.zero" 
d="M1065 0h-944l241 1516h945zM485 1391l-202 -1266h661l201 1266h-660z" />
    <glyph glyph-name="zero.tf" 
d="M1065 0h-944l241 1516h945zM485 1391l-202 -1266h661l201 1266h-660z" />
    <glyph glyph-name="one.tf" 
d="M1065 0h-944l241 1516h945zM485 1391l-202 -1266h661l201 1266h-660z" />
    <glyph glyph-name="two.tf" 
d="M1065 0h-944l241 1516h945zM485 1391l-202 -1266h661l201 1266h-660z" />
    <glyph glyph-name="three.tf" 
d="M1065 0h-944l241 1516h945zM485 1391l-202 -1266h661l201 1266h-660z" />
    <glyph glyph-name="four.tf" 
d="M1065 0h-944l241 1516h945zM485 1391l-202 -1266h661l201 1266h-660z" />
    <glyph glyph-name="five.tf" 
d="M1065 0h-944l241 1516h945zM485 1391l-202 -1266h661l201 1266h-660z" />
    <glyph glyph-name="six.tf" 
d="M1065 0h-944l241 1516h945zM485 1391l-202 -1266h661l201 1266h-660z" />
    <glyph glyph-name="seven.tf" 
d="M1065 0h-944l241 1516h945zM485 1391l-202 -1266h661l201 1266h-660z" />
    <glyph glyph-name="eight.tf" 
d="M1065 0h-944l241 1516h945zM485 1391l-202 -1266h661l201 1266h-660z" />
    <glyph glyph-name="nine.tf" 
d="M1065 0h-944l241 1516h945zM485 1391l-202 -1266h661l201 1266h-660z" />
    <glyph glyph-name="zero.tf.zero" 
d="M1065 0h-944l241 1516h945zM485 1391l-202 -1266h661l201 1266h-660z" />
    <glyph glyph-name="uni24FF.zero" 
d="M1065 0h-944l241 1516h945zM485 1391l-202 -1266h661l201 1266h-660z" />
    <glyph glyph-name="uni24EA.zero" 
d="M1065 0h-944l241 1516h945zM485 1391l-202 -1266h661l201 1266h-660z" />
    <glyph glyph-name="zero.dnom" 
d="M1065 0h-944l241 1516h945zM485 1391l-202 -1266h661l201 1266h-660z" />
    <glyph glyph-name="one.dnom" 
d="M1065 0h-944l241 1516h945zM485 1391l-202 -1266h661l201 1266h-660z" />
    <glyph glyph-name="two.dnom" 
d="M1065 0h-944l241 1516h945zM485 1391l-202 -1266h661l201 1266h-660z" />
    <glyph glyph-name="three.dnom" 
d="M1065 0h-944l241 1516h945zM485 1391l-202 -1266h661l201 1266h-660z" />
    <glyph glyph-name="four.dnom" 
d="M1065 0h-944l241 1516h945zM485 1391l-202 -1266h661l201 1266h-660z" />
    <glyph glyph-name="five.dnom" 
d="M1065 0h-944l241 1516h945zM485 1391l-202 -1266h661l201 1266h-660z" />
    <glyph glyph-name="six.dnom" 
d="M1065 0h-944l241 1516h945zM485 1391l-202 -1266h661l201 1266h-660z" />
    <glyph glyph-name="seven.dnom" 
d="M1065 0h-944l241 1516h945zM485 1391l-202 -1266h661l201 1266h-660z" />
    <glyph glyph-name="eight.dnom" 
d="M1065 0h-944l241 1516h945zM485 1391l-202 -1266h661l201 1266h-660z" />
    <glyph glyph-name="nine.dnom" 
d="M1065 0h-944l241 1516h945zM485 1391l-202 -1266h661l201 1266h-660z" />
    <glyph glyph-name="zero.numr" 
d="M1065 0h-944l241 1516h945zM485 1391l-202 -1266h661l201 1266h-660z" />
    <glyph glyph-name="one.numr" 
d="M1065 0h-944l241 1516h945zM485 1391l-202 -1266h661l201 1266h-660z" />
    <glyph glyph-name="two.numr" 
d="M1065 0h-944l241 1516h945zM485 1391l-202 -1266h661l201 1266h-660z" />
    <glyph glyph-name="three.numr" 
d="M1065 0h-944l241 1516h945zM485 1391l-202 -1266h661l201 1266h-660z" />
    <glyph glyph-name="four.numr" 
d="M1065 0h-944l241 1516h945zM485 1391l-202 -1266h661l201 1266h-660z" />
    <glyph glyph-name="five.numr" 
d="M1065 0h-944l241 1516h945zM485 1391l-202 -1266h661l201 1266h-660z" />
    <glyph glyph-name="six.numr" 
d="M1065 0h-944l241 1516h945zM485 1391l-202 -1266h661l201 1266h-660z" />
    <glyph glyph-name="seven.numr" 
d="M1065 0h-944l241 1516h945zM485 1391l-202 -1266h661l201 1266h-660z" />
    <glyph glyph-name="eight.numr" 
d="M1065 0h-944l241 1516h945zM485 1391l-202 -1266h661l201 1266h-660z" />
    <glyph glyph-name="nine.numr" 
d="M1065 0h-944l241 1516h945zM485 1391l-202 -1266h661l201 1266h-660z" />
    <glyph glyph-name="uni2080.zero" 
d="M1065 0h-944l241 1516h945zM485 1391l-202 -1266h661l201 1266h-660z" />
    <glyph glyph-name="zero.dnom.zero" 
d="M1065 0h-944l241 1516h945zM485 1391l-202 -1266h661l201 1266h-660z" />
    <glyph glyph-name="zero.numr.zero" 
d="M1065 0h-944l241 1516h945zM485 1391l-202 -1266h661l201 1266h-660z" />
    <glyph glyph-name="uni2070.zero" 
d="M1065 0h-944l241 1516h945zM485 1391l-202 -1266h661l201 1266h-660z" />
    <glyph glyph-name="zero.c2sc" 
d="M1065 0h-944l241 1516h945zM485 1391l-202 -1266h661l201 1266h-660z" />
    <glyph glyph-name="one.c2sc" 
d="M1065 0h-944l241 1516h945zM485 1391l-202 -1266h661l201 1266h-660z" />
    <glyph glyph-name="two.c2sc" 
d="M1065 0h-944l241 1516h945zM485 1391l-202 -1266h661l201 1266h-660z" />
    <glyph glyph-name="three.c2sc" 
d="M1065 0h-944l241 1516h945zM485 1391l-202 -1266h661l201 1266h-660z" />
    <glyph glyph-name="four.c2sc" 
d="M1065 0h-944l241 1516h945zM485 1391l-202 -1266h661l201 1266h-660z" />
    <glyph glyph-name="five.c2sc" 
d="M1065 0h-944l241 1516h945zM485 1391l-202 -1266h661l201 1266h-660z" />
    <glyph glyph-name="six.c2sc" 
d="M1065 0h-944l241 1516h945zM485 1391l-202 -1266h661l201 1266h-660z" />
    <glyph glyph-name="seven.c2sc" 
d="M1065 0h-944l241 1516h945zM485 1391l-202 -1266h661l201 1266h-660z" />
    <glyph glyph-name="eight.c2sc" 
d="M1065 0h-944l241 1516h945zM485 1391l-202 -1266h661l201 1266h-660z" />
    <glyph glyph-name="nine.c2sc" 
d="M1065 0h-944l241 1516h945zM485 1391l-202 -1266h661l201 1266h-660z" />
    <glyph glyph-name="zero.c2sc.zero" 
d="M1065 0h-944l241 1516h945zM485 1391l-202 -1266h661l201 1266h-660z" />
    <glyph glyph-name="colon.case" 
d="M1065 0h-944l241 1516h945zM485 1391l-202 -1266h661l201 1266h-660z" />
    <glyph glyph-name="exclamdown.case" 
d="M1065 0h-944l241 1516h945zM485 1391l-202 -1266h661l201 1266h-660z" />
    <glyph glyph-name="questiondown.case" 
d="M1065 0h-944l241 1516h945zM485 1391l-202 -1266h661l201 1266h-660z" />
    <glyph glyph-name="periodcentered.case" 
d="M1065 0h-944l241 1516h945zM485 1391l-202 -1266h661l201 1266h-660z" />
    <glyph glyph-name="parenleft.case" 
d="M1065 0h-944l241 1516h945zM485 1391l-202 -1266h661l201 1266h-660z" />
    <glyph glyph-name="parenright.case" 
d="M1065 0h-944l241 1516h945zM485 1391l-202 -1266h661l201 1266h-660z" />
    <glyph glyph-name="braceleft.case" 
d="M1065 0h-944l241 1516h945zM485 1391l-202 -1266h661l201 1266h-660z" />
    <glyph glyph-name="braceright.case" 
d="M1065 0h-944l241 1516h945zM485 1391l-202 -1266h661l201 1266h-660z" />
    <glyph glyph-name="bracketleft.case" 
d="M1065 0h-944l241 1516h945zM485 1391l-202 -1266h661l201 1266h-660z" />
    <glyph glyph-name="bracketright.case" 
d="M1065 0h-944l241 1516h945zM485 1391l-202 -1266h661l201 1266h-660z" />
    <glyph glyph-name="hyphen.case" 
d="M1065 0h-944l241 1516h945zM485 1391l-202 -1266h661l201 1266h-660z" />
    <glyph glyph-name="uni00AD.case" 
d="M1065 0h-944l241 1516h945zM485 1391l-202 -1266h661l201 1266h-660z" />
    <glyph glyph-name="endash.case" 
d="M1065 0h-944l241 1516h945zM485 1391l-202 -1266h661l201 1266h-660z" />
    <glyph glyph-name="emdash.case" 
d="M1065 0h-944l241 1516h945zM485 1391l-202 -1266h661l201 1266h-660z" />
    <glyph glyph-name="guillemotleft.case" 
d="M1065 0h-944l241 1516h945zM485 1391l-202 -1266h661l201 1266h-660z" />
    <glyph glyph-name="guillemotright.case" 
d="M1065 0h-944l241 1516h945zM485 1391l-202 -1266h661l201 1266h-660z" />
    <glyph glyph-name="guilsinglleft.case" 
d="M1065 0h-944l241 1516h945zM485 1391l-202 -1266h661l201 1266h-660z" />
    <glyph glyph-name="guilsinglright.case" 
d="M1065 0h-944l241 1516h945zM485 1391l-202 -1266h661l201 1266h-660z" />
    <glyph glyph-name="parenleft.c2sc" 
d="M1065 0h-944l241 1516h945zM485 1391l-202 -1266h661l201 1266h-660z" />
    <glyph glyph-name="parenright.c2sc" 
d="M1065 0h-944l241 1516h945zM485 1391l-202 -1266h661l201 1266h-660z" />
    <glyph glyph-name="braceleft.c2sc" 
d="M1065 0h-944l241 1516h945zM485 1391l-202 -1266h661l201 1266h-660z" />
    <glyph glyph-name="braceright.c2sc" 
d="M1065 0h-944l241 1516h945zM485 1391l-202 -1266h661l201 1266h-660z" />
    <glyph glyph-name="bracketleft.c2sc" 
d="M1065 0h-944l241 1516h945zM485 1391l-202 -1266h661l201 1266h-660z" />
    <glyph glyph-name="bracketright.c2sc" 
d="M1065 0h-944l241 1516h945zM485 1391l-202 -1266h661l201 1266h-660z" />
    <glyph glyph-name="exclam.c2sc" 
d="M1065 0h-944l241 1516h945zM485 1391l-202 -1266h661l201 1266h-660z" />
    <glyph glyph-name="exclamdown.c2sc" 
d="M1065 0h-944l241 1516h945zM485 1391l-202 -1266h661l201 1266h-660z" />
    <glyph glyph-name="question.c2sc" 
d="M1065 0h-944l241 1516h945zM485 1391l-202 -1266h661l201 1266h-660z" />
    <glyph glyph-name="questiondown.c2sc" 
d="M1065 0h-944l241 1516h945zM485 1391l-202 -1266h661l201 1266h-660z" />
    <glyph glyph-name="quotedblleft.c2sc" 
d="M1065 0h-944l241 1516h945zM485 1391l-202 -1266h661l201 1266h-660z" />
    <glyph glyph-name="quotedblright.c2sc" 
d="M1065 0h-944l241 1516h945zM485 1391l-202 -1266h661l201 1266h-660z" />
    <glyph glyph-name="quoteleft.c2sc" 
d="M1065 0h-944l241 1516h945zM485 1391l-202 -1266h661l201 1266h-660z" />
    <glyph glyph-name="quoteright.c2sc" 
d="M1065 0h-944l241 1516h945zM485 1391l-202 -1266h661l201 1266h-660z" />
    <glyph glyph-name="slash.c2sc" 
d="M1065 0h-944l241 1516h945zM485 1391l-202 -1266h661l201 1266h-660z" />
    <glyph glyph-name="backslash.c2sc" 
d="M1065 0h-944l241 1516h945zM485 1391l-202 -1266h661l201 1266h-660z" />
    <glyph glyph-name="quotedbl.c2sc" 
d="M1065 0h-944l241 1516h945zM485 1391l-202 -1266h661l201 1266h-660z" />
    <glyph glyph-name="quotesingle.c2sc" 
d="M1065 0h-944l241 1516h945zM485 1391l-202 -1266h661l201 1266h-660z" />
    <glyph glyph-name="hyphen.subs" 
d="M1065 0h-944l241 1516h945zM485 1391l-202 -1266h661l201 1266h-660z" />
    <glyph glyph-name="parenleft.subs" 
d="M1065 0h-944l241 1516h945zM485 1391l-202 -1266h661l201 1266h-660z" />
    <glyph glyph-name="parenright.subs" 
d="M1065 0h-944l241 1516h945zM485 1391l-202 -1266h661l201 1266h-660z" />
    <glyph glyph-name="period.subs" 
d="M1065 0h-944l241 1516h945zM485 1391l-202 -1266h661l201 1266h-660z" />
    <glyph glyph-name="comma.subs" 
d="M1065 0h-944l241 1516h945zM485 1391l-202 -1266h661l201 1266h-660z" />
    <glyph glyph-name="hyphen.sups" 
d="M1065 0h-944l241 1516h945zM485 1391l-202 -1266h661l201 1266h-660z" />
    <glyph glyph-name="parenleft.sups" 
d="M1065 0h-944l241 1516h945zM485 1391l-202 -1266h661l201 1266h-660z" />
    <glyph glyph-name="parenright.sups" 
d="M1065 0h-944l241 1516h945zM485 1391l-202 -1266h661l201 1266h-660z" />
    <glyph glyph-name="period.sups" 
d="M1065 0h-944l241 1516h945zM485 1391l-202 -1266h661l201 1266h-660z" />
    <glyph glyph-name="comma.sups" 
d="M1065 0h-944l241 1516h945zM485 1391l-202 -1266h661l201 1266h-660z" />
    <glyph glyph-name="uni20BF.lf" 
d="M1065 0h-944l241 1516h945zM485 1391l-202 -1266h661l201 1266h-660z" />
    <glyph glyph-name="cent.lf" 
d="M1065 0h-944l241 1516h945zM485 1391l-202 -1266h661l201 1266h-660z" />
    <glyph glyph-name="dollar.lf" 
d="M1065 0h-944l241 1516h945zM485 1391l-202 -1266h661l201 1266h-660z" />
    <glyph glyph-name="Euro.lf" 
d="M1065 0h-944l241 1516h945zM485 1391l-202 -1266h661l201 1266h-660z" />
    <glyph glyph-name="florin.lf" 
d="M1065 0h-944l241 1516h945zM485 1391l-202 -1266h661l201 1266h-660z" />
    <glyph glyph-name="uni20BA.lf" 
d="M1065 0h-944l241 1516h945zM485 1391l-202 -1266h661l201 1266h-660z" />
    <glyph glyph-name="uni20B9.lf" 
d="M1065 0h-944l241 1516h945zM485 1391l-202 -1266h661l201 1266h-660z" />
    <glyph glyph-name="sterling.lf" 
d="M1065 0h-944l241 1516h945zM485 1391l-202 -1266h661l201 1266h-660z" />
    <glyph glyph-name="yen.lf" 
d="M1065 0h-944l241 1516h945zM485 1391l-202 -1266h661l201 1266h-660z" />
    <glyph glyph-name="arrowup.case" 
d="M1065 0h-944l241 1516h945zM485 1391l-202 -1266h661l201 1266h-660z" />
    <glyph glyph-name="uni2197.case" 
d="M1065 0h-944l241 1516h945zM485 1391l-202 -1266h661l201 1266h-660z" />
    <glyph glyph-name="arrowright.case" 
d="M1065 0h-944l241 1516h945zM485 1391l-202 -1266h661l201 1266h-660z" />
    <glyph glyph-name="uni2198.case" 
d="M1065 0h-944l241 1516h945zM485 1391l-202 -1266h661l201 1266h-660z" />
    <glyph glyph-name="arrowdown.case" 
d="M1065 0h-944l241 1516h945zM485 1391l-202 -1266h661l201 1266h-660z" />
    <glyph glyph-name="uni2199.case" 
d="M1065 0h-944l241 1516h945zM485 1391l-202 -1266h661l201 1266h-660z" />
    <glyph glyph-name="arrowleft.case" 
d="M1065 0h-944l241 1516h945zM485 1391l-202 -1266h661l201 1266h-660z" />
    <glyph glyph-name="uni2196.case" 
d="M1065 0h-944l241 1516h945zM485 1391l-202 -1266h661l201 1266h-660z" />
    <glyph glyph-name="arrowboth.case" 
d="M1065 0h-944l241 1516h945zM485 1391l-202 -1266h661l201 1266h-660z" />
    <glyph glyph-name="arrowupdn.case" 
d="M1065 0h-944l241 1516h945zM485 1391l-202 -1266h661l201 1266h-660z" />
    <glyph glyph-name="at.case" 
d="M1065 0h-944l241 1516h945zM485 1391l-202 -1266h661l201 1266h-660z" />
    <glyph glyph-name="ampersand.c2sc" 
d="M1065 0h-944l241 1516h945zM485 1391l-202 -1266h661l201 1266h-660z" />
    <glyph glyph-name="uni2116.c2sc" 
d="M1065 0h-944l241 1516h945zM485 1391l-202 -1266h661l201 1266h-660z" />
    <glyph glyph-name="uni20BF.c2sc" 
d="M1065 0h-944l241 1516h945zM485 1391l-202 -1266h661l201 1266h-660z" />
    <glyph glyph-name="cent.c2sc" 
d="M1065 0h-944l241 1516h945zM485 1391l-202 -1266h661l201 1266h-660z" />
    <glyph glyph-name="dollar.c2sc" 
d="M1065 0h-944l241 1516h945zM485 1391l-202 -1266h661l201 1266h-660z" />
    <glyph glyph-name="Euro.c2sc" 
d="M1065 0h-944l241 1516h945zM485 1391l-202 -1266h661l201 1266h-660z" />
    <glyph glyph-name="uni20BA.c2sc" 
d="M1065 0h-944l241 1516h945zM485 1391l-202 -1266h661l201 1266h-660z" />
    <glyph glyph-name="percent.c2sc" 
d="M1065 0h-944l241 1516h945zM485 1391l-202 -1266h661l201 1266h-660z" />
    <glyph glyph-name="perthousand.c2sc" 
d="M1065 0h-944l241 1516h945zM485 1391l-202 -1266h661l201 1266h-660z" />
    <glyph glyph-name="uni20B9.c2sc" 
d="M1065 0h-944l241 1516h945zM485 1391l-202 -1266h661l201 1266h-660z" />
    <glyph glyph-name="sterling.c2sc" 
d="M1065 0h-944l241 1516h945zM485 1391l-202 -1266h661l201 1266h-660z" />
    <glyph glyph-name="yen.c2sc" 
d="M1065 0h-944l241 1516h945zM485 1391l-202 -1266h661l201 1266h-660z" />
    <glyph glyph-name="multiply.subs" 
d="M1065 0h-944l241 1516h945zM485 1391l-202 -1266h661l201 1266h-660z" />
    <glyph glyph-name="divide.subs" 
d="M1065 0h-944l241 1516h945zM485 1391l-202 -1266h661l201 1266h-660z" />
    <glyph glyph-name="multiply.sups" 
d="M1065 0h-944l241 1516h945zM485 1391l-202 -1266h661l201 1266h-660z" />
    <glyph glyph-name="divide.sups" 
d="M1065 0h-944l241 1516h945zM485 1391l-202 -1266h661l201 1266h-660z" />
    <glyph glyph-name="florin.c2sc" 
d="M1065 0h-944l241 1516h945zM485 1391l-202 -1266h661l201 1266h-660z" />
    <glyph glyph-name="uni030C.alt" 
d="M1065 0h-944l241 1516h945zM485 1391l-202 -1266h661l201 1266h-660z" />
    <glyph glyph-name="uni0308.case" 
d="M1065 0h-944l241 1516h945zM485 1391l-202 -1266h661l201 1266h-660z" />
    <glyph glyph-name="uni0307.case" 
d="M1065 0h-944l241 1516h945zM485 1391l-202 -1266h661l201 1266h-660z" />
    <glyph glyph-name="gravecomb.case" 
d="M1065 0h-944l241 1516h945zM485 1391l-202 -1266h661l201 1266h-660z" />
    <glyph glyph-name="acutecomb.case" 
d="M1065 0h-944l241 1516h945zM485 1391l-202 -1266h661l201 1266h-660z" />
    <glyph glyph-name="uni030B.case" 
d="M1065 0h-944l241 1516h945zM485 1391l-202 -1266h661l201 1266h-660z" />
    <glyph glyph-name="uni030C.alt.case" 
d="M1065 0h-944l241 1516h945zM485 1391l-202 -1266h661l201 1266h-660z" />
    <glyph glyph-name="uni0302.case" 
d="M1065 0h-944l241 1516h945zM485 1391l-202 -1266h661l201 1266h-660z" />
    <glyph glyph-name="uni030C.case" 
d="M1065 0h-944l241 1516h945zM485 1391l-202 -1266h661l201 1266h-660z" />
    <glyph glyph-name="uni0306.case" 
d="M1065 0h-944l241 1516h945zM485 1391l-202 -1266h661l201 1266h-660z" />
    <glyph glyph-name="uni030A.case" 
d="M1065 0h-944l241 1516h945zM485 1391l-202 -1266h661l201 1266h-660z" />
    <glyph glyph-name="tildecomb.case" 
d="M1065 0h-944l241 1516h945zM485 1391l-202 -1266h661l201 1266h-660z" />
    <glyph glyph-name="uni0304.case" 
d="M1065 0h-944l241 1516h945zM485 1391l-202 -1266h661l201 1266h-660z" />
    <glyph glyph-name="uni0308.narrow" 
d="M1065 0h-944l241 1516h945zM485 1391l-202 -1266h661l201 1266h-660z" />
    <glyph glyph-name="gravecomb.narrow" 
d="M1065 0h-944l241 1516h945zM485 1391l-202 -1266h661l201 1266h-660z" />
    <glyph glyph-name="acutecomb.narrow" 
d="M1065 0h-944l241 1516h945zM485 1391l-202 -1266h661l201 1266h-660z" />
    <glyph glyph-name="uni0302.narrow" 
d="M1065 0h-944l241 1516h945zM485 1391l-202 -1266h661l201 1266h-660z" />
    <glyph glyph-name="uni0306.narrow" 
d="M1065 0h-944l241 1516h945zM485 1391l-202 -1266h661l201 1266h-660z" />
    <glyph glyph-name="tildecomb.narrow" 
d="M1065 0h-944l241 1516h945zM485 1391l-202 -1266h661l201 1266h-660z" />
    <glyph glyph-name="uni0304.narrow" 
d="M1065 0h-944l241 1516h945zM485 1391l-202 -1266h661l201 1266h-660z" />
    <glyph glyph-name="uni0328.narrow" 
d="M1065 0h-944l241 1516h945zM485 1391l-202 -1266h661l201 1266h-660z" />
    <glyph glyph-name="uni0308.case.narrow" 
d="M1065 0h-944l241 1516h945zM485 1391l-202 -1266h661l201 1266h-660z" />
    <glyph glyph-name="gravecomb.case.narrow" 
d="M1065 0h-944l241 1516h945zM485 1391l-202 -1266h661l201 1266h-660z" />
    <glyph glyph-name="acutecomb.case.narrow" 
d="M1065 0h-944l241 1516h945zM485 1391l-202 -1266h661l201 1266h-660z" />
    <glyph glyph-name="uni0302.case.narrow" 
d="M1065 0h-944l241 1516h945zM485 1391l-202 -1266h661l201 1266h-660z" />
    <glyph glyph-name="uni0306.case.narrow" 
d="M1065 0h-944l241 1516h945zM485 1391l-202 -1266h661l201 1266h-660z" />
    <glyph glyph-name="tildecomb.case.narrow" 
d="M1065 0h-944l241 1516h945zM485 1391l-202 -1266h661l201 1266h-660z" />
    <glyph glyph-name="uni0304.case.narrow" 
d="M1065 0h-944l241 1516h945zM485 1391l-202 -1266h661l201 1266h-660z" />
    <glyph glyph-name="ringacutecomb" 
d="M1065 0h-944l241 1516h945zM485 1391l-202 -1266h661l201 1266h-660z" />
    <glyph glyph-name="ringacutecomb.case" 
d="M1065 0h-944l241 1516h945zM485 1391l-202 -1266h661l201 1266h-660z" />
    </font>
</defs>
</svg>
