<?xml version="1.0" standalone="no"?>
<!DOCTYPE svg PUBLIC "-//W3C//DTD SVG 1.1//EN" "http://www.w3.org/Graphics/SVG/1.1/DTD/svg11.dtd" >
<svg xmlns="http://www.w3.org/2000/svg" xmlns:xlink="http://www.w3.org/1999/xlink" version="1.1">
<metadata>
Created by FontForge 20170731 at Fri Nov 10 10:03:49 2023
 By Aleksey,,,
Copyright (c) 2021 by Daniel Sabino. All rights reserved.
</metadata>
<defs>
<font id="ElzaTextTrial-MediumOblique" horiz-adv-x="1409" >
  <font-face 
    font-family="Elza Text Trial Medium Oblique"
    font-weight="500"
    font-style="oblique"
    font-stretch="normal"
    units-per-em="2048"
    panose-1="0 0 6 0 0 0 0 0 0 0"
    ascent="1638"
    descent="-410"
    x-height="1055"
    cap-height="1454"
    bbox="-229 -375 1923 1567"
    underline-thickness="102"
    underline-position="-307"
    slope="-9"
    unicode-range="U+0020-FB02"
  />
<missing-glyph 
d="M1120 0h-999l241 1516h1000zM569 1315l-178 -1114h520l179 1114h-521z" />
    <glyph glyph-name=".notdef" 
d="M1120 0h-999l241 1516h1000zM569 1315l-178 -1114h520l179 1114h-521z" />
    <glyph glyph-name=".null" horiz-adv-x="0" 
 />
    <glyph glyph-name="nonmarkingreturn" horiz-adv-x="682" 
 />
    <glyph glyph-name="space" unicode=" " horiz-adv-x="419" 
 />
    <glyph glyph-name="exclam" unicode="!" 
d="M1120 0h-999l241 1516h1000zM569 1315l-178 -1114h520l179 1114h-521z" />
    <glyph glyph-name="quotedbl" unicode="&#x22;" 
d="M1120 0h-999l241 1516h1000zM569 1315l-178 -1114h520l179 1114h-521z" />
    <glyph glyph-name="numbersign" unicode="#" 
d="M1120 0h-999l241 1516h1000zM569 1315l-178 -1114h520l179 1114h-521z" />
    <glyph glyph-name="dollar" unicode="$" 
d="M1120 0h-999l241 1516h1000zM569 1315l-178 -1114h520l179 1114h-521z" />
    <glyph glyph-name="percent" unicode="%" 
d="M1120 0h-999l241 1516h1000zM569 1315l-178 -1114h520l179 1114h-521z" />
    <glyph glyph-name="ampersand" unicode="&#x26;" 
d="M1120 0h-999l241 1516h1000zM569 1315l-178 -1114h520l179 1114h-521z" />
    <glyph glyph-name="quotesingle" unicode="'" 
d="M1120 0h-999l241 1516h1000zM569 1315l-178 -1114h520l179 1114h-521z" />
    <glyph glyph-name="parenleft" unicode="(" 
d="M1120 0h-999l241 1516h1000zM569 1315l-178 -1114h520l179 1114h-521z" />
    <glyph glyph-name="parenright" unicode=")" 
d="M1120 0h-999l241 1516h1000zM569 1315l-178 -1114h520l179 1114h-521z" />
    <glyph glyph-name="asterisk" unicode="*" 
d="M1120 0h-999l241 1516h1000zM569 1315l-178 -1114h520l179 1114h-521z" />
    <glyph glyph-name="plus" unicode="+" 
d="M1120 0h-999l241 1516h1000zM569 1315l-178 -1114h520l179 1114h-521z" />
    <glyph glyph-name="comma" unicode="," horiz-adv-x="663" 
d="M10 -344l21 131q93 0 141 31t57 104l11 78h-129l43 274h274l-53 -354q-21 -139 -111.5 -201.5t-253.5 -62.5z" />
    <glyph glyph-name="hyphen" unicode="-" horiz-adv-x="897" 
d="M733 487h-581l30 197h582z" />
    <glyph glyph-name="period" unicode="." horiz-adv-x="661" 
d="M383 0h-272l43 274h274z" />
    <glyph glyph-name="slash" unicode="/" 
d="M1120 0h-999l241 1516h1000zM569 1315l-178 -1114h520l179 1114h-521z" />
    <glyph glyph-name="zero" unicode="0" horiz-adv-x="1167" 
d="M545 -27q-244 0 -357 192t-61 531l23 148q22 150 61.5 263t102.5 199t155.5 130.5t212.5 44.5q245 0 358 -192.5t62 -530.5l-23 -148q-22 -151 -61.5 -264.5t-102.5 -199t-156 -129.5t-214 -44zM553 168q123 0 186 97.5t97 314.5l32 202q78 504 -194 504
q-123 0 -185.5 -98.5t-97.5 -315.5l-33 -200q-41 -257 12.5 -380.5t182.5 -123.5z" />
    <glyph glyph-name="one" unicode="1" horiz-adv-x="749" 
d="M494 0h-234l178 1110q-116 -97 -286 -141l34 227q211 61 365 258h172z" />
    <glyph glyph-name="two" unicode="2" horiz-adv-x="1021" 
d="M881 0h-906l19 133q13 80 31.5 141.5t54.5 126.5t89.5 119t135 109.5t191.5 107.5q164 77 230 142t81 143l2 10q22 116 -27 186t-155 70t-166.5 -64.5t-83.5 -199.5h-232q37 221 160.5 339t327.5 118q201 0 319 -126t88 -321l-2 -12q-10 -67 -33.5 -120t-71.5 -110
t-131 -113t-204 -116q-95 -48 -157.5 -90t-101 -86t-58 -86.5t-31.5 -99.5h663z" />
    <glyph glyph-name="three" unicode="3" horiz-adv-x="1167" 
d="M541 -27q-218 0 -346 123.5t-115 337.5h227q-1 -134 62.5 -200t183.5 -66q110 0 175 52t81 142l4 25q24 130 -38.5 202.5t-182.5 72.5h-115l29 182h139q95 0 161 47t79 129l4 22q21 118 -36.5 184t-160.5 66q-114 0 -178.5 -65t-91.5 -203h-219q37 222 162 339.5
t335 117.5q90 0 170.5 -30.5t140.5 -85t88 -139.5t11 -186l-4 -24q-17 -95 -85.5 -168.5t-162.5 -99.5q98 -38 153.5 -138t32.5 -239l-4 -27q-27 -170 -156.5 -270.5t-342.5 -100.5z" />
    <glyph glyph-name="four" unicode="4" horiz-adv-x="1167" 
d="M827 0h-231l55 350h-622l30 185l758 919h240l-146 -917h185l-33 -187h-180zM776 1149l-504 -614h410z" />
    <glyph glyph-name="five" unicode="5" horiz-adv-x="1167" 
d="M545 -27q-209 0 -333 118.5t-118 324.5h230q-1 -125 63 -187.5t168 -62.5q110 0 177.5 64.5t86.5 177.5l4 30q27 154 -37 241t-178 87q-151 0 -237 -141l-195 14l244 815h729l-31 -199h-557l-119 -401q88 94 240 94q87 0 163 -37.5t129.5 -103.5t76.5 -165.5t4 -215.5
l-4 -25q-34 -200 -166.5 -314t-339.5 -114z" />
    <glyph glyph-name="six" unicode="6" horiz-adv-x="1167" 
d="M571 -27q-259 0 -378 196t-60 568l14 103q50 312 179 476.5t362 164.5q180 0 301.5 -108.5t134.5 -299.5h-219q-12 110 -71 164.5t-152 54.5q-135 0 -207.5 -110.5t-114.5 -366.5l-6 -41q45 74 128 119t182 45q189 0 304 -150.5t81 -377.5l-5 -27q-30 -186 -156 -298
t-317 -112zM565 164q101 0 163.5 61t80.5 168l4 29q26 152 -34 242t-177 90q-102 0 -165 -64.5t-81 -169.5l-4 -24q-26 -150 34.5 -241t178.5 -91z" />
    <glyph glyph-name="seven" unicode="7" horiz-adv-x="1062" 
d="M422 0h-250q193 642 682 1251h-664l31 203h940l-24 -164q-518 -604 -715 -1290z" />
    <glyph glyph-name="eight" unicode="8" horiz-adv-x="1167" 
d="M537 -27q-105 0 -195 32t-153.5 90.5t-92 148.5t-10.5 198l4 27q19 116 108 200t197 111q-86 41 -132.5 134t-24.5 216l4 25q25 149 143.5 237.5t306.5 88.5q92 0 173 -30.5t139 -84.5t84.5 -137t9.5 -180l-4 -23q-16 -97 -89 -172.5t-161 -103.5q103 -45 161 -147.5
t35 -242.5l-4 -24q-27 -166 -156.5 -264.5t-342.5 -98.5zM647 852q89 0 151 47t79 129l4 25q22 113 -38.5 180t-166.5 67q-88 0 -145.5 -47.5t-75.5 -128.5l-4 -22q-25 -115 35 -182.5t161 -67.5zM549 162q105 0 175.5 57t84.5 150l6 26q20 122 -48 195.5t-183 73.5
q-103 0 -177.5 -58t-87.5 -151l-4 -27q-22 -123 46.5 -194.5t187.5 -71.5z" />
    <glyph glyph-name="nine" unicode="9" horiz-adv-x="1167" 
d="M541 -27q-179 0 -301.5 108.5t-135.5 299.5h222q12 -109 70.5 -164t150.5 -55q134 0 206.5 110t116.5 367l7 43q-46 -76 -129 -121t-183 -45q-91 0 -168.5 40t-130.5 108.5t-75.5 168t-6.5 211.5l4 27q28 187 154 298.5t317 111.5q258 0 378 -196.5t61 -567.5l-17 -103
q-50 -313 -178 -477t-362 -164zM629 700q102 0 165.5 65t79.5 169l5 24q26 150 -35.5 242t-181.5 92q-98 0 -161.5 -62.5t-78.5 -168.5l-4 -29q-21 -154 37 -243t174 -89z" />
    <glyph glyph-name="colon" unicode=":" 
d="M1120 0h-999l241 1516h1000zM569 1315l-178 -1114h520l179 1114h-521z" />
    <glyph glyph-name="semicolon" unicode=";" 
d="M1120 0h-999l241 1516h1000zM569 1315l-178 -1114h520l179 1114h-521z" />
    <glyph glyph-name="less" unicode="&#x3c;" 
d="M1120 0h-999l241 1516h1000zM569 1315l-178 -1114h520l179 1114h-521z" />
    <glyph glyph-name="equal" unicode="=" 
d="M1120 0h-999l241 1516h1000zM569 1315l-178 -1114h520l179 1114h-521z" />
    <glyph glyph-name="greater" unicode="&#x3e;" 
d="M1120 0h-999l241 1516h1000zM569 1315l-178 -1114h520l179 1114h-521z" />
    <glyph glyph-name="question" unicode="?" 
d="M1120 0h-999l241 1516h1000zM569 1315l-178 -1114h520l179 1114h-521z" />
    <glyph glyph-name="at" unicode="@" 
d="M1120 0h-999l241 1516h1000zM569 1315l-178 -1114h520l179 1114h-521z" />
    <glyph glyph-name="A" unicode="A" horiz-adv-x="1310" 
d="M1202 0h-244l-57 360h-541l-174 -360h-245l733 1454h256zM764 1200l-311 -647h415z" />
    <glyph glyph-name="B" unicode="B" horiz-adv-x="1296" 
d="M729 0h-645l229 1454h543q196 0 299 -124t72 -304l-4 -25q-15 -85 -69.5 -153t-137.5 -103q93 -53 137 -156.5t23 -228.5l-5 -24q-27 -154 -143.5 -245t-298.5 -91zM520 1255l-65 -415h309q89 0 143 42t70 113l4 19q26 109 -26 175t-156 66h-279zM424 643l-72 -444h357
q94 0 152.5 46t70.5 130l4 26q18 108 -34.5 175t-164.5 67h-313z" />
    <glyph glyph-name="C" unicode="C" horiz-adv-x="1343" 
d="M680 -27q-292 0 -445 211t-100 559l19 107q45 297 209 464t428 167q226 0 373 -130t167 -354h-246q-17 136 -96 208.5t-203 72.5q-160 0 -258.5 -111t-132.5 -329l-18 -107q-41 -262 44.5 -408.5t268.5 -146.5q144 0 227 75.5t119 225.5h244q-118 -504 -600 -504z" />
    <glyph glyph-name="D" unicode="D" horiz-adv-x="1390" 
d="M610 0h-526l229 1454h463q143 0 256.5 -52t185.5 -149t99.5 -236.5t-0.5 -314.5l-14 -94q-49 -295 -228.5 -451.5t-464.5 -156.5zM520 1255l-168 -1056h266q375 0 443 419l14 93q43 270 -45 407t-274 137h-236z" />
    <glyph glyph-name="E" unicode="E" horiz-adv-x="1212" 
d="M1014 0h-930l229 1454h918l-31 -199h-680l-63 -413h620l-33 -199h-620l-70 -440h690z" />
    <glyph glyph-name="F" unicode="F" horiz-adv-x="1126" 
d="M322 0h-238l229 1454h873l-31 -199h-635l-67 -438h571l-31 -199h-571z" />
    <glyph glyph-name="G" unicode="G" horiz-adv-x="1398" 
d="M657 -27q-138 0 -248 53.5t-180 153t-96.5 241t2.5 316.5l17 109q48 302 214 468.5t437 166.5q233 0 383 -129t162 -348h-238q-13 134 -94.5 204t-216.5 70q-170 0 -272 -117t-134 -327l-14 -109q-39 -260 49 -404.5t277 -144.5q161 0 254.5 96.5t123.5 274.5l4 35h-374
l30 194h582l-125 -776h-174l6 158q-62 -87 -158 -136t-217 -49z" />
    <glyph glyph-name="H" unicode="H" horiz-adv-x="1425" 
d="M326 0h-242l229 1454h242l-96 -606h612l94 606h240l-229 -1454h-240l102 647h-612z" />
    <glyph glyph-name="I" unicode="I" horiz-adv-x="573" 
d="M324 0h-240l229 1454h240z" />
    <glyph glyph-name="J" unicode="J" horiz-adv-x="1142" 
d="M485 -27q-216 0 -332 130.5t-83 347.5l8 53h229l-8 -55q-20 -135 32.5 -203t164.5 -68q109 0 166 59.5t75 174.5l164 1042h234l-166 -1048q-69 -433 -484 -433z" />
    <glyph glyph-name="K" unicode="K" horiz-adv-x="1257" 
d="M319 0h-235l229 1454h236l-105 -659l643 659h273l-606 -618l395 -836h-248l-319 684l-185 -184z" />
    <glyph glyph-name="L" unicode="L" horiz-adv-x="1001" 
d="M858 0h-774l229 1454h240l-197 -1251h535z" />
    <glyph glyph-name="M" unicode="M" horiz-adv-x="1703" 
d="M313 0h-229l229 1454h334l176 -1149l523 1149h337l-229 -1454h-227l180 1145l-533 -1145h-194l-182 1165z" />
    <glyph glyph-name="N" unicode="N" horiz-adv-x="1429" 
d="M309 0h-225l229 1454h277l416 -1102l176 1102h225l-229 -1454h-263l-426 1139z" />
    <glyph glyph-name="O" unicode="O" horiz-adv-x="1462" 
d="M711 -27q-205 0 -347 96t-201.5 271.5t-25.5 404.5l13 95q45 305 216.5 473t446.5 168q206 0 349.5 -96t203.5 -272t23 -406l-15 -93q-48 -306 -218 -473.5t-445 -167.5zM715 176q341 0 413 442l17 105q40 256 -49 405.5t-287 149.5q-345 0 -414 -444l-16 -105
q-41 -256 48 -404.5t288 -148.5z" />
    <glyph glyph-name="P" unicode="P" horiz-adv-x="1236" 
d="M322 0h-238l229 1454h512q215 0 329.5 -141.5t80.5 -351.5l-4 -29q-28 -177 -157 -277t-333 -100h-329zM520 1255l-78 -503h301q110 0 173 55t77 149l4 27q19 123 -38.5 197.5t-180.5 74.5h-258z" />
    <glyph glyph-name="Q" unicode="Q" horiz-adv-x="1462" 
d="M813 1481q206 0 349.5 -96t203.5 -272t23 -406l-15 -93q-31 -198 -115.5 -341t-216.5 -218l95 -229h-226l-65 160q-70 -13 -135 -13q-205 0 -347 96t-201.5 271.5t-25.5 404.5l13 95q45 305 216.5 473t446.5 168zM1128 618l17 105q40 256 -49 405.5t-287 149.5
q-345 0 -414 -444l-16 -105q-41 -256 48 -404.5t288 -148.5q35 0 51 2l-117 285h223l86 -205q129 108 170 360z" />
    <glyph glyph-name="R" unicode="R" horiz-adv-x="1247" 
d="M322 0h-238l229 1454h531q140 0 241 -66t143.5 -178t22.5 -249l-4 -31q-22 -145 -114.5 -238.5t-241.5 -122.5l239 -569h-253l-228 555h-237zM520 1255l-78 -503h318q110 0 173 55t77 149l4 27q19 123 -38.5 197.5t-180.5 74.5h-275z" />
    <glyph glyph-name="S" unicode="S" horiz-adv-x="1228" 
d="M596 -27q-256 0 -403 132.5t-117 351.5h231q-17 -138 63 -213.5t236 -75.5q121 0 192 45.5t83 130.5l4 18q15 107 -48.5 171.5t-238.5 113.5q-218 65 -311.5 177t-67.5 284l4 22q25 159 155 255t327 96q242 0 375 -123.5t116 -325.5h-233q10 122 -57.5 189t-200.5 67
q-109 0 -174.5 -46t-77.5 -128l-2 -16q-14 -100 44.5 -156.5t227.5 -105.5q228 -69 324 -188.5t67 -299.5l-4 -26q-25 -160 -161.5 -254.5t-352.5 -94.5z" />
    <glyph glyph-name="T" unicode="T" horiz-adv-x="1114" 
d="M594 0h-238l199 1251h-381l31 203h999l-30 -203h-381z" />
    <glyph glyph-name="U" unicode="U" horiz-adv-x="1384" 
d="M647 -27q-123 0 -221.5 39.5t-164 112.5t-92 184t-5.5 248l139 897h236l-146 -915q-58 -361 269 -361q275 0 323 309l152 967h237l-151 -973q-18 -117 -58 -207t-107.5 -159t-171 -105.5t-239.5 -36.5z" />
    <glyph glyph-name="V" unicode="V" horiz-adv-x="1222" 
d="M657 0h-258l-229 1454h242l159 -1169l525 1169h252z" />
    <glyph glyph-name="W" unicode="W" horiz-adv-x="1798" 
d="M557 0h-270l-117 1454h240l67 -1137l451 1137h248l86 -1143l426 1143h235l-580 -1454h-260l-79 1126z" />
    <glyph glyph-name="X" unicode="X" horiz-adv-x="1273" 
d="M213 0h-274l602 760l-340 694h260l235 -514l396 514h270l-559 -700l364 -754h-260l-258 561z" />
    <glyph glyph-name="Y" unicode="Y" horiz-adv-x="1179" 
d="M625 0h-234l76 471l-303 983h244l206 -747l445 747h254l-613 -983z" />
    <glyph glyph-name="Z" unicode="Z" horiz-adv-x="1085" 
d="M926 0h-934l28 176l814 1079h-609l33 199h881l-27 -178l-807 -1077h653z" />
    <glyph glyph-name="bracketleft" unicode="[" 
d="M1120 0h-999l241 1516h1000zM569 1315l-178 -1114h520l179 1114h-521z" />
    <glyph glyph-name="backslash" unicode="\" 
d="M1120 0h-999l241 1516h1000zM569 1315l-178 -1114h520l179 1114h-521z" />
    <glyph glyph-name="bracketright" unicode="]" 
d="M1120 0h-999l241 1516h1000zM569 1315l-178 -1114h520l179 1114h-521z" />
    <glyph glyph-name="asciicircum" unicode="^" 
d="M1120 0h-999l241 1516h1000zM569 1315l-178 -1114h520l179 1114h-521z" />
    <glyph glyph-name="underscore" unicode="_" 
d="M1120 0h-999l241 1516h1000zM569 1315l-178 -1114h520l179 1114h-521z" />
    <glyph glyph-name="grave" unicode="`" 
d="M1120 0h-999l241 1516h1000zM569 1315l-178 -1114h520l179 1114h-521z" />
    <glyph glyph-name="a" unicode="a" horiz-adv-x="1075" 
d="M350 -27q-146 0 -232.5 96t-64.5 240q19 121 101 190.5t235 92.5l344 49l10 68q16 99 -32.5 148.5t-132.5 49.5q-162 0 -201 -155h-211q32 159 140 243t282 84q191 0 294.5 -105t73.5 -290l-108 -684h-205l12 121q-110 -148 -305 -148zM420 150q105 0 178 57t90 153
l19 117l-283 -39q-137 -21 -150 -127q-12 -75 29.5 -118t116.5 -43z" />
    <glyph glyph-name="b" unicode="b" horiz-adv-x="1185" 
d="M623 -27q-117 0 -199 52.5t-117 132.5l-28 -158h-209l243 1540h226l-95 -586q102 125 283 125q92 0 166.5 -37.5t124.5 -105.5t70 -170.5t2 -226.5l-17 -111q-31 -214 -150.5 -334.5t-299.5 -120.5zM584 154q226 0 264 284l18 129q23 158 -36 246t-183 88
q-227 0 -268 -283l-19 -126q-23 -160 37.5 -249t186.5 -89z" />
    <glyph glyph-name="c" unicode="c" horiz-adv-x="1071" 
d="M526 -27q-228 0 -345 153t-83 400l15 97q31 221 155 338.5t328 117.5q182 0 290.5 -104t114.5 -273h-223q-5 94 -53 144.5t-137 50.5q-210 0 -250 -279l-16 -126q-23 -160 32.5 -248t175.5 -88q178 0 215 200h222q-27 -180 -141 -281.5t-300 -101.5z" />
    <glyph glyph-name="d" unicode="d" horiz-adv-x="1183" 
d="M459 -27q-189 0 -293.5 151t-67.5 404l13 90q32 217 152.5 339t303.5 122q107 0 184.5 -45.5t114.5 -118.5l101 625h225l-244 -1540h-209l15 117q-46 -65 -121 -104.5t-174 -39.5zM541 154q225 0 266 282l18 127q23 159 -37.5 248.5t-185.5 89.5q-228 0 -266 -285
l-19 -129q-23 -156 38 -244.5t186 -88.5z" />
    <glyph glyph-name="e" unicode="e" horiz-adv-x="1114" 
d="M535 -27q-230 0 -350.5 153t-86.5 400l15 97q31 220 159 338t334 118q237 0 347 -163.5t63 -436.5h-697q-19 -155 40 -240t180 -85q177 0 225 165h223q-41 -163 -155 -254.5t-297 -91.5zM342 639h471q4 127 -51 194.5t-160 67.5q-213 0 -260 -262z" />
    <glyph glyph-name="f" unicode="f" horiz-adv-x="737" 
d="M354 0h-225l139 885h-180l27 170h182l37 233q23 146 107 212.5t237 66.5q100 0 178 -29l-29 -172q-61 18 -114 18q-77 0 -113 -30.5t-47 -98.5l-33 -200h254l-26 -170h-254z" />
    <glyph glyph-name="g" unicode="g" horiz-adv-x="1183" 
d="M459 -375q-195 0 -309 84t-119 221h227q4 -64 61 -99.5t148 -35.5q228 0 258 211l25 150q-109 -136 -291 -136q-183 0 -287.5 148t-71.5 375l11 78q31 217 148 337.5t300 120.5q117 0 199.5 -53t115.5 -135l35 164h207l-164 -1032q-65 -398 -493 -398zM545 203
q224 0 262 268l14 104q22 155 -36 240.5t-183 85.5q-224 0 -266 -274l-17 -111q-21 -146 41 -229.5t185 -83.5z" />
    <glyph glyph-name="h" unicode="h" horiz-adv-x="1146" 
d="M293 0h-225l243 1540h228l-95 -596q96 135 271 135q164 0 253.5 -110t59.5 -295l-106 -674h-224l103 662q17 112 -25.5 172.5t-138.5 60.5q-102 0 -163.5 -67t-80.5 -189z" />
    <glyph glyph-name="i" unicode="i" horiz-adv-x="530" 
d="M500 1255h-240l45 285h238zM295 0h-225l166 1055h225z" />
    <glyph glyph-name="j" unicode="j" horiz-adv-x="507" 
d="M477 1255h-239l45 285h237zM-82 -375q-81 0 -147 29l28 172q51 -19 95 -19q66 0 98 29.5t43 91.5l178 1127h227l-182 -1145q-45 -285 -340 -285z" />
    <glyph glyph-name="k" unicode="k" horiz-adv-x="1028" 
d="M293 0h-225l245 1540h226l-144 -895l424 410h260l-440 -422l291 -633h-232l-225 502l-117 -111z" />
    <glyph glyph-name="l" unicode="l" horiz-adv-x="528" 
d="M293 0h-225l243 1540h226z" />
    <glyph glyph-name="m" unicode="m" horiz-adv-x="1724" 
d="M295 0h-225l166 1055h215l-13 -119q42 65 112 104t161 39q98 0 169.5 -46.5t106.5 -133.5q110 180 307 180q161 0 251.5 -110.5t60.5 -294.5l-109 -674h-225l104 662q19 111 -21.5 172t-129.5 61q-182 0 -226 -256l-104 -639h-223l104 662q19 112 -22 172.5t-131 60.5
q-96 0 -153 -67t-75 -189z" />
    <glyph glyph-name="n" unicode="n" horiz-adv-x="1148" 
d="M293 0h-223l166 1055h210l-14 -127q45 69 118 110t167 41q164 0 253.5 -110t59.5 -295l-106 -674h-224l103 662q17 113 -24.5 173t-139.5 60q-102 0 -164.5 -67.5t-81.5 -188.5z" />
    <glyph glyph-name="o" unicode="o" horiz-adv-x="1146" 
d="M535 -27q-230 0 -350.5 152.5t-86.5 400.5l15 97q31 220 160 338t337 118q232 0 352 -151.5t85 -399.5l-13 -98q-31 -220 -161 -338.5t-338 -118.5zM543 154q113 0 178.5 70t85.5 212l18 127q23 161 -36 249.5t-185 88.5q-225 0 -266 -283l-16 -126q-23 -160 37 -249
t184 -89z" />
    <glyph glyph-name="p" unicode="p" horiz-adv-x="1185" 
d="M240 -348h-226l222 1403h210l-16 -119q103 143 299 143q91 0 165.5 -37.5t124.5 -105.5t69.5 -170.5t1.5 -226.5l-17 -111q-31 -214 -150 -334.5t-300 -120.5q-112 0 -191 47.5t-115 122.5zM586 154q223 0 264 284l18 129q22 159 -37 246.5t-184 87.5q-112 0 -180 -71.5
t-88 -211.5l-17 -126q-24 -159 37 -248.5t187 -89.5z" />
    <glyph glyph-name="q" unicode="q" horiz-adv-x="1183" 
d="M893 -348h-223l71 450q-103 -129 -284 -129q-187 0 -290 151t-69 404l13 90q29 216 150.5 338.5t305.5 122.5q118 0 199.5 -52.5t112.5 -133.5l32 162h205zM539 154q225 0 266 282l18 127q23 160 -37 249t-186 89q-112 0 -178.5 -72.5t-85.5 -212.5l-19 -129
q-22 -157 38.5 -245t183.5 -88z" />
    <glyph glyph-name="r" unicode="r" horiz-adv-x="761" 
d="M295 0h-225l166 1055h215l-21 -160q106 180 311 180q29 0 56 -6l-37 -215q-20 2 -64 2q-268 0 -313 -283z" />
    <glyph glyph-name="s" unicode="s" horiz-adv-x="999" 
d="M457 -27q-189 0 -298 94t-106 261h213q0 -94 54 -140.5t145 -46.5q166 0 184 123q12 78 -28.5 118.5t-159.5 72.5q-171 46 -246.5 134t-54.5 226q21 122 119.5 193t261.5 71q180 0 284.5 -88.5t98.5 -240.5h-209q0 79 -46.5 121t-129.5 42q-153 0 -168 -110
q-10 -72 27.5 -109.5t150.5 -68.5q190 -53 266 -141.5t53 -233.5q-20 -129 -130.5 -203t-280.5 -74z" />
    <glyph glyph-name="t" unicode="t" horiz-adv-x="780" 
d="M467 -27q-159 0 -237 88t-52 252l90 572h-180l27 170h182l51 329h225l-51 -329h252l-26 -170h-254l-91 -574q-13 -81 18.5 -117t110.5 -36q60 0 109 18l-29 -178q-66 -25 -145 -25z" />
    <glyph glyph-name="u" unicode="u" horiz-adv-x="1138" 
d="M418 -27q-156 0 -242.5 111.5t-56.5 296.5l106 674h228l-105 -662q-19 -113 20.5 -173t133.5 -60q99 0 159.5 67t79.5 189l101 639h229l-168 -1055h-213l17 127q-44 -70 -118 -112t-171 -42z" />
    <glyph glyph-name="v" unicode="v" horiz-adv-x="1011" 
d="M549 0h-250l-184 1055h229l117 -830l379 830h223z" />
    <glyph glyph-name="w" unicode="w" horiz-adv-x="1490" 
d="M469 0h-238l-116 1055h219l63 -799l320 799h219l65 -811l324 811h219l-454 -1055h-234l-70 780z" />
    <glyph glyph-name="x" unicode="x" horiz-adv-x="1011" 
d="M197 0h-250l436 545l-252 510h238l159 -342l269 342h245l-413 -518l268 -537h-235l-177 371z" />
    <glyph glyph-name="y" unicode="y" horiz-adv-x="1011" 
d="M367 -348h-232l178 356l-198 1047h229l119 -793l368 793h234z" />
    <glyph glyph-name="z" unicode="z" horiz-adv-x="954" 
d="M780 0h-768l25 162l606 715h-461l29 178h717l-25 -160l-600 -717h506z" />
    <glyph glyph-name="braceleft" unicode="{" 
d="M1120 0h-999l241 1516h1000zM569 1315l-178 -1114h520l179 1114h-521z" />
    <glyph glyph-name="bar" unicode="|" 
d="M1120 0h-999l241 1516h1000zM569 1315l-178 -1114h520l179 1114h-521z" />
    <glyph glyph-name="braceright" unicode="}" 
d="M1120 0h-999l241 1516h1000zM569 1315l-178 -1114h520l179 1114h-521z" />
    <glyph glyph-name="asciitilde" unicode="~" 
d="M1120 0h-999l241 1516h1000zM569 1315l-178 -1114h520l179 1114h-521z" />
    <glyph glyph-name="uni00A0" unicode="&#xa0;" 
d="M1120 0h-999l241 1516h1000zM569 1315l-178 -1114h520l179 1114h-521z" />
    <glyph glyph-name="exclamdown" unicode="&#xa1;" 
d="M1120 0h-999l241 1516h1000zM569 1315l-178 -1114h520l179 1114h-521z" />
    <glyph glyph-name="cent" unicode="&#xa2;" 
d="M1120 0h-999l241 1516h1000zM569 1315l-178 -1114h520l179 1114h-521z" />
    <glyph glyph-name="sterling" unicode="&#xa3;" 
d="M1120 0h-999l241 1516h1000zM569 1315l-178 -1114h520l179 1114h-521z" />
    <glyph glyph-name="currency" unicode="&#xa4;" 
d="M1120 0h-999l241 1516h1000zM569 1315l-178 -1114h520l179 1114h-521z" />
    <glyph glyph-name="yen" unicode="&#xa5;" 
d="M1120 0h-999l241 1516h1000zM569 1315l-178 -1114h520l179 1114h-521z" />
    <glyph glyph-name="brokenbar" unicode="&#xa6;" 
d="M1120 0h-999l241 1516h1000zM569 1315l-178 -1114h520l179 1114h-521z" />
    <glyph glyph-name="section" unicode="&#xa7;" 
d="M1120 0h-999l241 1516h1000zM569 1315l-178 -1114h520l179 1114h-521z" />
    <glyph glyph-name="dieresis" unicode="&#xa8;" 
d="M1120 0h-999l241 1516h1000zM569 1315l-178 -1114h520l179 1114h-521z" />
    <glyph glyph-name="copyright" unicode="&#xa9;" 
d="M1120 0h-999l241 1516h1000zM569 1315l-178 -1114h520l179 1114h-521z" />
    <glyph glyph-name="ordfeminine" unicode="&#xaa;" 
d="M1120 0h-999l241 1516h1000zM569 1315l-178 -1114h520l179 1114h-521z" />
    <glyph glyph-name="guillemotleft" unicode="&#xab;" 
d="M1120 0h-999l241 1516h1000zM569 1315l-178 -1114h520l179 1114h-521z" />
    <glyph glyph-name="logicalnot" unicode="&#xac;" 
d="M1120 0h-999l241 1516h1000zM569 1315l-178 -1114h520l179 1114h-521z" />
    <glyph glyph-name="uni00AD" unicode="&#xad;" 
d="M1120 0h-999l241 1516h1000zM569 1315l-178 -1114h520l179 1114h-521z" />
    <glyph glyph-name="registered" unicode="&#xae;" 
d="M1120 0h-999l241 1516h1000zM569 1315l-178 -1114h520l179 1114h-521z" />
    <glyph glyph-name="macron" unicode="&#xaf;" 
d="M1120 0h-999l241 1516h1000zM569 1315l-178 -1114h520l179 1114h-521z" />
    <glyph glyph-name="degree" unicode="&#xb0;" 
d="M1120 0h-999l241 1516h1000zM569 1315l-178 -1114h520l179 1114h-521z" />
    <glyph glyph-name="plusminus" unicode="&#xb1;" 
d="M1120 0h-999l241 1516h1000zM569 1315l-178 -1114h520l179 1114h-521z" />
    <glyph glyph-name="uni00B2" unicode="&#xb2;" 
d="M1120 0h-999l241 1516h1000zM569 1315l-178 -1114h520l179 1114h-521z" />
    <glyph glyph-name="uni00B3" unicode="&#xb3;" 
d="M1120 0h-999l241 1516h1000zM569 1315l-178 -1114h520l179 1114h-521z" />
    <glyph glyph-name="acute" unicode="&#xb4;" 
d="M1120 0h-999l241 1516h1000zM569 1315l-178 -1114h520l179 1114h-521z" />
    <glyph glyph-name="uni00B5" unicode="&#xb5;" 
d="M1120 0h-999l241 1516h1000zM569 1315l-178 -1114h520l179 1114h-521z" />
    <glyph glyph-name="paragraph" unicode="&#xb6;" 
d="M1120 0h-999l241 1516h1000zM569 1315l-178 -1114h520l179 1114h-521z" />
    <glyph glyph-name="periodcentered" unicode="&#xb7;" 
d="M1120 0h-999l241 1516h1000zM569 1315l-178 -1114h520l179 1114h-521z" />
    <glyph glyph-name="cedilla" unicode="&#xb8;" 
d="M1120 0h-999l241 1516h1000zM569 1315l-178 -1114h520l179 1114h-521z" />
    <glyph glyph-name="uni00B9" unicode="&#xb9;" 
d="M1120 0h-999l241 1516h1000zM569 1315l-178 -1114h520l179 1114h-521z" />
    <glyph glyph-name="ordmasculine" unicode="&#xba;" 
d="M1120 0h-999l241 1516h1000zM569 1315l-178 -1114h520l179 1114h-521z" />
    <glyph glyph-name="guillemotright" unicode="&#xbb;" 
d="M1120 0h-999l241 1516h1000zM569 1315l-178 -1114h520l179 1114h-521z" />
    <glyph glyph-name="onequarter" unicode="&#xbc;" 
d="M1120 0h-999l241 1516h1000zM569 1315l-178 -1114h520l179 1114h-521z" />
    <glyph glyph-name="onehalf" unicode="&#xbd;" 
d="M1120 0h-999l241 1516h1000zM569 1315l-178 -1114h520l179 1114h-521z" />
    <glyph glyph-name="threequarters" unicode="&#xbe;" 
d="M1120 0h-999l241 1516h1000zM569 1315l-178 -1114h520l179 1114h-521z" />
    <glyph glyph-name="questiondown" unicode="&#xbf;" 
d="M1120 0h-999l241 1516h1000zM569 1315l-178 -1114h520l179 1114h-521z" />
    <glyph glyph-name="Agrave" unicode="&#xc0;" 
d="M1120 0h-999l241 1516h1000zM569 1315l-178 -1114h520l179 1114h-521z" />
    <glyph glyph-name="Aacute" unicode="&#xc1;" 
d="M1120 0h-999l241 1516h1000zM569 1315l-178 -1114h520l179 1114h-521z" />
    <glyph glyph-name="Acircumflex" unicode="&#xc2;" 
d="M1120 0h-999l241 1516h1000zM569 1315l-178 -1114h520l179 1114h-521z" />
    <glyph glyph-name="Atilde" unicode="&#xc3;" 
d="M1120 0h-999l241 1516h1000zM569 1315l-178 -1114h520l179 1114h-521z" />
    <glyph glyph-name="Adieresis" unicode="&#xc4;" 
d="M1120 0h-999l241 1516h1000zM569 1315l-178 -1114h520l179 1114h-521z" />
    <glyph glyph-name="Aring" unicode="&#xc5;" 
d="M1120 0h-999l241 1516h1000zM569 1315l-178 -1114h520l179 1114h-521z" />
    <glyph glyph-name="AE" unicode="&#xc6;" 
d="M1120 0h-999l241 1516h1000zM569 1315l-178 -1114h520l179 1114h-521z" />
    <glyph glyph-name="Ccedilla" unicode="&#xc7;" 
d="M1120 0h-999l241 1516h1000zM569 1315l-178 -1114h520l179 1114h-521z" />
    <glyph glyph-name="Egrave" unicode="&#xc8;" 
d="M1120 0h-999l241 1516h1000zM569 1315l-178 -1114h520l179 1114h-521z" />
    <glyph glyph-name="Eacute" unicode="&#xc9;" 
d="M1120 0h-999l241 1516h1000zM569 1315l-178 -1114h520l179 1114h-521z" />
    <glyph glyph-name="Ecircumflex" unicode="&#xca;" 
d="M1120 0h-999l241 1516h1000zM569 1315l-178 -1114h520l179 1114h-521z" />
    <glyph glyph-name="Edieresis" unicode="&#xcb;" 
d="M1120 0h-999l241 1516h1000zM569 1315l-178 -1114h520l179 1114h-521z" />
    <glyph glyph-name="Igrave" unicode="&#xcc;" 
d="M1120 0h-999l241 1516h1000zM569 1315l-178 -1114h520l179 1114h-521z" />
    <glyph glyph-name="Iacute" unicode="&#xcd;" 
d="M1120 0h-999l241 1516h1000zM569 1315l-178 -1114h520l179 1114h-521z" />
    <glyph glyph-name="Icircumflex" unicode="&#xce;" 
d="M1120 0h-999l241 1516h1000zM569 1315l-178 -1114h520l179 1114h-521z" />
    <glyph glyph-name="Idieresis" unicode="&#xcf;" 
d="M1120 0h-999l241 1516h1000zM569 1315l-178 -1114h520l179 1114h-521z" />
    <glyph glyph-name="Eth" unicode="&#xd0;" 
d="M1120 0h-999l241 1516h1000zM569 1315l-178 -1114h520l179 1114h-521z" />
    <glyph glyph-name="Ntilde" unicode="&#xd1;" 
d="M1120 0h-999l241 1516h1000zM569 1315l-178 -1114h520l179 1114h-521z" />
    <glyph glyph-name="Ograve" unicode="&#xd2;" 
d="M1120 0h-999l241 1516h1000zM569 1315l-178 -1114h520l179 1114h-521z" />
    <glyph glyph-name="Oacute" unicode="&#xd3;" 
d="M1120 0h-999l241 1516h1000zM569 1315l-178 -1114h520l179 1114h-521z" />
    <glyph glyph-name="Ocircumflex" unicode="&#xd4;" 
d="M1120 0h-999l241 1516h1000zM569 1315l-178 -1114h520l179 1114h-521z" />
    <glyph glyph-name="Otilde" unicode="&#xd5;" 
d="M1120 0h-999l241 1516h1000zM569 1315l-178 -1114h520l179 1114h-521z" />
    <glyph glyph-name="Odieresis" unicode="&#xd6;" 
d="M1120 0h-999l241 1516h1000zM569 1315l-178 -1114h520l179 1114h-521z" />
    <glyph glyph-name="multiply" unicode="&#xd7;" 
d="M1120 0h-999l241 1516h1000zM569 1315l-178 -1114h520l179 1114h-521z" />
    <glyph glyph-name="Oslash" unicode="&#xd8;" 
d="M1120 0h-999l241 1516h1000zM569 1315l-178 -1114h520l179 1114h-521z" />
    <glyph glyph-name="Ugrave" unicode="&#xd9;" 
d="M1120 0h-999l241 1516h1000zM569 1315l-178 -1114h520l179 1114h-521z" />
    <glyph glyph-name="Uacute" unicode="&#xda;" 
d="M1120 0h-999l241 1516h1000zM569 1315l-178 -1114h520l179 1114h-521z" />
    <glyph glyph-name="Ucircumflex" unicode="&#xdb;" 
d="M1120 0h-999l241 1516h1000zM569 1315l-178 -1114h520l179 1114h-521z" />
    <glyph glyph-name="Udieresis" unicode="&#xdc;" 
d="M1120 0h-999l241 1516h1000zM569 1315l-178 -1114h520l179 1114h-521z" />
    <glyph glyph-name="Yacute" unicode="&#xdd;" 
d="M1120 0h-999l241 1516h1000zM569 1315l-178 -1114h520l179 1114h-521z" />
    <glyph glyph-name="Thorn" unicode="&#xde;" 
d="M1120 0h-999l241 1516h1000zM569 1315l-178 -1114h520l179 1114h-521z" />
    <glyph glyph-name="germandbls" unicode="&#xdf;" 
d="M1120 0h-999l241 1516h1000zM569 1315l-178 -1114h520l179 1114h-521z" />
    <glyph glyph-name="agrave" unicode="&#xe0;" 
d="M1120 0h-999l241 1516h1000zM569 1315l-178 -1114h520l179 1114h-521z" />
    <glyph glyph-name="aacute" unicode="&#xe1;" 
d="M1120 0h-999l241 1516h1000zM569 1315l-178 -1114h520l179 1114h-521z" />
    <glyph glyph-name="acircumflex" unicode="&#xe2;" 
d="M1120 0h-999l241 1516h1000zM569 1315l-178 -1114h520l179 1114h-521z" />
    <glyph glyph-name="atilde" unicode="&#xe3;" 
d="M1120 0h-999l241 1516h1000zM569 1315l-178 -1114h520l179 1114h-521z" />
    <glyph glyph-name="adieresis" unicode="&#xe4;" 
d="M1120 0h-999l241 1516h1000zM569 1315l-178 -1114h520l179 1114h-521z" />
    <glyph glyph-name="aring" unicode="&#xe5;" 
d="M1120 0h-999l241 1516h1000zM569 1315l-178 -1114h520l179 1114h-521z" />
    <glyph glyph-name="ae" unicode="&#xe6;" 
d="M1120 0h-999l241 1516h1000zM569 1315l-178 -1114h520l179 1114h-521z" />
    <glyph glyph-name="ccedilla" unicode="&#xe7;" 
d="M1120 0h-999l241 1516h1000zM569 1315l-178 -1114h520l179 1114h-521z" />
    <glyph glyph-name="egrave" unicode="&#xe8;" 
d="M1120 0h-999l241 1516h1000zM569 1315l-178 -1114h520l179 1114h-521z" />
    <glyph glyph-name="eacute" unicode="&#xe9;" 
d="M1120 0h-999l241 1516h1000zM569 1315l-178 -1114h520l179 1114h-521z" />
    <glyph glyph-name="ecircumflex" unicode="&#xea;" 
d="M1120 0h-999l241 1516h1000zM569 1315l-178 -1114h520l179 1114h-521z" />
    <glyph glyph-name="edieresis" unicode="&#xeb;" 
d="M1120 0h-999l241 1516h1000zM569 1315l-178 -1114h520l179 1114h-521z" />
    <glyph glyph-name="igrave" unicode="&#xec;" 
d="M1120 0h-999l241 1516h1000zM569 1315l-178 -1114h520l179 1114h-521z" />
    <glyph glyph-name="iacute" unicode="&#xed;" 
d="M1120 0h-999l241 1516h1000zM569 1315l-178 -1114h520l179 1114h-521z" />
    <glyph glyph-name="icircumflex" unicode="&#xee;" 
d="M1120 0h-999l241 1516h1000zM569 1315l-178 -1114h520l179 1114h-521z" />
    <glyph glyph-name="idieresis" unicode="&#xef;" 
d="M1120 0h-999l241 1516h1000zM569 1315l-178 -1114h520l179 1114h-521z" />
    <glyph glyph-name="eth" unicode="&#xf0;" 
d="M1120 0h-999l241 1516h1000zM569 1315l-178 -1114h520l179 1114h-521z" />
    <glyph glyph-name="ntilde" unicode="&#xf1;" 
d="M1120 0h-999l241 1516h1000zM569 1315l-178 -1114h520l179 1114h-521z" />
    <glyph glyph-name="ograve" unicode="&#xf2;" 
d="M1120 0h-999l241 1516h1000zM569 1315l-178 -1114h520l179 1114h-521z" />
    <glyph glyph-name="oacute" unicode="&#xf3;" 
d="M1120 0h-999l241 1516h1000zM569 1315l-178 -1114h520l179 1114h-521z" />
    <glyph glyph-name="ocircumflex" unicode="&#xf4;" 
d="M1120 0h-999l241 1516h1000zM569 1315l-178 -1114h520l179 1114h-521z" />
    <glyph glyph-name="otilde" unicode="&#xf5;" 
d="M1120 0h-999l241 1516h1000zM569 1315l-178 -1114h520l179 1114h-521z" />
    <glyph glyph-name="odieresis" unicode="&#xf6;" 
d="M1120 0h-999l241 1516h1000zM569 1315l-178 -1114h520l179 1114h-521z" />
    <glyph glyph-name="divide" unicode="&#xf7;" 
d="M1120 0h-999l241 1516h1000zM569 1315l-178 -1114h520l179 1114h-521z" />
    <glyph glyph-name="oslash" unicode="&#xf8;" 
d="M1120 0h-999l241 1516h1000zM569 1315l-178 -1114h520l179 1114h-521z" />
    <glyph glyph-name="ugrave" unicode="&#xf9;" 
d="M1120 0h-999l241 1516h1000zM569 1315l-178 -1114h520l179 1114h-521z" />
    <glyph glyph-name="uacute" unicode="&#xfa;" 
d="M1120 0h-999l241 1516h1000zM569 1315l-178 -1114h520l179 1114h-521z" />
    <glyph glyph-name="ucircumflex" unicode="&#xfb;" 
d="M1120 0h-999l241 1516h1000zM569 1315l-178 -1114h520l179 1114h-521z" />
    <glyph glyph-name="udieresis" unicode="&#xfc;" 
d="M1120 0h-999l241 1516h1000zM569 1315l-178 -1114h520l179 1114h-521z" />
    <glyph glyph-name="yacute" unicode="&#xfd;" 
d="M1120 0h-999l241 1516h1000zM569 1315l-178 -1114h520l179 1114h-521z" />
    <glyph glyph-name="thorn" unicode="&#xfe;" 
d="M1120 0h-999l241 1516h1000zM569 1315l-178 -1114h520l179 1114h-521z" />
    <glyph glyph-name="ydieresis" unicode="&#xff;" 
d="M1120 0h-999l241 1516h1000zM569 1315l-178 -1114h520l179 1114h-521z" />
    <glyph glyph-name="Amacron" unicode="&#x100;" 
d="M1120 0h-999l241 1516h1000zM569 1315l-178 -1114h520l179 1114h-521z" />
    <glyph glyph-name="amacron" unicode="&#x101;" 
d="M1120 0h-999l241 1516h1000zM569 1315l-178 -1114h520l179 1114h-521z" />
    <glyph glyph-name="Abreve" unicode="&#x102;" 
d="M1120 0h-999l241 1516h1000zM569 1315l-178 -1114h520l179 1114h-521z" />
    <glyph glyph-name="abreve" unicode="&#x103;" 
d="M1120 0h-999l241 1516h1000zM569 1315l-178 -1114h520l179 1114h-521z" />
    <glyph glyph-name="Aogonek" unicode="&#x104;" 
d="M1120 0h-999l241 1516h1000zM569 1315l-178 -1114h520l179 1114h-521z" />
    <glyph glyph-name="aogonek" unicode="&#x105;" 
d="M1120 0h-999l241 1516h1000zM569 1315l-178 -1114h520l179 1114h-521z" />
    <glyph glyph-name="Cacute" unicode="&#x106;" 
d="M1120 0h-999l241 1516h1000zM569 1315l-178 -1114h520l179 1114h-521z" />
    <glyph glyph-name="cacute" unicode="&#x107;" 
d="M1120 0h-999l241 1516h1000zM569 1315l-178 -1114h520l179 1114h-521z" />
    <glyph glyph-name="Ccircumflex" unicode="&#x108;" 
d="M1120 0h-999l241 1516h1000zM569 1315l-178 -1114h520l179 1114h-521z" />
    <glyph glyph-name="ccircumflex" unicode="&#x109;" 
d="M1120 0h-999l241 1516h1000zM569 1315l-178 -1114h520l179 1114h-521z" />
    <glyph glyph-name="Cdotaccent" unicode="&#x10a;" 
d="M1120 0h-999l241 1516h1000zM569 1315l-178 -1114h520l179 1114h-521z" />
    <glyph glyph-name="cdotaccent" unicode="&#x10b;" 
d="M1120 0h-999l241 1516h1000zM569 1315l-178 -1114h520l179 1114h-521z" />
    <glyph glyph-name="Ccaron" unicode="&#x10c;" 
d="M1120 0h-999l241 1516h1000zM569 1315l-178 -1114h520l179 1114h-521z" />
    <glyph glyph-name="ccaron" unicode="&#x10d;" 
d="M1120 0h-999l241 1516h1000zM569 1315l-178 -1114h520l179 1114h-521z" />
    <glyph glyph-name="Dcaron" unicode="&#x10e;" 
d="M1120 0h-999l241 1516h1000zM569 1315l-178 -1114h520l179 1114h-521z" />
    <glyph glyph-name="dcaron" unicode="&#x10f;" 
d="M1120 0h-999l241 1516h1000zM569 1315l-178 -1114h520l179 1114h-521z" />
    <glyph glyph-name="Dcroat" unicode="&#x110;" 
d="M1120 0h-999l241 1516h1000zM569 1315l-178 -1114h520l179 1114h-521z" />
    <glyph glyph-name="dcroat" unicode="&#x111;" 
d="M1120 0h-999l241 1516h1000zM569 1315l-178 -1114h520l179 1114h-521z" />
    <glyph glyph-name="Emacron" unicode="&#x112;" 
d="M1120 0h-999l241 1516h1000zM569 1315l-178 -1114h520l179 1114h-521z" />
    <glyph glyph-name="emacron" unicode="&#x113;" 
d="M1120 0h-999l241 1516h1000zM569 1315l-178 -1114h520l179 1114h-521z" />
    <glyph glyph-name="Ebreve" unicode="&#x114;" 
d="M1120 0h-999l241 1516h1000zM569 1315l-178 -1114h520l179 1114h-521z" />
    <glyph glyph-name="ebreve" unicode="&#x115;" 
d="M1120 0h-999l241 1516h1000zM569 1315l-178 -1114h520l179 1114h-521z" />
    <glyph glyph-name="Edotaccent" unicode="&#x116;" 
d="M1120 0h-999l241 1516h1000zM569 1315l-178 -1114h520l179 1114h-521z" />
    <glyph glyph-name="edotaccent" unicode="&#x117;" 
d="M1120 0h-999l241 1516h1000zM569 1315l-178 -1114h520l179 1114h-521z" />
    <glyph glyph-name="Eogonek" unicode="&#x118;" 
d="M1120 0h-999l241 1516h1000zM569 1315l-178 -1114h520l179 1114h-521z" />
    <glyph glyph-name="eogonek" unicode="&#x119;" 
d="M1120 0h-999l241 1516h1000zM569 1315l-178 -1114h520l179 1114h-521z" />
    <glyph glyph-name="Ecaron" unicode="&#x11a;" 
d="M1120 0h-999l241 1516h1000zM569 1315l-178 -1114h520l179 1114h-521z" />
    <glyph glyph-name="ecaron" unicode="&#x11b;" 
d="M1120 0h-999l241 1516h1000zM569 1315l-178 -1114h520l179 1114h-521z" />
    <glyph glyph-name="Gcircumflex" unicode="&#x11c;" 
d="M1120 0h-999l241 1516h1000zM569 1315l-178 -1114h520l179 1114h-521z" />
    <glyph glyph-name="gcircumflex" unicode="&#x11d;" 
d="M1120 0h-999l241 1516h1000zM569 1315l-178 -1114h520l179 1114h-521z" />
    <glyph glyph-name="Gbreve" unicode="&#x11e;" 
d="M1120 0h-999l241 1516h1000zM569 1315l-178 -1114h520l179 1114h-521z" />
    <glyph glyph-name="gbreve" unicode="&#x11f;" 
d="M1120 0h-999l241 1516h1000zM569 1315l-178 -1114h520l179 1114h-521z" />
    <glyph glyph-name="Gdotaccent" unicode="&#x120;" 
d="M1120 0h-999l241 1516h1000zM569 1315l-178 -1114h520l179 1114h-521z" />
    <glyph glyph-name="gdotaccent" unicode="&#x121;" 
d="M1120 0h-999l241 1516h1000zM569 1315l-178 -1114h520l179 1114h-521z" />
    <glyph glyph-name="uni0122" unicode="&#x122;" 
d="M1120 0h-999l241 1516h1000zM569 1315l-178 -1114h520l179 1114h-521z" />
    <glyph glyph-name="uni0123" unicode="&#x123;" 
d="M1120 0h-999l241 1516h1000zM569 1315l-178 -1114h520l179 1114h-521z" />
    <glyph glyph-name="Hcircumflex" unicode="&#x124;" 
d="M1120 0h-999l241 1516h1000zM569 1315l-178 -1114h520l179 1114h-521z" />
    <glyph glyph-name="hcircumflex" unicode="&#x125;" 
d="M1120 0h-999l241 1516h1000zM569 1315l-178 -1114h520l179 1114h-521z" />
    <glyph glyph-name="Hbar" unicode="&#x126;" 
d="M1120 0h-999l241 1516h1000zM569 1315l-178 -1114h520l179 1114h-521z" />
    <glyph glyph-name="hbar" unicode="&#x127;" 
d="M1120 0h-999l241 1516h1000zM569 1315l-178 -1114h520l179 1114h-521z" />
    <glyph glyph-name="Itilde" unicode="&#x128;" 
d="M1120 0h-999l241 1516h1000zM569 1315l-178 -1114h520l179 1114h-521z" />
    <glyph glyph-name="itilde" unicode="&#x129;" 
d="M1120 0h-999l241 1516h1000zM569 1315l-178 -1114h520l179 1114h-521z" />
    <glyph glyph-name="Imacron" unicode="&#x12a;" 
d="M1120 0h-999l241 1516h1000zM569 1315l-178 -1114h520l179 1114h-521z" />
    <glyph glyph-name="imacron" unicode="&#x12b;" 
d="M1120 0h-999l241 1516h1000zM569 1315l-178 -1114h520l179 1114h-521z" />
    <glyph glyph-name="Ibreve" unicode="&#x12c;" 
d="M1120 0h-999l241 1516h1000zM569 1315l-178 -1114h520l179 1114h-521z" />
    <glyph glyph-name="ibreve" unicode="&#x12d;" 
d="M1120 0h-999l241 1516h1000zM569 1315l-178 -1114h520l179 1114h-521z" />
    <glyph glyph-name="Iogonek" unicode="&#x12e;" 
d="M1120 0h-999l241 1516h1000zM569 1315l-178 -1114h520l179 1114h-521z" />
    <glyph glyph-name="iogonek" unicode="&#x12f;" 
d="M1120 0h-999l241 1516h1000zM569 1315l-178 -1114h520l179 1114h-521z" />
    <glyph glyph-name="Idotaccent" unicode="&#x130;" 
d="M1120 0h-999l241 1516h1000zM569 1315l-178 -1114h520l179 1114h-521z" />
    <glyph glyph-name="dotlessi" unicode="&#x131;" 
d="M1120 0h-999l241 1516h1000zM569 1315l-178 -1114h520l179 1114h-521z" />
    <glyph glyph-name="IJ" unicode="&#x132;" 
d="M1120 0h-999l241 1516h1000zM569 1315l-178 -1114h520l179 1114h-521z" />
    <glyph glyph-name="ij" unicode="&#x133;" 
d="M1120 0h-999l241 1516h1000zM569 1315l-178 -1114h520l179 1114h-521z" />
    <glyph glyph-name="Jcircumflex" unicode="&#x134;" 
d="M1120 0h-999l241 1516h1000zM569 1315l-178 -1114h520l179 1114h-521z" />
    <glyph glyph-name="jcircumflex" unicode="&#x135;" 
d="M1120 0h-999l241 1516h1000zM569 1315l-178 -1114h520l179 1114h-521z" />
    <glyph glyph-name="uni0136" unicode="&#x136;" 
d="M1120 0h-999l241 1516h1000zM569 1315l-178 -1114h520l179 1114h-521z" />
    <glyph glyph-name="uni0137" unicode="&#x137;" 
d="M1120 0h-999l241 1516h1000zM569 1315l-178 -1114h520l179 1114h-521z" />
    <glyph glyph-name="Lacute" unicode="&#x139;" 
d="M1120 0h-999l241 1516h1000zM569 1315l-178 -1114h520l179 1114h-521z" />
    <glyph glyph-name="lacute" unicode="&#x13a;" 
d="M1120 0h-999l241 1516h1000zM569 1315l-178 -1114h520l179 1114h-521z" />
    <glyph glyph-name="uni013B" unicode="&#x13b;" 
d="M1120 0h-999l241 1516h1000zM569 1315l-178 -1114h520l179 1114h-521z" />
    <glyph glyph-name="uni013C" unicode="&#x13c;" 
d="M1120 0h-999l241 1516h1000zM569 1315l-178 -1114h520l179 1114h-521z" />
    <glyph glyph-name="Lcaron" unicode="&#x13d;" 
d="M1120 0h-999l241 1516h1000zM569 1315l-178 -1114h520l179 1114h-521z" />
    <glyph glyph-name="lcaron" unicode="&#x13e;" 
d="M1120 0h-999l241 1516h1000zM569 1315l-178 -1114h520l179 1114h-521z" />
    <glyph glyph-name="Ldot" unicode="&#x13f;" 
d="M1120 0h-999l241 1516h1000zM569 1315l-178 -1114h520l179 1114h-521z" />
    <glyph glyph-name="ldot" unicode="&#x140;" 
d="M1120 0h-999l241 1516h1000zM569 1315l-178 -1114h520l179 1114h-521z" />
    <glyph glyph-name="Lslash" unicode="&#x141;" 
d="M1120 0h-999l241 1516h1000zM569 1315l-178 -1114h520l179 1114h-521z" />
    <glyph glyph-name="lslash" unicode="&#x142;" 
d="M1120 0h-999l241 1516h1000zM569 1315l-178 -1114h520l179 1114h-521z" />
    <glyph glyph-name="Nacute" unicode="&#x143;" 
d="M1120 0h-999l241 1516h1000zM569 1315l-178 -1114h520l179 1114h-521z" />
    <glyph glyph-name="nacute" unicode="&#x144;" 
d="M1120 0h-999l241 1516h1000zM569 1315l-178 -1114h520l179 1114h-521z" />
    <glyph glyph-name="uni0145" unicode="&#x145;" 
d="M1120 0h-999l241 1516h1000zM569 1315l-178 -1114h520l179 1114h-521z" />
    <glyph glyph-name="uni0146" unicode="&#x146;" 
d="M1120 0h-999l241 1516h1000zM569 1315l-178 -1114h520l179 1114h-521z" />
    <glyph glyph-name="Ncaron" unicode="&#x147;" 
d="M1120 0h-999l241 1516h1000zM569 1315l-178 -1114h520l179 1114h-521z" />
    <glyph glyph-name="ncaron" unicode="&#x148;" 
d="M1120 0h-999l241 1516h1000zM569 1315l-178 -1114h520l179 1114h-521z" />
    <glyph glyph-name="Eng" unicode="&#x14a;" 
d="M1120 0h-999l241 1516h1000zM569 1315l-178 -1114h520l179 1114h-521z" />
    <glyph glyph-name="eng" unicode="&#x14b;" 
d="M1120 0h-999l241 1516h1000zM569 1315l-178 -1114h520l179 1114h-521z" />
    <glyph glyph-name="Omacron" unicode="&#x14c;" 
d="M1120 0h-999l241 1516h1000zM569 1315l-178 -1114h520l179 1114h-521z" />
    <glyph glyph-name="omacron" unicode="&#x14d;" 
d="M1120 0h-999l241 1516h1000zM569 1315l-178 -1114h520l179 1114h-521z" />
    <glyph glyph-name="Obreve" unicode="&#x14e;" 
d="M1120 0h-999l241 1516h1000zM569 1315l-178 -1114h520l179 1114h-521z" />
    <glyph glyph-name="obreve" unicode="&#x14f;" 
d="M1120 0h-999l241 1516h1000zM569 1315l-178 -1114h520l179 1114h-521z" />
    <glyph glyph-name="Ohungarumlaut" unicode="&#x150;" 
d="M1120 0h-999l241 1516h1000zM569 1315l-178 -1114h520l179 1114h-521z" />
    <glyph glyph-name="ohungarumlaut" unicode="&#x151;" 
d="M1120 0h-999l241 1516h1000zM569 1315l-178 -1114h520l179 1114h-521z" />
    <glyph glyph-name="OE" unicode="&#x152;" 
d="M1120 0h-999l241 1516h1000zM569 1315l-178 -1114h520l179 1114h-521z" />
    <glyph glyph-name="oe" unicode="&#x153;" 
d="M1120 0h-999l241 1516h1000zM569 1315l-178 -1114h520l179 1114h-521z" />
    <glyph glyph-name="Racute" unicode="&#x154;" 
d="M1120 0h-999l241 1516h1000zM569 1315l-178 -1114h520l179 1114h-521z" />
    <glyph glyph-name="racute" unicode="&#x155;" 
d="M1120 0h-999l241 1516h1000zM569 1315l-178 -1114h520l179 1114h-521z" />
    <glyph glyph-name="uni0156" unicode="&#x156;" 
d="M1120 0h-999l241 1516h1000zM569 1315l-178 -1114h520l179 1114h-521z" />
    <glyph glyph-name="uni0157" unicode="&#x157;" 
d="M1120 0h-999l241 1516h1000zM569 1315l-178 -1114h520l179 1114h-521z" />
    <glyph glyph-name="Rcaron" unicode="&#x158;" 
d="M1120 0h-999l241 1516h1000zM569 1315l-178 -1114h520l179 1114h-521z" />
    <glyph glyph-name="rcaron" unicode="&#x159;" 
d="M1120 0h-999l241 1516h1000zM569 1315l-178 -1114h520l179 1114h-521z" />
    <glyph glyph-name="Sacute" unicode="&#x15a;" 
d="M1120 0h-999l241 1516h1000zM569 1315l-178 -1114h520l179 1114h-521z" />
    <glyph glyph-name="sacute" unicode="&#x15b;" 
d="M1120 0h-999l241 1516h1000zM569 1315l-178 -1114h520l179 1114h-521z" />
    <glyph glyph-name="Scircumflex" unicode="&#x15c;" 
d="M1120 0h-999l241 1516h1000zM569 1315l-178 -1114h520l179 1114h-521z" />
    <glyph glyph-name="scircumflex" unicode="&#x15d;" 
d="M1120 0h-999l241 1516h1000zM569 1315l-178 -1114h520l179 1114h-521z" />
    <glyph glyph-name="Scedilla" unicode="&#x15e;" 
d="M1120 0h-999l241 1516h1000zM569 1315l-178 -1114h520l179 1114h-521z" />
    <glyph glyph-name="scedilla" unicode="&#x15f;" 
d="M1120 0h-999l241 1516h1000zM569 1315l-178 -1114h520l179 1114h-521z" />
    <glyph glyph-name="Scaron" unicode="&#x160;" 
d="M1120 0h-999l241 1516h1000zM569 1315l-178 -1114h520l179 1114h-521z" />
    <glyph glyph-name="scaron" unicode="&#x161;" 
d="M1120 0h-999l241 1516h1000zM569 1315l-178 -1114h520l179 1114h-521z" />
    <glyph glyph-name="uni0162" unicode="&#x162;" 
d="M1120 0h-999l241 1516h1000zM569 1315l-178 -1114h520l179 1114h-521z" />
    <glyph glyph-name="uni0163" unicode="&#x163;" 
d="M1120 0h-999l241 1516h1000zM569 1315l-178 -1114h520l179 1114h-521z" />
    <glyph glyph-name="Tcaron" unicode="&#x164;" 
d="M1120 0h-999l241 1516h1000zM569 1315l-178 -1114h520l179 1114h-521z" />
    <glyph glyph-name="tcaron" unicode="&#x165;" 
d="M1120 0h-999l241 1516h1000zM569 1315l-178 -1114h520l179 1114h-521z" />
    <glyph glyph-name="Tbar" unicode="&#x166;" 
d="M1120 0h-999l241 1516h1000zM569 1315l-178 -1114h520l179 1114h-521z" />
    <glyph glyph-name="tbar" unicode="&#x167;" 
d="M1120 0h-999l241 1516h1000zM569 1315l-178 -1114h520l179 1114h-521z" />
    <glyph glyph-name="Utilde" unicode="&#x168;" 
d="M1120 0h-999l241 1516h1000zM569 1315l-178 -1114h520l179 1114h-521z" />
    <glyph glyph-name="utilde" unicode="&#x169;" 
d="M1120 0h-999l241 1516h1000zM569 1315l-178 -1114h520l179 1114h-521z" />
    <glyph glyph-name="Umacron" unicode="&#x16a;" 
d="M1120 0h-999l241 1516h1000zM569 1315l-178 -1114h520l179 1114h-521z" />
    <glyph glyph-name="umacron" unicode="&#x16b;" 
d="M1120 0h-999l241 1516h1000zM569 1315l-178 -1114h520l179 1114h-521z" />
    <glyph glyph-name="Ubreve" unicode="&#x16c;" 
d="M1120 0h-999l241 1516h1000zM569 1315l-178 -1114h520l179 1114h-521z" />
    <glyph glyph-name="ubreve" unicode="&#x16d;" 
d="M1120 0h-999l241 1516h1000zM569 1315l-178 -1114h520l179 1114h-521z" />
    <glyph glyph-name="Uring" unicode="&#x16e;" 
d="M1120 0h-999l241 1516h1000zM569 1315l-178 -1114h520l179 1114h-521z" />
    <glyph glyph-name="uring" unicode="&#x16f;" 
d="M1120 0h-999l241 1516h1000zM569 1315l-178 -1114h520l179 1114h-521z" />
    <glyph glyph-name="Uhungarumlaut" unicode="&#x170;" 
d="M1120 0h-999l241 1516h1000zM569 1315l-178 -1114h520l179 1114h-521z" />
    <glyph glyph-name="uhungarumlaut" unicode="&#x171;" 
d="M1120 0h-999l241 1516h1000zM569 1315l-178 -1114h520l179 1114h-521z" />
    <glyph glyph-name="Uogonek" unicode="&#x172;" 
d="M1120 0h-999l241 1516h1000zM569 1315l-178 -1114h520l179 1114h-521z" />
    <glyph glyph-name="uogonek" unicode="&#x173;" 
d="M1120 0h-999l241 1516h1000zM569 1315l-178 -1114h520l179 1114h-521z" />
    <glyph glyph-name="Wcircumflex" unicode="&#x174;" 
d="M1120 0h-999l241 1516h1000zM569 1315l-178 -1114h520l179 1114h-521z" />
    <glyph glyph-name="wcircumflex" unicode="&#x175;" 
d="M1120 0h-999l241 1516h1000zM569 1315l-178 -1114h520l179 1114h-521z" />
    <glyph glyph-name="Ycircumflex" unicode="&#x176;" 
d="M1120 0h-999l241 1516h1000zM569 1315l-178 -1114h520l179 1114h-521z" />
    <glyph glyph-name="ycircumflex" unicode="&#x177;" 
d="M1120 0h-999l241 1516h1000zM569 1315l-178 -1114h520l179 1114h-521z" />
    <glyph glyph-name="Ydieresis" unicode="&#x178;" 
d="M1120 0h-999l241 1516h1000zM569 1315l-178 -1114h520l179 1114h-521z" />
    <glyph glyph-name="Zacute" unicode="&#x179;" 
d="M1120 0h-999l241 1516h1000zM569 1315l-178 -1114h520l179 1114h-521z" />
    <glyph glyph-name="zacute" unicode="&#x17a;" 
d="M1120 0h-999l241 1516h1000zM569 1315l-178 -1114h520l179 1114h-521z" />
    <glyph glyph-name="Zdotaccent" unicode="&#x17b;" 
d="M1120 0h-999l241 1516h1000zM569 1315l-178 -1114h520l179 1114h-521z" />
    <glyph glyph-name="zdotaccent" unicode="&#x17c;" 
d="M1120 0h-999l241 1516h1000zM569 1315l-178 -1114h520l179 1114h-521z" />
    <glyph glyph-name="Zcaron" unicode="&#x17d;" 
d="M1120 0h-999l241 1516h1000zM569 1315l-178 -1114h520l179 1114h-521z" />
    <glyph glyph-name="zcaron" unicode="&#x17e;" 
d="M1120 0h-999l241 1516h1000zM569 1315l-178 -1114h520l179 1114h-521z" />
    <glyph glyph-name="florin" unicode="&#x192;" 
d="M1120 0h-999l241 1516h1000zM569 1315l-178 -1114h520l179 1114h-521z" />
    <glyph glyph-name="uni01EA" unicode="&#x1ea;" 
d="M1120 0h-999l241 1516h1000zM569 1315l-178 -1114h520l179 1114h-521z" />
    <glyph glyph-name="uni01EB" unicode="&#x1eb;" 
d="M1120 0h-999l241 1516h1000zM569 1315l-178 -1114h520l179 1114h-521z" />
    <glyph glyph-name="Aringacute" unicode="&#x1fa;" 
d="M1120 0h-999l241 1516h1000zM569 1315l-178 -1114h520l179 1114h-521z" />
    <glyph glyph-name="aringacute" unicode="&#x1fb;" 
d="M1120 0h-999l241 1516h1000zM569 1315l-178 -1114h520l179 1114h-521z" />
    <glyph glyph-name="AEacute" unicode="&#x1fc;" 
d="M1120 0h-999l241 1516h1000zM569 1315l-178 -1114h520l179 1114h-521z" />
    <glyph glyph-name="aeacute" unicode="&#x1fd;" 
d="M1120 0h-999l241 1516h1000zM569 1315l-178 -1114h520l179 1114h-521z" />
    <glyph glyph-name="Oslashacute" unicode="&#x1fe;" 
d="M1120 0h-999l241 1516h1000zM569 1315l-178 -1114h520l179 1114h-521z" />
    <glyph glyph-name="oslashacute" unicode="&#x1ff;" 
d="M1120 0h-999l241 1516h1000zM569 1315l-178 -1114h520l179 1114h-521z" />
    <glyph glyph-name="uni0218" unicode="&#x218;" 
d="M1120 0h-999l241 1516h1000zM569 1315l-178 -1114h520l179 1114h-521z" />
    <glyph glyph-name="uni0219" unicode="&#x219;" 
d="M1120 0h-999l241 1516h1000zM569 1315l-178 -1114h520l179 1114h-521z" />
    <glyph glyph-name="uni021A" unicode="&#x21a;" 
d="M1120 0h-999l241 1516h1000zM569 1315l-178 -1114h520l179 1114h-521z" />
    <glyph glyph-name="uni021B" unicode="&#x21b;" 
d="M1120 0h-999l241 1516h1000zM569 1315l-178 -1114h520l179 1114h-521z" />
    <glyph glyph-name="uni0237" unicode="&#x237;" 
d="M1120 0h-999l241 1516h1000zM569 1315l-178 -1114h520l179 1114h-521z" />
    <glyph glyph-name="circumflex" unicode="&#x2c6;" 
d="M1120 0h-999l241 1516h1000zM569 1315l-178 -1114h520l179 1114h-521z" />
    <glyph glyph-name="caron" unicode="&#x2c7;" 
d="M1120 0h-999l241 1516h1000zM569 1315l-178 -1114h520l179 1114h-521z" />
    <glyph glyph-name="breve" unicode="&#x2d8;" 
d="M1120 0h-999l241 1516h1000zM569 1315l-178 -1114h520l179 1114h-521z" />
    <glyph glyph-name="dotaccent" unicode="&#x2d9;" 
d="M1120 0h-999l241 1516h1000zM569 1315l-178 -1114h520l179 1114h-521z" />
    <glyph glyph-name="ring" unicode="&#x2da;" 
d="M1120 0h-999l241 1516h1000zM569 1315l-178 -1114h520l179 1114h-521z" />
    <glyph glyph-name="ogonek" unicode="&#x2db;" 
d="M1120 0h-999l241 1516h1000zM569 1315l-178 -1114h520l179 1114h-521z" />
    <glyph glyph-name="tilde" unicode="&#x2dc;" 
d="M1120 0h-999l241 1516h1000zM569 1315l-178 -1114h520l179 1114h-521z" />
    <glyph glyph-name="hungarumlaut" unicode="&#x2dd;" 
d="M1120 0h-999l241 1516h1000zM569 1315l-178 -1114h520l179 1114h-521z" />
    <glyph glyph-name="gravecomb" unicode="&#x300;" 
d="M1120 0h-999l241 1516h1000zM569 1315l-178 -1114h520l179 1114h-521z" />
    <glyph glyph-name="acutecomb" unicode="&#x301;" 
d="M1120 0h-999l241 1516h1000zM569 1315l-178 -1114h520l179 1114h-521z" />
    <glyph glyph-name="uni0302" unicode="&#x302;" 
d="M1120 0h-999l241 1516h1000zM569 1315l-178 -1114h520l179 1114h-521z" />
    <glyph glyph-name="tildecomb" unicode="&#x303;" 
d="M1120 0h-999l241 1516h1000zM569 1315l-178 -1114h520l179 1114h-521z" />
    <glyph glyph-name="uni0304" unicode="&#x304;" 
d="M1120 0h-999l241 1516h1000zM569 1315l-178 -1114h520l179 1114h-521z" />
    <glyph glyph-name="uni0306" unicode="&#x306;" 
d="M1120 0h-999l241 1516h1000zM569 1315l-178 -1114h520l179 1114h-521z" />
    <glyph glyph-name="uni0307" unicode="&#x307;" 
d="M1120 0h-999l241 1516h1000zM569 1315l-178 -1114h520l179 1114h-521z" />
    <glyph glyph-name="uni0308" unicode="&#x308;" 
d="M1120 0h-999l241 1516h1000zM569 1315l-178 -1114h520l179 1114h-521z" />
    <glyph glyph-name="uni030A" unicode="&#x30a;" 
d="M1120 0h-999l241 1516h1000zM569 1315l-178 -1114h520l179 1114h-521z" />
    <glyph glyph-name="uni030B" unicode="&#x30b;" 
d="M1120 0h-999l241 1516h1000zM569 1315l-178 -1114h520l179 1114h-521z" />
    <glyph glyph-name="uni030C" unicode="&#x30c;" 
d="M1120 0h-999l241 1516h1000zM569 1315l-178 -1114h520l179 1114h-521z" />
    <glyph glyph-name="uni0312" unicode="&#x312;" 
d="M1120 0h-999l241 1516h1000zM569 1315l-178 -1114h520l179 1114h-521z" />
    <glyph glyph-name="uni0326" unicode="&#x326;" 
d="M1120 0h-999l241 1516h1000zM569 1315l-178 -1114h520l179 1114h-521z" />
    <glyph glyph-name="uni0327" unicode="&#x327;" 
d="M1120 0h-999l241 1516h1000zM569 1315l-178 -1114h520l179 1114h-521z" />
    <glyph glyph-name="uni0328" unicode="&#x328;" 
d="M1120 0h-999l241 1516h1000zM569 1315l-178 -1114h520l179 1114h-521z" />
    <glyph glyph-name="uni0394" unicode="&#x394;" 
d="M1120 0h-999l241 1516h1000zM569 1315l-178 -1114h520l179 1114h-521z" />
    <glyph glyph-name="uni03A9" unicode="&#x3a9;" 
d="M1120 0h-999l241 1516h1000zM569 1315l-178 -1114h520l179 1114h-521z" />
    <glyph glyph-name="uni03BC" unicode="&#x3bc;" 
d="M1120 0h-999l241 1516h1000zM569 1315l-178 -1114h520l179 1114h-521z" />
    <glyph glyph-name="pi" unicode="&#x3c0;" 
d="M1120 0h-999l241 1516h1000zM569 1315l-178 -1114h520l179 1114h-521z" />
    <glyph glyph-name="Wgrave" unicode="&#x1e80;" 
d="M1120 0h-999l241 1516h1000zM569 1315l-178 -1114h520l179 1114h-521z" />
    <glyph glyph-name="wgrave" unicode="&#x1e81;" 
d="M1120 0h-999l241 1516h1000zM569 1315l-178 -1114h520l179 1114h-521z" />
    <glyph glyph-name="Wacute" unicode="&#x1e82;" 
d="M1120 0h-999l241 1516h1000zM569 1315l-178 -1114h520l179 1114h-521z" />
    <glyph glyph-name="wacute" unicode="&#x1e83;" 
d="M1120 0h-999l241 1516h1000zM569 1315l-178 -1114h520l179 1114h-521z" />
    <glyph glyph-name="Wdieresis" unicode="&#x1e84;" 
d="M1120 0h-999l241 1516h1000zM569 1315l-178 -1114h520l179 1114h-521z" />
    <glyph glyph-name="wdieresis" unicode="&#x1e85;" 
d="M1120 0h-999l241 1516h1000zM569 1315l-178 -1114h520l179 1114h-521z" />
    <glyph glyph-name="uni1E9E" unicode="&#x1e9e;" 
d="M1120 0h-999l241 1516h1000zM569 1315l-178 -1114h520l179 1114h-521z" />
    <glyph glyph-name="Ygrave" unicode="&#x1ef2;" 
d="M1120 0h-999l241 1516h1000zM569 1315l-178 -1114h520l179 1114h-521z" />
    <glyph glyph-name="ygrave" unicode="&#x1ef3;" 
d="M1120 0h-999l241 1516h1000zM569 1315l-178 -1114h520l179 1114h-521z" />
    <glyph glyph-name="uni2009" unicode="&#x2009;" 
d="M1120 0h-999l241 1516h1000zM569 1315l-178 -1114h520l179 1114h-521z" />
    <glyph glyph-name="endash" unicode="&#x2013;" 
d="M1120 0h-999l241 1516h1000zM569 1315l-178 -1114h520l179 1114h-521z" />
    <glyph glyph-name="emdash" unicode="&#x2014;" 
d="M1120 0h-999l241 1516h1000zM569 1315l-178 -1114h520l179 1114h-521z" />
    <glyph glyph-name="quoteleft" unicode="&#x2018;" 
d="M1120 0h-999l241 1516h1000zM569 1315l-178 -1114h520l179 1114h-521z" />
    <glyph glyph-name="quoteright" unicode="&#x2019;" 
d="M1120 0h-999l241 1516h1000zM569 1315l-178 -1114h520l179 1114h-521z" />
    <glyph glyph-name="quotesinglbase" unicode="&#x201a;" 
d="M1120 0h-999l241 1516h1000zM569 1315l-178 -1114h520l179 1114h-521z" />
    <glyph glyph-name="quotedblleft" unicode="&#x201c;" 
d="M1120 0h-999l241 1516h1000zM569 1315l-178 -1114h520l179 1114h-521z" />
    <glyph glyph-name="quotedblright" unicode="&#x201d;" 
d="M1120 0h-999l241 1516h1000zM569 1315l-178 -1114h520l179 1114h-521z" />
    <glyph glyph-name="quotedblbase" unicode="&#x201e;" 
d="M1120 0h-999l241 1516h1000zM569 1315l-178 -1114h520l179 1114h-521z" />
    <glyph glyph-name="dagger" unicode="&#x2020;" 
d="M1120 0h-999l241 1516h1000zM569 1315l-178 -1114h520l179 1114h-521z" />
    <glyph glyph-name="daggerdbl" unicode="&#x2021;" 
d="M1120 0h-999l241 1516h1000zM569 1315l-178 -1114h520l179 1114h-521z" />
    <glyph glyph-name="bullet" unicode="&#x2022;" 
d="M1120 0h-999l241 1516h1000zM569 1315l-178 -1114h520l179 1114h-521z" />
    <glyph glyph-name="ellipsis" unicode="&#x2026;" 
d="M1120 0h-999l241 1516h1000zM569 1315l-178 -1114h520l179 1114h-521z" />
    <glyph glyph-name="perthousand" unicode="&#x2030;" 
d="M1120 0h-999l241 1516h1000zM569 1315l-178 -1114h520l179 1114h-521z" />
    <glyph glyph-name="guilsinglleft" unicode="&#x2039;" 
d="M1120 0h-999l241 1516h1000zM569 1315l-178 -1114h520l179 1114h-521z" />
    <glyph glyph-name="guilsinglright" unicode="&#x203a;" 
d="M1120 0h-999l241 1516h1000zM569 1315l-178 -1114h520l179 1114h-521z" />
    <glyph glyph-name="fraction" unicode="&#x2044;" 
d="M1120 0h-999l241 1516h1000zM569 1315l-178 -1114h520l179 1114h-521z" />
    <glyph glyph-name="uni2070" unicode="&#x2070;" 
d="M1120 0h-999l241 1516h1000zM569 1315l-178 -1114h520l179 1114h-521z" />
    <glyph glyph-name="uni2074" unicode="&#x2074;" 
d="M1120 0h-999l241 1516h1000zM569 1315l-178 -1114h520l179 1114h-521z" />
    <glyph glyph-name="uni2075" unicode="&#x2075;" 
d="M1120 0h-999l241 1516h1000zM569 1315l-178 -1114h520l179 1114h-521z" />
    <glyph glyph-name="uni2076" unicode="&#x2076;" 
d="M1120 0h-999l241 1516h1000zM569 1315l-178 -1114h520l179 1114h-521z" />
    <glyph glyph-name="uni2077" unicode="&#x2077;" 
d="M1120 0h-999l241 1516h1000zM569 1315l-178 -1114h520l179 1114h-521z" />
    <glyph glyph-name="uni2078" unicode="&#x2078;" 
d="M1120 0h-999l241 1516h1000zM569 1315l-178 -1114h520l179 1114h-521z" />
    <glyph glyph-name="uni2079" unicode="&#x2079;" 
d="M1120 0h-999l241 1516h1000zM569 1315l-178 -1114h520l179 1114h-521z" />
    <glyph glyph-name="uni207A" unicode="&#x207a;" 
d="M1120 0h-999l241 1516h1000zM569 1315l-178 -1114h520l179 1114h-521z" />
    <glyph glyph-name="uni207B" unicode="&#x207b;" 
d="M1120 0h-999l241 1516h1000zM569 1315l-178 -1114h520l179 1114h-521z" />
    <glyph glyph-name="uni207C" unicode="&#x207c;" 
d="M1120 0h-999l241 1516h1000zM569 1315l-178 -1114h520l179 1114h-521z" />
    <glyph glyph-name="uni2080" unicode="&#x2080;" 
d="M1120 0h-999l241 1516h1000zM569 1315l-178 -1114h520l179 1114h-521z" />
    <glyph glyph-name="uni2081" unicode="&#x2081;" 
d="M1120 0h-999l241 1516h1000zM569 1315l-178 -1114h520l179 1114h-521z" />
    <glyph glyph-name="uni2082" unicode="&#x2082;" 
d="M1120 0h-999l241 1516h1000zM569 1315l-178 -1114h520l179 1114h-521z" />
    <glyph glyph-name="uni2083" unicode="&#x2083;" 
d="M1120 0h-999l241 1516h1000zM569 1315l-178 -1114h520l179 1114h-521z" />
    <glyph glyph-name="uni2084" unicode="&#x2084;" 
d="M1120 0h-999l241 1516h1000zM569 1315l-178 -1114h520l179 1114h-521z" />
    <glyph glyph-name="uni2085" unicode="&#x2085;" 
d="M1120 0h-999l241 1516h1000zM569 1315l-178 -1114h520l179 1114h-521z" />
    <glyph glyph-name="uni2086" unicode="&#x2086;" 
d="M1120 0h-999l241 1516h1000zM569 1315l-178 -1114h520l179 1114h-521z" />
    <glyph glyph-name="uni2087" unicode="&#x2087;" 
d="M1120 0h-999l241 1516h1000zM569 1315l-178 -1114h520l179 1114h-521z" />
    <glyph glyph-name="uni2088" unicode="&#x2088;" 
d="M1120 0h-999l241 1516h1000zM569 1315l-178 -1114h520l179 1114h-521z" />
    <glyph glyph-name="uni2089" unicode="&#x2089;" 
d="M1120 0h-999l241 1516h1000zM569 1315l-178 -1114h520l179 1114h-521z" />
    <glyph glyph-name="uni208A" unicode="&#x208a;" 
d="M1120 0h-999l241 1516h1000zM569 1315l-178 -1114h520l179 1114h-521z" />
    <glyph glyph-name="uni208B" unicode="&#x208b;" 
d="M1120 0h-999l241 1516h1000zM569 1315l-178 -1114h520l179 1114h-521z" />
    <glyph glyph-name="uni208C" unicode="&#x208c;" 
d="M1120 0h-999l241 1516h1000zM569 1315l-178 -1114h520l179 1114h-521z" />
    <glyph glyph-name="Euro" unicode="&#x20ac;" 
d="M1120 0h-999l241 1516h1000zM569 1315l-178 -1114h520l179 1114h-521z" />
    <glyph glyph-name="uni20B9" unicode="&#x20b9;" 
d="M1120 0h-999l241 1516h1000zM569 1315l-178 -1114h520l179 1114h-521z" />
    <glyph glyph-name="uni20BA" unicode="&#x20ba;" 
d="M1120 0h-999l241 1516h1000zM569 1315l-178 -1114h520l179 1114h-521z" />
    <glyph glyph-name="uni20BF" unicode="&#x20bf;" 
d="M1120 0h-999l241 1516h1000zM569 1315l-178 -1114h520l179 1114h-521z" />
    <glyph glyph-name="uni2113" unicode="&#x2113;" 
d="M1120 0h-999l241 1516h1000zM569 1315l-178 -1114h520l179 1114h-521z" />
    <glyph glyph-name="uni2116" unicode="&#x2116;" 
d="M1120 0h-999l241 1516h1000zM569 1315l-178 -1114h520l179 1114h-521z" />
    <glyph glyph-name="uni2117" unicode="&#x2117;" 
d="M1120 0h-999l241 1516h1000zM569 1315l-178 -1114h520l179 1114h-521z" />
    <glyph glyph-name="uni2120" unicode="&#x2120;" 
d="M1120 0h-999l241 1516h1000zM569 1315l-178 -1114h520l179 1114h-521z" />
    <glyph glyph-name="trademark" unicode="&#x2122;" 
d="M1120 0h-999l241 1516h1000zM569 1315l-178 -1114h520l179 1114h-521z" />
    <glyph glyph-name="estimated" unicode="&#x212e;" 
d="M1120 0h-999l241 1516h1000zM569 1315l-178 -1114h520l179 1114h-521z" />
    <glyph glyph-name="uni2150" unicode="&#x2150;" 
d="M1120 0h-999l241 1516h1000zM569 1315l-178 -1114h520l179 1114h-521z" />
    <glyph glyph-name="uni2151" unicode="&#x2151;" 
d="M1120 0h-999l241 1516h1000zM569 1315l-178 -1114h520l179 1114h-521z" />
    <glyph glyph-name="uni2153" unicode="&#x2153;" 
d="M1120 0h-999l241 1516h1000zM569 1315l-178 -1114h520l179 1114h-521z" />
    <glyph glyph-name="uni2154" unicode="&#x2154;" 
d="M1120 0h-999l241 1516h1000zM569 1315l-178 -1114h520l179 1114h-521z" />
    <glyph glyph-name="uni2155" unicode="&#x2155;" 
d="M1120 0h-999l241 1516h1000zM569 1315l-178 -1114h520l179 1114h-521z" />
    <glyph glyph-name="uni2156" unicode="&#x2156;" 
d="M1120 0h-999l241 1516h1000zM569 1315l-178 -1114h520l179 1114h-521z" />
    <glyph glyph-name="uni2157" unicode="&#x2157;" 
d="M1120 0h-999l241 1516h1000zM569 1315l-178 -1114h520l179 1114h-521z" />
    <glyph glyph-name="uni2158" unicode="&#x2158;" 
d="M1120 0h-999l241 1516h1000zM569 1315l-178 -1114h520l179 1114h-521z" />
    <glyph glyph-name="uni2159" unicode="&#x2159;" 
d="M1120 0h-999l241 1516h1000zM569 1315l-178 -1114h520l179 1114h-521z" />
    <glyph glyph-name="oneeighth" unicode="&#x215b;" 
d="M1120 0h-999l241 1516h1000zM569 1315l-178 -1114h520l179 1114h-521z" />
    <glyph glyph-name="threeeighths" unicode="&#x215c;" 
d="M1120 0h-999l241 1516h1000zM569 1315l-178 -1114h520l179 1114h-521z" />
    <glyph glyph-name="fiveeighths" unicode="&#x215d;" 
d="M1120 0h-999l241 1516h1000zM569 1315l-178 -1114h520l179 1114h-521z" />
    <glyph glyph-name="seveneighths" unicode="&#x215e;" 
d="M1120 0h-999l241 1516h1000zM569 1315l-178 -1114h520l179 1114h-521z" />
    <glyph glyph-name="arrowleft" unicode="&#x2190;" 
d="M1120 0h-999l241 1516h1000zM569 1315l-178 -1114h520l179 1114h-521z" />
    <glyph glyph-name="arrowup" unicode="&#x2191;" 
d="M1120 0h-999l241 1516h1000zM569 1315l-178 -1114h520l179 1114h-521z" />
    <glyph glyph-name="arrowright" unicode="&#x2192;" 
d="M1120 0h-999l241 1516h1000zM569 1315l-178 -1114h520l179 1114h-521z" />
    <glyph glyph-name="arrowdown" unicode="&#x2193;" 
d="M1120 0h-999l241 1516h1000zM569 1315l-178 -1114h520l179 1114h-521z" />
    <glyph glyph-name="arrowboth" unicode="&#x2194;" 
d="M1120 0h-999l241 1516h1000zM569 1315l-178 -1114h520l179 1114h-521z" />
    <glyph glyph-name="arrowupdn" unicode="&#x2195;" 
d="M1120 0h-999l241 1516h1000zM569 1315l-178 -1114h520l179 1114h-521z" />
    <glyph glyph-name="uni2196" unicode="&#x2196;" 
d="M1120 0h-999l241 1516h1000zM569 1315l-178 -1114h520l179 1114h-521z" />
    <glyph glyph-name="uni2197" unicode="&#x2197;" 
d="M1120 0h-999l241 1516h1000zM569 1315l-178 -1114h520l179 1114h-521z" />
    <glyph glyph-name="uni2198" unicode="&#x2198;" 
d="M1120 0h-999l241 1516h1000zM569 1315l-178 -1114h520l179 1114h-521z" />
    <glyph glyph-name="uni2199" unicode="&#x2199;" 
d="M1120 0h-999l241 1516h1000zM569 1315l-178 -1114h520l179 1114h-521z" />
    <glyph glyph-name="partialdiff" unicode="&#x2202;" 
d="M1120 0h-999l241 1516h1000zM569 1315l-178 -1114h520l179 1114h-521z" />
    <glyph glyph-name="product" unicode="&#x220f;" 
d="M1120 0h-999l241 1516h1000zM569 1315l-178 -1114h520l179 1114h-521z" />
    <glyph glyph-name="summation" unicode="&#x2211;" 
d="M1120 0h-999l241 1516h1000zM569 1315l-178 -1114h520l179 1114h-521z" />
    <glyph glyph-name="minus" unicode="&#x2212;" 
d="M1120 0h-999l241 1516h1000zM569 1315l-178 -1114h520l179 1114h-521z" />
    <glyph glyph-name="radical" unicode="&#x221a;" 
d="M1120 0h-999l241 1516h1000zM569 1315l-178 -1114h520l179 1114h-521z" />
    <glyph glyph-name="infinity" unicode="&#x221e;" 
d="M1120 0h-999l241 1516h1000zM569 1315l-178 -1114h520l179 1114h-521z" />
    <glyph glyph-name="integral" unicode="&#x222b;" 
d="M1120 0h-999l241 1516h1000zM569 1315l-178 -1114h520l179 1114h-521z" />
    <glyph glyph-name="approxequal" unicode="&#x2248;" 
d="M1120 0h-999l241 1516h1000zM569 1315l-178 -1114h520l179 1114h-521z" />
    <glyph glyph-name="notequal" unicode="&#x2260;" 
d="M1120 0h-999l241 1516h1000zM569 1315l-178 -1114h520l179 1114h-521z" />
    <glyph glyph-name="lessequal" unicode="&#x2264;" 
d="M1120 0h-999l241 1516h1000zM569 1315l-178 -1114h520l179 1114h-521z" />
    <glyph glyph-name="greaterequal" unicode="&#x2265;" 
d="M1120 0h-999l241 1516h1000zM569 1315l-178 -1114h520l179 1114h-521z" />
    <glyph glyph-name="uni22A0" unicode="&#x22a0;" 
d="M1120 0h-999l241 1516h1000zM569 1315l-178 -1114h520l179 1114h-521z" />
    <glyph glyph-name="house" unicode="&#x2302;" 
d="M1120 0h-999l241 1516h1000zM569 1315l-178 -1114h520l179 1114h-521z" />
    <glyph glyph-name="uni2460" unicode="&#x2460;" 
d="M1120 0h-999l241 1516h1000zM569 1315l-178 -1114h520l179 1114h-521z" />
    <glyph glyph-name="uni2461" unicode="&#x2461;" 
d="M1120 0h-999l241 1516h1000zM569 1315l-178 -1114h520l179 1114h-521z" />
    <glyph glyph-name="uni2462" unicode="&#x2462;" 
d="M1120 0h-999l241 1516h1000zM569 1315l-178 -1114h520l179 1114h-521z" />
    <glyph glyph-name="uni2463" unicode="&#x2463;" 
d="M1120 0h-999l241 1516h1000zM569 1315l-178 -1114h520l179 1114h-521z" />
    <glyph glyph-name="uni2464" unicode="&#x2464;" 
d="M1120 0h-999l241 1516h1000zM569 1315l-178 -1114h520l179 1114h-521z" />
    <glyph glyph-name="uni2465" unicode="&#x2465;" 
d="M1120 0h-999l241 1516h1000zM569 1315l-178 -1114h520l179 1114h-521z" />
    <glyph glyph-name="uni2466" unicode="&#x2466;" 
d="M1120 0h-999l241 1516h1000zM569 1315l-178 -1114h520l179 1114h-521z" />
    <glyph glyph-name="uni2467" unicode="&#x2467;" 
d="M1120 0h-999l241 1516h1000zM569 1315l-178 -1114h520l179 1114h-521z" />
    <glyph glyph-name="uni2468" unicode="&#x2468;" 
d="M1120 0h-999l241 1516h1000zM569 1315l-178 -1114h520l179 1114h-521z" />
    <glyph glyph-name="uni24EA" unicode="&#x24ea;" 
d="M1120 0h-999l241 1516h1000zM569 1315l-178 -1114h520l179 1114h-521z" />
    <glyph glyph-name="uni24FF" unicode="&#x24ff;" 
d="M1120 0h-999l241 1516h1000zM569 1315l-178 -1114h520l179 1114h-521z" />
    <glyph glyph-name="filledbox" unicode="&#x25a0;" 
d="M1120 0h-999l241 1516h1000zM569 1315l-178 -1114h520l179 1114h-521z" />
    <glyph glyph-name="uni25A1" unicode="&#x25a1;" 
d="M1120 0h-999l241 1516h1000zM569 1315l-178 -1114h520l179 1114h-521z" />
    <glyph glyph-name="uni25AA" unicode="&#x25aa;" 
d="M1120 0h-999l241 1516h1000zM569 1315l-178 -1114h520l179 1114h-521z" />
    <glyph glyph-name="uni25AB" unicode="&#x25ab;" 
d="M1120 0h-999l241 1516h1000zM569 1315l-178 -1114h520l179 1114h-521z" />
    <glyph glyph-name="triagup" unicode="&#x25b2;" 
d="M1120 0h-999l241 1516h1000zM569 1315l-178 -1114h520l179 1114h-521z" />
    <glyph glyph-name="triagrt" unicode="&#x25ba;" 
d="M1120 0h-999l241 1516h1000zM569 1315l-178 -1114h520l179 1114h-521z" />
    <glyph glyph-name="triagdn" unicode="&#x25bc;" 
d="M1120 0h-999l241 1516h1000zM569 1315l-178 -1114h520l179 1114h-521z" />
    <glyph glyph-name="triaglf" unicode="&#x25c4;" 
d="M1120 0h-999l241 1516h1000zM569 1315l-178 -1114h520l179 1114h-521z" />
    <glyph glyph-name="lozenge" unicode="&#x25ca;" 
d="M1120 0h-999l241 1516h1000zM569 1315l-178 -1114h520l179 1114h-521z" />
    <glyph glyph-name="circle" unicode="&#x25cb;" 
d="M1120 0h-999l241 1516h1000zM569 1315l-178 -1114h520l179 1114h-521z" />
    <glyph glyph-name="uni25CF" unicode="&#x25cf;" 
d="M1120 0h-999l241 1516h1000zM569 1315l-178 -1114h520l179 1114h-521z" />
    <glyph glyph-name="uni2612" unicode="&#x2612;" 
d="M1120 0h-999l241 1516h1000zM569 1315l-178 -1114h520l179 1114h-521z" />
    <glyph glyph-name="uni26AB" unicode="&#x26ab;" 
d="M1120 0h-999l241 1516h1000zM569 1315l-178 -1114h520l179 1114h-521z" />
    <glyph glyph-name="uni26AC" unicode="&#x26ac;" 
d="M1120 0h-999l241 1516h1000zM569 1315l-178 -1114h520l179 1114h-521z" />
    <glyph glyph-name="uni2776" unicode="&#x2776;" 
d="M1120 0h-999l241 1516h1000zM569 1315l-178 -1114h520l179 1114h-521z" />
    <glyph glyph-name="uni2777" unicode="&#x2777;" 
d="M1120 0h-999l241 1516h1000zM569 1315l-178 -1114h520l179 1114h-521z" />
    <glyph glyph-name="uni2778" unicode="&#x2778;" 
d="M1120 0h-999l241 1516h1000zM569 1315l-178 -1114h520l179 1114h-521z" />
    <glyph glyph-name="uni2779" unicode="&#x2779;" 
d="M1120 0h-999l241 1516h1000zM569 1315l-178 -1114h520l179 1114h-521z" />
    <glyph glyph-name="uni277A" unicode="&#x277a;" 
d="M1120 0h-999l241 1516h1000zM569 1315l-178 -1114h520l179 1114h-521z" />
    <glyph glyph-name="uni277B" unicode="&#x277b;" 
d="M1120 0h-999l241 1516h1000zM569 1315l-178 -1114h520l179 1114h-521z" />
    <glyph glyph-name="uni277C" unicode="&#x277c;" 
d="M1120 0h-999l241 1516h1000zM569 1315l-178 -1114h520l179 1114h-521z" />
    <glyph glyph-name="uni277D" unicode="&#x277d;" 
d="M1120 0h-999l241 1516h1000zM569 1315l-178 -1114h520l179 1114h-521z" />
    <glyph glyph-name="uni277E" unicode="&#x277e;" 
d="M1120 0h-999l241 1516h1000zM569 1315l-178 -1114h520l179 1114h-521z" />
    <glyph glyph-name="fi" unicode="&#xfb01;" 
d="M1120 0h-999l241 1516h1000zM569 1315l-178 -1114h520l179 1114h-521z" />
    <glyph glyph-name="fl" unicode="&#xfb02;" 
d="M1120 0h-999l241 1516h1000zM569 1315l-178 -1114h520l179 1114h-521z" />
    <glyph glyph-name="Iacute_J.loclNLD" 
d="M1120 0h-999l241 1516h1000zM569 1315l-178 -1114h520l179 1114h-521z" />
    <glyph glyph-name="iacute_j.loclNLD" 
d="M1120 0h-999l241 1516h1000zM569 1315l-178 -1114h520l179 1114h-521z" />
    <glyph glyph-name="a.ss01" 
d="M1120 0h-999l241 1516h1000zM569 1315l-178 -1114h520l179 1114h-521z" />
    <glyph glyph-name="aacute.ss01" 
d="M1120 0h-999l241 1516h1000zM569 1315l-178 -1114h520l179 1114h-521z" />
    <glyph glyph-name="abreve.ss01" 
d="M1120 0h-999l241 1516h1000zM569 1315l-178 -1114h520l179 1114h-521z" />
    <glyph glyph-name="acircumflex.ss01" 
d="M1120 0h-999l241 1516h1000zM569 1315l-178 -1114h520l179 1114h-521z" />
    <glyph glyph-name="adieresis.ss01" 
d="M1120 0h-999l241 1516h1000zM569 1315l-178 -1114h520l179 1114h-521z" />
    <glyph glyph-name="agrave.ss01" 
d="M1120 0h-999l241 1516h1000zM569 1315l-178 -1114h520l179 1114h-521z" />
    <glyph glyph-name="amacron.ss01" 
d="M1120 0h-999l241 1516h1000zM569 1315l-178 -1114h520l179 1114h-521z" />
    <glyph glyph-name="aogonek.ss01" 
d="M1120 0h-999l241 1516h1000zM569 1315l-178 -1114h520l179 1114h-521z" />
    <glyph glyph-name="aring.ss01" 
d="M1120 0h-999l241 1516h1000zM569 1315l-178 -1114h520l179 1114h-521z" />
    <glyph glyph-name="aringacute.ss01" 
d="M1120 0h-999l241 1516h1000zM569 1315l-178 -1114h520l179 1114h-521z" />
    <glyph glyph-name="atilde.ss01" 
d="M1120 0h-999l241 1516h1000zM569 1315l-178 -1114h520l179 1114h-521z" />
    <glyph glyph-name="ae.ss01" 
d="M1120 0h-999l241 1516h1000zM569 1315l-178 -1114h520l179 1114h-521z" />
    <glyph glyph-name="aeacute.ss01" 
d="M1120 0h-999l241 1516h1000zM569 1315l-178 -1114h520l179 1114h-521z" />
    <glyph glyph-name="f_b.liga" 
d="M1120 0h-999l241 1516h1000zM569 1315l-178 -1114h520l179 1114h-521z" />
    <glyph glyph-name="f_f.liga" 
d="M1120 0h-999l241 1516h1000zM569 1315l-178 -1114h520l179 1114h-521z" />
    <glyph glyph-name="f_f_b.liga" 
d="M1120 0h-999l241 1516h1000zM569 1315l-178 -1114h520l179 1114h-521z" />
    <glyph glyph-name="f_f_h.liga" 
d="M1120 0h-999l241 1516h1000zM569 1315l-178 -1114h520l179 1114h-521z" />
    <glyph glyph-name="f_f_i.liga" 
d="M1120 0h-999l241 1516h1000zM569 1315l-178 -1114h520l179 1114h-521z" />
    <glyph glyph-name="f_f_j.liga" 
d="M1120 0h-999l241 1516h1000zM569 1315l-178 -1114h520l179 1114h-521z" />
    <glyph glyph-name="f_f_k.liga" 
d="M1120 0h-999l241 1516h1000zM569 1315l-178 -1114h520l179 1114h-521z" />
    <glyph glyph-name="f_f_l.liga" 
d="M1120 0h-999l241 1516h1000zM569 1315l-178 -1114h520l179 1114h-521z" />
    <glyph glyph-name="f_h.liga" 
d="M1120 0h-999l241 1516h1000zM569 1315l-178 -1114h520l179 1114h-521z" />
    <glyph glyph-name="f_idieresis.liga" 
d="M1120 0h-999l241 1516h1000zM569 1315l-178 -1114h520l179 1114h-521z" />
    <glyph glyph-name="f_j.liga" 
d="M1120 0h-999l241 1516h1000zM569 1315l-178 -1114h520l179 1114h-521z" />
    <glyph glyph-name="f_k.liga" 
d="M1120 0h-999l241 1516h1000zM569 1315l-178 -1114h520l179 1114h-521z" />
    <glyph glyph-name="a.sc" 
d="M1120 0h-999l241 1516h1000zM569 1315l-178 -1114h520l179 1114h-521z" />
    <glyph glyph-name="aacute.sc" 
d="M1120 0h-999l241 1516h1000zM569 1315l-178 -1114h520l179 1114h-521z" />
    <glyph glyph-name="abreve.sc" 
d="M1120 0h-999l241 1516h1000zM569 1315l-178 -1114h520l179 1114h-521z" />
    <glyph glyph-name="acircumflex.sc" 
d="M1120 0h-999l241 1516h1000zM569 1315l-178 -1114h520l179 1114h-521z" />
    <glyph glyph-name="adieresis.sc" 
d="M1120 0h-999l241 1516h1000zM569 1315l-178 -1114h520l179 1114h-521z" />
    <glyph glyph-name="agrave.sc" 
d="M1120 0h-999l241 1516h1000zM569 1315l-178 -1114h520l179 1114h-521z" />
    <glyph glyph-name="amacron.sc" 
d="M1120 0h-999l241 1516h1000zM569 1315l-178 -1114h520l179 1114h-521z" />
    <glyph glyph-name="aogonek.sc" 
d="M1120 0h-999l241 1516h1000zM569 1315l-178 -1114h520l179 1114h-521z" />
    <glyph glyph-name="aring.sc" 
d="M1120 0h-999l241 1516h1000zM569 1315l-178 -1114h520l179 1114h-521z" />
    <glyph glyph-name="aringacute.sc" 
d="M1120 0h-999l241 1516h1000zM569 1315l-178 -1114h520l179 1114h-521z" />
    <glyph glyph-name="atilde.sc" 
d="M1120 0h-999l241 1516h1000zM569 1315l-178 -1114h520l179 1114h-521z" />
    <glyph glyph-name="ae.sc" 
d="M1120 0h-999l241 1516h1000zM569 1315l-178 -1114h520l179 1114h-521z" />
    <glyph glyph-name="aeacute.sc" 
d="M1120 0h-999l241 1516h1000zM569 1315l-178 -1114h520l179 1114h-521z" />
    <glyph glyph-name="b.sc" 
d="M1120 0h-999l241 1516h1000zM569 1315l-178 -1114h520l179 1114h-521z" />
    <glyph glyph-name="c.sc" 
d="M1120 0h-999l241 1516h1000zM569 1315l-178 -1114h520l179 1114h-521z" />
    <glyph glyph-name="cacute.sc" 
d="M1120 0h-999l241 1516h1000zM569 1315l-178 -1114h520l179 1114h-521z" />
    <glyph glyph-name="ccaron.sc" 
d="M1120 0h-999l241 1516h1000zM569 1315l-178 -1114h520l179 1114h-521z" />
    <glyph glyph-name="ccedilla.sc" 
d="M1120 0h-999l241 1516h1000zM569 1315l-178 -1114h520l179 1114h-521z" />
    <glyph glyph-name="ccircumflex.sc" 
d="M1120 0h-999l241 1516h1000zM569 1315l-178 -1114h520l179 1114h-521z" />
    <glyph glyph-name="cdotaccent.sc" 
d="M1120 0h-999l241 1516h1000zM569 1315l-178 -1114h520l179 1114h-521z" />
    <glyph glyph-name="d.sc" 
d="M1120 0h-999l241 1516h1000zM569 1315l-178 -1114h520l179 1114h-521z" />
    <glyph glyph-name="eth.sc" 
d="M1120 0h-999l241 1516h1000zM569 1315l-178 -1114h520l179 1114h-521z" />
    <glyph glyph-name="dcaron.sc" 
d="M1120 0h-999l241 1516h1000zM569 1315l-178 -1114h520l179 1114h-521z" />
    <glyph glyph-name="dcroat.sc" 
d="M1120 0h-999l241 1516h1000zM569 1315l-178 -1114h520l179 1114h-521z" />
    <glyph glyph-name="e.sc" 
d="M1120 0h-999l241 1516h1000zM569 1315l-178 -1114h520l179 1114h-521z" />
    <glyph glyph-name="eacute.sc" 
d="M1120 0h-999l241 1516h1000zM569 1315l-178 -1114h520l179 1114h-521z" />
    <glyph glyph-name="ebreve.sc" 
d="M1120 0h-999l241 1516h1000zM569 1315l-178 -1114h520l179 1114h-521z" />
    <glyph glyph-name="ecaron.sc" 
d="M1120 0h-999l241 1516h1000zM569 1315l-178 -1114h520l179 1114h-521z" />
    <glyph glyph-name="ecircumflex.sc" 
d="M1120 0h-999l241 1516h1000zM569 1315l-178 -1114h520l179 1114h-521z" />
    <glyph glyph-name="edieresis.sc" 
d="M1120 0h-999l241 1516h1000zM569 1315l-178 -1114h520l179 1114h-521z" />
    <glyph glyph-name="edotaccent.sc" 
d="M1120 0h-999l241 1516h1000zM569 1315l-178 -1114h520l179 1114h-521z" />
    <glyph glyph-name="egrave.sc" 
d="M1120 0h-999l241 1516h1000zM569 1315l-178 -1114h520l179 1114h-521z" />
    <glyph glyph-name="emacron.sc" 
d="M1120 0h-999l241 1516h1000zM569 1315l-178 -1114h520l179 1114h-521z" />
    <glyph glyph-name="eogonek.sc" 
d="M1120 0h-999l241 1516h1000zM569 1315l-178 -1114h520l179 1114h-521z" />
    <glyph glyph-name="f.sc" 
d="M1120 0h-999l241 1516h1000zM569 1315l-178 -1114h520l179 1114h-521z" />
    <glyph glyph-name="g.sc" 
d="M1120 0h-999l241 1516h1000zM569 1315l-178 -1114h520l179 1114h-521z" />
    <glyph glyph-name="gbreve.sc" 
d="M1120 0h-999l241 1516h1000zM569 1315l-178 -1114h520l179 1114h-521z" />
    <glyph glyph-name="gcircumflex.sc" 
d="M1120 0h-999l241 1516h1000zM569 1315l-178 -1114h520l179 1114h-521z" />
    <glyph glyph-name="uni0123.sc" 
d="M1120 0h-999l241 1516h1000zM569 1315l-178 -1114h520l179 1114h-521z" />
    <glyph glyph-name="gdotaccent.sc" 
d="M1120 0h-999l241 1516h1000zM569 1315l-178 -1114h520l179 1114h-521z" />
    <glyph glyph-name="h.sc" 
d="M1120 0h-999l241 1516h1000zM569 1315l-178 -1114h520l179 1114h-521z" />
    <glyph glyph-name="hbar.sc" 
d="M1120 0h-999l241 1516h1000zM569 1315l-178 -1114h520l179 1114h-521z" />
    <glyph glyph-name="hcircumflex.sc" 
d="M1120 0h-999l241 1516h1000zM569 1315l-178 -1114h520l179 1114h-521z" />
    <glyph glyph-name="i.sc" 
d="M1120 0h-999l241 1516h1000zM569 1315l-178 -1114h520l179 1114h-521z" />
    <glyph glyph-name="iacute.sc" 
d="M1120 0h-999l241 1516h1000zM569 1315l-178 -1114h520l179 1114h-521z" />
    <glyph glyph-name="iacute_j.loclNLD.sc" 
d="M1120 0h-999l241 1516h1000zM569 1315l-178 -1114h520l179 1114h-521z" />
    <glyph glyph-name="ibreve.sc" 
d="M1120 0h-999l241 1516h1000zM569 1315l-178 -1114h520l179 1114h-521z" />
    <glyph glyph-name="icircumflex.sc" 
d="M1120 0h-999l241 1516h1000zM569 1315l-178 -1114h520l179 1114h-521z" />
    <glyph glyph-name="idieresis.sc" 
d="M1120 0h-999l241 1516h1000zM569 1315l-178 -1114h520l179 1114h-521z" />
    <glyph glyph-name="i.sc.loclTRK" 
d="M1120 0h-999l241 1516h1000zM569 1315l-178 -1114h520l179 1114h-521z" />
    <glyph glyph-name="igrave.sc" 
d="M1120 0h-999l241 1516h1000zM569 1315l-178 -1114h520l179 1114h-521z" />
    <glyph glyph-name="ij.sc" 
d="M1120 0h-999l241 1516h1000zM569 1315l-178 -1114h520l179 1114h-521z" />
    <glyph glyph-name="imacron.sc" 
d="M1120 0h-999l241 1516h1000zM569 1315l-178 -1114h520l179 1114h-521z" />
    <glyph glyph-name="iogonek.sc" 
d="M1120 0h-999l241 1516h1000zM569 1315l-178 -1114h520l179 1114h-521z" />
    <glyph glyph-name="itilde.sc" 
d="M1120 0h-999l241 1516h1000zM569 1315l-178 -1114h520l179 1114h-521z" />
    <glyph glyph-name="j.sc" 
d="M1120 0h-999l241 1516h1000zM569 1315l-178 -1114h520l179 1114h-521z" />
    <glyph glyph-name="jcircumflex.sc" 
d="M1120 0h-999l241 1516h1000zM569 1315l-178 -1114h520l179 1114h-521z" />
    <glyph glyph-name="k.sc" 
d="M1120 0h-999l241 1516h1000zM569 1315l-178 -1114h520l179 1114h-521z" />
    <glyph glyph-name="uni0137.sc" 
d="M1120 0h-999l241 1516h1000zM569 1315l-178 -1114h520l179 1114h-521z" />
    <glyph glyph-name="l.sc" 
d="M1120 0h-999l241 1516h1000zM569 1315l-178 -1114h520l179 1114h-521z" />
    <glyph glyph-name="lacute.sc" 
d="M1120 0h-999l241 1516h1000zM569 1315l-178 -1114h520l179 1114h-521z" />
    <glyph glyph-name="lcaron.sc" 
d="M1120 0h-999l241 1516h1000zM569 1315l-178 -1114h520l179 1114h-521z" />
    <glyph glyph-name="uni013C.sc" 
d="M1120 0h-999l241 1516h1000zM569 1315l-178 -1114h520l179 1114h-521z" />
    <glyph glyph-name="ldot.sc" 
d="M1120 0h-999l241 1516h1000zM569 1315l-178 -1114h520l179 1114h-521z" />
    <glyph glyph-name="lslash.sc" 
d="M1120 0h-999l241 1516h1000zM569 1315l-178 -1114h520l179 1114h-521z" />
    <glyph glyph-name="m.sc" 
d="M1120 0h-999l241 1516h1000zM569 1315l-178 -1114h520l179 1114h-521z" />
    <glyph glyph-name="n.sc" 
d="M1120 0h-999l241 1516h1000zM569 1315l-178 -1114h520l179 1114h-521z" />
    <glyph glyph-name="nacute.sc" 
d="M1120 0h-999l241 1516h1000zM569 1315l-178 -1114h520l179 1114h-521z" />
    <glyph glyph-name="ncaron.sc" 
d="M1120 0h-999l241 1516h1000zM569 1315l-178 -1114h520l179 1114h-521z" />
    <glyph glyph-name="uni0146.sc" 
d="M1120 0h-999l241 1516h1000zM569 1315l-178 -1114h520l179 1114h-521z" />
    <glyph glyph-name="eng.sc" 
d="M1120 0h-999l241 1516h1000zM569 1315l-178 -1114h520l179 1114h-521z" />
    <glyph glyph-name="ntilde.sc" 
d="M1120 0h-999l241 1516h1000zM569 1315l-178 -1114h520l179 1114h-521z" />
    <glyph glyph-name="o.sc" 
d="M1120 0h-999l241 1516h1000zM569 1315l-178 -1114h520l179 1114h-521z" />
    <glyph glyph-name="oacute.sc" 
d="M1120 0h-999l241 1516h1000zM569 1315l-178 -1114h520l179 1114h-521z" />
    <glyph glyph-name="obreve.sc" 
d="M1120 0h-999l241 1516h1000zM569 1315l-178 -1114h520l179 1114h-521z" />
    <glyph glyph-name="ocircumflex.sc" 
d="M1120 0h-999l241 1516h1000zM569 1315l-178 -1114h520l179 1114h-521z" />
    <glyph glyph-name="odieresis.sc" 
d="M1120 0h-999l241 1516h1000zM569 1315l-178 -1114h520l179 1114h-521z" />
    <glyph glyph-name="ograve.sc" 
d="M1120 0h-999l241 1516h1000zM569 1315l-178 -1114h520l179 1114h-521z" />
    <glyph glyph-name="ohungarumlaut.sc" 
d="M1120 0h-999l241 1516h1000zM569 1315l-178 -1114h520l179 1114h-521z" />
    <glyph glyph-name="omacron.sc" 
d="M1120 0h-999l241 1516h1000zM569 1315l-178 -1114h520l179 1114h-521z" />
    <glyph glyph-name="uni01EB.sc" 
d="M1120 0h-999l241 1516h1000zM569 1315l-178 -1114h520l179 1114h-521z" />
    <glyph glyph-name="oslash.sc" 
d="M1120 0h-999l241 1516h1000zM569 1315l-178 -1114h520l179 1114h-521z" />
    <glyph glyph-name="oslashacute.sc" 
d="M1120 0h-999l241 1516h1000zM569 1315l-178 -1114h520l179 1114h-521z" />
    <glyph glyph-name="otilde.sc" 
d="M1120 0h-999l241 1516h1000zM569 1315l-178 -1114h520l179 1114h-521z" />
    <glyph glyph-name="oe.sc" 
d="M1120 0h-999l241 1516h1000zM569 1315l-178 -1114h520l179 1114h-521z" />
    <glyph glyph-name="p.sc" 
d="M1120 0h-999l241 1516h1000zM569 1315l-178 -1114h520l179 1114h-521z" />
    <glyph glyph-name="thorn.sc" 
d="M1120 0h-999l241 1516h1000zM569 1315l-178 -1114h520l179 1114h-521z" />
    <glyph glyph-name="q.sc" 
d="M1120 0h-999l241 1516h1000zM569 1315l-178 -1114h520l179 1114h-521z" />
    <glyph glyph-name="r.sc" 
d="M1120 0h-999l241 1516h1000zM569 1315l-178 -1114h520l179 1114h-521z" />
    <glyph glyph-name="racute.sc" 
d="M1120 0h-999l241 1516h1000zM569 1315l-178 -1114h520l179 1114h-521z" />
    <glyph glyph-name="rcaron.sc" 
d="M1120 0h-999l241 1516h1000zM569 1315l-178 -1114h520l179 1114h-521z" />
    <glyph glyph-name="uni0157.sc" 
d="M1120 0h-999l241 1516h1000zM569 1315l-178 -1114h520l179 1114h-521z" />
    <glyph glyph-name="s.sc" 
d="M1120 0h-999l241 1516h1000zM569 1315l-178 -1114h520l179 1114h-521z" />
    <glyph glyph-name="sacute.sc" 
d="M1120 0h-999l241 1516h1000zM569 1315l-178 -1114h520l179 1114h-521z" />
    <glyph glyph-name="scaron.sc" 
d="M1120 0h-999l241 1516h1000zM569 1315l-178 -1114h520l179 1114h-521z" />
    <glyph glyph-name="scedilla.sc" 
d="M1120 0h-999l241 1516h1000zM569 1315l-178 -1114h520l179 1114h-521z" />
    <glyph glyph-name="scircumflex.sc" 
d="M1120 0h-999l241 1516h1000zM569 1315l-178 -1114h520l179 1114h-521z" />
    <glyph glyph-name="uni0219.sc" 
d="M1120 0h-999l241 1516h1000zM569 1315l-178 -1114h520l179 1114h-521z" />
    <glyph glyph-name="germandbls.sc" 
d="M1120 0h-999l241 1516h1000zM569 1315l-178 -1114h520l179 1114h-521z" />
    <glyph glyph-name="t.sc" 
d="M1120 0h-999l241 1516h1000zM569 1315l-178 -1114h520l179 1114h-521z" />
    <glyph glyph-name="tbar.sc" 
d="M1120 0h-999l241 1516h1000zM569 1315l-178 -1114h520l179 1114h-521z" />
    <glyph glyph-name="tcaron.sc" 
d="M1120 0h-999l241 1516h1000zM569 1315l-178 -1114h520l179 1114h-521z" />
    <glyph glyph-name="uni0163.sc" 
d="M1120 0h-999l241 1516h1000zM569 1315l-178 -1114h520l179 1114h-521z" />
    <glyph glyph-name="uni021B.sc" 
d="M1120 0h-999l241 1516h1000zM569 1315l-178 -1114h520l179 1114h-521z" />
    <glyph glyph-name="u.sc" 
d="M1120 0h-999l241 1516h1000zM569 1315l-178 -1114h520l179 1114h-521z" />
    <glyph glyph-name="uacute.sc" 
d="M1120 0h-999l241 1516h1000zM569 1315l-178 -1114h520l179 1114h-521z" />
    <glyph glyph-name="ubreve.sc" 
d="M1120 0h-999l241 1516h1000zM569 1315l-178 -1114h520l179 1114h-521z" />
    <glyph glyph-name="ucircumflex.sc" 
d="M1120 0h-999l241 1516h1000zM569 1315l-178 -1114h520l179 1114h-521z" />
    <glyph glyph-name="udieresis.sc" 
d="M1120 0h-999l241 1516h1000zM569 1315l-178 -1114h520l179 1114h-521z" />
    <glyph glyph-name="ugrave.sc" 
d="M1120 0h-999l241 1516h1000zM569 1315l-178 -1114h520l179 1114h-521z" />
    <glyph glyph-name="uhungarumlaut.sc" 
d="M1120 0h-999l241 1516h1000zM569 1315l-178 -1114h520l179 1114h-521z" />
    <glyph glyph-name="umacron.sc" 
d="M1120 0h-999l241 1516h1000zM569 1315l-178 -1114h520l179 1114h-521z" />
    <glyph glyph-name="uogonek.sc" 
d="M1120 0h-999l241 1516h1000zM569 1315l-178 -1114h520l179 1114h-521z" />
    <glyph glyph-name="uring.sc" 
d="M1120 0h-999l241 1516h1000zM569 1315l-178 -1114h520l179 1114h-521z" />
    <glyph glyph-name="utilde.sc" 
d="M1120 0h-999l241 1516h1000zM569 1315l-178 -1114h520l179 1114h-521z" />
    <glyph glyph-name="v.sc" 
d="M1120 0h-999l241 1516h1000zM569 1315l-178 -1114h520l179 1114h-521z" />
    <glyph glyph-name="w.sc" 
d="M1120 0h-999l241 1516h1000zM569 1315l-178 -1114h520l179 1114h-521z" />
    <glyph glyph-name="wacute.sc" 
d="M1120 0h-999l241 1516h1000zM569 1315l-178 -1114h520l179 1114h-521z" />
    <glyph glyph-name="wcircumflex.sc" 
d="M1120 0h-999l241 1516h1000zM569 1315l-178 -1114h520l179 1114h-521z" />
    <glyph glyph-name="wdieresis.sc" 
d="M1120 0h-999l241 1516h1000zM569 1315l-178 -1114h520l179 1114h-521z" />
    <glyph glyph-name="wgrave.sc" 
d="M1120 0h-999l241 1516h1000zM569 1315l-178 -1114h520l179 1114h-521z" />
    <glyph glyph-name="x.sc" 
d="M1120 0h-999l241 1516h1000zM569 1315l-178 -1114h520l179 1114h-521z" />
    <glyph glyph-name="y.sc" 
d="M1120 0h-999l241 1516h1000zM569 1315l-178 -1114h520l179 1114h-521z" />
    <glyph glyph-name="yacute.sc" 
d="M1120 0h-999l241 1516h1000zM569 1315l-178 -1114h520l179 1114h-521z" />
    <glyph glyph-name="ycircumflex.sc" 
d="M1120 0h-999l241 1516h1000zM569 1315l-178 -1114h520l179 1114h-521z" />
    <glyph glyph-name="ydieresis.sc" 
d="M1120 0h-999l241 1516h1000zM569 1315l-178 -1114h520l179 1114h-521z" />
    <glyph glyph-name="ygrave.sc" 
d="M1120 0h-999l241 1516h1000zM569 1315l-178 -1114h520l179 1114h-521z" />
    <glyph glyph-name="z.sc" 
d="M1120 0h-999l241 1516h1000zM569 1315l-178 -1114h520l179 1114h-521z" />
    <glyph glyph-name="zacute.sc" 
d="M1120 0h-999l241 1516h1000zM569 1315l-178 -1114h520l179 1114h-521z" />
    <glyph glyph-name="zcaron.sc" 
d="M1120 0h-999l241 1516h1000zM569 1315l-178 -1114h520l179 1114h-521z" />
    <glyph glyph-name="zdotaccent.sc" 
d="M1120 0h-999l241 1516h1000zM569 1315l-178 -1114h520l179 1114h-521z" />
    <glyph glyph-name="a.subs.ss01" 
d="M1120 0h-999l241 1516h1000zM569 1315l-178 -1114h520l179 1114h-521z" />
    <glyph glyph-name="a.sups.ss01" 
d="M1120 0h-999l241 1516h1000zM569 1315l-178 -1114h520l179 1114h-521z" />
    <glyph glyph-name="a.subs" 
d="M1120 0h-999l241 1516h1000zM569 1315l-178 -1114h520l179 1114h-521z" />
    <glyph glyph-name="b.subs" 
d="M1120 0h-999l241 1516h1000zM569 1315l-178 -1114h520l179 1114h-521z" />
    <glyph glyph-name="c.subs" 
d="M1120 0h-999l241 1516h1000zM569 1315l-178 -1114h520l179 1114h-521z" />
    <glyph glyph-name="d.subs" 
d="M1120 0h-999l241 1516h1000zM569 1315l-178 -1114h520l179 1114h-521z" />
    <glyph glyph-name="e.subs" 
d="M1120 0h-999l241 1516h1000zM569 1315l-178 -1114h520l179 1114h-521z" />
    <glyph glyph-name="f.subs" 
d="M1120 0h-999l241 1516h1000zM569 1315l-178 -1114h520l179 1114h-521z" />
    <glyph glyph-name="g.subs" 
d="M1120 0h-999l241 1516h1000zM569 1315l-178 -1114h520l179 1114h-521z" />
    <glyph glyph-name="h.subs" 
d="M1120 0h-999l241 1516h1000zM569 1315l-178 -1114h520l179 1114h-521z" />
    <glyph glyph-name="i.subs" 
d="M1120 0h-999l241 1516h1000zM569 1315l-178 -1114h520l179 1114h-521z" />
    <glyph glyph-name="j.subs" 
d="M1120 0h-999l241 1516h1000zM569 1315l-178 -1114h520l179 1114h-521z" />
    <glyph glyph-name="k.subs" 
d="M1120 0h-999l241 1516h1000zM569 1315l-178 -1114h520l179 1114h-521z" />
    <glyph glyph-name="l.subs" 
d="M1120 0h-999l241 1516h1000zM569 1315l-178 -1114h520l179 1114h-521z" />
    <glyph glyph-name="m.subs" 
d="M1120 0h-999l241 1516h1000zM569 1315l-178 -1114h520l179 1114h-521z" />
    <glyph glyph-name="n.subs" 
d="M1120 0h-999l241 1516h1000zM569 1315l-178 -1114h520l179 1114h-521z" />
    <glyph glyph-name="o.subs" 
d="M1120 0h-999l241 1516h1000zM569 1315l-178 -1114h520l179 1114h-521z" />
    <glyph glyph-name="p.subs" 
d="M1120 0h-999l241 1516h1000zM569 1315l-178 -1114h520l179 1114h-521z" />
    <glyph glyph-name="q.subs" 
d="M1120 0h-999l241 1516h1000zM569 1315l-178 -1114h520l179 1114h-521z" />
    <glyph glyph-name="r.subs" 
d="M1120 0h-999l241 1516h1000zM569 1315l-178 -1114h520l179 1114h-521z" />
    <glyph glyph-name="s.subs" 
d="M1120 0h-999l241 1516h1000zM569 1315l-178 -1114h520l179 1114h-521z" />
    <glyph glyph-name="t.subs" 
d="M1120 0h-999l241 1516h1000zM569 1315l-178 -1114h520l179 1114h-521z" />
    <glyph glyph-name="u.subs" 
d="M1120 0h-999l241 1516h1000zM569 1315l-178 -1114h520l179 1114h-521z" />
    <glyph glyph-name="v.subs" 
d="M1120 0h-999l241 1516h1000zM569 1315l-178 -1114h520l179 1114h-521z" />
    <glyph glyph-name="w.subs" 
d="M1120 0h-999l241 1516h1000zM569 1315l-178 -1114h520l179 1114h-521z" />
    <glyph glyph-name="x.subs" 
d="M1120 0h-999l241 1516h1000zM569 1315l-178 -1114h520l179 1114h-521z" />
    <glyph glyph-name="y.subs" 
d="M1120 0h-999l241 1516h1000zM569 1315l-178 -1114h520l179 1114h-521z" />
    <glyph glyph-name="z.subs" 
d="M1120 0h-999l241 1516h1000zM569 1315l-178 -1114h520l179 1114h-521z" />
    <glyph glyph-name="a.sups" 
d="M1120 0h-999l241 1516h1000zM569 1315l-178 -1114h520l179 1114h-521z" />
    <glyph glyph-name="b.sups" 
d="M1120 0h-999l241 1516h1000zM569 1315l-178 -1114h520l179 1114h-521z" />
    <glyph glyph-name="c.sups" 
d="M1120 0h-999l241 1516h1000zM569 1315l-178 -1114h520l179 1114h-521z" />
    <glyph glyph-name="d.sups" 
d="M1120 0h-999l241 1516h1000zM569 1315l-178 -1114h520l179 1114h-521z" />
    <glyph glyph-name="e.sups" 
d="M1120 0h-999l241 1516h1000zM569 1315l-178 -1114h520l179 1114h-521z" />
    <glyph glyph-name="f.sups" 
d="M1120 0h-999l241 1516h1000zM569 1315l-178 -1114h520l179 1114h-521z" />
    <glyph glyph-name="g.sups" 
d="M1120 0h-999l241 1516h1000zM569 1315l-178 -1114h520l179 1114h-521z" />
    <glyph glyph-name="h.sups" 
d="M1120 0h-999l241 1516h1000zM569 1315l-178 -1114h520l179 1114h-521z" />
    <glyph glyph-name="i.sups" 
d="M1120 0h-999l241 1516h1000zM569 1315l-178 -1114h520l179 1114h-521z" />
    <glyph glyph-name="j.sups" 
d="M1120 0h-999l241 1516h1000zM569 1315l-178 -1114h520l179 1114h-521z" />
    <glyph glyph-name="k.sups" 
d="M1120 0h-999l241 1516h1000zM569 1315l-178 -1114h520l179 1114h-521z" />
    <glyph glyph-name="l.sups" 
d="M1120 0h-999l241 1516h1000zM569 1315l-178 -1114h520l179 1114h-521z" />
    <glyph glyph-name="m.sups" 
d="M1120 0h-999l241 1516h1000zM569 1315l-178 -1114h520l179 1114h-521z" />
    <glyph glyph-name="n.sups" 
d="M1120 0h-999l241 1516h1000zM569 1315l-178 -1114h520l179 1114h-521z" />
    <glyph glyph-name="o.sups" 
d="M1120 0h-999l241 1516h1000zM569 1315l-178 -1114h520l179 1114h-521z" />
    <glyph glyph-name="p.sups" 
d="M1120 0h-999l241 1516h1000zM569 1315l-178 -1114h520l179 1114h-521z" />
    <glyph glyph-name="q.sups" 
d="M1120 0h-999l241 1516h1000zM569 1315l-178 -1114h520l179 1114h-521z" />
    <glyph glyph-name="r.sups" 
d="M1120 0h-999l241 1516h1000zM569 1315l-178 -1114h520l179 1114h-521z" />
    <glyph glyph-name="s.sups" 
d="M1120 0h-999l241 1516h1000zM569 1315l-178 -1114h520l179 1114h-521z" />
    <glyph glyph-name="t.sups" 
d="M1120 0h-999l241 1516h1000zM569 1315l-178 -1114h520l179 1114h-521z" />
    <glyph glyph-name="u.sups" 
d="M1120 0h-999l241 1516h1000zM569 1315l-178 -1114h520l179 1114h-521z" />
    <glyph glyph-name="v.sups" 
d="M1120 0h-999l241 1516h1000zM569 1315l-178 -1114h520l179 1114h-521z" />
    <glyph glyph-name="w.sups" 
d="M1120 0h-999l241 1516h1000zM569 1315l-178 -1114h520l179 1114h-521z" />
    <glyph glyph-name="x.sups" 
d="M1120 0h-999l241 1516h1000zM569 1315l-178 -1114h520l179 1114h-521z" />
    <glyph glyph-name="y.sups" 
d="M1120 0h-999l241 1516h1000zM569 1315l-178 -1114h520l179 1114h-521z" />
    <glyph glyph-name="z.sups" 
d="M1120 0h-999l241 1516h1000zM569 1315l-178 -1114h520l179 1114h-521z" />
    <glyph glyph-name="zero.zero" 
d="M1120 0h-999l241 1516h1000zM569 1315l-178 -1114h520l179 1114h-521z" />
    <glyph glyph-name="zero.lf" 
d="M1120 0h-999l241 1516h1000zM569 1315l-178 -1114h520l179 1114h-521z" />
    <glyph glyph-name="one.lf" 
d="M1120 0h-999l241 1516h1000zM569 1315l-178 -1114h520l179 1114h-521z" />
    <glyph glyph-name="two.lf" 
d="M1120 0h-999l241 1516h1000zM569 1315l-178 -1114h520l179 1114h-521z" />
    <glyph glyph-name="three.lf" 
d="M1120 0h-999l241 1516h1000zM569 1315l-178 -1114h520l179 1114h-521z" />
    <glyph glyph-name="four.lf" 
d="M1120 0h-999l241 1516h1000zM569 1315l-178 -1114h520l179 1114h-521z" />
    <glyph glyph-name="five.lf" 
d="M1120 0h-999l241 1516h1000zM569 1315l-178 -1114h520l179 1114h-521z" />
    <glyph glyph-name="six.lf" 
d="M1120 0h-999l241 1516h1000zM569 1315l-178 -1114h520l179 1114h-521z" />
    <glyph glyph-name="seven.lf" 
d="M1120 0h-999l241 1516h1000zM569 1315l-178 -1114h520l179 1114h-521z" />
    <glyph glyph-name="eight.lf" 
d="M1120 0h-999l241 1516h1000zM569 1315l-178 -1114h520l179 1114h-521z" />
    <glyph glyph-name="nine.lf" 
d="M1120 0h-999l241 1516h1000zM569 1315l-178 -1114h520l179 1114h-521z" />
    <glyph glyph-name="zero.lf.zero" 
d="M1120 0h-999l241 1516h1000zM569 1315l-178 -1114h520l179 1114h-521z" />
    <glyph glyph-name="zero.osf" 
d="M1120 0h-999l241 1516h1000zM569 1315l-178 -1114h520l179 1114h-521z" />
    <glyph glyph-name="one.osf" 
d="M1120 0h-999l241 1516h1000zM569 1315l-178 -1114h520l179 1114h-521z" />
    <glyph glyph-name="two.osf" 
d="M1120 0h-999l241 1516h1000zM569 1315l-178 -1114h520l179 1114h-521z" />
    <glyph glyph-name="three.osf" 
d="M1120 0h-999l241 1516h1000zM569 1315l-178 -1114h520l179 1114h-521z" />
    <glyph glyph-name="four.osf" 
d="M1120 0h-999l241 1516h1000zM569 1315l-178 -1114h520l179 1114h-521z" />
    <glyph glyph-name="five.osf" 
d="M1120 0h-999l241 1516h1000zM569 1315l-178 -1114h520l179 1114h-521z" />
    <glyph glyph-name="six.osf" 
d="M1120 0h-999l241 1516h1000zM569 1315l-178 -1114h520l179 1114h-521z" />
    <glyph glyph-name="seven.osf" 
d="M1120 0h-999l241 1516h1000zM569 1315l-178 -1114h520l179 1114h-521z" />
    <glyph glyph-name="eight.osf" 
d="M1120 0h-999l241 1516h1000zM569 1315l-178 -1114h520l179 1114h-521z" />
    <glyph glyph-name="nine.osf" 
d="M1120 0h-999l241 1516h1000zM569 1315l-178 -1114h520l179 1114h-521z" />
    <glyph glyph-name="zero.osf.zero" 
d="M1120 0h-999l241 1516h1000zM569 1315l-178 -1114h520l179 1114h-521z" />
    <glyph glyph-name="zero.tf" 
d="M1120 0h-999l241 1516h1000zM569 1315l-178 -1114h520l179 1114h-521z" />
    <glyph glyph-name="one.tf" 
d="M1120 0h-999l241 1516h1000zM569 1315l-178 -1114h520l179 1114h-521z" />
    <glyph glyph-name="two.tf" 
d="M1120 0h-999l241 1516h1000zM569 1315l-178 -1114h520l179 1114h-521z" />
    <glyph glyph-name="three.tf" 
d="M1120 0h-999l241 1516h1000zM569 1315l-178 -1114h520l179 1114h-521z" />
    <glyph glyph-name="four.tf" 
d="M1120 0h-999l241 1516h1000zM569 1315l-178 -1114h520l179 1114h-521z" />
    <glyph glyph-name="five.tf" 
d="M1120 0h-999l241 1516h1000zM569 1315l-178 -1114h520l179 1114h-521z" />
    <glyph glyph-name="six.tf" 
d="M1120 0h-999l241 1516h1000zM569 1315l-178 -1114h520l179 1114h-521z" />
    <glyph glyph-name="seven.tf" 
d="M1120 0h-999l241 1516h1000zM569 1315l-178 -1114h520l179 1114h-521z" />
    <glyph glyph-name="eight.tf" 
d="M1120 0h-999l241 1516h1000zM569 1315l-178 -1114h520l179 1114h-521z" />
    <glyph glyph-name="nine.tf" 
d="M1120 0h-999l241 1516h1000zM569 1315l-178 -1114h520l179 1114h-521z" />
    <glyph glyph-name="zero.tf.zero" 
d="M1120 0h-999l241 1516h1000zM569 1315l-178 -1114h520l179 1114h-521z" />
    <glyph glyph-name="uni24FF.zero" 
d="M1120 0h-999l241 1516h1000zM569 1315l-178 -1114h520l179 1114h-521z" />
    <glyph glyph-name="uni24EA.zero" 
d="M1120 0h-999l241 1516h1000zM569 1315l-178 -1114h520l179 1114h-521z" />
    <glyph glyph-name="zero.dnom" 
d="M1120 0h-999l241 1516h1000zM569 1315l-178 -1114h520l179 1114h-521z" />
    <glyph glyph-name="one.dnom" 
d="M1120 0h-999l241 1516h1000zM569 1315l-178 -1114h520l179 1114h-521z" />
    <glyph glyph-name="two.dnom" 
d="M1120 0h-999l241 1516h1000zM569 1315l-178 -1114h520l179 1114h-521z" />
    <glyph glyph-name="three.dnom" 
d="M1120 0h-999l241 1516h1000zM569 1315l-178 -1114h520l179 1114h-521z" />
    <glyph glyph-name="four.dnom" 
d="M1120 0h-999l241 1516h1000zM569 1315l-178 -1114h520l179 1114h-521z" />
    <glyph glyph-name="five.dnom" 
d="M1120 0h-999l241 1516h1000zM569 1315l-178 -1114h520l179 1114h-521z" />
    <glyph glyph-name="six.dnom" 
d="M1120 0h-999l241 1516h1000zM569 1315l-178 -1114h520l179 1114h-521z" />
    <glyph glyph-name="seven.dnom" 
d="M1120 0h-999l241 1516h1000zM569 1315l-178 -1114h520l179 1114h-521z" />
    <glyph glyph-name="eight.dnom" 
d="M1120 0h-999l241 1516h1000zM569 1315l-178 -1114h520l179 1114h-521z" />
    <glyph glyph-name="nine.dnom" 
d="M1120 0h-999l241 1516h1000zM569 1315l-178 -1114h520l179 1114h-521z" />
    <glyph glyph-name="zero.numr" 
d="M1120 0h-999l241 1516h1000zM569 1315l-178 -1114h520l179 1114h-521z" />
    <glyph glyph-name="one.numr" 
d="M1120 0h-999l241 1516h1000zM569 1315l-178 -1114h520l179 1114h-521z" />
    <glyph glyph-name="two.numr" 
d="M1120 0h-999l241 1516h1000zM569 1315l-178 -1114h520l179 1114h-521z" />
    <glyph glyph-name="three.numr" 
d="M1120 0h-999l241 1516h1000zM569 1315l-178 -1114h520l179 1114h-521z" />
    <glyph glyph-name="four.numr" 
d="M1120 0h-999l241 1516h1000zM569 1315l-178 -1114h520l179 1114h-521z" />
    <glyph glyph-name="five.numr" 
d="M1120 0h-999l241 1516h1000zM569 1315l-178 -1114h520l179 1114h-521z" />
    <glyph glyph-name="six.numr" 
d="M1120 0h-999l241 1516h1000zM569 1315l-178 -1114h520l179 1114h-521z" />
    <glyph glyph-name="seven.numr" 
d="M1120 0h-999l241 1516h1000zM569 1315l-178 -1114h520l179 1114h-521z" />
    <glyph glyph-name="eight.numr" 
d="M1120 0h-999l241 1516h1000zM569 1315l-178 -1114h520l179 1114h-521z" />
    <glyph glyph-name="nine.numr" 
d="M1120 0h-999l241 1516h1000zM569 1315l-178 -1114h520l179 1114h-521z" />
    <glyph glyph-name="uni2080.zero" 
d="M1120 0h-999l241 1516h1000zM569 1315l-178 -1114h520l179 1114h-521z" />
    <glyph glyph-name="zero.dnom.zero" 
d="M1120 0h-999l241 1516h1000zM569 1315l-178 -1114h520l179 1114h-521z" />
    <glyph glyph-name="zero.numr.zero" 
d="M1120 0h-999l241 1516h1000zM569 1315l-178 -1114h520l179 1114h-521z" />
    <glyph glyph-name="uni2070.zero" 
d="M1120 0h-999l241 1516h1000zM569 1315l-178 -1114h520l179 1114h-521z" />
    <glyph glyph-name="zero.c2sc" 
d="M1120 0h-999l241 1516h1000zM569 1315l-178 -1114h520l179 1114h-521z" />
    <glyph glyph-name="one.c2sc" 
d="M1120 0h-999l241 1516h1000zM569 1315l-178 -1114h520l179 1114h-521z" />
    <glyph glyph-name="two.c2sc" 
d="M1120 0h-999l241 1516h1000zM569 1315l-178 -1114h520l179 1114h-521z" />
    <glyph glyph-name="three.c2sc" 
d="M1120 0h-999l241 1516h1000zM569 1315l-178 -1114h520l179 1114h-521z" />
    <glyph glyph-name="four.c2sc" 
d="M1120 0h-999l241 1516h1000zM569 1315l-178 -1114h520l179 1114h-521z" />
    <glyph glyph-name="five.c2sc" 
d="M1120 0h-999l241 1516h1000zM569 1315l-178 -1114h520l179 1114h-521z" />
    <glyph glyph-name="six.c2sc" 
d="M1120 0h-999l241 1516h1000zM569 1315l-178 -1114h520l179 1114h-521z" />
    <glyph glyph-name="seven.c2sc" 
d="M1120 0h-999l241 1516h1000zM569 1315l-178 -1114h520l179 1114h-521z" />
    <glyph glyph-name="eight.c2sc" 
d="M1120 0h-999l241 1516h1000zM569 1315l-178 -1114h520l179 1114h-521z" />
    <glyph glyph-name="nine.c2sc" 
d="M1120 0h-999l241 1516h1000zM569 1315l-178 -1114h520l179 1114h-521z" />
    <glyph glyph-name="zero.c2sc.zero" 
d="M1120 0h-999l241 1516h1000zM569 1315l-178 -1114h520l179 1114h-521z" />
    <glyph glyph-name="colon.case" 
d="M1120 0h-999l241 1516h1000zM569 1315l-178 -1114h520l179 1114h-521z" />
    <glyph glyph-name="exclamdown.case" 
d="M1120 0h-999l241 1516h1000zM569 1315l-178 -1114h520l179 1114h-521z" />
    <glyph glyph-name="questiondown.case" 
d="M1120 0h-999l241 1516h1000zM569 1315l-178 -1114h520l179 1114h-521z" />
    <glyph glyph-name="periodcentered.case" 
d="M1120 0h-999l241 1516h1000zM569 1315l-178 -1114h520l179 1114h-521z" />
    <glyph glyph-name="parenleft.case" 
d="M1120 0h-999l241 1516h1000zM569 1315l-178 -1114h520l179 1114h-521z" />
    <glyph glyph-name="parenright.case" 
d="M1120 0h-999l241 1516h1000zM569 1315l-178 -1114h520l179 1114h-521z" />
    <glyph glyph-name="braceleft.case" 
d="M1120 0h-999l241 1516h1000zM569 1315l-178 -1114h520l179 1114h-521z" />
    <glyph glyph-name="braceright.case" 
d="M1120 0h-999l241 1516h1000zM569 1315l-178 -1114h520l179 1114h-521z" />
    <glyph glyph-name="bracketleft.case" 
d="M1120 0h-999l241 1516h1000zM569 1315l-178 -1114h520l179 1114h-521z" />
    <glyph glyph-name="bracketright.case" 
d="M1120 0h-999l241 1516h1000zM569 1315l-178 -1114h520l179 1114h-521z" />
    <glyph glyph-name="hyphen.case" 
d="M1120 0h-999l241 1516h1000zM569 1315l-178 -1114h520l179 1114h-521z" />
    <glyph glyph-name="uni00AD.case" 
d="M1120 0h-999l241 1516h1000zM569 1315l-178 -1114h520l179 1114h-521z" />
    <glyph glyph-name="endash.case" 
d="M1120 0h-999l241 1516h1000zM569 1315l-178 -1114h520l179 1114h-521z" />
    <glyph glyph-name="emdash.case" 
d="M1120 0h-999l241 1516h1000zM569 1315l-178 -1114h520l179 1114h-521z" />
    <glyph glyph-name="guillemotleft.case" 
d="M1120 0h-999l241 1516h1000zM569 1315l-178 -1114h520l179 1114h-521z" />
    <glyph glyph-name="guillemotright.case" 
d="M1120 0h-999l241 1516h1000zM569 1315l-178 -1114h520l179 1114h-521z" />
    <glyph glyph-name="guilsinglleft.case" 
d="M1120 0h-999l241 1516h1000zM569 1315l-178 -1114h520l179 1114h-521z" />
    <glyph glyph-name="guilsinglright.case" 
d="M1120 0h-999l241 1516h1000zM569 1315l-178 -1114h520l179 1114h-521z" />
    <glyph glyph-name="parenleft.c2sc" 
d="M1120 0h-999l241 1516h1000zM569 1315l-178 -1114h520l179 1114h-521z" />
    <glyph glyph-name="parenright.c2sc" 
d="M1120 0h-999l241 1516h1000zM569 1315l-178 -1114h520l179 1114h-521z" />
    <glyph glyph-name="braceleft.c2sc" 
d="M1120 0h-999l241 1516h1000zM569 1315l-178 -1114h520l179 1114h-521z" />
    <glyph glyph-name="braceright.c2sc" 
d="M1120 0h-999l241 1516h1000zM569 1315l-178 -1114h520l179 1114h-521z" />
    <glyph glyph-name="bracketleft.c2sc" 
d="M1120 0h-999l241 1516h1000zM569 1315l-178 -1114h520l179 1114h-521z" />
    <glyph glyph-name="bracketright.c2sc" 
d="M1120 0h-999l241 1516h1000zM569 1315l-178 -1114h520l179 1114h-521z" />
    <glyph glyph-name="exclam.c2sc" 
d="M1120 0h-999l241 1516h1000zM569 1315l-178 -1114h520l179 1114h-521z" />
    <glyph glyph-name="exclamdown.c2sc" 
d="M1120 0h-999l241 1516h1000zM569 1315l-178 -1114h520l179 1114h-521z" />
    <glyph glyph-name="question.c2sc" 
d="M1120 0h-999l241 1516h1000zM569 1315l-178 -1114h520l179 1114h-521z" />
    <glyph glyph-name="questiondown.c2sc" 
d="M1120 0h-999l241 1516h1000zM569 1315l-178 -1114h520l179 1114h-521z" />
    <glyph glyph-name="quotedblleft.c2sc" 
d="M1120 0h-999l241 1516h1000zM569 1315l-178 -1114h520l179 1114h-521z" />
    <glyph glyph-name="quotedblright.c2sc" 
d="M1120 0h-999l241 1516h1000zM569 1315l-178 -1114h520l179 1114h-521z" />
    <glyph glyph-name="quoteleft.c2sc" 
d="M1120 0h-999l241 1516h1000zM569 1315l-178 -1114h520l179 1114h-521z" />
    <glyph glyph-name="quoteright.c2sc" 
d="M1120 0h-999l241 1516h1000zM569 1315l-178 -1114h520l179 1114h-521z" />
    <glyph glyph-name="slash.c2sc" 
d="M1120 0h-999l241 1516h1000zM569 1315l-178 -1114h520l179 1114h-521z" />
    <glyph glyph-name="backslash.c2sc" 
d="M1120 0h-999l241 1516h1000zM569 1315l-178 -1114h520l179 1114h-521z" />
    <glyph glyph-name="quotedbl.c2sc" 
d="M1120 0h-999l241 1516h1000zM569 1315l-178 -1114h520l179 1114h-521z" />
    <glyph glyph-name="quotesingle.c2sc" 
d="M1120 0h-999l241 1516h1000zM569 1315l-178 -1114h520l179 1114h-521z" />
    <glyph glyph-name="hyphen.subs" 
d="M1120 0h-999l241 1516h1000zM569 1315l-178 -1114h520l179 1114h-521z" />
    <glyph glyph-name="parenleft.subs" 
d="M1120 0h-999l241 1516h1000zM569 1315l-178 -1114h520l179 1114h-521z" />
    <glyph glyph-name="parenright.subs" 
d="M1120 0h-999l241 1516h1000zM569 1315l-178 -1114h520l179 1114h-521z" />
    <glyph glyph-name="period.subs" 
d="M1120 0h-999l241 1516h1000zM569 1315l-178 -1114h520l179 1114h-521z" />
    <glyph glyph-name="comma.subs" 
d="M1120 0h-999l241 1516h1000zM569 1315l-178 -1114h520l179 1114h-521z" />
    <glyph glyph-name="hyphen.sups" 
d="M1120 0h-999l241 1516h1000zM569 1315l-178 -1114h520l179 1114h-521z" />
    <glyph glyph-name="parenleft.sups" 
d="M1120 0h-999l241 1516h1000zM569 1315l-178 -1114h520l179 1114h-521z" />
    <glyph glyph-name="parenright.sups" 
d="M1120 0h-999l241 1516h1000zM569 1315l-178 -1114h520l179 1114h-521z" />
    <glyph glyph-name="period.sups" 
d="M1120 0h-999l241 1516h1000zM569 1315l-178 -1114h520l179 1114h-521z" />
    <glyph glyph-name="comma.sups" 
d="M1120 0h-999l241 1516h1000zM569 1315l-178 -1114h520l179 1114h-521z" />
    <glyph glyph-name="uni20BF.lf" 
d="M1120 0h-999l241 1516h1000zM569 1315l-178 -1114h520l179 1114h-521z" />
    <glyph glyph-name="cent.lf" 
d="M1120 0h-999l241 1516h1000zM569 1315l-178 -1114h520l179 1114h-521z" />
    <glyph glyph-name="dollar.lf" 
d="M1120 0h-999l241 1516h1000zM569 1315l-178 -1114h520l179 1114h-521z" />
    <glyph glyph-name="Euro.lf" 
d="M1120 0h-999l241 1516h1000zM569 1315l-178 -1114h520l179 1114h-521z" />
    <glyph glyph-name="florin.lf" 
d="M1120 0h-999l241 1516h1000zM569 1315l-178 -1114h520l179 1114h-521z" />
    <glyph glyph-name="uni20BA.lf" 
d="M1120 0h-999l241 1516h1000zM569 1315l-178 -1114h520l179 1114h-521z" />
    <glyph glyph-name="uni20B9.lf" 
d="M1120 0h-999l241 1516h1000zM569 1315l-178 -1114h520l179 1114h-521z" />
    <glyph glyph-name="sterling.lf" 
d="M1120 0h-999l241 1516h1000zM569 1315l-178 -1114h520l179 1114h-521z" />
    <glyph glyph-name="yen.lf" 
d="M1120 0h-999l241 1516h1000zM569 1315l-178 -1114h520l179 1114h-521z" />
    <glyph glyph-name="arrowup.case" 
d="M1120 0h-999l241 1516h1000zM569 1315l-178 -1114h520l179 1114h-521z" />
    <glyph glyph-name="uni2197.case" 
d="M1120 0h-999l241 1516h1000zM569 1315l-178 -1114h520l179 1114h-521z" />
    <glyph glyph-name="arrowright.case" 
d="M1120 0h-999l241 1516h1000zM569 1315l-178 -1114h520l179 1114h-521z" />
    <glyph glyph-name="uni2198.case" 
d="M1120 0h-999l241 1516h1000zM569 1315l-178 -1114h520l179 1114h-521z" />
    <glyph glyph-name="arrowdown.case" 
d="M1120 0h-999l241 1516h1000zM569 1315l-178 -1114h520l179 1114h-521z" />
    <glyph glyph-name="uni2199.case" 
d="M1120 0h-999l241 1516h1000zM569 1315l-178 -1114h520l179 1114h-521z" />
    <glyph glyph-name="arrowleft.case" 
d="M1120 0h-999l241 1516h1000zM569 1315l-178 -1114h520l179 1114h-521z" />
    <glyph glyph-name="uni2196.case" 
d="M1120 0h-999l241 1516h1000zM569 1315l-178 -1114h520l179 1114h-521z" />
    <glyph glyph-name="arrowboth.case" 
d="M1120 0h-999l241 1516h1000zM569 1315l-178 -1114h520l179 1114h-521z" />
    <glyph glyph-name="arrowupdn.case" 
d="M1120 0h-999l241 1516h1000zM569 1315l-178 -1114h520l179 1114h-521z" />
    <glyph glyph-name="at.case" 
d="M1120 0h-999l241 1516h1000zM569 1315l-178 -1114h520l179 1114h-521z" />
    <glyph glyph-name="ampersand.c2sc" 
d="M1120 0h-999l241 1516h1000zM569 1315l-178 -1114h520l179 1114h-521z" />
    <glyph glyph-name="uni2116.c2sc" 
d="M1120 0h-999l241 1516h1000zM569 1315l-178 -1114h520l179 1114h-521z" />
    <glyph glyph-name="uni20BF.c2sc" 
d="M1120 0h-999l241 1516h1000zM569 1315l-178 -1114h520l179 1114h-521z" />
    <glyph glyph-name="cent.c2sc" 
d="M1120 0h-999l241 1516h1000zM569 1315l-178 -1114h520l179 1114h-521z" />
    <glyph glyph-name="dollar.c2sc" 
d="M1120 0h-999l241 1516h1000zM569 1315l-178 -1114h520l179 1114h-521z" />
    <glyph glyph-name="Euro.c2sc" 
d="M1120 0h-999l241 1516h1000zM569 1315l-178 -1114h520l179 1114h-521z" />
    <glyph glyph-name="uni20BA.c2sc" 
d="M1120 0h-999l241 1516h1000zM569 1315l-178 -1114h520l179 1114h-521z" />
    <glyph glyph-name="percent.c2sc" 
d="M1120 0h-999l241 1516h1000zM569 1315l-178 -1114h520l179 1114h-521z" />
    <glyph glyph-name="perthousand.c2sc" 
d="M1120 0h-999l241 1516h1000zM569 1315l-178 -1114h520l179 1114h-521z" />
    <glyph glyph-name="uni20B9.c2sc" 
d="M1120 0h-999l241 1516h1000zM569 1315l-178 -1114h520l179 1114h-521z" />
    <glyph glyph-name="sterling.c2sc" 
d="M1120 0h-999l241 1516h1000zM569 1315l-178 -1114h520l179 1114h-521z" />
    <glyph glyph-name="yen.c2sc" 
d="M1120 0h-999l241 1516h1000zM569 1315l-178 -1114h520l179 1114h-521z" />
    <glyph glyph-name="multiply.subs" 
d="M1120 0h-999l241 1516h1000zM569 1315l-178 -1114h520l179 1114h-521z" />
    <glyph glyph-name="divide.subs" 
d="M1120 0h-999l241 1516h1000zM569 1315l-178 -1114h520l179 1114h-521z" />
    <glyph glyph-name="multiply.sups" 
d="M1120 0h-999l241 1516h1000zM569 1315l-178 -1114h520l179 1114h-521z" />
    <glyph glyph-name="divide.sups" 
d="M1120 0h-999l241 1516h1000zM569 1315l-178 -1114h520l179 1114h-521z" />
    <glyph glyph-name="florin.c2sc" 
d="M1120 0h-999l241 1516h1000zM569 1315l-178 -1114h520l179 1114h-521z" />
    <glyph glyph-name="uni030C.alt" 
d="M1120 0h-999l241 1516h1000zM569 1315l-178 -1114h520l179 1114h-521z" />
    <glyph glyph-name="uni0308.case" 
d="M1120 0h-999l241 1516h1000zM569 1315l-178 -1114h520l179 1114h-521z" />
    <glyph glyph-name="uni0307.case" 
d="M1120 0h-999l241 1516h1000zM569 1315l-178 -1114h520l179 1114h-521z" />
    <glyph glyph-name="gravecomb.case" 
d="M1120 0h-999l241 1516h1000zM569 1315l-178 -1114h520l179 1114h-521z" />
    <glyph glyph-name="acutecomb.case" 
d="M1120 0h-999l241 1516h1000zM569 1315l-178 -1114h520l179 1114h-521z" />
    <glyph glyph-name="uni030B.case" 
d="M1120 0h-999l241 1516h1000zM569 1315l-178 -1114h520l179 1114h-521z" />
    <glyph glyph-name="uni030C.alt.case" 
d="M1120 0h-999l241 1516h1000zM569 1315l-178 -1114h520l179 1114h-521z" />
    <glyph glyph-name="uni0302.case" 
d="M1120 0h-999l241 1516h1000zM569 1315l-178 -1114h520l179 1114h-521z" />
    <glyph glyph-name="uni030C.case" 
d="M1120 0h-999l241 1516h1000zM569 1315l-178 -1114h520l179 1114h-521z" />
    <glyph glyph-name="uni0306.case" 
d="M1120 0h-999l241 1516h1000zM569 1315l-178 -1114h520l179 1114h-521z" />
    <glyph glyph-name="uni030A.case" 
d="M1120 0h-999l241 1516h1000zM569 1315l-178 -1114h520l179 1114h-521z" />
    <glyph glyph-name="tildecomb.case" 
d="M1120 0h-999l241 1516h1000zM569 1315l-178 -1114h520l179 1114h-521z" />
    <glyph glyph-name="uni0304.case" 
d="M1120 0h-999l241 1516h1000zM569 1315l-178 -1114h520l179 1114h-521z" />
    <glyph glyph-name="uni0308.narrow" 
d="M1120 0h-999l241 1516h1000zM569 1315l-178 -1114h520l179 1114h-521z" />
    <glyph glyph-name="gravecomb.narrow" 
d="M1120 0h-999l241 1516h1000zM569 1315l-178 -1114h520l179 1114h-521z" />
    <glyph glyph-name="acutecomb.narrow" 
d="M1120 0h-999l241 1516h1000zM569 1315l-178 -1114h520l179 1114h-521z" />
    <glyph glyph-name="uni0302.narrow" 
d="M1120 0h-999l241 1516h1000zM569 1315l-178 -1114h520l179 1114h-521z" />
    <glyph glyph-name="uni0306.narrow" 
d="M1120 0h-999l241 1516h1000zM569 1315l-178 -1114h520l179 1114h-521z" />
    <glyph glyph-name="tildecomb.narrow" 
d="M1120 0h-999l241 1516h1000zM569 1315l-178 -1114h520l179 1114h-521z" />
    <glyph glyph-name="uni0304.narrow" 
d="M1120 0h-999l241 1516h1000zM569 1315l-178 -1114h520l179 1114h-521z" />
    <glyph glyph-name="uni0328.narrow" 
d="M1120 0h-999l241 1516h1000zM569 1315l-178 -1114h520l179 1114h-521z" />
    <glyph glyph-name="uni0308.case.narrow" 
d="M1120 0h-999l241 1516h1000zM569 1315l-178 -1114h520l179 1114h-521z" />
    <glyph glyph-name="gravecomb.case.narrow" 
d="M1120 0h-999l241 1516h1000zM569 1315l-178 -1114h520l179 1114h-521z" />
    <glyph glyph-name="acutecomb.case.narrow" 
d="M1120 0h-999l241 1516h1000zM569 1315l-178 -1114h520l179 1114h-521z" />
    <glyph glyph-name="uni0302.case.narrow" 
d="M1120 0h-999l241 1516h1000zM569 1315l-178 -1114h520l179 1114h-521z" />
    <glyph glyph-name="uni0306.case.narrow" 
d="M1120 0h-999l241 1516h1000zM569 1315l-178 -1114h520l179 1114h-521z" />
    <glyph glyph-name="tildecomb.case.narrow" 
d="M1120 0h-999l241 1516h1000zM569 1315l-178 -1114h520l179 1114h-521z" />
    <glyph glyph-name="uni0304.case.narrow" 
d="M1120 0h-999l241 1516h1000zM569 1315l-178 -1114h520l179 1114h-521z" />
    <glyph glyph-name="ringacutecomb" 
d="M1120 0h-999l241 1516h1000zM569 1315l-178 -1114h520l179 1114h-521z" />
    <glyph glyph-name="ringacutecomb.case" 
d="M1120 0h-999l241 1516h1000zM569 1315l-178 -1114h520l179 1114h-521z" />
    </font>
</defs>
</svg>
