<?xml version="1.0" standalone="no"?>
<!DOCTYPE svg PUBLIC "-//W3C//DTD SVG 1.1//EN" "http://www.w3.org/Graphics/SVG/1.1/DTD/svg11.dtd" >
<svg xmlns="http://www.w3.org/2000/svg" xmlns:xlink="http://www.w3.org/1999/xlink" version="1.1">
<metadata>
Created by FontForge 20170731 at Fri Nov 10 10:03:50 2023
 By Aleksey,,,
Copyright (c) 2021 by Daniel Sabino. All rights reserved.
</metadata>
<defs>
<font id="ElzaTextTrial-Medium" horiz-adv-x="1409" >
  <font-face 
    font-family="Elza Text Trial Medium"
    font-weight="500"
    font-stretch="normal"
    units-per-em="2048"
    panose-1="0 0 6 0 0 0 0 0 0 0"
    ascent="1638"
    descent="-410"
    x-height="1055"
    cap-height="1454"
    bbox="-90 -375 1952 1567"
    underline-thickness="102"
    underline-position="-307"
    unicode-range="U+0020-FB02"
  />
<missing-glyph 
d="M1204 0h-999v1516h999v-1516zM444 1315v-1114h521v1114h-521z" />
    <glyph glyph-name=".notdef" 
d="M1204 0h-999v1516h999v-1516zM444 1315v-1114h521v1114h-521z" />
    <glyph glyph-name=".null" horiz-adv-x="0" 
 />
    <glyph glyph-name="nonmarkingreturn" horiz-adv-x="682" 
 />
    <glyph glyph-name="space" unicode=" " horiz-adv-x="419" 
 />
    <glyph glyph-name="exclam" unicode="!" 
d="M1204 0h-999v1516h999v-1516zM444 1315v-1114h521v1114h-521z" />
    <glyph glyph-name="quotedbl" unicode="&#x22;" 
d="M1204 0h-999v1516h999v-1516zM444 1315v-1114h521v1114h-521z" />
    <glyph glyph-name="numbersign" unicode="#" 
d="M1204 0h-999v1516h999v-1516zM444 1315v-1114h521v1114h-521z" />
    <glyph glyph-name="dollar" unicode="$" 
d="M1204 0h-999v1516h999v-1516zM444 1315v-1114h521v1114h-521z" />
    <glyph glyph-name="percent" unicode="%" 
d="M1204 0h-999v1516h999v-1516zM444 1315v-1114h521v1114h-521z" />
    <glyph glyph-name="ampersand" unicode="&#x26;" 
d="M1204 0h-999v1516h999v-1516zM444 1315v-1114h521v1114h-521z" />
    <glyph glyph-name="quotesingle" unicode="'" 
d="M1204 0h-999v1516h999v-1516zM444 1315v-1114h521v1114h-521z" />
    <glyph glyph-name="parenleft" unicode="(" 
d="M1204 0h-999v1516h999v-1516zM444 1315v-1114h521v1114h-521z" />
    <glyph glyph-name="parenright" unicode=")" 
d="M1204 0h-999v1516h999v-1516zM444 1315v-1114h521v1114h-521z" />
    <glyph glyph-name="asterisk" unicode="*" 
d="M1204 0h-999v1516h999v-1516zM444 1315v-1114h521v1114h-521z" />
    <glyph glyph-name="plus" unicode="+" 
d="M1204 0h-999v1516h999v-1516zM444 1315v-1114h521v1114h-521z" />
    <glyph glyph-name="comma" unicode="," horiz-adv-x="659" 
d="M147 -344v131q92 0 133.5 41t41.5 135v37h-129v274h274v-303q0 -153 -83.5 -234t-236.5 -81z" />
    <glyph glyph-name="hyphen" unicode="-" horiz-adv-x="950" 
d="M793 487h-635v203h635v-203z" />
    <glyph glyph-name="period" unicode="." horiz-adv-x="659" 
d="M467 0h-274v274h274v-274z" />
    <glyph glyph-name="slash" unicode="/" 
d="M1204 0h-999v1516h999v-1516zM444 1315v-1114h521v1114h-521z" />
    <glyph glyph-name="zero" unicode="0" horiz-adv-x="1259" 
d="M629 -27q-259 0 -396 194.5t-137 539.5v41q0 343 137.5 538t395.5 195q262 0 398 -194.5t136 -538.5v-41q0 -347 -135.5 -540.5t-398.5 -193.5zM629 170q153 0 222 127.5t69 398.5v62q0 269 -69 397.5t-222 128.5q-150 0 -219.5 -129t-69.5 -397v-62q0 -269 69.5 -397.5
t219.5 -128.5z" />
    <glyph glyph-name="one" unicode="1" horiz-adv-x="778" 
d="M606 0h-235v1130q-115 -106 -291 -149v215q215 56 350 258h176v-1454z" />
    <glyph glyph-name="two" unicode="2" horiz-adv-x="1110" 
d="M1053 0h-996v162q0 78 9.5 137t38 121t78.5 112.5t132.5 102t198.5 98.5q122 50 185 96t85.5 96.5t22.5 129.5v6q0 98 -63 161.5t-171 63.5q-123 0 -192 -68.5t-74 -193.5h-237q12 208 145.5 332.5t353.5 124.5q210 0 341.5 -119.5t131.5 -294.5v-12q0 -79 -17.5 -140.5
t-61.5 -123.5t-126.5 -117.5t-205.5 -108.5q-104 -45 -168 -83.5t-98.5 -82.5t-46 -87t-13.5 -109h748v-203z" />
    <glyph glyph-name="three" unicode="3" horiz-adv-x="1259" 
d="M633 -27q-243 0 -388.5 124t-154.5 339h240q10 -127 89 -193.5t216 -66.5q126 0 206.5 63t80.5 169v28q0 106 -76.5 164.5t-202.5 58.5h-154v187h152q107 0 176.5 54.5t69.5 150.5v28q0 90 -69.5 146.5t-178.5 56.5q-129 0 -203 -67t-80 -191h-233q9 205 151.5 331
t360.5 126q135 0 244 -48t172 -137.5t63 -203.5v-23q0 -108 -63 -190.5t-168 -116.5q125 -32 202.5 -121.5t77.5 -220.5v-23q0 -188 -149 -306t-381 -118z" />
    <glyph glyph-name="four" unicode="4" horiz-adv-x="1259" 
d="M987 0h-235v348h-703v189l701 917h237v-915h205v-191h-205v-348zM752 1159l-480 -622h480v622z" />
    <glyph glyph-name="five" unicode="5" horiz-adv-x="1259" 
d="M637 -27q-224 0 -366.5 120t-157.5 323h237q12 -118 92.5 -182t198.5 -64q128 0 209.5 78t81.5 205v28q0 129 -80 206t-211 77q-88 0 -160 -39t-114 -102l-201 14l129 817h805v-203h-631l-68 -407q117 104 293 104q203 0 337 -128.5t134 -334.5v-22q0 -216 -148 -353
t-380 -137z" />
    <glyph glyph-name="six" unicode="6" horiz-adv-x="1259" 
d="M645 -27q-256 0 -402.5 186.5t-146.5 528.5v74q0 340 146 529.5t405 189.5q206 0 340 -110t160 -300h-223q-20 105 -91.5 160t-185.5 55q-163 0 -249.5 -121t-86.5 -393v-43q45 94 143.5 151.5t237.5 57.5q199 0 333 -125t134 -328v-22q0 -214 -144.5 -352t-369.5 -138z
M645 166q123 0 200 79t77 208v28q0 120 -76.5 194.5t-200.5 74.5q-126 0 -205.5 -76t-79.5 -195v-26q0 -125 80 -206t205 -81z" />
    <glyph glyph-name="seven" unicode="7" horiz-adv-x="1155" 
d="M530 0h-258q100 631 564 1251h-762v203h1034v-166q-486 -622 -578 -1288z" />
    <glyph glyph-name="eight" unicode="8" horiz-adv-x="1259" 
d="M631 -27q-237 0 -386 115t-149 305v21q0 130 78.5 222t200.5 126q-102 38 -163.5 120.5t-61.5 192.5v21q0 169 137 277t344 108q134 0 243 -48.5t172.5 -137t63.5 -199.5v-21q0 -110 -62 -192.5t-165 -120.5q122 -34 201 -126t79 -222v-21q0 -190 -147.5 -305
t-384.5 -115zM631 854q110 0 182 56.5t72 152.5v20q0 96 -71 151.5t-183 55.5t-183 -55.5t-71 -151.5v-20q0 -96 71.5 -152.5t182.5 -56.5zM631 168q127 0 209 63.5t82 171.5v21q0 108 -82.5 171.5t-208.5 63.5q-127 0 -209 -63.5t-82 -171.5v-21q0 -108 81 -171.5
t210 -63.5z" />
    <glyph glyph-name="nine" unicode="9" horiz-adv-x="1259" 
d="M612 -27q-206 0 -338.5 110t-160.5 300h223q19 -104 90.5 -159.5t185.5 -55.5q163 0 249.5 121t86.5 393v43q-45 -93 -144.5 -151t-236.5 -58q-199 0 -333 125t-134 328v22q0 214 143.5 352t370.5 138q257 0 403 -185.5t146 -527.5v-76q0 -340 -146 -529.5t-405 -189.5z
M614 705q126 0 205.5 75.5t79.5 194.5v26q0 125 -80 206t-205 81q-124 0 -200 -78.5t-76 -208.5v-28q0 -120 76.5 -194t199.5 -74z" />
    <glyph glyph-name="colon" unicode=":" 
d="M1204 0h-999v1516h999v-1516zM444 1315v-1114h521v1114h-521z" />
    <glyph glyph-name="semicolon" unicode=";" 
d="M1204 0h-999v1516h999v-1516zM444 1315v-1114h521v1114h-521z" />
    <glyph glyph-name="less" unicode="&#x3c;" 
d="M1204 0h-999v1516h999v-1516zM444 1315v-1114h521v1114h-521z" />
    <glyph glyph-name="equal" unicode="=" 
d="M1204 0h-999v1516h999v-1516zM444 1315v-1114h521v1114h-521z" />
    <glyph glyph-name="greater" unicode="&#x3e;" 
d="M1204 0h-999v1516h999v-1516zM444 1315v-1114h521v1114h-521z" />
    <glyph glyph-name="question" unicode="?" 
d="M1204 0h-999v1516h999v-1516zM444 1315v-1114h521v1114h-521z" />
    <glyph glyph-name="at" unicode="@" 
d="M1204 0h-999v1516h999v-1516zM444 1315v-1114h521v1114h-521z" />
    <glyph glyph-name="A" unicode="A" horiz-adv-x="1427" 
d="M1403 0h-250l-133 360h-621l-133 -360h-241l559 1454h260zM711 1202l-240 -649h477z" />
    <glyph glyph-name="B" unicode="B" horiz-adv-x="1390" 
d="M805 0h-639v1454h594q222 0 347.5 -93t125.5 -280v-22q0 -94 -47 -171.5t-135 -119.5q116 -38 180.5 -128t64.5 -210v-24q0 -190 -135.5 -298t-355.5 -108zM403 1253v-411h338q248 0 248 198v21q0 103 -63.5 147.5t-190.5 44.5h-332zM403 641v-440h377q126 0 199.5 54
t73.5 157v24q0 205 -262 205h-388z" />
    <glyph glyph-name="C" unicode="C" horiz-adv-x="1456" 
d="M780 -27q-307 0 -493.5 201.5t-186.5 527.5v50q0 212 84 378t238.5 258.5t355.5 92.5q250 0 412.5 -133.5t198.5 -350.5h-242q-36 130 -132 204.5t-239 74.5q-199 0 -313.5 -144t-114.5 -380v-50q0 -235 116 -379.5t316 -144.5q153 0 249 83.5t124 215.5h244
q-19 -107 -68 -197.5t-125 -159.5t-185 -108t-239 -39z" />
    <glyph glyph-name="D" unicode="D" horiz-adv-x="1492" 
d="M674 0h-508v1454h508q215 0 375.5 -79.5t252 -239.5t91.5 -383v-50q0 -332 -196 -517t-523 -185zM403 1253v-1052h254q232 0 361 124t129 377v50q0 253 -129 377t-365 124h-250z" />
    <glyph glyph-name="E" unicode="E" horiz-adv-x="1294" 
d="M1180 0h-1014v1454h1001v-199h-761v-413h698v-199h-698v-440h774v-203z" />
    <glyph glyph-name="F" unicode="F" horiz-adv-x="1202" 
d="M406 0h-240v1454h950v-199h-710v-438h645v-199h-645v-618z" />
    <glyph glyph-name="G" unicode="G" horiz-adv-x="1511" 
d="M760 -27q-194 0 -344.5 92t-233 258t-82.5 379v50q0 212 85 378t241.5 258.5t359.5 92.5q247 0 407.5 -131t201.5 -346h-242q-33 128 -128.5 200t-242.5 72q-203 0 -318.5 -144t-115.5 -380v-50q0 -236 117 -380t319 -144q99 0 177.5 31t127 84t74 119t27.5 141v27h-430
v192h639v-772h-185l-24 201q-53 -101 -170 -164.5t-260 -63.5z" />
    <glyph glyph-name="H" unicode="H" horiz-adv-x="1525" 
d="M408 0h-242v1454h242v-606h712v606h240v-1454h-240v647h-712v-647z" />
    <glyph glyph-name="I" unicode="I" horiz-adv-x="604" 
d="M422 0h-240v1454h240v-1454z" />
    <glyph glyph-name="J" unicode="J" horiz-adv-x="1224" 
d="M575 -27q-238 0 -365.5 124.5t-127.5 334.5v80h235v-76q0 -254 254 -254q132 0 195 69.5t63 215.5v987h238v-977q0 -236 -130 -370t-362 -134z" />
    <glyph glyph-name="K" unicode="K" horiz-adv-x="1343" 
d="M406 0h-240v1454h240v-694l610 694h282l-563 -627l584 -827h-275l-469 668l-169 -189v-479z" />
    <glyph glyph-name="L" unicode="L" horiz-adv-x="1073" 
d="M1014 0h-848v1454h240v-1251h608v-203z" />
    <glyph glyph-name="M" unicode="M" horiz-adv-x="1832" 
d="M399 0h-233v1454h350l408 -1159l405 1159h338v-1454h-231v1178l-416 -1178h-201l-420 1180v-1180z" />
    <glyph glyph-name="N" unicode="N" horiz-adv-x="1527" 
d="M397 0h-231v1454h285l682 -1116v1116h227v-1454h-268l-695 1143v-1143z" />
    <glyph glyph-name="O" unicode="O" horiz-adv-x="1583" 
d="M793 -27q-209 0 -367 93t-242 258t-84 378v50q0 325 189 527t504 202q208 0 365 -92.5t241 -257.5t84 -379v-50q0 -213 -83.5 -378t-241 -258t-365.5 -93zM793 178q209 0 326.5 142t117.5 382v50q0 240 -117.5 382t-326.5 142q-210 0 -327.5 -141.5t-117.5 -382.5v-50
q0 -240 118 -382t327 -142z" />
    <glyph glyph-name="P" unicode="P" horiz-adv-x="1325" 
d="M403 0h-237v1454h592q226 0 361.5 -113.5t135.5 -320.5v-33q0 -207 -135.5 -320.5t-361.5 -113.5h-355v-553zM403 1253v-499h334q127 0 200 58.5t73 174.5v33q0 116 -73 174.5t-200 58.5h-334z" />
    <glyph glyph-name="Q" unicode="Q" horiz-adv-x="1583" 
d="M1483 752v-50q0 -200 -76 -359t-213 -253l164 -264h-238l-110 176q-110 -29 -217 -29q-209 0 -367 93t-242 258t-84 378v50q0 325 189 527t504 202q208 0 365 -92.5t241 -257.5t84 -379zM1237 702v50q0 240 -117.5 382t-326.5 142q-210 0 -327.5 -141.5t-117.5 -382.5
v-50q0 -240 118 -382t327 -142q47 0 102 10l-172 275h240l114 -184q160 138 160 423z" />
    <glyph glyph-name="R" unicode="R" horiz-adv-x="1337" 
d="M403 0h-237v1454h612q226 0 362 -113.5t136 -320.5v-33q0 -168 -91 -274.5t-251 -141.5l373 -571h-275l-352 553h-277v-553zM403 1253v-499h355q127 0 199.5 58t72.5 175v33q0 117 -72.5 175t-199.5 58h-355z" />
    <glyph glyph-name="S" unicode="S" horiz-adv-x="1327" 
d="M682 -27q-263 0 -421 122.5t-177 344.5h238q18 -136 114 -202t252 -66q133 0 222 55.5t89 155.5v20q0 89 -84.5 143t-296.5 93q-260 49 -371.5 145t-111.5 260v21q0 181 145 298.5t379 117.5q235 0 382 -110t173 -318h-237q-17 114 -101 173.5t-221 59.5
q-131 0 -205.5 -57.5t-74.5 -153.5v-14q0 -57 27 -94.5t104.5 -69.5t216.5 -55q265 -44 391.5 -142.5t126.5 -275.5v-21q0 -191 -152.5 -310.5t-406.5 -119.5z" />
    <glyph glyph-name="T" unicode="T" horiz-adv-x="1212" 
d="M725 0h-240v1251h-428v203h1098v-203h-430v-1251z" />
    <glyph glyph-name="U" unicode="U" horiz-adv-x="1488" 
d="M745 -27q-289 0 -439 151t-150 431v899h241v-893q0 -379 348 -379q173 0 261 96t88 285v891h237v-897q0 -279 -149.5 -431.5t-436.5 -152.5z" />
    <glyph glyph-name="V" unicode="V" horiz-adv-x="1331" 
d="M797 0h-260l-514 1454h253l396 -1186l391 1186h246z" />
    <glyph glyph-name="W" unicode="W" horiz-adv-x="1974" 
d="M686 0h-274l-389 1454h247l287 -1157l309 1157h258l306 -1159l284 1159h238l-391 -1454h-269l-303 1135z" />
    <glyph glyph-name="X" unicode="X" horiz-adv-x="1386" 
d="M291 0h-268l528 756l-490 698h279l356 -526l361 526h268l-494 -696l533 -758h-281l-395 580z" />
    <glyph glyph-name="Y" unicode="Y" horiz-adv-x="1294" 
d="M766 0h-238v471l-512 983h260l375 -756l375 756h252l-512 -983v-471z" />
    <glyph glyph-name="Z" unicode="Z" horiz-adv-x="1175" 
d="M1100 0h-1024v180l729 1073h-690v201h968v-180l-723 -1071h740v-203z" />
    <glyph glyph-name="bracketleft" unicode="[" 
d="M1204 0h-999v1516h999v-1516zM444 1315v-1114h521v1114h-521z" />
    <glyph glyph-name="backslash" unicode="\" 
d="M1204 0h-999v1516h999v-1516zM444 1315v-1114h521v1114h-521z" />
    <glyph glyph-name="bracketright" unicode="]" 
d="M1204 0h-999v1516h999v-1516zM444 1315v-1114h521v1114h-521z" />
    <glyph glyph-name="asciicircum" unicode="^" 
d="M1204 0h-999v1516h999v-1516zM444 1315v-1114h521v1114h-521z" />
    <glyph glyph-name="underscore" unicode="_" 
d="M1204 0h-999v1516h999v-1516zM444 1315v-1114h521v1114h-521z" />
    <glyph glyph-name="grave" unicode="`" 
d="M1204 0h-999v1516h999v-1516zM444 1315v-1114h521v1114h-521z" />
    <glyph glyph-name="a" unicode="a" horiz-adv-x="1146" 
d="M442 -27q-161 0 -257.5 87.5t-96.5 224.5q0 126 74 205t209 98l415 61v76q0 87 -56 132.5t-157 45.5q-98 0 -156.5 -39.5t-72.5 -111.5h-215q17 154 136 240.5t313 86.5q201 0 313.5 -98t112.5 -264v-717h-207l-9 164q-50 -90 -141 -140.5t-205 -50.5zM494 152
q121 0 206.5 67t85.5 168v96l-337 -47q-142 -21 -142 -141q0 -67 49 -105t138 -38z" />
    <glyph glyph-name="b" unicode="b" horiz-adv-x="1269" 
d="M717 -27q-124 0 -214.5 58.5t-133.5 142.5l-7 -174h-210v1540h227v-641q49 81 137 130.5t207 49.5q205 0 328 -149.5t123 -386.5v-31q0 -238 -126 -388.5t-331 -150.5zM662 156q135 0 208.5 93.5t73.5 262.5v31q0 171 -73.5 264.5t-208.5 93.5q-140 0 -215.5 -93.5
t-75.5 -264.5v-31q0 -171 75 -263.5t216 -92.5z" />
    <glyph glyph-name="c" unicode="c" horiz-adv-x="1153" 
d="M604 -27q-236 0 -372 148t-136 391v31q0 243 136 389.5t374 146.5q196 0 319 -101.5t148 -275.5h-221q-44 195 -250 195q-135 0 -204.5 -91t-69.5 -263v-31q0 -172 69.5 -263t204.5 -91q208 0 252 198h223q-28 -179 -152.5 -281t-320.5 -102z" />
    <glyph glyph-name="d" unicode="d" horiz-adv-x="1267" 
d="M551 -27q-205 0 -330 150.5t-125 388.5v31q0 238 122.5 387t328.5 149q119 0 207 -49.5t137 -128.5v639h225v-1540h-209l-6 176q-43 -85 -134 -144t-216 -59zM608 156q141 0 216 92.5t75 263.5v31q0 171 -76 264.5t-215 93.5q-135 0 -208.5 -93.5t-73.5 -264.5v-31
q0 -170 73 -263t209 -93z" />
    <glyph glyph-name="e" unicode="e" horiz-adv-x="1200" 
d="M614 -27q-241 0 -379.5 148t-138.5 391v31q0 241 139.5 388.5t376.5 147.5q253 0 380.5 -161.5t113.5 -438.5h-791q7 -159 84.5 -242t214.5 -83q105 0 171 43.5t92 121.5h223q-39 -161 -166.5 -253.5t-319.5 -92.5zM322 639h557q-11 125 -79 194.5t-188 69.5
q-125 0 -198 -67t-92 -197z" />
    <glyph glyph-name="f" unicode="f" horiz-adv-x="794" 
d="M461 0h-225v885h-205v170h205v200q0 312 346 312q74 0 172 -25v-178q-78 20 -129 20q-91 0 -127.5 -36t-36.5 -117v-176h287v-170h-287v-885z" />
    <glyph glyph-name="g" unicode="g" horiz-adv-x="1267" 
d="M600 -375q-211 0 -334 84t-143 221h246q25 -139 243 -139q134 0 206.5 64t72.5 188v160q-44 -80 -132.5 -131.5t-205.5 -51.5q-207 0 -332 144t-125 368v39q0 223 123.5 365.5t327.5 142.5q126 0 218 -57.5t136 -140.5l6 174h209v-987q0 -207 -134.5 -325t-381.5 -118z
M608 203q138 0 214.5 87.5t76.5 241.5v39q0 156 -75.5 243t-215.5 87q-135 0 -208.5 -87.5t-73.5 -242.5v-39q0 -154 74 -241.5t208 -87.5z" />
    <glyph glyph-name="h" unicode="h" horiz-adv-x="1220" 
d="M377 0h-225v1540h227v-647q46 84 130.5 135t203.5 51q185 0 274.5 -105.5t89.5 -293.5v-680h-223v625q0 133 -52 200.5t-165 67.5q-118 0 -189 -81.5t-71 -221.5v-590z" />
    <glyph glyph-name="i" unicode="i" horiz-adv-x="528" 
d="M383 1255h-238v285h238v-285zM377 0h-225v1055h225v-1055z" />
    <glyph glyph-name="j" unicode="j" horiz-adv-x="542" 
d="M393 1255h-237v285h237v-285zM70 -375q-81 0 -160 27v176q54 -21 115 -21q76 0 108.5 37t32.5 117v1094h225v-1118q0 -153 -80 -232.5t-241 -79.5z" />
    <glyph glyph-name="k" unicode="k" horiz-adv-x="1091" 
d="M377 0h-225v1540h225v-907l414 422h272l-420 -422l434 -633h-258l-338 494l-104 -105v-389z" />
    <glyph glyph-name="l" unicode="l" horiz-adv-x="528" 
d="M377 0h-225v1540h225v-1540z" />
    <glyph glyph-name="m" unicode="m" horiz-adv-x="1859" 
d="M377 0h-225v1055h217l6 -164q44 83 126 135.5t199 52.5q240 0 316 -205q118 205 348 205q177 0 264.5 -105t87.5 -294v-680h-225v635q0 131 -49.5 194.5t-153.5 63.5q-114 0 -176.5 -80.5t-62.5 -226.5v-586h-226v633q0 131 -48.5 195.5t-151.5 64.5q-115 0 -180.5 -80.5
t-65.5 -228.5v-584z" />
    <glyph glyph-name="n" unicode="n" horiz-adv-x="1220" 
d="M377 0h-225v1055h217l8 -168q45 85 130.5 138.5t205.5 53.5q185 0 274.5 -105.5t89.5 -293.5v-680h-223v625q0 133 -52 200.5t-165 67.5q-118 0 -189 -81.5t-71 -221.5v-590z" />
    <glyph glyph-name="o" unicode="o" horiz-adv-x="1234" 
d="M616 -27q-235 0 -377.5 148.5t-142.5 390.5v31q0 242 142 389t378 147q237 0 380 -147t143 -389v-31q0 -242 -143 -390.5t-380 -148.5zM616 156q144 0 218.5 92t74.5 264v31q0 171 -74.5 262.5t-218.5 91.5q-142 0 -216 -91.5t-74 -262.5v-31q0 -171 74 -263.5t216 -92.5
z" />
    <glyph glyph-name="p" unicode="p" horiz-adv-x="1269" 
d="M379 -348h-227v1403h210l7 -174q42 83 135 140.5t219 57.5q205 0 328 -148.5t123 -387.5v-31q0 -239 -125 -389t-332 -150q-116 0 -204 53t-134 134v-508zM662 156q135 0 208.5 93t73.5 263v31q0 171 -73.5 264.5t-208.5 93.5q-140 0 -215.5 -93.5t-75.5 -264.5v-31
q0 -171 75 -263.5t216 -92.5z" />
    <glyph glyph-name="q" unicode="q" horiz-adv-x="1267" 
d="M1116 -348h-225v508q-46 -82 -134.5 -134.5t-205.5 -52.5q-207 0 -331 150t-124 389v31q0 239 123 387.5t328 148.5q126 0 218 -57.5t136 -140.5l6 174h209v-1403zM608 156q139 0 215 93t76 263v31q0 171 -75.5 264.5t-215.5 93.5q-136 0 -209 -93.5t-73 -264.5v-31
q0 -170 73.5 -263t208.5 -93z" />
    <glyph glyph-name="r" unicode="r" horiz-adv-x="800" 
d="M377 0h-225v1055h217l6 -205q44 105 126 165t193 60q31 0 58 -6v-219q-40 4 -70 4q-145 0 -225 -81t-80 -236v-537z" />
    <glyph glyph-name="s" unicode="s" horiz-adv-x="1071" 
d="M545 -27q-204 0 -326 93.5t-135 261.5h215q15 -92 79 -138.5t169 -46.5q97 0 155 38.5t58 107.5q0 64 -55.5 99.5t-202.5 62.5q-200 33 -291.5 104.5t-91.5 208.5q0 141 115 228t298 87q189 0 302.5 -86.5t128.5 -242.5h-215q-10 78 -68.5 120.5t-149.5 42.5
q-90 0 -142 -36.5t-52 -100.5q0 -62 55 -95t199 -56q203 -33 299 -107t96 -209q0 -151 -121 -243.5t-319 -92.5z" />
    <glyph glyph-name="t" unicode="t" horiz-adv-x="835" 
d="M582 -27q-346 0 -346 312v600h-205v170h205v329h225v-329h287v-170h-287v-576q0 -80 36.5 -115.5t127.5 -35.5q67 0 129 20v-180q-98 -25 -172 -25z" />
    <glyph glyph-name="u" unicode="u" horiz-adv-x="1206" 
d="M506 -27q-181 0 -273 106.5t-92 297.5v678h228v-635q0 -126 50.5 -192t160.5 -66q116 0 181.5 82.5t65.5 224.5v586h228v-1055h-219l-5 160q-49 -83 -133 -135t-192 -52z" />
    <glyph glyph-name="v" unicode="v" horiz-adv-x="1093" 
d="M672 0h-248l-393 1055h239l283 -826l278 826h230z" />
    <glyph glyph-name="w" unicode="w" horiz-adv-x="1624" 
d="M586 0h-238l-317 1055h229l219 -811l221 811h222l223 -813l223 813h225l-321 -1055h-236l-227 799z" />
    <glyph glyph-name="x" unicode="x" horiz-adv-x="1091" 
d="M276 0h-245l383 541l-365 514h262l240 -353l242 353h245l-362 -508l385 -547h-260l-264 385z" />
    <glyph glyph-name="y" unicode="y" horiz-adv-x="1093" 
d="M535 -348h-234l137 354l-407 1049h241l285 -801l274 801h232z" />
    <glyph glyph-name="z" unicode="z" horiz-adv-x="1021" 
d="M930 0h-834v164l545 710h-510v181h776v-162l-538 -711h561v-182z" />
    <glyph glyph-name="braceleft" unicode="{" 
d="M1204 0h-999v1516h999v-1516zM444 1315v-1114h521v1114h-521z" />
    <glyph glyph-name="bar" unicode="|" 
d="M1204 0h-999v1516h999v-1516zM444 1315v-1114h521v1114h-521z" />
    <glyph glyph-name="braceright" unicode="}" 
d="M1204 0h-999v1516h999v-1516zM444 1315v-1114h521v1114h-521z" />
    <glyph glyph-name="asciitilde" unicode="~" 
d="M1204 0h-999v1516h999v-1516zM444 1315v-1114h521v1114h-521z" />
    <glyph glyph-name="uni00A0" unicode="&#xa0;" 
d="M1204 0h-999v1516h999v-1516zM444 1315v-1114h521v1114h-521z" />
    <glyph glyph-name="exclamdown" unicode="&#xa1;" 
d="M1204 0h-999v1516h999v-1516zM444 1315v-1114h521v1114h-521z" />
    <glyph glyph-name="cent" unicode="&#xa2;" 
d="M1204 0h-999v1516h999v-1516zM444 1315v-1114h521v1114h-521z" />
    <glyph glyph-name="sterling" unicode="&#xa3;" 
d="M1204 0h-999v1516h999v-1516zM444 1315v-1114h521v1114h-521z" />
    <glyph glyph-name="currency" unicode="&#xa4;" 
d="M1204 0h-999v1516h999v-1516zM444 1315v-1114h521v1114h-521z" />
    <glyph glyph-name="yen" unicode="&#xa5;" 
d="M1204 0h-999v1516h999v-1516zM444 1315v-1114h521v1114h-521z" />
    <glyph glyph-name="brokenbar" unicode="&#xa6;" 
d="M1204 0h-999v1516h999v-1516zM444 1315v-1114h521v1114h-521z" />
    <glyph glyph-name="section" unicode="&#xa7;" 
d="M1204 0h-999v1516h999v-1516zM444 1315v-1114h521v1114h-521z" />
    <glyph glyph-name="dieresis" unicode="&#xa8;" 
d="M1204 0h-999v1516h999v-1516zM444 1315v-1114h521v1114h-521z" />
    <glyph glyph-name="copyright" unicode="&#xa9;" 
d="M1204 0h-999v1516h999v-1516zM444 1315v-1114h521v1114h-521z" />
    <glyph glyph-name="ordfeminine" unicode="&#xaa;" 
d="M1204 0h-999v1516h999v-1516zM444 1315v-1114h521v1114h-521z" />
    <glyph glyph-name="guillemotleft" unicode="&#xab;" 
d="M1204 0h-999v1516h999v-1516zM444 1315v-1114h521v1114h-521z" />
    <glyph glyph-name="logicalnot" unicode="&#xac;" 
d="M1204 0h-999v1516h999v-1516zM444 1315v-1114h521v1114h-521z" />
    <glyph glyph-name="uni00AD" unicode="&#xad;" 
d="M1204 0h-999v1516h999v-1516zM444 1315v-1114h521v1114h-521z" />
    <glyph glyph-name="registered" unicode="&#xae;" 
d="M1204 0h-999v1516h999v-1516zM444 1315v-1114h521v1114h-521z" />
    <glyph glyph-name="macron" unicode="&#xaf;" 
d="M1204 0h-999v1516h999v-1516zM444 1315v-1114h521v1114h-521z" />
    <glyph glyph-name="degree" unicode="&#xb0;" 
d="M1204 0h-999v1516h999v-1516zM444 1315v-1114h521v1114h-521z" />
    <glyph glyph-name="plusminus" unicode="&#xb1;" 
d="M1204 0h-999v1516h999v-1516zM444 1315v-1114h521v1114h-521z" />
    <glyph glyph-name="uni00B2" unicode="&#xb2;" 
d="M1204 0h-999v1516h999v-1516zM444 1315v-1114h521v1114h-521z" />
    <glyph glyph-name="uni00B3" unicode="&#xb3;" 
d="M1204 0h-999v1516h999v-1516zM444 1315v-1114h521v1114h-521z" />
    <glyph glyph-name="acute" unicode="&#xb4;" 
d="M1204 0h-999v1516h999v-1516zM444 1315v-1114h521v1114h-521z" />
    <glyph glyph-name="uni00B5" unicode="&#xb5;" 
d="M1204 0h-999v1516h999v-1516zM444 1315v-1114h521v1114h-521z" />
    <glyph glyph-name="paragraph" unicode="&#xb6;" 
d="M1204 0h-999v1516h999v-1516zM444 1315v-1114h521v1114h-521z" />
    <glyph glyph-name="periodcentered" unicode="&#xb7;" 
d="M1204 0h-999v1516h999v-1516zM444 1315v-1114h521v1114h-521z" />
    <glyph glyph-name="cedilla" unicode="&#xb8;" 
d="M1204 0h-999v1516h999v-1516zM444 1315v-1114h521v1114h-521z" />
    <glyph glyph-name="uni00B9" unicode="&#xb9;" 
d="M1204 0h-999v1516h999v-1516zM444 1315v-1114h521v1114h-521z" />
    <glyph glyph-name="ordmasculine" unicode="&#xba;" 
d="M1204 0h-999v1516h999v-1516zM444 1315v-1114h521v1114h-521z" />
    <glyph glyph-name="guillemotright" unicode="&#xbb;" 
d="M1204 0h-999v1516h999v-1516zM444 1315v-1114h521v1114h-521z" />
    <glyph glyph-name="onequarter" unicode="&#xbc;" 
d="M1204 0h-999v1516h999v-1516zM444 1315v-1114h521v1114h-521z" />
    <glyph glyph-name="onehalf" unicode="&#xbd;" 
d="M1204 0h-999v1516h999v-1516zM444 1315v-1114h521v1114h-521z" />
    <glyph glyph-name="threequarters" unicode="&#xbe;" 
d="M1204 0h-999v1516h999v-1516zM444 1315v-1114h521v1114h-521z" />
    <glyph glyph-name="questiondown" unicode="&#xbf;" 
d="M1204 0h-999v1516h999v-1516zM444 1315v-1114h521v1114h-521z" />
    <glyph glyph-name="Agrave" unicode="&#xc0;" 
d="M1204 0h-999v1516h999v-1516zM444 1315v-1114h521v1114h-521z" />
    <glyph glyph-name="Aacute" unicode="&#xc1;" 
d="M1204 0h-999v1516h999v-1516zM444 1315v-1114h521v1114h-521z" />
    <glyph glyph-name="Acircumflex" unicode="&#xc2;" 
d="M1204 0h-999v1516h999v-1516zM444 1315v-1114h521v1114h-521z" />
    <glyph glyph-name="Atilde" unicode="&#xc3;" 
d="M1204 0h-999v1516h999v-1516zM444 1315v-1114h521v1114h-521z" />
    <glyph glyph-name="Adieresis" unicode="&#xc4;" 
d="M1204 0h-999v1516h999v-1516zM444 1315v-1114h521v1114h-521z" />
    <glyph glyph-name="Aring" unicode="&#xc5;" 
d="M1204 0h-999v1516h999v-1516zM444 1315v-1114h521v1114h-521z" />
    <glyph glyph-name="AE" unicode="&#xc6;" 
d="M1204 0h-999v1516h999v-1516zM444 1315v-1114h521v1114h-521z" />
    <glyph glyph-name="Ccedilla" unicode="&#xc7;" 
d="M1204 0h-999v1516h999v-1516zM444 1315v-1114h521v1114h-521z" />
    <glyph glyph-name="Egrave" unicode="&#xc8;" 
d="M1204 0h-999v1516h999v-1516zM444 1315v-1114h521v1114h-521z" />
    <glyph glyph-name="Eacute" unicode="&#xc9;" 
d="M1204 0h-999v1516h999v-1516zM444 1315v-1114h521v1114h-521z" />
    <glyph glyph-name="Ecircumflex" unicode="&#xca;" 
d="M1204 0h-999v1516h999v-1516zM444 1315v-1114h521v1114h-521z" />
    <glyph glyph-name="Edieresis" unicode="&#xcb;" 
d="M1204 0h-999v1516h999v-1516zM444 1315v-1114h521v1114h-521z" />
    <glyph glyph-name="Igrave" unicode="&#xcc;" 
d="M1204 0h-999v1516h999v-1516zM444 1315v-1114h521v1114h-521z" />
    <glyph glyph-name="Iacute" unicode="&#xcd;" 
d="M1204 0h-999v1516h999v-1516zM444 1315v-1114h521v1114h-521z" />
    <glyph glyph-name="Icircumflex" unicode="&#xce;" 
d="M1204 0h-999v1516h999v-1516zM444 1315v-1114h521v1114h-521z" />
    <glyph glyph-name="Idieresis" unicode="&#xcf;" 
d="M1204 0h-999v1516h999v-1516zM444 1315v-1114h521v1114h-521z" />
    <glyph glyph-name="Eth" unicode="&#xd0;" 
d="M1204 0h-999v1516h999v-1516zM444 1315v-1114h521v1114h-521z" />
    <glyph glyph-name="Ntilde" unicode="&#xd1;" 
d="M1204 0h-999v1516h999v-1516zM444 1315v-1114h521v1114h-521z" />
    <glyph glyph-name="Ograve" unicode="&#xd2;" 
d="M1204 0h-999v1516h999v-1516zM444 1315v-1114h521v1114h-521z" />
    <glyph glyph-name="Oacute" unicode="&#xd3;" 
d="M1204 0h-999v1516h999v-1516zM444 1315v-1114h521v1114h-521z" />
    <glyph glyph-name="Ocircumflex" unicode="&#xd4;" 
d="M1204 0h-999v1516h999v-1516zM444 1315v-1114h521v1114h-521z" />
    <glyph glyph-name="Otilde" unicode="&#xd5;" 
d="M1204 0h-999v1516h999v-1516zM444 1315v-1114h521v1114h-521z" />
    <glyph glyph-name="Odieresis" unicode="&#xd6;" 
d="M1204 0h-999v1516h999v-1516zM444 1315v-1114h521v1114h-521z" />
    <glyph glyph-name="multiply" unicode="&#xd7;" 
d="M1204 0h-999v1516h999v-1516zM444 1315v-1114h521v1114h-521z" />
    <glyph glyph-name="Oslash" unicode="&#xd8;" 
d="M1204 0h-999v1516h999v-1516zM444 1315v-1114h521v1114h-521z" />
    <glyph glyph-name="Ugrave" unicode="&#xd9;" 
d="M1204 0h-999v1516h999v-1516zM444 1315v-1114h521v1114h-521z" />
    <glyph glyph-name="Uacute" unicode="&#xda;" 
d="M1204 0h-999v1516h999v-1516zM444 1315v-1114h521v1114h-521z" />
    <glyph glyph-name="Ucircumflex" unicode="&#xdb;" 
d="M1204 0h-999v1516h999v-1516zM444 1315v-1114h521v1114h-521z" />
    <glyph glyph-name="Udieresis" unicode="&#xdc;" 
d="M1204 0h-999v1516h999v-1516zM444 1315v-1114h521v1114h-521z" />
    <glyph glyph-name="Yacute" unicode="&#xdd;" 
d="M1204 0h-999v1516h999v-1516zM444 1315v-1114h521v1114h-521z" />
    <glyph glyph-name="Thorn" unicode="&#xde;" 
d="M1204 0h-999v1516h999v-1516zM444 1315v-1114h521v1114h-521z" />
    <glyph glyph-name="germandbls" unicode="&#xdf;" 
d="M1204 0h-999v1516h999v-1516zM444 1315v-1114h521v1114h-521z" />
    <glyph glyph-name="agrave" unicode="&#xe0;" 
d="M1204 0h-999v1516h999v-1516zM444 1315v-1114h521v1114h-521z" />
    <glyph glyph-name="aacute" unicode="&#xe1;" 
d="M1204 0h-999v1516h999v-1516zM444 1315v-1114h521v1114h-521z" />
    <glyph glyph-name="acircumflex" unicode="&#xe2;" 
d="M1204 0h-999v1516h999v-1516zM444 1315v-1114h521v1114h-521z" />
    <glyph glyph-name="atilde" unicode="&#xe3;" 
d="M1204 0h-999v1516h999v-1516zM444 1315v-1114h521v1114h-521z" />
    <glyph glyph-name="adieresis" unicode="&#xe4;" 
d="M1204 0h-999v1516h999v-1516zM444 1315v-1114h521v1114h-521z" />
    <glyph glyph-name="aring" unicode="&#xe5;" 
d="M1204 0h-999v1516h999v-1516zM444 1315v-1114h521v1114h-521z" />
    <glyph glyph-name="ae" unicode="&#xe6;" 
d="M1204 0h-999v1516h999v-1516zM444 1315v-1114h521v1114h-521z" />
    <glyph glyph-name="ccedilla" unicode="&#xe7;" 
d="M1204 0h-999v1516h999v-1516zM444 1315v-1114h521v1114h-521z" />
    <glyph glyph-name="egrave" unicode="&#xe8;" 
d="M1204 0h-999v1516h999v-1516zM444 1315v-1114h521v1114h-521z" />
    <glyph glyph-name="eacute" unicode="&#xe9;" 
d="M1204 0h-999v1516h999v-1516zM444 1315v-1114h521v1114h-521z" />
    <glyph glyph-name="ecircumflex" unicode="&#xea;" 
d="M1204 0h-999v1516h999v-1516zM444 1315v-1114h521v1114h-521z" />
    <glyph glyph-name="edieresis" unicode="&#xeb;" 
d="M1204 0h-999v1516h999v-1516zM444 1315v-1114h521v1114h-521z" />
    <glyph glyph-name="igrave" unicode="&#xec;" 
d="M1204 0h-999v1516h999v-1516zM444 1315v-1114h521v1114h-521z" />
    <glyph glyph-name="iacute" unicode="&#xed;" 
d="M1204 0h-999v1516h999v-1516zM444 1315v-1114h521v1114h-521z" />
    <glyph glyph-name="icircumflex" unicode="&#xee;" 
d="M1204 0h-999v1516h999v-1516zM444 1315v-1114h521v1114h-521z" />
    <glyph glyph-name="idieresis" unicode="&#xef;" 
d="M1204 0h-999v1516h999v-1516zM444 1315v-1114h521v1114h-521z" />
    <glyph glyph-name="eth" unicode="&#xf0;" 
d="M1204 0h-999v1516h999v-1516zM444 1315v-1114h521v1114h-521z" />
    <glyph glyph-name="ntilde" unicode="&#xf1;" 
d="M1204 0h-999v1516h999v-1516zM444 1315v-1114h521v1114h-521z" />
    <glyph glyph-name="ograve" unicode="&#xf2;" 
d="M1204 0h-999v1516h999v-1516zM444 1315v-1114h521v1114h-521z" />
    <glyph glyph-name="oacute" unicode="&#xf3;" 
d="M1204 0h-999v1516h999v-1516zM444 1315v-1114h521v1114h-521z" />
    <glyph glyph-name="ocircumflex" unicode="&#xf4;" 
d="M1204 0h-999v1516h999v-1516zM444 1315v-1114h521v1114h-521z" />
    <glyph glyph-name="otilde" unicode="&#xf5;" 
d="M1204 0h-999v1516h999v-1516zM444 1315v-1114h521v1114h-521z" />
    <glyph glyph-name="odieresis" unicode="&#xf6;" 
d="M1204 0h-999v1516h999v-1516zM444 1315v-1114h521v1114h-521z" />
    <glyph glyph-name="divide" unicode="&#xf7;" 
d="M1204 0h-999v1516h999v-1516zM444 1315v-1114h521v1114h-521z" />
    <glyph glyph-name="oslash" unicode="&#xf8;" 
d="M1204 0h-999v1516h999v-1516zM444 1315v-1114h521v1114h-521z" />
    <glyph glyph-name="ugrave" unicode="&#xf9;" 
d="M1204 0h-999v1516h999v-1516zM444 1315v-1114h521v1114h-521z" />
    <glyph glyph-name="uacute" unicode="&#xfa;" 
d="M1204 0h-999v1516h999v-1516zM444 1315v-1114h521v1114h-521z" />
    <glyph glyph-name="ucircumflex" unicode="&#xfb;" 
d="M1204 0h-999v1516h999v-1516zM444 1315v-1114h521v1114h-521z" />
    <glyph glyph-name="udieresis" unicode="&#xfc;" 
d="M1204 0h-999v1516h999v-1516zM444 1315v-1114h521v1114h-521z" />
    <glyph glyph-name="yacute" unicode="&#xfd;" 
d="M1204 0h-999v1516h999v-1516zM444 1315v-1114h521v1114h-521z" />
    <glyph glyph-name="thorn" unicode="&#xfe;" 
d="M1204 0h-999v1516h999v-1516zM444 1315v-1114h521v1114h-521z" />
    <glyph glyph-name="ydieresis" unicode="&#xff;" 
d="M1204 0h-999v1516h999v-1516zM444 1315v-1114h521v1114h-521z" />
    <glyph glyph-name="Amacron" unicode="&#x100;" 
d="M1204 0h-999v1516h999v-1516zM444 1315v-1114h521v1114h-521z" />
    <glyph glyph-name="amacron" unicode="&#x101;" 
d="M1204 0h-999v1516h999v-1516zM444 1315v-1114h521v1114h-521z" />
    <glyph glyph-name="Abreve" unicode="&#x102;" 
d="M1204 0h-999v1516h999v-1516zM444 1315v-1114h521v1114h-521z" />
    <glyph glyph-name="abreve" unicode="&#x103;" 
d="M1204 0h-999v1516h999v-1516zM444 1315v-1114h521v1114h-521z" />
    <glyph glyph-name="Aogonek" unicode="&#x104;" 
d="M1204 0h-999v1516h999v-1516zM444 1315v-1114h521v1114h-521z" />
    <glyph glyph-name="aogonek" unicode="&#x105;" 
d="M1204 0h-999v1516h999v-1516zM444 1315v-1114h521v1114h-521z" />
    <glyph glyph-name="Cacute" unicode="&#x106;" 
d="M1204 0h-999v1516h999v-1516zM444 1315v-1114h521v1114h-521z" />
    <glyph glyph-name="cacute" unicode="&#x107;" 
d="M1204 0h-999v1516h999v-1516zM444 1315v-1114h521v1114h-521z" />
    <glyph glyph-name="Ccircumflex" unicode="&#x108;" 
d="M1204 0h-999v1516h999v-1516zM444 1315v-1114h521v1114h-521z" />
    <glyph glyph-name="ccircumflex" unicode="&#x109;" 
d="M1204 0h-999v1516h999v-1516zM444 1315v-1114h521v1114h-521z" />
    <glyph glyph-name="Cdotaccent" unicode="&#x10a;" 
d="M1204 0h-999v1516h999v-1516zM444 1315v-1114h521v1114h-521z" />
    <glyph glyph-name="cdotaccent" unicode="&#x10b;" 
d="M1204 0h-999v1516h999v-1516zM444 1315v-1114h521v1114h-521z" />
    <glyph glyph-name="Ccaron" unicode="&#x10c;" 
d="M1204 0h-999v1516h999v-1516zM444 1315v-1114h521v1114h-521z" />
    <glyph glyph-name="ccaron" unicode="&#x10d;" 
d="M1204 0h-999v1516h999v-1516zM444 1315v-1114h521v1114h-521z" />
    <glyph glyph-name="Dcaron" unicode="&#x10e;" 
d="M1204 0h-999v1516h999v-1516zM444 1315v-1114h521v1114h-521z" />
    <glyph glyph-name="dcaron" unicode="&#x10f;" 
d="M1204 0h-999v1516h999v-1516zM444 1315v-1114h521v1114h-521z" />
    <glyph glyph-name="Dcroat" unicode="&#x110;" 
d="M1204 0h-999v1516h999v-1516zM444 1315v-1114h521v1114h-521z" />
    <glyph glyph-name="dcroat" unicode="&#x111;" 
d="M1204 0h-999v1516h999v-1516zM444 1315v-1114h521v1114h-521z" />
    <glyph glyph-name="Emacron" unicode="&#x112;" 
d="M1204 0h-999v1516h999v-1516zM444 1315v-1114h521v1114h-521z" />
    <glyph glyph-name="emacron" unicode="&#x113;" 
d="M1204 0h-999v1516h999v-1516zM444 1315v-1114h521v1114h-521z" />
    <glyph glyph-name="Ebreve" unicode="&#x114;" 
d="M1204 0h-999v1516h999v-1516zM444 1315v-1114h521v1114h-521z" />
    <glyph glyph-name="ebreve" unicode="&#x115;" 
d="M1204 0h-999v1516h999v-1516zM444 1315v-1114h521v1114h-521z" />
    <glyph glyph-name="Edotaccent" unicode="&#x116;" 
d="M1204 0h-999v1516h999v-1516zM444 1315v-1114h521v1114h-521z" />
    <glyph glyph-name="edotaccent" unicode="&#x117;" 
d="M1204 0h-999v1516h999v-1516zM444 1315v-1114h521v1114h-521z" />
    <glyph glyph-name="Eogonek" unicode="&#x118;" 
d="M1204 0h-999v1516h999v-1516zM444 1315v-1114h521v1114h-521z" />
    <glyph glyph-name="eogonek" unicode="&#x119;" 
d="M1204 0h-999v1516h999v-1516zM444 1315v-1114h521v1114h-521z" />
    <glyph glyph-name="Ecaron" unicode="&#x11a;" 
d="M1204 0h-999v1516h999v-1516zM444 1315v-1114h521v1114h-521z" />
    <glyph glyph-name="ecaron" unicode="&#x11b;" 
d="M1204 0h-999v1516h999v-1516zM444 1315v-1114h521v1114h-521z" />
    <glyph glyph-name="Gcircumflex" unicode="&#x11c;" 
d="M1204 0h-999v1516h999v-1516zM444 1315v-1114h521v1114h-521z" />
    <glyph glyph-name="gcircumflex" unicode="&#x11d;" 
d="M1204 0h-999v1516h999v-1516zM444 1315v-1114h521v1114h-521z" />
    <glyph glyph-name="Gbreve" unicode="&#x11e;" 
d="M1204 0h-999v1516h999v-1516zM444 1315v-1114h521v1114h-521z" />
    <glyph glyph-name="gbreve" unicode="&#x11f;" 
d="M1204 0h-999v1516h999v-1516zM444 1315v-1114h521v1114h-521z" />
    <glyph glyph-name="Gdotaccent" unicode="&#x120;" 
d="M1204 0h-999v1516h999v-1516zM444 1315v-1114h521v1114h-521z" />
    <glyph glyph-name="gdotaccent" unicode="&#x121;" 
d="M1204 0h-999v1516h999v-1516zM444 1315v-1114h521v1114h-521z" />
    <glyph glyph-name="uni0122" unicode="&#x122;" 
d="M1204 0h-999v1516h999v-1516zM444 1315v-1114h521v1114h-521z" />
    <glyph glyph-name="uni0123" unicode="&#x123;" 
d="M1204 0h-999v1516h999v-1516zM444 1315v-1114h521v1114h-521z" />
    <glyph glyph-name="Hcircumflex" unicode="&#x124;" 
d="M1204 0h-999v1516h999v-1516zM444 1315v-1114h521v1114h-521z" />
    <glyph glyph-name="hcircumflex" unicode="&#x125;" 
d="M1204 0h-999v1516h999v-1516zM444 1315v-1114h521v1114h-521z" />
    <glyph glyph-name="Hbar" unicode="&#x126;" 
d="M1204 0h-999v1516h999v-1516zM444 1315v-1114h521v1114h-521z" />
    <glyph glyph-name="hbar" unicode="&#x127;" 
d="M1204 0h-999v1516h999v-1516zM444 1315v-1114h521v1114h-521z" />
    <glyph glyph-name="Itilde" unicode="&#x128;" 
d="M1204 0h-999v1516h999v-1516zM444 1315v-1114h521v1114h-521z" />
    <glyph glyph-name="itilde" unicode="&#x129;" 
d="M1204 0h-999v1516h999v-1516zM444 1315v-1114h521v1114h-521z" />
    <glyph glyph-name="Imacron" unicode="&#x12a;" 
d="M1204 0h-999v1516h999v-1516zM444 1315v-1114h521v1114h-521z" />
    <glyph glyph-name="imacron" unicode="&#x12b;" 
d="M1204 0h-999v1516h999v-1516zM444 1315v-1114h521v1114h-521z" />
    <glyph glyph-name="Ibreve" unicode="&#x12c;" 
d="M1204 0h-999v1516h999v-1516zM444 1315v-1114h521v1114h-521z" />
    <glyph glyph-name="ibreve" unicode="&#x12d;" 
d="M1204 0h-999v1516h999v-1516zM444 1315v-1114h521v1114h-521z" />
    <glyph glyph-name="Iogonek" unicode="&#x12e;" 
d="M1204 0h-999v1516h999v-1516zM444 1315v-1114h521v1114h-521z" />
    <glyph glyph-name="iogonek" unicode="&#x12f;" 
d="M1204 0h-999v1516h999v-1516zM444 1315v-1114h521v1114h-521z" />
    <glyph glyph-name="Idotaccent" unicode="&#x130;" 
d="M1204 0h-999v1516h999v-1516zM444 1315v-1114h521v1114h-521z" />
    <glyph glyph-name="dotlessi" unicode="&#x131;" 
d="M1204 0h-999v1516h999v-1516zM444 1315v-1114h521v1114h-521z" />
    <glyph glyph-name="IJ" unicode="&#x132;" 
d="M1204 0h-999v1516h999v-1516zM444 1315v-1114h521v1114h-521z" />
    <glyph glyph-name="ij" unicode="&#x133;" 
d="M1204 0h-999v1516h999v-1516zM444 1315v-1114h521v1114h-521z" />
    <glyph glyph-name="Jcircumflex" unicode="&#x134;" 
d="M1204 0h-999v1516h999v-1516zM444 1315v-1114h521v1114h-521z" />
    <glyph glyph-name="jcircumflex" unicode="&#x135;" 
d="M1204 0h-999v1516h999v-1516zM444 1315v-1114h521v1114h-521z" />
    <glyph glyph-name="uni0136" unicode="&#x136;" 
d="M1204 0h-999v1516h999v-1516zM444 1315v-1114h521v1114h-521z" />
    <glyph glyph-name="uni0137" unicode="&#x137;" 
d="M1204 0h-999v1516h999v-1516zM444 1315v-1114h521v1114h-521z" />
    <glyph glyph-name="Lacute" unicode="&#x139;" 
d="M1204 0h-999v1516h999v-1516zM444 1315v-1114h521v1114h-521z" />
    <glyph glyph-name="lacute" unicode="&#x13a;" 
d="M1204 0h-999v1516h999v-1516zM444 1315v-1114h521v1114h-521z" />
    <glyph glyph-name="uni013B" unicode="&#x13b;" 
d="M1204 0h-999v1516h999v-1516zM444 1315v-1114h521v1114h-521z" />
    <glyph glyph-name="uni013C" unicode="&#x13c;" 
d="M1204 0h-999v1516h999v-1516zM444 1315v-1114h521v1114h-521z" />
    <glyph glyph-name="Lcaron" unicode="&#x13d;" 
d="M1204 0h-999v1516h999v-1516zM444 1315v-1114h521v1114h-521z" />
    <glyph glyph-name="lcaron" unicode="&#x13e;" 
d="M1204 0h-999v1516h999v-1516zM444 1315v-1114h521v1114h-521z" />
    <glyph glyph-name="Ldot" unicode="&#x13f;" 
d="M1204 0h-999v1516h999v-1516zM444 1315v-1114h521v1114h-521z" />
    <glyph glyph-name="ldot" unicode="&#x140;" 
d="M1204 0h-999v1516h999v-1516zM444 1315v-1114h521v1114h-521z" />
    <glyph glyph-name="Lslash" unicode="&#x141;" 
d="M1204 0h-999v1516h999v-1516zM444 1315v-1114h521v1114h-521z" />
    <glyph glyph-name="lslash" unicode="&#x142;" 
d="M1204 0h-999v1516h999v-1516zM444 1315v-1114h521v1114h-521z" />
    <glyph glyph-name="Nacute" unicode="&#x143;" 
d="M1204 0h-999v1516h999v-1516zM444 1315v-1114h521v1114h-521z" />
    <glyph glyph-name="nacute" unicode="&#x144;" 
d="M1204 0h-999v1516h999v-1516zM444 1315v-1114h521v1114h-521z" />
    <glyph glyph-name="uni0145" unicode="&#x145;" 
d="M1204 0h-999v1516h999v-1516zM444 1315v-1114h521v1114h-521z" />
    <glyph glyph-name="uni0146" unicode="&#x146;" 
d="M1204 0h-999v1516h999v-1516zM444 1315v-1114h521v1114h-521z" />
    <glyph glyph-name="Ncaron" unicode="&#x147;" 
d="M1204 0h-999v1516h999v-1516zM444 1315v-1114h521v1114h-521z" />
    <glyph glyph-name="ncaron" unicode="&#x148;" 
d="M1204 0h-999v1516h999v-1516zM444 1315v-1114h521v1114h-521z" />
    <glyph glyph-name="Eng" unicode="&#x14a;" 
d="M1204 0h-999v1516h999v-1516zM444 1315v-1114h521v1114h-521z" />
    <glyph glyph-name="eng" unicode="&#x14b;" 
d="M1204 0h-999v1516h999v-1516zM444 1315v-1114h521v1114h-521z" />
    <glyph glyph-name="Omacron" unicode="&#x14c;" 
d="M1204 0h-999v1516h999v-1516zM444 1315v-1114h521v1114h-521z" />
    <glyph glyph-name="omacron" unicode="&#x14d;" 
d="M1204 0h-999v1516h999v-1516zM444 1315v-1114h521v1114h-521z" />
    <glyph glyph-name="Obreve" unicode="&#x14e;" 
d="M1204 0h-999v1516h999v-1516zM444 1315v-1114h521v1114h-521z" />
    <glyph glyph-name="obreve" unicode="&#x14f;" 
d="M1204 0h-999v1516h999v-1516zM444 1315v-1114h521v1114h-521z" />
    <glyph glyph-name="Ohungarumlaut" unicode="&#x150;" 
d="M1204 0h-999v1516h999v-1516zM444 1315v-1114h521v1114h-521z" />
    <glyph glyph-name="ohungarumlaut" unicode="&#x151;" 
d="M1204 0h-999v1516h999v-1516zM444 1315v-1114h521v1114h-521z" />
    <glyph glyph-name="OE" unicode="&#x152;" 
d="M1204 0h-999v1516h999v-1516zM444 1315v-1114h521v1114h-521z" />
    <glyph glyph-name="oe" unicode="&#x153;" 
d="M1204 0h-999v1516h999v-1516zM444 1315v-1114h521v1114h-521z" />
    <glyph glyph-name="Racute" unicode="&#x154;" 
d="M1204 0h-999v1516h999v-1516zM444 1315v-1114h521v1114h-521z" />
    <glyph glyph-name="racute" unicode="&#x155;" 
d="M1204 0h-999v1516h999v-1516zM444 1315v-1114h521v1114h-521z" />
    <glyph glyph-name="uni0156" unicode="&#x156;" 
d="M1204 0h-999v1516h999v-1516zM444 1315v-1114h521v1114h-521z" />
    <glyph glyph-name="uni0157" unicode="&#x157;" 
d="M1204 0h-999v1516h999v-1516zM444 1315v-1114h521v1114h-521z" />
    <glyph glyph-name="Rcaron" unicode="&#x158;" 
d="M1204 0h-999v1516h999v-1516zM444 1315v-1114h521v1114h-521z" />
    <glyph glyph-name="rcaron" unicode="&#x159;" 
d="M1204 0h-999v1516h999v-1516zM444 1315v-1114h521v1114h-521z" />
    <glyph glyph-name="Sacute" unicode="&#x15a;" 
d="M1204 0h-999v1516h999v-1516zM444 1315v-1114h521v1114h-521z" />
    <glyph glyph-name="sacute" unicode="&#x15b;" 
d="M1204 0h-999v1516h999v-1516zM444 1315v-1114h521v1114h-521z" />
    <glyph glyph-name="Scircumflex" unicode="&#x15c;" 
d="M1204 0h-999v1516h999v-1516zM444 1315v-1114h521v1114h-521z" />
    <glyph glyph-name="scircumflex" unicode="&#x15d;" 
d="M1204 0h-999v1516h999v-1516zM444 1315v-1114h521v1114h-521z" />
    <glyph glyph-name="Scedilla" unicode="&#x15e;" 
d="M1204 0h-999v1516h999v-1516zM444 1315v-1114h521v1114h-521z" />
    <glyph glyph-name="scedilla" unicode="&#x15f;" 
d="M1204 0h-999v1516h999v-1516zM444 1315v-1114h521v1114h-521z" />
    <glyph glyph-name="Scaron" unicode="&#x160;" 
d="M1204 0h-999v1516h999v-1516zM444 1315v-1114h521v1114h-521z" />
    <glyph glyph-name="scaron" unicode="&#x161;" 
d="M1204 0h-999v1516h999v-1516zM444 1315v-1114h521v1114h-521z" />
    <glyph glyph-name="uni0162" unicode="&#x162;" 
d="M1204 0h-999v1516h999v-1516zM444 1315v-1114h521v1114h-521z" />
    <glyph glyph-name="uni0163" unicode="&#x163;" 
d="M1204 0h-999v1516h999v-1516zM444 1315v-1114h521v1114h-521z" />
    <glyph glyph-name="Tcaron" unicode="&#x164;" 
d="M1204 0h-999v1516h999v-1516zM444 1315v-1114h521v1114h-521z" />
    <glyph glyph-name="tcaron" unicode="&#x165;" 
d="M1204 0h-999v1516h999v-1516zM444 1315v-1114h521v1114h-521z" />
    <glyph glyph-name="Tbar" unicode="&#x166;" 
d="M1204 0h-999v1516h999v-1516zM444 1315v-1114h521v1114h-521z" />
    <glyph glyph-name="tbar" unicode="&#x167;" 
d="M1204 0h-999v1516h999v-1516zM444 1315v-1114h521v1114h-521z" />
    <glyph glyph-name="Utilde" unicode="&#x168;" 
d="M1204 0h-999v1516h999v-1516zM444 1315v-1114h521v1114h-521z" />
    <glyph glyph-name="utilde" unicode="&#x169;" 
d="M1204 0h-999v1516h999v-1516zM444 1315v-1114h521v1114h-521z" />
    <glyph glyph-name="Umacron" unicode="&#x16a;" 
d="M1204 0h-999v1516h999v-1516zM444 1315v-1114h521v1114h-521z" />
    <glyph glyph-name="umacron" unicode="&#x16b;" 
d="M1204 0h-999v1516h999v-1516zM444 1315v-1114h521v1114h-521z" />
    <glyph glyph-name="Ubreve" unicode="&#x16c;" 
d="M1204 0h-999v1516h999v-1516zM444 1315v-1114h521v1114h-521z" />
    <glyph glyph-name="ubreve" unicode="&#x16d;" 
d="M1204 0h-999v1516h999v-1516zM444 1315v-1114h521v1114h-521z" />
    <glyph glyph-name="Uring" unicode="&#x16e;" 
d="M1204 0h-999v1516h999v-1516zM444 1315v-1114h521v1114h-521z" />
    <glyph glyph-name="uring" unicode="&#x16f;" 
d="M1204 0h-999v1516h999v-1516zM444 1315v-1114h521v1114h-521z" />
    <glyph glyph-name="Uhungarumlaut" unicode="&#x170;" 
d="M1204 0h-999v1516h999v-1516zM444 1315v-1114h521v1114h-521z" />
    <glyph glyph-name="uhungarumlaut" unicode="&#x171;" 
d="M1204 0h-999v1516h999v-1516zM444 1315v-1114h521v1114h-521z" />
    <glyph glyph-name="Uogonek" unicode="&#x172;" 
d="M1204 0h-999v1516h999v-1516zM444 1315v-1114h521v1114h-521z" />
    <glyph glyph-name="uogonek" unicode="&#x173;" 
d="M1204 0h-999v1516h999v-1516zM444 1315v-1114h521v1114h-521z" />
    <glyph glyph-name="Wcircumflex" unicode="&#x174;" 
d="M1204 0h-999v1516h999v-1516zM444 1315v-1114h521v1114h-521z" />
    <glyph glyph-name="wcircumflex" unicode="&#x175;" 
d="M1204 0h-999v1516h999v-1516zM444 1315v-1114h521v1114h-521z" />
    <glyph glyph-name="Ycircumflex" unicode="&#x176;" 
d="M1204 0h-999v1516h999v-1516zM444 1315v-1114h521v1114h-521z" />
    <glyph glyph-name="ycircumflex" unicode="&#x177;" 
d="M1204 0h-999v1516h999v-1516zM444 1315v-1114h521v1114h-521z" />
    <glyph glyph-name="Ydieresis" unicode="&#x178;" 
d="M1204 0h-999v1516h999v-1516zM444 1315v-1114h521v1114h-521z" />
    <glyph glyph-name="Zacute" unicode="&#x179;" 
d="M1204 0h-999v1516h999v-1516zM444 1315v-1114h521v1114h-521z" />
    <glyph glyph-name="zacute" unicode="&#x17a;" 
d="M1204 0h-999v1516h999v-1516zM444 1315v-1114h521v1114h-521z" />
    <glyph glyph-name="Zdotaccent" unicode="&#x17b;" 
d="M1204 0h-999v1516h999v-1516zM444 1315v-1114h521v1114h-521z" />
    <glyph glyph-name="zdotaccent" unicode="&#x17c;" 
d="M1204 0h-999v1516h999v-1516zM444 1315v-1114h521v1114h-521z" />
    <glyph glyph-name="Zcaron" unicode="&#x17d;" 
d="M1204 0h-999v1516h999v-1516zM444 1315v-1114h521v1114h-521z" />
    <glyph glyph-name="zcaron" unicode="&#x17e;" 
d="M1204 0h-999v1516h999v-1516zM444 1315v-1114h521v1114h-521z" />
    <glyph glyph-name="florin" unicode="&#x192;" 
d="M1204 0h-999v1516h999v-1516zM444 1315v-1114h521v1114h-521z" />
    <glyph glyph-name="uni01EA" unicode="&#x1ea;" 
d="M1204 0h-999v1516h999v-1516zM444 1315v-1114h521v1114h-521z" />
    <glyph glyph-name="uni01EB" unicode="&#x1eb;" 
d="M1204 0h-999v1516h999v-1516zM444 1315v-1114h521v1114h-521z" />
    <glyph glyph-name="Aringacute" unicode="&#x1fa;" 
d="M1204 0h-999v1516h999v-1516zM444 1315v-1114h521v1114h-521z" />
    <glyph glyph-name="aringacute" unicode="&#x1fb;" 
d="M1204 0h-999v1516h999v-1516zM444 1315v-1114h521v1114h-521z" />
    <glyph glyph-name="AEacute" unicode="&#x1fc;" 
d="M1204 0h-999v1516h999v-1516zM444 1315v-1114h521v1114h-521z" />
    <glyph glyph-name="aeacute" unicode="&#x1fd;" 
d="M1204 0h-999v1516h999v-1516zM444 1315v-1114h521v1114h-521z" />
    <glyph glyph-name="Oslashacute" unicode="&#x1fe;" 
d="M1204 0h-999v1516h999v-1516zM444 1315v-1114h521v1114h-521z" />
    <glyph glyph-name="oslashacute" unicode="&#x1ff;" 
d="M1204 0h-999v1516h999v-1516zM444 1315v-1114h521v1114h-521z" />
    <glyph glyph-name="uni0218" unicode="&#x218;" 
d="M1204 0h-999v1516h999v-1516zM444 1315v-1114h521v1114h-521z" />
    <glyph glyph-name="uni0219" unicode="&#x219;" 
d="M1204 0h-999v1516h999v-1516zM444 1315v-1114h521v1114h-521z" />
    <glyph glyph-name="uni021A" unicode="&#x21a;" 
d="M1204 0h-999v1516h999v-1516zM444 1315v-1114h521v1114h-521z" />
    <glyph glyph-name="uni021B" unicode="&#x21b;" 
d="M1204 0h-999v1516h999v-1516zM444 1315v-1114h521v1114h-521z" />
    <glyph glyph-name="uni0237" unicode="&#x237;" 
d="M1204 0h-999v1516h999v-1516zM444 1315v-1114h521v1114h-521z" />
    <glyph glyph-name="circumflex" unicode="&#x2c6;" 
d="M1204 0h-999v1516h999v-1516zM444 1315v-1114h521v1114h-521z" />
    <glyph glyph-name="caron" unicode="&#x2c7;" 
d="M1204 0h-999v1516h999v-1516zM444 1315v-1114h521v1114h-521z" />
    <glyph glyph-name="breve" unicode="&#x2d8;" 
d="M1204 0h-999v1516h999v-1516zM444 1315v-1114h521v1114h-521z" />
    <glyph glyph-name="dotaccent" unicode="&#x2d9;" 
d="M1204 0h-999v1516h999v-1516zM444 1315v-1114h521v1114h-521z" />
    <glyph glyph-name="ring" unicode="&#x2da;" 
d="M1204 0h-999v1516h999v-1516zM444 1315v-1114h521v1114h-521z" />
    <glyph glyph-name="ogonek" unicode="&#x2db;" 
d="M1204 0h-999v1516h999v-1516zM444 1315v-1114h521v1114h-521z" />
    <glyph glyph-name="tilde" unicode="&#x2dc;" 
d="M1204 0h-999v1516h999v-1516zM444 1315v-1114h521v1114h-521z" />
    <glyph glyph-name="hungarumlaut" unicode="&#x2dd;" 
d="M1204 0h-999v1516h999v-1516zM444 1315v-1114h521v1114h-521z" />
    <glyph glyph-name="gravecomb" unicode="&#x300;" 
d="M1204 0h-999v1516h999v-1516zM444 1315v-1114h521v1114h-521z" />
    <glyph glyph-name="acutecomb" unicode="&#x301;" 
d="M1204 0h-999v1516h999v-1516zM444 1315v-1114h521v1114h-521z" />
    <glyph glyph-name="uni0302" unicode="&#x302;" 
d="M1204 0h-999v1516h999v-1516zM444 1315v-1114h521v1114h-521z" />
    <glyph glyph-name="tildecomb" unicode="&#x303;" 
d="M1204 0h-999v1516h999v-1516zM444 1315v-1114h521v1114h-521z" />
    <glyph glyph-name="uni0304" unicode="&#x304;" 
d="M1204 0h-999v1516h999v-1516zM444 1315v-1114h521v1114h-521z" />
    <glyph glyph-name="uni0306" unicode="&#x306;" 
d="M1204 0h-999v1516h999v-1516zM444 1315v-1114h521v1114h-521z" />
    <glyph glyph-name="uni0307" unicode="&#x307;" 
d="M1204 0h-999v1516h999v-1516zM444 1315v-1114h521v1114h-521z" />
    <glyph glyph-name="uni0308" unicode="&#x308;" 
d="M1204 0h-999v1516h999v-1516zM444 1315v-1114h521v1114h-521z" />
    <glyph glyph-name="uni030A" unicode="&#x30a;" 
d="M1204 0h-999v1516h999v-1516zM444 1315v-1114h521v1114h-521z" />
    <glyph glyph-name="uni030B" unicode="&#x30b;" 
d="M1204 0h-999v1516h999v-1516zM444 1315v-1114h521v1114h-521z" />
    <glyph glyph-name="uni030C" unicode="&#x30c;" 
d="M1204 0h-999v1516h999v-1516zM444 1315v-1114h521v1114h-521z" />
    <glyph glyph-name="uni0312" unicode="&#x312;" 
d="M1204 0h-999v1516h999v-1516zM444 1315v-1114h521v1114h-521z" />
    <glyph glyph-name="uni0326" unicode="&#x326;" 
d="M1204 0h-999v1516h999v-1516zM444 1315v-1114h521v1114h-521z" />
    <glyph glyph-name="uni0327" unicode="&#x327;" 
d="M1204 0h-999v1516h999v-1516zM444 1315v-1114h521v1114h-521z" />
    <glyph glyph-name="uni0328" unicode="&#x328;" 
d="M1204 0h-999v1516h999v-1516zM444 1315v-1114h521v1114h-521z" />
    <glyph glyph-name="uni0394" unicode="&#x394;" 
d="M1204 0h-999v1516h999v-1516zM444 1315v-1114h521v1114h-521z" />
    <glyph glyph-name="uni03A9" unicode="&#x3a9;" 
d="M1204 0h-999v1516h999v-1516zM444 1315v-1114h521v1114h-521z" />
    <glyph glyph-name="uni03BC" unicode="&#x3bc;" 
d="M1204 0h-999v1516h999v-1516zM444 1315v-1114h521v1114h-521z" />
    <glyph glyph-name="pi" unicode="&#x3c0;" 
d="M1204 0h-999v1516h999v-1516zM444 1315v-1114h521v1114h-521z" />
    <glyph glyph-name="Wgrave" unicode="&#x1e80;" 
d="M1204 0h-999v1516h999v-1516zM444 1315v-1114h521v1114h-521z" />
    <glyph glyph-name="wgrave" unicode="&#x1e81;" 
d="M1204 0h-999v1516h999v-1516zM444 1315v-1114h521v1114h-521z" />
    <glyph glyph-name="Wacute" unicode="&#x1e82;" 
d="M1204 0h-999v1516h999v-1516zM444 1315v-1114h521v1114h-521z" />
    <glyph glyph-name="wacute" unicode="&#x1e83;" 
d="M1204 0h-999v1516h999v-1516zM444 1315v-1114h521v1114h-521z" />
    <glyph glyph-name="Wdieresis" unicode="&#x1e84;" 
d="M1204 0h-999v1516h999v-1516zM444 1315v-1114h521v1114h-521z" />
    <glyph glyph-name="wdieresis" unicode="&#x1e85;" 
d="M1204 0h-999v1516h999v-1516zM444 1315v-1114h521v1114h-521z" />
    <glyph glyph-name="uni1E9E" unicode="&#x1e9e;" 
d="M1204 0h-999v1516h999v-1516zM444 1315v-1114h521v1114h-521z" />
    <glyph glyph-name="Ygrave" unicode="&#x1ef2;" 
d="M1204 0h-999v1516h999v-1516zM444 1315v-1114h521v1114h-521z" />
    <glyph glyph-name="ygrave" unicode="&#x1ef3;" 
d="M1204 0h-999v1516h999v-1516zM444 1315v-1114h521v1114h-521z" />
    <glyph glyph-name="uni2009" unicode="&#x2009;" 
d="M1204 0h-999v1516h999v-1516zM444 1315v-1114h521v1114h-521z" />
    <glyph glyph-name="endash" unicode="&#x2013;" 
d="M1204 0h-999v1516h999v-1516zM444 1315v-1114h521v1114h-521z" />
    <glyph glyph-name="emdash" unicode="&#x2014;" 
d="M1204 0h-999v1516h999v-1516zM444 1315v-1114h521v1114h-521z" />
    <glyph glyph-name="quoteleft" unicode="&#x2018;" 
d="M1204 0h-999v1516h999v-1516zM444 1315v-1114h521v1114h-521z" />
    <glyph glyph-name="quoteright" unicode="&#x2019;" 
d="M1204 0h-999v1516h999v-1516zM444 1315v-1114h521v1114h-521z" />
    <glyph glyph-name="quotesinglbase" unicode="&#x201a;" 
d="M1204 0h-999v1516h999v-1516zM444 1315v-1114h521v1114h-521z" />
    <glyph glyph-name="quotedblleft" unicode="&#x201c;" 
d="M1204 0h-999v1516h999v-1516zM444 1315v-1114h521v1114h-521z" />
    <glyph glyph-name="quotedblright" unicode="&#x201d;" 
d="M1204 0h-999v1516h999v-1516zM444 1315v-1114h521v1114h-521z" />
    <glyph glyph-name="quotedblbase" unicode="&#x201e;" 
d="M1204 0h-999v1516h999v-1516zM444 1315v-1114h521v1114h-521z" />
    <glyph glyph-name="dagger" unicode="&#x2020;" 
d="M1204 0h-999v1516h999v-1516zM444 1315v-1114h521v1114h-521z" />
    <glyph glyph-name="daggerdbl" unicode="&#x2021;" 
d="M1204 0h-999v1516h999v-1516zM444 1315v-1114h521v1114h-521z" />
    <glyph glyph-name="bullet" unicode="&#x2022;" 
d="M1204 0h-999v1516h999v-1516zM444 1315v-1114h521v1114h-521z" />
    <glyph glyph-name="ellipsis" unicode="&#x2026;" 
d="M1204 0h-999v1516h999v-1516zM444 1315v-1114h521v1114h-521z" />
    <glyph glyph-name="perthousand" unicode="&#x2030;" 
d="M1204 0h-999v1516h999v-1516zM444 1315v-1114h521v1114h-521z" />
    <glyph glyph-name="guilsinglleft" unicode="&#x2039;" 
d="M1204 0h-999v1516h999v-1516zM444 1315v-1114h521v1114h-521z" />
    <glyph glyph-name="guilsinglright" unicode="&#x203a;" 
d="M1204 0h-999v1516h999v-1516zM444 1315v-1114h521v1114h-521z" />
    <glyph glyph-name="fraction" unicode="&#x2044;" 
d="M1204 0h-999v1516h999v-1516zM444 1315v-1114h521v1114h-521z" />
    <glyph glyph-name="uni2070" unicode="&#x2070;" 
d="M1204 0h-999v1516h999v-1516zM444 1315v-1114h521v1114h-521z" />
    <glyph glyph-name="uni2074" unicode="&#x2074;" 
d="M1204 0h-999v1516h999v-1516zM444 1315v-1114h521v1114h-521z" />
    <glyph glyph-name="uni2075" unicode="&#x2075;" 
d="M1204 0h-999v1516h999v-1516zM444 1315v-1114h521v1114h-521z" />
    <glyph glyph-name="uni2076" unicode="&#x2076;" 
d="M1204 0h-999v1516h999v-1516zM444 1315v-1114h521v1114h-521z" />
    <glyph glyph-name="uni2077" unicode="&#x2077;" 
d="M1204 0h-999v1516h999v-1516zM444 1315v-1114h521v1114h-521z" />
    <glyph glyph-name="uni2078" unicode="&#x2078;" 
d="M1204 0h-999v1516h999v-1516zM444 1315v-1114h521v1114h-521z" />
    <glyph glyph-name="uni2079" unicode="&#x2079;" 
d="M1204 0h-999v1516h999v-1516zM444 1315v-1114h521v1114h-521z" />
    <glyph glyph-name="uni207A" unicode="&#x207a;" 
d="M1204 0h-999v1516h999v-1516zM444 1315v-1114h521v1114h-521z" />
    <glyph glyph-name="uni207B" unicode="&#x207b;" 
d="M1204 0h-999v1516h999v-1516zM444 1315v-1114h521v1114h-521z" />
    <glyph glyph-name="uni207C" unicode="&#x207c;" 
d="M1204 0h-999v1516h999v-1516zM444 1315v-1114h521v1114h-521z" />
    <glyph glyph-name="uni2080" unicode="&#x2080;" 
d="M1204 0h-999v1516h999v-1516zM444 1315v-1114h521v1114h-521z" />
    <glyph glyph-name="uni2081" unicode="&#x2081;" 
d="M1204 0h-999v1516h999v-1516zM444 1315v-1114h521v1114h-521z" />
    <glyph glyph-name="uni2082" unicode="&#x2082;" 
d="M1204 0h-999v1516h999v-1516zM444 1315v-1114h521v1114h-521z" />
    <glyph glyph-name="uni2083" unicode="&#x2083;" 
d="M1204 0h-999v1516h999v-1516zM444 1315v-1114h521v1114h-521z" />
    <glyph glyph-name="uni2084" unicode="&#x2084;" 
d="M1204 0h-999v1516h999v-1516zM444 1315v-1114h521v1114h-521z" />
    <glyph glyph-name="uni2085" unicode="&#x2085;" 
d="M1204 0h-999v1516h999v-1516zM444 1315v-1114h521v1114h-521z" />
    <glyph glyph-name="uni2086" unicode="&#x2086;" 
d="M1204 0h-999v1516h999v-1516zM444 1315v-1114h521v1114h-521z" />
    <glyph glyph-name="uni2087" unicode="&#x2087;" 
d="M1204 0h-999v1516h999v-1516zM444 1315v-1114h521v1114h-521z" />
    <glyph glyph-name="uni2088" unicode="&#x2088;" 
d="M1204 0h-999v1516h999v-1516zM444 1315v-1114h521v1114h-521z" />
    <glyph glyph-name="uni2089" unicode="&#x2089;" 
d="M1204 0h-999v1516h999v-1516zM444 1315v-1114h521v1114h-521z" />
    <glyph glyph-name="uni208A" unicode="&#x208a;" 
d="M1204 0h-999v1516h999v-1516zM444 1315v-1114h521v1114h-521z" />
    <glyph glyph-name="uni208B" unicode="&#x208b;" 
d="M1204 0h-999v1516h999v-1516zM444 1315v-1114h521v1114h-521z" />
    <glyph glyph-name="uni208C" unicode="&#x208c;" 
d="M1204 0h-999v1516h999v-1516zM444 1315v-1114h521v1114h-521z" />
    <glyph glyph-name="Euro" unicode="&#x20ac;" 
d="M1204 0h-999v1516h999v-1516zM444 1315v-1114h521v1114h-521z" />
    <glyph glyph-name="uni20B9" unicode="&#x20b9;" 
d="M1204 0h-999v1516h999v-1516zM444 1315v-1114h521v1114h-521z" />
    <glyph glyph-name="uni20BA" unicode="&#x20ba;" 
d="M1204 0h-999v1516h999v-1516zM444 1315v-1114h521v1114h-521z" />
    <glyph glyph-name="uni20BF" unicode="&#x20bf;" 
d="M1204 0h-999v1516h999v-1516zM444 1315v-1114h521v1114h-521z" />
    <glyph glyph-name="uni2113" unicode="&#x2113;" 
d="M1204 0h-999v1516h999v-1516zM444 1315v-1114h521v1114h-521z" />
    <glyph glyph-name="uni2116" unicode="&#x2116;" 
d="M1204 0h-999v1516h999v-1516zM444 1315v-1114h521v1114h-521z" />
    <glyph glyph-name="uni2117" unicode="&#x2117;" 
d="M1204 0h-999v1516h999v-1516zM444 1315v-1114h521v1114h-521z" />
    <glyph glyph-name="uni2120" unicode="&#x2120;" 
d="M1204 0h-999v1516h999v-1516zM444 1315v-1114h521v1114h-521z" />
    <glyph glyph-name="trademark" unicode="&#x2122;" 
d="M1204 0h-999v1516h999v-1516zM444 1315v-1114h521v1114h-521z" />
    <glyph glyph-name="estimated" unicode="&#x212e;" 
d="M1204 0h-999v1516h999v-1516zM444 1315v-1114h521v1114h-521z" />
    <glyph glyph-name="uni2150" unicode="&#x2150;" 
d="M1204 0h-999v1516h999v-1516zM444 1315v-1114h521v1114h-521z" />
    <glyph glyph-name="uni2151" unicode="&#x2151;" 
d="M1204 0h-999v1516h999v-1516zM444 1315v-1114h521v1114h-521z" />
    <glyph glyph-name="uni2153" unicode="&#x2153;" 
d="M1204 0h-999v1516h999v-1516zM444 1315v-1114h521v1114h-521z" />
    <glyph glyph-name="uni2154" unicode="&#x2154;" 
d="M1204 0h-999v1516h999v-1516zM444 1315v-1114h521v1114h-521z" />
    <glyph glyph-name="uni2155" unicode="&#x2155;" 
d="M1204 0h-999v1516h999v-1516zM444 1315v-1114h521v1114h-521z" />
    <glyph glyph-name="uni2156" unicode="&#x2156;" 
d="M1204 0h-999v1516h999v-1516zM444 1315v-1114h521v1114h-521z" />
    <glyph glyph-name="uni2157" unicode="&#x2157;" 
d="M1204 0h-999v1516h999v-1516zM444 1315v-1114h521v1114h-521z" />
    <glyph glyph-name="uni2158" unicode="&#x2158;" 
d="M1204 0h-999v1516h999v-1516zM444 1315v-1114h521v1114h-521z" />
    <glyph glyph-name="uni2159" unicode="&#x2159;" 
d="M1204 0h-999v1516h999v-1516zM444 1315v-1114h521v1114h-521z" />
    <glyph glyph-name="oneeighth" unicode="&#x215b;" 
d="M1204 0h-999v1516h999v-1516zM444 1315v-1114h521v1114h-521z" />
    <glyph glyph-name="threeeighths" unicode="&#x215c;" 
d="M1204 0h-999v1516h999v-1516zM444 1315v-1114h521v1114h-521z" />
    <glyph glyph-name="fiveeighths" unicode="&#x215d;" 
d="M1204 0h-999v1516h999v-1516zM444 1315v-1114h521v1114h-521z" />
    <glyph glyph-name="seveneighths" unicode="&#x215e;" 
d="M1204 0h-999v1516h999v-1516zM444 1315v-1114h521v1114h-521z" />
    <glyph glyph-name="arrowleft" unicode="&#x2190;" 
d="M1204 0h-999v1516h999v-1516zM444 1315v-1114h521v1114h-521z" />
    <glyph glyph-name="arrowup" unicode="&#x2191;" 
d="M1204 0h-999v1516h999v-1516zM444 1315v-1114h521v1114h-521z" />
    <glyph glyph-name="arrowright" unicode="&#x2192;" 
d="M1204 0h-999v1516h999v-1516zM444 1315v-1114h521v1114h-521z" />
    <glyph glyph-name="arrowdown" unicode="&#x2193;" 
d="M1204 0h-999v1516h999v-1516zM444 1315v-1114h521v1114h-521z" />
    <glyph glyph-name="arrowboth" unicode="&#x2194;" 
d="M1204 0h-999v1516h999v-1516zM444 1315v-1114h521v1114h-521z" />
    <glyph glyph-name="arrowupdn" unicode="&#x2195;" 
d="M1204 0h-999v1516h999v-1516zM444 1315v-1114h521v1114h-521z" />
    <glyph glyph-name="uni2196" unicode="&#x2196;" 
d="M1204 0h-999v1516h999v-1516zM444 1315v-1114h521v1114h-521z" />
    <glyph glyph-name="uni2197" unicode="&#x2197;" 
d="M1204 0h-999v1516h999v-1516zM444 1315v-1114h521v1114h-521z" />
    <glyph glyph-name="uni2198" unicode="&#x2198;" 
d="M1204 0h-999v1516h999v-1516zM444 1315v-1114h521v1114h-521z" />
    <glyph glyph-name="uni2199" unicode="&#x2199;" 
d="M1204 0h-999v1516h999v-1516zM444 1315v-1114h521v1114h-521z" />
    <glyph glyph-name="partialdiff" unicode="&#x2202;" 
d="M1204 0h-999v1516h999v-1516zM444 1315v-1114h521v1114h-521z" />
    <glyph glyph-name="product" unicode="&#x220f;" 
d="M1204 0h-999v1516h999v-1516zM444 1315v-1114h521v1114h-521z" />
    <glyph glyph-name="summation" unicode="&#x2211;" 
d="M1204 0h-999v1516h999v-1516zM444 1315v-1114h521v1114h-521z" />
    <glyph glyph-name="minus" unicode="&#x2212;" 
d="M1204 0h-999v1516h999v-1516zM444 1315v-1114h521v1114h-521z" />
    <glyph glyph-name="radical" unicode="&#x221a;" 
d="M1204 0h-999v1516h999v-1516zM444 1315v-1114h521v1114h-521z" />
    <glyph glyph-name="infinity" unicode="&#x221e;" 
d="M1204 0h-999v1516h999v-1516zM444 1315v-1114h521v1114h-521z" />
    <glyph glyph-name="integral" unicode="&#x222b;" 
d="M1204 0h-999v1516h999v-1516zM444 1315v-1114h521v1114h-521z" />
    <glyph glyph-name="approxequal" unicode="&#x2248;" 
d="M1204 0h-999v1516h999v-1516zM444 1315v-1114h521v1114h-521z" />
    <glyph glyph-name="notequal" unicode="&#x2260;" 
d="M1204 0h-999v1516h999v-1516zM444 1315v-1114h521v1114h-521z" />
    <glyph glyph-name="lessequal" unicode="&#x2264;" 
d="M1204 0h-999v1516h999v-1516zM444 1315v-1114h521v1114h-521z" />
    <glyph glyph-name="greaterequal" unicode="&#x2265;" 
d="M1204 0h-999v1516h999v-1516zM444 1315v-1114h521v1114h-521z" />
    <glyph glyph-name="uni22A0" unicode="&#x22a0;" 
d="M1204 0h-999v1516h999v-1516zM444 1315v-1114h521v1114h-521z" />
    <glyph glyph-name="house" unicode="&#x2302;" 
d="M1204 0h-999v1516h999v-1516zM444 1315v-1114h521v1114h-521z" />
    <glyph glyph-name="uni2460" unicode="&#x2460;" 
d="M1204 0h-999v1516h999v-1516zM444 1315v-1114h521v1114h-521z" />
    <glyph glyph-name="uni2461" unicode="&#x2461;" 
d="M1204 0h-999v1516h999v-1516zM444 1315v-1114h521v1114h-521z" />
    <glyph glyph-name="uni2462" unicode="&#x2462;" 
d="M1204 0h-999v1516h999v-1516zM444 1315v-1114h521v1114h-521z" />
    <glyph glyph-name="uni2463" unicode="&#x2463;" 
d="M1204 0h-999v1516h999v-1516zM444 1315v-1114h521v1114h-521z" />
    <glyph glyph-name="uni2464" unicode="&#x2464;" 
d="M1204 0h-999v1516h999v-1516zM444 1315v-1114h521v1114h-521z" />
    <glyph glyph-name="uni2465" unicode="&#x2465;" 
d="M1204 0h-999v1516h999v-1516zM444 1315v-1114h521v1114h-521z" />
    <glyph glyph-name="uni2466" unicode="&#x2466;" 
d="M1204 0h-999v1516h999v-1516zM444 1315v-1114h521v1114h-521z" />
    <glyph glyph-name="uni2467" unicode="&#x2467;" 
d="M1204 0h-999v1516h999v-1516zM444 1315v-1114h521v1114h-521z" />
    <glyph glyph-name="uni2468" unicode="&#x2468;" 
d="M1204 0h-999v1516h999v-1516zM444 1315v-1114h521v1114h-521z" />
    <glyph glyph-name="uni24EA" unicode="&#x24ea;" 
d="M1204 0h-999v1516h999v-1516zM444 1315v-1114h521v1114h-521z" />
    <glyph glyph-name="uni24FF" unicode="&#x24ff;" 
d="M1204 0h-999v1516h999v-1516zM444 1315v-1114h521v1114h-521z" />
    <glyph glyph-name="filledbox" unicode="&#x25a0;" 
d="M1204 0h-999v1516h999v-1516zM444 1315v-1114h521v1114h-521z" />
    <glyph glyph-name="uni25A1" unicode="&#x25a1;" 
d="M1204 0h-999v1516h999v-1516zM444 1315v-1114h521v1114h-521z" />
    <glyph glyph-name="uni25AA" unicode="&#x25aa;" 
d="M1204 0h-999v1516h999v-1516zM444 1315v-1114h521v1114h-521z" />
    <glyph glyph-name="uni25AB" unicode="&#x25ab;" 
d="M1204 0h-999v1516h999v-1516zM444 1315v-1114h521v1114h-521z" />
    <glyph glyph-name="triagup" unicode="&#x25b2;" 
d="M1204 0h-999v1516h999v-1516zM444 1315v-1114h521v1114h-521z" />
    <glyph glyph-name="triagrt" unicode="&#x25ba;" 
d="M1204 0h-999v1516h999v-1516zM444 1315v-1114h521v1114h-521z" />
    <glyph glyph-name="triagdn" unicode="&#x25bc;" 
d="M1204 0h-999v1516h999v-1516zM444 1315v-1114h521v1114h-521z" />
    <glyph glyph-name="triaglf" unicode="&#x25c4;" 
d="M1204 0h-999v1516h999v-1516zM444 1315v-1114h521v1114h-521z" />
    <glyph glyph-name="lozenge" unicode="&#x25ca;" 
d="M1204 0h-999v1516h999v-1516zM444 1315v-1114h521v1114h-521z" />
    <glyph glyph-name="circle" unicode="&#x25cb;" 
d="M1204 0h-999v1516h999v-1516zM444 1315v-1114h521v1114h-521z" />
    <glyph glyph-name="uni25CF" unicode="&#x25cf;" 
d="M1204 0h-999v1516h999v-1516zM444 1315v-1114h521v1114h-521z" />
    <glyph glyph-name="uni2612" unicode="&#x2612;" 
d="M1204 0h-999v1516h999v-1516zM444 1315v-1114h521v1114h-521z" />
    <glyph glyph-name="uni26AB" unicode="&#x26ab;" 
d="M1204 0h-999v1516h999v-1516zM444 1315v-1114h521v1114h-521z" />
    <glyph glyph-name="uni26AC" unicode="&#x26ac;" 
d="M1204 0h-999v1516h999v-1516zM444 1315v-1114h521v1114h-521z" />
    <glyph glyph-name="uni2776" unicode="&#x2776;" 
d="M1204 0h-999v1516h999v-1516zM444 1315v-1114h521v1114h-521z" />
    <glyph glyph-name="uni2777" unicode="&#x2777;" 
d="M1204 0h-999v1516h999v-1516zM444 1315v-1114h521v1114h-521z" />
    <glyph glyph-name="uni2778" unicode="&#x2778;" 
d="M1204 0h-999v1516h999v-1516zM444 1315v-1114h521v1114h-521z" />
    <glyph glyph-name="uni2779" unicode="&#x2779;" 
d="M1204 0h-999v1516h999v-1516zM444 1315v-1114h521v1114h-521z" />
    <glyph glyph-name="uni277A" unicode="&#x277a;" 
d="M1204 0h-999v1516h999v-1516zM444 1315v-1114h521v1114h-521z" />
    <glyph glyph-name="uni277B" unicode="&#x277b;" 
d="M1204 0h-999v1516h999v-1516zM444 1315v-1114h521v1114h-521z" />
    <glyph glyph-name="uni277C" unicode="&#x277c;" 
d="M1204 0h-999v1516h999v-1516zM444 1315v-1114h521v1114h-521z" />
    <glyph glyph-name="uni277D" unicode="&#x277d;" 
d="M1204 0h-999v1516h999v-1516zM444 1315v-1114h521v1114h-521z" />
    <glyph glyph-name="uni277E" unicode="&#x277e;" 
d="M1204 0h-999v1516h999v-1516zM444 1315v-1114h521v1114h-521z" />
    <glyph glyph-name="fi" unicode="&#xfb01;" 
d="M1204 0h-999v1516h999v-1516zM444 1315v-1114h521v1114h-521z" />
    <glyph glyph-name="fl" unicode="&#xfb02;" 
d="M1204 0h-999v1516h999v-1516zM444 1315v-1114h521v1114h-521z" />
    <glyph glyph-name="Iacute_J.loclNLD" 
d="M1204 0h-999v1516h999v-1516zM444 1315v-1114h521v1114h-521z" />
    <glyph glyph-name="iacute_j.loclNLD" 
d="M1204 0h-999v1516h999v-1516zM444 1315v-1114h521v1114h-521z" />
    <glyph glyph-name="a.ss01" 
d="M1204 0h-999v1516h999v-1516zM444 1315v-1114h521v1114h-521z" />
    <glyph glyph-name="aacute.ss01" 
d="M1204 0h-999v1516h999v-1516zM444 1315v-1114h521v1114h-521z" />
    <glyph glyph-name="abreve.ss01" 
d="M1204 0h-999v1516h999v-1516zM444 1315v-1114h521v1114h-521z" />
    <glyph glyph-name="acircumflex.ss01" 
d="M1204 0h-999v1516h999v-1516zM444 1315v-1114h521v1114h-521z" />
    <glyph glyph-name="adieresis.ss01" 
d="M1204 0h-999v1516h999v-1516zM444 1315v-1114h521v1114h-521z" />
    <glyph glyph-name="agrave.ss01" 
d="M1204 0h-999v1516h999v-1516zM444 1315v-1114h521v1114h-521z" />
    <glyph glyph-name="amacron.ss01" 
d="M1204 0h-999v1516h999v-1516zM444 1315v-1114h521v1114h-521z" />
    <glyph glyph-name="aogonek.ss01" 
d="M1204 0h-999v1516h999v-1516zM444 1315v-1114h521v1114h-521z" />
    <glyph glyph-name="aring.ss01" 
d="M1204 0h-999v1516h999v-1516zM444 1315v-1114h521v1114h-521z" />
    <glyph glyph-name="aringacute.ss01" 
d="M1204 0h-999v1516h999v-1516zM444 1315v-1114h521v1114h-521z" />
    <glyph glyph-name="atilde.ss01" 
d="M1204 0h-999v1516h999v-1516zM444 1315v-1114h521v1114h-521z" />
    <glyph glyph-name="ae.ss01" 
d="M1204 0h-999v1516h999v-1516zM444 1315v-1114h521v1114h-521z" />
    <glyph glyph-name="aeacute.ss01" 
d="M1204 0h-999v1516h999v-1516zM444 1315v-1114h521v1114h-521z" />
    <glyph glyph-name="f_b.liga" 
d="M1204 0h-999v1516h999v-1516zM444 1315v-1114h521v1114h-521z" />
    <glyph glyph-name="f_f.liga" 
d="M1204 0h-999v1516h999v-1516zM444 1315v-1114h521v1114h-521z" />
    <glyph glyph-name="f_f_b.liga" 
d="M1204 0h-999v1516h999v-1516zM444 1315v-1114h521v1114h-521z" />
    <glyph glyph-name="f_f_h.liga" 
d="M1204 0h-999v1516h999v-1516zM444 1315v-1114h521v1114h-521z" />
    <glyph glyph-name="f_f_i.liga" 
d="M1204 0h-999v1516h999v-1516zM444 1315v-1114h521v1114h-521z" />
    <glyph glyph-name="f_f_j.liga" 
d="M1204 0h-999v1516h999v-1516zM444 1315v-1114h521v1114h-521z" />
    <glyph glyph-name="f_f_k.liga" 
d="M1204 0h-999v1516h999v-1516zM444 1315v-1114h521v1114h-521z" />
    <glyph glyph-name="f_f_l.liga" 
d="M1204 0h-999v1516h999v-1516zM444 1315v-1114h521v1114h-521z" />
    <glyph glyph-name="f_h.liga" 
d="M1204 0h-999v1516h999v-1516zM444 1315v-1114h521v1114h-521z" />
    <glyph glyph-name="f_idieresis.liga" 
d="M1204 0h-999v1516h999v-1516zM444 1315v-1114h521v1114h-521z" />
    <glyph glyph-name="f_j.liga" 
d="M1204 0h-999v1516h999v-1516zM444 1315v-1114h521v1114h-521z" />
    <glyph glyph-name="f_k.liga" 
d="M1204 0h-999v1516h999v-1516zM444 1315v-1114h521v1114h-521z" />
    <glyph glyph-name="a.sc" 
d="M1204 0h-999v1516h999v-1516zM444 1315v-1114h521v1114h-521z" />
    <glyph glyph-name="aacute.sc" 
d="M1204 0h-999v1516h999v-1516zM444 1315v-1114h521v1114h-521z" />
    <glyph glyph-name="abreve.sc" 
d="M1204 0h-999v1516h999v-1516zM444 1315v-1114h521v1114h-521z" />
    <glyph glyph-name="acircumflex.sc" 
d="M1204 0h-999v1516h999v-1516zM444 1315v-1114h521v1114h-521z" />
    <glyph glyph-name="adieresis.sc" 
d="M1204 0h-999v1516h999v-1516zM444 1315v-1114h521v1114h-521z" />
    <glyph glyph-name="agrave.sc" 
d="M1204 0h-999v1516h999v-1516zM444 1315v-1114h521v1114h-521z" />
    <glyph glyph-name="amacron.sc" 
d="M1204 0h-999v1516h999v-1516zM444 1315v-1114h521v1114h-521z" />
    <glyph glyph-name="aogonek.sc" 
d="M1204 0h-999v1516h999v-1516zM444 1315v-1114h521v1114h-521z" />
    <glyph glyph-name="aring.sc" 
d="M1204 0h-999v1516h999v-1516zM444 1315v-1114h521v1114h-521z" />
    <glyph glyph-name="aringacute.sc" 
d="M1204 0h-999v1516h999v-1516zM444 1315v-1114h521v1114h-521z" />
    <glyph glyph-name="atilde.sc" 
d="M1204 0h-999v1516h999v-1516zM444 1315v-1114h521v1114h-521z" />
    <glyph glyph-name="ae.sc" 
d="M1204 0h-999v1516h999v-1516zM444 1315v-1114h521v1114h-521z" />
    <glyph glyph-name="aeacute.sc" 
d="M1204 0h-999v1516h999v-1516zM444 1315v-1114h521v1114h-521z" />
    <glyph glyph-name="b.sc" 
d="M1204 0h-999v1516h999v-1516zM444 1315v-1114h521v1114h-521z" />
    <glyph glyph-name="c.sc" 
d="M1204 0h-999v1516h999v-1516zM444 1315v-1114h521v1114h-521z" />
    <glyph glyph-name="cacute.sc" 
d="M1204 0h-999v1516h999v-1516zM444 1315v-1114h521v1114h-521z" />
    <glyph glyph-name="ccaron.sc" 
d="M1204 0h-999v1516h999v-1516zM444 1315v-1114h521v1114h-521z" />
    <glyph glyph-name="ccedilla.sc" 
d="M1204 0h-999v1516h999v-1516zM444 1315v-1114h521v1114h-521z" />
    <glyph glyph-name="ccircumflex.sc" 
d="M1204 0h-999v1516h999v-1516zM444 1315v-1114h521v1114h-521z" />
    <glyph glyph-name="cdotaccent.sc" 
d="M1204 0h-999v1516h999v-1516zM444 1315v-1114h521v1114h-521z" />
    <glyph glyph-name="d.sc" 
d="M1204 0h-999v1516h999v-1516zM444 1315v-1114h521v1114h-521z" />
    <glyph glyph-name="eth.sc" 
d="M1204 0h-999v1516h999v-1516zM444 1315v-1114h521v1114h-521z" />
    <glyph glyph-name="dcaron.sc" 
d="M1204 0h-999v1516h999v-1516zM444 1315v-1114h521v1114h-521z" />
    <glyph glyph-name="dcroat.sc" 
d="M1204 0h-999v1516h999v-1516zM444 1315v-1114h521v1114h-521z" />
    <glyph glyph-name="e.sc" 
d="M1204 0h-999v1516h999v-1516zM444 1315v-1114h521v1114h-521z" />
    <glyph glyph-name="eacute.sc" 
d="M1204 0h-999v1516h999v-1516zM444 1315v-1114h521v1114h-521z" />
    <glyph glyph-name="ebreve.sc" 
d="M1204 0h-999v1516h999v-1516zM444 1315v-1114h521v1114h-521z" />
    <glyph glyph-name="ecaron.sc" 
d="M1204 0h-999v1516h999v-1516zM444 1315v-1114h521v1114h-521z" />
    <glyph glyph-name="ecircumflex.sc" 
d="M1204 0h-999v1516h999v-1516zM444 1315v-1114h521v1114h-521z" />
    <glyph glyph-name="edieresis.sc" 
d="M1204 0h-999v1516h999v-1516zM444 1315v-1114h521v1114h-521z" />
    <glyph glyph-name="edotaccent.sc" 
d="M1204 0h-999v1516h999v-1516zM444 1315v-1114h521v1114h-521z" />
    <glyph glyph-name="egrave.sc" 
d="M1204 0h-999v1516h999v-1516zM444 1315v-1114h521v1114h-521z" />
    <glyph glyph-name="emacron.sc" 
d="M1204 0h-999v1516h999v-1516zM444 1315v-1114h521v1114h-521z" />
    <glyph glyph-name="eogonek.sc" 
d="M1204 0h-999v1516h999v-1516zM444 1315v-1114h521v1114h-521z" />
    <glyph glyph-name="f.sc" 
d="M1204 0h-999v1516h999v-1516zM444 1315v-1114h521v1114h-521z" />
    <glyph glyph-name="g.sc" 
d="M1204 0h-999v1516h999v-1516zM444 1315v-1114h521v1114h-521z" />
    <glyph glyph-name="gbreve.sc" 
d="M1204 0h-999v1516h999v-1516zM444 1315v-1114h521v1114h-521z" />
    <glyph glyph-name="gcircumflex.sc" 
d="M1204 0h-999v1516h999v-1516zM444 1315v-1114h521v1114h-521z" />
    <glyph glyph-name="uni0123.sc" 
d="M1204 0h-999v1516h999v-1516zM444 1315v-1114h521v1114h-521z" />
    <glyph glyph-name="gdotaccent.sc" 
d="M1204 0h-999v1516h999v-1516zM444 1315v-1114h521v1114h-521z" />
    <glyph glyph-name="h.sc" 
d="M1204 0h-999v1516h999v-1516zM444 1315v-1114h521v1114h-521z" />
    <glyph glyph-name="hbar.sc" 
d="M1204 0h-999v1516h999v-1516zM444 1315v-1114h521v1114h-521z" />
    <glyph glyph-name="hcircumflex.sc" 
d="M1204 0h-999v1516h999v-1516zM444 1315v-1114h521v1114h-521z" />
    <glyph glyph-name="i.sc" 
d="M1204 0h-999v1516h999v-1516zM444 1315v-1114h521v1114h-521z" />
    <glyph glyph-name="iacute.sc" 
d="M1204 0h-999v1516h999v-1516zM444 1315v-1114h521v1114h-521z" />
    <glyph glyph-name="iacute_j.loclNLD.sc" 
d="M1204 0h-999v1516h999v-1516zM444 1315v-1114h521v1114h-521z" />
    <glyph glyph-name="ibreve.sc" 
d="M1204 0h-999v1516h999v-1516zM444 1315v-1114h521v1114h-521z" />
    <glyph glyph-name="icircumflex.sc" 
d="M1204 0h-999v1516h999v-1516zM444 1315v-1114h521v1114h-521z" />
    <glyph glyph-name="idieresis.sc" 
d="M1204 0h-999v1516h999v-1516zM444 1315v-1114h521v1114h-521z" />
    <glyph glyph-name="i.sc.loclTRK" 
d="M1204 0h-999v1516h999v-1516zM444 1315v-1114h521v1114h-521z" />
    <glyph glyph-name="igrave.sc" 
d="M1204 0h-999v1516h999v-1516zM444 1315v-1114h521v1114h-521z" />
    <glyph glyph-name="ij.sc" 
d="M1204 0h-999v1516h999v-1516zM444 1315v-1114h521v1114h-521z" />
    <glyph glyph-name="imacron.sc" 
d="M1204 0h-999v1516h999v-1516zM444 1315v-1114h521v1114h-521z" />
    <glyph glyph-name="iogonek.sc" 
d="M1204 0h-999v1516h999v-1516zM444 1315v-1114h521v1114h-521z" />
    <glyph glyph-name="itilde.sc" 
d="M1204 0h-999v1516h999v-1516zM444 1315v-1114h521v1114h-521z" />
    <glyph glyph-name="j.sc" 
d="M1204 0h-999v1516h999v-1516zM444 1315v-1114h521v1114h-521z" />
    <glyph glyph-name="jcircumflex.sc" 
d="M1204 0h-999v1516h999v-1516zM444 1315v-1114h521v1114h-521z" />
    <glyph glyph-name="k.sc" 
d="M1204 0h-999v1516h999v-1516zM444 1315v-1114h521v1114h-521z" />
    <glyph glyph-name="uni0137.sc" 
d="M1204 0h-999v1516h999v-1516zM444 1315v-1114h521v1114h-521z" />
    <glyph glyph-name="l.sc" 
d="M1204 0h-999v1516h999v-1516zM444 1315v-1114h521v1114h-521z" />
    <glyph glyph-name="lacute.sc" 
d="M1204 0h-999v1516h999v-1516zM444 1315v-1114h521v1114h-521z" />
    <glyph glyph-name="lcaron.sc" 
d="M1204 0h-999v1516h999v-1516zM444 1315v-1114h521v1114h-521z" />
    <glyph glyph-name="uni013C.sc" 
d="M1204 0h-999v1516h999v-1516zM444 1315v-1114h521v1114h-521z" />
    <glyph glyph-name="ldot.sc" 
d="M1204 0h-999v1516h999v-1516zM444 1315v-1114h521v1114h-521z" />
    <glyph glyph-name="lslash.sc" 
d="M1204 0h-999v1516h999v-1516zM444 1315v-1114h521v1114h-521z" />
    <glyph glyph-name="m.sc" 
d="M1204 0h-999v1516h999v-1516zM444 1315v-1114h521v1114h-521z" />
    <glyph glyph-name="n.sc" 
d="M1204 0h-999v1516h999v-1516zM444 1315v-1114h521v1114h-521z" />
    <glyph glyph-name="nacute.sc" 
d="M1204 0h-999v1516h999v-1516zM444 1315v-1114h521v1114h-521z" />
    <glyph glyph-name="ncaron.sc" 
d="M1204 0h-999v1516h999v-1516zM444 1315v-1114h521v1114h-521z" />
    <glyph glyph-name="uni0146.sc" 
d="M1204 0h-999v1516h999v-1516zM444 1315v-1114h521v1114h-521z" />
    <glyph glyph-name="eng.sc" 
d="M1204 0h-999v1516h999v-1516zM444 1315v-1114h521v1114h-521z" />
    <glyph glyph-name="ntilde.sc" 
d="M1204 0h-999v1516h999v-1516zM444 1315v-1114h521v1114h-521z" />
    <glyph glyph-name="o.sc" 
d="M1204 0h-999v1516h999v-1516zM444 1315v-1114h521v1114h-521z" />
    <glyph glyph-name="oacute.sc" 
d="M1204 0h-999v1516h999v-1516zM444 1315v-1114h521v1114h-521z" />
    <glyph glyph-name="obreve.sc" 
d="M1204 0h-999v1516h999v-1516zM444 1315v-1114h521v1114h-521z" />
    <glyph glyph-name="ocircumflex.sc" 
d="M1204 0h-999v1516h999v-1516zM444 1315v-1114h521v1114h-521z" />
    <glyph glyph-name="odieresis.sc" 
d="M1204 0h-999v1516h999v-1516zM444 1315v-1114h521v1114h-521z" />
    <glyph glyph-name="ograve.sc" 
d="M1204 0h-999v1516h999v-1516zM444 1315v-1114h521v1114h-521z" />
    <glyph glyph-name="ohungarumlaut.sc" 
d="M1204 0h-999v1516h999v-1516zM444 1315v-1114h521v1114h-521z" />
    <glyph glyph-name="omacron.sc" 
d="M1204 0h-999v1516h999v-1516zM444 1315v-1114h521v1114h-521z" />
    <glyph glyph-name="uni01EB.sc" 
d="M1204 0h-999v1516h999v-1516zM444 1315v-1114h521v1114h-521z" />
    <glyph glyph-name="oslash.sc" 
d="M1204 0h-999v1516h999v-1516zM444 1315v-1114h521v1114h-521z" />
    <glyph glyph-name="oslashacute.sc" 
d="M1204 0h-999v1516h999v-1516zM444 1315v-1114h521v1114h-521z" />
    <glyph glyph-name="otilde.sc" 
d="M1204 0h-999v1516h999v-1516zM444 1315v-1114h521v1114h-521z" />
    <glyph glyph-name="oe.sc" 
d="M1204 0h-999v1516h999v-1516zM444 1315v-1114h521v1114h-521z" />
    <glyph glyph-name="p.sc" 
d="M1204 0h-999v1516h999v-1516zM444 1315v-1114h521v1114h-521z" />
    <glyph glyph-name="thorn.sc" 
d="M1204 0h-999v1516h999v-1516zM444 1315v-1114h521v1114h-521z" />
    <glyph glyph-name="q.sc" 
d="M1204 0h-999v1516h999v-1516zM444 1315v-1114h521v1114h-521z" />
    <glyph glyph-name="r.sc" 
d="M1204 0h-999v1516h999v-1516zM444 1315v-1114h521v1114h-521z" />
    <glyph glyph-name="racute.sc" 
d="M1204 0h-999v1516h999v-1516zM444 1315v-1114h521v1114h-521z" />
    <glyph glyph-name="rcaron.sc" 
d="M1204 0h-999v1516h999v-1516zM444 1315v-1114h521v1114h-521z" />
    <glyph glyph-name="uni0157.sc" 
d="M1204 0h-999v1516h999v-1516zM444 1315v-1114h521v1114h-521z" />
    <glyph glyph-name="s.sc" 
d="M1204 0h-999v1516h999v-1516zM444 1315v-1114h521v1114h-521z" />
    <glyph glyph-name="sacute.sc" 
d="M1204 0h-999v1516h999v-1516zM444 1315v-1114h521v1114h-521z" />
    <glyph glyph-name="scaron.sc" 
d="M1204 0h-999v1516h999v-1516zM444 1315v-1114h521v1114h-521z" />
    <glyph glyph-name="scedilla.sc" 
d="M1204 0h-999v1516h999v-1516zM444 1315v-1114h521v1114h-521z" />
    <glyph glyph-name="scircumflex.sc" 
d="M1204 0h-999v1516h999v-1516zM444 1315v-1114h521v1114h-521z" />
    <glyph glyph-name="uni0219.sc" 
d="M1204 0h-999v1516h999v-1516zM444 1315v-1114h521v1114h-521z" />
    <glyph glyph-name="germandbls.sc" 
d="M1204 0h-999v1516h999v-1516zM444 1315v-1114h521v1114h-521z" />
    <glyph glyph-name="t.sc" 
d="M1204 0h-999v1516h999v-1516zM444 1315v-1114h521v1114h-521z" />
    <glyph glyph-name="tbar.sc" 
d="M1204 0h-999v1516h999v-1516zM444 1315v-1114h521v1114h-521z" />
    <glyph glyph-name="tcaron.sc" 
d="M1204 0h-999v1516h999v-1516zM444 1315v-1114h521v1114h-521z" />
    <glyph glyph-name="uni0163.sc" 
d="M1204 0h-999v1516h999v-1516zM444 1315v-1114h521v1114h-521z" />
    <glyph glyph-name="uni021B.sc" 
d="M1204 0h-999v1516h999v-1516zM444 1315v-1114h521v1114h-521z" />
    <glyph glyph-name="u.sc" 
d="M1204 0h-999v1516h999v-1516zM444 1315v-1114h521v1114h-521z" />
    <glyph glyph-name="uacute.sc" 
d="M1204 0h-999v1516h999v-1516zM444 1315v-1114h521v1114h-521z" />
    <glyph glyph-name="ubreve.sc" 
d="M1204 0h-999v1516h999v-1516zM444 1315v-1114h521v1114h-521z" />
    <glyph glyph-name="ucircumflex.sc" 
d="M1204 0h-999v1516h999v-1516zM444 1315v-1114h521v1114h-521z" />
    <glyph glyph-name="udieresis.sc" 
d="M1204 0h-999v1516h999v-1516zM444 1315v-1114h521v1114h-521z" />
    <glyph glyph-name="ugrave.sc" 
d="M1204 0h-999v1516h999v-1516zM444 1315v-1114h521v1114h-521z" />
    <glyph glyph-name="uhungarumlaut.sc" 
d="M1204 0h-999v1516h999v-1516zM444 1315v-1114h521v1114h-521z" />
    <glyph glyph-name="umacron.sc" 
d="M1204 0h-999v1516h999v-1516zM444 1315v-1114h521v1114h-521z" />
    <glyph glyph-name="uogonek.sc" 
d="M1204 0h-999v1516h999v-1516zM444 1315v-1114h521v1114h-521z" />
    <glyph glyph-name="uring.sc" 
d="M1204 0h-999v1516h999v-1516zM444 1315v-1114h521v1114h-521z" />
    <glyph glyph-name="utilde.sc" 
d="M1204 0h-999v1516h999v-1516zM444 1315v-1114h521v1114h-521z" />
    <glyph glyph-name="v.sc" 
d="M1204 0h-999v1516h999v-1516zM444 1315v-1114h521v1114h-521z" />
    <glyph glyph-name="w.sc" 
d="M1204 0h-999v1516h999v-1516zM444 1315v-1114h521v1114h-521z" />
    <glyph glyph-name="wacute.sc" 
d="M1204 0h-999v1516h999v-1516zM444 1315v-1114h521v1114h-521z" />
    <glyph glyph-name="wcircumflex.sc" 
d="M1204 0h-999v1516h999v-1516zM444 1315v-1114h521v1114h-521z" />
    <glyph glyph-name="wdieresis.sc" 
d="M1204 0h-999v1516h999v-1516zM444 1315v-1114h521v1114h-521z" />
    <glyph glyph-name="wgrave.sc" 
d="M1204 0h-999v1516h999v-1516zM444 1315v-1114h521v1114h-521z" />
    <glyph glyph-name="x.sc" 
d="M1204 0h-999v1516h999v-1516zM444 1315v-1114h521v1114h-521z" />
    <glyph glyph-name="y.sc" 
d="M1204 0h-999v1516h999v-1516zM444 1315v-1114h521v1114h-521z" />
    <glyph glyph-name="yacute.sc" 
d="M1204 0h-999v1516h999v-1516zM444 1315v-1114h521v1114h-521z" />
    <glyph glyph-name="ycircumflex.sc" 
d="M1204 0h-999v1516h999v-1516zM444 1315v-1114h521v1114h-521z" />
    <glyph glyph-name="ydieresis.sc" 
d="M1204 0h-999v1516h999v-1516zM444 1315v-1114h521v1114h-521z" />
    <glyph glyph-name="ygrave.sc" 
d="M1204 0h-999v1516h999v-1516zM444 1315v-1114h521v1114h-521z" />
    <glyph glyph-name="z.sc" 
d="M1204 0h-999v1516h999v-1516zM444 1315v-1114h521v1114h-521z" />
    <glyph glyph-name="zacute.sc" 
d="M1204 0h-999v1516h999v-1516zM444 1315v-1114h521v1114h-521z" />
    <glyph glyph-name="zcaron.sc" 
d="M1204 0h-999v1516h999v-1516zM444 1315v-1114h521v1114h-521z" />
    <glyph glyph-name="zdotaccent.sc" 
d="M1204 0h-999v1516h999v-1516zM444 1315v-1114h521v1114h-521z" />
    <glyph glyph-name="a.subs.ss01" 
d="M1204 0h-999v1516h999v-1516zM444 1315v-1114h521v1114h-521z" />
    <glyph glyph-name="a.sups.ss01" 
d="M1204 0h-999v1516h999v-1516zM444 1315v-1114h521v1114h-521z" />
    <glyph glyph-name="a.subs" 
d="M1204 0h-999v1516h999v-1516zM444 1315v-1114h521v1114h-521z" />
    <glyph glyph-name="b.subs" 
d="M1204 0h-999v1516h999v-1516zM444 1315v-1114h521v1114h-521z" />
    <glyph glyph-name="c.subs" 
d="M1204 0h-999v1516h999v-1516zM444 1315v-1114h521v1114h-521z" />
    <glyph glyph-name="d.subs" 
d="M1204 0h-999v1516h999v-1516zM444 1315v-1114h521v1114h-521z" />
    <glyph glyph-name="e.subs" 
d="M1204 0h-999v1516h999v-1516zM444 1315v-1114h521v1114h-521z" />
    <glyph glyph-name="f.subs" 
d="M1204 0h-999v1516h999v-1516zM444 1315v-1114h521v1114h-521z" />
    <glyph glyph-name="g.subs" 
d="M1204 0h-999v1516h999v-1516zM444 1315v-1114h521v1114h-521z" />
    <glyph glyph-name="h.subs" 
d="M1204 0h-999v1516h999v-1516zM444 1315v-1114h521v1114h-521z" />
    <glyph glyph-name="i.subs" 
d="M1204 0h-999v1516h999v-1516zM444 1315v-1114h521v1114h-521z" />
    <glyph glyph-name="j.subs" 
d="M1204 0h-999v1516h999v-1516zM444 1315v-1114h521v1114h-521z" />
    <glyph glyph-name="k.subs" 
d="M1204 0h-999v1516h999v-1516zM444 1315v-1114h521v1114h-521z" />
    <glyph glyph-name="l.subs" 
d="M1204 0h-999v1516h999v-1516zM444 1315v-1114h521v1114h-521z" />
    <glyph glyph-name="m.subs" 
d="M1204 0h-999v1516h999v-1516zM444 1315v-1114h521v1114h-521z" />
    <glyph glyph-name="n.subs" 
d="M1204 0h-999v1516h999v-1516zM444 1315v-1114h521v1114h-521z" />
    <glyph glyph-name="o.subs" 
d="M1204 0h-999v1516h999v-1516zM444 1315v-1114h521v1114h-521z" />
    <glyph glyph-name="p.subs" 
d="M1204 0h-999v1516h999v-1516zM444 1315v-1114h521v1114h-521z" />
    <glyph glyph-name="q.subs" 
d="M1204 0h-999v1516h999v-1516zM444 1315v-1114h521v1114h-521z" />
    <glyph glyph-name="r.subs" 
d="M1204 0h-999v1516h999v-1516zM444 1315v-1114h521v1114h-521z" />
    <glyph glyph-name="s.subs" 
d="M1204 0h-999v1516h999v-1516zM444 1315v-1114h521v1114h-521z" />
    <glyph glyph-name="t.subs" 
d="M1204 0h-999v1516h999v-1516zM444 1315v-1114h521v1114h-521z" />
    <glyph glyph-name="u.subs" 
d="M1204 0h-999v1516h999v-1516zM444 1315v-1114h521v1114h-521z" />
    <glyph glyph-name="v.subs" 
d="M1204 0h-999v1516h999v-1516zM444 1315v-1114h521v1114h-521z" />
    <glyph glyph-name="w.subs" 
d="M1204 0h-999v1516h999v-1516zM444 1315v-1114h521v1114h-521z" />
    <glyph glyph-name="x.subs" 
d="M1204 0h-999v1516h999v-1516zM444 1315v-1114h521v1114h-521z" />
    <glyph glyph-name="y.subs" 
d="M1204 0h-999v1516h999v-1516zM444 1315v-1114h521v1114h-521z" />
    <glyph glyph-name="z.subs" 
d="M1204 0h-999v1516h999v-1516zM444 1315v-1114h521v1114h-521z" />
    <glyph glyph-name="a.sups" 
d="M1204 0h-999v1516h999v-1516zM444 1315v-1114h521v1114h-521z" />
    <glyph glyph-name="b.sups" 
d="M1204 0h-999v1516h999v-1516zM444 1315v-1114h521v1114h-521z" />
    <glyph glyph-name="c.sups" 
d="M1204 0h-999v1516h999v-1516zM444 1315v-1114h521v1114h-521z" />
    <glyph glyph-name="d.sups" 
d="M1204 0h-999v1516h999v-1516zM444 1315v-1114h521v1114h-521z" />
    <glyph glyph-name="e.sups" 
d="M1204 0h-999v1516h999v-1516zM444 1315v-1114h521v1114h-521z" />
    <glyph glyph-name="f.sups" 
d="M1204 0h-999v1516h999v-1516zM444 1315v-1114h521v1114h-521z" />
    <glyph glyph-name="g.sups" 
d="M1204 0h-999v1516h999v-1516zM444 1315v-1114h521v1114h-521z" />
    <glyph glyph-name="h.sups" 
d="M1204 0h-999v1516h999v-1516zM444 1315v-1114h521v1114h-521z" />
    <glyph glyph-name="i.sups" 
d="M1204 0h-999v1516h999v-1516zM444 1315v-1114h521v1114h-521z" />
    <glyph glyph-name="j.sups" 
d="M1204 0h-999v1516h999v-1516zM444 1315v-1114h521v1114h-521z" />
    <glyph glyph-name="k.sups" 
d="M1204 0h-999v1516h999v-1516zM444 1315v-1114h521v1114h-521z" />
    <glyph glyph-name="l.sups" 
d="M1204 0h-999v1516h999v-1516zM444 1315v-1114h521v1114h-521z" />
    <glyph glyph-name="m.sups" 
d="M1204 0h-999v1516h999v-1516zM444 1315v-1114h521v1114h-521z" />
    <glyph glyph-name="n.sups" 
d="M1204 0h-999v1516h999v-1516zM444 1315v-1114h521v1114h-521z" />
    <glyph glyph-name="o.sups" 
d="M1204 0h-999v1516h999v-1516zM444 1315v-1114h521v1114h-521z" />
    <glyph glyph-name="p.sups" 
d="M1204 0h-999v1516h999v-1516zM444 1315v-1114h521v1114h-521z" />
    <glyph glyph-name="q.sups" 
d="M1204 0h-999v1516h999v-1516zM444 1315v-1114h521v1114h-521z" />
    <glyph glyph-name="r.sups" 
d="M1204 0h-999v1516h999v-1516zM444 1315v-1114h521v1114h-521z" />
    <glyph glyph-name="s.sups" 
d="M1204 0h-999v1516h999v-1516zM444 1315v-1114h521v1114h-521z" />
    <glyph glyph-name="t.sups" 
d="M1204 0h-999v1516h999v-1516zM444 1315v-1114h521v1114h-521z" />
    <glyph glyph-name="u.sups" 
d="M1204 0h-999v1516h999v-1516zM444 1315v-1114h521v1114h-521z" />
    <glyph glyph-name="v.sups" 
d="M1204 0h-999v1516h999v-1516zM444 1315v-1114h521v1114h-521z" />
    <glyph glyph-name="w.sups" 
d="M1204 0h-999v1516h999v-1516zM444 1315v-1114h521v1114h-521z" />
    <glyph glyph-name="x.sups" 
d="M1204 0h-999v1516h999v-1516zM444 1315v-1114h521v1114h-521z" />
    <glyph glyph-name="y.sups" 
d="M1204 0h-999v1516h999v-1516zM444 1315v-1114h521v1114h-521z" />
    <glyph glyph-name="z.sups" 
d="M1204 0h-999v1516h999v-1516zM444 1315v-1114h521v1114h-521z" />
    <glyph glyph-name="zero.zero" 
d="M1204 0h-999v1516h999v-1516zM444 1315v-1114h521v1114h-521z" />
    <glyph glyph-name="zero.lf" 
d="M1204 0h-999v1516h999v-1516zM444 1315v-1114h521v1114h-521z" />
    <glyph glyph-name="one.lf" 
d="M1204 0h-999v1516h999v-1516zM444 1315v-1114h521v1114h-521z" />
    <glyph glyph-name="two.lf" 
d="M1204 0h-999v1516h999v-1516zM444 1315v-1114h521v1114h-521z" />
    <glyph glyph-name="three.lf" 
d="M1204 0h-999v1516h999v-1516zM444 1315v-1114h521v1114h-521z" />
    <glyph glyph-name="four.lf" 
d="M1204 0h-999v1516h999v-1516zM444 1315v-1114h521v1114h-521z" />
    <glyph glyph-name="five.lf" 
d="M1204 0h-999v1516h999v-1516zM444 1315v-1114h521v1114h-521z" />
    <glyph glyph-name="six.lf" 
d="M1204 0h-999v1516h999v-1516zM444 1315v-1114h521v1114h-521z" />
    <glyph glyph-name="seven.lf" 
d="M1204 0h-999v1516h999v-1516zM444 1315v-1114h521v1114h-521z" />
    <glyph glyph-name="eight.lf" 
d="M1204 0h-999v1516h999v-1516zM444 1315v-1114h521v1114h-521z" />
    <glyph glyph-name="nine.lf" 
d="M1204 0h-999v1516h999v-1516zM444 1315v-1114h521v1114h-521z" />
    <glyph glyph-name="zero.lf.zero" 
d="M1204 0h-999v1516h999v-1516zM444 1315v-1114h521v1114h-521z" />
    <glyph glyph-name="zero.osf" 
d="M1204 0h-999v1516h999v-1516zM444 1315v-1114h521v1114h-521z" />
    <glyph glyph-name="one.osf" 
d="M1204 0h-999v1516h999v-1516zM444 1315v-1114h521v1114h-521z" />
    <glyph glyph-name="two.osf" 
d="M1204 0h-999v1516h999v-1516zM444 1315v-1114h521v1114h-521z" />
    <glyph glyph-name="three.osf" 
d="M1204 0h-999v1516h999v-1516zM444 1315v-1114h521v1114h-521z" />
    <glyph glyph-name="four.osf" 
d="M1204 0h-999v1516h999v-1516zM444 1315v-1114h521v1114h-521z" />
    <glyph glyph-name="five.osf" 
d="M1204 0h-999v1516h999v-1516zM444 1315v-1114h521v1114h-521z" />
    <glyph glyph-name="six.osf" 
d="M1204 0h-999v1516h999v-1516zM444 1315v-1114h521v1114h-521z" />
    <glyph glyph-name="seven.osf" 
d="M1204 0h-999v1516h999v-1516zM444 1315v-1114h521v1114h-521z" />
    <glyph glyph-name="eight.osf" 
d="M1204 0h-999v1516h999v-1516zM444 1315v-1114h521v1114h-521z" />
    <glyph glyph-name="nine.osf" 
d="M1204 0h-999v1516h999v-1516zM444 1315v-1114h521v1114h-521z" />
    <glyph glyph-name="zero.osf.zero" 
d="M1204 0h-999v1516h999v-1516zM444 1315v-1114h521v1114h-521z" />
    <glyph glyph-name="zero.tf" 
d="M1204 0h-999v1516h999v-1516zM444 1315v-1114h521v1114h-521z" />
    <glyph glyph-name="one.tf" 
d="M1204 0h-999v1516h999v-1516zM444 1315v-1114h521v1114h-521z" />
    <glyph glyph-name="two.tf" 
d="M1204 0h-999v1516h999v-1516zM444 1315v-1114h521v1114h-521z" />
    <glyph glyph-name="three.tf" 
d="M1204 0h-999v1516h999v-1516zM444 1315v-1114h521v1114h-521z" />
    <glyph glyph-name="four.tf" 
d="M1204 0h-999v1516h999v-1516zM444 1315v-1114h521v1114h-521z" />
    <glyph glyph-name="five.tf" 
d="M1204 0h-999v1516h999v-1516zM444 1315v-1114h521v1114h-521z" />
    <glyph glyph-name="six.tf" 
d="M1204 0h-999v1516h999v-1516zM444 1315v-1114h521v1114h-521z" />
    <glyph glyph-name="seven.tf" 
d="M1204 0h-999v1516h999v-1516zM444 1315v-1114h521v1114h-521z" />
    <glyph glyph-name="eight.tf" 
d="M1204 0h-999v1516h999v-1516zM444 1315v-1114h521v1114h-521z" />
    <glyph glyph-name="nine.tf" 
d="M1204 0h-999v1516h999v-1516zM444 1315v-1114h521v1114h-521z" />
    <glyph glyph-name="zero.tf.zero" 
d="M1204 0h-999v1516h999v-1516zM444 1315v-1114h521v1114h-521z" />
    <glyph glyph-name="uni24FF.zero" 
d="M1204 0h-999v1516h999v-1516zM444 1315v-1114h521v1114h-521z" />
    <glyph glyph-name="uni24EA.zero" 
d="M1204 0h-999v1516h999v-1516zM444 1315v-1114h521v1114h-521z" />
    <glyph glyph-name="zero.dnom" 
d="M1204 0h-999v1516h999v-1516zM444 1315v-1114h521v1114h-521z" />
    <glyph glyph-name="one.dnom" 
d="M1204 0h-999v1516h999v-1516zM444 1315v-1114h521v1114h-521z" />
    <glyph glyph-name="two.dnom" 
d="M1204 0h-999v1516h999v-1516zM444 1315v-1114h521v1114h-521z" />
    <glyph glyph-name="three.dnom" 
d="M1204 0h-999v1516h999v-1516zM444 1315v-1114h521v1114h-521z" />
    <glyph glyph-name="four.dnom" 
d="M1204 0h-999v1516h999v-1516zM444 1315v-1114h521v1114h-521z" />
    <glyph glyph-name="five.dnom" 
d="M1204 0h-999v1516h999v-1516zM444 1315v-1114h521v1114h-521z" />
    <glyph glyph-name="six.dnom" 
d="M1204 0h-999v1516h999v-1516zM444 1315v-1114h521v1114h-521z" />
    <glyph glyph-name="seven.dnom" 
d="M1204 0h-999v1516h999v-1516zM444 1315v-1114h521v1114h-521z" />
    <glyph glyph-name="eight.dnom" 
d="M1204 0h-999v1516h999v-1516zM444 1315v-1114h521v1114h-521z" />
    <glyph glyph-name="nine.dnom" 
d="M1204 0h-999v1516h999v-1516zM444 1315v-1114h521v1114h-521z" />
    <glyph glyph-name="zero.numr" 
d="M1204 0h-999v1516h999v-1516zM444 1315v-1114h521v1114h-521z" />
    <glyph glyph-name="one.numr" 
d="M1204 0h-999v1516h999v-1516zM444 1315v-1114h521v1114h-521z" />
    <glyph glyph-name="two.numr" 
d="M1204 0h-999v1516h999v-1516zM444 1315v-1114h521v1114h-521z" />
    <glyph glyph-name="three.numr" 
d="M1204 0h-999v1516h999v-1516zM444 1315v-1114h521v1114h-521z" />
    <glyph glyph-name="four.numr" 
d="M1204 0h-999v1516h999v-1516zM444 1315v-1114h521v1114h-521z" />
    <glyph glyph-name="five.numr" 
d="M1204 0h-999v1516h999v-1516zM444 1315v-1114h521v1114h-521z" />
    <glyph glyph-name="six.numr" 
d="M1204 0h-999v1516h999v-1516zM444 1315v-1114h521v1114h-521z" />
    <glyph glyph-name="seven.numr" 
d="M1204 0h-999v1516h999v-1516zM444 1315v-1114h521v1114h-521z" />
    <glyph glyph-name="eight.numr" 
d="M1204 0h-999v1516h999v-1516zM444 1315v-1114h521v1114h-521z" />
    <glyph glyph-name="nine.numr" 
d="M1204 0h-999v1516h999v-1516zM444 1315v-1114h521v1114h-521z" />
    <glyph glyph-name="uni2080.zero" 
d="M1204 0h-999v1516h999v-1516zM444 1315v-1114h521v1114h-521z" />
    <glyph glyph-name="zero.dnom.zero" 
d="M1204 0h-999v1516h999v-1516zM444 1315v-1114h521v1114h-521z" />
    <glyph glyph-name="zero.numr.zero" 
d="M1204 0h-999v1516h999v-1516zM444 1315v-1114h521v1114h-521z" />
    <glyph glyph-name="uni2070.zero" 
d="M1204 0h-999v1516h999v-1516zM444 1315v-1114h521v1114h-521z" />
    <glyph glyph-name="zero.c2sc" 
d="M1204 0h-999v1516h999v-1516zM444 1315v-1114h521v1114h-521z" />
    <glyph glyph-name="one.c2sc" 
d="M1204 0h-999v1516h999v-1516zM444 1315v-1114h521v1114h-521z" />
    <glyph glyph-name="two.c2sc" 
d="M1204 0h-999v1516h999v-1516zM444 1315v-1114h521v1114h-521z" />
    <glyph glyph-name="three.c2sc" 
d="M1204 0h-999v1516h999v-1516zM444 1315v-1114h521v1114h-521z" />
    <glyph glyph-name="four.c2sc" 
d="M1204 0h-999v1516h999v-1516zM444 1315v-1114h521v1114h-521z" />
    <glyph glyph-name="five.c2sc" 
d="M1204 0h-999v1516h999v-1516zM444 1315v-1114h521v1114h-521z" />
    <glyph glyph-name="six.c2sc" 
d="M1204 0h-999v1516h999v-1516zM444 1315v-1114h521v1114h-521z" />
    <glyph glyph-name="seven.c2sc" 
d="M1204 0h-999v1516h999v-1516zM444 1315v-1114h521v1114h-521z" />
    <glyph glyph-name="eight.c2sc" 
d="M1204 0h-999v1516h999v-1516zM444 1315v-1114h521v1114h-521z" />
    <glyph glyph-name="nine.c2sc" 
d="M1204 0h-999v1516h999v-1516zM444 1315v-1114h521v1114h-521z" />
    <glyph glyph-name="zero.c2sc.zero" 
d="M1204 0h-999v1516h999v-1516zM444 1315v-1114h521v1114h-521z" />
    <glyph glyph-name="colon.case" 
d="M1204 0h-999v1516h999v-1516zM444 1315v-1114h521v1114h-521z" />
    <glyph glyph-name="exclamdown.case" 
d="M1204 0h-999v1516h999v-1516zM444 1315v-1114h521v1114h-521z" />
    <glyph glyph-name="questiondown.case" 
d="M1204 0h-999v1516h999v-1516zM444 1315v-1114h521v1114h-521z" />
    <glyph glyph-name="periodcentered.case" 
d="M1204 0h-999v1516h999v-1516zM444 1315v-1114h521v1114h-521z" />
    <glyph glyph-name="parenleft.case" 
d="M1204 0h-999v1516h999v-1516zM444 1315v-1114h521v1114h-521z" />
    <glyph glyph-name="parenright.case" 
d="M1204 0h-999v1516h999v-1516zM444 1315v-1114h521v1114h-521z" />
    <glyph glyph-name="braceleft.case" 
d="M1204 0h-999v1516h999v-1516zM444 1315v-1114h521v1114h-521z" />
    <glyph glyph-name="braceright.case" 
d="M1204 0h-999v1516h999v-1516zM444 1315v-1114h521v1114h-521z" />
    <glyph glyph-name="bracketleft.case" 
d="M1204 0h-999v1516h999v-1516zM444 1315v-1114h521v1114h-521z" />
    <glyph glyph-name="bracketright.case" 
d="M1204 0h-999v1516h999v-1516zM444 1315v-1114h521v1114h-521z" />
    <glyph glyph-name="hyphen.case" 
d="M1204 0h-999v1516h999v-1516zM444 1315v-1114h521v1114h-521z" />
    <glyph glyph-name="uni00AD.case" 
d="M1204 0h-999v1516h999v-1516zM444 1315v-1114h521v1114h-521z" />
    <glyph glyph-name="endash.case" 
d="M1204 0h-999v1516h999v-1516zM444 1315v-1114h521v1114h-521z" />
    <glyph glyph-name="emdash.case" 
d="M1204 0h-999v1516h999v-1516zM444 1315v-1114h521v1114h-521z" />
    <glyph glyph-name="guillemotleft.case" 
d="M1204 0h-999v1516h999v-1516zM444 1315v-1114h521v1114h-521z" />
    <glyph glyph-name="guillemotright.case" 
d="M1204 0h-999v1516h999v-1516zM444 1315v-1114h521v1114h-521z" />
    <glyph glyph-name="guilsinglleft.case" 
d="M1204 0h-999v1516h999v-1516zM444 1315v-1114h521v1114h-521z" />
    <glyph glyph-name="guilsinglright.case" 
d="M1204 0h-999v1516h999v-1516zM444 1315v-1114h521v1114h-521z" />
    <glyph glyph-name="parenleft.c2sc" 
d="M1204 0h-999v1516h999v-1516zM444 1315v-1114h521v1114h-521z" />
    <glyph glyph-name="parenright.c2sc" 
d="M1204 0h-999v1516h999v-1516zM444 1315v-1114h521v1114h-521z" />
    <glyph glyph-name="braceleft.c2sc" 
d="M1204 0h-999v1516h999v-1516zM444 1315v-1114h521v1114h-521z" />
    <glyph glyph-name="braceright.c2sc" 
d="M1204 0h-999v1516h999v-1516zM444 1315v-1114h521v1114h-521z" />
    <glyph glyph-name="bracketleft.c2sc" 
d="M1204 0h-999v1516h999v-1516zM444 1315v-1114h521v1114h-521z" />
    <glyph glyph-name="bracketright.c2sc" 
d="M1204 0h-999v1516h999v-1516zM444 1315v-1114h521v1114h-521z" />
    <glyph glyph-name="exclam.c2sc" 
d="M1204 0h-999v1516h999v-1516zM444 1315v-1114h521v1114h-521z" />
    <glyph glyph-name="exclamdown.c2sc" 
d="M1204 0h-999v1516h999v-1516zM444 1315v-1114h521v1114h-521z" />
    <glyph glyph-name="question.c2sc" 
d="M1204 0h-999v1516h999v-1516zM444 1315v-1114h521v1114h-521z" />
    <glyph glyph-name="questiondown.c2sc" 
d="M1204 0h-999v1516h999v-1516zM444 1315v-1114h521v1114h-521z" />
    <glyph glyph-name="quotedblleft.c2sc" 
d="M1204 0h-999v1516h999v-1516zM444 1315v-1114h521v1114h-521z" />
    <glyph glyph-name="quotedblright.c2sc" 
d="M1204 0h-999v1516h999v-1516zM444 1315v-1114h521v1114h-521z" />
    <glyph glyph-name="quoteleft.c2sc" 
d="M1204 0h-999v1516h999v-1516zM444 1315v-1114h521v1114h-521z" />
    <glyph glyph-name="quoteright.c2sc" 
d="M1204 0h-999v1516h999v-1516zM444 1315v-1114h521v1114h-521z" />
    <glyph glyph-name="slash.c2sc" 
d="M1204 0h-999v1516h999v-1516zM444 1315v-1114h521v1114h-521z" />
    <glyph glyph-name="backslash.c2sc" 
d="M1204 0h-999v1516h999v-1516zM444 1315v-1114h521v1114h-521z" />
    <glyph glyph-name="quotedbl.c2sc" 
d="M1204 0h-999v1516h999v-1516zM444 1315v-1114h521v1114h-521z" />
    <glyph glyph-name="quotesingle.c2sc" 
d="M1204 0h-999v1516h999v-1516zM444 1315v-1114h521v1114h-521z" />
    <glyph glyph-name="hyphen.subs" 
d="M1204 0h-999v1516h999v-1516zM444 1315v-1114h521v1114h-521z" />
    <glyph glyph-name="parenleft.subs" 
d="M1204 0h-999v1516h999v-1516zM444 1315v-1114h521v1114h-521z" />
    <glyph glyph-name="parenright.subs" 
d="M1204 0h-999v1516h999v-1516zM444 1315v-1114h521v1114h-521z" />
    <glyph glyph-name="period.subs" 
d="M1204 0h-999v1516h999v-1516zM444 1315v-1114h521v1114h-521z" />
    <glyph glyph-name="comma.subs" 
d="M1204 0h-999v1516h999v-1516zM444 1315v-1114h521v1114h-521z" />
    <glyph glyph-name="hyphen.sups" 
d="M1204 0h-999v1516h999v-1516zM444 1315v-1114h521v1114h-521z" />
    <glyph glyph-name="parenleft.sups" 
d="M1204 0h-999v1516h999v-1516zM444 1315v-1114h521v1114h-521z" />
    <glyph glyph-name="parenright.sups" 
d="M1204 0h-999v1516h999v-1516zM444 1315v-1114h521v1114h-521z" />
    <glyph glyph-name="period.sups" 
d="M1204 0h-999v1516h999v-1516zM444 1315v-1114h521v1114h-521z" />
    <glyph glyph-name="comma.sups" 
d="M1204 0h-999v1516h999v-1516zM444 1315v-1114h521v1114h-521z" />
    <glyph glyph-name="uni20BF.lf" 
d="M1204 0h-999v1516h999v-1516zM444 1315v-1114h521v1114h-521z" />
    <glyph glyph-name="cent.lf" 
d="M1204 0h-999v1516h999v-1516zM444 1315v-1114h521v1114h-521z" />
    <glyph glyph-name="dollar.lf" 
d="M1204 0h-999v1516h999v-1516zM444 1315v-1114h521v1114h-521z" />
    <glyph glyph-name="Euro.lf" 
d="M1204 0h-999v1516h999v-1516zM444 1315v-1114h521v1114h-521z" />
    <glyph glyph-name="florin.lf" 
d="M1204 0h-999v1516h999v-1516zM444 1315v-1114h521v1114h-521z" />
    <glyph glyph-name="uni20BA.lf" 
d="M1204 0h-999v1516h999v-1516zM444 1315v-1114h521v1114h-521z" />
    <glyph glyph-name="uni20B9.lf" 
d="M1204 0h-999v1516h999v-1516zM444 1315v-1114h521v1114h-521z" />
    <glyph glyph-name="sterling.lf" 
d="M1204 0h-999v1516h999v-1516zM444 1315v-1114h521v1114h-521z" />
    <glyph glyph-name="yen.lf" 
d="M1204 0h-999v1516h999v-1516zM444 1315v-1114h521v1114h-521z" />
    <glyph glyph-name="arrowup.case" 
d="M1204 0h-999v1516h999v-1516zM444 1315v-1114h521v1114h-521z" />
    <glyph glyph-name="uni2197.case" 
d="M1204 0h-999v1516h999v-1516zM444 1315v-1114h521v1114h-521z" />
    <glyph glyph-name="arrowright.case" 
d="M1204 0h-999v1516h999v-1516zM444 1315v-1114h521v1114h-521z" />
    <glyph glyph-name="uni2198.case" 
d="M1204 0h-999v1516h999v-1516zM444 1315v-1114h521v1114h-521z" />
    <glyph glyph-name="arrowdown.case" 
d="M1204 0h-999v1516h999v-1516zM444 1315v-1114h521v1114h-521z" />
    <glyph glyph-name="uni2199.case" 
d="M1204 0h-999v1516h999v-1516zM444 1315v-1114h521v1114h-521z" />
    <glyph glyph-name="arrowleft.case" 
d="M1204 0h-999v1516h999v-1516zM444 1315v-1114h521v1114h-521z" />
    <glyph glyph-name="uni2196.case" 
d="M1204 0h-999v1516h999v-1516zM444 1315v-1114h521v1114h-521z" />
    <glyph glyph-name="arrowboth.case" 
d="M1204 0h-999v1516h999v-1516zM444 1315v-1114h521v1114h-521z" />
    <glyph glyph-name="arrowupdn.case" 
d="M1204 0h-999v1516h999v-1516zM444 1315v-1114h521v1114h-521z" />
    <glyph glyph-name="at.case" 
d="M1204 0h-999v1516h999v-1516zM444 1315v-1114h521v1114h-521z" />
    <glyph glyph-name="ampersand.c2sc" 
d="M1204 0h-999v1516h999v-1516zM444 1315v-1114h521v1114h-521z" />
    <glyph glyph-name="uni2116.c2sc" 
d="M1204 0h-999v1516h999v-1516zM444 1315v-1114h521v1114h-521z" />
    <glyph glyph-name="uni20BF.c2sc" 
d="M1204 0h-999v1516h999v-1516zM444 1315v-1114h521v1114h-521z" />
    <glyph glyph-name="cent.c2sc" 
d="M1204 0h-999v1516h999v-1516zM444 1315v-1114h521v1114h-521z" />
    <glyph glyph-name="dollar.c2sc" 
d="M1204 0h-999v1516h999v-1516zM444 1315v-1114h521v1114h-521z" />
    <glyph glyph-name="Euro.c2sc" 
d="M1204 0h-999v1516h999v-1516zM444 1315v-1114h521v1114h-521z" />
    <glyph glyph-name="uni20BA.c2sc" 
d="M1204 0h-999v1516h999v-1516zM444 1315v-1114h521v1114h-521z" />
    <glyph glyph-name="percent.c2sc" 
d="M1204 0h-999v1516h999v-1516zM444 1315v-1114h521v1114h-521z" />
    <glyph glyph-name="perthousand.c2sc" 
d="M1204 0h-999v1516h999v-1516zM444 1315v-1114h521v1114h-521z" />
    <glyph glyph-name="uni20B9.c2sc" 
d="M1204 0h-999v1516h999v-1516zM444 1315v-1114h521v1114h-521z" />
    <glyph glyph-name="sterling.c2sc" 
d="M1204 0h-999v1516h999v-1516zM444 1315v-1114h521v1114h-521z" />
    <glyph glyph-name="yen.c2sc" 
d="M1204 0h-999v1516h999v-1516zM444 1315v-1114h521v1114h-521z" />
    <glyph glyph-name="multiply.subs" 
d="M1204 0h-999v1516h999v-1516zM444 1315v-1114h521v1114h-521z" />
    <glyph glyph-name="divide.subs" 
d="M1204 0h-999v1516h999v-1516zM444 1315v-1114h521v1114h-521z" />
    <glyph glyph-name="multiply.sups" 
d="M1204 0h-999v1516h999v-1516zM444 1315v-1114h521v1114h-521z" />
    <glyph glyph-name="divide.sups" 
d="M1204 0h-999v1516h999v-1516zM444 1315v-1114h521v1114h-521z" />
    <glyph glyph-name="florin.c2sc" 
d="M1204 0h-999v1516h999v-1516zM444 1315v-1114h521v1114h-521z" />
    <glyph glyph-name="uni030C.alt" 
d="M1204 0h-999v1516h999v-1516zM444 1315v-1114h521v1114h-521z" />
    <glyph glyph-name="uni0308.case" 
d="M1204 0h-999v1516h999v-1516zM444 1315v-1114h521v1114h-521z" />
    <glyph glyph-name="uni0307.case" 
d="M1204 0h-999v1516h999v-1516zM444 1315v-1114h521v1114h-521z" />
    <glyph glyph-name="gravecomb.case" 
d="M1204 0h-999v1516h999v-1516zM444 1315v-1114h521v1114h-521z" />
    <glyph glyph-name="acutecomb.case" 
d="M1204 0h-999v1516h999v-1516zM444 1315v-1114h521v1114h-521z" />
    <glyph glyph-name="uni030B.case" 
d="M1204 0h-999v1516h999v-1516zM444 1315v-1114h521v1114h-521z" />
    <glyph glyph-name="uni030C.alt.case" 
d="M1204 0h-999v1516h999v-1516zM444 1315v-1114h521v1114h-521z" />
    <glyph glyph-name="uni0302.case" 
d="M1204 0h-999v1516h999v-1516zM444 1315v-1114h521v1114h-521z" />
    <glyph glyph-name="uni030C.case" 
d="M1204 0h-999v1516h999v-1516zM444 1315v-1114h521v1114h-521z" />
    <glyph glyph-name="uni0306.case" 
d="M1204 0h-999v1516h999v-1516zM444 1315v-1114h521v1114h-521z" />
    <glyph glyph-name="uni030A.case" 
d="M1204 0h-999v1516h999v-1516zM444 1315v-1114h521v1114h-521z" />
    <glyph glyph-name="tildecomb.case" 
d="M1204 0h-999v1516h999v-1516zM444 1315v-1114h521v1114h-521z" />
    <glyph glyph-name="uni0304.case" 
d="M1204 0h-999v1516h999v-1516zM444 1315v-1114h521v1114h-521z" />
    <glyph glyph-name="uni0308.narrow" 
d="M1204 0h-999v1516h999v-1516zM444 1315v-1114h521v1114h-521z" />
    <glyph glyph-name="gravecomb.narrow" 
d="M1204 0h-999v1516h999v-1516zM444 1315v-1114h521v1114h-521z" />
    <glyph glyph-name="acutecomb.narrow" 
d="M1204 0h-999v1516h999v-1516zM444 1315v-1114h521v1114h-521z" />
    <glyph glyph-name="uni0302.narrow" 
d="M1204 0h-999v1516h999v-1516zM444 1315v-1114h521v1114h-521z" />
    <glyph glyph-name="uni0306.narrow" 
d="M1204 0h-999v1516h999v-1516zM444 1315v-1114h521v1114h-521z" />
    <glyph glyph-name="tildecomb.narrow" 
d="M1204 0h-999v1516h999v-1516zM444 1315v-1114h521v1114h-521z" />
    <glyph glyph-name="uni0304.narrow" 
d="M1204 0h-999v1516h999v-1516zM444 1315v-1114h521v1114h-521z" />
    <glyph glyph-name="uni0328.narrow" 
d="M1204 0h-999v1516h999v-1516zM444 1315v-1114h521v1114h-521z" />
    <glyph glyph-name="uni0308.case.narrow" 
d="M1204 0h-999v1516h999v-1516zM444 1315v-1114h521v1114h-521z" />
    <glyph glyph-name="gravecomb.case.narrow" 
d="M1204 0h-999v1516h999v-1516zM444 1315v-1114h521v1114h-521z" />
    <glyph glyph-name="acutecomb.case.narrow" 
d="M1204 0h-999v1516h999v-1516zM444 1315v-1114h521v1114h-521z" />
    <glyph glyph-name="uni0302.case.narrow" 
d="M1204 0h-999v1516h999v-1516zM444 1315v-1114h521v1114h-521z" />
    <glyph glyph-name="uni0306.case.narrow" 
d="M1204 0h-999v1516h999v-1516zM444 1315v-1114h521v1114h-521z" />
    <glyph glyph-name="tildecomb.case.narrow" 
d="M1204 0h-999v1516h999v-1516zM444 1315v-1114h521v1114h-521z" />
    <glyph glyph-name="uni0304.case.narrow" 
d="M1204 0h-999v1516h999v-1516zM444 1315v-1114h521v1114h-521z" />
    <glyph glyph-name="ringacutecomb" 
d="M1204 0h-999v1516h999v-1516zM444 1315v-1114h521v1114h-521z" />
    <glyph glyph-name="ringacutecomb.case" 
d="M1204 0h-999v1516h999v-1516zM444 1315v-1114h521v1114h-521z" />
    </font>
</defs>
</svg>
