<?xml version="1.0" standalone="no"?>
<!DOCTYPE svg PUBLIC "-//W3C//DTD SVG 1.1//EN" "http://www.w3.org/Graphics/SVG/1.1/DTD/svg11.dtd" >
<svg xmlns="http://www.w3.org/2000/svg" xmlns:xlink="http://www.w3.org/1999/xlink" version="1.1">
<metadata>
Created by FontForge 20170731 at Fri Nov 10 10:03:48 2023
 By Aleksey,,,
Copyright (c) 2021 by Daniel Sabino. All rights reserved.
</metadata>
<defs>
<font id="ElzaTextTrial-BoldOblique" horiz-adv-x="1466" >
  <font-face 
    font-family="Elza Text Trial Bold Oblique"
    font-weight="700"
    font-style="oblique"
    font-stretch="normal"
    units-per-em="2048"
    panose-1="0 0 8 0 0 0 0 0 0 0"
    ascent="1638"
    descent="-410"
    x-height="1059"
    cap-height="1454"
    bbox="-213 -375 1991 1567"
    underline-thickness="102"
    underline-position="-307"
    slope="-9"
    unicode-range="U+0020-FB02"
  />
<missing-glyph 
d="M1176 0h-1055l241 1516h1055zM651 1249l-157 -983h395l155 983h-393z" />
    <glyph glyph-name=".notdef" 
d="M1176 0h-1055l241 1516h1055zM651 1249l-157 -983h395l155 983h-393z" />
    <glyph glyph-name=".null" horiz-adv-x="0" 
 />
    <glyph glyph-name="nonmarkingreturn" horiz-adv-x="682" 
 />
    <glyph glyph-name="space" unicode=" " horiz-adv-x="382" 
 />
    <glyph glyph-name="exclam" unicode="!" 
d="M1176 0h-1055l241 1516h1055zM651 1249l-157 -983h395l155 983h-393z" />
    <glyph glyph-name="quotedbl" unicode="&#x22;" 
d="M1176 0h-1055l241 1516h1055zM651 1249l-157 -983h395l155 983h-393z" />
    <glyph glyph-name="numbersign" unicode="#" 
d="M1176 0h-1055l241 1516h1055zM651 1249l-157 -983h395l155 983h-393z" />
    <glyph glyph-name="dollar" unicode="$" 
d="M1176 0h-1055l241 1516h1055zM651 1249l-157 -983h395l155 983h-393z" />
    <glyph glyph-name="percent" unicode="%" 
d="M1176 0h-1055l241 1516h1055zM651 1249l-157 -983h395l155 983h-393z" />
    <glyph glyph-name="ampersand" unicode="&#x26;" 
d="M1176 0h-1055l241 1516h1055zM651 1249l-157 -983h395l155 983h-393z" />
    <glyph glyph-name="quotesingle" unicode="'" 
d="M1176 0h-1055l241 1516h1055zM651 1249l-157 -983h395l155 983h-393z" />
    <glyph glyph-name="parenleft" unicode="(" 
d="M1176 0h-1055l241 1516h1055zM651 1249l-157 -983h395l155 983h-393z" />
    <glyph glyph-name="parenright" unicode=")" 
d="M1176 0h-1055l241 1516h1055zM651 1249l-157 -983h395l155 983h-393z" />
    <glyph glyph-name="asterisk" unicode="*" 
d="M1176 0h-1055l241 1516h1055zM651 1249l-157 -983h395l155 983h-393z" />
    <glyph glyph-name="plus" unicode="+" 
d="M1176 0h-1055l241 1516h1055zM651 1249l-157 -983h395l155 983h-393z" />
    <glyph glyph-name="comma" unicode="," horiz-adv-x="677" 
d="M0 -356l27 161q91 0 138 29.5t56 102.5l10 63h-147l51 324h334l-55 -392q-21 -154 -120 -221t-294 -67z" />
    <glyph glyph-name="hyphen" unicode="-" horiz-adv-x="886" 
d="M737 455h-610l39 262h612z" />
    <glyph glyph-name="period" unicode="." horiz-adv-x="669" 
d="M418 0h-334l51 324h334z" />
    <glyph glyph-name="slash" unicode="/" 
d="M1176 0h-1055l241 1516h1055zM651 1249l-157 -983h395l155 983h-393z" />
    <glyph glyph-name="zero" unicode="0" horiz-adv-x="1167" 
d="M551 -27q-172 0 -283 90.5t-149.5 251t-5.5 373.5l26 174q17 113 43 202.5t69 169.5t100.5 133t139.5 83.5t185 30.5q173 0 284 -90.5t149.5 -250t6.5 -372.5l-26 -176q-17 -113 -43 -203t-69 -169.5t-101 -132.5t-140.5 -83.5t-185.5 -30.5zM561 246q83 0 119.5 65
t60.5 215l45 314q30 190 0.5 279t-122.5 89q-79 0 -116 -66.5t-61 -213.5l-45 -316q-29 -187 0.5 -276.5t118.5 -89.5z" />
    <glyph glyph-name="one" unicode="1" horiz-adv-x="823" 
d="M590 0h-334l164 1012q-124 -84 -291 -121l47 309q226 48 399 254h244z" />
    <glyph glyph-name="two" unicode="2" horiz-adv-x="1044" 
d="M911 0h-954l27 170q21 141 70 242t151.5 191.5t271.5 172.5q140 69 197 120t69 120l2 12q15 89 -14.5 141t-103.5 52q-75 0 -115 -52t-57 -168h-328q80 480 512 480q220 0 342 -128.5t90 -330.5l-2 -14q-21 -135 -108.5 -233.5t-294.5 -205.5q-170 -91 -235 -151
t-85 -146h610z" />
    <glyph glyph-name="three" unicode="3" horiz-adv-x="1167" 
d="M541 -27q-242 0 -372.5 131.5t-111.5 350.5h320q-9 -226 174 -226q158 0 182 150l4 20q18 117 -27.5 177.5t-140.5 60.5h-108l37 237h135q77 0 123 37t55 103l4 18q16 95 -25.5 147t-117.5 52q-86 0 -130 -52t-63 -167h-305q34 229 163.5 349t346.5 120q99 0 186 -31.5
t150 -88.5t91.5 -145t10.5 -192l-4 -25q-15 -90 -77.5 -156.5t-155.5 -92.5q96 -32 150 -132t28 -253l-4 -25q-30 -169 -162 -268t-356 -99z" />
    <glyph glyph-name="four" unicode="4" horiz-adv-x="1167" 
d="M866 0h-334l50 311h-572l43 252l688 891h355l-142 -881h166l-43 -262h-164zM702 1057l-372 -488h295z" />
    <glyph glyph-name="five" unicode="5" horiz-adv-x="1167" 
d="M553 -27q-225 0 -354 120.5t-125 330.5h321q-1 -97 44.5 -145t119.5 -48q77 0 123.5 48.5t60.5 140.5l2 20q21 127 -23 198t-128 71q-106 0 -166 -111l-278 27l245 829h764l-43 -276h-528l-94 -314q86 86 225 86q178 0 282 -142t70 -370l-2 -22q-31 -214 -164.5 -328.5
t-351.5 -114.5z" />
    <glyph glyph-name="six" unicode="6" horiz-adv-x="1167" 
d="M571 -27q-275 0 -395.5 199.5t-62.5 577.5l16 106q48 306 181 465.5t376 159.5q197 0 321 -112.5t134 -311.5h-301q-7 85 -49.5 128.5t-110.5 43.5q-103 0 -159 -88.5t-89 -288.5l-8 -55q45 65 117.5 105t160.5 40q120 0 210.5 -64t133.5 -185.5t21 -276.5l-4 -29
q-28 -192 -156.5 -303t-335.5 -111zM563 231q144 0 170 179l4 32q18 120 -20 185t-117 65q-146 0 -174 -180l-4 -35q-19 -113 20.5 -179.5t120.5 -66.5z" />
    <glyph glyph-name="seven" unicode="7" horiz-adv-x="1085" 
d="M506 0h-354q191 618 618 1169h-608l43 285h987l-35 -229q-458 -548 -651 -1225z" />
    <glyph glyph-name="eight" unicode="8" horiz-adv-x="1167" 
d="M543 -27q-155 0 -270 56.5t-171.5 167.5t-31.5 258l4 28q18 106 97.5 188.5t182.5 112.5q-77 45 -115.5 134t-19.5 206l4 25q27 154 147 243t318 89q212 0 336.5 -121t89.5 -328l-4 -24q-14 -88 -79 -161t-154 -99q99 -46 152 -148.5t30 -241.5l-6 -30
q-27 -163 -158.5 -259t-351.5 -96zM651 877q66 0 108 36.5t54 104.5l2 22q18 90 -22.5 141.5t-116.5 51.5q-66 0 -107 -37t-53 -104l-2 -23q-17 -90 23 -141t114 -51zM553 227q77 0 123.5 41t58.5 119l4 29q17 102 -27.5 159.5t-131.5 57.5q-74 0 -122.5 -44t-60.5 -122
l-4 -29q-18 -102 28.5 -156.5t131.5 -54.5z" />
    <glyph glyph-name="nine" unicode="9" horiz-adv-x="1167" 
d="M543 -27q-197 0 -321 112.5t-134 311.5h301q7 -85 49.5 -128.5t110.5 -43.5q104 0 160.5 89t87.5 288l10 57q-45 -66 -118 -106.5t-163 -40.5q-119 0 -209 64.5t-132.5 186t-20.5 275.5l4 29q27 192 155 303t336 111q273 0 394 -199t63 -577l-16 -107
q-23 -150 -65.5 -263t-109 -195.5t-162.5 -124.5t-220 -42zM631 762q147 0 172 180l6 35q17 113 -23 179.5t-122 66.5q-140 0 -166 -179l-6 -32q-17 -120 21.5 -185t117.5 -65z" />
    <glyph glyph-name="colon" unicode=":" 
d="M1176 0h-1055l241 1516h1055zM651 1249l-157 -983h395l155 983h-393z" />
    <glyph glyph-name="semicolon" unicode=";" 
d="M1176 0h-1055l241 1516h1055zM651 1249l-157 -983h395l155 983h-393z" />
    <glyph glyph-name="less" unicode="&#x3c;" 
d="M1176 0h-1055l241 1516h1055zM651 1249l-157 -983h395l155 983h-393z" />
    <glyph glyph-name="equal" unicode="=" 
d="M1176 0h-1055l241 1516h1055zM651 1249l-157 -983h395l155 983h-393z" />
    <glyph glyph-name="greater" unicode="&#x3e;" 
d="M1176 0h-1055l241 1516h1055zM651 1249l-157 -983h395l155 983h-393z" />
    <glyph glyph-name="question" unicode="?" 
d="M1176 0h-1055l241 1516h1055zM651 1249l-157 -983h395l155 983h-393z" />
    <glyph glyph-name="at" unicode="@" 
d="M1176 0h-1055l241 1516h1055zM651 1249l-157 -983h395l155 983h-393z" />
    <glyph glyph-name="A" unicode="A" horiz-adv-x="1378" 
d="M1282 0h-340l-43 299h-485l-140 -299h-344l721 1454h369zM784 1100l-249 -541h327z" />
    <glyph glyph-name="B" unicode="B" horiz-adv-x="1333" 
d="M778 0h-719l230 1454h604q200 0 308.5 -126t74.5 -316l-4 -19q-13 -86 -69.5 -153t-143.5 -101q96 -55 140.5 -157t23.5 -234l-4 -24q-24 -144 -140.5 -234t-300.5 -90zM584 1182l-52 -324h226q135 0 164 115l4 14q25 91 -17.5 143t-124.5 52h-200zM494 612l-56 -340h277
q71 0 114.5 33t53.5 96l4 25q15 89 -26 137.5t-128 48.5h-239z" />
    <glyph glyph-name="C" unicode="C" horiz-adv-x="1382" 
d="M688 -27q-209 0 -351.5 97.5t-199 272t-20.5 400.5l20 119q46 288 215 453.5t449 165.5q251 0 408.5 -140.5t166.5 -384.5h-346q-9 120 -71.5 184t-163.5 64q-132 0 -208.5 -86.5t-107.5 -269.5l-20 -135q-36 -224 30 -343.5t216 -119.5q116 1 181 63.5t99 198.5h344
q-119 -539 -641 -539z" />
    <glyph glyph-name="D" unicode="D" horiz-adv-x="1427" 
d="M678 0h-619l230 1454h528q199 0 337.5 -94.5t195.5 -269t20 -400.5l-14 -90q-49 -293 -223.5 -446.5t-454.5 -153.5zM588 1180l-144 -906h213q153 0 236.5 85t110.5 247l18 121q37 221 -31.5 337t-222.5 116h-180z" />
    <glyph glyph-name="E" unicode="E" horiz-adv-x="1241" 
d="M1063 0h-1004l230 1454h987l-43 -280h-645l-47 -295h579l-45 -277h-577l-52 -315h662z" />
    <glyph glyph-name="F" unicode="F" horiz-adv-x="1163" 
d="M401 0h-342l230 1454h946l-45 -280h-602l-53 -332h538l-43 -277h-538z" />
    <glyph glyph-name="G" unicode="G" horiz-adv-x="1427" 
d="M639 -27q-188 0 -320 96t-186 269t-18 393l20 127q47 293 222.5 458t463.5 165q254 0 413.5 -133.5t162.5 -360.5h-334q-10 106 -75.5 161.5t-172.5 55.5q-271 0 -326 -354l-22 -141q-33 -224 36.5 -341.5t229.5 -117.5q263 0 318 293l2 10h-326l41 252h612l-129 -805
h-237v156q-57 -86 -152.5 -134.5t-222.5 -48.5z" />
    <glyph glyph-name="H" unicode="H" horiz-adv-x="1454" 
d="M406 0h-347l230 1454h346l-90 -567h477l90 567h346l-229 -1454h-346l94 604h-477z" />
    <glyph glyph-name="I" unicode="I" horiz-adv-x="630" 
d="M406 0h-347l230 1454h346z" />
    <glyph glyph-name="J" unicode="J" horiz-adv-x="1177" 
d="M506 -27q-237 0 -362 134.5t-91 359.5l10 57h322l-10 -61q-27 -203 143 -203q85 0 123.5 42.5t50.5 119.5l162 1032h338l-164 -1038q-16 -101 -50 -178t-93.5 -138.5t-155 -94t-223.5 -32.5z" />
    <glyph glyph-name="K" unicode="K" horiz-adv-x="1343" 
d="M395 0h-336l230 1454h336l-88 -557l538 557h373l-590 -604l385 -850h-354l-279 635l-137 -137z" />
    <glyph glyph-name="L" unicode="L" horiz-adv-x="1044" 
d="M889 0h-830l230 1454h346l-184 -1167h483z" />
    <glyph glyph-name="M" unicode="M" horiz-adv-x="1751" 
d="M383 0h-324l230 1454h459l118 -1014l430 1014h457l-229 -1454h-318l160 1016l-440 -1016h-252l-127 1040z" />
    <glyph glyph-name="N" unicode="N" horiz-adv-x="1462" 
d="M381 0h-322l230 1454h381l323 -946l152 946h321l-229 -1454h-363l-335 993z" />
    <glyph glyph-name="O" unicode="O" horiz-adv-x="1490" 
d="M731 -27q-218 0 -369 98t-213.5 271t-31.5 397l16 109q44 300 225 466.5t463 166.5q219 0 371.5 -98t216 -272t27.5 -396l-17 -109q-50 -301 -229 -467t-459 -166zM735 250q135 0 216 88.5t110 271.5l22 135q35 215 -35.5 337t-230.5 122q-269 0 -330 -362l-20 -135
q-35 -215 36 -336t232 -121z" />
    <glyph glyph-name="P" unicode="P" horiz-adv-x="1286" 
d="M403 0h-344l230 1454h561q111 0 202.5 -39t151.5 -108.5t84.5 -172t3.5 -223.5l-6 -26q-32 -183 -165.5 -285t-344.5 -102h-295zM590 1180l-66 -408h219q87 0 138 42t63 116l4 24q17 107 -31.5 166.5t-146.5 59.5h-180z" />
    <glyph glyph-name="Q" unicode="Q" horiz-adv-x="1490" 
d="M821 1481q219 0 371.5 -98t216 -272t27.5 -396l-17 -109q-32 -192 -118 -331t-218 -214l97 -235h-277l-61 154q-65 -7 -111 -7q-218 0 -369 98t-213.5 271t-31.5 397l16 109q44 300 225 466.5t463 166.5zM1061 610l22 135q35 215 -35.5 337t-230.5 122q-269 0 -330 -362
l-20 -135q-35 -213 35.5 -334t230.5 -123l-108 268h270l68 -166q71 89 98 258z" />
    <glyph glyph-name="R" unicode="R" horiz-adv-x="1300" 
d="M401 0h-342l230 1454h577q226 0 353.5 -151t87.5 -392l-7 -28q-23 -133 -102 -224t-203 -131l207 -528h-360l-185 498h-176zM588 1176l-64 -404h234q174 0 200 156l5 24q19 105 -30.5 164.5t-148.5 59.5h-196z" />
    <glyph glyph-name="S" unicode="S" horiz-adv-x="1267" 
d="M612 -27q-275 0 -427 136t-126 362h328q-12 -114 51 -173.5t189 -59.5q191 0 209 127l4 16q14 85 -41.5 135.5t-216.5 97.5q-223 69 -317 187t-66 295l4 24q28 166 165 263.5t347 97.5q262 0 403.5 -126.5t124.5 -344.5h-323q10 103 -44 157t-161 54q-79 0 -127.5 -32
t-57.5 -91l-2 -15q-12 -78 35.5 -123t196.5 -92q243 -76 340.5 -198.5t66.5 -313.5l-4 -24q-30 -167 -174 -263t-377 -96z" />
    <glyph glyph-name="T" unicode="T" horiz-adv-x="1175" 
d="M676 0h-344l186 1169h-352l43 285h1048l-43 -285h-352z" />
    <glyph glyph-name="U" unicode="U" horiz-adv-x="1406" 
d="M662 -27q-135 0 -241.5 41.5t-176 118.5t-96.5 192t-5 257l136 872h339l-143 -911q-25 -146 26 -216.5t179 -70.5q108 0 170 62t82 190l147 946h342l-151 -956q-19 -125 -60.5 -218.5t-112.5 -164t-180 -106.5t-255 -36z" />
    <glyph glyph-name="V" unicode="V" horiz-adv-x="1294" 
d="M752 0h-379l-213 1454h352l113 -1046l442 1046h360z" />
    <glyph glyph-name="W" unicode="W" horiz-adv-x="1857" 
d="M641 0h-375l-106 1454h338l39 -1010l381 1010h333l54 -999l354 999h332l-570 -1454h-362l-49 973z" />
    <glyph glyph-name="X" unicode="X" horiz-adv-x="1355" 
d="M315 0h-385l600 762l-340 692h371l191 -432l325 432h381l-561 -706l360 -748h-368l-211 477z" />
    <glyph glyph-name="Y" unicode="Y" horiz-adv-x="1230" 
d="M705 0h-338l75 475l-284 979h348l149 -641l353 641h358l-586 -979z" />
    <glyph glyph-name="Z" unicode="Z" horiz-adv-x="1130" 
d="M975 0h-989l39 244l725 932h-541l43 278h930l-37 -246l-715 -927h590z" />
    <glyph glyph-name="bracketleft" unicode="[" 
d="M1176 0h-1055l241 1516h1055zM651 1249l-157 -983h395l155 983h-393z" />
    <glyph glyph-name="backslash" unicode="\" 
d="M1176 0h-1055l241 1516h1055zM651 1249l-157 -983h395l155 983h-393z" />
    <glyph glyph-name="bracketright" unicode="]" 
d="M1176 0h-1055l241 1516h1055zM651 1249l-157 -983h395l155 983h-393z" />
    <glyph glyph-name="asciicircum" unicode="^" 
d="M1176 0h-1055l241 1516h1055zM651 1249l-157 -983h395l155 983h-393z" />
    <glyph glyph-name="underscore" unicode="_" 
d="M1176 0h-1055l241 1516h1055zM651 1249l-157 -983h395l155 983h-393z" />
    <glyph glyph-name="grave" unicode="`" 
d="M1176 0h-1055l241 1516h1055zM651 1249l-157 -983h395l155 983h-393z" />
    <glyph glyph-name="a" unicode="a" horiz-adv-x="1132" 
d="M338 -27q-148 0 -234.5 97.5t-60.5 251.5q20 127 109 197.5t249 92.5l308 39l10 62q11 70 -22 106.5t-95 36.5q-114 0 -143 -111h-307q36 163 153 251.5t313 88.5q211 0 328 -109.5t86 -309.5l-108 -666h-295l6 123q-105 -150 -297 -150zM469 201q79 0 129 40t64 111
l16 105l-195 -25q-112 -14 -125 -106q-10 -58 21.5 -91.5t89.5 -33.5z" />
    <glyph glyph-name="b" unicode="b" horiz-adv-x="1234" 
d="M694 -27q-110 0 -192 50.5t-121 128.5l-31 -152h-301l244 1540h330l-91 -569q98 114 267 114q188 0 289 -151t61 -404l-14 -104q-34 -213 -149 -333t-292 -120zM610 219q87 0 135.5 53t63.5 162l22 150q17 122 -26.5 190t-142.5 68q-171 0 -201 -217l-21 -150
q-19 -122 26.5 -189t143.5 -67z" />
    <glyph glyph-name="c" unicode="c" horiz-adv-x="1107" 
d="M541 -27q-237 0 -362.5 156t-90.5 410l12 86q32 221 163 340.5t345 119.5q210 0 325.5 -113t115.5 -302h-322q0 166 -129 166q-75 0 -116 -51t-56 -164l-18 -142q-19 -123 18 -189.5t121 -66.5q68 0 104.5 40t50.5 126h322q-27 -197 -149.5 -306.5t-333.5 -109.5z" />
    <glyph glyph-name="d" unicode="d" horiz-adv-x="1234" 
d="M438 -27q-189 0 -290.5 154.5t-61.5 413.5l14 86q34 215 150.5 336.5t294.5 121.5q99 0 175 -41.5t118 -109.5l96 606h328l-244 -1540h-295l8 121q-45 -65 -120 -106.5t-173 -41.5zM575 217q169 0 199 217l21 150q19 122 -26.5 190t-141.5 68q-88 0 -136.5 -53.5
t-66.5 -163.5l-21 -150q-19 -120 27.5 -189t144.5 -69z" />
    <glyph glyph-name="e" unicode="e" horiz-adv-x="1169" 
d="M559 -27q-247 0 -376.5 155t-94.5 411l12 86q31 218 166 339t357 121q259 0 378.5 -170.5t69.5 -455.5h-682q-10 -122 36 -185t136 -63q69 0 112.5 31t59.5 84h314q-43 -165 -165.5 -259t-322.5 -94zM416 641h366q6 100 -38 153.5t-130 53.5q-84 0 -131.5 -50.5
t-66.5 -156.5z" />
    <glyph glyph-name="f" unicode="f" horiz-adv-x="802" 
d="M444 0h-327l131 823h-170l37 236h170l32 198q26 160 120 235t272 75q122 0 211 -29l-37 -240q-47 19 -107 19q-68 0 -100.5 -26t-42.5 -93l-23 -139h232l-39 -236h-230z" />
    <glyph glyph-name="g" unicode="g" horiz-adv-x="1234" 
d="M494 -375q-222 0 -341.5 85.5t-125.5 232.5h311q5 -45 49 -71t119 -26q170 0 192 156l27 166q-46 -60 -118 -96.5t-165 -36.5q-185 0 -286 146.5t-66 379.5l12 76q31 209 145 328.5t298 119.5q110 0 192 -52t117 -132l35 158h297l-164 -1024q-32 -202 -159.5 -306
t-368.5 -104zM580 283q166 0 196 196l19 121q20 115 -24.5 179.5t-141.5 64.5q-172 0 -203 -205l-18 -119q-17 -109 29 -173t143 -64z" />
    <glyph glyph-name="h" unicode="h" horiz-adv-x="1208" 
d="M377 0h-328l244 1540h330l-93 -577q100 122 267 122q168 0 253.5 -114.5t55.5 -311.5l-105 -659h-327l102 645q13 86 -20 134t-107 48q-147 0 -172 -186z" />
    <glyph glyph-name="i" unicode="i" horiz-adv-x="593" 
d="M580 1233h-342l47 307h342zM377 0h-328l168 1059h328z" />
    <glyph glyph-name="j" unicode="j" horiz-adv-x="565" 
d="M557 1233h-342l47 307h342zM-41 -375q-109 0 -172 31l37 235q34 -18 78 -18q97 0 112 90l174 1096h328l-178 -1118q-24 -155 -113.5 -235.5t-265.5 -80.5z" />
    <glyph glyph-name="k" unicode="k" horiz-adv-x="1144" 
d="M373 0h-324l246 1540h323l-131 -833l361 352h350l-424 -414l277 -645h-326l-188 463l-105 -101z" />
    <glyph glyph-name="l" unicode="l" horiz-adv-x="593" 
d="M377 0h-328l244 1540h328z" />
    <glyph glyph-name="m" unicode="m" horiz-adv-x="1781" 
d="M377 0h-328l168 1059h305l-12 -125q44 68 118 109.5t171 41.5q95 0 165 -45.5t103 -124.5q119 170 313 170q166 0 249 -112.5t52 -302.5l-106 -670h-326l103 647q14 85 -16 132.5t-99 47.5t-106.5 -47t-51.5 -135l-104 -645h-326l103 647q14 85 -16.5 132.5t-100.5 47.5
q-132 0 -158 -182z" />
    <glyph glyph-name="n" unicode="n" horiz-adv-x="1208" 
d="M375 0h-326l168 1059h307l-14 -121q106 147 287 147q167 0 253 -115t56 -311l-105 -659h-327l102 641q14 89 -18.5 137.5t-108.5 48.5q-145 0 -174 -188z" />
    <glyph glyph-name="o" unicode="o" horiz-adv-x="1191" 
d="M557 -27q-247 0 -375.5 154.5t-93.5 411.5l12 86q31 217 167.5 338.5t363.5 121.5q249 0 377.5 -153.5t93.5 -411.5l-12 -86q-30 -219 -166.5 -340t-366.5 -121zM569 219q164 0 195 211l22 160q17 118 -25.5 184t-137.5 66q-82 0 -131.5 -54.5t-63.5 -156.5l-22 -160
q-17 -115 26.5 -182.5t136.5 -67.5z" />
    <glyph glyph-name="p" unicode="p" horiz-adv-x="1234" 
d="M324 -348h-330l223 1407h297l-8 -121q42 66 118 106.5t175 40.5q188 0 289 -151t61 -404l-14 -104q-34 -213 -149 -333t-292 -120q-100 0 -178.5 43t-118.5 111zM610 219q87 0 135.5 53t63.5 162l22 150q17 122 -26.5 190t-142.5 68q-171 0 -201 -217l-21 -150
q-19 -122 26.5 -189t143.5 -67z" />
    <glyph glyph-name="q" unicode="q" horiz-adv-x="1234" 
d="M963 -348h-326l70 440q-100 -119 -271 -119q-186 0 -286.5 154.5t-63.5 413.5l14 86q31 215 148.5 336.5t296.5 121.5q111 0 193 -51t116 -131l37 156h295zM575 217q170 0 197 217l23 150q17 122 -28.5 190t-141.5 68q-87 0 -135.5 -53.5t-65.5 -163.5l-21 -150
q-17 -120 28.5 -189t143.5 -69z" />
    <glyph glyph-name="r" unicode="r" horiz-adv-x="847" 
d="M377 0h-328l168 1059h311l-20 -174q100 192 307 192q28 0 55 -6l-51 -311q-35 6 -80 6q-125 0 -192.5 -56.5t-87.5 -177.5z" />
    <glyph glyph-name="s" unicode="s" horiz-adv-x="1056" 
d="M485 -27q-211 0 -327.5 96.5t-112.5 266.5h305q0 -68 39 -103.5t105 -35.5q122 0 137 86q9 57 -24 89t-132 58q-189 46 -270 137t-58 238q21 127 130 203.5t298 76.5q198 0 314 -91.5t110 -250.5h-301q1 60 -32 90.5t-95 30.5q-110 0 -122 -76q-8 -53 23.5 -82.5
t131.5 -56.5q200 -52 279 -143.5t57 -241.5q-22 -140 -140.5 -215.5t-314.5 -75.5z" />
    <glyph glyph-name="t" unicode="t" horiz-adv-x="839" 
d="M502 -27q-186 0 -273 98.5t-57 286.5l76 465h-170l37 236h170l53 338h328l-54 -338h230l-39 -236h-230l-73 -465q-22 -135 112 -135q55 0 103 21l-37 -244q-73 -27 -176 -27z" />
    <glyph glyph-name="u" unicode="u" horiz-adv-x="1198" 
d="M403 -27q-162 0 -247.5 115t-53.5 309l105 662h328l-101 -645q-14 -85 17 -133t100 -48q137 0 166 183l102 643h330l-168 -1059h-301l14 129q-45 -70 -119 -113t-172 -43z" />
    <glyph glyph-name="v" unicode="v" horiz-adv-x="1079" 
d="M637 0h-361l-174 1059h326l80 -744l313 744h324z" />
    <glyph glyph-name="w" unicode="w" horiz-adv-x="1570" 
d="M549 0h-336l-111 1059h312l37 -701l262 701h307l39 -715l266 715h311l-446 -1059h-334l-43 694z" />
    <glyph glyph-name="x" unicode="x" horiz-adv-x="1091" 
d="M291 0h-357l437 549l-252 510h342l119 -279l206 279h351l-412 -524l264 -535h-336l-135 303z" />
    <glyph glyph-name="y" unicode="y" horiz-adv-x="1083" 
d="M449 -348h-330l178 354l-195 1053h326l82 -697l311 697h328z" />
    <glyph glyph-name="z" unicode="z" horiz-adv-x="1009" 
d="M848 0h-846l37 223l545 588h-424l41 248h796l-34 -217l-541 -592h465z" />
    <glyph glyph-name="braceleft" unicode="{" 
d="M1176 0h-1055l241 1516h1055zM651 1249l-157 -983h395l155 983h-393z" />
    <glyph glyph-name="bar" unicode="|" 
d="M1176 0h-1055l241 1516h1055zM651 1249l-157 -983h395l155 983h-393z" />
    <glyph glyph-name="braceright" unicode="}" 
d="M1176 0h-1055l241 1516h1055zM651 1249l-157 -983h395l155 983h-393z" />
    <glyph glyph-name="asciitilde" unicode="~" 
d="M1176 0h-1055l241 1516h1055zM651 1249l-157 -983h395l155 983h-393z" />
    <glyph glyph-name="uni00A0" unicode="&#xa0;" 
d="M1176 0h-1055l241 1516h1055zM651 1249l-157 -983h395l155 983h-393z" />
    <glyph glyph-name="exclamdown" unicode="&#xa1;" 
d="M1176 0h-1055l241 1516h1055zM651 1249l-157 -983h395l155 983h-393z" />
    <glyph glyph-name="cent" unicode="&#xa2;" 
d="M1176 0h-1055l241 1516h1055zM651 1249l-157 -983h395l155 983h-393z" />
    <glyph glyph-name="sterling" unicode="&#xa3;" 
d="M1176 0h-1055l241 1516h1055zM651 1249l-157 -983h395l155 983h-393z" />
    <glyph glyph-name="currency" unicode="&#xa4;" 
d="M1176 0h-1055l241 1516h1055zM651 1249l-157 -983h395l155 983h-393z" />
    <glyph glyph-name="yen" unicode="&#xa5;" 
d="M1176 0h-1055l241 1516h1055zM651 1249l-157 -983h395l155 983h-393z" />
    <glyph glyph-name="brokenbar" unicode="&#xa6;" 
d="M1176 0h-1055l241 1516h1055zM651 1249l-157 -983h395l155 983h-393z" />
    <glyph glyph-name="section" unicode="&#xa7;" 
d="M1176 0h-1055l241 1516h1055zM651 1249l-157 -983h395l155 983h-393z" />
    <glyph glyph-name="dieresis" unicode="&#xa8;" 
d="M1176 0h-1055l241 1516h1055zM651 1249l-157 -983h395l155 983h-393z" />
    <glyph glyph-name="copyright" unicode="&#xa9;" 
d="M1176 0h-1055l241 1516h1055zM651 1249l-157 -983h395l155 983h-393z" />
    <glyph glyph-name="ordfeminine" unicode="&#xaa;" 
d="M1176 0h-1055l241 1516h1055zM651 1249l-157 -983h395l155 983h-393z" />
    <glyph glyph-name="guillemotleft" unicode="&#xab;" 
d="M1176 0h-1055l241 1516h1055zM651 1249l-157 -983h395l155 983h-393z" />
    <glyph glyph-name="logicalnot" unicode="&#xac;" 
d="M1176 0h-1055l241 1516h1055zM651 1249l-157 -983h395l155 983h-393z" />
    <glyph glyph-name="uni00AD" unicode="&#xad;" 
d="M1176 0h-1055l241 1516h1055zM651 1249l-157 -983h395l155 983h-393z" />
    <glyph glyph-name="registered" unicode="&#xae;" 
d="M1176 0h-1055l241 1516h1055zM651 1249l-157 -983h395l155 983h-393z" />
    <glyph glyph-name="macron" unicode="&#xaf;" 
d="M1176 0h-1055l241 1516h1055zM651 1249l-157 -983h395l155 983h-393z" />
    <glyph glyph-name="degree" unicode="&#xb0;" 
d="M1176 0h-1055l241 1516h1055zM651 1249l-157 -983h395l155 983h-393z" />
    <glyph glyph-name="plusminus" unicode="&#xb1;" 
d="M1176 0h-1055l241 1516h1055zM651 1249l-157 -983h395l155 983h-393z" />
    <glyph glyph-name="uni00B2" unicode="&#xb2;" 
d="M1176 0h-1055l241 1516h1055zM651 1249l-157 -983h395l155 983h-393z" />
    <glyph glyph-name="uni00B3" unicode="&#xb3;" 
d="M1176 0h-1055l241 1516h1055zM651 1249l-157 -983h395l155 983h-393z" />
    <glyph glyph-name="acute" unicode="&#xb4;" 
d="M1176 0h-1055l241 1516h1055zM651 1249l-157 -983h395l155 983h-393z" />
    <glyph glyph-name="uni00B5" unicode="&#xb5;" 
d="M1176 0h-1055l241 1516h1055zM651 1249l-157 -983h395l155 983h-393z" />
    <glyph glyph-name="paragraph" unicode="&#xb6;" 
d="M1176 0h-1055l241 1516h1055zM651 1249l-157 -983h395l155 983h-393z" />
    <glyph glyph-name="periodcentered" unicode="&#xb7;" 
d="M1176 0h-1055l241 1516h1055zM651 1249l-157 -983h395l155 983h-393z" />
    <glyph glyph-name="cedilla" unicode="&#xb8;" 
d="M1176 0h-1055l241 1516h1055zM651 1249l-157 -983h395l155 983h-393z" />
    <glyph glyph-name="uni00B9" unicode="&#xb9;" 
d="M1176 0h-1055l241 1516h1055zM651 1249l-157 -983h395l155 983h-393z" />
    <glyph glyph-name="ordmasculine" unicode="&#xba;" 
d="M1176 0h-1055l241 1516h1055zM651 1249l-157 -983h395l155 983h-393z" />
    <glyph glyph-name="guillemotright" unicode="&#xbb;" 
d="M1176 0h-1055l241 1516h1055zM651 1249l-157 -983h395l155 983h-393z" />
    <glyph glyph-name="onequarter" unicode="&#xbc;" 
d="M1176 0h-1055l241 1516h1055zM651 1249l-157 -983h395l155 983h-393z" />
    <glyph glyph-name="onehalf" unicode="&#xbd;" 
d="M1176 0h-1055l241 1516h1055zM651 1249l-157 -983h395l155 983h-393z" />
    <glyph glyph-name="threequarters" unicode="&#xbe;" 
d="M1176 0h-1055l241 1516h1055zM651 1249l-157 -983h395l155 983h-393z" />
    <glyph glyph-name="questiondown" unicode="&#xbf;" 
d="M1176 0h-1055l241 1516h1055zM651 1249l-157 -983h395l155 983h-393z" />
    <glyph glyph-name="Agrave" unicode="&#xc0;" 
d="M1176 0h-1055l241 1516h1055zM651 1249l-157 -983h395l155 983h-393z" />
    <glyph glyph-name="Aacute" unicode="&#xc1;" 
d="M1176 0h-1055l241 1516h1055zM651 1249l-157 -983h395l155 983h-393z" />
    <glyph glyph-name="Acircumflex" unicode="&#xc2;" 
d="M1176 0h-1055l241 1516h1055zM651 1249l-157 -983h395l155 983h-393z" />
    <glyph glyph-name="Atilde" unicode="&#xc3;" 
d="M1176 0h-1055l241 1516h1055zM651 1249l-157 -983h395l155 983h-393z" />
    <glyph glyph-name="Adieresis" unicode="&#xc4;" 
d="M1176 0h-1055l241 1516h1055zM651 1249l-157 -983h395l155 983h-393z" />
    <glyph glyph-name="Aring" unicode="&#xc5;" 
d="M1176 0h-1055l241 1516h1055zM651 1249l-157 -983h395l155 983h-393z" />
    <glyph glyph-name="AE" unicode="&#xc6;" 
d="M1176 0h-1055l241 1516h1055zM651 1249l-157 -983h395l155 983h-393z" />
    <glyph glyph-name="Ccedilla" unicode="&#xc7;" 
d="M1176 0h-1055l241 1516h1055zM651 1249l-157 -983h395l155 983h-393z" />
    <glyph glyph-name="Egrave" unicode="&#xc8;" 
d="M1176 0h-1055l241 1516h1055zM651 1249l-157 -983h395l155 983h-393z" />
    <glyph glyph-name="Eacute" unicode="&#xc9;" 
d="M1176 0h-1055l241 1516h1055zM651 1249l-157 -983h395l155 983h-393z" />
    <glyph glyph-name="Ecircumflex" unicode="&#xca;" 
d="M1176 0h-1055l241 1516h1055zM651 1249l-157 -983h395l155 983h-393z" />
    <glyph glyph-name="Edieresis" unicode="&#xcb;" 
d="M1176 0h-1055l241 1516h1055zM651 1249l-157 -983h395l155 983h-393z" />
    <glyph glyph-name="Igrave" unicode="&#xcc;" 
d="M1176 0h-1055l241 1516h1055zM651 1249l-157 -983h395l155 983h-393z" />
    <glyph glyph-name="Iacute" unicode="&#xcd;" 
d="M1176 0h-1055l241 1516h1055zM651 1249l-157 -983h395l155 983h-393z" />
    <glyph glyph-name="Icircumflex" unicode="&#xce;" 
d="M1176 0h-1055l241 1516h1055zM651 1249l-157 -983h395l155 983h-393z" />
    <glyph glyph-name="Idieresis" unicode="&#xcf;" 
d="M1176 0h-1055l241 1516h1055zM651 1249l-157 -983h395l155 983h-393z" />
    <glyph glyph-name="Eth" unicode="&#xd0;" 
d="M1176 0h-1055l241 1516h1055zM651 1249l-157 -983h395l155 983h-393z" />
    <glyph glyph-name="Ntilde" unicode="&#xd1;" 
d="M1176 0h-1055l241 1516h1055zM651 1249l-157 -983h395l155 983h-393z" />
    <glyph glyph-name="Ograve" unicode="&#xd2;" 
d="M1176 0h-1055l241 1516h1055zM651 1249l-157 -983h395l155 983h-393z" />
    <glyph glyph-name="Oacute" unicode="&#xd3;" 
d="M1176 0h-1055l241 1516h1055zM651 1249l-157 -983h395l155 983h-393z" />
    <glyph glyph-name="Ocircumflex" unicode="&#xd4;" 
d="M1176 0h-1055l241 1516h1055zM651 1249l-157 -983h395l155 983h-393z" />
    <glyph glyph-name="Otilde" unicode="&#xd5;" 
d="M1176 0h-1055l241 1516h1055zM651 1249l-157 -983h395l155 983h-393z" />
    <glyph glyph-name="Odieresis" unicode="&#xd6;" 
d="M1176 0h-1055l241 1516h1055zM651 1249l-157 -983h395l155 983h-393z" />
    <glyph glyph-name="multiply" unicode="&#xd7;" 
d="M1176 0h-1055l241 1516h1055zM651 1249l-157 -983h395l155 983h-393z" />
    <glyph glyph-name="Oslash" unicode="&#xd8;" 
d="M1176 0h-1055l241 1516h1055zM651 1249l-157 -983h395l155 983h-393z" />
    <glyph glyph-name="Ugrave" unicode="&#xd9;" 
d="M1176 0h-1055l241 1516h1055zM651 1249l-157 -983h395l155 983h-393z" />
    <glyph glyph-name="Uacute" unicode="&#xda;" 
d="M1176 0h-1055l241 1516h1055zM651 1249l-157 -983h395l155 983h-393z" />
    <glyph glyph-name="Ucircumflex" unicode="&#xdb;" 
d="M1176 0h-1055l241 1516h1055zM651 1249l-157 -983h395l155 983h-393z" />
    <glyph glyph-name="Udieresis" unicode="&#xdc;" 
d="M1176 0h-1055l241 1516h1055zM651 1249l-157 -983h395l155 983h-393z" />
    <glyph glyph-name="Yacute" unicode="&#xdd;" 
d="M1176 0h-1055l241 1516h1055zM651 1249l-157 -983h395l155 983h-393z" />
    <glyph glyph-name="Thorn" unicode="&#xde;" 
d="M1176 0h-1055l241 1516h1055zM651 1249l-157 -983h395l155 983h-393z" />
    <glyph glyph-name="germandbls" unicode="&#xdf;" 
d="M1176 0h-1055l241 1516h1055zM651 1249l-157 -983h395l155 983h-393z" />
    <glyph glyph-name="agrave" unicode="&#xe0;" 
d="M1176 0h-1055l241 1516h1055zM651 1249l-157 -983h395l155 983h-393z" />
    <glyph glyph-name="aacute" unicode="&#xe1;" 
d="M1176 0h-1055l241 1516h1055zM651 1249l-157 -983h395l155 983h-393z" />
    <glyph glyph-name="acircumflex" unicode="&#xe2;" 
d="M1176 0h-1055l241 1516h1055zM651 1249l-157 -983h395l155 983h-393z" />
    <glyph glyph-name="atilde" unicode="&#xe3;" 
d="M1176 0h-1055l241 1516h1055zM651 1249l-157 -983h395l155 983h-393z" />
    <glyph glyph-name="adieresis" unicode="&#xe4;" 
d="M1176 0h-1055l241 1516h1055zM651 1249l-157 -983h395l155 983h-393z" />
    <glyph glyph-name="aring" unicode="&#xe5;" 
d="M1176 0h-1055l241 1516h1055zM651 1249l-157 -983h395l155 983h-393z" />
    <glyph glyph-name="ae" unicode="&#xe6;" 
d="M1176 0h-1055l241 1516h1055zM651 1249l-157 -983h395l155 983h-393z" />
    <glyph glyph-name="ccedilla" unicode="&#xe7;" 
d="M1176 0h-1055l241 1516h1055zM651 1249l-157 -983h395l155 983h-393z" />
    <glyph glyph-name="egrave" unicode="&#xe8;" 
d="M1176 0h-1055l241 1516h1055zM651 1249l-157 -983h395l155 983h-393z" />
    <glyph glyph-name="eacute" unicode="&#xe9;" 
d="M1176 0h-1055l241 1516h1055zM651 1249l-157 -983h395l155 983h-393z" />
    <glyph glyph-name="ecircumflex" unicode="&#xea;" 
d="M1176 0h-1055l241 1516h1055zM651 1249l-157 -983h395l155 983h-393z" />
    <glyph glyph-name="edieresis" unicode="&#xeb;" 
d="M1176 0h-1055l241 1516h1055zM651 1249l-157 -983h395l155 983h-393z" />
    <glyph glyph-name="igrave" unicode="&#xec;" 
d="M1176 0h-1055l241 1516h1055zM651 1249l-157 -983h395l155 983h-393z" />
    <glyph glyph-name="iacute" unicode="&#xed;" 
d="M1176 0h-1055l241 1516h1055zM651 1249l-157 -983h395l155 983h-393z" />
    <glyph glyph-name="icircumflex" unicode="&#xee;" 
d="M1176 0h-1055l241 1516h1055zM651 1249l-157 -983h395l155 983h-393z" />
    <glyph glyph-name="idieresis" unicode="&#xef;" 
d="M1176 0h-1055l241 1516h1055zM651 1249l-157 -983h395l155 983h-393z" />
    <glyph glyph-name="eth" unicode="&#xf0;" 
d="M1176 0h-1055l241 1516h1055zM651 1249l-157 -983h395l155 983h-393z" />
    <glyph glyph-name="ntilde" unicode="&#xf1;" 
d="M1176 0h-1055l241 1516h1055zM651 1249l-157 -983h395l155 983h-393z" />
    <glyph glyph-name="ograve" unicode="&#xf2;" 
d="M1176 0h-1055l241 1516h1055zM651 1249l-157 -983h395l155 983h-393z" />
    <glyph glyph-name="oacute" unicode="&#xf3;" 
d="M1176 0h-1055l241 1516h1055zM651 1249l-157 -983h395l155 983h-393z" />
    <glyph glyph-name="ocircumflex" unicode="&#xf4;" 
d="M1176 0h-1055l241 1516h1055zM651 1249l-157 -983h395l155 983h-393z" />
    <glyph glyph-name="otilde" unicode="&#xf5;" 
d="M1176 0h-1055l241 1516h1055zM651 1249l-157 -983h395l155 983h-393z" />
    <glyph glyph-name="odieresis" unicode="&#xf6;" 
d="M1176 0h-1055l241 1516h1055zM651 1249l-157 -983h395l155 983h-393z" />
    <glyph glyph-name="divide" unicode="&#xf7;" 
d="M1176 0h-1055l241 1516h1055zM651 1249l-157 -983h395l155 983h-393z" />
    <glyph glyph-name="oslash" unicode="&#xf8;" 
d="M1176 0h-1055l241 1516h1055zM651 1249l-157 -983h395l155 983h-393z" />
    <glyph glyph-name="ugrave" unicode="&#xf9;" 
d="M1176 0h-1055l241 1516h1055zM651 1249l-157 -983h395l155 983h-393z" />
    <glyph glyph-name="uacute" unicode="&#xfa;" 
d="M1176 0h-1055l241 1516h1055zM651 1249l-157 -983h395l155 983h-393z" />
    <glyph glyph-name="ucircumflex" unicode="&#xfb;" 
d="M1176 0h-1055l241 1516h1055zM651 1249l-157 -983h395l155 983h-393z" />
    <glyph glyph-name="udieresis" unicode="&#xfc;" 
d="M1176 0h-1055l241 1516h1055zM651 1249l-157 -983h395l155 983h-393z" />
    <glyph glyph-name="yacute" unicode="&#xfd;" 
d="M1176 0h-1055l241 1516h1055zM651 1249l-157 -983h395l155 983h-393z" />
    <glyph glyph-name="thorn" unicode="&#xfe;" 
d="M1176 0h-1055l241 1516h1055zM651 1249l-157 -983h395l155 983h-393z" />
    <glyph glyph-name="ydieresis" unicode="&#xff;" 
d="M1176 0h-1055l241 1516h1055zM651 1249l-157 -983h395l155 983h-393z" />
    <glyph glyph-name="Amacron" unicode="&#x100;" 
d="M1176 0h-1055l241 1516h1055zM651 1249l-157 -983h395l155 983h-393z" />
    <glyph glyph-name="amacron" unicode="&#x101;" 
d="M1176 0h-1055l241 1516h1055zM651 1249l-157 -983h395l155 983h-393z" />
    <glyph glyph-name="Abreve" unicode="&#x102;" 
d="M1176 0h-1055l241 1516h1055zM651 1249l-157 -983h395l155 983h-393z" />
    <glyph glyph-name="abreve" unicode="&#x103;" 
d="M1176 0h-1055l241 1516h1055zM651 1249l-157 -983h395l155 983h-393z" />
    <glyph glyph-name="Aogonek" unicode="&#x104;" 
d="M1176 0h-1055l241 1516h1055zM651 1249l-157 -983h395l155 983h-393z" />
    <glyph glyph-name="aogonek" unicode="&#x105;" 
d="M1176 0h-1055l241 1516h1055zM651 1249l-157 -983h395l155 983h-393z" />
    <glyph glyph-name="Cacute" unicode="&#x106;" 
d="M1176 0h-1055l241 1516h1055zM651 1249l-157 -983h395l155 983h-393z" />
    <glyph glyph-name="cacute" unicode="&#x107;" 
d="M1176 0h-1055l241 1516h1055zM651 1249l-157 -983h395l155 983h-393z" />
    <glyph glyph-name="Ccircumflex" unicode="&#x108;" 
d="M1176 0h-1055l241 1516h1055zM651 1249l-157 -983h395l155 983h-393z" />
    <glyph glyph-name="ccircumflex" unicode="&#x109;" 
d="M1176 0h-1055l241 1516h1055zM651 1249l-157 -983h395l155 983h-393z" />
    <glyph glyph-name="Cdotaccent" unicode="&#x10a;" 
d="M1176 0h-1055l241 1516h1055zM651 1249l-157 -983h395l155 983h-393z" />
    <glyph glyph-name="cdotaccent" unicode="&#x10b;" 
d="M1176 0h-1055l241 1516h1055zM651 1249l-157 -983h395l155 983h-393z" />
    <glyph glyph-name="Ccaron" unicode="&#x10c;" 
d="M1176 0h-1055l241 1516h1055zM651 1249l-157 -983h395l155 983h-393z" />
    <glyph glyph-name="ccaron" unicode="&#x10d;" 
d="M1176 0h-1055l241 1516h1055zM651 1249l-157 -983h395l155 983h-393z" />
    <glyph glyph-name="Dcaron" unicode="&#x10e;" 
d="M1176 0h-1055l241 1516h1055zM651 1249l-157 -983h395l155 983h-393z" />
    <glyph glyph-name="dcaron" unicode="&#x10f;" 
d="M1176 0h-1055l241 1516h1055zM651 1249l-157 -983h395l155 983h-393z" />
    <glyph glyph-name="Dcroat" unicode="&#x110;" 
d="M1176 0h-1055l241 1516h1055zM651 1249l-157 -983h395l155 983h-393z" />
    <glyph glyph-name="dcroat" unicode="&#x111;" 
d="M1176 0h-1055l241 1516h1055zM651 1249l-157 -983h395l155 983h-393z" />
    <glyph glyph-name="Emacron" unicode="&#x112;" 
d="M1176 0h-1055l241 1516h1055zM651 1249l-157 -983h395l155 983h-393z" />
    <glyph glyph-name="emacron" unicode="&#x113;" 
d="M1176 0h-1055l241 1516h1055zM651 1249l-157 -983h395l155 983h-393z" />
    <glyph glyph-name="Ebreve" unicode="&#x114;" 
d="M1176 0h-1055l241 1516h1055zM651 1249l-157 -983h395l155 983h-393z" />
    <glyph glyph-name="ebreve" unicode="&#x115;" 
d="M1176 0h-1055l241 1516h1055zM651 1249l-157 -983h395l155 983h-393z" />
    <glyph glyph-name="Edotaccent" unicode="&#x116;" 
d="M1176 0h-1055l241 1516h1055zM651 1249l-157 -983h395l155 983h-393z" />
    <glyph glyph-name="edotaccent" unicode="&#x117;" 
d="M1176 0h-1055l241 1516h1055zM651 1249l-157 -983h395l155 983h-393z" />
    <glyph glyph-name="Eogonek" unicode="&#x118;" 
d="M1176 0h-1055l241 1516h1055zM651 1249l-157 -983h395l155 983h-393z" />
    <glyph glyph-name="eogonek" unicode="&#x119;" 
d="M1176 0h-1055l241 1516h1055zM651 1249l-157 -983h395l155 983h-393z" />
    <glyph glyph-name="Ecaron" unicode="&#x11a;" 
d="M1176 0h-1055l241 1516h1055zM651 1249l-157 -983h395l155 983h-393z" />
    <glyph glyph-name="ecaron" unicode="&#x11b;" 
d="M1176 0h-1055l241 1516h1055zM651 1249l-157 -983h395l155 983h-393z" />
    <glyph glyph-name="Gcircumflex" unicode="&#x11c;" 
d="M1176 0h-1055l241 1516h1055zM651 1249l-157 -983h395l155 983h-393z" />
    <glyph glyph-name="gcircumflex" unicode="&#x11d;" 
d="M1176 0h-1055l241 1516h1055zM651 1249l-157 -983h395l155 983h-393z" />
    <glyph glyph-name="Gbreve" unicode="&#x11e;" 
d="M1176 0h-1055l241 1516h1055zM651 1249l-157 -983h395l155 983h-393z" />
    <glyph glyph-name="gbreve" unicode="&#x11f;" 
d="M1176 0h-1055l241 1516h1055zM651 1249l-157 -983h395l155 983h-393z" />
    <glyph glyph-name="Gdotaccent" unicode="&#x120;" 
d="M1176 0h-1055l241 1516h1055zM651 1249l-157 -983h395l155 983h-393z" />
    <glyph glyph-name="gdotaccent" unicode="&#x121;" 
d="M1176 0h-1055l241 1516h1055zM651 1249l-157 -983h395l155 983h-393z" />
    <glyph glyph-name="uni0122" unicode="&#x122;" 
d="M1176 0h-1055l241 1516h1055zM651 1249l-157 -983h395l155 983h-393z" />
    <glyph glyph-name="uni0123" unicode="&#x123;" 
d="M1176 0h-1055l241 1516h1055zM651 1249l-157 -983h395l155 983h-393z" />
    <glyph glyph-name="Hcircumflex" unicode="&#x124;" 
d="M1176 0h-1055l241 1516h1055zM651 1249l-157 -983h395l155 983h-393z" />
    <glyph glyph-name="hcircumflex" unicode="&#x125;" 
d="M1176 0h-1055l241 1516h1055zM651 1249l-157 -983h395l155 983h-393z" />
    <glyph glyph-name="Hbar" unicode="&#x126;" 
d="M1176 0h-1055l241 1516h1055zM651 1249l-157 -983h395l155 983h-393z" />
    <glyph glyph-name="hbar" unicode="&#x127;" 
d="M1176 0h-1055l241 1516h1055zM651 1249l-157 -983h395l155 983h-393z" />
    <glyph glyph-name="Itilde" unicode="&#x128;" 
d="M1176 0h-1055l241 1516h1055zM651 1249l-157 -983h395l155 983h-393z" />
    <glyph glyph-name="itilde" unicode="&#x129;" 
d="M1176 0h-1055l241 1516h1055zM651 1249l-157 -983h395l155 983h-393z" />
    <glyph glyph-name="Imacron" unicode="&#x12a;" 
d="M1176 0h-1055l241 1516h1055zM651 1249l-157 -983h395l155 983h-393z" />
    <glyph glyph-name="imacron" unicode="&#x12b;" 
d="M1176 0h-1055l241 1516h1055zM651 1249l-157 -983h395l155 983h-393z" />
    <glyph glyph-name="Ibreve" unicode="&#x12c;" 
d="M1176 0h-1055l241 1516h1055zM651 1249l-157 -983h395l155 983h-393z" />
    <glyph glyph-name="ibreve" unicode="&#x12d;" 
d="M1176 0h-1055l241 1516h1055zM651 1249l-157 -983h395l155 983h-393z" />
    <glyph glyph-name="Iogonek" unicode="&#x12e;" 
d="M1176 0h-1055l241 1516h1055zM651 1249l-157 -983h395l155 983h-393z" />
    <glyph glyph-name="iogonek" unicode="&#x12f;" 
d="M1176 0h-1055l241 1516h1055zM651 1249l-157 -983h395l155 983h-393z" />
    <glyph glyph-name="Idotaccent" unicode="&#x130;" 
d="M1176 0h-1055l241 1516h1055zM651 1249l-157 -983h395l155 983h-393z" />
    <glyph glyph-name="dotlessi" unicode="&#x131;" 
d="M1176 0h-1055l241 1516h1055zM651 1249l-157 -983h395l155 983h-393z" />
    <glyph glyph-name="IJ" unicode="&#x132;" 
d="M1176 0h-1055l241 1516h1055zM651 1249l-157 -983h395l155 983h-393z" />
    <glyph glyph-name="ij" unicode="&#x133;" 
d="M1176 0h-1055l241 1516h1055zM651 1249l-157 -983h395l155 983h-393z" />
    <glyph glyph-name="Jcircumflex" unicode="&#x134;" 
d="M1176 0h-1055l241 1516h1055zM651 1249l-157 -983h395l155 983h-393z" />
    <glyph glyph-name="jcircumflex" unicode="&#x135;" 
d="M1176 0h-1055l241 1516h1055zM651 1249l-157 -983h395l155 983h-393z" />
    <glyph glyph-name="uni0136" unicode="&#x136;" 
d="M1176 0h-1055l241 1516h1055zM651 1249l-157 -983h395l155 983h-393z" />
    <glyph glyph-name="uni0137" unicode="&#x137;" 
d="M1176 0h-1055l241 1516h1055zM651 1249l-157 -983h395l155 983h-393z" />
    <glyph glyph-name="Lacute" unicode="&#x139;" 
d="M1176 0h-1055l241 1516h1055zM651 1249l-157 -983h395l155 983h-393z" />
    <glyph glyph-name="lacute" unicode="&#x13a;" 
d="M1176 0h-1055l241 1516h1055zM651 1249l-157 -983h395l155 983h-393z" />
    <glyph glyph-name="uni013B" unicode="&#x13b;" 
d="M1176 0h-1055l241 1516h1055zM651 1249l-157 -983h395l155 983h-393z" />
    <glyph glyph-name="uni013C" unicode="&#x13c;" 
d="M1176 0h-1055l241 1516h1055zM651 1249l-157 -983h395l155 983h-393z" />
    <glyph glyph-name="Lcaron" unicode="&#x13d;" 
d="M1176 0h-1055l241 1516h1055zM651 1249l-157 -983h395l155 983h-393z" />
    <glyph glyph-name="lcaron" unicode="&#x13e;" 
d="M1176 0h-1055l241 1516h1055zM651 1249l-157 -983h395l155 983h-393z" />
    <glyph glyph-name="Ldot" unicode="&#x13f;" 
d="M1176 0h-1055l241 1516h1055zM651 1249l-157 -983h395l155 983h-393z" />
    <glyph glyph-name="ldot" unicode="&#x140;" 
d="M1176 0h-1055l241 1516h1055zM651 1249l-157 -983h395l155 983h-393z" />
    <glyph glyph-name="Lslash" unicode="&#x141;" 
d="M1176 0h-1055l241 1516h1055zM651 1249l-157 -983h395l155 983h-393z" />
    <glyph glyph-name="lslash" unicode="&#x142;" 
d="M1176 0h-1055l241 1516h1055zM651 1249l-157 -983h395l155 983h-393z" />
    <glyph glyph-name="Nacute" unicode="&#x143;" 
d="M1176 0h-1055l241 1516h1055zM651 1249l-157 -983h395l155 983h-393z" />
    <glyph glyph-name="nacute" unicode="&#x144;" 
d="M1176 0h-1055l241 1516h1055zM651 1249l-157 -983h395l155 983h-393z" />
    <glyph glyph-name="uni0145" unicode="&#x145;" 
d="M1176 0h-1055l241 1516h1055zM651 1249l-157 -983h395l155 983h-393z" />
    <glyph glyph-name="uni0146" unicode="&#x146;" 
d="M1176 0h-1055l241 1516h1055zM651 1249l-157 -983h395l155 983h-393z" />
    <glyph glyph-name="Ncaron" unicode="&#x147;" 
d="M1176 0h-1055l241 1516h1055zM651 1249l-157 -983h395l155 983h-393z" />
    <glyph glyph-name="ncaron" unicode="&#x148;" 
d="M1176 0h-1055l241 1516h1055zM651 1249l-157 -983h395l155 983h-393z" />
    <glyph glyph-name="Eng" unicode="&#x14a;" 
d="M1176 0h-1055l241 1516h1055zM651 1249l-157 -983h395l155 983h-393z" />
    <glyph glyph-name="eng" unicode="&#x14b;" 
d="M1176 0h-1055l241 1516h1055zM651 1249l-157 -983h395l155 983h-393z" />
    <glyph glyph-name="Omacron" unicode="&#x14c;" 
d="M1176 0h-1055l241 1516h1055zM651 1249l-157 -983h395l155 983h-393z" />
    <glyph glyph-name="omacron" unicode="&#x14d;" 
d="M1176 0h-1055l241 1516h1055zM651 1249l-157 -983h395l155 983h-393z" />
    <glyph glyph-name="Obreve" unicode="&#x14e;" 
d="M1176 0h-1055l241 1516h1055zM651 1249l-157 -983h395l155 983h-393z" />
    <glyph glyph-name="obreve" unicode="&#x14f;" 
d="M1176 0h-1055l241 1516h1055zM651 1249l-157 -983h395l155 983h-393z" />
    <glyph glyph-name="Ohungarumlaut" unicode="&#x150;" 
d="M1176 0h-1055l241 1516h1055zM651 1249l-157 -983h395l155 983h-393z" />
    <glyph glyph-name="ohungarumlaut" unicode="&#x151;" 
d="M1176 0h-1055l241 1516h1055zM651 1249l-157 -983h395l155 983h-393z" />
    <glyph glyph-name="OE" unicode="&#x152;" 
d="M1176 0h-1055l241 1516h1055zM651 1249l-157 -983h395l155 983h-393z" />
    <glyph glyph-name="oe" unicode="&#x153;" 
d="M1176 0h-1055l241 1516h1055zM651 1249l-157 -983h395l155 983h-393z" />
    <glyph glyph-name="Racute" unicode="&#x154;" 
d="M1176 0h-1055l241 1516h1055zM651 1249l-157 -983h395l155 983h-393z" />
    <glyph glyph-name="racute" unicode="&#x155;" 
d="M1176 0h-1055l241 1516h1055zM651 1249l-157 -983h395l155 983h-393z" />
    <glyph glyph-name="uni0156" unicode="&#x156;" 
d="M1176 0h-1055l241 1516h1055zM651 1249l-157 -983h395l155 983h-393z" />
    <glyph glyph-name="uni0157" unicode="&#x157;" 
d="M1176 0h-1055l241 1516h1055zM651 1249l-157 -983h395l155 983h-393z" />
    <glyph glyph-name="Rcaron" unicode="&#x158;" 
d="M1176 0h-1055l241 1516h1055zM651 1249l-157 -983h395l155 983h-393z" />
    <glyph glyph-name="rcaron" unicode="&#x159;" 
d="M1176 0h-1055l241 1516h1055zM651 1249l-157 -983h395l155 983h-393z" />
    <glyph glyph-name="Sacute" unicode="&#x15a;" 
d="M1176 0h-1055l241 1516h1055zM651 1249l-157 -983h395l155 983h-393z" />
    <glyph glyph-name="sacute" unicode="&#x15b;" 
d="M1176 0h-1055l241 1516h1055zM651 1249l-157 -983h395l155 983h-393z" />
    <glyph glyph-name="Scircumflex" unicode="&#x15c;" 
d="M1176 0h-1055l241 1516h1055zM651 1249l-157 -983h395l155 983h-393z" />
    <glyph glyph-name="scircumflex" unicode="&#x15d;" 
d="M1176 0h-1055l241 1516h1055zM651 1249l-157 -983h395l155 983h-393z" />
    <glyph glyph-name="Scedilla" unicode="&#x15e;" 
d="M1176 0h-1055l241 1516h1055zM651 1249l-157 -983h395l155 983h-393z" />
    <glyph glyph-name="scedilla" unicode="&#x15f;" 
d="M1176 0h-1055l241 1516h1055zM651 1249l-157 -983h395l155 983h-393z" />
    <glyph glyph-name="Scaron" unicode="&#x160;" 
d="M1176 0h-1055l241 1516h1055zM651 1249l-157 -983h395l155 983h-393z" />
    <glyph glyph-name="scaron" unicode="&#x161;" 
d="M1176 0h-1055l241 1516h1055zM651 1249l-157 -983h395l155 983h-393z" />
    <glyph glyph-name="uni0162" unicode="&#x162;" 
d="M1176 0h-1055l241 1516h1055zM651 1249l-157 -983h395l155 983h-393z" />
    <glyph glyph-name="uni0163" unicode="&#x163;" 
d="M1176 0h-1055l241 1516h1055zM651 1249l-157 -983h395l155 983h-393z" />
    <glyph glyph-name="Tcaron" unicode="&#x164;" 
d="M1176 0h-1055l241 1516h1055zM651 1249l-157 -983h395l155 983h-393z" />
    <glyph glyph-name="tcaron" unicode="&#x165;" 
d="M1176 0h-1055l241 1516h1055zM651 1249l-157 -983h395l155 983h-393z" />
    <glyph glyph-name="Tbar" unicode="&#x166;" 
d="M1176 0h-1055l241 1516h1055zM651 1249l-157 -983h395l155 983h-393z" />
    <glyph glyph-name="tbar" unicode="&#x167;" 
d="M1176 0h-1055l241 1516h1055zM651 1249l-157 -983h395l155 983h-393z" />
    <glyph glyph-name="Utilde" unicode="&#x168;" 
d="M1176 0h-1055l241 1516h1055zM651 1249l-157 -983h395l155 983h-393z" />
    <glyph glyph-name="utilde" unicode="&#x169;" 
d="M1176 0h-1055l241 1516h1055zM651 1249l-157 -983h395l155 983h-393z" />
    <glyph glyph-name="Umacron" unicode="&#x16a;" 
d="M1176 0h-1055l241 1516h1055zM651 1249l-157 -983h395l155 983h-393z" />
    <glyph glyph-name="umacron" unicode="&#x16b;" 
d="M1176 0h-1055l241 1516h1055zM651 1249l-157 -983h395l155 983h-393z" />
    <glyph glyph-name="Ubreve" unicode="&#x16c;" 
d="M1176 0h-1055l241 1516h1055zM651 1249l-157 -983h395l155 983h-393z" />
    <glyph glyph-name="ubreve" unicode="&#x16d;" 
d="M1176 0h-1055l241 1516h1055zM651 1249l-157 -983h395l155 983h-393z" />
    <glyph glyph-name="Uring" unicode="&#x16e;" 
d="M1176 0h-1055l241 1516h1055zM651 1249l-157 -983h395l155 983h-393z" />
    <glyph glyph-name="uring" unicode="&#x16f;" 
d="M1176 0h-1055l241 1516h1055zM651 1249l-157 -983h395l155 983h-393z" />
    <glyph glyph-name="Uhungarumlaut" unicode="&#x170;" 
d="M1176 0h-1055l241 1516h1055zM651 1249l-157 -983h395l155 983h-393z" />
    <glyph glyph-name="uhungarumlaut" unicode="&#x171;" 
d="M1176 0h-1055l241 1516h1055zM651 1249l-157 -983h395l155 983h-393z" />
    <glyph glyph-name="Uogonek" unicode="&#x172;" 
d="M1176 0h-1055l241 1516h1055zM651 1249l-157 -983h395l155 983h-393z" />
    <glyph glyph-name="uogonek" unicode="&#x173;" 
d="M1176 0h-1055l241 1516h1055zM651 1249l-157 -983h395l155 983h-393z" />
    <glyph glyph-name="Wcircumflex" unicode="&#x174;" 
d="M1176 0h-1055l241 1516h1055zM651 1249l-157 -983h395l155 983h-393z" />
    <glyph glyph-name="wcircumflex" unicode="&#x175;" 
d="M1176 0h-1055l241 1516h1055zM651 1249l-157 -983h395l155 983h-393z" />
    <glyph glyph-name="Ycircumflex" unicode="&#x176;" 
d="M1176 0h-1055l241 1516h1055zM651 1249l-157 -983h395l155 983h-393z" />
    <glyph glyph-name="ycircumflex" unicode="&#x177;" 
d="M1176 0h-1055l241 1516h1055zM651 1249l-157 -983h395l155 983h-393z" />
    <glyph glyph-name="Ydieresis" unicode="&#x178;" 
d="M1176 0h-1055l241 1516h1055zM651 1249l-157 -983h395l155 983h-393z" />
    <glyph glyph-name="Zacute" unicode="&#x179;" 
d="M1176 0h-1055l241 1516h1055zM651 1249l-157 -983h395l155 983h-393z" />
    <glyph glyph-name="zacute" unicode="&#x17a;" 
d="M1176 0h-1055l241 1516h1055zM651 1249l-157 -983h395l155 983h-393z" />
    <glyph glyph-name="Zdotaccent" unicode="&#x17b;" 
d="M1176 0h-1055l241 1516h1055zM651 1249l-157 -983h395l155 983h-393z" />
    <glyph glyph-name="zdotaccent" unicode="&#x17c;" 
d="M1176 0h-1055l241 1516h1055zM651 1249l-157 -983h395l155 983h-393z" />
    <glyph glyph-name="Zcaron" unicode="&#x17d;" 
d="M1176 0h-1055l241 1516h1055zM651 1249l-157 -983h395l155 983h-393z" />
    <glyph glyph-name="zcaron" unicode="&#x17e;" 
d="M1176 0h-1055l241 1516h1055zM651 1249l-157 -983h395l155 983h-393z" />
    <glyph glyph-name="florin" unicode="&#x192;" 
d="M1176 0h-1055l241 1516h1055zM651 1249l-157 -983h395l155 983h-393z" />
    <glyph glyph-name="uni01EA" unicode="&#x1ea;" 
d="M1176 0h-1055l241 1516h1055zM651 1249l-157 -983h395l155 983h-393z" />
    <glyph glyph-name="uni01EB" unicode="&#x1eb;" 
d="M1176 0h-1055l241 1516h1055zM651 1249l-157 -983h395l155 983h-393z" />
    <glyph glyph-name="Aringacute" unicode="&#x1fa;" 
d="M1176 0h-1055l241 1516h1055zM651 1249l-157 -983h395l155 983h-393z" />
    <glyph glyph-name="aringacute" unicode="&#x1fb;" 
d="M1176 0h-1055l241 1516h1055zM651 1249l-157 -983h395l155 983h-393z" />
    <glyph glyph-name="AEacute" unicode="&#x1fc;" 
d="M1176 0h-1055l241 1516h1055zM651 1249l-157 -983h395l155 983h-393z" />
    <glyph glyph-name="aeacute" unicode="&#x1fd;" 
d="M1176 0h-1055l241 1516h1055zM651 1249l-157 -983h395l155 983h-393z" />
    <glyph glyph-name="Oslashacute" unicode="&#x1fe;" 
d="M1176 0h-1055l241 1516h1055zM651 1249l-157 -983h395l155 983h-393z" />
    <glyph glyph-name="oslashacute" unicode="&#x1ff;" 
d="M1176 0h-1055l241 1516h1055zM651 1249l-157 -983h395l155 983h-393z" />
    <glyph glyph-name="uni0218" unicode="&#x218;" 
d="M1176 0h-1055l241 1516h1055zM651 1249l-157 -983h395l155 983h-393z" />
    <glyph glyph-name="uni0219" unicode="&#x219;" 
d="M1176 0h-1055l241 1516h1055zM651 1249l-157 -983h395l155 983h-393z" />
    <glyph glyph-name="uni021A" unicode="&#x21a;" 
d="M1176 0h-1055l241 1516h1055zM651 1249l-157 -983h395l155 983h-393z" />
    <glyph glyph-name="uni021B" unicode="&#x21b;" 
d="M1176 0h-1055l241 1516h1055zM651 1249l-157 -983h395l155 983h-393z" />
    <glyph glyph-name="uni0237" unicode="&#x237;" 
d="M1176 0h-1055l241 1516h1055zM651 1249l-157 -983h395l155 983h-393z" />
    <glyph glyph-name="circumflex" unicode="&#x2c6;" 
d="M1176 0h-1055l241 1516h1055zM651 1249l-157 -983h395l155 983h-393z" />
    <glyph glyph-name="caron" unicode="&#x2c7;" 
d="M1176 0h-1055l241 1516h1055zM651 1249l-157 -983h395l155 983h-393z" />
    <glyph glyph-name="breve" unicode="&#x2d8;" 
d="M1176 0h-1055l241 1516h1055zM651 1249l-157 -983h395l155 983h-393z" />
    <glyph glyph-name="dotaccent" unicode="&#x2d9;" 
d="M1176 0h-1055l241 1516h1055zM651 1249l-157 -983h395l155 983h-393z" />
    <glyph glyph-name="ring" unicode="&#x2da;" 
d="M1176 0h-1055l241 1516h1055zM651 1249l-157 -983h395l155 983h-393z" />
    <glyph glyph-name="ogonek" unicode="&#x2db;" 
d="M1176 0h-1055l241 1516h1055zM651 1249l-157 -983h395l155 983h-393z" />
    <glyph glyph-name="tilde" unicode="&#x2dc;" 
d="M1176 0h-1055l241 1516h1055zM651 1249l-157 -983h395l155 983h-393z" />
    <glyph glyph-name="hungarumlaut" unicode="&#x2dd;" 
d="M1176 0h-1055l241 1516h1055zM651 1249l-157 -983h395l155 983h-393z" />
    <glyph glyph-name="gravecomb" unicode="&#x300;" 
d="M1176 0h-1055l241 1516h1055zM651 1249l-157 -983h395l155 983h-393z" />
    <glyph glyph-name="acutecomb" unicode="&#x301;" 
d="M1176 0h-1055l241 1516h1055zM651 1249l-157 -983h395l155 983h-393z" />
    <glyph glyph-name="uni0302" unicode="&#x302;" 
d="M1176 0h-1055l241 1516h1055zM651 1249l-157 -983h395l155 983h-393z" />
    <glyph glyph-name="tildecomb" unicode="&#x303;" 
d="M1176 0h-1055l241 1516h1055zM651 1249l-157 -983h395l155 983h-393z" />
    <glyph glyph-name="uni0304" unicode="&#x304;" 
d="M1176 0h-1055l241 1516h1055zM651 1249l-157 -983h395l155 983h-393z" />
    <glyph glyph-name="uni0306" unicode="&#x306;" 
d="M1176 0h-1055l241 1516h1055zM651 1249l-157 -983h395l155 983h-393z" />
    <glyph glyph-name="uni0307" unicode="&#x307;" 
d="M1176 0h-1055l241 1516h1055zM651 1249l-157 -983h395l155 983h-393z" />
    <glyph glyph-name="uni0308" unicode="&#x308;" 
d="M1176 0h-1055l241 1516h1055zM651 1249l-157 -983h395l155 983h-393z" />
    <glyph glyph-name="uni030A" unicode="&#x30a;" 
d="M1176 0h-1055l241 1516h1055zM651 1249l-157 -983h395l155 983h-393z" />
    <glyph glyph-name="uni030B" unicode="&#x30b;" 
d="M1176 0h-1055l241 1516h1055zM651 1249l-157 -983h395l155 983h-393z" />
    <glyph glyph-name="uni030C" unicode="&#x30c;" 
d="M1176 0h-1055l241 1516h1055zM651 1249l-157 -983h395l155 983h-393z" />
    <glyph glyph-name="uni0312" unicode="&#x312;" 
d="M1176 0h-1055l241 1516h1055zM651 1249l-157 -983h395l155 983h-393z" />
    <glyph glyph-name="uni0326" unicode="&#x326;" 
d="M1176 0h-1055l241 1516h1055zM651 1249l-157 -983h395l155 983h-393z" />
    <glyph glyph-name="uni0327" unicode="&#x327;" 
d="M1176 0h-1055l241 1516h1055zM651 1249l-157 -983h395l155 983h-393z" />
    <glyph glyph-name="uni0328" unicode="&#x328;" 
d="M1176 0h-1055l241 1516h1055zM651 1249l-157 -983h395l155 983h-393z" />
    <glyph glyph-name="uni0394" unicode="&#x394;" 
d="M1176 0h-1055l241 1516h1055zM651 1249l-157 -983h395l155 983h-393z" />
    <glyph glyph-name="uni03A9" unicode="&#x3a9;" 
d="M1176 0h-1055l241 1516h1055zM651 1249l-157 -983h395l155 983h-393z" />
    <glyph glyph-name="uni03BC" unicode="&#x3bc;" 
d="M1176 0h-1055l241 1516h1055zM651 1249l-157 -983h395l155 983h-393z" />
    <glyph glyph-name="pi" unicode="&#x3c0;" 
d="M1176 0h-1055l241 1516h1055zM651 1249l-157 -983h395l155 983h-393z" />
    <glyph glyph-name="Wgrave" unicode="&#x1e80;" 
d="M1176 0h-1055l241 1516h1055zM651 1249l-157 -983h395l155 983h-393z" />
    <glyph glyph-name="wgrave" unicode="&#x1e81;" 
d="M1176 0h-1055l241 1516h1055zM651 1249l-157 -983h395l155 983h-393z" />
    <glyph glyph-name="Wacute" unicode="&#x1e82;" 
d="M1176 0h-1055l241 1516h1055zM651 1249l-157 -983h395l155 983h-393z" />
    <glyph glyph-name="wacute" unicode="&#x1e83;" 
d="M1176 0h-1055l241 1516h1055zM651 1249l-157 -983h395l155 983h-393z" />
    <glyph glyph-name="Wdieresis" unicode="&#x1e84;" 
d="M1176 0h-1055l241 1516h1055zM651 1249l-157 -983h395l155 983h-393z" />
    <glyph glyph-name="wdieresis" unicode="&#x1e85;" 
d="M1176 0h-1055l241 1516h1055zM651 1249l-157 -983h395l155 983h-393z" />
    <glyph glyph-name="uni1E9E" unicode="&#x1e9e;" 
d="M1176 0h-1055l241 1516h1055zM651 1249l-157 -983h395l155 983h-393z" />
    <glyph glyph-name="Ygrave" unicode="&#x1ef2;" 
d="M1176 0h-1055l241 1516h1055zM651 1249l-157 -983h395l155 983h-393z" />
    <glyph glyph-name="ygrave" unicode="&#x1ef3;" 
d="M1176 0h-1055l241 1516h1055zM651 1249l-157 -983h395l155 983h-393z" />
    <glyph glyph-name="uni2009" unicode="&#x2009;" 
d="M1176 0h-1055l241 1516h1055zM651 1249l-157 -983h395l155 983h-393z" />
    <glyph glyph-name="endash" unicode="&#x2013;" 
d="M1176 0h-1055l241 1516h1055zM651 1249l-157 -983h395l155 983h-393z" />
    <glyph glyph-name="emdash" unicode="&#x2014;" 
d="M1176 0h-1055l241 1516h1055zM651 1249l-157 -983h395l155 983h-393z" />
    <glyph glyph-name="quoteleft" unicode="&#x2018;" 
d="M1176 0h-1055l241 1516h1055zM651 1249l-157 -983h395l155 983h-393z" />
    <glyph glyph-name="quoteright" unicode="&#x2019;" 
d="M1176 0h-1055l241 1516h1055zM651 1249l-157 -983h395l155 983h-393z" />
    <glyph glyph-name="quotesinglbase" unicode="&#x201a;" 
d="M1176 0h-1055l241 1516h1055zM651 1249l-157 -983h395l155 983h-393z" />
    <glyph glyph-name="quotedblleft" unicode="&#x201c;" 
d="M1176 0h-1055l241 1516h1055zM651 1249l-157 -983h395l155 983h-393z" />
    <glyph glyph-name="quotedblright" unicode="&#x201d;" 
d="M1176 0h-1055l241 1516h1055zM651 1249l-157 -983h395l155 983h-393z" />
    <glyph glyph-name="quotedblbase" unicode="&#x201e;" 
d="M1176 0h-1055l241 1516h1055zM651 1249l-157 -983h395l155 983h-393z" />
    <glyph glyph-name="dagger" unicode="&#x2020;" 
d="M1176 0h-1055l241 1516h1055zM651 1249l-157 -983h395l155 983h-393z" />
    <glyph glyph-name="daggerdbl" unicode="&#x2021;" 
d="M1176 0h-1055l241 1516h1055zM651 1249l-157 -983h395l155 983h-393z" />
    <glyph glyph-name="bullet" unicode="&#x2022;" 
d="M1176 0h-1055l241 1516h1055zM651 1249l-157 -983h395l155 983h-393z" />
    <glyph glyph-name="ellipsis" unicode="&#x2026;" 
d="M1176 0h-1055l241 1516h1055zM651 1249l-157 -983h395l155 983h-393z" />
    <glyph glyph-name="perthousand" unicode="&#x2030;" 
d="M1176 0h-1055l241 1516h1055zM651 1249l-157 -983h395l155 983h-393z" />
    <glyph glyph-name="guilsinglleft" unicode="&#x2039;" 
d="M1176 0h-1055l241 1516h1055zM651 1249l-157 -983h395l155 983h-393z" />
    <glyph glyph-name="guilsinglright" unicode="&#x203a;" 
d="M1176 0h-1055l241 1516h1055zM651 1249l-157 -983h395l155 983h-393z" />
    <glyph glyph-name="fraction" unicode="&#x2044;" 
d="M1176 0h-1055l241 1516h1055zM651 1249l-157 -983h395l155 983h-393z" />
    <glyph glyph-name="uni2070" unicode="&#x2070;" 
d="M1176 0h-1055l241 1516h1055zM651 1249l-157 -983h395l155 983h-393z" />
    <glyph glyph-name="uni2074" unicode="&#x2074;" 
d="M1176 0h-1055l241 1516h1055zM651 1249l-157 -983h395l155 983h-393z" />
    <glyph glyph-name="uni2075" unicode="&#x2075;" 
d="M1176 0h-1055l241 1516h1055zM651 1249l-157 -983h395l155 983h-393z" />
    <glyph glyph-name="uni2076" unicode="&#x2076;" 
d="M1176 0h-1055l241 1516h1055zM651 1249l-157 -983h395l155 983h-393z" />
    <glyph glyph-name="uni2077" unicode="&#x2077;" 
d="M1176 0h-1055l241 1516h1055zM651 1249l-157 -983h395l155 983h-393z" />
    <glyph glyph-name="uni2078" unicode="&#x2078;" 
d="M1176 0h-1055l241 1516h1055zM651 1249l-157 -983h395l155 983h-393z" />
    <glyph glyph-name="uni2079" unicode="&#x2079;" 
d="M1176 0h-1055l241 1516h1055zM651 1249l-157 -983h395l155 983h-393z" />
    <glyph glyph-name="uni207A" unicode="&#x207a;" 
d="M1176 0h-1055l241 1516h1055zM651 1249l-157 -983h395l155 983h-393z" />
    <glyph glyph-name="uni207B" unicode="&#x207b;" 
d="M1176 0h-1055l241 1516h1055zM651 1249l-157 -983h395l155 983h-393z" />
    <glyph glyph-name="uni207C" unicode="&#x207c;" 
d="M1176 0h-1055l241 1516h1055zM651 1249l-157 -983h395l155 983h-393z" />
    <glyph glyph-name="uni2080" unicode="&#x2080;" 
d="M1176 0h-1055l241 1516h1055zM651 1249l-157 -983h395l155 983h-393z" />
    <glyph glyph-name="uni2081" unicode="&#x2081;" 
d="M1176 0h-1055l241 1516h1055zM651 1249l-157 -983h395l155 983h-393z" />
    <glyph glyph-name="uni2082" unicode="&#x2082;" 
d="M1176 0h-1055l241 1516h1055zM651 1249l-157 -983h395l155 983h-393z" />
    <glyph glyph-name="uni2083" unicode="&#x2083;" 
d="M1176 0h-1055l241 1516h1055zM651 1249l-157 -983h395l155 983h-393z" />
    <glyph glyph-name="uni2084" unicode="&#x2084;" 
d="M1176 0h-1055l241 1516h1055zM651 1249l-157 -983h395l155 983h-393z" />
    <glyph glyph-name="uni2085" unicode="&#x2085;" 
d="M1176 0h-1055l241 1516h1055zM651 1249l-157 -983h395l155 983h-393z" />
    <glyph glyph-name="uni2086" unicode="&#x2086;" 
d="M1176 0h-1055l241 1516h1055zM651 1249l-157 -983h395l155 983h-393z" />
    <glyph glyph-name="uni2087" unicode="&#x2087;" 
d="M1176 0h-1055l241 1516h1055zM651 1249l-157 -983h395l155 983h-393z" />
    <glyph glyph-name="uni2088" unicode="&#x2088;" 
d="M1176 0h-1055l241 1516h1055zM651 1249l-157 -983h395l155 983h-393z" />
    <glyph glyph-name="uni2089" unicode="&#x2089;" 
d="M1176 0h-1055l241 1516h1055zM651 1249l-157 -983h395l155 983h-393z" />
    <glyph glyph-name="uni208A" unicode="&#x208a;" 
d="M1176 0h-1055l241 1516h1055zM651 1249l-157 -983h395l155 983h-393z" />
    <glyph glyph-name="uni208B" unicode="&#x208b;" 
d="M1176 0h-1055l241 1516h1055zM651 1249l-157 -983h395l155 983h-393z" />
    <glyph glyph-name="uni208C" unicode="&#x208c;" 
d="M1176 0h-1055l241 1516h1055zM651 1249l-157 -983h395l155 983h-393z" />
    <glyph glyph-name="Euro" unicode="&#x20ac;" 
d="M1176 0h-1055l241 1516h1055zM651 1249l-157 -983h395l155 983h-393z" />
    <glyph glyph-name="uni20B9" unicode="&#x20b9;" 
d="M1176 0h-1055l241 1516h1055zM651 1249l-157 -983h395l155 983h-393z" />
    <glyph glyph-name="uni20BA" unicode="&#x20ba;" 
d="M1176 0h-1055l241 1516h1055zM651 1249l-157 -983h395l155 983h-393z" />
    <glyph glyph-name="uni20BF" unicode="&#x20bf;" 
d="M1176 0h-1055l241 1516h1055zM651 1249l-157 -983h395l155 983h-393z" />
    <glyph glyph-name="uni2113" unicode="&#x2113;" 
d="M1176 0h-1055l241 1516h1055zM651 1249l-157 -983h395l155 983h-393z" />
    <glyph glyph-name="uni2116" unicode="&#x2116;" 
d="M1176 0h-1055l241 1516h1055zM651 1249l-157 -983h395l155 983h-393z" />
    <glyph glyph-name="uni2117" unicode="&#x2117;" 
d="M1176 0h-1055l241 1516h1055zM651 1249l-157 -983h395l155 983h-393z" />
    <glyph glyph-name="uni2120" unicode="&#x2120;" 
d="M1176 0h-1055l241 1516h1055zM651 1249l-157 -983h395l155 983h-393z" />
    <glyph glyph-name="trademark" unicode="&#x2122;" 
d="M1176 0h-1055l241 1516h1055zM651 1249l-157 -983h395l155 983h-393z" />
    <glyph glyph-name="estimated" unicode="&#x212e;" 
d="M1176 0h-1055l241 1516h1055zM651 1249l-157 -983h395l155 983h-393z" />
    <glyph glyph-name="uni2150" unicode="&#x2150;" 
d="M1176 0h-1055l241 1516h1055zM651 1249l-157 -983h395l155 983h-393z" />
    <glyph glyph-name="uni2151" unicode="&#x2151;" 
d="M1176 0h-1055l241 1516h1055zM651 1249l-157 -983h395l155 983h-393z" />
    <glyph glyph-name="uni2153" unicode="&#x2153;" 
d="M1176 0h-1055l241 1516h1055zM651 1249l-157 -983h395l155 983h-393z" />
    <glyph glyph-name="uni2154" unicode="&#x2154;" 
d="M1176 0h-1055l241 1516h1055zM651 1249l-157 -983h395l155 983h-393z" />
    <glyph glyph-name="uni2155" unicode="&#x2155;" 
d="M1176 0h-1055l241 1516h1055zM651 1249l-157 -983h395l155 983h-393z" />
    <glyph glyph-name="uni2156" unicode="&#x2156;" 
d="M1176 0h-1055l241 1516h1055zM651 1249l-157 -983h395l155 983h-393z" />
    <glyph glyph-name="uni2157" unicode="&#x2157;" 
d="M1176 0h-1055l241 1516h1055zM651 1249l-157 -983h395l155 983h-393z" />
    <glyph glyph-name="uni2158" unicode="&#x2158;" 
d="M1176 0h-1055l241 1516h1055zM651 1249l-157 -983h395l155 983h-393z" />
    <glyph glyph-name="uni2159" unicode="&#x2159;" 
d="M1176 0h-1055l241 1516h1055zM651 1249l-157 -983h395l155 983h-393z" />
    <glyph glyph-name="oneeighth" unicode="&#x215b;" 
d="M1176 0h-1055l241 1516h1055zM651 1249l-157 -983h395l155 983h-393z" />
    <glyph glyph-name="threeeighths" unicode="&#x215c;" 
d="M1176 0h-1055l241 1516h1055zM651 1249l-157 -983h395l155 983h-393z" />
    <glyph glyph-name="fiveeighths" unicode="&#x215d;" 
d="M1176 0h-1055l241 1516h1055zM651 1249l-157 -983h395l155 983h-393z" />
    <glyph glyph-name="seveneighths" unicode="&#x215e;" 
d="M1176 0h-1055l241 1516h1055zM651 1249l-157 -983h395l155 983h-393z" />
    <glyph glyph-name="arrowleft" unicode="&#x2190;" 
d="M1176 0h-1055l241 1516h1055zM651 1249l-157 -983h395l155 983h-393z" />
    <glyph glyph-name="arrowup" unicode="&#x2191;" 
d="M1176 0h-1055l241 1516h1055zM651 1249l-157 -983h395l155 983h-393z" />
    <glyph glyph-name="arrowright" unicode="&#x2192;" 
d="M1176 0h-1055l241 1516h1055zM651 1249l-157 -983h395l155 983h-393z" />
    <glyph glyph-name="arrowdown" unicode="&#x2193;" 
d="M1176 0h-1055l241 1516h1055zM651 1249l-157 -983h395l155 983h-393z" />
    <glyph glyph-name="arrowboth" unicode="&#x2194;" 
d="M1176 0h-1055l241 1516h1055zM651 1249l-157 -983h395l155 983h-393z" />
    <glyph glyph-name="arrowupdn" unicode="&#x2195;" 
d="M1176 0h-1055l241 1516h1055zM651 1249l-157 -983h395l155 983h-393z" />
    <glyph glyph-name="uni2196" unicode="&#x2196;" 
d="M1176 0h-1055l241 1516h1055zM651 1249l-157 -983h395l155 983h-393z" />
    <glyph glyph-name="uni2197" unicode="&#x2197;" 
d="M1176 0h-1055l241 1516h1055zM651 1249l-157 -983h395l155 983h-393z" />
    <glyph glyph-name="uni2198" unicode="&#x2198;" 
d="M1176 0h-1055l241 1516h1055zM651 1249l-157 -983h395l155 983h-393z" />
    <glyph glyph-name="uni2199" unicode="&#x2199;" 
d="M1176 0h-1055l241 1516h1055zM651 1249l-157 -983h395l155 983h-393z" />
    <glyph glyph-name="partialdiff" unicode="&#x2202;" 
d="M1176 0h-1055l241 1516h1055zM651 1249l-157 -983h395l155 983h-393z" />
    <glyph glyph-name="product" unicode="&#x220f;" 
d="M1176 0h-1055l241 1516h1055zM651 1249l-157 -983h395l155 983h-393z" />
    <glyph glyph-name="summation" unicode="&#x2211;" 
d="M1176 0h-1055l241 1516h1055zM651 1249l-157 -983h395l155 983h-393z" />
    <glyph glyph-name="minus" unicode="&#x2212;" 
d="M1176 0h-1055l241 1516h1055zM651 1249l-157 -983h395l155 983h-393z" />
    <glyph glyph-name="radical" unicode="&#x221a;" 
d="M1176 0h-1055l241 1516h1055zM651 1249l-157 -983h395l155 983h-393z" />
    <glyph glyph-name="infinity" unicode="&#x221e;" 
d="M1176 0h-1055l241 1516h1055zM651 1249l-157 -983h395l155 983h-393z" />
    <glyph glyph-name="integral" unicode="&#x222b;" 
d="M1176 0h-1055l241 1516h1055zM651 1249l-157 -983h395l155 983h-393z" />
    <glyph glyph-name="approxequal" unicode="&#x2248;" 
d="M1176 0h-1055l241 1516h1055zM651 1249l-157 -983h395l155 983h-393z" />
    <glyph glyph-name="notequal" unicode="&#x2260;" 
d="M1176 0h-1055l241 1516h1055zM651 1249l-157 -983h395l155 983h-393z" />
    <glyph glyph-name="lessequal" unicode="&#x2264;" 
d="M1176 0h-1055l241 1516h1055zM651 1249l-157 -983h395l155 983h-393z" />
    <glyph glyph-name="greaterequal" unicode="&#x2265;" 
d="M1176 0h-1055l241 1516h1055zM651 1249l-157 -983h395l155 983h-393z" />
    <glyph glyph-name="uni22A0" unicode="&#x22a0;" 
d="M1176 0h-1055l241 1516h1055zM651 1249l-157 -983h395l155 983h-393z" />
    <glyph glyph-name="house" unicode="&#x2302;" 
d="M1176 0h-1055l241 1516h1055zM651 1249l-157 -983h395l155 983h-393z" />
    <glyph glyph-name="uni2460" unicode="&#x2460;" 
d="M1176 0h-1055l241 1516h1055zM651 1249l-157 -983h395l155 983h-393z" />
    <glyph glyph-name="uni2461" unicode="&#x2461;" 
d="M1176 0h-1055l241 1516h1055zM651 1249l-157 -983h395l155 983h-393z" />
    <glyph glyph-name="uni2462" unicode="&#x2462;" 
d="M1176 0h-1055l241 1516h1055zM651 1249l-157 -983h395l155 983h-393z" />
    <glyph glyph-name="uni2463" unicode="&#x2463;" 
d="M1176 0h-1055l241 1516h1055zM651 1249l-157 -983h395l155 983h-393z" />
    <glyph glyph-name="uni2464" unicode="&#x2464;" 
d="M1176 0h-1055l241 1516h1055zM651 1249l-157 -983h395l155 983h-393z" />
    <glyph glyph-name="uni2465" unicode="&#x2465;" 
d="M1176 0h-1055l241 1516h1055zM651 1249l-157 -983h395l155 983h-393z" />
    <glyph glyph-name="uni2466" unicode="&#x2466;" 
d="M1176 0h-1055l241 1516h1055zM651 1249l-157 -983h395l155 983h-393z" />
    <glyph glyph-name="uni2467" unicode="&#x2467;" 
d="M1176 0h-1055l241 1516h1055zM651 1249l-157 -983h395l155 983h-393z" />
    <glyph glyph-name="uni2468" unicode="&#x2468;" 
d="M1176 0h-1055l241 1516h1055zM651 1249l-157 -983h395l155 983h-393z" />
    <glyph glyph-name="uni24EA" unicode="&#x24ea;" 
d="M1176 0h-1055l241 1516h1055zM651 1249l-157 -983h395l155 983h-393z" />
    <glyph glyph-name="uni24FF" unicode="&#x24ff;" 
d="M1176 0h-1055l241 1516h1055zM651 1249l-157 -983h395l155 983h-393z" />
    <glyph glyph-name="filledbox" unicode="&#x25a0;" 
d="M1176 0h-1055l241 1516h1055zM651 1249l-157 -983h395l155 983h-393z" />
    <glyph glyph-name="uni25A1" unicode="&#x25a1;" 
d="M1176 0h-1055l241 1516h1055zM651 1249l-157 -983h395l155 983h-393z" />
    <glyph glyph-name="uni25AA" unicode="&#x25aa;" 
d="M1176 0h-1055l241 1516h1055zM651 1249l-157 -983h395l155 983h-393z" />
    <glyph glyph-name="uni25AB" unicode="&#x25ab;" 
d="M1176 0h-1055l241 1516h1055zM651 1249l-157 -983h395l155 983h-393z" />
    <glyph glyph-name="triagup" unicode="&#x25b2;" 
d="M1176 0h-1055l241 1516h1055zM651 1249l-157 -983h395l155 983h-393z" />
    <glyph glyph-name="triagrt" unicode="&#x25ba;" 
d="M1176 0h-1055l241 1516h1055zM651 1249l-157 -983h395l155 983h-393z" />
    <glyph glyph-name="triagdn" unicode="&#x25bc;" 
d="M1176 0h-1055l241 1516h1055zM651 1249l-157 -983h395l155 983h-393z" />
    <glyph glyph-name="triaglf" unicode="&#x25c4;" 
d="M1176 0h-1055l241 1516h1055zM651 1249l-157 -983h395l155 983h-393z" />
    <glyph glyph-name="lozenge" unicode="&#x25ca;" 
d="M1176 0h-1055l241 1516h1055zM651 1249l-157 -983h395l155 983h-393z" />
    <glyph glyph-name="circle" unicode="&#x25cb;" 
d="M1176 0h-1055l241 1516h1055zM651 1249l-157 -983h395l155 983h-393z" />
    <glyph glyph-name="uni25CF" unicode="&#x25cf;" 
d="M1176 0h-1055l241 1516h1055zM651 1249l-157 -983h395l155 983h-393z" />
    <glyph glyph-name="uni2612" unicode="&#x2612;" 
d="M1176 0h-1055l241 1516h1055zM651 1249l-157 -983h395l155 983h-393z" />
    <glyph glyph-name="uni26AB" unicode="&#x26ab;" 
d="M1176 0h-1055l241 1516h1055zM651 1249l-157 -983h395l155 983h-393z" />
    <glyph glyph-name="uni26AC" unicode="&#x26ac;" 
d="M1176 0h-1055l241 1516h1055zM651 1249l-157 -983h395l155 983h-393z" />
    <glyph glyph-name="uni2776" unicode="&#x2776;" 
d="M1176 0h-1055l241 1516h1055zM651 1249l-157 -983h395l155 983h-393z" />
    <glyph glyph-name="uni2777" unicode="&#x2777;" 
d="M1176 0h-1055l241 1516h1055zM651 1249l-157 -983h395l155 983h-393z" />
    <glyph glyph-name="uni2778" unicode="&#x2778;" 
d="M1176 0h-1055l241 1516h1055zM651 1249l-157 -983h395l155 983h-393z" />
    <glyph glyph-name="uni2779" unicode="&#x2779;" 
d="M1176 0h-1055l241 1516h1055zM651 1249l-157 -983h395l155 983h-393z" />
    <glyph glyph-name="uni277A" unicode="&#x277a;" 
d="M1176 0h-1055l241 1516h1055zM651 1249l-157 -983h395l155 983h-393z" />
    <glyph glyph-name="uni277B" unicode="&#x277b;" 
d="M1176 0h-1055l241 1516h1055zM651 1249l-157 -983h395l155 983h-393z" />
    <glyph glyph-name="uni277C" unicode="&#x277c;" 
d="M1176 0h-1055l241 1516h1055zM651 1249l-157 -983h395l155 983h-393z" />
    <glyph glyph-name="uni277D" unicode="&#x277d;" 
d="M1176 0h-1055l241 1516h1055zM651 1249l-157 -983h395l155 983h-393z" />
    <glyph glyph-name="uni277E" unicode="&#x277e;" 
d="M1176 0h-1055l241 1516h1055zM651 1249l-157 -983h395l155 983h-393z" />
    <glyph glyph-name="fi" unicode="&#xfb01;" 
d="M1176 0h-1055l241 1516h1055zM651 1249l-157 -983h395l155 983h-393z" />
    <glyph glyph-name="fl" unicode="&#xfb02;" 
d="M1176 0h-1055l241 1516h1055zM651 1249l-157 -983h395l155 983h-393z" />
    <glyph glyph-name="Iacute_J.loclNLD" 
d="M1176 0h-1055l241 1516h1055zM651 1249l-157 -983h395l155 983h-393z" />
    <glyph glyph-name="iacute_j.loclNLD" 
d="M1176 0h-1055l241 1516h1055zM651 1249l-157 -983h395l155 983h-393z" />
    <glyph glyph-name="a.ss01" 
d="M1176 0h-1055l241 1516h1055zM651 1249l-157 -983h395l155 983h-393z" />
    <glyph glyph-name="aacute.ss01" 
d="M1176 0h-1055l241 1516h1055zM651 1249l-157 -983h395l155 983h-393z" />
    <glyph glyph-name="abreve.ss01" 
d="M1176 0h-1055l241 1516h1055zM651 1249l-157 -983h395l155 983h-393z" />
    <glyph glyph-name="acircumflex.ss01" 
d="M1176 0h-1055l241 1516h1055zM651 1249l-157 -983h395l155 983h-393z" />
    <glyph glyph-name="adieresis.ss01" 
d="M1176 0h-1055l241 1516h1055zM651 1249l-157 -983h395l155 983h-393z" />
    <glyph glyph-name="agrave.ss01" 
d="M1176 0h-1055l241 1516h1055zM651 1249l-157 -983h395l155 983h-393z" />
    <glyph glyph-name="amacron.ss01" 
d="M1176 0h-1055l241 1516h1055zM651 1249l-157 -983h395l155 983h-393z" />
    <glyph glyph-name="aogonek.ss01" 
d="M1176 0h-1055l241 1516h1055zM651 1249l-157 -983h395l155 983h-393z" />
    <glyph glyph-name="aring.ss01" 
d="M1176 0h-1055l241 1516h1055zM651 1249l-157 -983h395l155 983h-393z" />
    <glyph glyph-name="aringacute.ss01" 
d="M1176 0h-1055l241 1516h1055zM651 1249l-157 -983h395l155 983h-393z" />
    <glyph glyph-name="atilde.ss01" 
d="M1176 0h-1055l241 1516h1055zM651 1249l-157 -983h395l155 983h-393z" />
    <glyph glyph-name="ae.ss01" 
d="M1176 0h-1055l241 1516h1055zM651 1249l-157 -983h395l155 983h-393z" />
    <glyph glyph-name="aeacute.ss01" 
d="M1176 0h-1055l241 1516h1055zM651 1249l-157 -983h395l155 983h-393z" />
    <glyph glyph-name="f_b.liga" 
d="M1176 0h-1055l241 1516h1055zM651 1249l-157 -983h395l155 983h-393z" />
    <glyph glyph-name="f_f.liga" 
d="M1176 0h-1055l241 1516h1055zM651 1249l-157 -983h395l155 983h-393z" />
    <glyph glyph-name="f_f_b.liga" 
d="M1176 0h-1055l241 1516h1055zM651 1249l-157 -983h395l155 983h-393z" />
    <glyph glyph-name="f_f_h.liga" 
d="M1176 0h-1055l241 1516h1055zM651 1249l-157 -983h395l155 983h-393z" />
    <glyph glyph-name="f_f_i.liga" 
d="M1176 0h-1055l241 1516h1055zM651 1249l-157 -983h395l155 983h-393z" />
    <glyph glyph-name="f_f_j.liga" 
d="M1176 0h-1055l241 1516h1055zM651 1249l-157 -983h395l155 983h-393z" />
    <glyph glyph-name="f_f_k.liga" 
d="M1176 0h-1055l241 1516h1055zM651 1249l-157 -983h395l155 983h-393z" />
    <glyph glyph-name="f_f_l.liga" 
d="M1176 0h-1055l241 1516h1055zM651 1249l-157 -983h395l155 983h-393z" />
    <glyph glyph-name="f_h.liga" 
d="M1176 0h-1055l241 1516h1055zM651 1249l-157 -983h395l155 983h-393z" />
    <glyph glyph-name="f_idieresis.liga" 
d="M1176 0h-1055l241 1516h1055zM651 1249l-157 -983h395l155 983h-393z" />
    <glyph glyph-name="f_j.liga" 
d="M1176 0h-1055l241 1516h1055zM651 1249l-157 -983h395l155 983h-393z" />
    <glyph glyph-name="f_k.liga" 
d="M1176 0h-1055l241 1516h1055zM651 1249l-157 -983h395l155 983h-393z" />
    <glyph glyph-name="a.sc" 
d="M1176 0h-1055l241 1516h1055zM651 1249l-157 -983h395l155 983h-393z" />
    <glyph glyph-name="aacute.sc" 
d="M1176 0h-1055l241 1516h1055zM651 1249l-157 -983h395l155 983h-393z" />
    <glyph glyph-name="abreve.sc" 
d="M1176 0h-1055l241 1516h1055zM651 1249l-157 -983h395l155 983h-393z" />
    <glyph glyph-name="acircumflex.sc" 
d="M1176 0h-1055l241 1516h1055zM651 1249l-157 -983h395l155 983h-393z" />
    <glyph glyph-name="adieresis.sc" 
d="M1176 0h-1055l241 1516h1055zM651 1249l-157 -983h395l155 983h-393z" />
    <glyph glyph-name="agrave.sc" 
d="M1176 0h-1055l241 1516h1055zM651 1249l-157 -983h395l155 983h-393z" />
    <glyph glyph-name="amacron.sc" 
d="M1176 0h-1055l241 1516h1055zM651 1249l-157 -983h395l155 983h-393z" />
    <glyph glyph-name="aogonek.sc" 
d="M1176 0h-1055l241 1516h1055zM651 1249l-157 -983h395l155 983h-393z" />
    <glyph glyph-name="aring.sc" 
d="M1176 0h-1055l241 1516h1055zM651 1249l-157 -983h395l155 983h-393z" />
    <glyph glyph-name="aringacute.sc" 
d="M1176 0h-1055l241 1516h1055zM651 1249l-157 -983h395l155 983h-393z" />
    <glyph glyph-name="atilde.sc" 
d="M1176 0h-1055l241 1516h1055zM651 1249l-157 -983h395l155 983h-393z" />
    <glyph glyph-name="ae.sc" 
d="M1176 0h-1055l241 1516h1055zM651 1249l-157 -983h395l155 983h-393z" />
    <glyph glyph-name="aeacute.sc" 
d="M1176 0h-1055l241 1516h1055zM651 1249l-157 -983h395l155 983h-393z" />
    <glyph glyph-name="b.sc" 
d="M1176 0h-1055l241 1516h1055zM651 1249l-157 -983h395l155 983h-393z" />
    <glyph glyph-name="c.sc" 
d="M1176 0h-1055l241 1516h1055zM651 1249l-157 -983h395l155 983h-393z" />
    <glyph glyph-name="cacute.sc" 
d="M1176 0h-1055l241 1516h1055zM651 1249l-157 -983h395l155 983h-393z" />
    <glyph glyph-name="ccaron.sc" 
d="M1176 0h-1055l241 1516h1055zM651 1249l-157 -983h395l155 983h-393z" />
    <glyph glyph-name="ccedilla.sc" 
d="M1176 0h-1055l241 1516h1055zM651 1249l-157 -983h395l155 983h-393z" />
    <glyph glyph-name="ccircumflex.sc" 
d="M1176 0h-1055l241 1516h1055zM651 1249l-157 -983h395l155 983h-393z" />
    <glyph glyph-name="cdotaccent.sc" 
d="M1176 0h-1055l241 1516h1055zM651 1249l-157 -983h395l155 983h-393z" />
    <glyph glyph-name="d.sc" 
d="M1176 0h-1055l241 1516h1055zM651 1249l-157 -983h395l155 983h-393z" />
    <glyph glyph-name="eth.sc" 
d="M1176 0h-1055l241 1516h1055zM651 1249l-157 -983h395l155 983h-393z" />
    <glyph glyph-name="dcaron.sc" 
d="M1176 0h-1055l241 1516h1055zM651 1249l-157 -983h395l155 983h-393z" />
    <glyph glyph-name="dcroat.sc" 
d="M1176 0h-1055l241 1516h1055zM651 1249l-157 -983h395l155 983h-393z" />
    <glyph glyph-name="e.sc" 
d="M1176 0h-1055l241 1516h1055zM651 1249l-157 -983h395l155 983h-393z" />
    <glyph glyph-name="eacute.sc" 
d="M1176 0h-1055l241 1516h1055zM651 1249l-157 -983h395l155 983h-393z" />
    <glyph glyph-name="ebreve.sc" 
d="M1176 0h-1055l241 1516h1055zM651 1249l-157 -983h395l155 983h-393z" />
    <glyph glyph-name="ecaron.sc" 
d="M1176 0h-1055l241 1516h1055zM651 1249l-157 -983h395l155 983h-393z" />
    <glyph glyph-name="ecircumflex.sc" 
d="M1176 0h-1055l241 1516h1055zM651 1249l-157 -983h395l155 983h-393z" />
    <glyph glyph-name="edieresis.sc" 
d="M1176 0h-1055l241 1516h1055zM651 1249l-157 -983h395l155 983h-393z" />
    <glyph glyph-name="edotaccent.sc" 
d="M1176 0h-1055l241 1516h1055zM651 1249l-157 -983h395l155 983h-393z" />
    <glyph glyph-name="egrave.sc" 
d="M1176 0h-1055l241 1516h1055zM651 1249l-157 -983h395l155 983h-393z" />
    <glyph glyph-name="emacron.sc" 
d="M1176 0h-1055l241 1516h1055zM651 1249l-157 -983h395l155 983h-393z" />
    <glyph glyph-name="eogonek.sc" 
d="M1176 0h-1055l241 1516h1055zM651 1249l-157 -983h395l155 983h-393z" />
    <glyph glyph-name="f.sc" 
d="M1176 0h-1055l241 1516h1055zM651 1249l-157 -983h395l155 983h-393z" />
    <glyph glyph-name="g.sc" 
d="M1176 0h-1055l241 1516h1055zM651 1249l-157 -983h395l155 983h-393z" />
    <glyph glyph-name="gbreve.sc" 
d="M1176 0h-1055l241 1516h1055zM651 1249l-157 -983h395l155 983h-393z" />
    <glyph glyph-name="gcircumflex.sc" 
d="M1176 0h-1055l241 1516h1055zM651 1249l-157 -983h395l155 983h-393z" />
    <glyph glyph-name="uni0123.sc" 
d="M1176 0h-1055l241 1516h1055zM651 1249l-157 -983h395l155 983h-393z" />
    <glyph glyph-name="gdotaccent.sc" 
d="M1176 0h-1055l241 1516h1055zM651 1249l-157 -983h395l155 983h-393z" />
    <glyph glyph-name="h.sc" 
d="M1176 0h-1055l241 1516h1055zM651 1249l-157 -983h395l155 983h-393z" />
    <glyph glyph-name="hbar.sc" 
d="M1176 0h-1055l241 1516h1055zM651 1249l-157 -983h395l155 983h-393z" />
    <glyph glyph-name="hcircumflex.sc" 
d="M1176 0h-1055l241 1516h1055zM651 1249l-157 -983h395l155 983h-393z" />
    <glyph glyph-name="i.sc" 
d="M1176 0h-1055l241 1516h1055zM651 1249l-157 -983h395l155 983h-393z" />
    <glyph glyph-name="iacute.sc" 
d="M1176 0h-1055l241 1516h1055zM651 1249l-157 -983h395l155 983h-393z" />
    <glyph glyph-name="iacute_j.loclNLD.sc" 
d="M1176 0h-1055l241 1516h1055zM651 1249l-157 -983h395l155 983h-393z" />
    <glyph glyph-name="ibreve.sc" 
d="M1176 0h-1055l241 1516h1055zM651 1249l-157 -983h395l155 983h-393z" />
    <glyph glyph-name="icircumflex.sc" 
d="M1176 0h-1055l241 1516h1055zM651 1249l-157 -983h395l155 983h-393z" />
    <glyph glyph-name="idieresis.sc" 
d="M1176 0h-1055l241 1516h1055zM651 1249l-157 -983h395l155 983h-393z" />
    <glyph glyph-name="i.sc.loclTRK" 
d="M1176 0h-1055l241 1516h1055zM651 1249l-157 -983h395l155 983h-393z" />
    <glyph glyph-name="igrave.sc" 
d="M1176 0h-1055l241 1516h1055zM651 1249l-157 -983h395l155 983h-393z" />
    <glyph glyph-name="ij.sc" 
d="M1176 0h-1055l241 1516h1055zM651 1249l-157 -983h395l155 983h-393z" />
    <glyph glyph-name="imacron.sc" 
d="M1176 0h-1055l241 1516h1055zM651 1249l-157 -983h395l155 983h-393z" />
    <glyph glyph-name="iogonek.sc" 
d="M1176 0h-1055l241 1516h1055zM651 1249l-157 -983h395l155 983h-393z" />
    <glyph glyph-name="itilde.sc" 
d="M1176 0h-1055l241 1516h1055zM651 1249l-157 -983h395l155 983h-393z" />
    <glyph glyph-name="j.sc" 
d="M1176 0h-1055l241 1516h1055zM651 1249l-157 -983h395l155 983h-393z" />
    <glyph glyph-name="jcircumflex.sc" 
d="M1176 0h-1055l241 1516h1055zM651 1249l-157 -983h395l155 983h-393z" />
    <glyph glyph-name="k.sc" 
d="M1176 0h-1055l241 1516h1055zM651 1249l-157 -983h395l155 983h-393z" />
    <glyph glyph-name="uni0137.sc" 
d="M1176 0h-1055l241 1516h1055zM651 1249l-157 -983h395l155 983h-393z" />
    <glyph glyph-name="l.sc" 
d="M1176 0h-1055l241 1516h1055zM651 1249l-157 -983h395l155 983h-393z" />
    <glyph glyph-name="lacute.sc" 
d="M1176 0h-1055l241 1516h1055zM651 1249l-157 -983h395l155 983h-393z" />
    <glyph glyph-name="lcaron.sc" 
d="M1176 0h-1055l241 1516h1055zM651 1249l-157 -983h395l155 983h-393z" />
    <glyph glyph-name="uni013C.sc" 
d="M1176 0h-1055l241 1516h1055zM651 1249l-157 -983h395l155 983h-393z" />
    <glyph glyph-name="ldot.sc" 
d="M1176 0h-1055l241 1516h1055zM651 1249l-157 -983h395l155 983h-393z" />
    <glyph glyph-name="lslash.sc" 
d="M1176 0h-1055l241 1516h1055zM651 1249l-157 -983h395l155 983h-393z" />
    <glyph glyph-name="m.sc" 
d="M1176 0h-1055l241 1516h1055zM651 1249l-157 -983h395l155 983h-393z" />
    <glyph glyph-name="n.sc" 
d="M1176 0h-1055l241 1516h1055zM651 1249l-157 -983h395l155 983h-393z" />
    <glyph glyph-name="nacute.sc" 
d="M1176 0h-1055l241 1516h1055zM651 1249l-157 -983h395l155 983h-393z" />
    <glyph glyph-name="ncaron.sc" 
d="M1176 0h-1055l241 1516h1055zM651 1249l-157 -983h395l155 983h-393z" />
    <glyph glyph-name="uni0146.sc" 
d="M1176 0h-1055l241 1516h1055zM651 1249l-157 -983h395l155 983h-393z" />
    <glyph glyph-name="eng.sc" 
d="M1176 0h-1055l241 1516h1055zM651 1249l-157 -983h395l155 983h-393z" />
    <glyph glyph-name="ntilde.sc" 
d="M1176 0h-1055l241 1516h1055zM651 1249l-157 -983h395l155 983h-393z" />
    <glyph glyph-name="o.sc" 
d="M1176 0h-1055l241 1516h1055zM651 1249l-157 -983h395l155 983h-393z" />
    <glyph glyph-name="oacute.sc" 
d="M1176 0h-1055l241 1516h1055zM651 1249l-157 -983h395l155 983h-393z" />
    <glyph glyph-name="obreve.sc" 
d="M1176 0h-1055l241 1516h1055zM651 1249l-157 -983h395l155 983h-393z" />
    <glyph glyph-name="ocircumflex.sc" 
d="M1176 0h-1055l241 1516h1055zM651 1249l-157 -983h395l155 983h-393z" />
    <glyph glyph-name="odieresis.sc" 
d="M1176 0h-1055l241 1516h1055zM651 1249l-157 -983h395l155 983h-393z" />
    <glyph glyph-name="ograve.sc" 
d="M1176 0h-1055l241 1516h1055zM651 1249l-157 -983h395l155 983h-393z" />
    <glyph glyph-name="ohungarumlaut.sc" 
d="M1176 0h-1055l241 1516h1055zM651 1249l-157 -983h395l155 983h-393z" />
    <glyph glyph-name="omacron.sc" 
d="M1176 0h-1055l241 1516h1055zM651 1249l-157 -983h395l155 983h-393z" />
    <glyph glyph-name="uni01EB.sc" 
d="M1176 0h-1055l241 1516h1055zM651 1249l-157 -983h395l155 983h-393z" />
    <glyph glyph-name="oslash.sc" 
d="M1176 0h-1055l241 1516h1055zM651 1249l-157 -983h395l155 983h-393z" />
    <glyph glyph-name="oslashacute.sc" 
d="M1176 0h-1055l241 1516h1055zM651 1249l-157 -983h395l155 983h-393z" />
    <glyph glyph-name="otilde.sc" 
d="M1176 0h-1055l241 1516h1055zM651 1249l-157 -983h395l155 983h-393z" />
    <glyph glyph-name="oe.sc" 
d="M1176 0h-1055l241 1516h1055zM651 1249l-157 -983h395l155 983h-393z" />
    <glyph glyph-name="p.sc" 
d="M1176 0h-1055l241 1516h1055zM651 1249l-157 -983h395l155 983h-393z" />
    <glyph glyph-name="thorn.sc" 
d="M1176 0h-1055l241 1516h1055zM651 1249l-157 -983h395l155 983h-393z" />
    <glyph glyph-name="q.sc" 
d="M1176 0h-1055l241 1516h1055zM651 1249l-157 -983h395l155 983h-393z" />
    <glyph glyph-name="r.sc" 
d="M1176 0h-1055l241 1516h1055zM651 1249l-157 -983h395l155 983h-393z" />
    <glyph glyph-name="racute.sc" 
d="M1176 0h-1055l241 1516h1055zM651 1249l-157 -983h395l155 983h-393z" />
    <glyph glyph-name="rcaron.sc" 
d="M1176 0h-1055l241 1516h1055zM651 1249l-157 -983h395l155 983h-393z" />
    <glyph glyph-name="uni0157.sc" 
d="M1176 0h-1055l241 1516h1055zM651 1249l-157 -983h395l155 983h-393z" />
    <glyph glyph-name="s.sc" 
d="M1176 0h-1055l241 1516h1055zM651 1249l-157 -983h395l155 983h-393z" />
    <glyph glyph-name="sacute.sc" 
d="M1176 0h-1055l241 1516h1055zM651 1249l-157 -983h395l155 983h-393z" />
    <glyph glyph-name="scaron.sc" 
d="M1176 0h-1055l241 1516h1055zM651 1249l-157 -983h395l155 983h-393z" />
    <glyph glyph-name="scedilla.sc" 
d="M1176 0h-1055l241 1516h1055zM651 1249l-157 -983h395l155 983h-393z" />
    <glyph glyph-name="scircumflex.sc" 
d="M1176 0h-1055l241 1516h1055zM651 1249l-157 -983h395l155 983h-393z" />
    <glyph glyph-name="uni0219.sc" 
d="M1176 0h-1055l241 1516h1055zM651 1249l-157 -983h395l155 983h-393z" />
    <glyph glyph-name="germandbls.sc" 
d="M1176 0h-1055l241 1516h1055zM651 1249l-157 -983h395l155 983h-393z" />
    <glyph glyph-name="t.sc" 
d="M1176 0h-1055l241 1516h1055zM651 1249l-157 -983h395l155 983h-393z" />
    <glyph glyph-name="tbar.sc" 
d="M1176 0h-1055l241 1516h1055zM651 1249l-157 -983h395l155 983h-393z" />
    <glyph glyph-name="tcaron.sc" 
d="M1176 0h-1055l241 1516h1055zM651 1249l-157 -983h395l155 983h-393z" />
    <glyph glyph-name="uni0163.sc" 
d="M1176 0h-1055l241 1516h1055zM651 1249l-157 -983h395l155 983h-393z" />
    <glyph glyph-name="uni021B.sc" 
d="M1176 0h-1055l241 1516h1055zM651 1249l-157 -983h395l155 983h-393z" />
    <glyph glyph-name="u.sc" 
d="M1176 0h-1055l241 1516h1055zM651 1249l-157 -983h395l155 983h-393z" />
    <glyph glyph-name="uacute.sc" 
d="M1176 0h-1055l241 1516h1055zM651 1249l-157 -983h395l155 983h-393z" />
    <glyph glyph-name="ubreve.sc" 
d="M1176 0h-1055l241 1516h1055zM651 1249l-157 -983h395l155 983h-393z" />
    <glyph glyph-name="ucircumflex.sc" 
d="M1176 0h-1055l241 1516h1055zM651 1249l-157 -983h395l155 983h-393z" />
    <glyph glyph-name="udieresis.sc" 
d="M1176 0h-1055l241 1516h1055zM651 1249l-157 -983h395l155 983h-393z" />
    <glyph glyph-name="ugrave.sc" 
d="M1176 0h-1055l241 1516h1055zM651 1249l-157 -983h395l155 983h-393z" />
    <glyph glyph-name="uhungarumlaut.sc" 
d="M1176 0h-1055l241 1516h1055zM651 1249l-157 -983h395l155 983h-393z" />
    <glyph glyph-name="umacron.sc" 
d="M1176 0h-1055l241 1516h1055zM651 1249l-157 -983h395l155 983h-393z" />
    <glyph glyph-name="uogonek.sc" 
d="M1176 0h-1055l241 1516h1055zM651 1249l-157 -983h395l155 983h-393z" />
    <glyph glyph-name="uring.sc" 
d="M1176 0h-1055l241 1516h1055zM651 1249l-157 -983h395l155 983h-393z" />
    <glyph glyph-name="utilde.sc" 
d="M1176 0h-1055l241 1516h1055zM651 1249l-157 -983h395l155 983h-393z" />
    <glyph glyph-name="v.sc" 
d="M1176 0h-1055l241 1516h1055zM651 1249l-157 -983h395l155 983h-393z" />
    <glyph glyph-name="w.sc" 
d="M1176 0h-1055l241 1516h1055zM651 1249l-157 -983h395l155 983h-393z" />
    <glyph glyph-name="wacute.sc" 
d="M1176 0h-1055l241 1516h1055zM651 1249l-157 -983h395l155 983h-393z" />
    <glyph glyph-name="wcircumflex.sc" 
d="M1176 0h-1055l241 1516h1055zM651 1249l-157 -983h395l155 983h-393z" />
    <glyph glyph-name="wdieresis.sc" 
d="M1176 0h-1055l241 1516h1055zM651 1249l-157 -983h395l155 983h-393z" />
    <glyph glyph-name="wgrave.sc" 
d="M1176 0h-1055l241 1516h1055zM651 1249l-157 -983h395l155 983h-393z" />
    <glyph glyph-name="x.sc" 
d="M1176 0h-1055l241 1516h1055zM651 1249l-157 -983h395l155 983h-393z" />
    <glyph glyph-name="y.sc" 
d="M1176 0h-1055l241 1516h1055zM651 1249l-157 -983h395l155 983h-393z" />
    <glyph glyph-name="yacute.sc" 
d="M1176 0h-1055l241 1516h1055zM651 1249l-157 -983h395l155 983h-393z" />
    <glyph glyph-name="ycircumflex.sc" 
d="M1176 0h-1055l241 1516h1055zM651 1249l-157 -983h395l155 983h-393z" />
    <glyph glyph-name="ydieresis.sc" 
d="M1176 0h-1055l241 1516h1055zM651 1249l-157 -983h395l155 983h-393z" />
    <glyph glyph-name="ygrave.sc" 
d="M1176 0h-1055l241 1516h1055zM651 1249l-157 -983h395l155 983h-393z" />
    <glyph glyph-name="z.sc" 
d="M1176 0h-1055l241 1516h1055zM651 1249l-157 -983h395l155 983h-393z" />
    <glyph glyph-name="zacute.sc" 
d="M1176 0h-1055l241 1516h1055zM651 1249l-157 -983h395l155 983h-393z" />
    <glyph glyph-name="zcaron.sc" 
d="M1176 0h-1055l241 1516h1055zM651 1249l-157 -983h395l155 983h-393z" />
    <glyph glyph-name="zdotaccent.sc" 
d="M1176 0h-1055l241 1516h1055zM651 1249l-157 -983h395l155 983h-393z" />
    <glyph glyph-name="a.subs.ss01" 
d="M1176 0h-1055l241 1516h1055zM651 1249l-157 -983h395l155 983h-393z" />
    <glyph glyph-name="a.sups.ss01" 
d="M1176 0h-1055l241 1516h1055zM651 1249l-157 -983h395l155 983h-393z" />
    <glyph glyph-name="a.subs" 
d="M1176 0h-1055l241 1516h1055zM651 1249l-157 -983h395l155 983h-393z" />
    <glyph glyph-name="b.subs" 
d="M1176 0h-1055l241 1516h1055zM651 1249l-157 -983h395l155 983h-393z" />
    <glyph glyph-name="c.subs" 
d="M1176 0h-1055l241 1516h1055zM651 1249l-157 -983h395l155 983h-393z" />
    <glyph glyph-name="d.subs" 
d="M1176 0h-1055l241 1516h1055zM651 1249l-157 -983h395l155 983h-393z" />
    <glyph glyph-name="e.subs" 
d="M1176 0h-1055l241 1516h1055zM651 1249l-157 -983h395l155 983h-393z" />
    <glyph glyph-name="f.subs" 
d="M1176 0h-1055l241 1516h1055zM651 1249l-157 -983h395l155 983h-393z" />
    <glyph glyph-name="g.subs" 
d="M1176 0h-1055l241 1516h1055zM651 1249l-157 -983h395l155 983h-393z" />
    <glyph glyph-name="h.subs" 
d="M1176 0h-1055l241 1516h1055zM651 1249l-157 -983h395l155 983h-393z" />
    <glyph glyph-name="i.subs" 
d="M1176 0h-1055l241 1516h1055zM651 1249l-157 -983h395l155 983h-393z" />
    <glyph glyph-name="j.subs" 
d="M1176 0h-1055l241 1516h1055zM651 1249l-157 -983h395l155 983h-393z" />
    <glyph glyph-name="k.subs" 
d="M1176 0h-1055l241 1516h1055zM651 1249l-157 -983h395l155 983h-393z" />
    <glyph glyph-name="l.subs" 
d="M1176 0h-1055l241 1516h1055zM651 1249l-157 -983h395l155 983h-393z" />
    <glyph glyph-name="m.subs" 
d="M1176 0h-1055l241 1516h1055zM651 1249l-157 -983h395l155 983h-393z" />
    <glyph glyph-name="n.subs" 
d="M1176 0h-1055l241 1516h1055zM651 1249l-157 -983h395l155 983h-393z" />
    <glyph glyph-name="o.subs" 
d="M1176 0h-1055l241 1516h1055zM651 1249l-157 -983h395l155 983h-393z" />
    <glyph glyph-name="p.subs" 
d="M1176 0h-1055l241 1516h1055zM651 1249l-157 -983h395l155 983h-393z" />
    <glyph glyph-name="q.subs" 
d="M1176 0h-1055l241 1516h1055zM651 1249l-157 -983h395l155 983h-393z" />
    <glyph glyph-name="r.subs" 
d="M1176 0h-1055l241 1516h1055zM651 1249l-157 -983h395l155 983h-393z" />
    <glyph glyph-name="s.subs" 
d="M1176 0h-1055l241 1516h1055zM651 1249l-157 -983h395l155 983h-393z" />
    <glyph glyph-name="t.subs" 
d="M1176 0h-1055l241 1516h1055zM651 1249l-157 -983h395l155 983h-393z" />
    <glyph glyph-name="u.subs" 
d="M1176 0h-1055l241 1516h1055zM651 1249l-157 -983h395l155 983h-393z" />
    <glyph glyph-name="v.subs" 
d="M1176 0h-1055l241 1516h1055zM651 1249l-157 -983h395l155 983h-393z" />
    <glyph glyph-name="w.subs" 
d="M1176 0h-1055l241 1516h1055zM651 1249l-157 -983h395l155 983h-393z" />
    <glyph glyph-name="x.subs" 
d="M1176 0h-1055l241 1516h1055zM651 1249l-157 -983h395l155 983h-393z" />
    <glyph glyph-name="y.subs" 
d="M1176 0h-1055l241 1516h1055zM651 1249l-157 -983h395l155 983h-393z" />
    <glyph glyph-name="z.subs" 
d="M1176 0h-1055l241 1516h1055zM651 1249l-157 -983h395l155 983h-393z" />
    <glyph glyph-name="a.sups" 
d="M1176 0h-1055l241 1516h1055zM651 1249l-157 -983h395l155 983h-393z" />
    <glyph glyph-name="b.sups" 
d="M1176 0h-1055l241 1516h1055zM651 1249l-157 -983h395l155 983h-393z" />
    <glyph glyph-name="c.sups" 
d="M1176 0h-1055l241 1516h1055zM651 1249l-157 -983h395l155 983h-393z" />
    <glyph glyph-name="d.sups" 
d="M1176 0h-1055l241 1516h1055zM651 1249l-157 -983h395l155 983h-393z" />
    <glyph glyph-name="e.sups" 
d="M1176 0h-1055l241 1516h1055zM651 1249l-157 -983h395l155 983h-393z" />
    <glyph glyph-name="f.sups" 
d="M1176 0h-1055l241 1516h1055zM651 1249l-157 -983h395l155 983h-393z" />
    <glyph glyph-name="g.sups" 
d="M1176 0h-1055l241 1516h1055zM651 1249l-157 -983h395l155 983h-393z" />
    <glyph glyph-name="h.sups" 
d="M1176 0h-1055l241 1516h1055zM651 1249l-157 -983h395l155 983h-393z" />
    <glyph glyph-name="i.sups" 
d="M1176 0h-1055l241 1516h1055zM651 1249l-157 -983h395l155 983h-393z" />
    <glyph glyph-name="j.sups" 
d="M1176 0h-1055l241 1516h1055zM651 1249l-157 -983h395l155 983h-393z" />
    <glyph glyph-name="k.sups" 
d="M1176 0h-1055l241 1516h1055zM651 1249l-157 -983h395l155 983h-393z" />
    <glyph glyph-name="l.sups" 
d="M1176 0h-1055l241 1516h1055zM651 1249l-157 -983h395l155 983h-393z" />
    <glyph glyph-name="m.sups" 
d="M1176 0h-1055l241 1516h1055zM651 1249l-157 -983h395l155 983h-393z" />
    <glyph glyph-name="n.sups" 
d="M1176 0h-1055l241 1516h1055zM651 1249l-157 -983h395l155 983h-393z" />
    <glyph glyph-name="o.sups" 
d="M1176 0h-1055l241 1516h1055zM651 1249l-157 -983h395l155 983h-393z" />
    <glyph glyph-name="p.sups" 
d="M1176 0h-1055l241 1516h1055zM651 1249l-157 -983h395l155 983h-393z" />
    <glyph glyph-name="q.sups" 
d="M1176 0h-1055l241 1516h1055zM651 1249l-157 -983h395l155 983h-393z" />
    <glyph glyph-name="r.sups" 
d="M1176 0h-1055l241 1516h1055zM651 1249l-157 -983h395l155 983h-393z" />
    <glyph glyph-name="s.sups" 
d="M1176 0h-1055l241 1516h1055zM651 1249l-157 -983h395l155 983h-393z" />
    <glyph glyph-name="t.sups" 
d="M1176 0h-1055l241 1516h1055zM651 1249l-157 -983h395l155 983h-393z" />
    <glyph glyph-name="u.sups" 
d="M1176 0h-1055l241 1516h1055zM651 1249l-157 -983h395l155 983h-393z" />
    <glyph glyph-name="v.sups" 
d="M1176 0h-1055l241 1516h1055zM651 1249l-157 -983h395l155 983h-393z" />
    <glyph glyph-name="w.sups" 
d="M1176 0h-1055l241 1516h1055zM651 1249l-157 -983h395l155 983h-393z" />
    <glyph glyph-name="x.sups" 
d="M1176 0h-1055l241 1516h1055zM651 1249l-157 -983h395l155 983h-393z" />
    <glyph glyph-name="y.sups" 
d="M1176 0h-1055l241 1516h1055zM651 1249l-157 -983h395l155 983h-393z" />
    <glyph glyph-name="z.sups" 
d="M1176 0h-1055l241 1516h1055zM651 1249l-157 -983h395l155 983h-393z" />
    <glyph glyph-name="zero.zero" 
d="M1176 0h-1055l241 1516h1055zM651 1249l-157 -983h395l155 983h-393z" />
    <glyph glyph-name="zero.lf" 
d="M1176 0h-1055l241 1516h1055zM651 1249l-157 -983h395l155 983h-393z" />
    <glyph glyph-name="one.lf" 
d="M1176 0h-1055l241 1516h1055zM651 1249l-157 -983h395l155 983h-393z" />
    <glyph glyph-name="two.lf" 
d="M1176 0h-1055l241 1516h1055zM651 1249l-157 -983h395l155 983h-393z" />
    <glyph glyph-name="three.lf" 
d="M1176 0h-1055l241 1516h1055zM651 1249l-157 -983h395l155 983h-393z" />
    <glyph glyph-name="four.lf" 
d="M1176 0h-1055l241 1516h1055zM651 1249l-157 -983h395l155 983h-393z" />
    <glyph glyph-name="five.lf" 
d="M1176 0h-1055l241 1516h1055zM651 1249l-157 -983h395l155 983h-393z" />
    <glyph glyph-name="six.lf" 
d="M1176 0h-1055l241 1516h1055zM651 1249l-157 -983h395l155 983h-393z" />
    <glyph glyph-name="seven.lf" 
d="M1176 0h-1055l241 1516h1055zM651 1249l-157 -983h395l155 983h-393z" />
    <glyph glyph-name="eight.lf" 
d="M1176 0h-1055l241 1516h1055zM651 1249l-157 -983h395l155 983h-393z" />
    <glyph glyph-name="nine.lf" 
d="M1176 0h-1055l241 1516h1055zM651 1249l-157 -983h395l155 983h-393z" />
    <glyph glyph-name="zero.lf.zero" 
d="M1176 0h-1055l241 1516h1055zM651 1249l-157 -983h395l155 983h-393z" />
    <glyph glyph-name="zero.osf" 
d="M1176 0h-1055l241 1516h1055zM651 1249l-157 -983h395l155 983h-393z" />
    <glyph glyph-name="one.osf" 
d="M1176 0h-1055l241 1516h1055zM651 1249l-157 -983h395l155 983h-393z" />
    <glyph glyph-name="two.osf" 
d="M1176 0h-1055l241 1516h1055zM651 1249l-157 -983h395l155 983h-393z" />
    <glyph glyph-name="three.osf" 
d="M1176 0h-1055l241 1516h1055zM651 1249l-157 -983h395l155 983h-393z" />
    <glyph glyph-name="four.osf" 
d="M1176 0h-1055l241 1516h1055zM651 1249l-157 -983h395l155 983h-393z" />
    <glyph glyph-name="five.osf" 
d="M1176 0h-1055l241 1516h1055zM651 1249l-157 -983h395l155 983h-393z" />
    <glyph glyph-name="six.osf" 
d="M1176 0h-1055l241 1516h1055zM651 1249l-157 -983h395l155 983h-393z" />
    <glyph glyph-name="seven.osf" 
d="M1176 0h-1055l241 1516h1055zM651 1249l-157 -983h395l155 983h-393z" />
    <glyph glyph-name="eight.osf" 
d="M1176 0h-1055l241 1516h1055zM651 1249l-157 -983h395l155 983h-393z" />
    <glyph glyph-name="nine.osf" 
d="M1176 0h-1055l241 1516h1055zM651 1249l-157 -983h395l155 983h-393z" />
    <glyph glyph-name="zero.osf.zero" 
d="M1176 0h-1055l241 1516h1055zM651 1249l-157 -983h395l155 983h-393z" />
    <glyph glyph-name="zero.tf" 
d="M1176 0h-1055l241 1516h1055zM651 1249l-157 -983h395l155 983h-393z" />
    <glyph glyph-name="one.tf" 
d="M1176 0h-1055l241 1516h1055zM651 1249l-157 -983h395l155 983h-393z" />
    <glyph glyph-name="two.tf" 
d="M1176 0h-1055l241 1516h1055zM651 1249l-157 -983h395l155 983h-393z" />
    <glyph glyph-name="three.tf" 
d="M1176 0h-1055l241 1516h1055zM651 1249l-157 -983h395l155 983h-393z" />
    <glyph glyph-name="four.tf" 
d="M1176 0h-1055l241 1516h1055zM651 1249l-157 -983h395l155 983h-393z" />
    <glyph glyph-name="five.tf" 
d="M1176 0h-1055l241 1516h1055zM651 1249l-157 -983h395l155 983h-393z" />
    <glyph glyph-name="six.tf" 
d="M1176 0h-1055l241 1516h1055zM651 1249l-157 -983h395l155 983h-393z" />
    <glyph glyph-name="seven.tf" 
d="M1176 0h-1055l241 1516h1055zM651 1249l-157 -983h395l155 983h-393z" />
    <glyph glyph-name="eight.tf" 
d="M1176 0h-1055l241 1516h1055zM651 1249l-157 -983h395l155 983h-393z" />
    <glyph glyph-name="nine.tf" 
d="M1176 0h-1055l241 1516h1055zM651 1249l-157 -983h395l155 983h-393z" />
    <glyph glyph-name="zero.tf.zero" 
d="M1176 0h-1055l241 1516h1055zM651 1249l-157 -983h395l155 983h-393z" />
    <glyph glyph-name="uni24FF.zero" 
d="M1176 0h-1055l241 1516h1055zM651 1249l-157 -983h395l155 983h-393z" />
    <glyph glyph-name="uni24EA.zero" 
d="M1176 0h-1055l241 1516h1055zM651 1249l-157 -983h395l155 983h-393z" />
    <glyph glyph-name="zero.dnom" 
d="M1176 0h-1055l241 1516h1055zM651 1249l-157 -983h395l155 983h-393z" />
    <glyph glyph-name="one.dnom" 
d="M1176 0h-1055l241 1516h1055zM651 1249l-157 -983h395l155 983h-393z" />
    <glyph glyph-name="two.dnom" 
d="M1176 0h-1055l241 1516h1055zM651 1249l-157 -983h395l155 983h-393z" />
    <glyph glyph-name="three.dnom" 
d="M1176 0h-1055l241 1516h1055zM651 1249l-157 -983h395l155 983h-393z" />
    <glyph glyph-name="four.dnom" 
d="M1176 0h-1055l241 1516h1055zM651 1249l-157 -983h395l155 983h-393z" />
    <glyph glyph-name="five.dnom" 
d="M1176 0h-1055l241 1516h1055zM651 1249l-157 -983h395l155 983h-393z" />
    <glyph glyph-name="six.dnom" 
d="M1176 0h-1055l241 1516h1055zM651 1249l-157 -983h395l155 983h-393z" />
    <glyph glyph-name="seven.dnom" 
d="M1176 0h-1055l241 1516h1055zM651 1249l-157 -983h395l155 983h-393z" />
    <glyph glyph-name="eight.dnom" 
d="M1176 0h-1055l241 1516h1055zM651 1249l-157 -983h395l155 983h-393z" />
    <glyph glyph-name="nine.dnom" 
d="M1176 0h-1055l241 1516h1055zM651 1249l-157 -983h395l155 983h-393z" />
    <glyph glyph-name="zero.numr" 
d="M1176 0h-1055l241 1516h1055zM651 1249l-157 -983h395l155 983h-393z" />
    <glyph glyph-name="one.numr" 
d="M1176 0h-1055l241 1516h1055zM651 1249l-157 -983h395l155 983h-393z" />
    <glyph glyph-name="two.numr" 
d="M1176 0h-1055l241 1516h1055zM651 1249l-157 -983h395l155 983h-393z" />
    <glyph glyph-name="three.numr" 
d="M1176 0h-1055l241 1516h1055zM651 1249l-157 -983h395l155 983h-393z" />
    <glyph glyph-name="four.numr" 
d="M1176 0h-1055l241 1516h1055zM651 1249l-157 -983h395l155 983h-393z" />
    <glyph glyph-name="five.numr" 
d="M1176 0h-1055l241 1516h1055zM651 1249l-157 -983h395l155 983h-393z" />
    <glyph glyph-name="six.numr" 
d="M1176 0h-1055l241 1516h1055zM651 1249l-157 -983h395l155 983h-393z" />
    <glyph glyph-name="seven.numr" 
d="M1176 0h-1055l241 1516h1055zM651 1249l-157 -983h395l155 983h-393z" />
    <glyph glyph-name="eight.numr" 
d="M1176 0h-1055l241 1516h1055zM651 1249l-157 -983h395l155 983h-393z" />
    <glyph glyph-name="nine.numr" 
d="M1176 0h-1055l241 1516h1055zM651 1249l-157 -983h395l155 983h-393z" />
    <glyph glyph-name="uni2080.zero" 
d="M1176 0h-1055l241 1516h1055zM651 1249l-157 -983h395l155 983h-393z" />
    <glyph glyph-name="zero.dnom.zero" 
d="M1176 0h-1055l241 1516h1055zM651 1249l-157 -983h395l155 983h-393z" />
    <glyph glyph-name="zero.numr.zero" 
d="M1176 0h-1055l241 1516h1055zM651 1249l-157 -983h395l155 983h-393z" />
    <glyph glyph-name="uni2070.zero" 
d="M1176 0h-1055l241 1516h1055zM651 1249l-157 -983h395l155 983h-393z" />
    <glyph glyph-name="zero.c2sc" 
d="M1176 0h-1055l241 1516h1055zM651 1249l-157 -983h395l155 983h-393z" />
    <glyph glyph-name="one.c2sc" 
d="M1176 0h-1055l241 1516h1055zM651 1249l-157 -983h395l155 983h-393z" />
    <glyph glyph-name="two.c2sc" 
d="M1176 0h-1055l241 1516h1055zM651 1249l-157 -983h395l155 983h-393z" />
    <glyph glyph-name="three.c2sc" 
d="M1176 0h-1055l241 1516h1055zM651 1249l-157 -983h395l155 983h-393z" />
    <glyph glyph-name="four.c2sc" 
d="M1176 0h-1055l241 1516h1055zM651 1249l-157 -983h395l155 983h-393z" />
    <glyph glyph-name="five.c2sc" 
d="M1176 0h-1055l241 1516h1055zM651 1249l-157 -983h395l155 983h-393z" />
    <glyph glyph-name="six.c2sc" 
d="M1176 0h-1055l241 1516h1055zM651 1249l-157 -983h395l155 983h-393z" />
    <glyph glyph-name="seven.c2sc" 
d="M1176 0h-1055l241 1516h1055zM651 1249l-157 -983h395l155 983h-393z" />
    <glyph glyph-name="eight.c2sc" 
d="M1176 0h-1055l241 1516h1055zM651 1249l-157 -983h395l155 983h-393z" />
    <glyph glyph-name="nine.c2sc" 
d="M1176 0h-1055l241 1516h1055zM651 1249l-157 -983h395l155 983h-393z" />
    <glyph glyph-name="zero.c2sc.zero" 
d="M1176 0h-1055l241 1516h1055zM651 1249l-157 -983h395l155 983h-393z" />
    <glyph glyph-name="colon.case" 
d="M1176 0h-1055l241 1516h1055zM651 1249l-157 -983h395l155 983h-393z" />
    <glyph glyph-name="exclamdown.case" 
d="M1176 0h-1055l241 1516h1055zM651 1249l-157 -983h395l155 983h-393z" />
    <glyph glyph-name="questiondown.case" 
d="M1176 0h-1055l241 1516h1055zM651 1249l-157 -983h395l155 983h-393z" />
    <glyph glyph-name="periodcentered.case" 
d="M1176 0h-1055l241 1516h1055zM651 1249l-157 -983h395l155 983h-393z" />
    <glyph glyph-name="parenleft.case" 
d="M1176 0h-1055l241 1516h1055zM651 1249l-157 -983h395l155 983h-393z" />
    <glyph glyph-name="parenright.case" 
d="M1176 0h-1055l241 1516h1055zM651 1249l-157 -983h395l155 983h-393z" />
    <glyph glyph-name="braceleft.case" 
d="M1176 0h-1055l241 1516h1055zM651 1249l-157 -983h395l155 983h-393z" />
    <glyph glyph-name="braceright.case" 
d="M1176 0h-1055l241 1516h1055zM651 1249l-157 -983h395l155 983h-393z" />
    <glyph glyph-name="bracketleft.case" 
d="M1176 0h-1055l241 1516h1055zM651 1249l-157 -983h395l155 983h-393z" />
    <glyph glyph-name="bracketright.case" 
d="M1176 0h-1055l241 1516h1055zM651 1249l-157 -983h395l155 983h-393z" />
    <glyph glyph-name="hyphen.case" 
d="M1176 0h-1055l241 1516h1055zM651 1249l-157 -983h395l155 983h-393z" />
    <glyph glyph-name="uni00AD.case" 
d="M1176 0h-1055l241 1516h1055zM651 1249l-157 -983h395l155 983h-393z" />
    <glyph glyph-name="endash.case" 
d="M1176 0h-1055l241 1516h1055zM651 1249l-157 -983h395l155 983h-393z" />
    <glyph glyph-name="emdash.case" 
d="M1176 0h-1055l241 1516h1055zM651 1249l-157 -983h395l155 983h-393z" />
    <glyph glyph-name="guillemotleft.case" 
d="M1176 0h-1055l241 1516h1055zM651 1249l-157 -983h395l155 983h-393z" />
    <glyph glyph-name="guillemotright.case" 
d="M1176 0h-1055l241 1516h1055zM651 1249l-157 -983h395l155 983h-393z" />
    <glyph glyph-name="guilsinglleft.case" 
d="M1176 0h-1055l241 1516h1055zM651 1249l-157 -983h395l155 983h-393z" />
    <glyph glyph-name="guilsinglright.case" 
d="M1176 0h-1055l241 1516h1055zM651 1249l-157 -983h395l155 983h-393z" />
    <glyph glyph-name="parenleft.c2sc" 
d="M1176 0h-1055l241 1516h1055zM651 1249l-157 -983h395l155 983h-393z" />
    <glyph glyph-name="parenright.c2sc" 
d="M1176 0h-1055l241 1516h1055zM651 1249l-157 -983h395l155 983h-393z" />
    <glyph glyph-name="braceleft.c2sc" 
d="M1176 0h-1055l241 1516h1055zM651 1249l-157 -983h395l155 983h-393z" />
    <glyph glyph-name="braceright.c2sc" 
d="M1176 0h-1055l241 1516h1055zM651 1249l-157 -983h395l155 983h-393z" />
    <glyph glyph-name="bracketleft.c2sc" 
d="M1176 0h-1055l241 1516h1055zM651 1249l-157 -983h395l155 983h-393z" />
    <glyph glyph-name="bracketright.c2sc" 
d="M1176 0h-1055l241 1516h1055zM651 1249l-157 -983h395l155 983h-393z" />
    <glyph glyph-name="exclam.c2sc" 
d="M1176 0h-1055l241 1516h1055zM651 1249l-157 -983h395l155 983h-393z" />
    <glyph glyph-name="exclamdown.c2sc" 
d="M1176 0h-1055l241 1516h1055zM651 1249l-157 -983h395l155 983h-393z" />
    <glyph glyph-name="question.c2sc" 
d="M1176 0h-1055l241 1516h1055zM651 1249l-157 -983h395l155 983h-393z" />
    <glyph glyph-name="questiondown.c2sc" 
d="M1176 0h-1055l241 1516h1055zM651 1249l-157 -983h395l155 983h-393z" />
    <glyph glyph-name="quotedblleft.c2sc" 
d="M1176 0h-1055l241 1516h1055zM651 1249l-157 -983h395l155 983h-393z" />
    <glyph glyph-name="quotedblright.c2sc" 
d="M1176 0h-1055l241 1516h1055zM651 1249l-157 -983h395l155 983h-393z" />
    <glyph glyph-name="quoteleft.c2sc" 
d="M1176 0h-1055l241 1516h1055zM651 1249l-157 -983h395l155 983h-393z" />
    <glyph glyph-name="quoteright.c2sc" 
d="M1176 0h-1055l241 1516h1055zM651 1249l-157 -983h395l155 983h-393z" />
    <glyph glyph-name="slash.c2sc" 
d="M1176 0h-1055l241 1516h1055zM651 1249l-157 -983h395l155 983h-393z" />
    <glyph glyph-name="backslash.c2sc" 
d="M1176 0h-1055l241 1516h1055zM651 1249l-157 -983h395l155 983h-393z" />
    <glyph glyph-name="quotedbl.c2sc" 
d="M1176 0h-1055l241 1516h1055zM651 1249l-157 -983h395l155 983h-393z" />
    <glyph glyph-name="quotesingle.c2sc" 
d="M1176 0h-1055l241 1516h1055zM651 1249l-157 -983h395l155 983h-393z" />
    <glyph glyph-name="hyphen.subs" 
d="M1176 0h-1055l241 1516h1055zM651 1249l-157 -983h395l155 983h-393z" />
    <glyph glyph-name="parenleft.subs" 
d="M1176 0h-1055l241 1516h1055zM651 1249l-157 -983h395l155 983h-393z" />
    <glyph glyph-name="parenright.subs" 
d="M1176 0h-1055l241 1516h1055zM651 1249l-157 -983h395l155 983h-393z" />
    <glyph glyph-name="period.subs" 
d="M1176 0h-1055l241 1516h1055zM651 1249l-157 -983h395l155 983h-393z" />
    <glyph glyph-name="comma.subs" 
d="M1176 0h-1055l241 1516h1055zM651 1249l-157 -983h395l155 983h-393z" />
    <glyph glyph-name="hyphen.sups" 
d="M1176 0h-1055l241 1516h1055zM651 1249l-157 -983h395l155 983h-393z" />
    <glyph glyph-name="parenleft.sups" 
d="M1176 0h-1055l241 1516h1055zM651 1249l-157 -983h395l155 983h-393z" />
    <glyph glyph-name="parenright.sups" 
d="M1176 0h-1055l241 1516h1055zM651 1249l-157 -983h395l155 983h-393z" />
    <glyph glyph-name="period.sups" 
d="M1176 0h-1055l241 1516h1055zM651 1249l-157 -983h395l155 983h-393z" />
    <glyph glyph-name="comma.sups" 
d="M1176 0h-1055l241 1516h1055zM651 1249l-157 -983h395l155 983h-393z" />
    <glyph glyph-name="uni20BF.lf" 
d="M1176 0h-1055l241 1516h1055zM651 1249l-157 -983h395l155 983h-393z" />
    <glyph glyph-name="cent.lf" 
d="M1176 0h-1055l241 1516h1055zM651 1249l-157 -983h395l155 983h-393z" />
    <glyph glyph-name="dollar.lf" 
d="M1176 0h-1055l241 1516h1055zM651 1249l-157 -983h395l155 983h-393z" />
    <glyph glyph-name="Euro.lf" 
d="M1176 0h-1055l241 1516h1055zM651 1249l-157 -983h395l155 983h-393z" />
    <glyph glyph-name="florin.lf" 
d="M1176 0h-1055l241 1516h1055zM651 1249l-157 -983h395l155 983h-393z" />
    <glyph glyph-name="uni20BA.lf" 
d="M1176 0h-1055l241 1516h1055zM651 1249l-157 -983h395l155 983h-393z" />
    <glyph glyph-name="uni20B9.lf" 
d="M1176 0h-1055l241 1516h1055zM651 1249l-157 -983h395l155 983h-393z" />
    <glyph glyph-name="sterling.lf" 
d="M1176 0h-1055l241 1516h1055zM651 1249l-157 -983h395l155 983h-393z" />
    <glyph glyph-name="yen.lf" 
d="M1176 0h-1055l241 1516h1055zM651 1249l-157 -983h395l155 983h-393z" />
    <glyph glyph-name="arrowup.case" 
d="M1176 0h-1055l241 1516h1055zM651 1249l-157 -983h395l155 983h-393z" />
    <glyph glyph-name="uni2197.case" 
d="M1176 0h-1055l241 1516h1055zM651 1249l-157 -983h395l155 983h-393z" />
    <glyph glyph-name="arrowright.case" 
d="M1176 0h-1055l241 1516h1055zM651 1249l-157 -983h395l155 983h-393z" />
    <glyph glyph-name="uni2198.case" 
d="M1176 0h-1055l241 1516h1055zM651 1249l-157 -983h395l155 983h-393z" />
    <glyph glyph-name="arrowdown.case" 
d="M1176 0h-1055l241 1516h1055zM651 1249l-157 -983h395l155 983h-393z" />
    <glyph glyph-name="uni2199.case" 
d="M1176 0h-1055l241 1516h1055zM651 1249l-157 -983h395l155 983h-393z" />
    <glyph glyph-name="arrowleft.case" 
d="M1176 0h-1055l241 1516h1055zM651 1249l-157 -983h395l155 983h-393z" />
    <glyph glyph-name="uni2196.case" 
d="M1176 0h-1055l241 1516h1055zM651 1249l-157 -983h395l155 983h-393z" />
    <glyph glyph-name="arrowboth.case" 
d="M1176 0h-1055l241 1516h1055zM651 1249l-157 -983h395l155 983h-393z" />
    <glyph glyph-name="arrowupdn.case" 
d="M1176 0h-1055l241 1516h1055zM651 1249l-157 -983h395l155 983h-393z" />
    <glyph glyph-name="at.case" 
d="M1176 0h-1055l241 1516h1055zM651 1249l-157 -983h395l155 983h-393z" />
    <glyph glyph-name="ampersand.c2sc" 
d="M1176 0h-1055l241 1516h1055zM651 1249l-157 -983h395l155 983h-393z" />
    <glyph glyph-name="uni2116.c2sc" 
d="M1176 0h-1055l241 1516h1055zM651 1249l-157 -983h395l155 983h-393z" />
    <glyph glyph-name="uni20BF.c2sc" 
d="M1176 0h-1055l241 1516h1055zM651 1249l-157 -983h395l155 983h-393z" />
    <glyph glyph-name="cent.c2sc" 
d="M1176 0h-1055l241 1516h1055zM651 1249l-157 -983h395l155 983h-393z" />
    <glyph glyph-name="dollar.c2sc" 
d="M1176 0h-1055l241 1516h1055zM651 1249l-157 -983h395l155 983h-393z" />
    <glyph glyph-name="Euro.c2sc" 
d="M1176 0h-1055l241 1516h1055zM651 1249l-157 -983h395l155 983h-393z" />
    <glyph glyph-name="uni20BA.c2sc" 
d="M1176 0h-1055l241 1516h1055zM651 1249l-157 -983h395l155 983h-393z" />
    <glyph glyph-name="percent.c2sc" 
d="M1176 0h-1055l241 1516h1055zM651 1249l-157 -983h395l155 983h-393z" />
    <glyph glyph-name="perthousand.c2sc" 
d="M1176 0h-1055l241 1516h1055zM651 1249l-157 -983h395l155 983h-393z" />
    <glyph glyph-name="uni20B9.c2sc" 
d="M1176 0h-1055l241 1516h1055zM651 1249l-157 -983h395l155 983h-393z" />
    <glyph glyph-name="sterling.c2sc" 
d="M1176 0h-1055l241 1516h1055zM651 1249l-157 -983h395l155 983h-393z" />
    <glyph glyph-name="yen.c2sc" 
d="M1176 0h-1055l241 1516h1055zM651 1249l-157 -983h395l155 983h-393z" />
    <glyph glyph-name="multiply.subs" 
d="M1176 0h-1055l241 1516h1055zM651 1249l-157 -983h395l155 983h-393z" />
    <glyph glyph-name="divide.subs" 
d="M1176 0h-1055l241 1516h1055zM651 1249l-157 -983h395l155 983h-393z" />
    <glyph glyph-name="multiply.sups" 
d="M1176 0h-1055l241 1516h1055zM651 1249l-157 -983h395l155 983h-393z" />
    <glyph glyph-name="divide.sups" 
d="M1176 0h-1055l241 1516h1055zM651 1249l-157 -983h395l155 983h-393z" />
    <glyph glyph-name="florin.c2sc" 
d="M1176 0h-1055l241 1516h1055zM651 1249l-157 -983h395l155 983h-393z" />
    <glyph glyph-name="uni030C.alt" 
d="M1176 0h-1055l241 1516h1055zM651 1249l-157 -983h395l155 983h-393z" />
    <glyph glyph-name="uni0308.case" 
d="M1176 0h-1055l241 1516h1055zM651 1249l-157 -983h395l155 983h-393z" />
    <glyph glyph-name="uni0307.case" 
d="M1176 0h-1055l241 1516h1055zM651 1249l-157 -983h395l155 983h-393z" />
    <glyph glyph-name="gravecomb.case" 
d="M1176 0h-1055l241 1516h1055zM651 1249l-157 -983h395l155 983h-393z" />
    <glyph glyph-name="acutecomb.case" 
d="M1176 0h-1055l241 1516h1055zM651 1249l-157 -983h395l155 983h-393z" />
    <glyph glyph-name="uni030B.case" 
d="M1176 0h-1055l241 1516h1055zM651 1249l-157 -983h395l155 983h-393z" />
    <glyph glyph-name="uni030C.alt.case" 
d="M1176 0h-1055l241 1516h1055zM651 1249l-157 -983h395l155 983h-393z" />
    <glyph glyph-name="uni0302.case" 
d="M1176 0h-1055l241 1516h1055zM651 1249l-157 -983h395l155 983h-393z" />
    <glyph glyph-name="uni030C.case" 
d="M1176 0h-1055l241 1516h1055zM651 1249l-157 -983h395l155 983h-393z" />
    <glyph glyph-name="uni0306.case" 
d="M1176 0h-1055l241 1516h1055zM651 1249l-157 -983h395l155 983h-393z" />
    <glyph glyph-name="uni030A.case" 
d="M1176 0h-1055l241 1516h1055zM651 1249l-157 -983h395l155 983h-393z" />
    <glyph glyph-name="tildecomb.case" 
d="M1176 0h-1055l241 1516h1055zM651 1249l-157 -983h395l155 983h-393z" />
    <glyph glyph-name="uni0304.case" 
d="M1176 0h-1055l241 1516h1055zM651 1249l-157 -983h395l155 983h-393z" />
    <glyph glyph-name="uni0308.narrow" 
d="M1176 0h-1055l241 1516h1055zM651 1249l-157 -983h395l155 983h-393z" />
    <glyph glyph-name="gravecomb.narrow" 
d="M1176 0h-1055l241 1516h1055zM651 1249l-157 -983h395l155 983h-393z" />
    <glyph glyph-name="acutecomb.narrow" 
d="M1176 0h-1055l241 1516h1055zM651 1249l-157 -983h395l155 983h-393z" />
    <glyph glyph-name="uni0302.narrow" 
d="M1176 0h-1055l241 1516h1055zM651 1249l-157 -983h395l155 983h-393z" />
    <glyph glyph-name="uni0306.narrow" 
d="M1176 0h-1055l241 1516h1055zM651 1249l-157 -983h395l155 983h-393z" />
    <glyph glyph-name="tildecomb.narrow" 
d="M1176 0h-1055l241 1516h1055zM651 1249l-157 -983h395l155 983h-393z" />
    <glyph glyph-name="uni0304.narrow" 
d="M1176 0h-1055l241 1516h1055zM651 1249l-157 -983h395l155 983h-393z" />
    <glyph glyph-name="uni0328.narrow" 
d="M1176 0h-1055l241 1516h1055zM651 1249l-157 -983h395l155 983h-393z" />
    <glyph glyph-name="uni0308.case.narrow" 
d="M1176 0h-1055l241 1516h1055zM651 1249l-157 -983h395l155 983h-393z" />
    <glyph glyph-name="gravecomb.case.narrow" 
d="M1176 0h-1055l241 1516h1055zM651 1249l-157 -983h395l155 983h-393z" />
    <glyph glyph-name="acutecomb.case.narrow" 
d="M1176 0h-1055l241 1516h1055zM651 1249l-157 -983h395l155 983h-393z" />
    <glyph glyph-name="uni0302.case.narrow" 
d="M1176 0h-1055l241 1516h1055zM651 1249l-157 -983h395l155 983h-393z" />
    <glyph glyph-name="uni0306.case.narrow" 
d="M1176 0h-1055l241 1516h1055zM651 1249l-157 -983h395l155 983h-393z" />
    <glyph glyph-name="tildecomb.case.narrow" 
d="M1176 0h-1055l241 1516h1055zM651 1249l-157 -983h395l155 983h-393z" />
    <glyph glyph-name="uni0304.case.narrow" 
d="M1176 0h-1055l241 1516h1055zM651 1249l-157 -983h395l155 983h-393z" />
    <glyph glyph-name="ringacutecomb" 
d="M1176 0h-1055l241 1516h1055zM651 1249l-157 -983h395l155 983h-393z" />
    <glyph glyph-name="ringacutecomb.case" 
d="M1176 0h-1055l241 1516h1055zM651 1249l-157 -983h395l155 983h-393z" />
    </font>
</defs>
</svg>
