<svg id="Group_167" data-name="Group 167" xmlns="http://www.w3.org/2000/svg" width="114.955" height="111.304" viewBox="0 0 114.955 111.304">
  <path id="Path_14516" data-name="Path 14516" d="M55.5,0h1.7A1.58,1.58,0,0,0,59.2,1.117c4.721-1.322,9.123.42,13.7,1.054A36.7,36.7,0,0,1,87.744,7.707a56.68,56.68,0,0,1,25.649,35.534c.584,2.37,1.045,4.771,1.563,7.158V62.857c-.662.68-.5,1.588-.644,2.4-3.486,19.306-13.88,33.534-31.321,42.554a33.882,33.882,0,0,1-9.8,3.489c4.961-4.178,11.77-5.809,15.933-11.349-1.071-.5-1.522.156-2.041.441-3.38,1.857-6.731,3.765-10.1,5.633-.833.461-1.98.979-2.5-.041-.689-1.345,1.642.118,1.317-1.459-1.1-.3-1.983.464-2.922.918-3.188,1.541-6.257,3.368-9.678,4.364-7.159,2.084-14.349,1.62-21.416-.332-2.113-.584-4.362.808-5.978-.291-2.133-1.45-4.632-1.8-6.763-3.1C13.166,96.429,3.629,82.559.917,64.087.69,62.54.983,60.864,0,59.46V53.231c.883-.71.54-1.74.641-2.629A56.822,56.822,0,0,1,15.157,18.095c.634-.7,1.15-1.639,2.186-1.831,1.129,1.748-1.378,2.436-.849,4.1,1.232-.7,1.768-1.981,2.851-2.725,3.4-2.338,6.646-4.906,10-7.313,4.9-3.512,9.228-8.081,15.813-8.48-.992,1.4-3.47,1.662-3.693,4.385,1.68-.907,2.963-1.688,4.318-2.31,3-1.377,5.641-3.762,9.509-2.448,1.36.462.158-.935.2-1.472M83.6,100.175l-.285-.629c-2.4.668-4.263,2.374-6.317,3.7a.81.81,0,0,0-.115,1.238c.432.532.825.174,1.186-.1q2.773-2.095,5.531-4.209" transform="translate(-0.001)" fill="#fbebc0"/>
</svg>
