<svg xmlns="http://www.w3.org/2000/svg" width="150.903" height="150.903" viewBox="0 0 150.903 150.903">
  <g id="Group_934" data-name="Group 934" transform="translate(-1082.323 -1347.413)">
    <path id="Path_546" data-name="Path 546" d="M823.442,486.266V477.19H815.57a69.063,69.063,0,0,0-1.894-12.043l7.465-2.412-2.8-8.635-7.48,2.431a67.882,67.882,0,0,0-5.531-10.854l6.352-4.626-5.044-6.953-.3-.395-.051.053-6.3,4.571a69.055,69.055,0,0,0-8.617-8.617l4.573-6.294.051-.058-.393-.289-6.949-5.044-4.631,6.371a66.314,66.314,0,0,0-10.845-5.553l2.429-7.477-8.64-2.8-2.412,7.46a67.359,67.359,0,0,0-12.041-1.87v-7.894h-9.079v7.894a67.118,67.118,0,0,0-12.026,1.87l-2.431-7.46-8.622,2.8,2.433,7.477a68.92,68.92,0,0,0-10.865,5.529l-4.632-6.347-7.329,5.333,4.629,6.352a69.055,69.055,0,0,0-8.617,8.617l-6.371-4.624-.017.032-5.314,7.315,6.369,4.626a65.847,65.847,0,0,0-5.534,10.854l-7.477-2.431-2.819,8.635,7.478,2.412a67.645,67.645,0,0,0-1.888,12.043h-7.871v9.076h7.871A67.514,67.514,0,0,0,682.3,498.3l-7.478,2.429,2.819,8.635,7.477-2.429a67.326,67.326,0,0,0,5.534,10.85l-6.369,4.627,5.332,7.329,1.16-.834,5.211-3.794a64.866,64.866,0,0,0,8.6,8.62l-3.78,5.207-.834,1.16,7.329,5.338,4.632-6.371a69.421,69.421,0,0,0,10.845,5.553l-2.428,7.477,8.637,2.79,2.431-7.473a67.594,67.594,0,0,0,12.026,1.887v7.873h9.079V549.3a67.62,67.62,0,0,0,12.041-1.887L767,554.885l8.62-2.81-2.429-7.477a67.256,67.256,0,0,0,10.866-5.532l4.61,6.371L796,540.1l-4.624-6.368a67.622,67.622,0,0,0,8.617-8.62l6.371,4.627,5.335-7.329-6.368-4.627a69.456,69.456,0,0,0,5.531-10.85l7.48,2.429,2.8-8.635-7.465-2.429a68.929,68.929,0,0,0,1.894-12.031ZM747.98,533.731a52.01,52.01,0,1,1,52.017-52A51.994,51.994,0,0,1,747.98,533.731Z" transform="translate(409.783 941.144)" fill="#fff"/>
    <path id="Path_547" data-name="Path 547" d="M735.933,423.473a46.185,46.185,0,1,0,46.182,46.184A46.189,46.189,0,0,0,735.933,423.473Zm0,62.434a16.249,16.249,0,1,1,16.246-16.25A16.247,16.247,0,0,1,735.933,485.907Z" transform="translate(421.845 953.208)" fill="#fff"/>
  </g>
</svg>
