<svg xmlns="http://www.w3.org/2000/svg" xmlns:xlink="http://www.w3.org/1999/xlink" width="120" height="120" viewBox="0 0 120 120">
  <defs>
    <clipPath id="clip-path">
      <rect id="Rectangle_108" data-name="Rectangle 108" width="97.715" height="98.945" fill="#7e3f98"/>
    </clipPath>
    <clipPath id="clip-Icon_01">
      <rect width="120" height="120"/>
    </clipPath>
  </defs>
  <g id="Icon_01" data-name="Icon 01" clip-path="url(#clip-Icon_01)">
    <rect width="120" height="120" fill="rgba(255,255,255,0)"/>
    <g id="Group_162" data-name="Group 162" transform="translate(2.522 4.348)">
      <path id="Path_14516" data-name="Path 14516" d="M55.5,0h1.7A1.58,1.58,0,0,0,59.2,1.117c4.721-1.322,9.123.42,13.7,1.054A36.7,36.7,0,0,1,87.744,7.707a56.68,56.68,0,0,1,25.649,35.534c.584,2.37,1.045,4.771,1.563,7.158V62.857c-.662.68-.5,1.588-.644,2.4-3.486,19.306-13.88,33.534-31.321,42.554a33.882,33.882,0,0,1-9.8,3.489c4.961-4.178,11.77-5.809,15.933-11.349-1.071-.5-1.522.156-2.041.441-3.38,1.857-6.731,3.765-10.1,5.633-.833.461-1.98.979-2.5-.041-.689-1.345,1.642.118,1.317-1.459-1.1-.3-1.983.464-2.922.918-3.188,1.541-6.257,3.368-9.678,4.364-7.159,2.084-14.349,1.62-21.416-.332-2.113-.584-4.362.808-5.978-.291-2.133-1.45-4.632-1.8-6.763-3.1C13.166,96.429,3.629,82.559.917,64.087.69,62.54.983,60.864,0,59.46V53.231c.883-.71.54-1.74.641-2.629A56.822,56.822,0,0,1,15.157,18.095c.634-.7,1.15-1.639,2.186-1.831,1.129,1.748-1.378,2.436-.849,4.1,1.232-.7,1.768-1.981,2.851-2.725,3.4-2.338,6.646-4.906,10-7.313,4.9-3.512,9.228-8.081,15.813-8.48-.992,1.4-3.47,1.662-3.693,4.385,1.68-.907,2.963-1.688,4.318-2.31,3-1.377,5.641-3.762,9.509-2.448,1.36.462.158-.935.2-1.472M83.6,100.175l-.285-.629c-2.4.668-4.263,2.374-6.317,3.7a.81.81,0,0,0-.115,1.238c.432.532.825.174,1.186-.1q2.773-2.095,5.531-4.209" transform="translate(-0.001)" fill="#fbebc0"/>
    </g>
    <g id="Group_83" data-name="Group 83" transform="translate(10.522 10.527)">
      <g id="Group_82" data-name="Group 82" clip-path="url(#clip-path)">
        <path id="Path_13975" data-name="Path 13975" d="M84.657,486.553c-.054-.756-.138-1.512-.155-2.269-.026-1.181-.007-2.362-.007-3.56h2.289v5.829Z" transform="translate(-68.122 -387.608)" fill="#7e3f98"/>
        <path id="Path_13976" data-name="Path 13976" d="M4.373,0H6.765V15.636H37.351V.032h2.191c.019.328.05.668.055,1.008q.114,7.586.22,15.173c.018,1.283-.344,1.64-1.662,1.684-.219.007-.439.029-.73.048,0,1.829-.036,3.626.013,5.421a2.663,2.663,0,0,1-1.1,2.673l1.627,3.192,16.027-6.679c-4.726-3.256-4.761-7.928-3.434-10.821a8.343,8.343,0,0,1,9.032-4.782,8.069,8.069,0,0,1,5.636,3.7c1.342,2.019,1.256,4.313,1.168,6.721l15.127-6.309c.148.3.284.54.39.793q7.61,18.187,15.213,36.378c1.347,3.225.394,5.572-2.8,6.98-.173.076-.339.166-.583.286.315,1.022.661,2.017.916,3.034a3.169,3.169,0,0,1,.061,1.492c-.977,3.795-1.958,7.59-3.04,11.355a24.547,24.547,0,0,1-1.406,3.248,17.123,17.123,0,0,1,.616,2.774c.091,1.793.027,3.595.027,5.323.172.1.223.153.277.155,2.177.1,2.244.186,2.271,2.36.053,4.123.121,8.247.182,12.37.005.345,0,.691,0,1.084H91.255V85.386H60.67V98.679h-2.3c0-.86.008-1.689,0-2.518q-.061-5.557-.131-11.114c-.022-1.65.2-1.887,1.869-1.929.128,0,.256-.02.471-.037,0-1.793.038-3.585-.014-5.375-.032-1.122.093-2.13.971-2.687l-2.12-5.335c-.69.443-1.447.932-2.207,1.415a11.677,11.677,0,0,1-1.39.851c-4.129,1.867-8.273,3.7-12.4,5.573-.79.358-1.528.554-2.226-.12s-.53-1.417-.208-2.221a6.037,6.037,0,1,0-11.376-3.989,5.261,5.261,0,0,0,1.12,5.316,27.358,27.358,0,0,0,2.718,2.452c1.213,1,1.16,2.474-.246,3.114-5.233,2.383-10.491,4.711-15.836,7.1-.168-.348-.324-.652-.464-.963C11.5,76.16,6.154,64.079.661,52.066-.964,48.514.568,45.6,3.492,44.63a4.256,4.256,0,0,0,.547-.3c-1.442-2.106-.546-4.182.03-6.274.623-2.26,1.17-4.543,1.848-6.786.526-1.737,1.2-3.429,1.872-5.311a3.444,3.444,0,0,1-.7-2.594c.033-1.7.009-3.407.009-5.046-.139-.1-.186-.165-.237-.169-2.294-.162-2.281-.162-2.307-2.516q-.08-7.249-.185-14.5c0-.347,0-.695,0-1.14M43.65,74.858c3.737-1.673,7.371-3.3,11-4.925,1.424-.638,1.637-1.2.993-2.644q-2.458-5.5-4.922-11c-1.215-2.714-.484-3.709,2.468-3.445a7.674,7.674,0,0,0,4.692-.747,5.874,5.874,0,0,0-3.47-10.845,5.971,5.971,0,0,0-5.46,4.075c-.449,1.189-1.418,1.715-2.305,1.171a2.837,2.837,0,0,1-.98-1.242c-1.893-4.258-3.745-8.534-5.615-12.8-.529-1.208-.782-1.3-1.984-.765Q28.834,35.827,19.6,39.982a3.664,3.664,0,0,0-.917.66c-1.039.949-2.073,1.9-3.08,2.888a1.056,1.056,0,0,0-.329.759c.364,2.415.728,4.833,1.183,7.232a8.959,8.959,0,0,1-.962,6.435,4.426,4.426,0,0,1-4.556,2.1c-1.6-.148-2.424-1.24-2.876-2.728C7.18,54.409,6.229,51.509,5.3,48.6c-.2-.629-.426-1.25-.639-1.872-2.4.837-2.912,2.017-1.919,4.238Q10.4,68.088,18.061,85.205c.127.285.275.56.449.912l12.8-5.743c-4.58-4.5-5.442-7.855-3.111-11.779a8.39,8.39,0,0,1,9.611-3.7c4.129,1.239,6.122,4.584,5.841,9.967m49.32-21.7c2.258-.648,2.885-1.917,2.03-3.963Q89.648,36.39,84.286,23.589c-1.313-3.139-2.622-6.279-3.963-9.492-.317.126-.575.224-.83.331q-6.4,2.673-12.8,5.354a1.874,1.874,0,0,1-2.084-.125,2.06,2.06,0,0,1-.644-2.009,22.032,22.032,0,0,0,.134-2.791,5.861,5.861,0,0,0-7.374-5.531,6.042,6.042,0,0,0-.7,11.525c.791.307,1.476.654,1.5,1.649.021,1.039-.68,1.438-1.5,1.767q-2.68,1.084-5.351,2.19-4.531,1.87-9.061,3.749l5.7,12.734c3.182-4.051,6.686-5.3,10.5-3.811a8.323,8.323,0,0,1,5.283,8.756,8.657,8.657,0,0,1-2.067,4.9c-2.083,2.47-4.9,2.954-8.043,2.8l5.331,12.123c.29-.1.473-.162.65-.235Q67.681,63.842,76.4,60.2c1.63-.681,3.27-1.341,4.888-2.051,1.461-.641,1.587-.932,1.305-2.456-.158-.853-.313-1.707-.437-2.566a53.92,53.92,0,0,1-.792-6.014c-.091-3.092,1.45-5.279,3.889-6.015a3.4,3.4,0,0,1,4.6,2.4C90.885,46.7,91.92,49.9,92.97,53.159M78.349,61.892c-5.488,2.289-10.707,4.458-15.911,6.662a.958.958,0,0,0-.438.784,8.576,8.576,0,0,0,2.173,4.846,1.5,1.5,0,0,0,.982.433q10.824.036,21.648.007a.99.99,0,0,0,.744-.275,16.329,16.329,0,0,0,1.8-3.383c1.088-3.628,2.01-7.306,2.965-10.973a2.459,2.459,0,0,0-.022-1.292c-1.518-4.808-3.068-9.606-4.613-14.406-.331-1.028-.917-1.379-1.9-.946a2.625,2.625,0,0,0-1.4,1.2,8.415,8.415,0,0,0-.661,3.523c.377,3.253,1.009,6.477,1.57,9.707a.825.825,0,0,1-.58,1.093,7.951,7.951,0,0,0-4.081,3.8c-.37.7-.75,1.4-1.151,2.153l-2.059-.974.933-1.96M35.9,30.148c-.636-1.1-1.134-2.1-1.783-3a1.811,1.811,0,0,0-1.272-.591c-1.7-.047-3.411.024-5.118.035-5.473.036-10.946.06-16.419.11-.35,0-.869.081-1.019.312a11.818,11.818,0,0,0-1.6,2.94c-1.083,3.7-2.028,7.431-3,11.158a2.1,2.1,0,0,0,.023,1.1c1.536,4.867,3.108,9.722,4.643,14.589.271.859.854,1.193,1.6.912.622-.232,1.427-.649,1.632-1.183a8.108,8.108,0,0,0,.708-3.6c-.362-3.252-.98-6.478-1.553-9.7-.116-.651.069-.9.637-1.136a8.357,8.357,0,0,0,3.633-3.074A2.587,2.587,0,0,1,18,38.177c2.066-.965,4.155-1.883,6.237-2.815,3.808-1.7,7.616-3.4,11.667-5.215m-.8-5.943c0-1.914-.042-3.62.019-5.323.029-.808-.281-.97-1.009-.957-3.7.065-7.4.1-11.106.125-4.217.034-8.435.043-12.652.1-.32,0-.906.3-.912.477-.067,1.881-.041,3.765-.041,5.578Zm27.83,52.843c0,1.74.046,3.347-.018,4.949-.035.875.286,1.093,1.111,1.074,3.377-.077,6.755-.108,10.132-.132,4.472-.032,8.944-.033,13.416-.077.357,0,1.017-.229,1.022-.371.07-1.814.046-3.631.046-5.443Z" transform="translate(0)" fill="#7e3f98"/>
        <path id="Path_13977" data-name="Path 13977" d="M422.566,6.813h-2.351V1.077a13.87,13.87,0,0,1,1.869.03.819.819,0,0,1,.461.629c.039,1.667.021,3.335.021,5.077" transform="translate(-338.819 -0.856)" fill="#7e3f98"/>
        <path id="Path_13978" data-name="Path 13978" d="M40.875,464.471,38.22,469.6l-2.064-1.039L38.8,463.42l2.075,1.051" transform="translate(-29.153 -373.656)" fill="#7e3f98"/>
        <path id="Path_13979" data-name="Path 13979" d="M376.246,21.6l-2.059,1.062-2.663-5.142,2.066-1.061,2.656,5.141" transform="translate(-299.56 -13.268)" fill="#7e3f98"/>
        <path id="Path_13980" data-name="Path 13980" d="M459,23.071,456.942,22l2.639-5.126,2.067,1.044L459,23.071" transform="translate(-368.432 -13.601)" fill="#7e3f98"/>
        <path id="Path_13981" data-name="Path 13981" d="M126.2,468.081l-2.057,1.07-2.652-5.136,2.049-1.073,2.66,5.139" transform="translate(-97.958 -373.27)" fill="#7e3f98"/>
      </g>
    </g>
  </g>
</svg>
