<svg xmlns="http://www.w3.org/2000/svg" width="111.664" height="162.29" viewBox="0 0 111.664 162.29">
  <g id="Group_937" data-name="Group 937" transform="translate(-1104.795 -1715.884)">
    <path id="Path_609" data-name="Path 609" d="M770.805,622.864H699.236c-1.934,0-3.506,1.179-3.506,2.632v.054c0,1.453,1.572,2.628,3.506,2.628h71.569c1.938,0,3.5-1.175,3.5-2.628V625.5C774.31,624.043,772.743,622.864,770.805,622.864Z" transform="translate(426.045 1093.02)" fill="#fff"/>
    <g id="Group_935" data-name="Group 935">
      <g id="Group_923" data-name="Group 923" transform="translate(1138.978 1821.997)">
        <path id="Path_607" data-name="Path 607" d="M750.02,726.8H705.842V695.639a10.411,10.411,0,0,1,10.4-10.4h23.373a10.413,10.413,0,0,1,10.4,10.4Z" transform="translate(-705.842 -685.24)" fill="#fff"/>
      </g>
      <path id="Path_608" data-name="Path 608" d="M753.96,722.869h-48.1c-1.567,0-2.843-2.475-2.843-5.529v-.114c0-3.055,1.276-5.534,2.843-5.534h48.1c1.572,0,2.844,2.479,2.844,5.534v.114C756.8,720.394,755.532,722.869,753.96,722.869Z" transform="translate(431.155 1155.305)" fill="#fff"/>
      <path id="Path_610" data-name="Path 610" d="M711.422,678.759v7.589h25.195v-7.6a24.537,24.537,0,0,1-25.195.007Z" transform="translate(437.048 1132.208)" fill="#fff"/>
      <path id="Path_611" data-name="Path 611" d="M795.554,636.969a8.693,8.693,0,0,0-6.893-3.358H777.653c-.223-1.853-.471-3.683-.774-5.473h-69.72c-.3,1.79-.549,3.62-.769,5.473H694.5a8.747,8.747,0,0,0-8.489,10.855l7.436,29.938a20.251,20.251,0,0,0,19.69,15.4h.635c4.086,9.134,9.476,16.258,15.653,20.408a21.493,21.493,0,0,0,25.195-.008c6.175-4.153,11.563-11.277,15.654-20.413A20.243,20.243,0,0,0,789.717,674.4l7.436-29.938A8.712,8.712,0,0,0,795.554,636.969Zm-84,47.594a15.1,15.1,0,0,1-13.1-11.4l-7.436-29.936a3.586,3.586,0,0,1,3.481-4.452h11.4c-.219,2.938-.347,5.929-.347,8.981a108.7,108.7,0,0,0,6.005,36.506ZM732.8,700.019c-11.7-19.7-14-40.621-13.531-57.582a1.7,1.7,0,0,1,1.7-1.642c.024,0,.044,0,.066,0h.037a1.694,1.694,0,0,1,1.631,1.747c-.536,16.6.537,38.529,11.784,57.475Zm59.346-56.794-7.433,29.936a15.08,15.08,0,0,1-12.288,11.253,108.506,108.506,0,0,0,6.068-36.661c0-3.052-.131-6.043-.345-8.981h10.517a3.584,3.584,0,0,1,3.481,4.452Z" transform="translate(419.046 1096.717)" fill="#fff"/>
    </g>
  </g>
</svg>
