<svg xmlns="http://www.w3.org/2000/svg" xmlns:xlink="http://www.w3.org/1999/xlink" width="114.955" height="111.304" viewBox="0 0 114.955 111.304">
  <defs>
    <clipPath id="clip-path">
      <rect id="Rectangle_121" data-name="Rectangle 121" width="70.661" height="74.951" fill="#7f4197"/>
    </clipPath>
  </defs>
  <g id="Group_207" data-name="Group 207" transform="translate(-196 -4658.572)">
    <g id="Group_107" data-name="Group 107" transform="translate(196 4658.572)">
      <g id="Group_106" data-name="Group 106" transform="translate(0.001)">
        <path id="Path_14516" data-name="Path 14516" d="M55.5,0h1.7A1.58,1.58,0,0,0,59.2,1.117c4.721-1.322,9.123.42,13.7,1.054A36.7,36.7,0,0,1,87.744,7.707a56.68,56.68,0,0,1,25.649,35.534c.584,2.37,1.045,4.771,1.563,7.158V62.857c-.662.68-.5,1.588-.644,2.4-3.486,19.306-13.88,33.534-31.321,42.554a33.882,33.882,0,0,1-9.8,3.489c4.961-4.178,11.77-5.809,15.933-11.349-1.071-.5-1.522.156-2.041.441-3.38,1.857-6.731,3.765-10.1,5.633-.833.461-1.98.979-2.5-.041-.689-1.345,1.642.118,1.317-1.459-1.1-.3-1.983.464-2.922.918-3.188,1.541-6.257,3.368-9.678,4.364-7.159,2.084-14.349,1.62-21.416-.332-2.113-.584-4.362.808-5.978-.291-2.133-1.45-4.632-1.8-6.763-3.1C13.166,96.429,3.629,82.559.917,64.087.69,62.54.983,60.864,0,59.46V53.231c.883-.71.54-1.74.641-2.629A56.822,56.822,0,0,1,15.157,18.095c.634-.7,1.15-1.639,2.186-1.831,1.129,1.748-1.378,2.436-.849,4.1,1.232-.7,1.768-1.981,2.851-2.725,3.4-2.338,6.646-4.906,10-7.313,4.9-3.512,9.228-8.081,15.813-8.48-.992,1.4-3.47,1.662-3.693,4.385,1.68-.907,2.963-1.688,4.318-2.31,3-1.377,5.641-3.762,9.509-2.448,1.36.462.158-.935.2-1.472M83.6,100.175l-.285-.629c-2.4.668-4.263,2.374-6.317,3.7a.81.81,0,0,0-.115,1.238c.432.532.825.174,1.186-.1q2.773-2.095,5.531-4.209" transform="translate(-0.001)" fill="#f5d47b"/>
      </g>
    </g>
    <g id="Group_120" data-name="Group 120" transform="translate(218.154 4678.049)">
      <g id="Group_119" data-name="Group 119" clip-path="url(#clip-path)">
        <path id="Path_14566" data-name="Path 14566" d="M58.762,83.413l5.081-5.48,5.105-5.456a5.19,5.19,0,0,1,6.211-.107,5.044,5.044,0,0,1,.643,6.878c-1.341,1.964-2.826,3.74-4.308,5.539-2.528,3.045-5.347,6.264-7.972,9.239A13.845,13.845,0,0,1,53.9,98.714c-1.221.064-4.027.051-5.276.064.068-.045-14.167.08-13.855.041a8.107,8.107,0,0,0-5.477,3.327l-.581.779-.678-.655-13.6-13.147-.376-.364.174-.49.191-.538.023-.065.023-.04a18.954,18.954,0,0,1,10.418-8.437,21.413,21.413,0,0,1,13.314.368c-1.046-.093,16.659.222,16.415.193,4.508.5,6.234,6.452,2.568,9.168a4.025,4.025,0,0,1-2.814.753c-4.143-.064-11.59-.205-15.737-.3,4.566-.131,12.067-.2,16.616-.343,3.028-.534,3.953-4.489,2.155-6.734a4.614,4.614,0,0,0-2.792-1.555L38,80.861c-4.107-1.182-8.537-1.662-12.636-.235a17.7,17.7,0,0,0-9.456,7.75c.154-.373-.154.44-.143.433l-.2-.855L29.19,101.072l-1.259.124a9.659,9.659,0,0,1,4.727-3.542,8.461,8.461,0,0,1,2.045-.468l13.932.042c1.17,0,4.046.044,5.167,0a12.9,12.9,0,0,0,8.131-3.466c2.886-3.124,5.945-6.475,8.728-9.68,1.506-1.75,3.036-3.513,4.352-5.357a4.215,4.215,0,0,0-.383-5.772c-1.419-1.255-3.774-1.025-5.266-.07l-5.289,5.279Z" transform="translate(-6.201 -31.487)" fill="#7f4197"/>
        <path id="Path_14567" data-name="Path 14567" d="M23.96,114.994a9.628,9.628,0,0,1-13.288,1.137c-1.581-1.322-3.731-3.43-5.263-4.833-1.738-1.609-3.439-3.256-5.154-4.888a.822.822,0,0,1-.021-1.17q1.625-1.715,3.283-3.4l3.3-3.382a.785.785,0,0,1,1.121-.026c.005,0,4.08,4.066,4.085,4.066,3.919,3.979,8.217,8.363,11.936,12.5m0,0c-4.254-3.566-8.809-7.7-12.917-11.478l-4.2-3.931,1.127-.02c-1.917,2.026-4.621,4.855-6.539,6.823l-.021-1.17c2.454,2.379,5.158,5.047,7.589,7.479.714.695,1.771,1.84,2.487,2.477a9.389,9.389,0,0,0,12.481-.181" transform="translate(0 -43.317)" fill="#7f4197"/>
        <path id="Path_14568" data-name="Path 14568" d="M57.558,2.9A21.772,21.772,0,1,1,33.72,4.245,21.814,21.814,0,0,1,57.558,2.9m0,0A20.981,20.981,0,0,0,26.284,18.687c-1.935,18.161,18.5,29.955,33.253,19.193A20.984,20.984,0,0,0,57.558,2.9" transform="translate(-10.992 0)" fill="#7f4197"/>
        <path id="Path_14569" data-name="Path 14569" d="M65.53,22.677c-2.88-1.329-6.789-2.307-9.354.067-1.272,1.191-1.79,3.214-.406,4.508A8.623,8.623,0,0,0,60.4,29.029a6.7,6.7,0,0,1,3.409,1.256c2.1,1.473,2.972,4.7,1.3,6.821a6.371,6.371,0,0,1-5.6,2.152,8.392,8.392,0,0,1-6.456-3.12,9.293,9.293,0,0,0,8.7,1.78c4.5-1.628,2.994-6.958-1.578-7.233-2.916-.392-6.871-1.837-6.693-5.43a5.249,5.249,0,0,1,2.828-4.1c3.021-1.586,6.643-.334,9.225,1.52" transform="translate(-23.399 -9.012)" fill="#7f4197"/>
        <path id="Path_14570" data-name="Path 14570" d="M63.53,15.63a85.619,85.619,0,0,1,0,24.312,85.619,85.619,0,0,1,0-24.312" transform="translate(-27.638 -6.894)" fill="#7f4197"/>
      </g>
    </g>
  </g>
</svg>
