<svg xmlns="http://www.w3.org/2000/svg" xmlns:xlink="http://www.w3.org/1999/xlink" width="114.955" height="111.304" viewBox="0 0 114.955 111.304">
  <defs>
    <clipPath id="clip-path">
      <rect id="Rectangle_120" data-name="Rectangle 120" width="77.412" height="82.881" fill="#7f4197"/>
    </clipPath>
  </defs>
  <g id="Group_208" data-name="Group 208" transform="translate(-196 -4801.941)">
    <g id="Group_111" data-name="Group 111" transform="translate(196 4801.941)">
      <g id="Group_106" data-name="Group 106" transform="translate(0.001)">
        <path id="Path_14516" data-name="Path 14516" d="M55.5,0h1.7A1.58,1.58,0,0,0,59.2,1.117c4.721-1.322,9.123.42,13.7,1.054A36.7,36.7,0,0,1,87.744,7.707a56.68,56.68,0,0,1,25.649,35.534c.584,2.37,1.045,4.771,1.563,7.158V62.857c-.662.68-.5,1.588-.644,2.4-3.486,19.306-13.88,33.534-31.321,42.554a33.882,33.882,0,0,1-9.8,3.489c4.961-4.178,11.77-5.809,15.933-11.349-1.071-.5-1.522.156-2.041.441-3.38,1.857-6.731,3.765-10.1,5.633-.833.461-1.98.979-2.5-.041-.689-1.345,1.642.118,1.317-1.459-1.1-.3-1.983.464-2.922.918-3.188,1.541-6.257,3.368-9.678,4.364-7.159,2.084-14.349,1.62-21.416-.332-2.113-.584-4.362.808-5.978-.291-2.133-1.45-4.632-1.8-6.763-3.1C13.166,96.429,3.629,82.559.917,64.087.69,62.54.983,60.864,0,59.46V53.231c.883-.71.54-1.74.641-2.629A56.822,56.822,0,0,1,15.157,18.095c.634-.7,1.15-1.639,2.186-1.831,1.129,1.748-1.378,2.436-.849,4.1,1.232-.7,1.768-1.981,2.851-2.725,3.4-2.338,6.646-4.906,10-7.313,4.9-3.512,9.228-8.081,15.813-8.48-.992,1.4-3.47,1.662-3.693,4.385,1.68-.907,2.963-1.688,4.318-2.31,3-1.377,5.641-3.762,9.509-2.448,1.36.462.158-.935.2-1.472M83.6,100.175l-.285-.629c-2.4.668-4.263,2.374-6.317,3.7a.81.81,0,0,0-.115,1.238c.432.532.825.174,1.186-.1q2.773-2.095,5.531-4.209" transform="translate(-0.001)" fill="#f5d47b"/>
      </g>
    </g>
    <g id="Group_118" data-name="Group 118" transform="translate(217 4813.311)">
      <g id="Group_117" data-name="Group 117" clip-path="url(#clip-path)">
        <path id="Path_14557" data-name="Path 14557" d="M51.484,48.25c-1.185-6.476,7.367-9.975,11.546-5.087A5.888,5.888,0,0,1,64.4,48.25,7.329,7.329,0,0,0,61.991,44.2c-3.847-3.237-9.547-.821-10.507,4.048" transform="translate(-19.379 -15.417)" fill="#7f4197"/>
        <path id="Path_14558" data-name="Path 14558" d="M61.636,14.041c-.524-4.63-.745-9.271-.849-13.923,3.411-.1,7.07-.147,10.474-.1l1.5.018C71.907,1.668,71,3.362,70.088,4.958l-.033-.835c.834,1.377,1.67,2.855,2.461,4.264l-1.27-.075c-3.187-.206-6.366-.47-9.535-.907,3.184-.306,6.372-.438,9.564-.512l-.615,1.088Q69.5,6.326,68.389,4.632c.672-1.383,1.355-2.765,2.066-4.126l.806,1.334c-1.6.019-3.209.029-4.813,0-1.2,0-3.614-.044-4.812-.083l.833-.832c-.12,4.381-.336,8.749-.833,13.112" transform="translate(-22.93 0)" fill="#7f4197"/>
        <path id="Path_14559" data-name="Path 14559" d="M83.686,52.458a71.212,71.212,0,0,1,23.378,0,71.211,71.211,0,0,1-23.378,0" transform="translate(-31.568 -19.424)" fill="#7f4197"/>
        <path id="Path_14560" data-name="Path 14560" d="M76.421,83.9c.2-.972-1.183-.59-1.749-.663l-2.225.007a6.065,6.065,0,0,0,.037-1.171,2.029,2.029,0,0,0-.214-1.119c-.471-.384-1.144-.079-1.695-.2-.692-.141-.529-1-.56-1.518l0-1.169c-.017-7.689-.065-18.024-.118-25.7-.014-.744-.014-2.778-.029-3.5a10.714,10.714,0,0,1,.038-1.345h.163c1.077.008,4.527-.042,5.609-.039.238-.017.456.007.526-.241a4.172,4.172,0,0,0,.025-.851l-.052-3.747,0-.94a1.72,1.72,0,0,0-.024-.372c-.508-.019-1.305-.012-1.952,0h-.328l.006-.356c.028-.448-.042-.858-.041-1.288-.1-.681.214-1.867-.143-2.345-.425-.354-5.289-2.263-5.936-2.583L57.984,30.62c-4.518-1.909-12.662-5.355-17.1-7.232l-1.221-.517a2.722,2.722,0,0,0-.958-.307c-.226-.052-.729.257-.936.329l-1.213.542c-9.8,4.373-21.724,9.6-31.57,13.885l-.608.265a.9.9,0,0,0-.258.144c-.055.245.091,1.518.037,1.962-.026.645-.06,1.577-.115,2.235-.623,0-1.63-.007-2.26,0-.108,0-.19.017-.142,0,.063,0,.257-.2.246-.245.011-.035-.01.046-.007.148.021.847-.031,4.184-.012,5.07,0,.087.031.119-.015.034a.381.381,0,0,0-.182-.152c1.714.042,4.922.016,6.66.027a14,14,0,0,1,.119,2.076c0,.719-.011,2.757-.007,3.507-.01,2.961-.056,10.965-.075,14.029-.011,1.673-.073,10.192-.091,11.691l-.012,1.169c-.021.651.093,1.539-.625,1.982a2.2,2.2,0,0,1-1.229.2c-.183,0-.372,0-.513.014s-.235.057-.16.01c.062-.072.016-.044,0,.1a18.939,18.939,0,0,0,.044,2.338l-.689-.006L3.66,83.9l-.718-.007a8.443,8.443,0,0,0-1.4-.05.471.471,0,0,0,.119-.129,49.967,49.967,0,0,0-.074,5.649c-.019.089.044.2-.05.009a.3.3,0,0,0-.155-.116,6.711,6.711,0,0,0,.736.027l34.312.333c9.121.067,28.233.207,37.172.2.714-.035,1.429.075,2.141.071.219-.021.511-.06.6-.279a47.6,47.6,0,0,0,.075-5.7m0,0a47.477,47.477,0,0,1-.053,5.712c-.1.241-.4.272-.622.3-.716.006-1.425-.1-2.143-.063-8.85-.006-28.112.134-37.172.2-7.537.07-27.015.268-34.313.338C1.51,90.4.536,90.485.464,89.6.486,87.479.1,85.386.5,83.257a1.106,1.106,0,0,1,.912-.678,9.018,9.018,0,0,1,1.534.023L3.66,82.6l1.43-.015-.652.8a10.591,10.591,0,0,1-.081-1.3c-.094-1.544.631-2.07,2.045-2.023.195,0,.435,0,.494-.012.039,0,.039-.016,0,.007a.272.272,0,0,0-.092.1,5.821,5.821,0,0,0,.017-.869c-.079-6.26-.108-15.931-.154-22.218,0-1.531-.027-5.531-.024-7.016,0-.526.014-1.77-.026-2.213l.9.785-3.739.009-1.87,0a2.852,2.852,0,0,1-.691-.073,1.519,1.519,0,0,1-.932-.666,2.464,2.464,0,0,1-.261-1.431l0-3.687A6.352,6.352,0,0,1,.13,41.049a1.628,1.628,0,0,1,1.662-1l.47,0,.932.006-.929,1.048-.008-.46,0-.23.012-.153c.113-.956-.048-1.69,0-2.695A2.1,2.1,0,0,1,3.649,35.89C14.423,31.243,27,25.839,37.789,21.259a2.918,2.918,0,0,1,2.47.3c.747.337,2.85,1.269,3.63,1.619,3.073,1.367,11.345,5.062,14.523,6.477l9.683,4.318,4.842,2.16a4.328,4.328,0,0,1,1.28.709,1.885,1.885,0,0,1,.321,1.527c-.065.87,0,1.791-.021,2.664l-.322-.354c.636.012,1.218,0,1.9.029a.947.947,0,0,1,.331.083.556.556,0,0,1,.3.356,1.975,1.975,0,0,1,.043.557l-.014.929c-.037.847.055,3.978-.084,4.744a.9.9,0,0,1-.987.566l-1.872-.023-3.739-.047.176-.149a11.336,11.336,0,0,0-.042,1.138c-.024,2.093-.042,6.044-.055,8.179-.072,6.292-.06,15.932-.089,22.2-.026.866-.056,1.669,1.1,1.5.382.012.825-.09,1.129.2a2.043,2.043,0,0,1,.216,1.137,3.681,3.681,0,0,1-.059,1.155h2.225c.716.091,1.9-.312,1.749.672" transform="translate(-0.005 -7.957)" fill="#7f4197"/>
        <path id="Path_14561" data-name="Path 14561" d="M33.844,96.319c-.437.026-.986-.112-1.338.207a2.572,2.572,0,0,0-.219,1.348,3.091,3.091,0,0,0,.065.948c-1.464.008-2.928.016-4.392.052l.011-.09c.01-.587.181-1.726-.191-2.175a1.911,1.911,0,0,0-1.049-.156c-1.361.159-1.29-.579-1.31-1.632-.265-9.435-.727-19.81-.729-29.218a32.083,32.083,0,0,1,.082-3.272c.468.018,4.822.018,5.411.032.5,0,4.929.087,5.29.091l.065.694c.011,4.823-.372,12.064-.5,16.948-.12,4.209-.232,8.419-.248,12.629l-.011,2.1c0,.716.085,1.6-.932,1.488m0,0c1,.1.922-.766.9-1.488l-.016-2.1c-.027-4.211-.149-8.419-.28-12.629l-.534-16.727.81.707-4.544.082-4.544.031.919-.808c-.016,2.778-.022,6.5-.076,9.23-.087,6.8-.468,15.374-.658,22.211a4.529,4.529,0,0,0,.029,1.1c.061.279.484.251.877.255,1.155-.027,1.551.27,1.464,1.457a10.332,10.332,0,0,1-.08,1.18l-.072-.087c1.426.034,2.852.042,4.278.049l-.023.031a3.263,3.263,0,0,1-.045-.933c.006-1.425.147-1.658,1.593-1.554" transform="translate(-9.311 -23.513)" fill="#7f4197"/>
        <path id="Path_14562" data-name="Path 14562" d="M63.338,63.8c.371,8.677.829,19.229.976,27.872.014.784.052,2.8.055,3.56.052,1.434-.46,2.328-2.039,2.386l-.608.04c-.306-.011-.362.033-.126-.039a.688.688,0,0,0,.3-.252c.126-.221.078-.307.09-.156v.278c.006.754.006,1.861.01,2.616l-6.432.026.323-1.188a7.591,7.591,0,0,0-.024-1.351c-.027-.184-.034-.049.1.06.2.128.143.052,0,.059a8.158,8.158,0,0,1-1.313-.057,1.517,1.517,0,0,1-1.077-.969,4.625,4.625,0,0,1-.121-1.461l0-1.164c-.023-6.976.034-13.973.148-20.947.063-3.238.124-6.477.229-9.716,3.247.1,6.485.284,9.517.4m0,0L54.2,64.2l.393-.394c.13,3.1.221,6.207.314,9.311.2,7.361.327,14.749.379,22.114a6.263,6.263,0,0,0,.029.852.42.42,0,0,0-.107-.148.392.392,0,0,0-.144-.086c.257,0,.867-.02,1.211.019,1.2.12,1.5,1.153,1.475,2.154a4.845,4.845,0,0,1-.092,1.442l-.887-1.183,4.313.017-.906.951c0-.419,0-1.422.006-1.823a1.641,1.641,0,0,1,.2-1.023,1.33,1.33,0,0,1,1.257-.529l.554-.029a2.654,2.654,0,0,0,.474-.059s.019,0,0,.006a.433.433,0,0,0-.085.087c.137-.928.06-3.044.1-4.1.062-8.584.406-19.343.664-27.978" transform="translate(-20.158 -23.915)" fill="#7f4197"/>
        <path id="Path_14563" data-name="Path 14563" d="M91.433,96.313c-.45.022-.989-.1-1.371.184-.311.362-.211.909-.243,1.356a3.79,3.79,0,0,0,.05.934l.009.031h-.032c-1.457.007-2.913.017-4.37.052a12.117,12.117,0,0,0,.075-1.4c0-.428-.031-.912-.445-.97-.937-.2-2.2.417-2.165-1.1-.092-3.351-.386-12.449-.5-15.92,0,0,1.019.627,1.011.627l-.983.527c-.039-1.723-.114-3.493-.143-5.212-.069-2.92-.121-7.235-.135-10.146a19.7,19.7,0,0,1,.135-2.966c.434.019,4.812.019,5.371.034.523-.015,4.916.1,5.312.094.117,1.5,0,3.486-.034,5.006-.2,6.509-.54,14.526-.629,21.008-.046,2.028-.052,4.265-.062,6.3-.008.658.124,1.67-.852,1.554m0,0c.972.094.826-.888.825-1.554-.016-4.894-.133-9.817-.29-14.707l-.536-16.677.805.685L87.7,64.14l-4.539.03.91-.755c0,.117-.006.233-.016.349,0,5.043-.058,10.681-.214,15.719l-1.013-.627,1.053-.489c-.016-.182-.37,11.407-.4,11.728l-.164,5.3a1.323,1.323,0,0,0,.07.565c.056.128.224.183.433.195a7.038,7.038,0,0,1,1.348.1.709.709,0,0,1,.529.521,6.939,6.939,0,0,1-.067,2.027l-.073-.088c1.381.069,3-.02,4.263.08a3.844,3.844,0,0,1-.04-.948c.04-.448-.055-1.006.268-1.368.391-.286.929-.158,1.383-.171" transform="translate(-31.002 -23.506)" fill="#7f4197"/>
        <path id="Path_14564" data-name="Path 14564" d="M5.112,52.458a71.212,71.212,0,0,1,23.378,0,71.211,71.211,0,0,1-23.378,0" transform="translate(-1.928 -19.424)" fill="#7f4197"/>
        <path id="Path_14565" data-name="Path 14565" d="M1.868,120.456a719.667,719.667,0,0,1,74.395,0,719.671,719.671,0,0,1-74.395,0" transform="translate(-0.705 -45.076)" fill="#7f4197"/>
      </g>
    </g>
  </g>
</svg>
