<svg xmlns="http://www.w3.org/2000/svg" xmlns:xlink="http://www.w3.org/1999/xlink" width="120" height="120" viewBox="0 0 120 120">
  <defs>
    <clipPath id="clip-path">
      <rect id="Rectangle_109" data-name="Rectangle 109" width="110.128" height="95.666" fill="#7e3f98"/>
    </clipPath>
    <clipPath id="clip-Icon_02">
      <rect width="120" height="120"/>
    </clipPath>
  </defs>
  <g id="Icon_02" data-name="Icon 02" clip-path="url(#clip-Icon_02)">
    <rect width="120" height="120" fill="rgba(255,255,255,0)"/>
    <g id="Group_163" data-name="Group 163" transform="translate(3.961 5.626)">
      <path id="Path_14516" data-name="Path 14516" d="M54.569,0h1.67a1.554,1.554,0,0,0,1.974,1.1c4.642-1.3,8.971.413,13.469,1.037a36.09,36.09,0,0,1,14.6,5.442,55.733,55.733,0,0,1,25.22,34.94c.574,2.331,1.027,4.692,1.537,7.039v12.25c-.651.669-.488,1.561-.633,2.363-3.428,18.983-13.648,32.973-30.8,41.843a33.316,33.316,0,0,1-9.639,3.431c4.878-4.108,11.573-5.712,15.667-11.159-1.053-.492-1.5.153-2.007.434-3.323,1.826-6.618,3.7-9.936,5.539-.819.453-1.947.963-2.461-.04-.678-1.322,1.614.116,1.295-1.435-1.084-.294-1.949.456-2.873.9C68.516,105.2,65.5,107,62.134,107.975c-7.039,2.05-14.109,1.593-21.058-.326-2.078-.574-4.289.795-5.878-.286-2.1-1.426-4.555-1.768-6.65-3.044-15.6-9.5-24.98-23.14-27.647-41.3-.223-1.521.065-3.169-.9-4.55V52.341c.868-.7.531-1.711.63-2.585A55.872,55.872,0,0,1,14.9,17.792c.624-.689,1.13-1.611,2.149-1.8,1.11,1.718-1.355,2.4-.835,4.031,1.212-.69,1.738-1.948,2.8-2.679,3.346-2.3,6.535-4.824,9.836-7.191C33.672,6.7,37.931,2.207,44.406,1.815c-.976,1.376-3.412,1.634-3.631,4.311,1.652-.891,2.913-1.66,4.246-2.272,2.95-1.354,5.546-3.7,9.35-2.407,1.337.454.155-.92.2-1.448M82.2,98.5l-.281-.619c-2.361.657-4.192,2.335-6.211,3.635a.8.8,0,0,0-.113,1.218c.425.523.811.171,1.166-.1q2.726-2.06,5.439-4.139" transform="translate(-0.001)" fill="#fbebc0"/>
    </g>
    <g id="Group_92" data-name="Group 92" transform="translate(4.944 13.013)">
      <g id="Group_91" data-name="Group 91" clip-path="url(#clip-path)">
        <path id="Path_14485" data-name="Path 14485" d="M301.664,499.278a30.779,30.779,0,0,1-17.989-6.045c-4.245-2.979-8.527-5.9-12.786-8.865a4.948,4.948,0,0,1-1.327-6.806,4.882,4.882,0,0,1,6.754-1.4c4.085,2.677,8.15,5.384,12.22,8.083.819.543,1.022,1.228.6,1.9s-1.2.749-2.036.2q-5.829-3.856-11.654-7.718c-1.556-1.03-2.918-.912-3.757.319-.825,1.211-.423,2.591,1.082,3.626,4.872,3.349,9.686,6.788,14.641,10.008a25.538,25.538,0,0,0,16.764,3.989,23.8,23.8,0,0,0,5.461-1.244,36.67,36.67,0,0,1,12.575-2.162,5.746,5.746,0,0,1,1.119.1,1.194,1.194,0,0,1,.965,1.392,1.139,1.139,0,0,1-1.225,1.067,34.642,34.642,0,0,0-13.509,2.338,23.024,23.024,0,0,1-7.9,1.22" transform="translate(-228.329 -403.611)" fill="#7e3f98"/>
        <path id="Path_14486" data-name="Path 14486" d="M409.305,74.745a9.367,9.367,0,0,0-2.369-5.253,9.95,9.95,0,0,0-14.793-.12,2.292,2.292,0,0,1-.877.658,1.112,1.112,0,0,1-1.37-.507,1.231,1.231,0,0,1,.116-1.535,11.965,11.965,0,0,1,4.279-3.239c.226-.1.45-.21.751-.35-.1-.287-.178-.568-.292-.832a9.8,9.8,0,0,0-9.312-5.921c-.326.009-.651.039-.976.041a1.253,1.253,0,0,1-1.358-1.118,1.233,1.233,0,0,1,1.169-1.394,15.265,15.265,0,0,1,3.219.05,12.088,12.088,0,0,1,9.918,8.066c.046.117.1.231.149.346.009.019.034.032.064-.095a42.491,42.491,0,0,1,4.457.355,12.406,12.406,0,0,1,9.706,10.177,8.883,8.883,0,0,1-.1,1.681,11.644,11.644,0,0,1-3.612,21.752c-.943.149-1.58-.224-1.72-1.01-.145-.81.351-1.368,1.355-1.525a9.08,9.08,0,0,0-.167-17.937,18.513,18.513,0,0,0-2.4-.022c-.833.006-1.368-.394-1.445-1.1a1.268,1.268,0,0,1,1.228-1.424,13.836,13.836,0,0,1,2.176-.036c.694.04,1.382.18,2.2.294" transform="translate(-325.487 -46.795)" fill="#7e3f98"/>
        <path id="Path_14487" data-name="Path 14487" d="M150.93,136.458c-2.435-.247-4.8-.482-7.166-.728-3.263-.339-6.528-.781-9.792-.066a21.3,21.3,0,0,0-3.312.938,9.413,9.413,0,0,1-7.977-.459,23.732,23.732,0,0,0-6.7-2.356c-1.135-.18-2.284-.284-3.43-.37-.968-.073-1.511-.524-1.471-1.328a1.358,1.358,0,0,1,1.593-1.219,25.121,25.121,0,0,1,10.255,2.578c.559.278,1.13.535,1.7.789a5.7,5.7,0,0,0,4.528.162c4.791-1.864,9.717-1.886,14.719-1.223,2.305.305,4.627.514,6.947.672a3.5,3.5,0,0,0,3.368-1.87c1.152-1.946.014-4.186-2.389-4.593-3.893-.659-7.792-1.3-11.7-1.834a6.848,6.848,0,0,1-6.018-7.916,1.275,1.275,0,1,1,2.506.347,4.317,4.317,0,0,0,3.933,5.049q6.05.864,12.07,1.936a5.7,5.7,0,0,1,4.611,5.419,6.26,6.26,0,0,1-4.784,5.854c-.508.117-1.035.153-1.494.218" transform="translate(-94.38 -98.806)" fill="#7e3f98"/>
        <path id="Path_14488" data-name="Path 14488" d="M.163,64.8q0-4.9,0-9.805a2.786,2.786,0,0,1,2.844-3.014q3.454-.093,6.913.006A2.756,2.756,0,0,1,12.8,55.091q-.154,9.879-.328,19.758A2.768,2.768,0,0,1,9.667,77.6c-2.327.028-4.66-.021-6.983-.155A2.713,2.713,0,0,1,0,74.453Q0,69.626,0,64.8H.163m9.775.027h.325q0-4.749,0-9.5c0-.38.08-.8-.5-.8-2.178-.006-4.357-.021-6.535.013-.177,0-.478.336-.5.539-.067.672-.032,1.355-.038,2.033-.05,5.68-.092,11.361-.166,17.041-.008.606.2.8.762.811,1.953.03,3.905.078,5.858.129.539.014.811-.134.8-.768-.029-3.166-.013-6.333-.013-9.5" transform="translate(0 -44.095)" fill="#7e3f98"/>
        <path id="Path_14489" data-name="Path 14489" d="M659.94,475.707c0,3.218-.007,6.436,0,9.654a2.792,2.792,0,0,1-2.858,3.07c-2.126.1-4.256.155-6.383.153a2.9,2.9,0,0,1-3.235-3.191q-.178-9.689-.337-19.378a2.756,2.756,0,0,1,2.85-3.068q3.453-.1,6.911-.008a2.753,2.753,0,0,1,2.874,3.04q0,4.864,0,9.728h.175m-2.511-.05h-.193c0-3.143-.012-6.286.011-9.429,0-.549-.167-.8-.714-.783-.249.006-.5-.044-.749-.041-1.7.019-3.406.051-5.109.069-1.009.011-1.017,0-1,.986.1,6.26.224,12.52.3,18.78.009.667.273.828.848.811,1.9-.055,3.806-.125,5.709-.128.745,0,.915-.288.908-.988-.034-3.092-.015-6.185-.015-9.278" transform="translate(-549.814 -393.026)" fill="#7e3f98"/>
        <path id="Path_14490" data-name="Path 14490" d="M116.263,9.559a2.488,2.488,0,0,1,.3,0,12.656,12.656,0,0,0,7.252-1.583c4.15-2.036,8.383-3.9,12.591-5.817,6.227-2.833,12.561-2.731,18.926-.558a41.815,41.815,0,0,1,4.523,1.986c.937.45,1.189,1.165.807,1.881-.372.7-1.111.815-2.019.339A26.674,26.674,0,0,0,145.9,2.6a20.763,20.763,0,0,0-8.635,1.957q-7.9,3.643-15.818,7.24a3.294,3.294,0,0,1-1.289.293c-2.529.028-5.059.019-7.589.016-.934,0-1.47-.448-1.487-1.217-.017-.792.545-1.3,1.5-1.315,1.227-.016,2.454,0,3.682,0V9.559" transform="translate(-94.381 0)" fill="#7e3f98"/>
        <path id="Path_14491" data-name="Path 14491" d="M457.208,466.644c-6.02-.341-11.979-.93-17.657-3.14a12.565,12.565,0,0,0-1.714-.545,2.887,2.887,0,0,0-1.177-.051,2.044,2.044,0,0,0-1.6,1.693,1.928,1.928,0,0,0,1.308,1.758c2.436.971,4.867,1.964,7.334,2.849a5.145,5.145,0,0,1,3.509,6.353,3.719,3.719,0,0,1-.2.566,1.273,1.273,0,0,1-1.622.719,1.294,1.294,0,0,1-.734-1.611c.54-1.906.2-2.706-1.648-3.482-2.465-1.033-4.965-1.983-7.447-2.976a4.316,4.316,0,0,1,.493-8.347,5.339,5.339,0,0,1,2.95.2c2.454.766,4.886,1.636,7.384,2.216,2.085.484,4.251.612,6.38.906a35.734,35.734,0,0,0,7.869.161c.274-.023.551-.023.826-.019a1.287,1.287,0,0,1,1.37,1.12,1.216,1.216,0,0,1-1.13,1.353c-1.494.143-3,.191-4.488.277" transform="translate(-367.505 -390.824)" fill="#7e3f98"/>
        <path id="Path_14492" data-name="Path 14492" d="M239.542,262.217c-.96.222-1.911.515-2.883.651a14.045,14.045,0,0,1-6.379-.5,1.1,1.1,0,0,1-.9-1.146,2.029,2.029,0,0,1,.73-1.185,1.406,1.406,0,0,1,1.074-.033,12.718,12.718,0,0,0,5.8.227,3.949,3.949,0,0,0,.408-.123c-.163-.247-.306-.44-.424-.648a1.263,1.263,0,0,1,.305-1.685,1.232,1.232,0,0,1,1.744.227,11.828,11.828,0,0,0,9.725,4.33c3.207,0,5.577-1.673,7.321-4.3.208-.312.376-.651.574-.97a1.243,1.243,0,0,1,1.73-.552,1.257,1.257,0,0,1,.483,1.76,11.6,11.6,0,0,1-7.792,6.329c-4.045.915-7.709-.24-11.16-2.318-.127-.077-.25-.161-.374-.242q.009.088.018.176" transform="translate(-194.882 -217.654)" fill="#7e3f98"/>
        <path id="Path_14493" data-name="Path 14493" d="M260.732,53.5a1.268,1.268,0,0,1-2.408.7,11.878,11.878,0,0,0-1.455-2.169,8.509,8.509,0,0,0-7.48-2.265,10.872,10.872,0,0,0-7.354,4.1,1.273,1.273,0,0,1-1.848.317,1.314,1.314,0,0,1-.087-1.94,13.283,13.283,0,0,1,8.723-4.963,11.853,11.853,0,0,1,8.021,1.495,9.135,9.135,0,0,1,3.628,4.014,6.466,6.466,0,0,1,.26.715" transform="translate(-203.671 -40.014)" fill="#7e3f98"/>
        <path id="Path_14494" data-name="Path 14494" d="M463.1,297.124c.1-.842.272-2.111.416-3.382a1.22,1.22,0,0,1,1.1-1.157,7.475,7.475,0,0,0,5.5-3.908,31.753,31.753,0,0,0,1.966-4.529c.323-.833.844-1.276,1.6-1.1a1.281,1.281,0,0,1,.856,1.723c-.873,3.416-2.389,6.458-5.3,8.59a11.718,11.718,0,0,1-2.727,1.379.926.926,0,0,0-.707.9c-.068.75-.135,1.5-.25,2.244-.144.931-.671,1.384-1.43,1.293s-1.117-.652-1.027-2.048" transform="translate(-393.446 -240.29)" fill="#7e3f98"/>
        <path id="Path_14495" data-name="Path 14495" d="M453.026,245.069c1.153.2,2.315.361,3.454.621a1.255,1.255,0,0,1,1.053,1.615,1.3,1.3,0,0,1-1.753.8,9.679,9.679,0,0,0-4.31-.257c-2.782.517-4.112,2.447-4.722,5.032-.109.463-.143.943-.248,1.407a1.247,1.247,0,0,1-1.414,1.054,1.2,1.2,0,0,1-1.063-1.394c.5-5.095,3.5-8.824,9-8.88" transform="translate(-377.245 -208.078)" fill="#7e3f98"/>
        <path id="Path_14496" data-name="Path 14496" d="M366.943,343.11c.046,1.355-.318,1.878-1.086,1.951a1.212,1.212,0,0,1-1.387-1.239c-.247-3.168-2.1-5.235-4.635-6.79a25.073,25.073,0,0,0-3.3-1.573c-.894-.382-1.3-.957-1.046-1.695.262-.773.9-1.053,1.845-.726a15.09,15.09,0,0,1,8.162,5.922,8.921,8.921,0,0,1,1.45,4.15" transform="translate(-301.967 -282.654)" fill="#7e3f98"/>
        <path id="Path_14497" data-name="Path 14497" d="M453.409,171.026A4.922,4.922,0,0,1,448.179,176c-1.1-.082-1.716-.826-1.4-1.734.276-.79.935-.855,1.659-.821a2.206,2.206,0,0,0,2.154-1.235,2.106,2.106,0,0,0-.113-2.411,3.631,3.631,0,0,0-1.491-1.022c-.868-.336-1.349-.91-1.144-1.647s.9-1.072,1.811-.843a4.865,4.865,0,0,1,3.754,4.741" transform="translate(-379.524 -141.124)" fill="#7e3f98"/>
        <path id="Path_14498" data-name="Path 14498" d="M295.991,101.084a4.878,4.878,0,0,1,7.9-3.818,3.125,3.125,0,0,1,.713.764,1.255,1.255,0,1,1-1.951,1.573,2.308,2.308,0,0,0-2.291-.8,2.343,2.343,0,0,0-1.508,3.492,3.206,3.206,0,0,1,.406.8,1.2,1.2,0,0,1-.616,1.341,1.109,1.109,0,0,1-1.446-.172,4.287,4.287,0,0,1-1.212-3.176" transform="translate(-251.481 -81.668)" fill="#7e3f98"/>
      </g>
    </g>
  </g>
</svg>
