<svg xmlns="http://www.w3.org/2000/svg" xmlns:xlink="http://www.w3.org/1999/xlink" width="120" height="120" viewBox="0 0 120 120">
  <defs>
    <clipPath id="clip-path">
      <rect id="Rectangle_111" data-name="Rectangle 111" width="88.941" height="79.346" fill="#7e3f98"/>
    </clipPath>
    <clipPath id="clip-Icon_04">
      <rect width="120" height="120"/>
    </clipPath>
  </defs>
  <g id="Icon_04" data-name="Icon 04" clip-path="url(#clip-Icon_04)">
    <rect width="120" height="120" fill="rgba(255,255,255,0)"/>
    <g id="Group_167" data-name="Group 167" transform="translate(3 4.696)">
      <path id="Path_14516" data-name="Path 14516" d="M55.5,0h1.7A1.58,1.58,0,0,0,59.2,1.117c4.721-1.322,9.123.42,13.7,1.054A36.7,36.7,0,0,1,87.744,7.707a56.68,56.68,0,0,1,25.649,35.534c.584,2.37,1.045,4.771,1.563,7.158V62.857c-.662.68-.5,1.588-.644,2.4-3.486,19.306-13.88,33.534-31.321,42.554a33.882,33.882,0,0,1-9.8,3.489c4.961-4.178,11.77-5.809,15.933-11.349-1.071-.5-1.522.156-2.041.441-3.38,1.857-6.731,3.765-10.1,5.633-.833.461-1.98.979-2.5-.041-.689-1.345,1.642.118,1.317-1.459-1.1-.3-1.983.464-2.922.918-3.188,1.541-6.257,3.368-9.678,4.364-7.159,2.084-14.349,1.62-21.416-.332-2.113-.584-4.362.808-5.978-.291-2.133-1.45-4.632-1.8-6.763-3.1C13.166,96.429,3.629,82.559.917,64.087.69,62.54.983,60.864,0,59.46V53.231c.883-.71.54-1.74.641-2.629A56.822,56.822,0,0,1,15.157,18.095c.634-.7,1.15-1.639,2.186-1.831,1.129,1.748-1.378,2.436-.849,4.1,1.232-.7,1.768-1.981,2.851-2.725,3.4-2.338,6.646-4.906,10-7.313,4.9-3.512,9.228-8.081,15.813-8.48-.992,1.4-3.47,1.662-3.693,4.385,1.68-.907,2.963-1.688,4.318-2.31,3-1.377,5.641-3.762,9.509-2.448,1.36.462.158-.935.2-1.472M83.6,100.175l-.285-.629c-2.4.668-4.263,2.374-6.317,3.7a.81.81,0,0,0-.115,1.238c.432.532.825.174,1.186-.1q2.773-2.095,5.531-4.209" transform="translate(-0.001)" fill="#fbebc0"/>
    </g>
    <g id="Group_96" data-name="Group 96" transform="translate(15.73 16.815)">
      <g id="Group_95" data-name="Group 95" clip-path="url(#clip-path)">
        <path id="Path_14503" data-name="Path 14503" d="M36.945,219.863h-.821a6.333,6.333,0,0,1-3.968-2.6l-.087-.152c-.422-.969-.422-.966-1.487-.834-.2.025-.409.018-.614.026a.177.177,0,0,0-.247-.056l-.3-.047a8.95,8.95,0,0,1-2.73-1.286.764.764,0,0,0-.414-.528,14.27,14.27,0,0,1-.74-1.221c-.476-.986-.461-.994-1.594-.947a5.571,5.571,0,0,1-4.486-3.314,8.366,8.366,0,0,1-.388-1.859.541.541,0,0,0-.6-.575,3.724,3.724,0,0,0-.946-.3l-1.792-1.217a10.193,10.193,0,0,1-1.051-1.532,7.767,7.767,0,0,1-.466-2.719c.019-.112.044-.223.055-.335a9.023,9.023,0,0,1,1.035-2.4c.026-.239-.162-.361-.286-.516-.669-.828-1.352-1.644-2.008-2.481-1.016-1.3-1.027-1.3-1.688.243a6.628,6.628,0,0,1-1.057,1.419,2.828,2.828,0,0,1-2.746.409L4.8,195.5l-.425-.263a13.907,13.907,0,0,0-2.307-1.4A5.7,5.7,0,0,1,.418,192.5a3.761,3.761,0,0,1-.283-2.736l1.513-2.734.405-.7a12.553,12.553,0,0,0,1.123-2.03,23.323,23.323,0,0,0,1.535-2.732l.084-.152a21.893,21.893,0,0,0,1.382-2.443c1.1-1.845,2.176-3.7,3.158-5.616,1.1-1.791,2.126-3.625,3.109-5.482.6-1.049,1.208-2.089,1.785-3.148,1.119-2.054,2.734-2.487,4.708-1.251.752.47,1.516.92,2.274,1.38a1.121,1.121,0,0,0,.52.294,14.5,14.5,0,0,0,2.216,1.356,5.847,5.847,0,0,1,1.359,1.371,3.307,3.307,0,0,1-.126,2.733,4.758,4.758,0,0,1-.335.508c-.328.386-.208.624.2.851.556.307,1.088.658,1.63.99.153.094.3.2.46.279a14.194,14.194,0,0,0,5,1.123c1.261.353,1.284.353,1.92-.638.083-.13.181-.25.272-.375l.569-.55a9.709,9.709,0,0,1,2.726-1.15l2.746-.6c1.817-.206,3.633-.428,5.463-.49l2.745-.1,2.732.01c1.832.212,3.645.547,5.458.879a20.77,20.77,0,0,0,2.751.621,10.8,10.8,0,0,0,2.74.418,2.39,2.39,0,0,0,.876-.084c1.517-.458,1.6-.064.615-1.679a3.3,3.3,0,0,1-.125-2.74,4.611,4.611,0,0,1,1.365-1.379,17.548,17.548,0,0,0,2.212-1.35,1.06,1.06,0,0,0,.526-.3c.775-.472,1.548-.95,2.327-1.415,1.942-1.159,3.6-.692,4.648,1.311.559,1.066,1.12,2.129,1.779,3.138.951,1.877,2.025,3.685,3.107,5.488.935,1.864,1.987,3.663,3.052,5.455a20,20,0,0,0,1.5,2.634.19.19,0,0,0,.031.1,26.222,26.222,0,0,0,1.585,2.751,7.84,7.84,0,0,0,1.109,1.945,1.953,1.953,0,0,0,.41.785l1.523,2.726a3.7,3.7,0,0,1-.266,2.736l0,0-.1.117a7.177,7.177,0,0,1-1.549,1.224,11.6,11.6,0,0,0-2.231,1.376.84.84,0,0,0-.5.276l-2.727,1.557a3.181,3.181,0,0,1-2.729-.342,9.3,9.3,0,0,1-1.093-1.481,4.524,4.524,0,0,0-.666-1.2,23.287,23.287,0,0,1-4.433,3.912.293.293,0,0,0-.119.45,5.6,5.6,0,0,1,.466,2.317,6.262,6.262,0,0,1-.872,2.594,7.585,7.585,0,0,1-1.5,1.512,5.649,5.649,0,0,1-2.677.686c-.493-.023-.677.174-.758.636a5.525,5.525,0,0,1-1.366,2.772l-.673.56a5.537,5.537,0,0,1-2.758.839.617.617,0,0,0-.645.579,5.561,5.561,0,0,1-2.1,3.456,7.451,7.451,0,0,1-2.7.739c-.446-.016-.927-.122-1.265.28-.476.566-.924,1.157-1.383,1.738a.124.124,0,0,0-.089.037,9.01,9.01,0,0,1-2.753,1.566,17.9,17.9,0,0,1-2.716.239l-2.741-.317-2.723-.726-1.342-.419c-.944-.3-1.038-.262-1.552.594a5.131,5.131,0,0,1-3.275,1.782m25.308-44.587c-.924.033-1.81-.276-2.728-.3A23.074,23.074,0,0,0,56.8,174.4a16.445,16.445,0,0,0-2.742-.579,12.4,12.4,0,0,0-2.732-.376,13.28,13.28,0,0,0-2.754-.082,14,14,0,0,0-2.749.083,21.233,21.233,0,0,0-2.722.2,19.232,19.232,0,0,0-2.741.406,16.2,16.2,0,0,0-2.739.655c-.887.056-1.257.718-1.625,1.384-1.228,1.747-2.488,3.472-3.594,5.3l.018.016-.146.147-.119.154a23.34,23.34,0,0,0-1.65,2.442,1.966,1.966,0,0,0-.46.955c-.306,1.106-.273,1.148.849,1.123a3.415,3.415,0,0,0,1.26-.173,9.178,9.178,0,0,0,1.1-.317,12.246,12.246,0,0,0,5.374-4.536,2.727,2.727,0,0,1,1.728-1.316c.927-.289,1.857-.57,2.781-.872a2,2,0,0,1,1.631.147c1.262.661,2.535,1.3,3.8,1.952l5.466,3.139a.178.178,0,0,0,.126.046,21.59,21.59,0,0,0,2.607,1.659l5.461,3.711.141.1a29.724,29.724,0,0,0,2.6,1.942,3.97,3.97,0,0,0,1.067.807,10.63,10.63,0,0,0,1.688,1.339l1.771,1.379c.749.689.783.667,1.6.119a22.216,22.216,0,0,0,2.974-2.464c1.5-1.446,1.491-1.459.42-3.235a.227.227,0,0,0-.051-.045,14.38,14.38,0,0,0-1.24-2.182l-.236-.414a22.448,22.448,0,0,0-1.528-2.732,6.759,6.759,0,0,0-.958-1.669,3.352,3.352,0,0,0-.573-1.058c-.988-1.854-2-3.695-3.1-5.487-.143-.279-.273-.565-.431-.835-.469-.8-.473-.8-1.4-.407l-2.73.446M45.84,215.6a8.835,8.835,0,0,0,2.733.427,4.184,4.184,0,0,0,2.992-.633c.418-.3,1.085-.625,1.018-1.09-.063-.444-.794-.552-1.274-.73a24.353,24.353,0,0,0-2.733-1.349c-1.258-.617-2.513-1.24-3.776-1.848a1.591,1.591,0,0,1-1.035-1.458c.264-1.077.741-1.412,1.9-1.337l2.891,1.357a29.126,29.126,0,0,0,2.753,1.334l2.57,1.27a.319.319,0,0,0,.3.116,3.07,3.07,0,0,0,1.456.514c1.785.327,2.6-.185,3.125-1.864.117-.372.068-.6-.268-.792q-2.224-1.251-4.444-2.509c-1.782-1.125-3.622-2.149-5.468-3.163l-.647-.417c-.489-.9-.476-1.552.04-2.059.554-.543,1.2-.55,2.126-.021l.236.137,6.452,3.7c1.045.621,2.077,1.267,3.141,1.856a2.729,2.729,0,0,0,2.326.361,1.845,1.845,0,0,0,1.752-1.223c.535-1.26.451-1.529-.713-2.22-.328-.194-.669-.366-1-.548a25,25,0,0,0-2.765-1.7l-5.48-3.288a2.644,2.644,0,0,0-.8-.458c-.614-.541-1.506-.737-1.913-1.536q.013-.576.025-1.152c.81-.871,1.327-1.009,2.155-.574.177.093.355.183.533.275l.434.255a16.538,16.538,0,0,0,2.3,1.386c1.789,1.153,3.618,2.238,5.474,3.277,1.324.813,2.641,1.637,3.974,2.435a2.205,2.205,0,0,0,1.5.282,2.108,2.108,0,0,0,2.166-1.907,2.284,2.284,0,0,0-.968-2.138c-1.286-1.045-2.619-2.032-3.932-3.043l-.4-.293a19.562,19.562,0,0,0-2.334-1.791c-1.509-1.265-3.137-2.369-4.741-3.5a31.439,31.439,0,0,0-3.462-2.254,47.833,47.833,0,0,0-5.476-3.144c-1.43-.916-2.976-1.622-4.452-2.454a.963.963,0,0,0-1.031.035,4,4,0,0,0-2.45,1.163,16.177,16.177,0,0,1-5.761,4.965,13.808,13.808,0,0,1-3.743.916c-2.7.21-4.569-1.1-4.081-4.224a11.5,11.5,0,0,1,1.52-3.384l2.842-4.243-2-.326-2.74-.769c-.977-.528-1.972-1.026-2.924-1.6-.522-.312-.823-.291-1.06.3a12.87,12.87,0,0,1-.591,1.151c-1.1,1.791-2.114,3.626-3.093,5.483a3.572,3.572,0,0,0-.543.961,6.077,6.077,0,0,0-.864,1.573,22.118,22.118,0,0,0-1.6,2.8c-.819,1.227-1.451,2.561-2.2,3.83a.679.679,0,0,0,.141.9c.921,1.062,1.85,2.121,2.705,3.235.432.563.763.707,1.28.149a3.6,3.6,0,0,1,.666-.459,5.619,5.619,0,0,1,2.6-.381,5.706,5.706,0,0,1,3.751,2.569c.181.289.3.166.45-.007l1.278-1.494a4.97,4.97,0,0,1,2.736-.946,7.938,7.938,0,0,1,2.735.82.256.256,0,0,0,.249.138,6,6,0,0,1,2.274,4.183c.033.422.344.562.674.662a5.793,5.793,0,0,1,3.8,3.35,6.919,6.919,0,0,1,.261,2.139c-.026.321.052.623.394.7a5.666,5.666,0,0,1,3.145,2.1,1.1,1.1,0,0,0,.3.534,6.812,6.812,0,0,1,.7,2.739,6.462,6.462,0,0,1-.857,2.569c-.359.279-.524.51.1.664.891.219,1.774.47,2.66.708m-30.368-33.89.13-.149a.278.278,0,0,0,.141-.263,15.261,15.261,0,0,0,1.4-2.462c1.106-1.789,2.11-3.635,3.1-5.488.565-.984,1.137-1.963,1.692-2.953.746-1.332.74-1.335-.705-2.023-.934-.6-1.864-1.2-2.8-1.793-.441-.277-.94-.784-1.339-.721-.482.076-.579.839-.861,1.292-.142.229-.251.479-.374.72a.266.266,0,0,0-.126.252,17.926,17.926,0,0,0-1.361,2.343c-.195.328-.4.652-.583.985q-1.284,2.315-2.559,4.635c-1.113,1.782-2.09,3.643-3.111,5.478l-3.052,5.467c-.659,1.142-1.315,2.285-1.98,3.423-.147.251-.2.442.111.612.536.3,1.061.615,1.591.923.707.45,1.393.939,2.128,1.337.534.289,1.013,1.065,1.591.787.5-.242.672-1.034.942-1.608,1.088-1.779,2.1-3.6,3.062-5.453a2.416,2.416,0,0,0,.5-.852,14.336,14.336,0,0,0,1.079-1.907,18.513,18.513,0,0,0,1.408-2.571l-.014-.013m20.8,24.483A2.359,2.359,0,0,0,34.6,202.9a1.47,1.47,0,0,0-1.628.546l-3.566,4.887-.263.311c-.272.361-.56.71-.812,1.084a2.139,2.139,0,0,0,.131,2.753,1.912,1.912,0,0,0,2.947.356c.992-1.263,1.9-2.594,2.84-3.9a2.947,2.947,0,0,0,.638-.85,12.787,12.787,0,0,0,1.387-1.9m38.572-21.9a7.977,7.977,0,0,0,.942,1.648l.585,1.087c1.007,1.842,2,3.692,3.1,5.48.252.481.506.961.756,1.443.121.234.255.347.529.173,1.127-.718,2.263-1.422,3.4-2.132.529-.3,1.053-.614,1.591-.9.262-.14.291-.285.145-.535-.684-1.172-1.355-2.351-2.031-3.527l-3.1-5.489c-1.022-1.891-2.041-3.784-3.165-5.619l-2.943-5.3-1.447-2.493-.136-.254c-.323-.6-.652-1.194-.966-1.8-.121-.232-.228-.369-.511-.191-1.342.845-2.692,1.679-4.039,2.516-.294.164-.587.332-.884.492s-.353.346-.172.653c.742,1.261,1.463,2.533,2.192,3.8.989,1.855,1.99,3.7,3.1,5.49a15.95,15.95,0,0,0,1.395,2.48l.131.248a25.734,25.734,0,0,0,1.527,2.729M22.135,206.167a2.38,2.38,0,0,0,.856,2.682,1.749,1.749,0,0,0,2.175.181c1.464-1.795,2.776-3.7,4.127-5.581l.126-.146,2.032-2.6a2.127,2.127,0,0,0-.415-2.731c-1.073-.943-2.145-1.051-2.8-.184-1.375,1.812-2.691,3.668-4.032,5.506a.553.553,0,0,0-.272.382,14.194,14.194,0,0,0-1.794,2.487M37.65,216.49a15.664,15.664,0,0,0,1.618-2.1c.416-.561.847-1.111,1.244-1.685a2,2,0,0,0-.147-2.813c-.927-.969-1.894-1.131-2.746-.459a15.178,15.178,0,0,0-1.656,2.213c-.394.494-.8.977-1.179,1.485a2.067,2.067,0,0,0,.112,2.888c.857,1.016,2.011,1.213,2.753.47M19.184,197.847c-.514.69-1.044,1.368-1.538,2.072a2.209,2.209,0,0,0,.818,3.428c1.025.567,1.625.493,2.329-.384a27.826,27.826,0,0,0,1.682-2.318,2.14,2.14,0,0,0-.69-3.161,1.708,1.708,0,0,0-2.6.364" transform="translate(0 -140.517)" fill="#7e3f98"/>
        <path id="Path_14504" data-name="Path 14504" d="M316,0h.958a1.694,1.694,0,0,1,.981,1.87,5.156,5.156,0,0,0,.034.871,19.268,19.268,0,0,0,0,2.728,19.02,19.02,0,0,0,0,2.744,19.2,19.2,0,0,0,0,2.728,19.02,19.02,0,0,0,0,2.744,19.271,19.271,0,0,0,0,2.728l-.2.939c-1.145.978-1.993.8-2.713-.583q0-.175-.006-.35,0-1.369,0-2.739V2.735C315.072,1.719,314.941.652,316,0" transform="translate(-271.946)" fill="#7e3f98"/>
        <path id="Path_14505" data-name="Path 14505" d="M409.455,51.048a.538.538,0,0,0,.322-.354c.175-.142.361-.273.524-.429a1.565,1.565,0,0,1,2.2-.321,1.76,1.76,0,0,1,.467,1.113,2.094,2.094,0,0,1-.466,1.1,13.474,13.474,0,0,0-1.638,1.639,5.911,5.911,0,0,0-1.1,1.1,10.523,10.523,0,0,0-1.495,1.509,6.918,6.918,0,0,0-1.24,1.231,13.228,13.228,0,0,0-1.639,1.636,5.916,5.916,0,0,0-1.1,1.1,10.514,10.514,0,0,0-1.495,1.508l-1.239,1.119c-1.144.31-1.653.073-2.133-1a2.026,2.026,0,0,1,.772-1.632,4.275,4.275,0,0,0,.995-1.079.523.523,0,0,0,.355-.32,26.144,26.144,0,0,0,2.439-2.439.515.515,0,0,0,.318-.354,16.02,16.02,0,0,0,2.363-2.362.515.515,0,0,0,.355-.32,26.2,26.2,0,0,0,2.437-2.437" transform="translate(-344.767 -42.846)" fill="#7e3f98"/>
        <path id="Path_14506" data-name="Path 14506" d="M158.7,53.143a1.614,1.614,0,0,0,.553.552,22.4,22.4,0,0,0,2.184,2.183,1.56,1.56,0,0,0,.553.553,22.723,22.723,0,0,0,2.184,2.184,1.614,1.614,0,0,0,.552.552c.358.379.692.786,1.081,1.129a1.853,1.853,0,0,1,.732,1.6c-.448,1.143-1.212,1.41-2.368.83a4.286,4.286,0,0,0-.964-.958,15.655,15.655,0,0,0-1.77-1.784,3.512,3.512,0,0,0-.827-.819,16.583,16.583,0,0,0-1.912-1.909,4.162,4.162,0,0,0-.963-.961,15.657,15.657,0,0,0-1.77-1.784,3.51,3.51,0,0,0-.827-.819,19.817,19.817,0,0,0-1.906-1.923c-.024-.294-.368-.483-.27-.817l.264-.835c1.052-.851,1.4-.815,2.74.283a1.569,1.569,0,0,0,.553.553,22.758,22.758,0,0,0,2.184,2.184" transform="translate(-132.011 -42.752)" fill="#7e3f98"/>
      </g>
    </g>
  </g>
</svg>
