<svg xmlns="http://www.w3.org/2000/svg" xmlns:xlink="http://www.w3.org/1999/xlink" width="250" height="250" viewBox="0 0 250 250">
  <defs>
    <clipPath id="clip-path">
      <rect id="Rectangle_128" data-name="Rectangle 128" width="241" height="238.427" fill="#fff"/>
    </clipPath>
    <clipPath id="clip-Icon_19">
      <rect width="250" height="250"/>
    </clipPath>
  </defs>
  <g id="Icon_19" data-name="Icon 19" clip-path="url(#clip-Icon_19)">
    <rect width="250" height="250" fill="rgba(255,255,255,0)"/>
    <g id="Group_211" data-name="Group 211">
      <g id="Group_150" data-name="Group 150" transform="translate(-9.829 -8.129)">
        <g id="Group_149" data-name="Group 149" transform="translate(12.829 13.724)" clip-path="url(#clip-path)">
          <path id="Path_14632" data-name="Path 14632" d="M86,240.928c.093-.661-.233-.923-.84-1.168-.919-.371-2.043-.3-2.807-1.135.478-.458.811.174,1.167.03a2.143,2.143,0,0,0,.19-.172c-.412-.58-.351-.905.443-.868a7.846,7.846,0,0,1,3.337.957,2.839,2.839,0,0,0,2.841.2c.933-.485,1.989.125,2.935-.372.132.679-.591.743-.655,1.422,5.26.869,10.428,2.29,15.846,2.968a2.5,2.5,0,0,0-.1-.555c-.328-.46-1.4-.441-1.2-1.013.272-.769,1.013.019,1.554.022,1.428.008,2.835.586,4.423.136a55.53,55.53,0,0,0-7.447-1.515c-2.29-.441-4.581-.929-6.9-1.174-2.542-.27-4.493-1.854-6.768-2.679-2.916-1.057-5.939-1.818-8.872-2.833a20.174,20.174,0,0,1-5.3-2.993c1.852-.373,3.326,1.1,5.165.892q-2.969-1.264-5.939-2.525a.8.8,0,0,0-.253-.05c-.391,1.355-1.023.471-1.565.158-.578-.334-1.443-.439-1.192-1.5.028-.117-.54-.41-.858-.571a98.882,98.882,0,0,1-16.486-10.759c-2.4-1.894-4.937-3.645-6.9-6.044a.492.492,0,0,0-.217-.161c-1.964-.59-2.705-2.446-3.955-3.779-.386-.412-.658-1.046-1.547-.8-.618.171-.9-.543-.945-1.095a1.279,1.279,0,0,0-.711-1.218c-2.055-.874-3.314-2.655-4.672-4.253a37.857,37.857,0,0,1-4.343-6.029c-.9-1.616-2.244-2.967-2.8-4.773-.2-.636-.817-.972-1.133-1.519a5.89,5.89,0,0,1-1.111-3,1.944,1.944,0,0,0-.477-1.24,25.336,25.336,0,0,1-3.273-6.472c-.165-.419-.779-1.078.444-.886.376.059.282-.353.193-.609-1.14-3.283-2.1-6.648-3.511-9.807-.582-1.3-1.05-2.647-1.661-3.928-.622-1.3-.367-2.667-.39-3.99a8.332,8.332,0,0,0-1.543-5.426c-.512-.64-.191-1.607-.09-2.393a2.858,2.858,0,0,0-.491-2.005c-.213,1.589-.584,2.888-.16,4.281a26.873,26.873,0,0,1-1.186-3.221,26.056,26.056,0,0,1-.711-5.351c0-.268.061-.7-.218-.719-1.264-.107-.856-1.045-.86-1.7-.014-2.5.045-5.007.043-7.51a2.274,2.274,0,0,1,.554-1.62c.312-.354.4-.993,1.1-.726.612.235.476.79.541,1.276a7.116,7.116,0,0,1-.41,3.077,3.954,3.954,0,0,0,.165,2.836c1.538-.873,1.361-2.224.939-3.652a1.705,1.705,0,0,1,.03-.656,6.166,6.166,0,0,0-.328-3.4c-.546-1.293-.227-2.862.06-4.291a11.113,11.113,0,0,0,.039-3.606c-1.13.686-.1,1.933-.937,2.624-.517-.269-.382-.785-.322-1.16.267-1.664-.291-3.289-.185-4.94,0-.044.178-.349-.131-.213-.073.032-.07.234-.1.365-.275-.084-.16-.3-.192-.447-.078-.37.154-1-.385-1.012s-.354.6-.426.979c-.391,2.033-.776,4.067-1.2,6.093a5.214,5.214,0,0,0-.234,2.093,1.6,1.6,0,0,1-1,1.82c-1.171.546-1.213,1.96-1.359,3.06a28.562,28.562,0,0,0,.015,4.225,1.1,1.1,0,0,0,.269.884.95.95,0,0,1-.01,1.618c-.07.064-1.363.906.194.869.27-.007.274.393.1.54a2.792,2.792,0,0,0-.774,2.473c-.98-.868-.477-1.949-.683-2.878-.119-.539.687-1.646-.811-1.558-.264.016-.154-.558-.172-.863a29.14,29.14,0,0,1,.837-9.423c1.09-3.926.979-7.99,1.981-11.9a19.6,19.6,0,0,0,.229-3.273,27.183,27.183,0,0,0-1.821,2.958C8.872,116.1,8.6,118.2,8.247,120.241a68.462,68.462,0,0,0-.641,8.407c-.146,2.895-.055,5.8-.128,8.7-.062,2.454.618,4.849.432,7.325-.1,1.357-.959,2.524-.753,3.932.1.648-.18,1.347.719,1.685.443.167.333.714.313,1.11a26.453,26.453,0,0,0,1.276,8.531c.326,1.158-.189,2.432.6,3.478-.663.408-.544-.565-.927-.291s-.072.636.042.964a19.871,19.871,0,0,1,.985,4.78,11.418,11.418,0,0,1-1.284-3.61c-.313-1.18-.637-2.35-1.032-3.506a4.732,4.732,0,0,1-.228-2.363,13.738,13.738,0,0,0-.456-4.556c-.7-3.716-1.5-7.414-2.183-11.132-.407-2.206-.478-4.49-1.061-6.642-.565-2.085-.8-4.24-1.52-6.3a4.69,4.69,0,0,1,.256-3.955c.544-.952.116-1.939.043-2.961l-.632,1.521c-.569-.582-.547-.584-.673-2.494-.037-.554.232-1.467-1.015-1.039-.483.166-.4-.529-.339-.8.618-2.946,1.175-5.927,1.59-8.881.366-2.6,1.473-4.991,1.622-7.639a10.778,10.778,0,0,1,2.3-5.637c-1.866,7.043-3.8,14.055-4.418,21.34a5.208,5.208,0,0,0,.641-3.3,1.826,1.826,0,0,1,.016-.814c.154-.54.193-1.46.843-1.341.671.123.265.859.1,1.359-.328.973.43.96,1.025,1.157.316-2.659,1.3-5.193.864-7.834-.448-2.715.422-5.124,1.314-7.585a30.3,30.3,0,0,1,1.611-4.772c.313,1.052-.383,1.739-.248,2.728.733-.856,1.616-1.254,1.455-2.548-.146-1.17.767-2.34.235-3.591-.086-.2,0-.4.223-.39,1.311.075,1.5-1.027,1.855-1.845,1.159-2.656,2.2-5.361,3.375-8.01a35.511,35.511,0,0,1,1.907-3.44.511.511,0,0,1,.727-.185c.163.751-.739,1.222-.514,2.265a17.977,17.977,0,0,0,2.674-5.03,3.718,3.718,0,0,1-1.779,1.079A2.355,2.355,0,0,0,15.776,79.7,7.283,7.283,0,0,1,12.8,83.2a32.282,32.282,0,0,1,1.771-3.678c1.266-1.98,2.7-3.854,4.056-5.776.158-.224.317-.542.618-.381.322.173.27.562.167.858-.211.612-.925,1.012-.761,2.007.983-1.475,2.383-2.353,2.639-4.233.142-1.042,1.213-1.96,1.875-2.927.181-.265.465-.549.118-.82-.4-.309-.526.121-.7.363a1.257,1.257,0,0,0-.071.116c-.588,1.028-1.068,2.2-2.7,1.923.391-.707.5-1.633,1.629-1.668a.292.292,0,0,0,.217-.148c.926-2.446,3.463-3.64,4.6-5.924a2.06,2.06,0,0,1,1.152-1.262,5.065,5.065,0,0,1-.9,3.8c-.18.216-.237.558.1.686.407.154.328-.3.482-.472a13.985,13.985,0,0,1,2.8-2.892A11.8,11.8,0,0,0,33.235,58.9a25.97,25.97,0,0,1,4.951-5.839,9.242,9.242,0,0,0,2.68-3.749c.419-1.214,1.628-1.649,2.473-2.446A77.922,77.922,0,0,1,53.612,38.63c1.455-.968,2.985-1.823,4.555-2.774-.478-.461-.776-.179-1.057-.028-.946.508-1.712,1.591-3.028.9-.091-.048-.367.111-.463.242-1.216,1.66-3.248,2.026-4.848,3.072s-2.73,2.677-4.343,3.645c-1.538.923-2.455,2.606-4.168,3.337-.059-.207-.111-.292-.1-.366.078-.478,1.128-.7.511-1.282-.536-.51-1.153.013-1.524.443-1.08,1.25-2.567,2.125-3.164,3.841A2.216,2.216,0,0,1,33.477,50.9a20.4,20.4,0,0,1,4.347-4.7,11.977,11.977,0,0,0,1.919-1.711,16.142,16.142,0,0,1,3.516-2.978c.513-.317,1.294-.579,1.172-1.488-.013-.1.226-.308.375-.34,2.511-.546,4.144-2.557,6.253-3.778,2.459-1.424,5.105-2.566,7.291-4.452.539-.465,1.409-.025,1.936-.522,1.729-1.631,4.345-1.88,5.882-3.806a1.254,1.254,0,0,1,.664-.453c2.392-.441,4.229-2.291,6.65-2.58-.866,1.661-.881,1.654-3,2.388-.836.29-1.786.471-1.988,1.6-.043.238-.39.44-.109.711a.729.729,0,0,0,.874.147c.454-.2.941-.326,1.4-.512.415-.167.8-.445,1.314-.147l-.517.543c.105.058.188.142.242.127.869-.253,1.73-.532,2.6-.777.469-.132.983-.32.776-.877-.189-.509-.7-.164-1.073-.093-.254.049-.485.282-.757.055,1.218-1.325,2.129-1.475,3.379-.461a.673.673,0,0,0,.838.064c.794-.324,1.6-.625,2.4-.925.368-.137.981-.714.712.387-.08.327.184.361.426.259,1.421-.6,3.142-.564,4.182-1.97.027-.036.068-.093.1-.09,2.256.232,3.37-2.228,5.5-2.333a1.425,1.425,0,0,1,1.292.4c-.234.565-.977.11-1.162.93,1.425-.276,2.781-.576,4.122-.824,1.064-.2,2.191.036,3.207-.477a.634.634,0,0,1,.6.161c.163.238-.109.5-.29.487-1.662-.152-1.783,2.005-3.311,2.1,1.841.338,3.586.887,5.416.3,2.63-.838,5.4-.938,8.085-1.46a15.142,15.142,0,0,1,5.811-.176c2.249.448,4.381-.077,6.565-.136.605-.016,1.212,0,2.092,0a2.8,2.8,0,0,1-2.492.85c-1.745-.048-3.528-.44-5.087.862a1.31,1.31,0,0,1-1.658-.088,1.954,1.954,0,0,0-2.04-.373c-2.036.5-4.139.3-6.1.787.626.563,1.735.194,2.54,1.063a9.767,9.767,0,0,1-3.317.4,36.419,36.419,0,0,0-7.185,1.227c-2.416.511-4.888.732-7.283,1.367-1.044.276-2.1.491-3.157.729-.7.159-1.37.705-2.1-.134-.24-.276-.933.086-1.387.28-1.707.73-3.4,1.491-5.12,2.189a3.787,3.787,0,0,1-1.674.323,4.145,4.145,0,0,0-2.584,1.015,3.406,3.406,0,0,1-2.421,1.033,1.248,1.248,0,0,0-1.271.826c-.267.865-.955,1.009-1.642,1.206-3.214.921-6.444,2.065-8.3,4.968-1.371,2.149-3.839,2.021-5.422,3.5-2.007-.977-2.427,1.416-3.8,1.807a1.054,1.054,0,0,0-.663.65c-.247,1.687-1.92,1.7-2.926,2.439a3.807,3.807,0,0,1-1.752.96c-.733.112-1.3,1.19-1.987,1.779a25.114,25.114,0,0,0-2.151,1.648c-2.294,2.441-4.913,4.533-7.269,6.912-1.413,1.427-3.055,2.648-4.341,4.219a8.6,8.6,0,0,0-1.591,2.326,9.192,9.192,0,0,1-1.9,3.405c-1,1.032-1.232,2.391-1.8,3.611-1.31,2.838-2.958,5.5-4.137,8.423a9.843,9.843,0,0,1-1.861,3.518c-.2-2.558,2.3-4.205,2.184-6.74-1.35,2.459-3.228,4.6-4.109,7.337a40.115,40.115,0,0,1-1.554,3.751c-.21.48-.771.989-.154,1.431.6.429.6-.67,1.388-.621-.771,2.822-2.369,5.367-2.344,8.313.252-.014.322-.3.381-.553A13.887,13.887,0,0,1,17.689,95.4a4.675,4.675,0,0,0,.836-3.157,2.456,2.456,0,0,1,.166-1.325c.749-1.7,1.555-3.378,2.356-5.056a2.05,2.05,0,0,1,.96-1c.854,1.582-.168,2.845-.652,4.12-1.139,3-2.424,5.944-3.626,8.921-.189.468-.183.946-.964.782-.509-.107-.724.622-.552.868,1.066,1.519-.324,2.733-.45,4.091-.039.422-.387.747.055,1.192.353.356.146.826-.013,1.276a27.5,27.5,0,0,0-1.576,5.877c-.1.84-.893,1.325-1,2.179a1.9,1.9,0,0,0,.29,1.821c.684-1.47.817-2.971,1.554-4.251.429-.746.319-1.759,1.263-2.281.564-.312.018-.92.152-1.4.223-.79,1.211-1.468.226-2.5-.246-.257.576-.868,1.256-1.005l.134,1.507c1.517-5.519,4.251-10.564,6.051-16.24-2.409,2.885-3.024,6.46-4.956,9.46-.246-.413-.569-.681-.318-1.272,1.156-2.723,2.435-5.386,3.425-8.192a35.454,35.454,0,0,1,3.1-5.714,3.428,3.428,0,0,0,.471-1.484,3.08,3.08,0,0,1,1.573-2.352,5.329,5.329,0,0,0,2.353-3.415c.171-.757.919-1.4,1.375-2.12,1.126-1.778,1.99-3.732,3.536-5.245.755-.739.62-2.059,1.579-2.74.181-.129.187-.578.541-.337.112.076.061.393.089.643,1.017-.776,1.205-2.013,1.75-2.991,1.437-2.576,3.849-4.19,5.7-6.341,2.206-2.563,5.072-4.432,7.528-6.91-.419-.213-.727.4-1.242-.048,1.672-1.22,2.952-2.884,5.091-3.643-.15.878-1.294.69-1.258,1.708,1.08-.959,2.4-1.195,3.245-2.535.8-1.262,2.473-1.925,3.917-2.56.32-.141,1.219-.625,1.446.456.088.42.484.05.633-.04,1.853-1.125,3.726-2.227,5.5-3.468a6.462,6.462,0,0,1,1.792-.837c1.723-.541,2.915-1.806,4.29-2.826.141-.1.329-.2.237-.421a.454.454,0,0,0-.573-.238c-.691.135-1.3.635-2.311.453a7.287,7.287,0,0,1,4.479-1.187c.132.482-.427.54-.521.868s-.1.8.382.526c1.05-.587,2.288-.51,3.33-1.076.425-.231.8-.408.542-1.023-.32-.759-.724-.309-1.064-.092a1.639,1.639,0,0,1-1.749.184l5.7-2.309c-.063.716-.547.533-.811.7-.232.142-.745.229-.431.638.194.252.167.765.684.734,1.666-.1,3.362-.062,4.65-1.438a3.32,3.32,0,0,0,.532-.722,1.162,1.162,0,0,1,2.057-.123,1.7,1.7,0,0,0,1.866.737c2.871-.516,5.662-1.438,8.581-1.7a4.885,4.885,0,0,0,2.581-.56c.291-.2.874-.261,1.023,0,.617,1.1,1.714.742,2.424.6a31.513,31.513,0,0,1,9.258-.509,7.262,7.262,0,0,0,1.876-.211c1.521-.265,2.941.577,4.425.425a18.8,18.8,0,0,1,5.885.66c1.779.379,3.592.251,5.367.662,2.271.525,4.583.894,6.892,1.228,3.241.469,6.369,1.535,9.669,1.716a8.81,8.81,0,0,1,2.826.858c1.262.535,2.678.369,3.927,1,.429.215.907-.526,1.557-.56-2.428-.9-4.85-1.826-7.287-2.7a72.823,72.823,0,0,0-7.946-2.146c-.952-.226-1.683-1.157-2.8-1.19-2.178-.064-4.193-1.019-6.352-1.213-1.134-.1-1.709-1.389-2.965-1.343-.839.031-1.706-.35-2.481.248-.3.228-.422.143-.763-.038-.569-.3-1.289-.886-1.99-.091a.634.634,0,0,1-.5.089,19.739,19.739,0,0,0-6.457.012c-2.146.3-4.283-.665-6.462-.251-.25.048-.632-.059-.641.3,0,.164.337.337.552.534-1.259.976-2.714.321-4.052.52a80.887,80.887,0,0,0-10.643,1.86c-1.121.323-2.273.535-3.408.813a.66.66,0,0,1-.817-.32c-.154-.337.226-.441.442-.545a12.835,12.835,0,0,1,2.413-.82c2.767-.712,5.635-1.147,8.2-2.514a1.892,1.892,0,0,1,.9-.232,31.219,31.219,0,0,0,6.846-.762.867.867,0,0,1,.531.043c1.472.7,2.891.35,4.577-.213a50.292,50.292,0,0,0-5.652-.08c-.418-.013-1.186.251-1.1-.548a.893.893,0,0,1,1.312-.6c2.295,1.068,4.673-.011,6.987.358.541.087,1.183.219,1.462-.648.109-.339.711-.482,1.208-.468,1.138.033,2.276,0,3.415.019.263,0,.715.032.758.159.481,1.4,1.515.737,2.19.456a4.52,4.52,0,0,1,3.054.219c1.581.4,3.359.1,4.756,1.224.117.094.355.06.535.053a27.355,27.355,0,0,1,9.4,1.654,11.591,11.591,0,0,0,2.687.282c1.474.1,2.529,1.135,3.812,1.648,3.218,1.289,6.65,1.975,9.805,3.452,1.064.5,2.147.953,3.217,1.436.466.21.89.47.9,1.073-1,.718-1.967.887-2.807-.262-.611.918-.31,1.383.522,1.748a20.8,20.8,0,0,1,3.284,1.645c.684.46,1.184.572,1.813.072l-.022-.005c.008.5-.267,1.046.5,1.34a15.792,15.792,0,0,1,5.2,3.081,7.857,7.857,0,0,0,1.406.8.572.572,0,0,0,.83-.16c.364-.441-.136-.467-.294-.685-1.288-1.777-4.038-1.445-5.1-3.549-.089-.176-.32.046-.477.058-.9.065-1.071-.865-1.236-1.321-.2-.564.043-.641-.449-.9a18.184,18.184,0,0,1-3.214-1.893c2.9.3,5.253,1.83,7.632,3.345a7.929,7.929,0,0,0,3.795,1.613c1.347.089,2.459,1.172,3.5,1.922,2.737,1.963,5.934,3.3,8.207,5.9a1.855,1.855,0,0,0,1.075.541,1.823,1.823,0,0,1,1.506,1.24c.267,1.643,1.488,2.1,2.74,2.658,1.128.5,2.468,1.177,2.665,2.328.22,1.284,1.045,1.845,1.752,2.625a27.15,27.15,0,0,0,2.592,2.736c.487.407.254.424.1,1.45a2.368,2.368,0,0,0,.561,1.99c1.967,2,3.888,4.037,5.825,6.062a1.724,1.724,0,0,0,.925.488c.485.114,1,.553.785,1.085-.731,1.823.456,3.116,1.366,4.256a15.61,15.61,0,0,1,2.172,4.815c-.656-.1-.8-.58-1.037-.992-.352-.617-.53-1.361-1.3-1.683a.685.685,0,0,1-.328-.555c.277-2.018-1.322-2.613-2.582-3.471a2.17,2.17,0,0,1-.8-1.087c-.877-2.437-3.016-3.841-4.62-5.681-.214-.245-.472-.73-.867-.373-.441.4.134.6.32.855a131.673,131.673,0,0,1,9.375,13.6c.173.309.291.649.483,1.085-.656.031-.794-.444-1.1-.721-1.549-1.385-1.819-3.5-2.961-5.113-.324-.458-.619-.929-1.142-.562s-.009.835.212,1.157c1.512,2.2,3.011,4.392,4.406,6.672.849,1.387.913,2.949,1.647,4.305,1.039,1.917,1.677,4.008,2.656,5.967a77.984,77.984,0,0,1,2.7,7.363,75.536,75.536,0,0,1,2.9,10.128c.544,2.406.827,4.87,1.266,7.3,1.15,6.367,1.095,12.8,1.127,19.234.019,3.8-.829,7.527-1.042,11.312-.063,1.112.767,2.245,0,3.307-1.511,2.088-1.041,4.729-2.071,7.02a46.064,46.064,0,0,0-1.845,6.321c-.255.9-.96,1.707-.866,2.67.2,2.057-1.063,3.894-.717,5.98.569-1.053,1.567-1.819,1.278-3.362-.133-.709.276-1.6,0-2.449a.857.857,0,0,1,.318-.721c1.5-1.057,1.664-2.591,1.511-4.212-.034-.364.136-.347.328-.423.39-.155.684-.537.506-.845-.572-.994.114-1.74.408-2.539a23.523,23.523,0,0,0,1.059-5.688c.055-.509-.212-1.461.963-1.335.4.043.319-.457.367-.758.236-1.464.481-2.927.72-4.391.044-.268.064-.645.4-.6.543.073.205.445.159.726-.576,3.5-1.5,6.944-1.916,10.476a1.151,1.151,0,0,1-.538.9c-.234.15-.562.328-.443.611.436,1.035-.156,1.818-.526,2.68-.146.342-.645,1.081.51.7.469-.153.29.392.2.662a33.868,33.868,0,0,1-1.049,3.855c-.218.453-.3.927.2,1.192.591.309.57-.391.845-.615,2.455-2,2.669-5.128,3.887-7.75,1.279-2.752,1.155-5.808,1.9-8.665.469-1.806-.123-3.536.164-5.331.36-2.261.686-4.531,1.1-6.786a1.639,1.639,0,0,0,.041-.8c-.783-2.057.063-3.935.583-5.855.1,2.128.464,4.257.43,6.35a36.547,36.547,0,0,1-1.109,8.817c-.1.359-.289.7-.086,1.038a2.683,2.683,0,0,1-.3,3.337,5.041,5.041,0,0,0-.782,2.976,24.257,24.257,0,0,1-1.646,7.081,1.728,1.728,0,0,0,0,1.472c1.83-2.4,1.063-5.562,2.926-7.713-.405,5.254-2.262,10.2-3.313,15.346.352-1.98,2.42-3.31,2.439-5.128a30.093,30.093,0,0,1,.879-5.513c.4-2.072.948-4.116,1.33-6.191a7.567,7.567,0,0,1,.789-2.012,3.072,3.072,0,0,0,.354-1.706c-.028-.288.136-.735-.3-.78-.386-.04-.444.377-.533.679a7.874,7.874,0,0,1-.609-3.914c.033-1.619.979-3.1.729-4.779-.047-.312.318-.365.608-.389a.448.448,0,0,0,.358-.7c-1.312-1.35.067-2.561.147-3.829,0-.036.045-.069.139-.2a3.105,3.105,0,0,1-.512,3c1.247-.552.359-1.946,1.36-2.444.6,1.845.229,3.7.534,5.531-.067-2.295,1.028-4.363.952-6.784.814.5.673,1.081.726,1.6.055.544-.308,1.109.519,1.558.556.3-.2.955-.381,1.417-.053.132-.079-.508-.477-.567-.1,1.193-.658,2.324-.441,3.558.1.564.637.85.762,1.514.355,1.892-.9,3.325-1.133,5.021-.243,1.779-.5,3.558-.691,5.343a16.606,16.606,0,0,1-.272,2.966c-.152.533-.417,1.323.385,1.82.432.268.123.7.042,1.1-.712,3.528-1.608,7.041-1.089,11.046,1.221-3.794,1.986-7.433,3.87-10.673a.674.674,0,0,1,.254.812,35.774,35.774,0,0,1-3.256,9.544c-.438.781-.174,1.6-.41,2.385-.473,1.582-1.416,2.99-1.438,4.762-.011.926-.379,1.83.124,2.739.163.294.18.786-.1.869-1.9.562-1.707,2.485-2.467,3.766-.427.72-.685,1.429-1.682,1.187-.2-.048-.2.017-.235.125-.4,1.1-1.339,1.994-1.336,3.352.9-.169.715-1.187,1.546-1.525a12.174,12.174,0,0,1-.89,2.985c-.967,1.744-2.414,3.177-3.255,4.914a9.4,9.4,0,0,1-2.83,3.52c1.035-2.61,2.886-4.5,2.9-7.105-.669.762-1.063,1.7-2.248,1.85a1.092,1.092,0,0,0-.761,1.169c.412.988-.3,1.531-.651,2.195-.606,1.135-1.671,2.037-1.624,3.493a.956.956,0,0,1-.747.889c-.386.1-.673-.383-.716-.635-.23-1.357-.827-.477-1.114-.148-1.391,1.6-2.763,3.221-4.064,4.895a56.42,56.42,0,0,1-7.559,8.341,24.147,24.147,0,0,1-4.377,3.374c-2.113,1.06-3.34,3.054-5.358,4.026-2.607,1.255-4.685,3.272-7.134,4.744-.481.289-.486.283-.624-.28s-.738-.818-.979-.5c-1.327,1.729-3.734,1.883-5.1,3.634a3.084,3.084,0,0,0,2.25-1.083,3.719,3.719,0,0,1,2.624-1.024c1.219.377,1.795-.5,2.654-.734.607-.167.75-.157.676.6-.123,1.267-.5,1.8-1.871,1.455a.959.959,0,0,0-1.238,1.063c.023,1.142-.758,1.564-1.634,2.025-2.6,1.371-5.165,2.822-7.748,4.231-.385.21-.752.556-1.419.228,1.046-1.1,2.058-2.174,3.079-3.239a.424.424,0,0,1,.5-.05,3.034,3.034,0,0,0,3.187-.9c.026-.037.089-.09.081-.1-1.025-1.69,1.081-1.275,1.389-2.066.046-.12.1-.238.15-.359a.791.791,0,0,0-.924,0c-2.786,2.163-6.2,3.144-9.191,4.9-1.212.71-2.629,1.454-2.817,3.163-.066.594-.561.741-.963.818a26.48,26.48,0,0,0-7.173,2.925,11.483,11.483,0,0,1-3.916,1.466,3.852,3.852,0,0,0-1.654.576c-1.959,1.329-4.273,1.319-6.453,1.777-3.106.653-6.245,1.165-9.372,1.689-2.213.371-4.433.771-6.665,1.063-.045.006-.1.023-.135.005-.707-.361-2.009.027-2.133-.65s1.1-.3,1.7-.574a22.85,22.85,0,0,1,4.04-1.263,9.338,9.338,0,0,0-6.875,1.16c-.249.167-.167.373-.2.588a.529.529,0,0,1-.836.385c-2.241-1.448-4.646-.4-6.956-.418a11.1,11.1,0,0,1-3.47-.12c-.212-.069-.491-.186-.657-.107-1.959.93-3.852-.09-5.661-.422-2.764-.506-5.617-.76-8.284-1.819-.662-.263-1.645-.96-2.167.379-.039.1-.59.145-.767.022-1.459-1.018-3.286-.925-4.835-1.651a1.653,1.653,0,0,1-.9-.978c1.325-.1,2.449.509,3.635.706a3.586,3.586,0,0,0,1.051.214c3.015-.4,5.921.653,8.912.668.817,0,1.649.415,2.522.354a.5.5,0,0,1,.38.1c1.346,1.914,2.96.958,4.516.41.278-.1.66.022.9-.431a2.551,2.551,0,0,0-2.356-.245c-.987.411-2.245-.1-3.363-.385-.752-.191-1.3-1.225-2.394-.175-.425.407-2.04.028-2.954-.3-2.626-.938-5.337-.823-8.027-1.013a20.392,20.392,0,0,1-4.617-.876,14.625,14.625,0,0,1-1.761-.456,13.958,13.958,0,0,1-3.992-2.547,4.877,4.877,0,0,0-2.578-1.026Zm83.936-12.6c.858-.452,1.259-1.44,2.262-1.554a8.9,8.9,0,0,0,4.823-2.09c2.051-1.782,4.759-2.335,6.82-4.141a14.453,14.453,0,0,1,2.983-2.273c.711-.351,1.161-1.385,1.728-1.7,1.106-.622,1.212-1.213.812-2.2-.142-.349.06-.6.35-.556,1.975.292,2.417-1.6,3.56-2.478a1.2,1.2,0,0,0,.15-1.57,1.3,1.3,0,0,0-1.623.1,4.552,4.552,0,0,0-1.332,1.7,2.628,2.628,0,0,1-1.455,1.542,12.138,12.138,0,0,0-3.934,2.734,43.817,43.817,0,0,0-3.5,3.537,1.843,1.843,0,0,1-1.893.765c-.534-.1-.953.487-1.408.868-1.052.882-1.13,3.15-3.355,2.478-.266-.08-.893.177-.937.372-.168.745-.847.864-1.249,1.29-.487.517-1.213.574-1.608.978a4.062,4.062,0,0,1-4.022,1.41,1.767,1.767,0,0,0-1.257.372c-.917.528-1.65,1.417-3.215,1.4,1.427.705,1.206,1.176.276,1.631a7.464,7.464,0,0,1-3.18,1.247,6.73,6.73,0,0,0-3.43,1.525c-1.951,1.289-4.739.547-6.678,2.244-.106.092-.465.006-.634-.106a1.069,1.069,0,0,0-1.265-.022.978.978,0,0,1-1.039-.008,2.485,2.485,0,0,0-3.253.069c.695.578,1.277-.476,2-.2a.862.862,0,0,1-.767.552c-3.469.708-6.811,1.844-10.454,1.937a55.057,55.057,0,0,0-10.006,1.07c.266.086.739.08.968.437.649,1.011,1.615.858,2.564.749a7.228,7.228,0,0,1,2.119-.3,22.421,22.421,0,0,0,8.692-.246c-.051.88-1.289.3-1.305,1.345,1.351-.374,2.773-.183,4.029-.962-.6-.485-1.142.333-1.759-.049.17-.54,1.424-.323.91-1.274a1.739,1.739,0,0,1,.6-.25,9.792,9.792,0,0,1,1.606.183,7.333,7.333,0,0,0,5.538-.979,6.6,6.6,0,0,1,2.629-.995,61.348,61.348,0,0,0,6.448-1.905c.537-.157.095-1.015.768-.778,1.121.394,2.083-.115,3.071-.486a18.456,18.456,0,0,1,3.015-1.315c.91-.171,1.668-.52,1.408-1.7-.067-.307.154-.514.41-.639a.55.55,0,0,1,.779.339c.355.813.844.6,1.429.294,1.526-.8,3.071-1.558,4.606-2.337.254-.129.484-.384.78-.177.007.462-.541.37-.58.7.507.2,1.221-.723,1.388-.075.288,1.12.681.59,1.271.416.486-.143,1.181-.775,1.58.216a.573.573,0,0,0,.476-.015c1.262-1.045,3.056-1.148,4.2-2.4a3.029,3.029,0,0,1,2.3-.924,2.353,2.353,0,0,0,2.162-1.436c.228-1.187,1.076-1.552,1.755-2.209.751-.726,1.77-1.121,2.4-1.989.151-.209.518-.518.289-.676-.989-.684-.207-.819.285-.936a2.356,2.356,0,0,0,1.1-.751c1.331-1.307,2.641-2.636,3.966-3.95a1.984,1.984,0,0,0,.713-1.509,4.7,4.7,0,0,0-1.2.656c-1.622,1.717-3.564,3.063-5.3,4.647a23.72,23.72,0,0,1-5.5,3.914c-.964.476-2.134.513-2.923,1.3-1.521,1.521-4.049,1.349-5.343,3.227-2.124-.292-3.549,1.329-5.336,1.96-.376.133-.716.413-1.293-.061m31.175-19.515a4.816,4.816,0,0,1-2.08,3.206,6.323,6.323,0,0,0-2.58,3.693,2.661,2.661,0,0,0,1.227-1.039,7.512,7.512,0,0,1,2.6-2.148,4.851,4.851,0,0,0,2.239-2.027,23,23,0,0,1,2.316-3c.809-.927,2.231-1.594,1.468-3.257-.05-.108.2-.384.345-.548,2.61-2.918,4.538-6.337,6.927-9.417a.576.576,0,0,0,.1-.739c-.161-.256-.191-.619.07-.734,1.241-.547,1.34-1.831,1.918-2.81a42.132,42.132,0,0,1,4.575-6.187c1.958-2.251,2.253-5.179,3.442-7.736a17.6,17.6,0,0,0,1.347-3.808c-.381-.208-.6.559-.929.138-.248-.32.035-.6.261-.824.577-.562.369-1.231.314-2.023a8.041,8.041,0,0,0-1.1,2.829c-1.163,3.348-2.875,6.45-4.306,9.676-1.469,3.313-3.123,6.533-5.931,8.977a1.219,1.219,0,0,0-.5.786,10.312,10.312,0,0,1-2,4.753,1.907,1.907,0,0,1-1,.83c-1.631.582-3.313,1.628-3.5,3.255-.174,1.556-1.222,2.227-1.857,3.292-.449.755-1.617,1.075-1.274,2.315.066.238-.3.6-.678.476-.477-.157-.713-.042-.968.406a1.468,1.468,0,0,1-1.749.683,2.956,2.956,0,0,0-2.167.226,11.406,11.406,0,0,1,1.227-2.374c.58-.653.1-1.016-.181-1.376-.489-.637-.737.129-1.036.314a9.58,9.58,0,0,0-2.213,2.347c-.4.49-.779,1.552-.116,1.911a5.644,5.644,0,0,0,3.1.471c.307-.026.619-.642.9-.151.217.378-.24.609-.564.785-.28.152-.666.337-.358.7s.524-.1.771-.241c.713-.413.836-1.524,1.932-1.624M24.012,97.072A4.241,4.241,0,0,1,23.3,99.2c-.154.323-.5.613-.341.99.275.662-.228.9-.612.912-1,.028-1.246.829-1.381,1.447a7.47,7.47,0,0,1-1.236,2.836,3.121,3.121,0,0,0-.3,1.719c-.02.266,0,.6.368.6.278,0,.288-.289.36-.5a17.566,17.566,0,0,1,1.38-3.4,3.259,3.259,0,0,1,.438-.623c1.606.837,1.139-.79,1.281-1.236a99.421,99.421,0,0,1,6.308-14.573c1.469-2.908,3.251-5.659,4.911-8.469,1.07-1.81,2.456-3.5,3.178-5.431a23.017,23.017,0,0,1,2.738-4.652,16.71,16.71,0,0,1,3.592-4.057.7.7,0,0,0,.288-1.033A22.48,22.48,0,0,0,39.3,69.066a49.336,49.336,0,0,1-6.474,8.486,5.215,5.215,0,0,0-1.4,1.955,22.878,22.878,0,0,1-2.72,5.574,104.967,104.967,0,0,0-5.368,10.51,12.5,12.5,0,0,0-1.047,3.889c.7-.73.87-1.774,1.724-2.408M199.874,202.8c.759-.08,1.212.718,1.806.085,1.459-1.553,2.976-3.059,4.317-4.709.388-.478,1.315-1.05.934-1.727-.493-.878-.177-1.09.537-1.321.3-.1.72-.281.536-.626-.236-.441-.661-.186-.9.076-.884.953-2.582,1.187-2.594,2.919a.489.489,0,0,1-.192.351c-1.86,1.186-2.978,3.039-4.439,4.952m-26.569,26.988c-.633.531-1.134-.341-1.637-.093-1.388.686-2.751,1.425-4.1,2.184-.216.121-.811.226-.321.756.284.306.387.7,1,.445,1.056-.434,2.228-.473,3.07-1.5.529-.649,1.548-.858,1.989-1.788M57.834,50.532c1.212.344,2.33-1.609,3.1.321.955-.818,2.4-1.084,2.75-2.585.085-.367.233-.668-.074-.991a.777.777,0,0,0-1.106-.017c-1.483,1.012-2.945,2.057-4.673,3.272m-9.115,8.185c.056-.429-.134-.535-.371-.576-.557-.1-1.189-.447-1.6.208a15.775,15.775,0,0,1-1.832,2.238.858.858,0,0,0,.005,1.325.919.919,0,0,0,1.332-.155c.7-.772,1.4-1.545,2.07-2.34a3.7,3.7,0,0,0,.4-.7m145.647-2.135c-.4.819.23,1.383.818,1.8a20.585,20.585,0,0,1,3.883,3.243c.169.2.309.508.635.276.284-.2.163-.515.049-.74a4.051,4.051,0,0,0-1.389-1.748c-1.368-.873-2.356-2.266-4-2.827M11.82,110.83l.311.068c.823-2.361,1.6-4.741,2.493-7.074a2.3,2.3,0,0,0-.444-2.447L11.82,110.83M64.169,47.152a1.576,1.576,0,0,0,.354-.146c1.347-.973,2.695-1.944,4.025-2.94.263-.2.131-.5,0-.743-.158-.285-.413-.152-.584-.042a21.494,21.494,0,0,0-4.132,3.212c-.324.342-.045.554.338.658M17.514,137.195c.438,1.807-1.133,3.24-.835,4.993.057.336-.13.859.313.927.423.065.775-.424.831-.764a9.579,9.579,0,0,0-.309-5.156M6.973,145.554c.86-.9,0-1.675.007-2.518.037-2.612-.454-5.2-.235-7.832a6.378,6.378,0,0,0-.22-2.939l-.411.037.86,13.251m62.5-100.018a.532.532,0,0,0-.583-.438,1.7,1.7,0,0,0-.74.293c-.65.435-1.608.425-1.945,1.3a.438.438,0,0,0,.29.546c.92.209,1.4-.58,2.05-.982.327-.2.785-.268.928-.72m110.152.984c-.586-.43-.965-1.158-1.712-1.18-.248-.007-.188.449-.088.7.368.905,1.116.591,1.8.484M99.421,243.369c-.609-.791-1.427-.4-2.053-.637-.249-.1-.583-.1-.584.282a.46.46,0,0,0,.547.456,9.97,9.97,0,0,1,2.09-.1" transform="translate(0 -16.118)" fill="#fff"/>
          <path id="Path_14633" data-name="Path 14633" d="M821.152,233.687c.179-1.415-.356-2.612-.432-3.856-.219-3.6-1.938-6.815-2.7-10.277-.481-2.189-2.1-3.92-2.548-6.047-.431-2.044-1.664-3.758-1.972-5.82a7.926,7.926,0,0,0-1.609-3.25,6.962,6.962,0,0,1-1.237-2.8c.68,1.229,1.728,2.21,2.289,3.485a20.067,20.067,0,0,0,2.417,3.757c1.1,1.485,1.185,1.409,1.78,4.022.113.5.186,1.091,1.052,1.074.7-.014.886.605,1.067,1.316.809,3.188.807,6.578,2.062,9.622a49.842,49.842,0,0,1,2.887,12.167c.276,1.928.97,3.822,1.232,5.787.035.261.237.547-.056.732-.27.172-.339-.416-.82-.163,1.585,2.333.72,5.287,2.042,8.169.606-2.217.3-4.1.359-5.9.431-.143.593.044.621.267a40.284,40.284,0,0,1-.169,12.811c-.159.818.33,1.765-.754,2.608-.141-2.7.012-5.3-.742-7.783l-.355.02c.185,1.945.349,3.893.563,5.835a11.019,11.019,0,0,1-.587,5.852c0-2-.033-4,.01-6a25.651,25.651,0,0,0-.682-4.939,7.455,7.455,0,0,1-.121-1.757,28.9,28.9,0,0,0-1.118-8.245,1.186,1.186,0,0,1,.171-1.222,1.02,1.02,0,0,0,.231-.747,5.673,5.673,0,0,1-.016-3.168c.135-.37-.131-.784-.638-.962-.712,1.088-.131,2.271-.437,3.464l-.968-2.437c.261,3.808.31,7.383.838,10.885.225,1.491-.116,3.141.908,4.582.373.525.548,2.012-.286,2.277-.584.186-.6-1.175-.762-1.851a47.725,47.725,0,0,1-.737-6.17c-.243-2.207-.2-4.47-1-6.606a7.935,7.935,0,0,1-.276-2.523,32.851,32.851,0,0,0-1.388-6.61,2.481,2.481,0,0,1-.1-.532c-.008-.612.108-1.378.727-1.428.572-.045.681.719.761,1.265.05.336-.115.741.493,1.09m-.089.655c.25,1.018.452,1.789.625,2.566.08.359.26.624.628.552.425-.083.372-.464.29-.771a4.087,4.087,0,0,0-1.542-2.347m3.981,12.717c-.468,1.638.183,3.214.47,4.829.349-1.637-.4-3.17-.47-4.829" transform="translate(-589.199 -146.552)" fill="#fff"/>
          <path id="Path_14634" data-name="Path 14634" d="M199.908,773.419c.143.712-.924,0-.629.807a.872.872,0,0,0,1.006.665,5.9,5.9,0,0,1,3.211.957c.35.19,1.005.21.58.917-.118.2.064.322.2.434.271.218,1.065-.02.8.61s-.853.154-1.3.016c-1.057-.328-2.03-.924-3.248-.7-.4.073-1.429.121-.982-.978.014-.035-.08-.14-.145-.176-1.816-1.017-3.508-2.3-5.692-2.51a1.153,1.153,0,0,1-1.1-.8,2.832,2.832,0,0,0-2.582-1.541,2.478,2.478,0,0,1-1.627-.447c-2.006-1.38-4.055-2.7-6.068-4.065-.4-.269-.695-.531-1.209-.237-.4.229-.769,0-1.118-.266a35.164,35.164,0,0,1-2.825-2.111c-.361-.334-1.472-.553-.706-1.552.087-.114-.377-.65-.613-1.036.393-.264.673.088.936.212a83.654,83.654,0,0,1,10.92,6.828c.665.451,1.319.917,2,1.35.28.179.656.536.921.114.228-.364-.261-.466-.474-.677-.885-.878-2.2-1.3-2.765-2.588a1.958,1.958,0,0,1,1.3.665,1.739,1.739,0,0,0,1.274.643c-.609-.762,2.165-1.008-.364-2.063l.876-.224c1.755,2.444,4.917,2.748,6.961,4.753l-.237.421q-2.42-1.252-4.839-2.508a5.5,5.5,0,0,0-.576-.36c-.34-.124-.741-.62-1.044-.045-.224.426.254.645.525.827a33.437,33.437,0,0,0,6.419,3.427,7.8,7.8,0,0,1,2.211,1.241" transform="translate(-127.822 -553.332)" fill="#fff"/>
          <path id="Path_14635" data-name="Path 14635" d="M88.372,640.659a26.235,26.235,0,0,0-3.674-2.644,2.834,2.834,0,0,1-1.106-1.494,2.986,2.986,0,0,0-1.771-1.786,2.7,2.7,0,0,1-1.4-1.366c-2.214-3.5-4.255-7.11-6.8-10.415a41.7,41.7,0,0,1-4.774-8.328,58.078,58.078,0,0,1-2.26-5.435c.136-.008.234-.045.284-.011.441.29.487,1.383,1.235.9.558-.36.061-1.068-.209-1.569-.714-1.318-.962-2.794-1.593-4.314a1.054,1.054,0,0,1,.968.923,14.36,14.36,0,0,0,1.432,3.208c.134.275.19.625.617.619.972-.014,1.062.82,1.13,1.416a10.387,10.387,0,0,0,2.25,5.4,15.952,15.952,0,0,1,1.506,2.9.658.658,0,0,1-.085.875c-.372.3-.543-.146-.891-.307.962,2.891,3.013,5.045,4.506,7.526,1.779,2.957,4.187,5.41,6.416,8.02a30.611,30.611,0,0,1,4.218,5.891" transform="translate(-48.19 -439.141)" fill="#fff"/>
          <path id="Path_14636" data-name="Path 14636" d="M92.255,66.576c-.063-.81.632-.973.926-1.667a19.961,19.961,0,0,0-3.133,2.139c.54.33.764-.392,1.206-.178-.03.117-.021.286-.1.346-.757.592-1.255,1.566-2.584,1.206-.477-.129-1.306.693-1.447,1.269-.532,2.169-2.3,3.249-3.883,4.306a32.284,32.284,0,0,0-6.688,5.957,56.791,56.791,0,0,1-4.8,5.512A11.162,11.162,0,0,0,69.448,88.8,19.841,19.841,0,0,1,64.52,95.68c-.675.553-1.01,1.561-2.378,1.516,1.068-1.555,1.361-3.386,2.429-4.784.987-1.292,1.867-2.71,2.945-3.871,1.906-2.053,3.352-4.45,5.391-6.424a113.084,113.084,0,0,0,7.781-8.873,18.523,18.523,0,0,1,2.781-2.566c.552-.438,1.3.135,1.972-.483,1.854-1.706,3.843-3.266,5.8-4.854.913-.74,1.879-1.413,2.825-2.111a.617.617,0,0,1,.758-.09c.327.25-.1.471-.092.679.031,1.639-1.162,2.156-2.48,2.757" transform="translate(-45.166 -45.821)" fill="#fff"/>
          <path id="Path_14637" data-name="Path 14637" d="M712.953,97.974a27.456,27.456,0,0,1,6.224,2.834c-.431.453-.778-.138-1.169.267.695.808,1.243,1.775,2.411,2.107a1.45,1.45,0,0,1,.581.329c3,2.856,6.309,5.4,8.769,8.81,1.578,2.19,3.376,4.218,5.009,6.37.45.593,1.437.42,1.612,1.31a5.53,5.53,0,0,0,.861,2.766,4.206,4.206,0,0,1-.718-.158c-1.124-.631-1.522-1.925-3.036-2.449-1.449-.5-2.494-2.4-3.529-3.815-1.717-2.353-3.2-4.874-5.333-6.915a13.121,13.121,0,0,1-1.937-2.437,2.128,2.128,0,0,0-1.137-1.081,11.732,11.732,0,0,1-3.936-2.086c-1.32-1.08-2.985-1.739-4.07-3.1-.63-.792-.08-1.848-.6-2.748" transform="translate(-518.188 -71.209)" fill="#fff"/>
          <path id="Path_14638" data-name="Path 14638" d="M622.957,69.591c-.147-.653-.938-.488-1.075-1.139a2.559,2.559,0,0,1,2.064.7c.7.487,1.608.615,2.193,1.3.13.152.469.3.611.238a3.117,3.117,0,0,1,3.172.124.388.388,0,0,0,.353-.069c.787-.739,1.6-.473,2.172.584a6.14,6.14,0,0,0,2.435,2.636,3.129,3.129,0,0,1,1.421,1.443c-.791.149-1.292-.47-2.18-.521,1.154,1.152,2.551,1.642,3.641,2.546.172.142.389.231.56.373a1.164,1.164,0,0,1,.042,1.605c-.378.583-.762-.058-1.058-.338a26.123,26.123,0,0,0-6.882-4.546c-2.7-1.268-5.262-2.784-7.99-3.978a18.021,18.021,0,0,1-2.25-1.25c-.29-.18-.963-.252-.638-.783.222-.363.61.033.937.184a6.8,6.8,0,0,0,2.472.892" transform="translate(-450.236 -49.69)" fill="#fff"/>
          <path id="Path_14639" data-name="Path 14639" d="M36.164,477.015c-.513.788-1.054,1.293-.765,1.963a2.406,2.406,0,0,1,.082,2.123c-.455-1.758-.872-3.256-1.226-4.77-.266-1.139-.476-2.294-.658-3.45a2,2,0,0,1,.1-1.2c.172-.308.558-1.089,1.029-.243.55.986.753.355,1.053-.138a3.99,3.99,0,0,0,.252-2.134c.034-1.171.009-2.343.009-3.492.686-.08.729.294.706.587-.161,2.062.546,4.006.877,5.991a13.033,13.033,0,0,1,.649,2.618A3.079,3.079,0,0,1,37.752,477c-.75.957.022,2.162.224,3.248.344,1.853.879,3.667,1.262,5.5a6.186,6.186,0,0,1-.43,2.518c-.167.609-.77.429-.985-.088-.415-1-.756-2.031-1.074-3.066-.069-.223.029-.708.153-.747,1.241-.392.8-1.331.542-1.989a44.526,44.526,0,0,1-1.279-5.362" transform="translate(-24.389 -338.455)" fill="#fff"/>
          <path id="Path_14640" data-name="Path 14640" d="M530.724,831.282c.2-.064.588-.335.862-.249,2.137.667,4.047.158,6.129-.547,2.129-.721,4.442-.95,6.613-1.7a9.684,9.684,0,0,1,4.034-.861,8.639,8.639,0,0,0,3.151-.316,44.112,44.112,0,0,0,7.808-2.955,53.783,53.783,0,0,0,8.357-4.2c.13-.087.381-.157.481-.091a.362.362,0,0,1,.006.587,3.3,3.3,0,0,1-.823.692c-4.05,1.96-7.867,4.44-12.2,5.759-2.457.748-4.712,2.2-7.233,2.528-3.455.447-6.688,1.685-10.074,2.32-.258.048-.678.085-.784-.055-.51-.668-1.134-.317-1.723-.29-1.611.072-3.379,1.423-4.6-.627" transform="translate(-385.74 -596.24)" fill="#fff"/>
          <path id="Path_14641" data-name="Path 14641" d="M584.186,40.433c-2.006-.515-3.684-1.689-5.515-2.587.735,1.863,3.244,1.528,4.257,3.617-2.969-1.333-5.935-1.83-8.168-3.944a8.319,8.319,0,0,0-2.5-1.359c-.536-.236-1.189-.258-1.2-1.06-1.345.082-1.679-1.53-3.12-1.67a16.685,16.685,0,0,1-4.924-1.786c-1.126-.507-2.339-.691-3.465-1.164-.292-.123-.7-.158-.617-.571s.521-.278.808-.274a9.891,9.891,0,0,1,3.508.958c2.512,1,5,2.065,7.51,3.076,0,0,.968.927.474-.264.111-.034.255-.132.327-.094,1.221.643,3.071.24,3.545,2.152.066.266.525.576.751.428.928-.6,1.6.076,2.235.453,2.1,1.251,4.424,2.176,6.094,4.09" transform="translate(-406.235 -21.52)" fill="#fff"/>
          <path id="Path_14642" data-name="Path 14642" d="M306.809,3.5c-.291-.567-.988.457-1.094-.229-.093-.612.58-.64,1.035-.844,1.383-.621,2.864-.263,4.293-.491a32.947,32.947,0,0,0,7.6-1.762,4.85,4.85,0,0,1,1.885-.152.521.521,0,0,1,.554.3c.337.81.513.963,1.486.652A3.611,3.611,0,0,1,324.9,1.3c.22.068.55.231.418.583a.564.564,0,0,1-.694.3c-2.937-.587-5.871-.182-8.8.016-.264.018-.968-.245-.355.523.286.358-.238.446-.535.523-3.047.787-6.259.819-9.21,2.1a1.59,1.59,0,0,1-2.092-.393c-.351-.517-.723-.052-1.076.058-.786.245-1.447,1.006-2.383.607-.232-.426.889-.524.216-1.1-.12-.1.582-.512.682-.377.791,1.07,1.445.126,2.044-.16a3.078,3.078,0,0,1,2.352-.261c.436.13.98.332,1.345-.216" transform="translate(-218.147 0)" fill="#fff"/>
          <path id="Path_14643" data-name="Path 14643" d="M119,662.633c-.356-1.454-1.483-2.426-2.268-3.611-.2-.3-.488-.535-.3-1.05.775.325,1.452.793,1.576,1.539a3.549,3.549,0,0,0,2.086,2.476c.076.045.224.045.243.1.576,1.67,2.377,2.114,3.393,3.432a62.272,62.272,0,0,0,5.714,5.849c.92.914,1.867,1.8,2.8,2.7l-.33.372c-.858-.7-1.7-1.431-2.582-2.1-.382-.29-.678-1.175-1.233-.663-.509.469.222.936.523,1.354.109.151.208.293-.01.671-1.452-1.572-3.5-2.516-4.558-4.324-1.245-2.12-2.91-3.916-4.177-6a3.912,3.912,0,0,0-.923-.788Z" transform="translate(-84.58 -478.226)" fill="#fff"/>
          <path id="Path_14644" data-name="Path 14644" d="M353.237,13.1c-1.328.485-2.545.888-3.832.179-.43-.237-.752-.419-.7-1,.08-.865-.29-1.09-1.162-.831-2.134.634-4.41.54-6.556,1.195a20.025,20.025,0,0,1,5.681-1.763,22.7,22.7,0,0,0,4.856-1c1.6-.614,3.167-.159,4.689-.724a4.045,4.045,0,0,1,3.167.324c1.318.671,2.778.056,4.164.231.366.046.989-.2,1.027.3.047.609-.612.594-1.035.544-2.586-.3-5.138.472-7.768.207.94-.721,2.043-.634,3.092-.789-1.6-.49-3.11.245-4.665.332a14.577,14.577,0,0,0-2.486.587c-.5.12-.665.358-.205.706.371.281.25.5.243.9-.012.716.989.076,1.488.6" transform="translate(-247.836 -6.512)" fill="#fff"/>
          <path id="Path_14645" data-name="Path 14645" d="M100.876,158.928a15.339,15.339,0,0,1-3.588,4.324c-2.569,2.084-4.014,4.945-5.761,7.619-1.3,1.984-2.743,3.87-4.145,5.784A2.9,2.9,0,0,0,86.8,177.7a4.594,4.594,0,0,1-1.433,2.4c-.691.626-1.13,1.53-1.781,2.236,3.784-9.262,9.947-16.768,17.293-23.406" transform="translate(-60.75 -115.512)" fill="#fff"/>
          <path id="Path_14646" data-name="Path 14646" d="M824.537,622.082c-.652-.187-.37-.535-.194-.839.95-1.635,1.816-3.329,2.885-4.883a49.182,49.182,0,0,0,4.422-7.431c1.082-2.376,2.241-4.708,3.507-6.988.16-.287.231-.854.7-.631.424.2.094.615-.016.951-1.14,3.466-3.423,6.359-4.865,9.652-1.1,2.5-3.2,4.379-3.957,7.087-.292,1.046-1.337,1.885-2.055,2.806a1.5,1.5,0,0,1-.425.275" transform="translate(-598.992 -437.008)" fill="#fff"/>
          <path id="Path_14647" data-name="Path 14647" d="M412.434,863.521a11.2,11.2,0,0,0-4.605-.2c-.042.009-.116.01-.131-.014-1.1-1.707-2.936-.711-4.365-1.2-.213-.073-.41-.189-.617-.279-.256-.111-.537-.245-.48-.562.063-.351.415-.319.665-.3a24.376,24.376,0,0,1,4.153.467,11.688,11.688,0,0,0,3.619.291,5.932,5.932,0,0,1,2.718.6c.39.172.847.279.738.789-.1.464-.591.29-.926.343-.179.029-.361.032-.768.065" transform="translate(-292.347 -625.755)" fill="#fff"/>
          <path id="Path_14648" data-name="Path 14648" d="M794.072,263.038c-1.008-.563-.968-1.341-1.644-1.884-.212,1.133.8,1.89.619,2.855-1.959-1.52-2.173-2.233-1.28-4.435.177-.438-.121-.7-.27-.987a15.065,15.065,0,0,1-1.242-3.009c-.1-.373-.25-.921.17-1.116.437-.2.717.28.909.62.84,1.49,1.951,2.989,2.079,4.632a10.147,10.147,0,0,0,.659,3.325" transform="translate(-574.293 -184.913)" fill="#fff"/>
          <path id="Path_14649" data-name="Path 14649" d="M512.22,18.4c-.839-.875-2.009-.908-3.073-1.122-2.189-.442-4.4-.767-6.6-1.137-.219-.037-.5-.015-.548-.285-.072-.393.266-.406.525-.449a17.605,17.605,0,0,1,4.394.116c.79.068,1.6.163,2.4.214.872.055,1.717-.253,2.3.991.324.687,1.669.891,2.634,1.352a2.074,2.074,0,0,1-2.074.292Z" transform="translate(-364.851 -11.12)" fill="#fff"/>
          <path id="Path_14650" data-name="Path 14650" d="M751.508,725.732c-2.543,2.777-4.927,5.741-8.722,6.915-.245.076-.516.363-.73.084-.261-.341.094-.573.3-.79.622-.659,1.247-1.317,1.9-1.949.22-.215.585-.555.764-.493,1.317.456,1.884-.6,2.541-1.281,1.131-1.168,2.727-1.509,3.953-2.485" transform="translate(-539.273 -527.476)" fill="#fff"/>
          <path id="Path_14651" data-name="Path 14651" d="M45.74,576.054c-1.645-.846-5.405-12.05-4.932-14.9,1.957,5,3.074,10.044,4.932,14.9" transform="translate(-29.63 -407.858)" fill="#fff"/>
          <path id="Path_14652" data-name="Path 14652" d="M837.323,377.522c-1.088-1.01-1.055-2.394-1.112-3.563-.119-2.444-.855-4.786-.946-7.217a4.362,4.362,0,0,1,.051-.948.578.578,0,0,1,.3-.4c.257-.076.41.12.467.365.244,1.049.545,2.09.712,3.152a30.825,30.825,0,0,1,.282,6.483c-.04.721.467,1.356.246,2.127" transform="translate(-607.082 -265.564)" fill="#fff"/>
          <path id="Path_14653" data-name="Path 14653" d="M161.836,732.31a12.574,12.574,0,0,1-3.508-2.547,23.714,23.714,0,0,1-4.114-3.691,9.165,9.165,0,0,1-.611-.876c-.2-.344-.509-.772-.079-1.087.39-.286.654.163.882.41a38.128,38.128,0,0,1,3.042,3.427,3.345,3.345,0,0,0,1.566,1.4c1.58.421,2.64,1.191,2.822,2.964" transform="translate(-111.426 -526.228)" fill="#fff"/>
          <path id="Path_14654" data-name="Path 14654" d="M318.606.416a.437.437,0,0,1-.439.439c-2.561-.143-4.534,1.7-6.952,2.043-.365.051-.745.215-.967-.183s.02-.706.4-.843c2.362-.843,4.692-1.836,7.276-1.748.244.008.567-.05.679.292" transform="translate(-225.43 -0.086)" fill="#fff"/>
          <path id="Path_14655" data-name="Path 14655" d="M199.171,752.422c-3.146-.81-5.046-3.2-7.057-5.455a18.886,18.886,0,0,1,7.057,5.455" transform="translate(-139.632 -542.91)" fill="#fff"/>
          <path id="Path_14656" data-name="Path 14656" d="M270.506,793.368c.417.647,1.175.614,1.782.837a24.661,24.661,0,0,1,4.109,2.014c1.047.624,2.381.1,3.27,1.254l-3.813-.667c.51.535,1.252.533,1.8.9.188.126.405.257.228.525a.32.32,0,0,1-.476.085c-.688-.533-1.655-.49-2.293-1.128-.22-.221-.95-.172-.251-.789.358-.317-.235-.309-.409-.4-1.034-.538-2.059-1.1-3.13-1.555a1.278,1.278,0,0,1-.8-1.106Z" transform="translate(-196.609 -576.617)" fill="#fff"/>
          <path id="Path_14657" data-name="Path 14657" d="M804.411,245.254c-1.1-1.323-4.715-8.954-4.832-10.2a26.813,26.813,0,0,1,4.832,10.2" transform="translate(-581.149 -170.842)" fill="#fff"/>
          <path id="Path_14658" data-name="Path 14658" d="M799.469,688.123a6.066,6.066,0,0,1-2.294,3.743c-.529.471-1.226.734-1.573,1.436a.6.6,0,0,1-.943.187c-.337-.278-.237-.661.037-.96a4.479,4.479,0,0,0,.956-1.292.446.446,0,0,1,.318-.224c1.032-.075,1-.091,1.628-1,.471-.677.739-1.57,1.87-1.894" transform="translate(-577.418 -500.141)" fill="#fff"/>
          <path id="Path_14659" data-name="Path 14659" d="M560.592,12.065a12.466,12.466,0,0,1,4.627.822,11.324,11.324,0,0,0,2.973.843c.49.016,1.008.369.919.811-.122.607-.712.345-1.123.214q-3.226-1.033-6.442-2.1a6.253,6.253,0,0,1-.953-.594" transform="translate(-407.449 -8.76)" fill="#fff"/>
          <path id="Path_14660" data-name="Path 14660" d="M565.356,39.911a25.256,25.256,0,0,1-7.642-2.7c2.844.042,5.216,1.471,7.642,2.7" transform="translate(-405.357 -27.046)" fill="#fff"/>
          <path id="Path_14661" data-name="Path 14661" d="M787.631,199.6a12.307,12.307,0,0,1,3.613,5.282c.09.238.318.518,0,.724-.26.168-.4-.088-.513-.275-.788-1.251-1.067-2.9-2.914-3.333-.235-.055-.131-1.544-.187-2.4" transform="translate(-572.465 -145.071)" fill="#fff"/>
          <path id="Path_14662" data-name="Path 14662" d="M295.524,818.892c.214.4.8.452.905.954-2.013.3-5.656-.725-8.085-2.409,2.724.158,4.709,2.284,7.228,1.5l-.049-.046" transform="translate(-209.574 -594.128)" fill="#fff"/>
          <path id="Path_14663" data-name="Path 14663" d="M656.865,810.426c1.982-1.092,3.77-2.6,6.127-2.894a11.029,11.029,0,0,1-6.127,2.894" transform="translate(-477.422 -586.929)" fill="#fff"/>
          <path id="Path_14664" data-name="Path 14664" d="M446.206,12.231a.454.454,0,0,1,.472-.431q2.983-.049,5.966-.075c.338,0,.692.1.715.469.022.344-.347.4-.608.363-2.086-.316-4.181.026-6.267-.111-.1-.007-.2-.149-.279-.215" transform="translate(-324.311 -8.522)" fill="#fff"/>
          <path id="Path_14665" data-name="Path 14665" d="M115.144,143.328c-.033-1.875.59-2.617,3.064-3.653-1.446,2.916-1.446,2.916-3.064,3.653" transform="translate(-83.688 -101.518)" fill="#fff"/>
          <path id="Path_14666" data-name="Path 14666" d="M847.417,427.861c.154-.512-.443-1.621.378-1.757.665-.11.453,1.1.644,1.689a8.088,8.088,0,0,1,.119,2.435c0,.435-.128.858-.7.76-.525-.09-.866-.421-.624-.965a4.665,4.665,0,0,0,.187-2.162" transform="translate(-615.725 -309.696)" fill="#fff"/>
          <path id="Path_14667" data-name="Path 14667" d="M728.678,135.789c1.17.954,2.217,1.84,3.3,2.678.437.338.768.6.374,1.2-.507.764-.7-.008-1-.183-.951-.558-1.447-1.578-2.268-2.271-.425-.358-.354-.855-.407-1.421" transform="translate(-529.617 -98.694)" fill="#fff"/>
          <path id="Path_14668" data-name="Path 14668" d="M22.117,252.818a14.03,14.03,0,0,1,1.737-3.81c.141-.209.3-.38.541-.248.221.123.219.382.156.611a16.886,16.886,0,0,1-1.661,3.849c-.135.238-.287.531-.609.345-.27-.156-.184-.478-.163-.746" transform="translate(-16.053 -180.769)" fill="#fff"/>
          <path id="Path_14669" data-name="Path 14669" d="M66.8,543c-.068.139-.1.352-.225.429a.428.428,0,0,1-.585-.175,12.6,12.6,0,0,1-1.236-3.376c-.08-.257.145-.519.4-.644.42-.2.514.18.711.407.837.967.381,2.275.931,3.36" transform="translate(-47.055 -391.883)" fill="#fff"/>
          <path id="Path_14670" data-name="Path 14670" d="M764.711,191.841a7.755,7.755,0,0,1,2.966,3.29.528.528,0,0,1-.08.732.474.474,0,0,1-.723-.033,9.878,9.878,0,0,1-2.164-3.989" transform="translate(-555.806 -139.434)" fill="#fff"/>
          <path id="Path_14671" data-name="Path 14671" d="M195.5,742.155c.015.464-.322.415-.537.264-1.1-.775-2.422-1.253-3.253-2.395-.13-.179-.352-.359-.195-.582a.526.526,0,0,1,.483-.121,10.579,10.579,0,0,1,3.418,2.568c.056.055.055.169.082.266" transform="translate(-139.155 -537.34)" fill="#fff"/>
          <path id="Path_14672" data-name="Path 14672" d="M367.811,856a13.044,13.044,0,0,1,3.587.348c.341.049.655.151.569.583-.1.488-.416.332-.733.227a1.077,1.077,0,0,0-.663-.078c-1.29.547-2.3.379-2.76-1.08" transform="translate(-267.332 -622.128)" fill="#fff"/>
          <path id="Path_14673" data-name="Path 14673" d="M629.44,824.034c-.4.7-4.779,2.692-5.7,2.626,1.531-1.934,3.92-1.606,5.7-2.626" transform="translate(-453.349 -598.923)" fill="#fff"/>
          <path id="Path_14674" data-name="Path 14674" d="M479.34,22.918c-2.172-.364-4.427-.094-6.829-.789a12.413,12.413,0,0,1,6.829.789" transform="translate(-343.43 -15.965)" fill="#fff"/>
          <path id="Path_14675" data-name="Path 14675" d="M878.937,460.029c.187.737-.325,1.468-.382,2.274-.016.229-.148.455-.427.409a.433.433,0,0,1-.32-.627,8.319,8.319,0,0,0,.268-2.669c.025-.4-.2-1.069.469-1.045.5.018.351.631.389,1.014.018.179,0,.36,0,.646" transform="translate(-637.978 -333.151)" fill="#fff"/>
          <path id="Path_14676" data-name="Path 14676" d="M617.967,43.289c1.375.491,2.853.808,3.978,2.3-1.8-.328-3.185-.784-3.978-2.3" transform="translate(-449.15 -31.463)" fill="#fff"/>
          <path id="Path_14677" data-name="Path 14677" d="M722.44,765.1c.875-2.28,3.275-1.293,4.237-2.775-.522,2.237-2.667,1.689-4.237,2.775" transform="translate(-525.083 -554.071)" fill="#fff"/>
          <path id="Path_14678" data-name="Path 14678" d="M37.785,466.638c.711,1.254.535,2.618.96,3.833.115.329.113.955-.4.981-.433.022-.6-.55-.635-.924a16.451,16.451,0,0,1,.078-3.89" transform="translate(-27.35 -339.161)" fill="#fff"/>
          <path id="Path_14679" data-name="Path 14679" d="M349.9,848.288c-1.248-.788-2.858-.322-4.463-1.327,1.95-.217,3.45-.34,4.463,1.327" transform="translate(-251.069 -615.497)" fill="#fff"/>
          <path id="Path_14680" data-name="Path 14680" d="M63.744,502.172a4.823,4.823,0,0,1,.55,2.8c0,.352-.117.65-.5.67a.546.546,0,0,1-.576-.616c.045-.926-.181-1.906.528-2.855" transform="translate(-45.946 -364.988)" fill="#fff"/>
          <path id="Path_14681" data-name="Path 14681" d="M315.687,53.968c-1.142,1.154-2.676,1.024-3.481,2.161-.152.214-.733.119-.942-.242-.243-.422.21-.582.441-.68a14.034,14.034,0,0,1,3.982-1.24" transform="translate(-226.182 -39.225)" fill="#fff"/>
          <path id="Path_14682" data-name="Path 14682" d="M258.364,788.033c-.692.427-1.2-.111-1.735-.366a19.569,19.569,0,0,1-2.854-1.63c1.7.289,3.391.587,4.563,2.028a.376.376,0,0,0,.025-.032" transform="translate(-184.448 -571.306)" fill="#fff"/>
          <path id="Path_14683" data-name="Path 14683" d="M114.7,134.955l3.042-2.914c-.073.47-2.353,2.844-3.042,2.914" transform="translate(-83.364 -95.97)" fill="#fff"/>
          <path id="Path_14684" data-name="Path 14684" d="M67.37,523.8c-.965-1.313-.991-2.875-1.558-4.236-.082-.2-.075-.5.208-.553.337-.065.448.223.537.49a14.687,14.687,0,0,1,.813,4.3" transform="translate(-47.8 -377.222)" fill="#fff"/>
          <path id="Path_14685" data-name="Path 14685" d="M793.9,221.113a7.571,7.571,0,0,1-1.85-2.641c-.133-.3-.476-.688.049-.894.418-.164.639.224.8.549a8.081,8.081,0,0,1,1,2.987" transform="translate(-575.505 -158.111)" fill="#fff"/>
          <path id="Path_14686" data-name="Path 14686" d="M775.888,191.913c1.59.693,2.038,2.3,2.855,3.618a12.229,12.229,0,0,1-2.855-3.618" transform="translate(-563.93 -139.486)" fill="#fff"/>
          <path id="Path_14687" data-name="Path 14687" d="M855.6,410.566c-1.168-1.222-.724-2.539-.776-3.762,0-.086.165-.235.27-.251s.312.136.3.172c-.278,1.147.549,2.129.469,3.238a2.456,2.456,0,0,1-.267.6" transform="translate(-621.27 -295.49)" fill="#fff"/>
          <path id="Path_14688" data-name="Path 14688" d="M697.248,777.426c.713-.918.923-2.5,2.641-1.9a3.3,3.3,0,0,1-2.641,1.9" transform="translate(-506.773 -563.571)" fill="#fff"/>
          <path id="Path_14689" data-name="Path 14689" d="M53.472,587.211c.49.493.544,1.333,1.219,1.787.31.209.025.657-.153.975s-.508.377-.622.1a25.707,25.707,0,0,1-.84-2.528c-.058-.193.115-.315.4-.334" transform="translate(-38.568 -426.796)" fill="#fff"/>
          <path id="Path_14690" data-name="Path 14690" d="M693.612,114.023l-3.5-3.114c1.319-.1,2.656,1.063,3.5,3.114" transform="translate(-501.586 -80.606)" fill="#fff"/>
          <path id="Path_14691" data-name="Path 14691" d="M121.871,685.395c-.407-1.285-2.8-1.537-1.786-3.57.048,1.5,1.648,2.128,1.786,3.57" transform="translate(-87.099 -495.563)" fill="#fff"/>
          <path id="Path_14692" data-name="Path 14692" d="M459.2,27.944c1.407-.161,2.8-.958,4.216-.1-1.412.013-2.814.206-4.216.1" transform="translate(-333.755 -19.954)" fill="#fff"/>
          <path id="Path_14693" data-name="Path 14693" d="M40.578,219.809a4.558,4.558,0,0,1,1.679-3.215c.146-.116.317-.2.487-.058a.323.323,0,0,1,.038.484,10.666,10.666,0,0,0-2.2,2.789" transform="translate(-29.493 -157.329)" fill="#fff"/>
          <path id="Path_14694" data-name="Path 14694" d="M145.753,711.362a13.223,13.223,0,0,1-2.6-2.221c-.17-.171-.263-.4-.091-.6.237-.271.459-.13.672.086a7.594,7.594,0,0,1,2.02,2.731" transform="translate(-103.913 -514.876)" fill="#fff"/>
          <path id="Path_14695" data-name="Path 14695" d="M820.43,200.916c-.591-.827-1.71-1.187-1.876-2.3-.042-.283-.142-.7.244-.823.359-.116.632.22.726.484.31.864.592,1.739.906,2.635" transform="translate(-594.908 -143.745)" fill="#fff"/>
          <path id="Path_14696" data-name="Path 14696" d="M133.524,127.484a2.353,2.353,0,0,1,1.3-1.629c.193-.091.393-.323.576-.049a.56.56,0,0,1,.032.5c-.434.635-.778,1.451-1.905,1.174" transform="translate(-97.048 -91.344)" fill="#fff"/>
          <path id="Path_14697" data-name="Path 14697" d="M589.314,7.94c-1.206.538-1.943-.449-2.863-.608-.19-.033-.212-.341-.084-.446a.766.766,0,0,1,.6-.187,4.183,4.183,0,0,1,2.347,1.241" transform="translate(-426.124 -4.858)" fill="#fff"/>
          <path id="Path_14698" data-name="Path 14698" d="M224.081,800.7a3.916,3.916,0,0,1,2.953,1.642c-1.393.22-2.137-.443-2.953-1.642" transform="translate(-162.866 -581.963)" fill="#fff"/>
          <path id="Path_14699" data-name="Path 14699" d="M121.352,671.637c-.007.526.507.942.31,1.691-.653-.729-1.232-1.357-1.787-2.007-.219-.256-.321-.642-.021-.837.318-.207.543.16.761.37.273.263.239.817.78.828l-.043-.045" transform="translate(-86.976 -487.276)" fill="#fff"/>
          <path id="Path_14700" data-name="Path 14700" d="M724.1,118.117a6.477,6.477,0,0,1-2.892-2.853,7.668,7.668,0,0,1,2.892,2.853" transform="translate(-524.188 -83.776)" fill="#fff"/>
          <path id="Path_14701" data-name="Path 14701" d="M873.262,498.676c-.4.582-.17,1.361-.445,2.026-.1.23-.207.564-.55.471-.367-.1-.236-.4-.181-.666a8.6,8.6,0,0,0,.475-2.09.324.324,0,0,1,.438-.352c.264.079.273.318.264.612" transform="translate(-633.799 -361.988)" fill="#fff"/>
          <path id="Path_14702" data-name="Path 14702" d="M610.738,832.263c-.414,1.528-.7,1.712-3.1,2.241.831-1.036,2.02-1.274,3.1-2.241" transform="translate(-441.641 -604.904)" fill="#fff"/>
          <path id="Path_14703" data-name="Path 14703" d="M150.362,748.841a8.361,8.361,0,0,1-2.586-2.7c1.049.538,2.272.882,2.586,2.7" transform="translate(-107.406 -542.308)" fill="#fff"/>
          <path id="Path_14704" data-name="Path 14704" d="M857.9,377.217A5.225,5.225,0,0,1,857.38,374a4.286,4.286,0,0,1,.518,3.221" transform="translate(-623.117 -271.827)" fill="#fff"/>
          <path id="Path_14705" data-name="Path 14705" d="M152.511,742.679c-.767-.584-1.542-1.157-2.3-1.758-.191-.152-.463-.373-.2-.66.179-.2.444-.071.618.04a3.951,3.951,0,0,1,1.88,2.378" transform="translate(-108.954 -537.961)" fill="#fff"/>
          <path id="Path_14706" data-name="Path 14706" d="M529.1,11.85a2.87,2.87,0,0,1,2.42.181c.215.1.446.155.326.458a.425.425,0,0,1-.549.281c-.677-.34-1.581-.07-2.2-.92" transform="translate(-384.561 -8.473)" fill="#fff"/>
          <path id="Path_14707" data-name="Path 14707" d="M811.952,336.549a5.908,5.908,0,0,1-.97-3.52,3.621,3.621,0,0,1,.97,3.52" transform="translate(-589.437 -242.052)" fill="#fff"/>
          <path id="Path_14708" data-name="Path 14708" d="M829.6,293.243c.27,1.136.79,1.887.468,2.871a1.881,1.881,0,0,1-.468-2.871" transform="translate(-602.635 -213.135)" fill="#fff"/>
          <path id="Path_14709" data-name="Path 14709" d="M819.784,268.242c1.075.9,1.133,2.173,1.381,3.38a6.727,6.727,0,0,1-1.381-3.38" transform="translate(-595.834 -194.963)" fill="#fff"/>
          <path id="Path_14710" data-name="Path 14710" d="M387.369,862.167c.675,0,1.35-.013,2.025.006.308.009.7.011.657.475-.034.35-.368.338-.637.368a2.908,2.908,0,0,1-2.045-.849" transform="translate(-281.547 -626.636)" fill="#fff"/>
          <path id="Path_14711" data-name="Path 14711" d="M724.031,755.308a7.114,7.114,0,0,1-2.775,1.881c.705-.955,1.438-1.866,2.775-1.881" transform="translate(-524.223 -548.972)" fill="#fff"/>
          <path id="Path_14712" data-name="Path 14712" d="M295.057,795.813c1.023-.619,1.551.237,2.2.591.31.169.177.467-.022.682s-.569.416-.665.143c-.258-.737-1.147-.689-1.516-1.416" transform="translate(-214.453 -578.253)" fill="#fff"/>
          <path id="Path_14713" data-name="Path 14713" d="M72.814,559.807c.752,1.19,1.529,2.032,1.4,3.477-1.125-.914-1.191-2.057-1.4-3.477" transform="translate(-52.923 -406.878)" fill="#fff"/>
          <path id="Path_14714" data-name="Path 14714" d="M547.171,11.356c1.022.244,2.247.041,3.036,1.317a4.7,4.7,0,0,1-3.036-1.317" transform="translate(-397.694 -8.254)" fill="#fff"/>
          <path id="Path_14715" data-name="Path 14715" d="M53.254,630.422c.669.725,1.5,1.317,1.582,2.382.014.191.052.378-.114.478a.288.288,0,0,1-.441-.153c-.348-.9-.686-1.8-1.028-2.708" transform="translate(-38.706 -458.203)" fill="#fff"/>
          <path id="Path_14716" data-name="Path 14716" d="M26.643,280.551a5.377,5.377,0,0,1-1.039,3.16,6.742,6.742,0,0,1,1.039-3.16" transform="translate(-18.609 -203.91)" fill="#fff"/>
          <path id="Path_14717" data-name="Path 14717" d="M694.992,802.65c.637-1.131,1.76-1.053,2.65-1.428-.664.761-1.288,1.588-2.65,1.428" transform="translate(-505.133 -582.343)" fill="#fff"/>
          <path id="Path_14718" data-name="Path 14718" d="M381.34,867.215c-1.127.513-2.129-.118-3.165-.266-.1-.014-.249-.286-.233-.421a.289.289,0,0,1,.431-.18c.919.49,2.056.222,2.967.867" transform="translate(-274.695 -629.651)" fill="#fff"/>
          <path id="Path_14719" data-name="Path 14719" d="M532.12,26.237c.172.205.41.427.24.7s-.446.137-.715.07c-.765-.191-1.391-.763-2.227-.756a7.381,7.381,0,0,1,2.746.016l-.044-.032" transform="translate(-384.791 -18.987)" fill="#fff"/>
          <path id="Path_14720" data-name="Path 14720" d="M213.152,793.133a4.105,4.105,0,0,1-2.625-1.725,4.646,4.646,0,0,1,2.625,1.725" transform="translate(-153.015 -575.21)" fill="#fff"/>
          <path id="Path_14721" data-name="Path 14721" d="M342.006,852.682c-.7.034-.971.075-1.233.053-.473-.039-1.008.18-1.386-.28-.067-.081-.084-.331-.041-.354a2.245,2.245,0,0,1,1.571-.1c.269.051.5.3,1.09.681" transform="translate(-246.625 -619.183)" fill="#fff"/>
          <path id="Path_14722" data-name="Path 14722" d="M359.116,867.432c1.316,0,2.283-.17,3.273.581a3.474,3.474,0,0,1-3.273-.581" transform="translate(-261.012 -630.455)" fill="#fff"/>
          <path id="Path_14723" data-name="Path 14723" d="M847.342,387.076c.768.609.482,1.359.448,2.233-.872-.715-.6-1.485-.448-2.233" transform="translate(-615.744 -281.334)" fill="#fff"/>
          <path id="Path_14724" data-name="Path 14724" d="M541.84,6.147c-.062.143-.068.2-.094.212a2.074,2.074,0,0,1-2.216-.46c-.139-.117-.138-.392.066-.44.892-.208,1.538.324,2.244.688" transform="translate(-392.07 -3.933)" fill="#fff"/>
          <path id="Path_14725" data-name="Path 14725" d="M195.61,735.65c-.781-.125-.994-.875-1.645-.931-.282-.024-.576-.152-.379-.515a.445.445,0,0,1,.616-.111,3.013,3.013,0,0,1,1.408,1.557" transform="translate(-140.655 -533.498)" fill="#fff"/>
          <path id="Path_14726" data-name="Path 14726" d="M753.774,178.566a3.109,3.109,0,0,1,1.952,2.52c-.781-.987-1.686-1.474-1.952-2.52" transform="translate(-547.857 -129.785)" fill="#fff"/>
          <path id="Path_14727" data-name="Path 14727" d="M285.442,791.613c-.913.124-1.175-.7-1.794-1.091,1.359-.825,1.2.752,1.794,1.091" transform="translate(-206.161 -574.395)" fill="#fff"/>
          <path id="Path_14728" data-name="Path 14728" d="M825.012,525.886a2.3,2.3,0,0,1-.658,2.506l.658-2.506" transform="translate(-599.156 -382.224)" fill="#fff"/>
          <path id="Path_14729" data-name="Path 14729" d="M858.919,514.622c-.294-.974.386-1.828.283-2.757a.305.305,0,0,1,.385-.271.385.385,0,0,1,.226.546c-.383.787-.149,1.788-.894,2.483" transform="translate(-624.225 -371.827)" fill="#fff"/>
          <path id="Path_14730" data-name="Path 14730" d="M412.492,871.469h2.573c-1.053.656-1.831.177-2.569.337,0-.113,0-.225,0-.337" transform="translate(-299.807 -633.4)" fill="#fff"/>
          <path id="Path_14731" data-name="Path 14731" d="M815.4,297.28c.544.252.459.883.676,1.327.141.288.032.76-.352.69-.731-.132-.305-.917-.587-1.345-.151-.229-.153-.519.263-.672" transform="translate(-592.387 -216.069)" fill="#fff"/>
          <path id="Path_14732" data-name="Path 14732" d="M47.414,618.056A5.366,5.366,0,0,1,46.15,615.5a4.549,4.549,0,0,1,1.264,2.554" transform="translate(-33.543 -447.358)" fill="#fff"/>
          <path id="Path_14733" data-name="Path 14733" d="M32.2,272.132c-.043.516-.1,1.079-.752,1.21-.258.051-.411-.27-.3-.469.249-.453.142-1.157.715-1.349.349-.117.283.341.339.608" transform="translate(-22.611 -197.335)" fill="#fff"/>
          <path id="Path_14734" data-name="Path 14734" d="M585.574,54.76a2.714,2.714,0,0,1-2.358-1.022,3.088,3.088,0,0,1,2.358,1.022" transform="translate(-423.892 -39.058)" fill="#fff"/>
          <path id="Path_14735" data-name="Path 14735" d="M814.839,686.807c-.2-.422.2-.661.28-.99.073-.3.028-.666.395-.8a.346.346,0,0,1,.312.134,1.083,1.083,0,0,1-.16,1.03c-.218.274-.405.6-.827.628" transform="translate(-592.198 -497.878)" fill="#fff"/>
          <path id="Path_14736" data-name="Path 14736" d="M844.542,342.887a2.962,2.962,0,0,1,.391,3.061c-.761-.93-.363-1.857-.391-3.061" transform="translate(-613.771 -249.217)" fill="#fff"/>
          <path id="Path_14737" data-name="Path 14737" d="M98.317,148.911c.291-1.24,1.354-1.242,1.971-1.786a4.712,4.712,0,0,1-1.971,1.786" transform="translate(-71.459 -106.933)" fill="#fff"/>
          <path id="Path_14738" data-name="Path 14738" d="M551.874,43.225a1.747,1.747,0,0,1-2.166-.436,1.723,1.723,0,0,1,2.166.436" transform="translate(-399.538 -30.951)" fill="#fff"/>
          <path id="Path_14739" data-name="Path 14739" d="M614.362,82.148l-1.31-.91c-.21-.146-.542-.261-.314-.6.212-.312.452-.1.69.035.567.327,1.225.584.9,1.461a.162.162,0,0,0,.03.01" transform="translate(-445.293 -58.494)" fill="#fff"/>
        </g>
      </g>
      <g id="Group_154" data-name="Group 154" transform="translate(51.75 59.825)">
        <g id="Group_155" data-name="Group 155" transform="translate(0)">
          <path id="Path_14740" data-name="Path 14740" d="M62.565,19.581c-7.688.149-18.864.54-26.707.629l.411-.153A150.972,150.972,0,0,0,24.4,32.662C17.037,41.429,10.425,51.1,6.385,61.829,1.978,72.928,1.823,85.775,7.6,96.392c3.835,7.211,10.295,14.573,18.78,15.622,13.5-.029,32.162.026,45.66.059,9.211-1.132,16.119-9.5,19.852-17.487C104.7,67.66,81,37.813,62.565,19.581m0,0c20.455,17.911,44.708,47.687,32.08,76.242-4.117,9.149-11.932,18.456-22.5,19.653-13.1.039-31.654.084-44.766.063C16.56,115.381,7.663,105.091,3.622,95.893c-8.016-17.408-1.64-35.716,8.536-50.629A133.291,133.291,0,0,1,35.63,18.947c7.978.269,19.111.309,26.936.634" transform="translate(0 3.584)" fill="#7e3f98"/>
          <path id="Path_14741" data-name="Path 14741" d="M60.906,3.132C52.849,7.594,51.771.42,45.136.806l.371-.4.017.354a10.267,10.267,0,0,0-5.488,2.685,7.041,7.041,0,0,1-6.426,1.4c-2.762-.528-7.165-2.077-8.606.768a1.469,1.469,0,0,0-.061.279l-.319-1.06q4.454,5.485,8.688,11.144l-1.4-.694c8.934.025,17.855.518,26.776,1.02l-.553.25,5.2-5.327c1.687-1.586,3.641-4.069,5.1-5.281-1.264-2.6-4.891-3.422-7.524-2.805m0,0c2.734-.7,6.331.13,7.763,2.773-1.592,1.936-3.225,3.835-4.783,5.8l-4.645,5.816-.183.23-.37.02c-9.2.53-18.4,1-27.617,1.036-3.1-3.941-6.06-7.984-8.965-12.068L21.724,6.2A6.084,6.084,0,0,1,22.1,4.487c.837-2.318,3.67-3.371,5.822-3.181,3.343-.029,5.819,1.992,8.828,1.942,2.88-.5,5.043-3.269,8.324-3.245l-.372.4.018-.394L45.07,0c6.908.121,7.671,7.469,15.836,3.132" transform="translate(4.109)" fill="#7e3f98"/>
          <path id="Path_14742" data-name="Path 14742" d="M59.9,15.935c-.873-1.382-2.517-1.395-3.965-1.289l-4.42.186c-6.622.352-13.258,1.133-19.889,1.382a1.494,1.494,0,0,0-.886.427,1.376,1.376,0,0,0,1.207,2.325c7.751.13,15.471,1.06,23.205,1.5,1.451-.017,3.043.47,4.189-.562a3.006,3.006,0,0,0,.558-3.966m0,0a3.2,3.2,0,0,1-2.538,4.93l-2.209.1c-7.961.44-15.91,1.448-23.889,1.495-6.1-.527-5.794-9.517.36-9.5,6.632.249,13.267,1.03,19.891,1.382l4.42.186c1.437-.027,3.127.024,3.965,1.414" transform="translate(5.078 2.45)" fill="#7e3f98"/>
          <path id="Path_14743" data-name="Path 14743" d="M49.8,63.551q-.41-4.088-.675-8.178c3.047-.207,6.344-.4,9.406-.548a4.488,4.488,0,0,0,.585-.045c.106-.013.12-.1-.069.049a.688.688,0,0,0-.186.616c-4.753-5.614-9.519-11.8-14.039-17.691l.159.183a.321.321,0,0,0-.444.018l.162-.186C40.62,43.055,34.991,50.531,30.758,55.5a.812.812,0,0,0-.15-.7c-.319-.315-.328-.144-.1-.149,1.926.065,6.636.308,8.618.415l.953.049c-.272,4.109-.522,8.216-.953,12.314-.4-3.818-.648-7.64-.893-11.468l.893.894c-1.8.094-6.548.345-8.3.4-1.6.225-3.327-.969-2.6-2.828,1.85-2.953,4.666-6.551,7.009-9.9l6.618-8.913a3.862,3.862,0,0,1,5.613-.169c4.606,6.142,9.847,13.218,13.716,19.105.635,1.847-1.158,2.814-2.653,2.551C55.7,56.964,52.612,56.8,49.8,56.6l.635-.635q-.255,3.792-.635,7.586" transform="translate(24.281 30.626)" fill="#7e3f98"/>
          <path id="Path_14750" data-name="Path 14750" d="M43.08,54.519q-.283-2.825-.467-5.651c2.105-.143,4.384-.279,6.5-.379a3.1,3.1,0,0,0,.4-.031c.073-.009.083-.068-.048.034a.475.475,0,0,0-.128.426c-3.284-3.879-6.577-8.157-9.7-12.224l.11.127a.222.222,0,0,0-.306.012l.112-.128c-2.818,3.652-6.708,8.818-9.633,12.252a.561.561,0,0,0-.1-.481c-.22-.218-.227-.1-.067-.1,1.331.045,4.585.213,5.955.287l.658.034c-.188,2.839-.361,5.677-.658,8.508-.274-2.638-.448-5.279-.617-7.924l.617.618c-1.246.065-4.524.238-5.734.277-1.108.155-2.3-.67-1.8-1.954,1.279-2.04,3.224-4.527,4.843-6.841l4.573-6.158a2.669,2.669,0,0,1,3.878-.117c3.182,4.244,6.8,9.133,9.477,13.2.439,1.276-.8,1.944-1.833,1.762-1.958-.1-4.089-.211-6.033-.349l.439-.439q-.176,2.62-.439,5.241" transform="translate(51.843 -18.635)" fill="#7e3f98"/>
          <path id="Path_14744" data-name="Path 14744" d="M130.472,95.574a3.313,3.313,0,0,1-3.449,3.3l-1.767.017c-2.356.031-4.713.122-7.068.181-9.719.32-19.437,1.011-29.157,1.308-3.257.039-5.282-2.737-4.994-5.857l-.068-7.068A5.044,5.044,0,0,1,89.2,82.47c7.662.069,15.32.436,22.972.838,4.713.25,9.425.483,14.137.647,1.805-.187,3.87.81,4.182,2.767.149,1.186-.048,7.529-.018,8.851m0,0-.068-7.068c.187-1.711-.562-3.61-2.391-3.992-9.957-.023-20,1-29.979,1.231-2.924.077-5.905.188-8.835.2a1.531,1.531,0,0,0-1.666,1.513l-.068,7.068c-.01.2-.006.991-.014,1.184a1.631,1.631,0,0,0,1.58,1.56c5.008.152,10.014.409,15.02.668,7.067.376,14.132.7,21.205.821l1.767.017a3.26,3.26,0,0,0,3.449-3.2" transform="translate(15.883 15.599)" fill="#7e3f98"/>
          <path id="Path_14745" data-name="Path 14745" d="M130.472,83.283a3.313,3.313,0,0,1-3.449,3.3l-1.767.017c-2.356.031-4.713.122-7.068.181-9.719.32-19.437,1.011-29.157,1.308-3.257.039-5.282-2.737-4.994-5.857l-.068-7.068a5.044,5.044,0,0,1,5.23-4.983c7.662.069,15.32.436,22.972.838,4.713.25,9.425.483,14.137.647,1.805-.187,3.87.81,4.182,2.767.149,1.186-.048,7.529-.018,8.851m0,0-.068-7.068c.187-1.711-.562-3.61-2.391-3.992-9.957-.023-20,1-29.979,1.231-2.924.077-5.905.188-8.835.2a1.531,1.531,0,0,0-1.666,1.513l-.068,7.068c-.01.2-.006.991-.014,1.184a1.631,1.631,0,0,0,1.58,1.56c5.008.152,10.014.409,15.02.668,7.067.376,14.132.7,21.205.821l1.767.017a3.26,3.26,0,0,0,3.449-3.2" transform="translate(15.883 13.274)" fill="#7e3f98"/>
          <path id="Path_14746" data-name="Path 14746" d="M130.472,70.992a3.314,3.314,0,0,1-3.449,3.3l-1.767.017c-2.356.03-4.713.122-7.068.181-9.719.32-19.437,1.01-29.157,1.307-3.257.04-5.282-2.736-4.994-5.855l-.068-7.07a5.043,5.043,0,0,1,5.23-4.981c7.662.068,15.32.436,22.972.837,4.713.25,9.425.484,14.137.647,1.805-.186,3.87.811,4.182,2.768.149,1.184-.048,7.527-.018,8.851m0,0-.068-7.068c.187-1.712-.562-3.611-2.391-3.993-9.957-.021-20,1-29.979,1.231-2.924.077-5.905.189-8.835.2a1.53,1.53,0,0,0-1.666,1.511l-.068,7.07c-.01.2-.006.991-.014,1.184a1.631,1.631,0,0,0,1.58,1.56c5.008.152,10.014.409,15.02.668,7.067.376,14.132.7,21.205.819l1.767.017a3.26,3.26,0,0,0,3.449-3.2" transform="translate(15.883 10.949)" fill="#7e3f98"/>
          <path id="Path_14747" data-name="Path 14747" d="M120.016,36.671c.18,13.374-13.789,23.153-26.371,18.322-13.438-4.917-17.03-22.734-6.611-32.523,12.471-11.792,33-2.779,32.982,14.2m0,0c-.111-16.359-19.943-24.149-31.142-12.36a18.084,18.084,0,0,0,0,24.724c11.182,11.788,31.031,4.018,31.146-12.364" transform="translate(22.416 10.353)" fill="#7e3f98"/>
          <path id="Path_14748" data-name="Path 14748" d="M100.022,43.122a6.081,6.081,0,0,1-4.309-1.984l.945-1.209a5.166,5.166,0,0,0,3.364,1.776V37.113c-1.927-.529-3.911-1.172-3.911-3.5,0-1.946,1.644-3.325,3.911-3.5V28.4h1.153v1.738a5.724,5.724,0,0,1,3.742,1.739l-.945,1.153a4.6,4.6,0,0,0-2.8-1.455v4.119c1.946.548,4.025,1.266,4.025,3.742,0,1.7-1.1,3.476-4.025,3.685V44.8h-1.153Zm0-7.73V31.537c-1.341.095-2.286.888-2.286,1.984,0,1.039,1,1.493,2.286,1.871m1.153,2.022v4.309c1.8-.189,2.4-1.266,2.4-2.173,0-1.229-1.077-1.739-2.4-2.135" transform="translate(22.508 10.423)" fill="#7e3f98"/>
          <path id="Path_14749" data-name="Path 14749" d="M29.763,27.731A31.874,31.874,0,0,1,17.832,42.713,21.966,21.966,0,0,1,29.763,27.731" transform="translate(3.373 5.246)" fill="#7e3f98"/>
        </g>
      </g>
    </g>
  </g>
</svg>
