<svg id="Group_96" data-name="Group 96" xmlns="http://www.w3.org/2000/svg" xmlns:xlink="http://www.w3.org/1999/xlink" width="96.402" height="86.002" viewBox="0 0 96.402 86.002">
  <defs>
    <clipPath id="clip-path">
      <rect id="Rectangle_111" data-name="Rectangle 111" width="96.402" height="86.002" fill="#7e3f98"/>
    </clipPath>
  </defs>
  <g id="Group_95" data-name="Group 95" clip-path="url(#clip-path)">
    <path id="Path_14503" data-name="Path 14503" d="M40.044,224.65h-.89a6.864,6.864,0,0,1-4.3-2.816l-.095-.165c-.458-1.05-.457-1.047-1.612-.9-.219.027-.443.02-.665.028a.192.192,0,0,0-.268-.061l-.323-.051a9.7,9.7,0,0,1-2.959-1.394.828.828,0,0,0-.449-.572,15.468,15.468,0,0,1-.8-1.323c-.516-1.069-.5-1.077-1.727-1.027a6.038,6.038,0,0,1-4.862-3.592,9.068,9.068,0,0,1-.421-2.015.586.586,0,0,0-.648-.623A4.036,4.036,0,0,0,19,209.816L17.056,208.5a11.047,11.047,0,0,1-1.139-1.66,8.419,8.419,0,0,1-.5-2.947c.02-.121.048-.242.06-.364a9.78,9.78,0,0,1,1.122-2.6c.028-.259-.175-.392-.31-.559-.725-.9-1.465-1.782-2.176-2.689-1.1-1.406-1.113-1.41-1.829.263a7.183,7.183,0,0,1-1.146,1.538,3.065,3.065,0,0,1-2.976.444L5.2,198.247l-.46-.285a15.074,15.074,0,0,0-2.5-1.515,6.177,6.177,0,0,1-1.786-1.455,4.076,4.076,0,0,1-.307-2.966l1.64-2.964.439-.754a13.607,13.607,0,0,0,1.217-2.2,25.28,25.28,0,0,0,1.663-2.961l.091-.165a23.728,23.728,0,0,0,1.5-2.648c1.193-2,2.359-4.015,3.423-6.087,1.194-1.941,2.3-3.929,3.37-5.942.646-1.137,1.31-2.264,1.935-3.412,1.212-2.226,2.963-2.7,5.1-1.356.815.51,1.643,1,2.465,1.5a1.216,1.216,0,0,0,.563.318,15.717,15.717,0,0,0,2.4,1.47,6.337,6.337,0,0,1,1.473,1.486,3.584,3.584,0,0,1-.136,2.962,5.158,5.158,0,0,1-.363.55c-.356.418-.225.677.218.922.6.333,1.179.713,1.766,1.073.166.1.326.215.5.3a15.385,15.385,0,0,0,5.418,1.217c1.367.382,1.391.382,2.081-.691.09-.141.2-.271.3-.407l.617-.6a10.523,10.523,0,0,1,2.955-1.247l2.976-.654c1.97-.223,3.938-.464,5.921-.531l2.975-.113,2.961.011c1.986.23,3.951.593,5.916.953a22.513,22.513,0,0,0,2.981.673,11.7,11.7,0,0,0,2.97.453,2.591,2.591,0,0,0,.949-.091c1.645-.5,1.734-.069.666-1.82a3.579,3.579,0,0,1-.135-2.97,5,5,0,0,1,1.479-1.494,19.017,19.017,0,0,0,2.4-1.463,1.149,1.149,0,0,0,.57-.329c.84-.512,1.677-1.029,2.522-1.534,2.105-1.256,3.9-.75,5.038,1.421.605,1.155,1.214,2.308,1.928,3.4,1.031,2.035,2.195,3.994,3.368,5.948,1.014,2.02,2.154,3.971,3.308,5.912a21.678,21.678,0,0,0,1.621,2.855.206.206,0,0,0,.034.112,28.426,28.426,0,0,0,1.718,2.982,8.5,8.5,0,0,0,1.2,2.108,2.116,2.116,0,0,0,.445.851l1.651,2.955A4.007,4.007,0,0,1,95.952,195l0,0-.11.127a7.779,7.779,0,0,1-1.679,1.327,12.568,12.568,0,0,0-2.419,1.491.911.911,0,0,0-.543.3l-2.956,1.688a3.448,3.448,0,0,1-2.958-.37,10.083,10.083,0,0,1-1.184-1.605,4.9,4.9,0,0,0-.722-1.3,25.241,25.241,0,0,1-4.805,4.24.317.317,0,0,0-.128.488,6.074,6.074,0,0,1,.5,2.512,6.787,6.787,0,0,1-.945,2.811,8.223,8.223,0,0,1-1.629,1.639,6.123,6.123,0,0,1-2.9.744c-.534-.025-.734.189-.822.69a5.989,5.989,0,0,1-1.481,3l-.729.607a6,6,0,0,1-2.989.91.669.669,0,0,0-.7.628,6.028,6.028,0,0,1-2.28,3.746,8.076,8.076,0,0,1-2.926.8c-.484-.017-1-.132-1.371.3-.516.614-1,1.254-1.5,1.883a.134.134,0,0,0-.1.041,9.766,9.766,0,0,1-2.984,1.7,19.4,19.4,0,0,1-2.944.259l-2.971-.343-2.952-.787q-.727-.227-1.454-.454c-1.023-.322-1.125-.284-1.682.644a5.561,5.561,0,0,1-3.55,1.932m27.431-48.327c-1,.036-1.962-.3-2.957-.324a25.009,25.009,0,0,0-2.95-.627,17.824,17.824,0,0,0-2.972-.628,13.442,13.442,0,0,0-2.961-.408,14.394,14.394,0,0,0-2.985-.089,15.176,15.176,0,0,0-2.98.09,23.011,23.011,0,0,0-2.95.218,20.848,20.848,0,0,0-2.971.44,17.558,17.558,0,0,0-2.969.71c-.962.061-1.363.778-1.761,1.5-1.331,1.893-2.7,3.763-3.9,5.746l.019.018-.158.16-.129.166a25.3,25.3,0,0,0-1.788,2.647,2.131,2.131,0,0,0-.5,1.035c-.331,1.2-.3,1.244.921,1.217a3.7,3.7,0,0,0,1.365-.187,9.947,9.947,0,0,0,1.194-.344,13.273,13.273,0,0,0,5.824-4.916,2.956,2.956,0,0,1,1.873-1.427c1.005-.314,2.013-.618,3.014-.945a2.173,2.173,0,0,1,1.768.159c1.368.717,2.748,1.412,4.123,2.116l5.924,3.4a.193.193,0,0,0,.136.05,23.4,23.4,0,0,0,2.826,1.8l5.919,4.022.153.113a32.212,32.212,0,0,0,2.818,2.1,4.3,4.3,0,0,0,1.156.874,11.521,11.521,0,0,0,1.829,1.451l1.92,1.495c.812.747.848.723,1.73.129a24.08,24.08,0,0,0,3.223-2.671c1.629-1.567,1.616-1.581.455-3.506a.246.246,0,0,0-.055-.049,15.585,15.585,0,0,0-1.344-2.366l-.256-.449a24.332,24.332,0,0,0-1.656-2.961,7.326,7.326,0,0,0-1.038-1.809,3.633,3.633,0,0,0-.621-1.146c-1.071-2.009-2.165-4-3.355-5.947-.155-.3-.3-.612-.467-.9-.508-.872-.512-.869-1.517-.441l-2.959.483m-17.79,43.7a9.576,9.576,0,0,0,2.962.463,4.535,4.535,0,0,0,3.242-.686c.453-.324,1.176-.678,1.1-1.181-.069-.482-.861-.6-1.38-.791a26.4,26.4,0,0,0-2.962-1.463c-1.364-.669-2.724-1.344-4.092-2a1.724,1.724,0,0,1-1.122-1.58c.286-1.168.8-1.531,2.062-1.449l3.134,1.47a31.567,31.567,0,0,0,2.984,1.446L58.4,215.63a.345.345,0,0,0,.32.126,3.328,3.328,0,0,0,1.578.557c1.935.354,2.813-.2,3.387-2.021.127-.4.073-.654-.29-.859q-2.411-1.355-4.817-2.72c-1.932-1.219-3.926-2.329-5.927-3.428l-.7-.452c-.53-.975-.516-1.683.043-2.231.6-.589,1.3-.6,2.3-.023l.256.148,6.993,4.014c1.133.673,2.251,1.373,3.4,2.011a2.958,2.958,0,0,0,2.521.391,2,2,0,0,0,1.9-1.326c.58-1.366.489-1.658-.773-2.406-.355-.211-.725-.4-1.088-.594a27.1,27.1,0,0,0-3-1.841l-5.939-3.563a2.865,2.865,0,0,0-.868-.5c-.666-.587-1.633-.8-2.074-1.665q.014-.624.027-1.248c.878-.944,1.438-1.093,2.336-.622.192.1.385.2.578.3l.471.276a17.926,17.926,0,0,0,2.5,1.5c1.939,1.249,3.921,2.426,5.933,3.552,1.435.882,2.863,1.774,4.307,2.639a2.39,2.39,0,0,0,1.627.306,2.284,2.284,0,0,0,2.348-2.067,2.476,2.476,0,0,0-1.049-2.317c-1.394-1.132-2.838-2.2-4.262-3.3l-.429-.318a21.2,21.2,0,0,0-2.53-1.941c-1.635-1.371-3.4-2.567-5.139-3.8a34.073,34.073,0,0,0-3.753-2.443,51.849,51.849,0,0,0-5.936-3.408c-1.55-.993-3.225-1.758-4.825-2.66a1.043,1.043,0,0,0-1.118.038A4.338,4.338,0,0,0,44.06,185a17.534,17.534,0,0,1-6.245,5.382,14.967,14.967,0,0,1-4.057.993c-2.926.228-4.952-1.193-4.424-4.579a12.466,12.466,0,0,1,1.647-3.668l3.08-4.6-2.166-.354-2.97-.833c-1.059-.572-2.138-1.112-3.169-1.73-.565-.339-.892-.316-1.149.326a13.949,13.949,0,0,1-.641,1.248c-1.188,1.942-2.292,3.93-3.353,5.943a3.871,3.871,0,0,0-.589,1.042,6.587,6.587,0,0,0-.937,1.7,23.973,23.973,0,0,0-1.735,3.036c-.887,1.33-1.573,2.776-2.381,4.151a.736.736,0,0,0,.153.98c1,1.151,2.005,2.3,2.932,3.506.469.61.827.767,1.387.162a3.9,3.9,0,0,1,.722-.5,6.09,6.09,0,0,1,2.816-.413,6.185,6.185,0,0,1,4.066,2.784c.2.314.328.18.487-.007l1.385-1.62a5.387,5.387,0,0,1,2.966-1.025,8.6,8.6,0,0,1,2.964.889.278.278,0,0,0,.269.15,6.5,6.5,0,0,1,2.465,4.534c.035.458.373.609.73.717a6.278,6.278,0,0,1,4.115,3.632,7.5,7.5,0,0,1,.283,2.318c-.028.348.056.675.427.76a6.141,6.141,0,0,1,3.409,2.276,1.2,1.2,0,0,0,.321.579,7.384,7.384,0,0,1,.754,2.969,7,7,0,0,1-.928,2.785c-.389.3-.568.553.108.719.966.238,1.923.51,2.883.768M16.77,183.294l.141-.162a.3.3,0,0,0,.153-.285,16.541,16.541,0,0,0,1.513-2.669c1.2-1.939,2.287-3.94,3.363-5.948.612-1.066,1.232-2.128,1.833-3.2.809-1.444.8-1.447-.765-2.192-1.012-.649-2.02-1.3-3.038-1.944-.478-.3-1.018-.849-1.451-.781-.522.082-.628.909-.933,1.4-.154.248-.272.519-.405.78a.288.288,0,0,0-.136.273,19.429,19.429,0,0,0-1.475,2.54c-.211.356-.432.706-.632,1.068q-1.392,2.509-2.774,5.024c-1.207,1.932-2.265,3.948-3.372,5.937l-3.308,5.925c-.715,1.237-1.425,2.477-2.147,3.71-.159.272-.211.48.12.664.581.322,1.15.666,1.725,1,.766.488,1.509,1.018,2.306,1.449.579.313,1.1,1.154,1.724.853.545-.262.728-1.12,1.021-1.743,1.18-1.929,2.278-3.9,3.319-5.91a2.618,2.618,0,0,0,.537-.923,15.54,15.54,0,0,0,1.17-2.067,20.067,20.067,0,0,0,1.526-2.786l-.015-.014M39.32,209.831a2.557,2.557,0,0,0-1.815-3.569,1.593,1.593,0,0,0-1.765.592l-3.865,5.3-.285.337c-.294.391-.607.769-.88,1.175a2.318,2.318,0,0,0,.142,2.984c.879,1.108,2.446,1.339,3.195.385,1.075-1.369,2.056-2.812,3.078-4.224a3.194,3.194,0,0,0,.691-.921,13.859,13.859,0,0,0,1.5-2.056M81.127,186.1a8.645,8.645,0,0,0,1.021,1.786l.634,1.179c1.091,2,2.168,4,3.364,5.939.273.521.549,1.041.82,1.564.132.254.277.376.573.187,1.221-.779,2.453-1.542,3.68-2.311.574-.327,1.142-.666,1.724-.976.284-.152.315-.309.157-.58-.741-1.27-1.469-2.548-2.2-3.823l-3.357-5.949c-1.108-2.05-2.212-4.1-3.431-6.09l-3.19-5.746-1.569-2.7-.148-.275c-.35-.649-.707-1.295-1.047-1.949-.131-.252-.247-.4-.553-.207-1.455.916-2.918,1.819-4.378,2.727-.319.178-.636.359-.958.533s-.383.375-.187.708c.8,1.366,1.586,2.745,2.376,4.12,1.072,2.01,2.157,4.014,3.359,5.95a17.288,17.288,0,0,0,1.512,2.688l.143.268a27.888,27.888,0,0,0,1.655,2.958m-57.136,23.71a2.579,2.579,0,0,0,.928,2.907,1.9,1.9,0,0,0,2.357.2c1.587-1.945,3.009-4.013,4.473-6.049l.136-.158,2.2-2.814a2.305,2.305,0,0,0-.45-2.96c-1.163-1.023-2.324-1.139-3.038-.2-1.49,1.964-2.917,3.976-4.37,5.968a.6.6,0,0,0-.295.414,15.385,15.385,0,0,0-1.944,2.7m16.816,11.189a16.979,16.979,0,0,0,1.754-2.276c.451-.608.918-1.2,1.348-1.826a2.167,2.167,0,0,0-.16-3.049c-1-1.051-2.053-1.226-2.976-.5a16.452,16.452,0,0,0-1.795,2.4c-.427.536-.871,1.059-1.277,1.61a2.24,2.24,0,0,0,.122,3.13c.929,1.1,2.18,1.315,2.984.509M20.794,200.788c-.557.748-1.132,1.483-1.667,2.246a2.4,2.4,0,0,0,.886,3.715c1.111.615,1.761.535,2.525-.417a30.157,30.157,0,0,0,1.824-2.512,2.32,2.32,0,0,0-.748-3.427,1.851,1.851,0,0,0-2.82.394" transform="translate(0 -138.648)" fill="#7e3f98"/>
    <path id="Path_14504" data-name="Path 14504" d="M316.084,0h1.038a1.836,1.836,0,0,1,1.063,2.026,5.591,5.591,0,0,0,.037.944,20.886,20.886,0,0,0,0,2.957,20.617,20.617,0,0,0,0,2.974,20.8,20.8,0,0,0,0,2.957,20.617,20.617,0,0,0,0,2.974,20.884,20.884,0,0,0,0,2.956L318,18.806c-1.241,1.06-2.16.862-2.941-.632q0-.19-.006-.379,0-1.484,0-2.969V2.964c.018-1.1-.124-2.257,1.029-2.964" transform="translate(-268.33)" fill="#7e3f98"/>
    <path id="Path_14505" data-name="Path 14505" d="M410.3,51.166a.583.583,0,0,0,.349-.384c.19-.154.392-.3.568-.465a1.7,1.7,0,0,1,2.379-.348,1.907,1.907,0,0,1,.507,1.206,2.27,2.27,0,0,1-.506,1.188,14.609,14.609,0,0,0-1.776,1.776,6.407,6.407,0,0,0-1.191,1.189,11.408,11.408,0,0,0-1.62,1.635,7.5,7.5,0,0,0-1.344,1.334,14.333,14.333,0,0,0-1.777,1.773A6.414,6.414,0,0,0,404.7,61.26a11.4,11.4,0,0,0-1.62,1.635l-1.342,1.213c-1.24.336-1.791.079-2.312-1.081a2.2,2.2,0,0,1,.837-1.769,4.634,4.634,0,0,0,1.078-1.17.567.567,0,0,0,.385-.347,28.34,28.34,0,0,0,2.644-2.643.559.559,0,0,0,.344-.383,17.361,17.361,0,0,0,2.561-2.56.558.558,0,0,0,.385-.346,28.4,28.4,0,0,0,2.641-2.641" transform="translate(-340.182 -42.276)" fill="#7e3f98"/>
    <path id="Path_14506" data-name="Path 14506" d="M159.179,53.447a1.749,1.749,0,0,0,.6.6,24.287,24.287,0,0,0,2.367,2.366,1.691,1.691,0,0,0,.6.6,24.63,24.63,0,0,0,2.367,2.368,1.749,1.749,0,0,0,.6.6c.388.411.75.852,1.172,1.224a2.008,2.008,0,0,1,.793,1.738c-.486,1.239-1.313,1.529-2.567.9a4.645,4.645,0,0,0-1.045-1.038,16.967,16.967,0,0,0-1.918-1.933,3.806,3.806,0,0,0-.9-.887,17.974,17.974,0,0,0-2.072-2.069,4.511,4.511,0,0,0-1.044-1.041,16.968,16.968,0,0,0-1.919-1.933,3.8,3.8,0,0,0-.9-.887,21.48,21.48,0,0,0-2.066-2.084c-.026-.319-.4-.523-.292-.885l.286-.906c1.14-.922,1.516-.884,2.97.307a1.7,1.7,0,0,0,.6.6,24.666,24.666,0,0,0,2.367,2.368" transform="translate(-130.256 -42.183)" fill="#7e3f98"/>
  </g>
</svg>
