<svg xmlns="http://www.w3.org/2000/svg" xmlns:xlink="http://www.w3.org/1999/xlink" width="114.955" height="111.304" viewBox="0 0 114.955 111.304">
  <defs>
    <clipPath id="clip-path">
      <rect id="Rectangle_119" data-name="Rectangle 119" width="68.595" height="73" fill="#7f4197"/>
    </clipPath>
  </defs>
  <g id="Group_206" data-name="Group 206" transform="translate(-196 -4512.572)">
    <g id="Group_105" data-name="Group 105" transform="translate(196 4512.572)">
      <g id="Group_106" data-name="Group 106" transform="translate(0.001)">
        <path id="Path_14516" data-name="Path 14516" d="M55.5,0h1.7A1.58,1.58,0,0,0,59.2,1.117c4.721-1.322,9.123.42,13.7,1.054A36.7,36.7,0,0,1,87.744,7.707a56.68,56.68,0,0,1,25.649,35.534c.584,2.37,1.045,4.771,1.563,7.158V62.857c-.662.68-.5,1.588-.644,2.4-3.486,19.306-13.88,33.534-31.321,42.554a33.882,33.882,0,0,1-9.8,3.489c4.961-4.178,11.77-5.809,15.933-11.349-1.071-.5-1.522.156-2.041.441-3.38,1.857-6.731,3.765-10.1,5.633-.833.461-1.98.979-2.5-.041-.689-1.345,1.642.118,1.317-1.459-1.1-.3-1.983.464-2.922.918-3.188,1.541-6.257,3.368-9.678,4.364-7.159,2.084-14.349,1.62-21.416-.332-2.113-.584-4.362.808-5.978-.291-2.133-1.45-4.632-1.8-6.763-3.1C13.166,96.429,3.629,82.559.917,64.087.69,62.54.983,60.864,0,59.46V53.231c.883-.71.54-1.74.641-2.629A56.822,56.822,0,0,1,15.157,18.095c.634-.7,1.15-1.639,2.186-1.831,1.129,1.748-1.378,2.436-.849,4.1,1.232-.7,1.768-1.981,2.851-2.725,3.4-2.338,6.646-4.906,10-7.313,4.9-3.512,9.228-8.081,15.813-8.48-.992,1.4-3.47,1.662-3.693,4.385,1.68-.907,2.963-1.688,4.318-2.31,3-1.377,5.641-3.762,9.509-2.448,1.36.462.158-.935.2-1.472M83.6,100.175l-.285-.629c-2.4.668-4.263,2.374-6.317,3.7a.81.81,0,0,0-.115,1.238c.432.532.825.174,1.186-.1q2.773-2.095,5.531-4.209" transform="translate(-0.001)" fill="#f5d47b"/>
      </g>
    </g>
    <g id="Group_116" data-name="Group 116" transform="translate(218.163 4530)">
      <g id="Group_115" data-name="Group 115" clip-path="url(#clip-path)">
        <path id="Path_14544" data-name="Path 14544" d="M60.269,36.059a8.332,8.332,0,1,1-13.992-6.116,8.348,8.348,0,0,1,13.992,6.116m0,0a7.428,7.428,0,1,0-12.9,5.025,7.434,7.434,0,0,0,12.9-5.025" transform="translate(-17.555 -11.149)" fill="#7f4197"/>
        <path id="Path_14545" data-name="Path 14545" d="M29.874,96.146q-.52-12.2-.7-24.4c.029-1.915-.3-4.5.482-6.315A8.666,8.666,0,0,1,34.1,60.6c1.958-.992,4.25-.794,6.35-.816,3.041-.017,9.161-.023,12.2,0,2.1.023,4.392-.176,6.35.815a8.669,8.669,0,0,1,4.446,4.83c.784,1.809.47,4.412.482,6.317q-.176,12.2-.7,24.4-.523-12.2-.7-24.4c-.108-1.658.158-4.235-.552-5.757a7.055,7.055,0,0,0-6.311-4.448c-.951-.026-2.015,0-3.017,0-3.042.022-9.161.017-12.2,0-1.93.029-3.868-.226-5.646.606a7.037,7.037,0,0,0-3.684,3.846c-.71,1.514-.462,4.112-.552,5.759q-.177,12.2-.7,24.4" transform="translate(-11.716 -24.038)" fill="#7f4197"/>
        <path id="Path_14546" data-name="Path 14546" d="M39.568,90.386a44.5,44.5,0,0,1,0,18.075,44.5,44.5,0,0,1,0-18.075" transform="translate(-15.541 -36.353)" fill="#7f4197"/>
        <path id="Path_14547" data-name="Path 14547" d="M74.839,90.386a44.5,44.5,0,0,1,0,18.075,44.51,44.51,0,0,1,0-18.075" transform="translate(-29.727 -36.353)" fill="#7f4197"/>
        <path id="Path_14548" data-name="Path 14548" d="M91.355,36.059a8.332,8.332,0,1,1-13.992-6.116,8.348,8.348,0,0,1,13.992,6.116m0,0a7.428,7.428,0,1,0-12.9,5.025,7.434,7.434,0,0,0,12.9-5.025" transform="translate(-30.058 -11.149)" fill="#7f4197"/>
        <path id="Path_14549" data-name="Path 14549" d="M67.752,60.707c6.387-.482,12.771-.689,19.167-.8a8.653,8.653,0,0,1,8.334,5.445,9.113,9.113,0,0,1,.591,3.453c-.007,2.13-.025,4.259-.072,6.389-.061,4.272-.21,8.544-.409,12.816a.38.38,0,0,1-.4.362c-2.135-.106-4.271-.227-6.407-.4,2.136-.172,4.271-.294,6.407-.4l-.4.4q-.455-9.582-.478-19.167a7.134,7.134,0,0,0-7.168-7.289c-2.13-.028-4.259-.088-6.389-.154-4.259-.14-8.519-.318-12.778-.65" transform="translate(-27.25 -24.088)" fill="#7f4197"/>
        <path id="Path_14550" data-name="Path 14550" d="M12.208,36.059a7.428,7.428,0,1,0,12.9-5.022,7.435,7.435,0,0,0-12.9,5.022m0,0A8.332,8.332,0,1,1,26.2,42.172a8.349,8.349,0,0,1-13.99-6.114" transform="translate(-4.91 -11.149)" fill="#7f4197"/>
        <path id="Path_14551" data-name="Path 14551" d="M76.716,8.34A8.332,8.332,0,1,1,62.724,2.223,8.348,8.348,0,0,1,76.716,8.34m0,0a7.428,7.428,0,1,0-12.9,5.025,7.434,7.434,0,0,0,12.9-5.025" transform="translate(-24.17 0)" fill="#7f4197"/>
        <path id="Path_14552" data-name="Path 14552" d="M28.655,8.34a7.428,7.428,0,1,0,12.9-5.022,7.435,7.435,0,0,0-12.9,5.022m0,0a8.332,8.332,0,1,1,13.99,6.114A8.349,8.349,0,0,1,28.655,8.34" transform="translate(-11.525 0)" fill="#7f4197"/>
        <path id="Path_14553" data-name="Path 14553" d="M28.093,60.707c-6.386.482-12.771.69-19.167.8A7.094,7.094,0,0,0,2.26,66a7.375,7.375,0,0,0-.5,2.8c-.007,2.13-.025,4.259-.071,6.389-.061,4.259-.209,8.518-.407,12.777l-.4-.4c2.135.106,4.271.228,6.407.4-2.136.173-4.271.294-6.407.4a.379.379,0,0,1-.4-.36C.283,83.735.134,79.462.073,75.19.026,73.06.008,70.93,0,68.8a9.113,9.113,0,0,1,.591-3.453A8.652,8.652,0,0,1,8.926,59.9c6.4.115,12.78.322,19.167.8" transform="translate(0 -24.088)" fill="#7f4197"/>
        <path id="Path_14554" data-name="Path 14554" d="M52.785,90.256a12.7,12.7,0,0,1,3.2,2.036H54.821A19.221,19.221,0,0,1,57.3,89.841a12.286,12.286,0,0,1,3.034-1.893,15.75,15.75,0,0,1-4.453,5.6.749.749,0,0,1-1.057-.093,12.687,12.687,0,0,1-2.036-3.2" transform="translate(-21.23 -35.373)" fill="#7f4197"/>
        <path id="Path_14555" data-name="Path 14555" d="M11.765,90.386c.291,6.023.466,12.048.614,18.075l-.614-.615q20.283-.418,40.569-.209c4.507.038,9.015.118,13.523.207l-.616.616c.147-6.027.324-12.052.616-18.075.292,6.023.469,12.048.616,18.075a.6.6,0,0,1-.616.616q-20.283.421-40.569.205c-4.507-.038-9.015-.119-13.523-.207a.6.6,0,0,1-.614-.609c.148-6.028.323-12.055.614-18.08" transform="translate(-4.485 -36.353)" fill="#7f4197"/>
        <path id="Path_14556" data-name="Path 14556" d="M60.028,61.255c1.159,5.7-6.477,8.82-10.111,4.48a5.1,5.1,0,0,1-1.151-4.48,5.722,5.722,0,0,0,11.262,0" transform="translate(-19.559 -24.637)" fill="#7f4197"/>
      </g>
    </g>
  </g>
</svg>
