<svg xmlns="http://www.w3.org/2000/svg" width="60" height="60" viewBox="0 0 60 60">
  <g id="Group_456" data-name="Group 456" transform="translate(-1511 -5398)">
    <circle id="Ellipse_11" data-name="Ellipse 11" cx="30" cy="30" r="30" transform="translate(1511 5398)" fill="#fff"/>
    <path id="instagram_5_" data-name="instagram (5)" d="M21.451,6.387h0a1.522,1.522,0,1,0,1.522,1.522A1.522,1.522,0,0,0,21.451,6.387Zm5.833,3.069A9.624,9.624,0,0,0,26.7,6.375,6.264,6.264,0,0,0,25.23,4.13a5.96,5.96,0,0,0-2.244-1.458,9.257,9.257,0,0,0-3.081-.6C18.56,2,18.129,2,14.68,2s-3.88,0-5.224.076a9.257,9.257,0,0,0-3.081.6A6.061,6.061,0,0,0,4.13,4.13,5.96,5.96,0,0,0,2.672,6.375a9.256,9.256,0,0,0-.6,3.081C2,10.8,2,11.231,2,14.68s0,3.88.076,5.224a9.257,9.257,0,0,0,.6,3.081A5.96,5.96,0,0,0,4.13,25.23a6.061,6.061,0,0,0,2.244,1.458,9.256,9.256,0,0,0,3.081.6c1.344.076,1.775.076,5.224.076s3.88,0,5.224-.076a9.257,9.257,0,0,0,3.081-.6A5.96,5.96,0,0,0,25.23,25.23,6.15,6.15,0,0,0,26.7,22.986a9.624,9.624,0,0,0,.583-3.081c0-1.344.076-1.775.076-5.224S27.36,10.8,27.284,9.456ZM25,19.752a7.114,7.114,0,0,1-.431,2.359,3.88,3.88,0,0,1-.951,1.458,4.045,4.045,0,0,1-1.458.951,7.114,7.114,0,0,1-2.359.431c-1.268.063-1.737.076-5.072.076s-3.8,0-5.072-.076a7.266,7.266,0,0,1-2.46-.38A4.146,4.146,0,0,1,5.8,23.62a3.8,3.8,0,0,1-.938-1.458,7.025,7.025,0,0,1-.507-2.409c0-1.268-.076-1.737-.076-5.072s0-3.8.076-5.072A7.025,7.025,0,0,1,4.8,7.2,3.8,3.8,0,0,1,5.8,5.8,3.982,3.982,0,0,1,7.2,4.79a7.266,7.266,0,0,1,2.409-.431c1.268,0,1.737-.076,5.072-.076s3.8,0,5.072.076a7.114,7.114,0,0,1,2.359.431A3.88,3.88,0,0,1,23.62,5.8,3.88,3.88,0,0,1,24.571,7.2,7.114,7.114,0,0,1,25,9.608c.063,1.268.076,1.737.076,5.072S25.065,18.484,25,19.752ZM14.68,8.175a6.492,6.492,0,1,0,4.612,1.9,6.5,6.5,0,0,0-4.612-1.9Zm0,10.727A4.222,4.222,0,1,1,18.9,14.68,4.222,4.222,0,0,1,14.68,18.9Z" transform="translate(1526 5413)" fill="#004891"/>
  </g>
</svg>
