<svg xmlns="http://www.w3.org/2000/svg" width="60" height="60" viewBox="0 0 60 60">
  <g id="Group_453" data-name="Group 453" transform="translate(-1663 -5398)">
    <circle id="Ellipse_9" data-name="Ellipse 9" cx="30" cy="30" r="30" transform="translate(1663 5398)" fill="#fff"/>
    <path id="linkedin_3_" data-name="linkedin (3)" d="M5.725,7.824V24.082H.312V7.824ZM6.07,2.806c0,.029,0,.063,0,.1a2.587,2.587,0,0,1-.829,1.9h0a3.077,3.077,0,0,1-2.082.806c-.049,0-.1,0-.149,0H2.984c-.041,0-.089,0-.137,0A2.955,2.955,0,0,1,.815,4.805h0A2.679,2.679,0,0,1,0,2.875c0-.024,0-.048,0-.073v0c0-.021,0-.045,0-.069A2.636,2.636,0,0,1,.841.8h0A3.076,3.076,0,0,1,2.918,0c.046,0,.091,0,.137,0H3.049c.043,0,.092,0,.143,0A2.993,2.993,0,0,1,5.234.8l0,0A2.73,2.73,0,0,1,6.07,2.767v.04ZM25.2,14.766v9.316H19.8V15.387c.005-.079.007-.172.007-.264a4.718,4.718,0,0,0-.684-2.455l.012.021a2.333,2.333,0,0,0-1.9-.982c-.06,0-.12,0-.181.007h.008l-.089,0a2.643,2.643,0,0,0-1.647.572l.006,0a3.506,3.506,0,0,0-1.036,1.38l-.008.023a3.875,3.875,0,0,0-.183,1.191q0,.072,0,.144v9.066H8.71q.033-6.545.033-10.614T8.728,8.614l-.016-.788h5.4v2.362h-.033a7.112,7.112,0,0,1,.68-.927l-.008.009a6.99,6.99,0,0,1,.911-.841l.016-.012a4.227,4.227,0,0,1,1.4-.706L17.1,7.7a6.369,6.369,0,0,1,1.8-.255h.075c.071,0,.155-.005.238-.005a5.811,5.811,0,0,1,4.27,1.862l0,0A7.807,7.807,0,0,1,25.2,14.765Z" transform="translate(1680.003 5416.002)" fill="#004891"/>
  </g>
</svg>
