<svg xmlns="http://www.w3.org/2000/svg" width="897" height="470" viewBox="0 0 897 470">
  <g id="vecteezy_world-map-outline-isolated-on-png-transparent-background_16460501_503-01" transform="translate(0)">
    <path id="Path_6" data-name="Path 6" d="M1070.875,357.387c-1.4.8-2.778,1.657-4.216,2.381-2.223,1.108-3.762.475-4.71-1.869a10.416,10.416,0,0,1-.474-1.583,56.336,56.336,0,0,0-6.118-15.275c-1.305-2.307-2.421-4.724-3.65-7.073a32.912,32.912,0,0,1-3.931-13.386,12.573,12.573,0,0,0-.347-2.18,2.779,2.779,0,0,0-2.325-2.354c-.79-.132-1.565-.354-2.35-.528a6.044,6.044,0,0,1-4.288-3.426c-.846-1.726-1.657-3.473-2.544-5.178-2.029-3.906-5.042-6.128-9.5-5.827-.708.047-1.432-.079-2.136-.011a39.8,39.8,0,0,1-16.568-2.243,14.331,14.331,0,0,1-5.062-2.412,5.639,5.639,0,0,0-5.531-1.177c-2.825.855-5.164.058-7.545-1.536-3.523-2.359-6.49-5.067-8.106-9.247a4.173,4.173,0,0,0-6.648-1.7,1.639,1.639,0,0,0-.321,2.227,12.822,12.822,0,0,0,3.028,4.18c1.407,1.277,2.835,2.528,4.308,3.721a16.228,16.228,0,0,1,4.532,5.722c1.325,2.776,2.269,3.162,4.807,1.483,4.165-2.75,7.927-2.3,11.888.565a33.266,33.266,0,0,1,7.3,8,4.07,4.07,0,0,1,.148,4.46c-1.907,3.647-3.773,7.326-5.853,10.868a13.578,13.578,0,0,1-5.893,5.468c-6.148,2.94-11.893,6.7-18.169,9.385a15.178,15.178,0,0,1-3.263,1.193c-3.329.6-6.648,1.13-9.691,2.9-1.514.887-2.722.311-3.406-1.52-2.161-5.769-5.7-10.879-7.428-16.843a19.73,19.73,0,0,0-4.935-8.424,10.443,10.443,0,0,1-3.125-6.835,7.393,7.393,0,0,0-2.136-4.655c-6.209-6.6-9.375-14.922-12.357-23.346a10.77,10.77,0,0,1,.025-7.047c1.086-3.415,2.2-6.835,2.243-10.493.005-.644.01-1.293,0-1.937-.026-1.045-.494-1.525-1.54-1.283-.433.1-.892.09-1.32.211a12.219,12.219,0,0,1-9.314-1.293c-1.183-.623-2.228-1.1-3.314.174a2.218,2.218,0,0,1-1.764.5,18.324,18.324,0,0,1-4.517-.38c-4.318-1.1-6.352-3.552-6.6-8.171-.087-1.562.005-3.135-.061-4.7-.077-1.784-.831-2.491-2.5-2.491-1.305,0-1.861.618-2,2.349-.219,2.66.056,5.352-.49,8a10.194,10.194,0,0,1-1.142,3.373c-1.147,1.874-2.824,2.222-4.558.966a2.844,2.844,0,0,1-.8-.734c-2.559-4.159-5.939-7.917-6.1-13.27a7.634,7.634,0,0,0-3.151-6.112c-3.3-2.518-6.525-5.141-9.844-7.632-.964-.723-2.31-2.143-3.237-1.283-1.091,1.013.515,2.238,1.045,3.294a13.632,13.632,0,0,0,4.471,5.051c1.254.876,2.472,1.81,3.7,2.729,2.8,2.1,3.563,4.534,2.544,7.981a10.83,10.83,0,0,1-3.084,5.072c-1.866,1.71-3.594,3.573-5.914,4.687-2.819,1.351-4.19.977-5.756-1.821a16.072,16.072,0,0,1-1.448-3.257c-.5-1.715.158-2.629,1.907-2.8.974-.095,1.958-.021,2.941-.058.953-.037,2.161.238,2.59-.908.418-1.119-.632-1.821-1.269-2.539a14.56,14.56,0,0,0-2.355-2.243,33.077,33.077,0,0,1-7.667-7.643,18.374,18.374,0,0,0-1.2-1.483c-2.111-2.359-3.355-2.428-5.638-.317-.53.491-1.02,1.04-1.58,1.489-1.264,1.013-2.625,1.547-4.211.749a6.586,6.586,0,0,0-1.015-.343,3.66,3.66,0,0,0-4.924,2.09,5.8,5.8,0,0,1-3.038,2.977,11.454,11.454,0,0,0-6.439,6.566,17.273,17.273,0,0,1-7.591,8.641c-2.656,1.488-5.547,1.093-8.3,1.673-3.436.723-6.52-.369-9.477-2.006a10.817,10.817,0,0,1-2.167-1.6c-1.85-1.768-2.4-3.515-1.009-5.664,1.9-2.951,1.662-5.738.785-8.9-1.443-5.2.28-7.453,5.562-7.638,3.028-.106,6.061,0,9.09-.063A12.244,12.244,0,0,0,831,232.281c2.625-1.557,2.916-3.083,1.091-5.563a31.644,31.644,0,0,0-5.052-5.315,6.641,6.641,0,0,1-1.83-1.985c-1.346-2.676-.178-5.157,2.7-5.4,1.794-.158,3.5-.676,5.246-.971a19.213,19.213,0,0,0,8.886-4.2c1.764-1.409,3.64-2.671,5.353-4.143a23.416,23.416,0,0,1,7.754-4.782,4.8,4.8,0,0,0,3.288-3.975c.321-1.62.816-3.209,1.29-4.793a7.838,7.838,0,0,1,1.295-2.713c1.117-1.383,2.457-1.393,3.64-.058A6.644,6.644,0,0,1,866,191.649c.25,1.262.377,2.555.647,3.811.362,1.7.851,2.106,2.406,1.536a5.1,5.1,0,0,1,4.374.359,3.807,3.807,0,0,0,4.277-.338c2.457-1.737,5.057-3.125,8.162-3.024a2.206,2.206,0,0,0,1.958-1.24,34.743,34.743,0,0,0,1.851-3.04,7.227,7.227,0,0,1,4.344-4.165c2.2-.713,2.381-2.734.515-4.117a26.635,26.635,0,0,1-4.053-3.589c-3.156-3.526-2.488-7.759,1.631-10.045a8.775,8.775,0,0,0,3.574-3.225c.316-.549.734-1.124.418-1.795-.393-.834-1.193-.676-1.886-.649a4.039,4.039,0,0,0-3.584,2.08,10.924,10.924,0,0,1-6.342,5.183,4.844,4.844,0,0,0-.719.364c-2.207,1.272-2.294,1.858-.479,3.563a12.217,12.217,0,0,1,2.8,3.309c.958,1.9.78,3.515-.938,4.587a5.36,5.36,0,0,0-2.442,4.022,18.537,18.537,0,0,1-.821,2.914,7.233,7.233,0,0,1-4.333,4.6c-1.585.6-3.1,1.446-4.833,1.531-1.641.079-2.325-.359-2.778-1.964a24.107,24.107,0,0,1-.663-3.526,7.762,7.762,0,0,0-1.555-3.763c-1.825-2.444-2.187-2.512-4.761-1.035a21.378,21.378,0,0,1-6.709,2.666c-2.391.438-3.946-.581-4.022-3.061a12.709,12.709,0,0,0-1.555-6.313,3.1,3.1,0,0,1,.183-2.924,6.924,6.924,0,0,1,3.7-3.811,28.813,28.813,0,0,0,8.315-5.447c4.272-3.626,8.432-7.39,12.725-10.989a48.71,48.71,0,0,1,16.273-9.343c9.013-2.914,17.782-1.752,26.316,2.016,4.262,1.879,8.407,4.033,12.821,5.532,2.192.744,4.349,1.061,6.51.063a8.36,8.36,0,0,1,8.4.749c1.912,1.188,3.732,1.589,5.552-.359,1.04-1.114,2.6-1.14,4.027-1.2,5.908-.248,11.572-1.953,17.333-3.088,1.657-.327,3.329-.591,4.981-.95a8.331,8.331,0,0,0,6.133-4.439c1.177-2.386,3.329-3.8,5.093-5.6a3.129,3.129,0,0,1,3-.765,22.662,22.662,0,0,1,3.36.881,18.236,18.236,0,0,0,11.3.438c2.855-.707,5.863-1.024,8.534-2.185a101.887,101.887,0,0,1,10.232-4.022c6.811-2.117,13.494-4.708,20.494-6.186a6.459,6.459,0,0,1,5.144.76,17.936,17.936,0,0,0,11.761,2.808c.974-.079,1.963.021,2.942-.047,3.854-.264,7.142.681,9.742,3.969,2,2.528,5.067,3.035,8.019,3.2a92.021,92.021,0,0,0,12.821-.169,31.631,31.631,0,0,1,9.8,1,95.857,95.857,0,0,0,13.729,2.08c2.207.185,4.445.464,6.275,2.027,1.259,1.077,2.682.765,4.083.406,2.075-.533,4.124-1.182,6.214-1.642,8.034-1.763,15.921-1.536,23.552,1.985a26.313,26.313,0,0,0,14.285,2.692c.444-.053.892-.016,1.336-.042a35.741,35.741,0,0,1,17.256,2.718,18.569,18.569,0,0,0,9.39,1.393c12.556-1.13,25.153-1,37.434,2.1,7.5,1.895,15.187,3.188,22.467,6.023,1.585.618,3.227,1.066,4.8,1.7a22.177,22.177,0,0,1,3.619,1.758c2.442,1.536,3.094,3.594,2.1,6.107a5.3,5.3,0,0,1-6.179,3.573,13.091,13.091,0,0,1-3.2-1.383,35.808,35.808,0,0,0-8.493-3.283c-.836-.2-1.733-.66-2.406.528.642.876,1.692.892,2.559,1.256,1.651.686,3.344,1.267,4.98,2,.984.438,2.034,1.04,1.963,2.354-.082,1.446-1.285,1.863-2.391,2.264a8.891,8.891,0,0,1-3.14.586c-.622-.005-1.249-.021-1.871-.016-2.325.037-3.263.844-3.635,3.119-.749,4.545-1.284,5.036-5.827,5.136-1.937.042-3.869.005-5.725.005-.306,1.13.377,1.452.754,1.9a73.86,73.86,0,0,1,6.745,8.92c2.778,4.518,2.345,8.957-.148,13.312-2.309,4.027-5.985,4.777-9.5,1.816a120.6,120.6,0,0,1-12.439-11.734,20.539,20.539,0,0,1-2.722-3.753,5.637,5.637,0,0,1,.021-6.023c.805-1.33,1.667-2.618,2.467-3.948a1.559,1.559,0,0,0-.693-2.491c-3.829-1.921-7.5-4.244-11.873-4.824-.4.744.265,1.156.546,1.663.622,1.119,1.376,2.164,1.932,3.309,1.514,3.146.484,4.93-2.962,5.136a14.329,14.329,0,0,1-7.112-.908c-4.991-2.412-10.308-2.043-15.5-2.122-3.788-.058-6.953,2.064-8.758,5.8-.281.575-.5,1.182-.729,1.784-.912,2.407-.693,3.162,1.57,4.455a20.139,20.139,0,0,0,10.731,2.945c4.8-.169,8.57,1.747,11.955,5.115,3.92,3.9,7.958,7.664,11.736,11.718a26.136,26.136,0,0,1,4.868,7.559c1.494,3.457.546,4.882-3.023,4.735a6.071,6.071,0,0,1-5.49-3.3,14.392,14.392,0,0,0-3.043-4.175c-1.392-1.193-2.269-.934-2.575.934-.474,2.908-.749,5.848-1.152,8.767-.326,2.37-.678,4.74-1.081,7.1-.474,2.808-1.565,3.779-4.323,3.848a25.145,25.145,0,0,1-2.656-.227c-1.468-.121-1.719.174-1.438,1.721.066.359.219.7.291,1.066.474,2.46-.036,3.389-2.289,4.165-2.065.713-2.116.829-.76,2.439,2.345,2.787,4.318,5.869,6.459,8.82,1.32,1.816,1.866,3.837.75,5.949a7.805,7.805,0,0,1-5.98,4.18,2.857,2.857,0,0,1-3.181-2.417c-.8-4.107-3.385-7.015-5.735-10.14a50.02,50.02,0,0,1-2.768-4.724c-1.2-2.048-1.4-2.1-3.308-.924-.382.232-.749.5-1.137.723-2.63,1.536-4.318,1.341-6.515-.786a6.746,6.746,0,0,0-2.3-1.847c-1.321-.459-2.06.069-2.141,1.51a3.586,3.586,0,0,0,2.8,4.091,7.128,7.128,0,0,0,2.345.48,10.8,10.8,0,0,1,6.938,2.4c1.784,1.262,1.973,2.09.342,3.647a42.717,42.717,0,0,1-3.6,2.861c-1.856,1.42-1.845,1.4-.138,2.94a47.959,47.959,0,0,1,9.039,10.124c.673,1.082,1.295,2.212,1.861,3.357a16.191,16.191,0,0,1,.4,14.151,42.845,42.845,0,0,1-18.042,20.511c-4.262,2.5-8.829,3.294-13.54.771-2.656-1.425-5.016-.069-7.2,1.478a1.852,1.852,0,0,0-.489,2.681c.617,1.013,1.3,1.985,1.973,2.956,3.793,5.474,7.6,10.952,10.17,17.186,2.59,6.271,2.233,7.923-2.37,12.779a22.929,22.929,0,0,1-5.843,4.787c-2.487,1.309-4.114,1.008-5.913-1.214-1.718-2.117-3.227-4.413-5.123-6.382a15.393,15.393,0,0,0-3.079-2.639,4.776,4.776,0,0,0-3.074-.713c-1.565.174-2.269,1.008-1.963,2.6a20.983,20.983,0,0,0,1.172,3.959,24.006,24.006,0,0,0,5.694,8.614,20.575,20.575,0,0,1,5.944,10.3c.581,2.322,1.178,4.64,1.672,6.978.755,3.552-.6,4.856-3.961,4.164a7.478,7.478,0,0,1-6.148-5.416c-.413-1.314-.989-2.57-1.468-3.858a15.665,15.665,0,0,0-4.67-6.962c-2.651-2.138-3.757-4.972-4.043-8.371a68.1,68.1,0,0,1-.4-8.825c.219-4.671-1.244-8.9-3.319-12.942-1.188-2.312-1.422-2.354-3.747-1.5a13.61,13.61,0,0,1-1.779.6c-2.768.591-4.583-.971-4.461-3.874a10.187,10.187,0,0,1,.433-2.724,5.4,5.4,0,0,0-.892-4.94,23.147,23.147,0,0,0-4.914-5.426,19.1,19.1,0,0,1-4.619-4.951,3.205,3.205,0,0,0-2.906-1.631c-1.249-.021-2.5,0-3.742-.032a3.087,3.087,0,0,0-3.161,2.048,40.688,40.688,0,0,1-3.492,5.891,25.649,25.649,0,0,1-7.922,8.107c-5.205,3.119-6.877,8.171-7.239,13.961a28.861,28.861,0,0,0-.041,3.32,19.6,19.6,0,0,1-2.778,11.871c-.168.18-.337.359-.51.533Zm-208.1-167.3a15.7,15.7,0,0,0-1.917,5.743c-.617,3.31-2.325,5.489-5.45,6.513a16.933,16.933,0,0,0-5.73,3.468c-1.647,1.409-3.41,2.671-5.1,4.027-3.563,2.866-7.4,5.1-11.97,5.716-1.32.179-2.62.538-3.925.818-1.748.375-2.049,1.23-.841,2.6a21.333,21.333,0,0,0,2.182,2.037,30.322,30.322,0,0,1,4.349,4.867c2.1,2.766,1.672,5.547-1.081,7.648a11.334,11.334,0,0,1-5.934,2.28c-3.023.29-6.046.338-9.08.343a29.548,29.548,0,0,0-4.267.259c-1.514.222-1.943.85-1.978,2.439a13.246,13.246,0,0,0,.9,4.307,7.8,7.8,0,0,1-.816,6.846c-1.723,2.819-1.32,3.885,1.382,5.563,4.9,3.04,9.951,1.874,15.008.66a2.6,2.6,0,0,0,.464-.269,14.685,14.685,0,0,0,7.162-8.255,11.172,11.172,0,0,1,5.954-6.371,6.338,6.338,0,0,0,3.961-4.8c.372-1.853,1.081-2.307,2.85-2.074a15.541,15.541,0,0,1,3.884.961c1.815.75,3.268.549,4.5-1.082a5.759,5.759,0,0,1,1.2-1.1c2.437-1.816,4.507-1.789,6.791.2a17.369,17.369,0,0,1,2.559,2.813,31.938,31.938,0,0,0,6.9,6.893,17.253,17.253,0,0,1,4.318,4.487c1.825,2.792.79,5.035-2.493,5.342-1.06.1-2.136.032-3.207.069-.454.016-1,.127-.943.713a5.243,5.243,0,0,0,1.6,3.109c.826.845,1.657.106,2.427-.306a23.305,23.305,0,0,0,5.934-5.1,6.851,6.851,0,0,0,1.346-2.681c.867-2.766.4-4.27-1.881-5.98-1.371-1.029-2.763-2.032-4.124-3.072a20.641,20.641,0,0,1-5.944-8.055c-.49-1.061-.724-2.143.148-3.088a3.1,3.1,0,0,1,3.385-1.05,8.824,8.824,0,0,1,2.177,1.035,142.082,142.082,0,0,1,12.184,9.459,8.041,8.041,0,0,1,3.069,6.234c-.056,4.962,3.161,8.3,5.251,12.182.785,1.457,1.851,1.182,2.432-.491a13.109,13.109,0,0,0,.734-4.339c0-1.842.031-3.69.138-5.532a3.863,3.863,0,0,1,2.121-3.579,4.8,4.8,0,0,1,7.02,4.312c.066,1.752-.041,3.515.117,5.252.392,4.286,5.424,7.432,8.937,5.22,2.289-1.441,3.941-1.019,5.893.116a11.234,11.234,0,0,0,8.039,1.108c.7-.132,1.4-.322,2.1-.4,2.121-.238,2.957.422,3.273,2.592a16.191,16.191,0,0,1,.082,1.932,32.706,32.706,0,0,1-2.136,11.343,10.262,10.262,0,0,0-.229,6.783c2.85,8.292,6.143,16.347,12.164,22.834a7.637,7.637,0,0,1,2.268,4.9c.092,3.04,1.6,5.2,3.528,7.2a14.616,14.616,0,0,1,3.818,6.25c1.687,6.186,5.276,11.48,7.555,17.381.393,1.013,1,1.541,2.055.908,2.539-1.525,5.409-1.758,8.208-2.3a7.242,7.242,0,0,0,2.059-.538c3.421-1.789,7.071-3.072,10.38-5.1a80.065,80.065,0,0,1,8.294-4.471,13.593,13.593,0,0,0,6.306-5.769c1.754-3.1,3.38-6.281,5.052-9.432a2.556,2.556,0,0,0,.051-2.871,34.353,34.353,0,0,0-5.016-6.075c-3.671-3.13-7.249-4.27-11.623-1.193-2.819,1.985-5.608.9-7.035-2.307a16.691,16.691,0,0,0-4.685-5.933c-1.31-1.114-2.631-2.206-3.9-3.362a14.731,14.731,0,0,1-3.65-5.067c-1.229-2.829-.438-4.6,2.36-5.558a13,13,0,0,1,4.221-.559,4.242,4.242,0,0,1,4.1,2.565c.612,1.23,1.132,2.507,1.759,3.727,1.688,3.278,4.787,4.835,7.647,6.693,1.723,1.119,3.5.433,5.2.143a7.18,7.18,0,0,1,5.812,1.357,11.943,11.943,0,0,0,3.778,2.032c3.171.918,6.321,1.927,9.559,2.6a10.463,10.463,0,0,0,3.981.169,28.986,28.986,0,0,1,8.248.032,10.4,10.4,0,0,1,7.591,4.587,23.28,23.28,0,0,1,2.855,5.3c1.091,2.808,2.774,4.545,5.878,4.824,2.467.222,4.012,1.853,4.425,4.46.143.908.326,1.816.392,2.729a28.284,28.284,0,0,0,3.039,10.81c1.2,2.37,2.355,4.761,3.609,7.1,2.386,4.439,4.782,8.862,6.092,13.8.28,1.066.515,2.148.841,3.2.622,2.027,1.1,2.185,2.87,1.309,3.441-1.689,4.981-4.608,5.139-8.4.112-2.671-.061-5.368.2-8.018.566-5.774,2.172-11.116,7.371-14.315s8.539-8.06,11.246-13.4c1.239-2.449,2.881-3.616,5.414-3.7,1.065-.037,2.136-.021,3.2.005,2.534.074,4.639.8,5.959,3.373a13.052,13.052,0,0,0,2.748,2.993c.775.76,1.683,1.372,2.447,2.148,3.441,3.494,6.658,7.025,4.807,12.752-.591,1.826.372,2.576,2.187,2.127a9.245,9.245,0,0,0,1.254-.47c3.11-1.261,3.91-1.05,5.638,1.911a31.873,31.873,0,0,1,4.027,12.219c.489,3.837-.255,7.7.438,11.57.459,2.56,1.1,4.772,3.156,6.434a17.291,17.291,0,0,1,5.1,7.332q1.063,2.684,2.131,5.379a4.473,4.473,0,0,0,3.579,2.956c1.662.311,2.024.053,1.682-1.583-.413-1.985-.923-3.943-1.412-5.906a20.571,20.571,0,0,0-5.725-10.092,25.349,25.349,0,0,1-7.249-13.3c-.729-3.568,1.341-5.959,4.879-5.727a9.108,9.108,0,0,1,5.516,2.555,32.4,32.4,0,0,1,3.141,3.389c1.275,1.536,2.422,3.193,3.711,4.719,1.162,1.378,1.723,1.446,3.258.6a20.72,20.72,0,0,0,4.746-4.017c4.394-4.55,4.537-5.474,1.851-11.385a89.453,89.453,0,0,0-7.887-13.47c-1.188-1.731-2.457-3.4-3.558-5.189-1.535-2.5-1.213-4.6,1.121-6.234,3.069-2.138,6.322-3.4,10-1.314a9.1,9.1,0,0,0,7.275.544,18.487,18.487,0,0,0,5.771-2.829A47.267,47.267,0,0,0,1182,297.806a26.48,26.48,0,0,0,3.094-6.725,13.835,13.835,0,0,0-.25-8.947,28.509,28.509,0,0,0-4.236-7.332,45.89,45.89,0,0,0-7.831-7.9c-1.9-1.552-1.917-2.861-.1-4.524,1-.913,2.156-1.636,3.207-2.491,1.223-.992,1.2-1.357.035-2.28a4.1,4.1,0,0,0-2.212-.871c-1.152-.116-2.3-.3-3.441-.475-4.552-.7-6.219-2.792-5.975-7.479.128-2.518,1.438-3.653,3.875-3.257a7.765,7.765,0,0,1,4.369,2.481c1.56,1.62,2.36,1.663,4.252.538.77-.459,1.489-1.029,2.283-1.436a2.7,2.7,0,0,1,3.8.813,10.071,10.071,0,0,1,1.157,1.853,37.909,37.909,0,0,0,5.475,8.155,11.027,11.027,0,0,1,2.493,4.835,15.385,15.385,0,0,0,.541,1.853,1.434,1.434,0,0,0,2.126.945c3.278-1.23,4.129-3.827,2.044-6.672-2.31-3.156-4.349-6.524-7.091-9.348-1.484-1.525-1.3-3.552.52-4,3.013-.744,3.405-2.2,2.641-5.03-.556-2.059.815-3.183,3-3.056.8.047,1.6.2,2.4.222,2.564.084,3.008-.227,3.416-2.755.484-3,.841-6.017,1.264-9.031.321-2.28.5-4.6,1.02-6.825.688-2.929,2.865-3.711,5.307-2.085a10.63,10.63,0,0,1,2.962,3.156,22.135,22.135,0,0,1,1.4,2.359,3.951,3.951,0,0,0,3.5,2.132c1.009.127,1.392-.317.994-1.267a20.065,20.065,0,0,0-2.8-5.014c-4.7-5.827-10.216-10.8-15.722-15.771a8.667,8.667,0,0,0-6.413-2.291,26,26,0,0,1-8.427-1.272,19.712,19.712,0,0,1-6.291-2.982c-2.039-1.494-2.518-3.125-1.7-5.532a20.737,20.737,0,0,1,1.336-3.315c2.019-3.679,5.154-6.17,9.13-6.434,5.832-.391,11.776-.75,17.364,1.911a12.7,12.7,0,0,0,6.051.781c1.774-.063,2.131-.633,1.341-2.206-.612-1.225-1.4-2.354-2.106-3.526a12.862,12.862,0,0,1-1.672-3.753,1.878,1.878,0,0,1,.393-2.048,1.617,1.617,0,0,1,2,.084,11.429,11.429,0,0,0,3.548,1.89c4.124.786,7.52,3.31,11.282,4.962,1.953.855,2.427,2.333,1.53,4.3a26.472,26.472,0,0,1-1.978,3.283c-2.105,3.278-2.1,4.64.388,7.617a74.412,74.412,0,0,0,8.228,8.3,48.84,48.84,0,0,0,5.3,4.645c2.249,1.457,4.114,1.119,5.511-1.172,2.08-3.41,2.722-6.967.6-10.694a49.107,49.107,0,0,0-6.5-8.757,29.092,29.092,0,0,1-2.34-2.655c-.958-1.346-.586-2.5.964-2.966a12.792,12.792,0,0,1,3.956-.581c1.693.026,3.385-.042,5.078-.042,1.387,0,2.008-.612,2.228-2.117.709-4.919,2.151-6.107,6.867-6.091,1.055,0,2.213.264,3.349-.7a36.13,36.13,0,0,0-6.189-2.5,18.442,18.442,0,0,1-3.2-1.383c-1.321-.813-1.321-1.969-.071-2.813a7.5,7.5,0,0,1,6.581-1.341,33.7,33.7,0,0,1,5.057,1.768c1.7.818,3.37,1.689,5.088,2.454,2.06.918,3.523.359,4.451-1.589.805-1.684.362-2.85-1.723-3.932a34.552,34.552,0,0,0-4.461-1.853c-5.653-1.985-11.445-3.394-17.246-4.84-6.067-1.515-12.036-3.32-18.286-3.843-7.193-.6-14.381-1.293-21.61-.538-6.281.654-12.469.549-18.317-2.391a14.209,14.209,0,0,0-2.024-.707,15.378,15.378,0,0,0-6.841-.9c-7.77,1-15.294.327-22.405-3.346a5.387,5.387,0,0,0-.749-.29,32.632,32.632,0,0,0-15.253-1.689,109.56,109.56,0,0,0-11.73,2.666c-1.723.438-3.385.507-4.8-.776a7.691,7.691,0,0,0-4.675-1.747,107.5,107.5,0,0,1-14.529-2.159,29.191,29.191,0,0,0-10.864-.945,54.232,54.232,0,0,1-9.875.29c-4.812-.232-9.4-1.24-12.648-5.474a4.3,4.3,0,0,0-3.533-1.668c-2.763-.021-5.526-.047-8.284-.042a16.414,16.414,0,0,1-9.2-2.47,7.954,7.954,0,0,0-6.638-.94c-4.18,1.013-8.136,2.755-12.271,3.848a98.981,98.981,0,0,0-15.844,5.785,9.632,9.632,0,0,1-2.534.845,74.731,74.731,0,0,0-7.3,1.689,18.408,18.408,0,0,1-9.778.127c-1.458-.428-2.9-.9-4.354-1.335A2.237,2.237,0,0,0,990,139.6c-1.636,1.673-3.543,3.046-4.7,5.231a8.279,8.279,0,0,1-5.072,4.26,99.018,99.018,0,0,1-10.1,2.465c-2.106.364-4.221.639-6.3,1.14a29.53,29.53,0,0,1-8.712,1.2,3.645,3.645,0,0,0-3.094,1.32c-1.473,1.668-3.252,1.731-5.149.987a17.759,17.759,0,0,1-2.676-1.251,5.625,5.625,0,0,0-5.613-.517c-3.268,1.573-6.373.808-9.579-.327-4.4-1.562-8.5-3.827-12.8-5.605-9.921-4.107-19.745-4.275-29.466.839-5.542,2.914-10.334,6.846-15.039,10.968-5.22,4.571-10.074,9.691-16.579,12.457a4.428,4.428,0,0,0-1.259,1.008,2.853,2.853,0,0,0-.688,3.721,9.43,9.43,0,0,1,1.152,5.03c-.051,1.7.535,2.053,2.218,1.61a18.156,18.156,0,0,0,6.28-2.977c1.728-1.288,2.707-1.272,4.333.084a10.789,10.789,0,0,1,4.247,7.405,18.434,18.434,0,0,0,.321,2.185,1.123,1.123,0,0,0,1.341,1,7.667,7.667,0,0,0,6.862-5.685c.235-.792.367-1.615.54-2.423a5.9,5.9,0,0,1,2.493-4.064c1.3-.844,1.331-1.483.342-2.692-.8-.976-1.784-1.8-2.671-2.7-1.952-2-1.866-3.837.332-5.542a11.032,11.032,0,0,1,2.549-1.494,10.479,10.479,0,0,0,5.292-4.4,6.612,6.612,0,0,1,6.464-3.125c2.86.174,4.1,2.333,2.931,5.02a10.232,10.232,0,0,1-4.787,5.014c-2.936,1.557-3.37,4.186-1.173,6.735a26.213,26.213,0,0,0,4.16,3.457,4.06,4.06,0,0,1,1.02,5.806,4.527,4.527,0,0,1-2.477,2.011,5.229,5.229,0,0,0-3.248,3.04,37.629,37.629,0,0,1-2.457,3.948,3.2,3.2,0,0,1-2.89,1.71c-2.962-.29-5.394.945-7.662,2.681a5.108,5.108,0,0,1-6.021.449,3.617,3.617,0,0,0-3.293-.158c-2.569.945-4.094.026-4.833-2.681-.24-.881-.27-1.826-.51-2.708-.326-1.2-.041-2.6-1.259-3.932Z" transform="translate(-438.149 -110.003)" fill="#666"/>
    <path id="Path_7" data-name="Path 7" d="M319.549,186.1a9.277,9.277,0,0,0,4.012-1.51,19.517,19.517,0,0,1,4.965-2c3.742-.8,6.112,1.277,5.98,5.2a26.263,26.263,0,0,1-1.29,5.917c-.637,2.37-.484,2.8,1.636,3.964a16.358,16.358,0,0,1,5.251,4.2c2.075,2.676,2.187,4.708.438,7.59-.285.47-.6.918-.877,1.388-1.2,2.027-1.167,2.185.224,4.154a17.2,17.2,0,0,1,3.171,10.071c.025,3.5-3.2,7.136-7.412,4.618a11.669,11.669,0,0,0-7.168-1.631,8.094,8.094,0,0,1-2.391-.174c-2.386-.544-3.033-2.164-1.733-4.275.382-.623.872-1.166,1.285-1.768a9.681,9.681,0,0,0,1.468-3.236c.163-.691.01-1.467-.862-1.3-2.962.57-5.852-.174-8.773-.343-2.559-.148-2.87.132-2.773,2.713a5.222,5.222,0,0,1-2.432,5.125c-1.519.976-1.422,1.409.031,2.66,1.371,1.177,2.789,2.3,4.124,3.515a7.653,7.653,0,0,1,1.529,1.9,2.117,2.117,0,0,1-1.162,3.325,6.083,6.083,0,0,1-3.676.385,4.284,4.284,0,0,0-5.21,2.111c-1.856,2.877-3.309,2.977-6.005,1.045a12.079,12.079,0,0,0-4.578-2.19c-2.5-.507-3.553.032-4.833,2.317-.805,1.436-1.57,2.9-2.467,4.27a6.719,6.719,0,0,1-3.762,2.861c-8.452,2.66-14.912,7.859-18.189,16.558a13.178,13.178,0,0,1-6.52,7.31,42.844,42.844,0,0,0-7.5,4.777c-4.43,3.684-7,8.239-6.714,14.32a25.062,25.062,0,0,1-1.06,9.29c-.816,2.423-1.856,3.531-3.3,3.489-1.407-.042-2.676-1.341-3.2-3.616-.52-2.238-.805-4.534-1.234-6.793-.495-2.581-.556-2.724-3.013-3.056-2.427-.327-4.6-.813-6.4-2.882-1.315-1.52-3.706-.913-4.869.823-.4.6-.658,1.309-1.009,1.948-1.366,2.47-2.952,3.125-5.608,2.233-1.014-.338-1.968-.86-2.962-1.277a7.788,7.788,0,0,0-7.214.343c-2.34,1.341-4.654,2.724-6.984,4.08a4.558,4.558,0,0,0-2.213,2.982,68.549,68.549,0,0,1-3.176,8.8c-1.687,4.37-1.06,8.72.622,12.905a6.377,6.377,0,0,0,4.772,3.658,34.816,34.816,0,0,0,6.9.7,3.2,3.2,0,0,0,3.512-2.3c1.382-3.721,4.3-5.811,7.693-7.215,4.512-1.868,7.178.433,6.439,5.426a10.721,10.721,0,0,1-3.569,6.909,8.874,8.874,0,0,0-2.911,4.539c-.464,1.752-.015,2.444,1.738,2.486a47.162,47.162,0,0,1,5.847.57,15.064,15.064,0,0,1,4.6,1.393c2.763,1.4,3.558,3.283,2.738,6.318a65.664,65.664,0,0,1-2.7,6.925c-.953,2.407-.958,2.507,1.1,4.133a48.089,48.089,0,0,1,5.72,5.4,10.6,10.6,0,0,1,2.126,3.162c.948,2.37-.01,4.2-2.452,4.75a5.311,5.311,0,0,1-2.121,0,13.181,13.181,0,0,1-4.282-1.515c-2.8-1.61-5.358-3.642-8.228-5.146a4.87,4.87,0,0,1-2.279-3.595c-.275-1.351-.454-2.724-.653-4.091-.3-2.032-1.29-3.41-3.349-3.758-1.845-.311-3.681-.7-5.536-.882a10.1,10.1,0,0,1-7.142-3.853,32.1,32.1,0,0,0-4.654-4.946,2.911,2.911,0,0,0-2.941-.728c-3.839,1.225-7.453.253-10.752-1.779a72.173,72.173,0,0,0-8.539-4.561c-2.891-1.293-5.3-3.378-7.79-5.315a4.378,4.378,0,0,1-1.529-4.7,18.855,18.855,0,0,0,.331-5.505,12.012,12.012,0,0,0-3.349-8.176,39.6,39.6,0,0,1-6.724-9.263,17.3,17.3,0,0,1-2.233-8.989c.066-1.747.02-3.5-.066-5.257a2.032,2.032,0,0,0-1.407-2.127,3.222,3.222,0,0,0-3.191.971,1.419,1.419,0,0,0,.041,2.016c2.411,2.534,2.9,5.759,3.431,9.084.464,2.914,2.08,5.474,3.145,8.208.566,1.452,1.157,2.9,1.693,4.36a3.123,3.123,0,0,1-.612,3.573,3.414,3.414,0,0,1-3.507.739,5.936,5.936,0,0,1-3.869-3.542,36.442,36.442,0,0,1-1.769-5.8,5.411,5.411,0,0,0-2.167-3.32c-1.738-1.214-1.973-2.117-1.229-4.281.454-1.325.632-2.523-.342-3.605-1.509-1.678-1.575-3.653-1.127-5.706a15.818,15.818,0,0,0,.25-5.769c-.311-2.064-1.009-3.9-2.906-5.03-3.941-2.354-5.3-5.954-5.526-10.6-.316-6.413.943-12.452,2.671-18.485a18.653,18.653,0,0,1,4.083-7.368,54.106,54.106,0,0,0,8.417-13.729c.709-1.547.836-2.787-.653-4.122-1.845-1.657-1.891-3.178-.2-5.014a9.857,9.857,0,0,0,2.529-9.147,11.27,11.27,0,0,1,.444-4.645,10.028,10.028,0,0,0-.846-7.463,58.769,58.769,0,0,1-2.625-6.049c-.78-1.847-2.075-2.771-4.032-2.27-2.187.559-4.017-.2-5.8-1.378a31.425,31.425,0,0,0-3.472-2.064c-1.687-.829-2.36-.723-3.405.892-1.835,2.829-4.252,4.075-7.52,3.594a3.5,3.5,0,0,0-2.371.164c-1.968,1.219-4.1,1.066-6.235.987a6.633,6.633,0,0,0-4.751,1.473,2.953,2.953,0,0,1-1.376.813c-2.789.264-4.812,2.338-7.249,3.225-3.273,1.193-6.051,3.489-9.5,4.2a6.063,6.063,0,0,0-3.869,2.755,9.73,9.73,0,0,1-1.213,1.467c-1.606,1.6-3.151,1.911-4.848,1.024a4.961,4.961,0,0,1-2.544-5.057,5.518,5.518,0,0,1,3.273-4.4,29.293,29.293,0,0,1,5.914-1.657c1.071-.274,2.687-.09,2.926-1.467.234-1.325-1.31-1.779-2.156-2.534a26.083,26.083,0,0,1-2.228-1.974,4.848,4.848,0,0,1,.173-7.131,13.457,13.457,0,0,1,5.271-3.183c2.447-.855,4.935-1.578,7.392-2.4,2.62-.871,2.763-1.172,2.192-3.953a12.186,12.186,0,0,1-.321-1.905c-.117-3,1.147-4.26,4.048-3.953,1.769.185,3.512.565,5.3.67a3.6,3.6,0,0,0,4.022-2.407c.851-2.022,1.968-3.927,3-5.864,1.642-3.077,3.635-3.674,6.658-2.037,3.671,1.985,3.65,1.964,6.648-.786a25.419,25.419,0,0,1,3.2-2.486,8.72,8.72,0,0,1,9.156-.8,4.225,4.225,0,0,0,4.914-.5c2.554-1.842,5.3-2.755,8.034-.164a2.424,2.424,0,0,0,2.544.327,5.3,5.3,0,0,1,4.379.517,10.919,10.919,0,0,0,7.525,1.056,13.017,13.017,0,0,1,9.523,1.726,10.282,10.282,0,0,0,9.691.971,26.047,26.047,0,0,1,14.2-1.43c2.365.459,4.629-.174,6.877-.618a14,14,0,0,1,10.522,1.927,11.522,11.522,0,0,0,7.071,2.09,5.051,5.051,0,0,1,4.129,1.583c2.335,2.349,4.914,2.259,7.632.881a23.9,23.9,0,0,1,4.93-2.117c3.018-.75,5.924-.559,8.259,1.774,1.769,1.768,3.451,1.99,5.47.575a9.8,9.8,0,0,1,10.155-1.066c1.295.565,2.743,1.251,4.119.945,1.693-.38,1.346-2.4,1.993-3.637a30.116,30.116,0,0,1,3.915-6.239c1.754-1.969,4.5-2.534,6.153.57a25.133,25.133,0,0,0,2.447,3.626c1.968,2.5,2.748,2.428,4.2-.338a29.256,29.256,0,0,0,1.387-2.993,6.855,6.855,0,0,1,2.926-3.452c4-2.507,8.111-4.207,12.923-2.929a6.831,6.831,0,0,0,4.925-.876c6.612-3.478,11.674.037,16.456,4.054,1.58,1.325,2.906,2.66,5.042,2.618a1.516,1.516,0,0,1,.26.053c4.14.792,4.675,1.647,3.314,5.738a2.3,2.3,0,0,0,.561,2.724c.53.491,1.071.982,1.555,1.52a8.713,8.713,0,0,1,1.274,9.538c-.79,1.568-1.8,2.159-3.487,1.773-1.295-.3-2.544-.829-3.813-1.246-.887-.29-1.382.048-1.432,1.019-.036.739-.015,1.478-.087,2.212-.561,5.553-5.414,8.947-10.609,7.453a9.952,9.952,0,0,1-5.23-3.167,6.023,6.023,0,0,0-4.649-2.238,27.7,27.7,0,0,1-6.092-.786c-.683-.206-1.387-.354-2.044-.623-1.2-.486-2.386-1.13-2.284-2.692a3.253,3.253,0,0,1,2.3-2.8,12.522,12.522,0,0,1,4.981-.85c4.2.106,7.5-2.1,10.634-4.576,1.428-1.124,1.29-1.937-.132-3.072a9.537,9.537,0,0,0-11.7-.084,22.57,22.57,0,0,0-3.864,3.811,8.969,8.969,0,0,1-6.184,3.447c-.617.079-1.244.127-1.856.259-1.9.412-2.228.913-1.825,2.861a15.575,15.575,0,0,1,.627,3.806c-.107,2.713-1.856,3.705-3.895,2.322-2.829-1.916-3-1.752-5.572.486-2.264,1.969-3.579,1.979-5.888.042-.413-.348-.785-.76-1.213-1.082-1.988-1.494-3.885-1.225-4.828,1.066-.953,2.317-2.478,2.966-4.736,3.241a25.014,25.014,0,0,0-12.245,5.173c-3.41,2.613-3.431,5.088-.173,7.822,1.519,1.277,3.069,2.523,4.619,3.763a9.413,9.413,0,0,0,5.914,2.238,17.521,17.521,0,0,1,4.226.618c3.242.829,3.982,2.929,2.049,5.706-.78,1.119-1.693,2.148-2.411,3.315-.989,1.6-.525,2.592,1.32,2.834a3.9,3.9,0,0,0,3.849-1.985,8.409,8.409,0,0,0,1.224-3.906c.413-3.853.918-4.476,4.66-5.183a11.268,11.268,0,0,0,5.587-2.428c2.177-1.9,2.549-3.283,1.606-6.086-1.025-3.04-.867-3.621,1.861-4.988a4.735,4.735,0,0,0,2.483-3.061c.489-1.578.9-3.2,1.54-4.714,1.417-3.331,3.772-4.487,7.158-3.521a46.446,46.446,0,0,1,9.207,3.695,12.745,12.745,0,0,1,2.422,1.7,4.943,4.943,0,0,1,1.8,5.394,2.684,2.684,0,0,0-.01,1.932Zm6.892,39.144a3.773,3.773,0,0,0,2.478.422,12.616,12.616,0,0,1,7.433,1.763c2.666,1.483,4.287.433,4.328-2.729a13.212,13.212,0,0,0-2.819-8.451c-1.845-2.4-1.917-3.679-.423-6.265.321-.554.693-1.072,1.03-1.62,1.325-2.159,1.29-3.246-.255-5.241a13.337,13.337,0,0,0-4.491-3.41c-3.237-1.752-3.721-3.035-2.722-6.735a34.543,34.543,0,0,0,1.086-4.555c.4-3.088-.734-4.1-3.7-3.431a16.644,16.644,0,0,0-4.18,1.805,15.163,15.163,0,0,1-4.19,1.779c-2.167.422-3.416-.881-3.13-3.156a4.855,4.855,0,0,1,.229-1.082c.744-1.985.046-3.383-1.6-4.444a36.389,36.389,0,0,0-10.094-4.318c-2.258-.628-3.518.174-4.42,2.47-.571,1.446-.928,2.982-1.412,4.465a6.487,6.487,0,0,1-3.094,3.975c-1.657.9-1.682,1.019-.953,3.014a6.272,6.272,0,0,1-1.433,6.857,12.031,12.031,0,0,1-7.693,4.033c-2.228.285-2.493.66-2.834,2.9a22.272,22.272,0,0,1-.612,3.251,6.437,6.437,0,0,1-6.357,4.925c-1.784-.032-3.405-.517-4.354-2.2-.979-1.737.025-3.2.918-4.582.591-.918,1.346-1.726,1.952-2.634,1.03-1.546.76-2.243-1.065-2.629a17.143,17.143,0,0,0-2.661-.216,13.187,13.187,0,0,1-7.907-2.961c-1.529-1.267-3.084-2.5-4.619-3.763-4.16-3.42-4.18-7.733-.041-11.1a22.458,22.458,0,0,1,2.2-1.568,29.937,29.937,0,0,1,11.45-4.407,3.843,3.843,0,0,0,3.207-2.4c1.463-2.988,4.109-3.7,7.015-2.122a16.308,16.308,0,0,1,2.177,1.589c1.575,1.24,1.83,1.372,3.212.074,2.325-2.185,4.751-2.761,7.555-1.13.235.137.5.121.867-.19a15.033,15.033,0,0,0-.617-3.631c-.469-2.46.352-3.864,2.717-4.56a13.5,13.5,0,0,1,2.885-.565,7.073,7.073,0,0,0,5.256-2.893c.846-1.056,1.891-1.948,2.834-2.924,4.6-4.745,10.476-4.244,15.452-1.061,3.023,1.932,3.247,4.407.535,6.7-3.716,3.141-7.851,5.437-12.862,5.373a14.9,14.9,0,0,0-2.656.211c-.5.084-1.152.269-1.213.908-.071.744.622.776,1.111.9a24.046,24.046,0,0,0,6.857.976,6.354,6.354,0,0,1,5.628,2.544,8.366,8.366,0,0,0,3.941,2.755c4.588,1.583,8.366-1.357,8.1-6.313a9.666,9.666,0,0,1,.209-3.019c.459-1.726,1.29-2.249,2.982-1.731,1.193.364,2.325.934,3.5,1.362,1.968.723,2.559.385,3.023-1.668a6.309,6.309,0,0,0-.107-3,6.952,6.952,0,0,0-2.641-3.711,3.842,3.842,0,0,1-1.458-4.819c.994-2.65.867-2.7-2.034-3.172-1.677-.269-3.523-.454-4.583-1.964-1.891-2.7-4.614-3.927-7.407-5.194a7.532,7.532,0,0,0-7.157.047,10.813,10.813,0,0,1-8.034,1.119,5.522,5.522,0,0,0-1.861-.137c-4.828.48-9.079,1.932-11.093,7.131a14.56,14.56,0,0,1-1.269,2.428c-1.932,3.072-4.073,3.294-6.53.707a33.413,33.413,0,0,1-3.161-4.455c-1.264-1.874-1.7-1.927-3.2-.153a19.933,19.933,0,0,0-3.925,7.474c-.7,2.449-1.744,3.056-4.2,2.6a15.488,15.488,0,0,1-3.36-.887,8.726,8.726,0,0,0-9.146.818,7.56,7.56,0,0,1-1.193.618c-2.065.966-4.089.871-5.715-.786-2.875-2.929-6.031-2.687-9.38-1.225-.9.4-1.784.839-2.661,1.293-3.37,1.747-6.546,1.594-9.406-1.093a4.248,4.248,0,0,0-3.14-1.251,13.636,13.636,0,0,1-7.841-2.37,12.429,12.429,0,0,0-7.657-1.932,31.875,31.875,0,0,0-5,.855,9.311,9.311,0,0,1-3.441.074,26.18,26.18,0,0,0-14.2,1.33,10.725,10.725,0,0,1-10.257-.818,13.409,13.409,0,0,0-8.432-1.969c-1.687.116-3.385.079-5.078.09a6.724,6.724,0,0,1-3.354-.808,5.875,5.875,0,0,0-4.889-.618,3.334,3.334,0,0,1-3.049-.549c-2.732-1.884-3.283-1.948-5.878.011-2,1.51-4.094,1.916-6.26.744-3.334-1.805-6.219-.892-8.916,1.325-1.249,1.029-2.36,2.238-3.538,3.368-1.861,1.779-2.778,1.89-5.006.581-.7-.412-1.346-.908-2.044-1.309-1.942-1.1-2.85-.85-3.931,1.119A44.583,44.583,0,0,0,120,161.487c-1.259,3.31-3.563,4.392-6.775,3.969-.8-.106-1.591-.2-2.376-.348-4.384-.8-4.537-.639-3.574,3.79.566,2.6-.112,4.059-2.513,5-1.58.623-3.232,1.04-4.853,1.536a27.506,27.506,0,0,0-6.923,2.882c-3.028,1.948-3.094,3.964-.3,6.228a26.314,26.314,0,0,1,3.11,2.6c1.611,1.789,1.2,3.848-.877,5.041a9.809,9.809,0,0,1-3.043,1,26.069,26.069,0,0,0-4.935,1.209,4.044,4.044,0,0,0-2.376,2.1,2.655,2.655,0,0,0,.739,3.214,1.908,1.908,0,0,0,2.625-.559,12.253,12.253,0,0,0,1.208-1.478A6.036,6.036,0,0,1,93,194.883c3.625-.655,6.133-4.059,9.941-4.223a2.266,2.266,0,0,0,1.137-.691,10.284,10.284,0,0,1,5.5-2.629,3.388,3.388,0,0,0,1.7-.75,8.829,8.829,0,0,1,7.086-1.668,4.614,4.614,0,0,0,3.579-.676,4.463,4.463,0,0,1,3.844-.728c2.829.776,4.532-.575,6.041-2.834,1.58-2.359,2.982-2.75,5.521-1.583a46.1,46.1,0,0,1,4.894,2.829,4.614,4.614,0,0,0,3.548.707c3.36-.676,4.721,0,6.276,3.135,1.1,2.212,1.8,4.64,3.013,6.777a10.774,10.774,0,0,1,.974,8,17.288,17.288,0,0,0-.326,6.023,9.978,9.978,0,0,1-2.549,8.414c-.184.2-.357.412-.525.628a1.574,1.574,0,0,0,.112,2.433c2.585,1.937,1.932,4.244.846,6.63a56.463,56.463,0,0,1-9.054,14.616,13,13,0,0,0-2.7,4.407c-2.59,7.39-3.869,14.932-2.682,22.8a6.426,6.426,0,0,0,2.177,4,17.15,17.15,0,0,0,2.172,1.6,7.517,7.517,0,0,1,3.288,4.84,16.113,16.113,0,0,1,.158,7.395,5.361,5.361,0,0,0,.867,4.94,4.44,4.44,0,0,1,.54,4.93,1.612,1.612,0,0,0,.622,2.344,6.3,6.3,0,0,1,2.656,4.3c.393,1.61.846,3.2,1.366,4.772a4.162,4.162,0,0,0,2.116,2.724,1.461,1.461,0,0,0,1.534-.058c.53-.4.393-.977.178-1.5-1.035-2.549-2.09-5.094-3.125-7.643a19.044,19.044,0,0,1-1.83-5.468,13.362,13.362,0,0,0-2.88-7.553c-1.83-2.3-.989-4.809,1.682-6.028a7.422,7.422,0,0,1,2.86-.639c2.207-.074,3.482.987,4.043,3.214a16.272,16.272,0,0,1,.25,5.231c-.362,4.692,1.269,8.672,3.813,12.378a30.117,30.117,0,0,0,4.257,5.321c3.11,2.866,4.124,6.566,4.3,10.657a19.723,19.723,0,0,1-.347,4.956,3.045,3.045,0,0,0,1.208,3.4c2.207,1.547,4.226,3.4,6.714,4.508a61.884,61.884,0,0,1,8.779,4.682c2.636,1.71,5.694,2.639,8.687,1.5a4.6,4.6,0,0,1,5.118,1.056,37.2,37.2,0,0,1,5.251,5.511,6.842,6.842,0,0,0,4.486,2.729c2.2.327,4.415.6,6.592,1.066,3.456.739,4.818,2.317,5.394,5.943.2,1.272.393,2.549.617,3.816a3.319,3.319,0,0,0,1.871,2.539,52.7,52.7,0,0,1,6.184,3.837,12.866,12.866,0,0,0,4.155,1.858c.918.222,2.07.618,2.656-.5.5-.955-.336-1.737-.867-2.433A35.806,35.806,0,0,0,230.1,354.3c-2.84-2.233-3-2.782-1.606-6.244.892-2.212,1.907-4.376,2.7-6.624.765-2.164.25-3.273-1.815-4.17a17.315,17.315,0,0,0-6.25-1.33c-1.427-.053-2.86,0-4.277-.132-2.024-.19-2.819-1.14-2.809-3.273a9.522,9.522,0,0,1,.311-2.175,10.968,10.968,0,0,1,3.64-5.664,8.416,8.416,0,0,0,2.794-6.893c-.082-1.916-.9-2.439-2.656-1.81-3.222,1.151-5.939,2.945-7.2,6.477a4.769,4.769,0,0,1-5.174,3.494,70.1,70.1,0,0,1-7.433-.755,8.5,8.5,0,0,1-6.658-5.041c-2.014-4.761-2.722-9.749-.693-14.758a59.552,59.552,0,0,0,3.258-9.063,5.5,5.5,0,0,1,2.738-3.584c2.243-1.325,4.5-2.629,6.724-3.99a10.389,10.389,0,0,1,10.711-.48c3.135,1.557,4.022,1.858,5.766-1.937A5.318,5.318,0,0,1,230.8,284.7a7.372,7.372,0,0,0,5.771,2.249,3.592,3.592,0,0,1,3.854,3.114c.418,1.789.673,3.616,1.009,5.426.2,1.082.4,2.169.658,3.241.127.528.357,1.135,1.009,1.1.484-.026.7-.523.841-.966.2-.612.372-1.23.535-1.853a32.721,32.721,0,0,0,.571-8.255,17.667,17.667,0,0,1,3.91-11.206,27.187,27.187,0,0,1,9.436-7.569,16.513,16.513,0,0,0,8.391-9.079c3.523-8.509,10.267-13.449,18.679-16.067a4.538,4.538,0,0,0,2.7-2.085c.892-1.488,1.718-3.019,2.585-4.524,1.575-2.729,3.783-3.732,6.775-3.056a13.961,13.961,0,0,1,5.786,2.745,1.538,1.538,0,0,0,2.513-.269,9.969,9.969,0,0,0,.989-1.3,4.027,4.027,0,0,1,4.5-2.164c1.417.19,2.952.533,4.481-.327a6.483,6.483,0,0,0-2.243-2.518c-1.259-1.029-2.595-1.958-3.8-3.051-1.759-1.589-1.7-3.024.082-4.613a10.821,10.821,0,0,1,1.3-.971,2.647,2.647,0,0,0,1.234-2.576c-.041-.644-.066-1.293-.056-1.937.041-2.5.918-3.5,3.344-3.69a9.757,9.757,0,0,1,2.661.1,26.643,26.643,0,0,0,8.514.222c1.835-.216,2.666.549,2.707,2.454A10.3,10.3,0,0,1,327.8,222.7c-.449.765-1.295,1.3-1.341,2.5Z" transform="translate(-81.928 -116.657)" fill="#666"/>
    <path id="Path_8" data-name="Path 8" d="M848.654,591.748c.51-6.223-.678-10.092-2.9-13.713a106.006,106.006,0,0,1-5.455-9.511c-1.692-3.521-2.61-7.036-.729-10.847a21.081,21.081,0,0,0,1.137-3.969,20.053,20.053,0,0,1,3.614-7.638,15.675,15.675,0,0,0,2.208-3.779,6.284,6.284,0,0,0-.342-6.075,25.066,25.066,0,0,1-3.222-8.735,31.263,31.263,0,0,0-5.822-13.206c-1.54-2.022-2.722-4.312-4.471-6.2a4.824,4.824,0,0,1-.882-5.4c.52-1.272,1.121-2.507,1.738-3.732a14.362,14.362,0,0,0,1.448-7.764,2.688,2.688,0,0,0-2.223-2.7,16.5,16.5,0,0,0-5.3-.539,5.548,5.548,0,0,1-5.654-2.866c-3.151-5.178-6.26-5.352-11.348-2.491a27.814,27.814,0,0,1-7.876,3.331c-2.513.528-4.94.554-7.219-.945a5.143,5.143,0,0,0-6.663.464,7.561,7.561,0,0,1-4.894,1.953,6.729,6.729,0,0,1-4.043-1.167c-1.468-1.045-2.962-2.053-4.461-3.051a18.734,18.734,0,0,1-7.1-8.783,27.4,27.4,0,0,0-8.967-11.8,20.559,20.559,0,0,1-4.705-4.476c-1.947-2.824-2.024-5.03-.137-7.886.953-1.446,2.054-2.787,3.023-4.223,1.713-2.539,2.167-5.094.479-7.975-1.83-3.13-1.932-6.667-1.443-10.208a19.14,19.14,0,0,1,1.993-6.572c3.849-7.068,7.621-14.183,13.122-20.116,3.666-3.948,6.882-8.229,8.458-13.592a3.672,3.672,0,0,1,2.2-2.28c.979-.449,1.978-.844,2.967-1.251a5.908,5.908,0,0,0,3.033-2.169c1.631-2.692,4.124-3.336,6.923-3.273a27.489,27.489,0,0,0,6.632-.665,8.023,8.023,0,0,0,4.4-2.433,30.609,30.609,0,0,1,2.575-2.407c3.8-3.336,8.075-4.3,12.689-2.206,3.614,1.647,7.183.771,10.762.253a19.819,19.819,0,0,1,6.372.306c2.891.512,4.089,2.37,3.487,5.4-.3,1.525-.953,2.972-1.361,4.476-.428,1.578-.025,2.227,1.489,2.607a3.379,3.379,0,0,0,.8.1c4.889-.042,8.432,2.528,11.358,6.276a11.333,11.333,0,0,0,5.623,4.022c1.952.612,2.019.6,2.737-1.314a37.654,37.654,0,0,1,1.6-4.1c2.233-4.291,5.531-5.257,9.584-2.808,2.151,1.3,4.221,2.75,6.326,4.133a11.943,11.943,0,0,0,9.457,1.842,19.327,19.327,0,0,1,5.6-.222c4.038.3,6.627,2.877,8.682,6.17a15.216,15.216,0,0,1,1.866,4.275,107.021,107.021,0,0,0,3.9,12.05,9.313,9.313,0,0,0,2.217,3.711,15.635,15.635,0,0,1,4.965,10.979,8.138,8.138,0,0,0,3.232,6.392,8.922,8.922,0,0,1,3.619,7.611,4.511,4.511,0,0,0,2,3.959c.806.57,1.519,1.283,2.3,1.884a23.4,23.4,0,0,1,7.8,10.324c.362.94.811,1.847,1.259,2.75,1.376,2.776,3.579,3.7,6.428,2.513,2.727-1.135,5.368-2.476,8.07-3.684a22.159,22.159,0,0,1,3.263-1.219c2.213-.6,3.579.053,4.608,2.19a11.232,11.232,0,0,1,1.117,6.714,40.875,40.875,0,0,1-6.51,16.8,21.38,21.38,0,0,1-3.869,4.191,91.79,91.79,0,0,0-21.289,26.735,19.66,19.66,0,0,0-2.366,7.58,24.461,24.461,0,0,1-.805,4.054,6.716,6.716,0,0,0,.545,5.342c4.038,6.872,3.222,14.378,2.595,21.81-.306,3.647-2.33,6.545-4.848,9a26.128,26.128,0,0,1-8.294,5.965c-2.585,1.029-3.553,2.85-3.181,5.6.148,1.093.173,2.206.352,3.294a9.889,9.889,0,0,1-2.865,9.311,32.323,32.323,0,0,0-3.971,4.476,12.517,12.517,0,0,0-2.121,4.128c-1.8,7.11-6.056,12.657-10.634,17.994a41.137,41.137,0,0,1-6.678,6.355,15.022,15.022,0,0,1-5.011,2.534,2.976,2.976,0,0,1-2.814-.322c-1.631-1.325-3.314-1-5.067-.428a45.246,45.246,0,0,1-9.569,2.476,10.475,10.475,0,0,1-1.856.121c-3.054-.248-4.639-1.842-5.042-5.014-.53-4.2-.561-8.461-1.682-12.578a13.988,13.988,0,0,0-2.763-5.922c-3.1-3.442-4.67-7.379-4.2-10.219ZM851.2,589.8c-.392,3.542.122,6.862,2.554,9.554,3.079,3.4,4.257,7.617,4.9,12.04.438,3,.632,6.044,1.02,9.058.245,1.905.948,2.528,2.793,2.676a9.617,9.617,0,0,0,3.441-.327c3.084-.9,6.184-1.747,9.268-2.634a4.316,4.316,0,0,1,4.078.591,2.79,2.79,0,0,0,3.253.153,20.067,20.067,0,0,0,5.037-3.605,65.838,65.838,0,0,0,9.711-11.38,22.4,22.4,0,0,0,3.584-7.073,24.588,24.588,0,0,1,7.407-12.235,7.835,7.835,0,0,0,2.34-7.759,23.647,23.647,0,0,1-.311-5.785,4.745,4.745,0,0,1,2.386-4.07c.846-.512,1.738-.939,2.615-1.388a29.344,29.344,0,0,0,7.708-5.891,13.458,13.458,0,0,0,3.91-9.411c.036-2.861.005-5.716.061-8.577a16.544,16.544,0,0,0-1.606-7.21q-.68-1.5-1.4-2.982a8.2,8.2,0,0,1-.525-5.912,26.912,26.912,0,0,0,.811-4.054,21.648,21.648,0,0,1,2.467-8.129c5.613-10.388,12.521-19.714,21.478-27.283a24.265,24.265,0,0,0,5.547-6.661,40.514,40.514,0,0,0,4.5-12.948,9.259,9.259,0,0,0-.168-3.832c-.709-2.9-1.433-3.346-4.15-2.37-3.12,1.119-6.072,2.655-9.069,4.07-4.155,1.953-7.963.771-9.762-3.537-2.391-5.732-5.608-10.636-10.731-14.1a6.375,6.375,0,0,1-2.942-5.827,6.293,6.293,0,0,0-2.686-5.685,9.917,9.917,0,0,1-4.063-7.77,14.386,14.386,0,0,0-4.741-10.166,7.44,7.44,0,0,1-2-3.225c-1.4-4.075-3.1-8.044-4.043-12.288a16.264,16.264,0,0,0-2.906-6.17,7.641,7.641,0,0,0-6.643-3.462,31,31,0,0,0-5.062.264,13.41,13.41,0,0,1-9.956-2.117c-2.146-1.314-4.19-2.808-6.332-4.122-3.13-1.916-5.088-1.33-6.724,2.037-.637,1.309-1.025,2.745-1.534,4.122-.994,2.7-2.009,3.172-4.736,2.354a12.621,12.621,0,0,1-6.714-4.275c-2.9-3.779-6.434-6.065-11.307-6.387-3.808-.253-4.593-2.117-3.288-5.933a27.834,27.834,0,0,0,.974-2.866c.525-2.338-.046-3.262-2.294-3.732a12.225,12.225,0,0,0-5.842-.032,16.836,16.836,0,0,1-11.735-.765,8.312,8.312,0,0,0-1.035-.28,7.69,7.69,0,0,0-6.643,1.087,21,21,0,0,0-4.124,3.489A9.13,9.13,0,0,1,802.94,380a32.932,32.932,0,0,1-8.463,1.008c-1.376-.048-2.809.074-3.63,1.325a11.737,11.737,0,0,1-6.271,4.444,3.7,3.7,0,0,0-2.518,2.259,39.847,39.847,0,0,1-8.641,13.507c-5.409,5.854-9.421,12.752-12.913,19.92-2.519,5.157-2.865,10.572.1,15.9,1.417,2.544.974,5.215-.474,7.627-1.075,1.795-2.391,3.436-3.574,5.167-1.626,2.375-1.54,3.985.331,6.2A21.053,21.053,0,0,0,760.7,460.8a27.972,27.972,0,0,1,9.615,12.652,16.761,16.761,0,0,0,4.14,6.038,51.552,51.552,0,0,0,7.239,5.189,3.453,3.453,0,0,0,3.813.042,16.269,16.269,0,0,0,2.284-1.425c2.61-2.159,5.394-2.412,8.187-.607,2.345,1.515,4.716,1.393,7.188.7a19.48,19.48,0,0,0,5.389-2.386,16.394,16.394,0,0,1,4.119-1.953c4.262-1.3,7.168-.37,9.946,3.209.387.5.764,1.019,1.116,1.552a4.168,4.168,0,0,0,4.083,2.069,22.661,22.661,0,0,1,3.737.042c4.262.359,6.067,2.47,5.914,6.857a17.6,17.6,0,0,1-1.973,7.405c-.535,1.061-1,2.159-1.489,3.246a2.758,2.758,0,0,0,.576,3.294c1.871,1.895,3.038,4.318,4.609,6.434a34.515,34.515,0,0,1,6.153,14.267,22.378,22.378,0,0,0,2.9,7.68,8.355,8.355,0,0,1,.484,7.938,20.166,20.166,0,0,1-2.63,4.481,18.1,18.1,0,0,0-3.13,6.667,31.909,31.909,0,0,1-1.285,4.5,9.873,9.873,0,0,0,.546,8.519,101.748,101.748,0,0,0,5.164,9.047c2.59,4.133,4.241,8.519,3.818,13.544Z" transform="translate(-410.903 -225.354)" fill="#666"/>
    <path id="Path_9" data-name="Path 9" d="M507.646,634.237c.27,8.345-2.778,15.7-6.668,22.7a11.169,11.169,0,0,1-10.65,6.138c-3.808-.111-6.306,2.206-8.213,5.294a5.943,5.943,0,0,0-.443,5.331,7.4,7.4,0,0,1-.627,6.545c-2.263,4.307-4.471,8.6-7.784,12.172a12.719,12.719,0,0,0-3.013,5.785,7.9,7.9,0,0,1-2.508,4.149,15.354,15.354,0,0,0-4.721,7.543,9.045,9.045,0,0,1-4.777,6,9.18,9.18,0,0,0-3.676,3.531,48.723,48.723,0,0,0-6.174,15.814c-.607,2.887-.265,5.774,1.907,7.991,2.3,2.344,2.055,4.946.224,7.437-.214.3-.438.586-.663.866-1.876,2.359-1.927,3.109-.183,5.5a20.037,20.037,0,0,0,5.144,4.782c1.942,1.3,3.931,2.549,5.766,4,2.014,1.594,2.513,3.178,1.83,4.719-.678,1.525-2.692,2.4-4.869,2.022a14.532,14.532,0,0,1-5.037-1.779c-1.769-1.066-3.533-2.143-5.261-3.288-2.213-1.467-4.395-2.544-7.239-2.085-2.6.422-4.456-.982-5.129-3.79a22.8,22.8,0,0,0-4.914-9.369,9.166,9.166,0,0,1-2.284-6.049,14.356,14.356,0,0,0-1.667-5.785,28.4,28.4,0,0,1-2.656-9.226,9.442,9.442,0,0,0-2.1-4.713,29.072,29.072,0,0,0-1.9-2.328c-1.769-1.99-2.748-4.022-2.024-6.978a10.243,10.243,0,0,0-1.157-8c-1.229-1.979-1.02-4.27-.678-6.466a49.927,49.927,0,0,1,1.346-6.2,13.98,13.98,0,0,0-.586-9.453,50.444,50.444,0,0,1-2.054-5.991,9.252,9.252,0,0,1,.581-6.978,7.38,7.38,0,0,0,.647-5.331,68.025,68.025,0,0,1-1.621-17.835,16.835,16.835,0,0,0-2.187-8.456,12.568,12.568,0,0,0-7.82-6.661c-7.122-2.032-11.154-7.136-12.515-14.357a13.213,13.213,0,0,0-4.746-8.282,11.488,11.488,0,0,1-4.425-7.622,7.994,7.994,0,0,0-3.135-5.289c-.632-.512-1.295-.976-1.922-1.494a4.667,4.667,0,0,1-1.647-5.621,13.533,13.533,0,0,1,1.815-3.684,6.035,6.035,0,0,0,.958-5.247c-.887-3.141-.194-6,1.157-8.81a32.759,32.759,0,0,1,6.821-9.818c2.942-2.808,3.5-6.466,1.886-10.309a30.99,30.99,0,0,1-2.213-6.508c-.444-2.5.4-3.621,2.865-3.864a6.047,6.047,0,0,1,1.071-.026c2.794.227,4.619-.992,5.363-3.832a3,3,0,0,1,1.57-2.127c3.247-1.494,6.169-3.653,9.62-4.772a12.259,12.259,0,0,1,8.371.074c1.672.628,3.314,1.351,4.925,2.127,2.1,1.008,4.17,2.09,6.23,3.183,2.258,1.193,4.456,1.578,6.867.248a14.156,14.156,0,0,1,4.313-1.4c2.615-.464,3.879.887,3.609,3.61a4.466,4.466,0,0,0,3.217,5.173c.76.264,1.509.559,2.279.8a4.924,4.924,0,0,1,3.67,3.632c.586,2.338,2.248,3.183,4.4,3.273,1.514.063,3.028.121,4.542.1a10.512,10.512,0,0,1,8.478,3.943c2.773,3.193,4.68,6.952,6.612,10.683,1.009,1.948,1.84,4,2.789,5.975.994,2.08,2.335,3.61,4.828,3.8a8.347,8.347,0,0,1,5.011,2.428,14.443,14.443,0,0,0,12.036,4.107,10.572,10.572,0,0,1,1.871.042c2.534.2,4.6,1.346,5.322,3.9,1.106,3.932,3.543,5.78,7.311,6.651,3.655.845,4.965,3.357,4.45,7.3a29.219,29.219,0,0,1-6.612,14.573,19.639,19.639,0,0,1-1.453,1.62,7.929,7.929,0,0,0-2.192,7.337,43.347,43.347,0,0,1,.428,6.9Zm-10.257-45.911a15.087,15.087,0,0,1-11.486-4.085,10.26,10.26,0,0,0-5.7-2.819,6.484,6.484,0,0,1-5.149-3.927c-.9-1.805-1.7-3.658-2.59-5.463-2.024-4.112-4.053-8.218-7.076-11.686a7.762,7.762,0,0,0-6.327-2.987,28.9,28.9,0,0,1-6.393-.354,5.646,5.646,0,0,1-4.838-4.164A3.955,3.955,0,0,0,444.86,550a34.292,34.292,0,0,1-4.512-1.7c-2-.94-2.62-2.206-2.386-4.434.046-.459.209-.9.245-1.357.112-1.4-.362-1.926-1.713-1.6a21.324,21.324,0,0,0-3.778,1.362,7.115,7.115,0,0,1-6.454-.037c-2.488-1.246-4.986-2.46-7.469-3.711a32.037,32.037,0,0,0-5.44-2.286,10.684,10.684,0,0,0-6.051.048c-2.8.792-5.149,2.507-7.713,3.769a5.056,5.056,0,0,0-2.539,2.634c-1.239,2.708-3.018,4.83-6.378,4.286a3.386,3.386,0,0,0-.8,0c-1.585.143-1.866.491-1.555,2.117a25.774,25.774,0,0,0,1.876,5.167,11.437,11.437,0,0,1-2.855,13.491,27.614,27.614,0,0,0-6.745,10.831,6.979,6.979,0,0,0-.265,4.091,11.127,11.127,0,0,1-1.743,9.163c-1.8,2.819-1.478,4.075,1.111,6a11.6,11.6,0,0,1,4.863,7.944,7.535,7.535,0,0,0,2.187,4.328q1.514,1.56,3.079,3.072a11.544,11.544,0,0,1,3.533,6.888c.984,6.318,4.063,11.185,10.278,13.285,7.713,2.608,12.418,8.715,12.464,17a86.337,86.337,0,0,0,1.759,18.938,6.991,6.991,0,0,1-.668,5.083,8.789,8.789,0,0,0-.556,6.951,40.385,40.385,0,0,0,1.687,4.656,15.689,15.689,0,0,1,.78,11.053,34.961,34.961,0,0,0-1.152,4.83c-.331,2.085-.8,4.286.331,6.223,1.83,3.141,1.917,6.508,1.346,9.907a4.554,4.554,0,0,0,1.172,4.265,23.983,23.983,0,0,1,3.161,4.107,10.4,10.4,0,0,1,1.744,4.592,23.742,23.742,0,0,0,2.391,8.44c.877,1.921,1.856,3.89,1.866,6.017a9.609,9.609,0,0,0,2.615,6.445,19.374,19.374,0,0,1,4.231,8.213c.647,2.724,1.229,3.12,3.987,2.924a9.85,9.85,0,0,1,6.337,1.715c1.5.992,3.013,1.974,4.537,2.924a16.259,16.259,0,0,0,5.358,2.428c1,.2,2.381.681,2.916-.5.561-1.24-.754-1.921-1.58-2.523-2.039-1.488-4.16-2.855-6.22-4.312a16.171,16.171,0,0,1-5.353-6.065c-1.076-2.191-1.091-4.238.744-6.065a10.055,10.055,0,0,0,1.382-1.684c.984-1.536,1.014-2.639-.224-4-2.88-3.146-3.329-6.835-2.437-10.815a54.082,54.082,0,0,1,6.112-15.571,10.3,10.3,0,0,1,4.532-4.56,6.945,6.945,0,0,0,3.951-4.914,15.514,15.514,0,0,1,4.833-7.8,7.885,7.885,0,0,0,2.5-4.149,13.328,13.328,0,0,1,3.171-6.007c3.263-3.5,5.5-7.675,7.621-11.961a5.919,5.919,0,0,0,.433-4.983,8.36,8.36,0,0,1,1.239-7.859c2.544-3.695,5.97-5.774,10.425-5.669a8.3,8.3,0,0,0,7.275-3.879,19.661,19.661,0,0,0,1.438-2.328c4.42-8.5,6.765-17.408,5.1-27.152a9.259,9.259,0,0,1,2.666-8.583,28.589,28.589,0,0,0,4.629-6.413,23.478,23.478,0,0,0,3-8.815c.342-2.782-.54-4.149-3.125-4.956-.938-.29-1.9-.507-2.834-.808a6.7,6.7,0,0,1-4.537-4.333c-.214-.607-.515-1.177-.714-1.789-.8-2.444-2.406-3.547-4.9-3.267-.438.048-.892.005-1.7.005Z" transform="translate(-225.642 -302.648)" fill="#666"/>
    <path id="Path_10" data-name="Path 10" d="M1494.985,776.167a3.848,3.848,0,0,1,1.438-3.04c2.722-2.2,3.365-5.062,2.559-8.4a9.722,9.722,0,0,1,.219-5.452,7.829,7.829,0,0,0-.306-5.906,14.876,14.876,0,0,1-.805-9.459,4.152,4.152,0,0,0,.174-.807c.132-5.49,3.67-8.968,6.933-12.6,2.672-2.977,6.24-3.721,9.91-4.2a44.748,44.748,0,0,0,6.832-1.193,6.015,6.015,0,0,0,3.431-2.465c4.318-6.392,9.972-11.528,15.167-17.091,2.885-3.093,5.394-3.125,8.819-.686a2.681,2.681,0,0,0,3.931-.375,43.217,43.217,0,0,0,5.246-6.973,19.314,19.314,0,0,1,1.529-2.264c1.529-1.863,3-2.206,4.889-.691a7.511,7.511,0,0,0,5.76,1.494,15.663,15.663,0,0,1,5.842.243c2.366.7,2.957,2.1,1.8,4.381a20.453,20.453,0,0,1-2.574,3.521c-1.29,1.6-1.336,2.518-.107,4.191a19.891,19.891,0,0,0,6.449,5.711c2.09,1.151,3.222.718,4.374-1.457a16.216,16.216,0,0,0,1.463-5,34.559,34.559,0,0,1,2.4-8.751,11.6,11.6,0,0,1,1.351-2.375c1.331-1.684,2.962-1.673,4.262.026a19.2,19.2,0,0,1,2.422,4.6,73.232,73.232,0,0,0,3.4,7.511,8.413,8.413,0,0,1,.744,6.661,30.966,30.966,0,0,1-.913,3.178c-.836,1.99-.173,3.468,1.071,5.025,4.593,5.759,9.085,11.6,13.622,17.408a10.049,10.049,0,0,1,1.468,10.836c-1.193,2.866-1.963,5.922-2.906,8.9-1.488,4.714-3.92,8.662-8.274,11.09-3.252,1.816-5.368,4.851-7.366,7.886a34.07,34.07,0,0,1-12.113,11.427,51.829,51.829,0,0,0-4.624,3.278c-2.534,1.784-4.293,1.752-6.419-.517a2.576,2.576,0,0,0-2.814-.855,17.341,17.341,0,0,1-5.026.581c-3.293-.227-5.215-2.217-5.394-5.642q-.25-4.814-4.879-5.748c-.612-.121-1.239-.2-1.835-.375-2.62-.781-4.027-2.708-3.288-5.41.734-2.676-.3-4.222-2.146-5.632-.571-.438-1.162-.855-1.739-1.288-1.917-1.457-3.671-1.758-5.776-.042a5.982,5.982,0,0,1-6.755.876c-2.9-1.357-9.187.137-10.874,2.729-2.049,3.156-4.965,4.006-8.208,4.371a14.683,14.683,0,0,1-5.323-.18,4.914,4.914,0,0,0-4.308.871c-1.392.992-2.732,2.069-4.134,3.046-1.585,1.1-3.324,1.5-5.032.433a7.479,7.479,0,0,1-3.568-5.373Zm88.659-59.053a8.878,8.878,0,0,1-1.479-.422,22.085,22.085,0,0,1-9.023-7.986,4.187,4.187,0,0,1,.234-5.151c.76-1.024,1.621-1.969,2.35-3.014,1.04-1.5.76-2.122-1.04-2.175-2.314-.068-4.634-.005-6.948,0a4.314,4.314,0,0,1-2.987-.918c-2.116-1.763-2.319-1.689-3.854.67-.546.839-1.055,1.71-1.616,2.544a43.885,43.885,0,0,1-5.353,6.524c-1.856,1.853-2.574,1.879-4.68.47-.224-.148-.438-.317-.658-.475-3.232-2.291-4.634-2.122-7.366.845-2.151,2.338-4.278,4.7-6.479,6.983a49.777,49.777,0,0,0-6.857,8.1,9.616,9.616,0,0,1-6.969,4.6c-2.371.4-4.751.739-7.127,1.108-2.416.375-4.776.992-6.489,2.924-2.784,3.146-6.26,5.885-6.4,10.736a1.053,1.053,0,0,1-.082.264,13.641,13.641,0,0,0,.377,10.229,7.469,7.469,0,0,1,.586,5.384,14.814,14.814,0,0,0-.3,7.622,7.622,7.622,0,0,1-2.319,7.527,8.841,8.841,0,0,0-.933.987c-1.127,1.367-1.065,2.269.229,3.874,1.264,1.568,2.213,1.863,3.666.924,1.2-.781,2.284-1.763,3.456-2.607a8.171,8.171,0,0,1,6.5-1.821,21.134,21.134,0,0,0,5.6.069c1.922-.18,3.916-.375,5.22-2.275,3.589-5.231,8.921-5.526,14.187-4.555,2.442.448,4.119.148,5.807-1.357a4.107,4.107,0,0,1,4.965-.6,20.37,20.37,0,0,1,6.571,5.13,4.159,4.159,0,0,1,.958,4.1,7.2,7.2,0,0,0-.286,1.346c-.163,1.71.2,2.344,1.835,2.824,1.02.3,2.1.364,3.145.586,3.8.808,5.1,2.46,5.118,6.471,0,.369-.02.739,0,1.108.148,2.4.984,3.257,3.324,3.4a17.312,17.312,0,0,0,5.546-.686c1.5-.4,2.682-.3,3.594,1.383.938,1.726,1.856,1.768,3.523.607a29.506,29.506,0,0,1,3.268-2.4c6.1-3.1,10.655-7.886,14.361-13.692a18.907,18.907,0,0,1,6.5-6.471c3.823-2.18,6.02-5.611,7.331-9.8,1.07-3.42,2.228-6.809,3.359-10.208a6.846,6.846,0,0,0-.6-6.1,23,23,0,0,0-2.044-2.9c-4.6-5.284-8.269-11.333-12.974-16.526a5.676,5.676,0,0,1-1.142-5.922c.459-1.393.749-2.845,1.157-4.254a4.923,4.923,0,0,0-.352-3.758c-1.652-3.172-2.9-6.534-4.42-9.765-.443-.94-.643-2.507-1.861-2.412-1.127.084-1.33,1.6-1.7,2.6a34.98,34.98,0,0,0-1.774,6.936c-.408,2.644-.923,5.278-2.666,7.427a4.454,4.454,0,0,1-3.971,1.948Z" transform="translate(-774.615 -378.273)" fill="#666"/>
    <path id="Path_11" data-name="Path 11" d="M618.629,146.987c.077-1.288.066-2.586.255-3.853.484-3.294,2.116-5.627,5.373-6.492a7.722,7.722,0,0,0,3.528-1.874c1.224-1.2,1.326-2.037-.076-2.85-2.778-1.6-2.957-3.864-2.06-6.6.341-1.045.683-2.1.928-3.177.484-2.132-.051-2.9-2.187-3.088-2.748-.243-5.506-.412-8.259-.612-3.706-.264-7.229-1.087-10.191-3.6A15.92,15.92,0,0,1,604.7,113.8c-2.05-2.122-1.637-4.212,1.05-5.363a11.136,11.136,0,0,1,5.251-.776,9.6,9.6,0,0,0,8.243-3,5.881,5.881,0,0,1,6.423-1.562c.6.19,1.213.3,1.82.449a6.8,6.8,0,0,0,6.724-1.615c1.8-1.715,3.681-2.507,6.041-1.14a2.08,2.08,0,0,0,2.666-.644,4.88,4.88,0,0,1,4.67-1.388c.79.116,1.591.206,2.376.369a35.267,35.267,0,0,0,14.565,0,55.191,55.191,0,0,1,17.257-1.267c5.485.586,10.619-.612,15.849-1.478,2.748-.454,5.307-.19,7.356,1.525,3.6,3.024,7.469,3.352,11.781,2.375a18.88,18.88,0,0,1,8.223.069c.984.216,2,.464,2.126,1.726.112,1.087-.673,1.694-1.463,2.122-3.518,1.916-6.842,4.423-11.18,3.816a8.131,8.131,0,0,0-3.4.649,5.627,5.627,0,0,0-3.931,3.8,45.982,45.982,0,0,1-2.661,6.334c-1.478,2.845-3.487,4.914-6.79,5.1-1.387.079-1.8.945-1.947,2.154-.255,2.1-.591,4.2-.754,6.3a4.242,4.242,0,0,1-2.029,3.346c-5.083,3.573-10.553,5.236-16.706,3.943-.867-.179-1.779-.084-2.661-.2-1.58-.206-2.432.486-3.466,1.821-3.589,4.634-8.315,6.756-14.157,5.811a10.436,10.436,0,0,0-11.414,6.1c-.744,1.568-1.351,3.209-2.054,4.8a29.806,29.806,0,0,1-1.667,3.463,6.277,6.277,0,0,1-9.044,2.307,29.692,29.692,0,0,1-2.355-1.81c-1.616-1.2-2.08-1.225-3.569.348-.9.955-1.4.454-1.886-.29-2.972-4.55-5.689-9.2-5.348-15.027Zm105.135-44.512c-3.339-.09-6.077-.369-8.748.375a10.342,10.342,0,0,1-9.584-1.942c-.428-.327-.928-.554-1.361-.881a7.848,7.848,0,0,0-6.622-1.3c-2.187.428-4.369.892-6.566,1.256a17.951,17.951,0,0,1-5.3.512c-6.337-.834-12.623-.116-18.913.581-3.354.369-6.587,1.631-10.038,1.346a68.564,68.564,0,0,1-8.182-1.262,4.669,4.669,0,0,0-4.639,1.214,3.622,3.622,0,0,1-4.685.6,2.377,2.377,0,0,0-3.146.507,9.211,9.211,0,0,1-9.941,2.1,5.5,5.5,0,0,0-6.485,1.863,6.9,6.9,0,0,1-4.715,2.3c-1.688.185-3.37.3-5.062.369a19.108,19.108,0,0,0-2.131.158c-.612.1-1.305.253-1.529.945-.245.765.413,1.151.882,1.541a12.544,12.544,0,0,0,7.01,3.13,75.437,75.437,0,0,0,8.518.686,12.01,12.01,0,0,1,3.436.449c2.585.67,3.569,2.175,3.033,4.877-.28,1.441-.8,2.829-1.162,4.254-.586,2.3-.525,2.423,1.376,3.89,2.569,1.979,2.671,4.133.26,6.366a11.732,11.732,0,0,1-4.705,2.534,4.9,4.9,0,0,0-3.568,4.37,20.583,20.583,0,0,0,2.911,14.547c.413.644.846,1.262,1.708.977,2.274-.75,3.92.433,5.593,1.773,3.813,3.061,6.265,2.407,8.381-2.159.27-.581.51-1.177.755-1.768.632-1.525,1.162-3.1,1.912-4.566,2.462-4.793,6.352-7.3,11.608-7.416,1.693-.037,3.385.069,5.078.158,3.517.185,6.041-1.879,8.529-4.017a2.055,2.055,0,0,0,.642-1.742c-.061-1.583.872-2.09,2.207-2.111a32.584,32.584,0,0,1,5.062.338c5.327.739,10.481.449,15.121-2.887a4.014,4.014,0,0,0,2.029-3.009q.329-3.294.816-6.577c.352-2.4,1.009-3.267,3.212-3.251,2.855.021,4.394-1.583,5.659-3.874a48.778,48.778,0,0,0,2.768-6.587,7.232,7.232,0,0,1,4.486-4.428,9.768,9.768,0,0,1,4.45-.771c3.523.375,6.276-1.4,9.64-3.452Z" transform="translate(-337.558 -96.188)" fill="#666"/>
    <path id="Path_12" data-name="Path 12" d="M1677.4,660.207a9.431,9.431,0,0,1-5.016-1.784c-3.319-2.09-5.877-5.051-8.442-8.007-.673-.776-1.081-2.275-2.325-1.895-1.091.333-1.086,1.789-1.407,2.819-.275.876-.444,1.794-.754,2.655-.908,2.518-2.605,3.357-5.083,2.555a8,8,0,0,1-3.732-2.581,5.118,5.118,0,0,0-5.506-1.911,4.663,4.663,0,0,1-1.321.158c-2.523-.132-3.68-1.731-3.135-4.3a10.409,10.409,0,0,1,1.468-3.241,2.11,2.11,0,0,0-.663-3.1,13.627,13.627,0,0,0-5.1-2.344c-2.595-.654-5.225-1.145-7.83-1.763-2.523-.6-3.461-1.573-3.354-4.175a6,6,0,0,0-2.829-5.558,5.292,5.292,0,0,1-2.294-2.94,3.553,3.553,0,0,1,2.794-4.708c.612-.106,1.244-.09,1.866-.169,4.246-.538,5.694.285,7.519,4.318.076.169.117.348.209.512.642,1.167.556,2.882,2.009,3.426a9.51,9.51,0,0,0,5.526.5,28.59,28.59,0,0,0,3.308-1.087,11.392,11.392,0,0,1,10.7,1.341c3.166,2.048,6.535,3.774,9.854,5.553,5.552,2.972,8.549,7.912,10.048,13.956a4.024,4.024,0,0,0,2.161,2.908c1.591.829,3.187,1.663,4.716,2.6,1.173.713,2.3,1.652,2.075,3.257-.25,1.731-1.677,2.259-3.1,2.623-.77.2-1.57.275-2.361.406Zm-.01-2.491c.535-.032,1.071-.032,1.6-.111.515-.079,1.142-.137,1.193-.844.041-.507-.4-.8-.785-1.019-1.494-.818-2.982-1.668-4.517-2.407-1.942-.934-2.824-2.439-3.324-4.629-1.111-4.9-3.477-9.084-7.882-11.644-3.416-1.985-7.05-3.616-10.313-5.838A10.033,10.033,0,0,0,1643,630.153c-2.743,1.177-5.6.977-8.427.507a4.219,4.219,0,0,1-3.589-3.267,17.6,17.6,0,0,0-1.392-3.283,3.493,3.493,0,0,0-3.971-2.1c-1.2.211-2.738-.011-3.192,1.462-.438,1.414.928,2.032,1.82,2.745a7.73,7.73,0,0,1,3.3,6.577c-.051,1.832.388,2.243,2.09,2.613,2.09.454,4.216.76,6.286,1.3a18.779,18.779,0,0,1,6.877,2.935c2.325,1.763,2.666,3.579,1.305,6.218-.209.406-.464.792-.642,1.209-.908,2.132-.337,3.051,1.876,2.671a7.144,7.144,0,0,1,6.958,2.544,8.619,8.619,0,0,0,1.825,1.6c1.575.966,2.7.528,3.329-1.251.331-.95.51-1.958.821-2.919.535-1.673,1.045-3.5,2.962-3.948,1.891-.443,2.855,1.135,3.879,2.407a43.805,43.805,0,0,0,7.4,7.558,7.64,7.64,0,0,0,4.883,1.99Z" transform="translate(-835.854 -343.408)" fill="#666"/>
    <path id="Path_13" data-name="Path 13" d="M1471.143,636.686a49.586,49.586,0,0,1-11.053-2.481c-3.41-1.045-6.8-2.19-10.19-3.3a21.809,21.809,0,0,1-10.507-7.7,192.589,192.589,0,0,1-16.5-24.766,24.815,24.815,0,0,0-7.02-8.551,6.592,6.592,0,0,1-2.661-4.608,2.673,2.673,0,0,1,2.1-3.3,6.2,6.2,0,0,1,2.641-.148,14.233,14.233,0,0,1,11.19,7.622,29.916,29.916,0,0,0,9.962,11.2,23.057,23.057,0,0,1,2.4,2.185c4.634,4.133,6.6,9.432,6.541,15.682-.031,3.109.291,3.473,3.156,4.1a41.754,41.754,0,0,0,7.932.987c5.322.127,10.068,2.085,14.509,4.956a7.982,7.982,0,0,1,1.942,1.868c1.922,2.533.887,5.4-2.177,6.065a16.039,16.039,0,0,1-2.269.19Zm-.454-2.454c.179,0,.357.01.535,0,.953-.063,2.136.237,2.605-.9.525-1.283-.494-2.022-1.336-2.708a10.523,10.523,0,0,0-1.555-1.066,27.741,27.741,0,0,0-10.583-3.579c-3.095-.343-6.225-.243-9.289-.961-5.129-1.2-5.542-3.214-5.378-6.772a13.654,13.654,0,0,0-.015-1.657c-.316-4.059-1.453-7.722-4.435-10.641a46.842,46.842,0,0,0-7.112-6.244,13.186,13.186,0,0,1-5.047-5.9,26.913,26.913,0,0,0-2.539-4.217,12.435,12.435,0,0,0-6.846-5c-1.326-.391-3.1-1.24-3.87.253-.729,1.42.678,2.681,1.856,3.573a24.035,24.035,0,0,1,6.311,7.405,203.331,203.331,0,0,0,16.869,25.521c2.672,3.378,5.715,6.049,9.763,7.374,4.328,1.415,8.656,2.834,13.015,4.143a23.88,23.88,0,0,0,7.061,1.388Z" transform="translate(-734.505 -325.461)" fill="#666"/>
    <path id="Path_14" data-name="Path 14" d="M1735.832,897.783c-2.625,0-4.675-2.956-4.246-6.155a6.745,6.745,0,0,1,3.441-5c2.3-1.4,4.665-2.692,7-4.038,8.646-4.967,17.119-10.224,25.266-16.03,1.392-.992,2.717-2.085,4.038-3.178a6.832,6.832,0,0,0,2.529-6.851,8.563,8.563,0,0,1,.051-4.365c.372-1.087.9-2.037,2.1-2.275a2.78,2.78,0,0,1,2.926,1.5,12.045,12.045,0,0,1,1.591,4.376,4.18,4.18,0,0,0,3.16,3.626c1.795.512,3.7,1.3,3.875,3.653.163,2.18-1.453,3.294-3.023,4.175a37.17,37.17,0,0,0-8.356,6.366,9.929,9.929,0,0,1-5.113,2.84,11.262,11.262,0,0,0-5.409,2.861,45.429,45.429,0,0,1-8.37,5.9,150.435,150.435,0,0,0-14.045,9.063,45.127,45.127,0,0,1-4.1,2.581,6.308,6.308,0,0,1-3.308.96Zm-1.947-5.4c0,2.655,1.438,3.658,3.8,2.623a22.7,22.7,0,0,0,4.338-2.7,137.589,137.589,0,0,1,13.56-8.794,51.733,51.733,0,0,0,9.054-6.318,11.023,11.023,0,0,1,5.384-2.908,9.606,9.606,0,0,0,5.067-2.856,33.345,33.345,0,0,1,7.5-5.711c1.055-.565,2.595-1.087,2.35-2.634-.209-1.33-1.677-1.557-2.784-1.768a4.1,4.1,0,0,1-3.3-3.2c-.326-1.05-.6-2.122-.948-3.167a10.275,10.275,0,0,0-.76-1.753.747.747,0,0,0-.653-.311.877.877,0,0,0-.489.57,6.245,6.245,0,0,0,.133,2.729,8.882,8.882,0,0,1-2.819,8.461,49.091,49.091,0,0,1-5.72,4.524,328.744,328.744,0,0,1-29.512,18.321,12.161,12.161,0,0,0-2.885,1.969,4.262,4.262,0,0,0-1.32,2.924Z" transform="translate(-890.572 -452.041)" fill="#666"/>
    <path id="Path_15" data-name="Path 15" d="M1579.615,364.749a15.311,15.311,0,0,1,2.972-7.733,5.616,5.616,0,0,1,3.411-2.011c.871-.174,1.743-.364,2.625-.47,2.8-.333,5.057-1.267,6.24-4.307.867-2.217,2.743-3.832,4.1-5.774,1.84-2.629,1.825-2.966-.418-5.352a5.518,5.518,0,0,0-.571-.581c-3.737-2.861-4.966-7.036-5.613-11.5-.474-3.278.78-4.888,3.971-5.115a17.981,17.981,0,0,0,3.971-.422,4.445,4.445,0,0,1,2.85.486,19.132,19.132,0,0,1,5.536,3.278c1.718,1.43,1.886,2.164.964,4.3a20.56,20.56,0,0,1-1.244,2.444,11.4,11.4,0,0,0-.056,12.715,20.48,20.48,0,0,1,2.793,6.82,5.4,5.4,0,0,1-2.58,6.075,9.993,9.993,0,0,1-3.7,1.52,2.774,2.774,0,0,0-2.3,2,12.937,12.937,0,0,1-.887,2.006c-1.04,1.916-2.523,3.172-4.762,2.8-2.564-.417-4.012.834-5.011,3.088a26.248,26.248,0,0,1-1.723,3.114,2.767,2.767,0,0,1-2.707,1.409c-2.625-.164-8.437-6.144-7.851-8.8Zm19.836-40.8a13.017,13.017,0,0,0-3.487.3,1.794,1.794,0,0,0-1.381,2.275c.759,3.806,1.448,7.632,4.711,10.219a14.033,14.033,0,0,1,1.876,1.963c1.876,2.217,1.988,3.452.413,5.928-.882,1.383-1.871,2.692-2.865,3.99a18.741,18.741,0,0,0-2.518,3.9,6.716,6.716,0,0,1-5.169,3.917,15.655,15.655,0,0,1-2.891.5c-3.085.09-4.588,2.022-5.5,4.766-.5,1.51-.953,3.03-.188,4.545a11.649,11.649,0,0,0,3.981,4.381,1.372,1.372,0,0,0,2.248-.475c.637-1.108,1.208-2.259,1.845-3.362,1.285-2.233,3.09-3.605,5.71-3.262,2.192.285,3.37-.839,3.986-2.8a5.25,5.25,0,0,1,4.726-4.1c3.553-.522,4.659-2.866,3.507-6.434a22.092,22.092,0,0,0-1.361-2.993c-.53-1.066-1.106-2.1-1.662-3.156-2.161-4.122-1.606-8.166.372-12.145.49-.982,1.065-1.916,1.57-2.893a1.528,1.528,0,0,0-.418-2.18c-2.289-1.589-4.5-3.41-7.494-2.887Z" transform="translate(-816.085 -202.519)" fill="#666"/>
    <path id="Path_16" data-name="Path 16" d="M1130.562,711.521c.061,2.365-.352,4.022-1.764,5.257a7.7,7.7,0,0,0-2.36,4.83,37.57,37.57,0,0,1-3.665,11.5,24.68,24.68,0,0,0-2.233,8.493,12.378,12.378,0,0,1-3.329,7.094c-3.37,3.6-6.877,3.42-10.344.1A14.491,14.491,0,0,1,1103,741.64a6.922,6.922,0,0,1,1.091-6.018,20.874,20.874,0,0,1,2.218-2.76c1.876-1.826,2.08-3.954,1.315-6.334a25.378,25.378,0,0,1-1.376-5.331,10.714,10.714,0,0,1,.077-3.024,4.555,4.555,0,0,1,3.879-4.006,11.022,11.022,0,0,1,2.391-.19,3.464,3.464,0,0,0,3.405-2.2c.739-1.473,1.427-2.972,2.192-4.429a18.784,18.784,0,0,1,4.242-5.648c2.371-2.037,4.18-1.7,5.6,1.1a24.347,24.347,0,0,1,2.529,8.709Zm-20.188,17.461c.214,2.354-1.121,4.054-2.595,5.722-3.436,3.89-3.584,5.827-.836,10.271.286.465.576.934.9,1.372,2.416,3.325,5.7,3.331,8.238.079a13.2,13.2,0,0,0,2.448-6.9,22.884,22.884,0,0,1,2.273-7.617,35.12,35.12,0,0,0,3.319-10.446,9.989,9.989,0,0,1,2.972-6.329,3.861,3.861,0,0,0,1.132-3.515,22.782,22.782,0,0,0-2.059-7.4c-.7-1.531-1.193-1.62-2.4-.528a18.028,18.028,0,0,0-3.823,5.278c-.663,1.3-1.32,2.613-1.948,3.932a5.564,5.564,0,0,1-5.072,3.447c-.536.026-1.07.037-1.6.1-2.014.238-2.584.866-2.717,3a13.383,13.383,0,0,0,.887,5.405,10.931,10.931,0,0,1,.877,4.117Z" transform="translate(-582.338 -381.479)" fill="#666"/>
    <path id="Path_17" data-name="Path 17" d="M837.019,236.731c-1.662,2.972.5,5.173,2.187,7.564,1.835,2.6,3.829,5.1,4.864,8.224.6,1.826.551,2.454-1.086,3.42a37.73,37.73,0,0,1-13.535,4.935c-2.258.343-3.375-1.23-2.518-3.4a19.879,19.879,0,0,1,2.437-3.953,10.871,10.871,0,0,0,1.744-3.4,2.59,2.59,0,0,0-1.259-3.288c-1.275-.781-2.233-.4-2.636,1.061a3.25,3.25,0,0,0-.076.549c-.653,5.79-4.655,8.081-9.553,8.725-4.247.56-6.4-2.391-4.976-6.556a17.325,17.325,0,0,1,1.932-3.938c1.555-2.359,3.594-3.806,6.49-3.61a14.757,14.757,0,0,0,1.871,0c1.7-.095,1.794-.19,1.657-1.969a12.715,12.715,0,0,1,2.111-8.107c1.219-1.869,2.855-2.734,5.062-2,.846.28,1.723.491,2.544.845,2.08.9,2.87,2.249,2.743,4.914Zm-7.861,21.794a34.211,34.211,0,0,0,10.155-3.236c2.758-1.288,2.926-1.721,1.488-4.523a19.941,19.941,0,0,0-1.468-2.3c-1.346-1.937-2.7-3.88-4.089-5.785a4.477,4.477,0,0,1-.943-4.1,9.619,9.619,0,0,0,.245-2.46c.026-1.958-1.478-2.227-2.829-2.729s-2.457-.364-3.207.992c-1.305,2.37-2.141,4.772-1.274,7.606.408,1.325.658,1.964,2.248,2.338,3.2.75,5.2,2.982,3.808,6.688a15.919,15.919,0,0,1-2.049,3.837,11.043,11.043,0,0,0-2.1,3.658Zm-11.96-3.748a9.845,9.845,0,0,0,4.557-1.362,6.612,6.612,0,0,0,3.028-6.292c-.1-.871-.341-1.584-1.269-1.879a6.291,6.291,0,0,0-6.7,2.227,14.759,14.759,0,0,0-2.034,3.858c-.836,2.391-.061,3.463,2.427,3.452Z" transform="translate(-439.898 -159.709)" fill="#666"/>
    <path id="Path_18" data-name="Path 18" d="M1494.813,597.125c-.112-3.251,1.106-5.7,4-7.173,1.356-.692,2.636-1.536,3.976-2.259a32.3,32.3,0,0,0,9.11-7.11,54.53,54.53,0,0,1,4.037-4.012,5.651,5.651,0,0,1,3.885-1.562c3.645-.032,4.629.575,6.107,4.086.286.676.5,1.378.8,2.048a2.54,2.54,0,0,1-.709,3.415,6.406,6.406,0,0,0-.953.961c-1.621,1.9-2.386,3.141.1,5.252,1.9,1.61,1.968,3.188.719,5.384a33.936,33.936,0,0,1-3.9,4.893,9.685,9.685,0,0,0-2.33,5.732,18.661,18.661,0,0,1-.632,3.8c-1.025,3.542-3.808,5.415-7.366,4.83a56.465,56.465,0,0,0-7.927-.961,4.689,4.689,0,0,1-4.6-3.51c-.765-2.154-1.739-4.233-2.605-6.35a20.813,20.813,0,0,1-1.713-7.479Zm2.325.206a18.8,18.8,0,0,0,.255,2.47c.928,3.874,2.768,7.379,4.267,11.021a1.769,1.769,0,0,0,1.656,1.219c3.059-.09,5.99.749,8.983,1.135,2.3.3,3.921-1.035,4.542-3.368a18.935,18.935,0,0,0,.5-3.267,11.461,11.461,0,0,1,3.237-7.384,27.989,27.989,0,0,0,2.263-2.724c1.8-2.386,1.779-2.7-.168-4.851-2.019-2.227-2.116-3.906-.311-6.36.484-.66,1.06-1.24,1.6-1.858.3-.348.693-.739.546-1.2-.52-1.636-.719-3.626-2.386-4.434a3.938,3.938,0,0,0-4.93.786c-.928.992-1.994,1.858-2.865,2.9a38.1,38.1,0,0,1-11.491,8.883c-.948.512-1.866,1.082-2.814,1.589a5.127,5.127,0,0,0-2.891,5.431Z" transform="translate(-774.529 -322.273)" fill="#666"/>
    <path id="Path_19" data-name="Path 19" d="M1549.414,627.757a5.4,5.4,0,0,1,1.285-3.568c3.1-3.378,4.231-7.823,6.184-11.818a11.664,11.664,0,0,1,1.687-2.808c1.356-1.488,2.835-1.768,4.185-.311a3.246,3.246,0,0,0,4.3.755,9.146,9.146,0,0,1,3.349-.892c2.024-.1,2.85.834,2.406,2.871a13.7,13.7,0,0,1-3.661,6.64c-1.132,1.177-2.218,2.4-3.365,3.552a5.251,5.251,0,0,0-1.244,6.054c.52,1.367.882,2.8,1.29,4.217a2.725,2.725,0,0,1-.342,2.861c-.9.945-1.973.591-3.008.259a2.534,2.534,0,0,1-.989-.4c-1.891-1.832-3.523-1.04-5.118.465a3.7,3.7,0,0,1-.663.464c-2.335,1.43-3.655.739-3.986-2.111a18.708,18.708,0,0,1-.071-1.937c-.021-.961-.138-1.837-1.163-2.27a1.915,1.915,0,0,1-1.081-2.037Zm13.744,5.405c.5-.612.123-1.225-.036-1.81-.367-1.325-.821-2.628-1.177-3.959a5.64,5.64,0,0,1,1.259-5.632c1.407-1.531,2.539-3.32,4.19-4.624a7.844,7.844,0,0,0,1.937-2.618c.408-.771,1.28-1.642.6-2.486-.714-.876-1.692-.058-2.442.274-2.136.95-4.094,1.288-5.75-.9-.612-.807-1.239-.554-1.739.164a11.08,11.08,0,0,0-.8,1.436c-2.111,4.217-3.288,8.963-6.638,12.478a1.879,1.879,0,0,0-.26.48c-.352.7-.545,1.388.245,1.937,1.381.955,1.417,2.428,1.468,3.932.021.681-.275,1.478.393,2.037a10.319,10.319,0,0,1,8.758-.7Z" transform="translate(-801.295 -337.988)" fill="#666"/>
    <path id="Path_20" data-name="Path 20" d="M376.833,458.633a16.2,16.2,0,0,1,7.968,1.626,51.466,51.466,0,0,1,11.776,7.537,14.377,14.377,0,0,1,2.365,2.613,3.3,3.3,0,0,1,.347,3.869,3.465,3.465,0,0,1-3.676,1.715,12.1,12.1,0,0,1-4.705-1.869,40.952,40.952,0,0,1-6.852-5.268c-3.63-3.515-7.627-4.048-12.031-1.752-.4.206-.79.422-1.2.618a1.192,1.192,0,0,1-1.774-.633c-1.468-2.988-1.091-6.313,2.437-7.764a12.271,12.271,0,0,1,5.338-.681Zm.046,2.032a9.852,9.852,0,0,0-4.68.924c-1.269.6-1.942,1.847-1.432,2.571.673.955,1.483.211,2.172-.005a11.818,11.818,0,0,1,12.414,2.724c.6.554,1.188,1.114,1.815,1.626a27.744,27.744,0,0,0,7.168,4.74c.928.37,2.039.765,2.722-.158.785-1.061-.285-1.837-.887-2.576a9.344,9.344,0,0,0-1.4-1.277,58.5,58.5,0,0,0-9.457-6.2,21.611,21.611,0,0,0-8.437-2.37Z" transform="translate(-222.283 -267.305)" fill="#666"/>
    <path id="Path_21" data-name="Path 21" d="M1546.57,504.813c.352-2.739.479-5.331,1.55-7.727,1.647-3.679,3.971-4.618,7.6-3.03a9.016,9.016,0,0,1,2.86,2c2.432,2.486,2.564,4.782.438,7.553-.112.143-.229.28-.342.422-2,2.539-1.912,3.146.724,4.867a12.878,12.878,0,0,0,2.937,1.3,12.3,12.3,0,0,1,2.228.9c2,1.177,2.982,3.658,2.2,5.368a4.969,4.969,0,0,1-6.005,2.227,2.927,2.927,0,0,1-.933-.528,12.443,12.443,0,0,0-7.336-3.526c-2.151-.327-3.6-1.89-4.593-3.874a15.86,15.86,0,0,1-1.32-5.964Zm6.974-9a2.729,2.729,0,0,0-3.145,1.9,16.733,16.733,0,0,0-.831,11.069,4.755,4.755,0,0,0,4.129,3.816,10.591,10.591,0,0,1,6.887,3.241,2.411,2.411,0,0,0,2.212.728,1.811,1.811,0,0,0,1.647-1.2,1.782,1.782,0,0,0-.709-1.937,5.79,5.79,0,0,0-2.422-1.087,12.137,12.137,0,0,1-5.444-3.373c-1.53-1.626-1.6-2.85-.326-4.666.627-.9,1.356-1.71,2-2.592a2.49,2.49,0,0,0,.143-3.077A6.2,6.2,0,0,0,1553.544,495.808Z" transform="translate(-799.904 -283.699)" fill="#666"/>
    <path id="Path_22" data-name="Path 22" d="M770.882,195.542c-4.2-.037-8.294-3.869-8.753-8.181-.326-3.067,1.835-5.643,4.619-4.745,5.842,1.884,11.44.148,17.124-.48a8.828,8.828,0,0,1,3.181.016,3.061,3.061,0,0,1,2.61,3.573c-.1,1.557-.291,3.109-.51,4.655a3.144,3.144,0,0,1-2.738,2.951,16.079,16.079,0,0,1-2.646.311,35.256,35.256,0,0,0-10,1.5,9.483,9.483,0,0,1-2.9.4Zm.178-2.386a14.8,14.8,0,0,0,3.146-.528,35.995,35.995,0,0,1,8.141-1.32c4.287-.048,4.282-.074,4.817-4.4.275-2.217.01-2.6-2.248-2.449-2.034.132-4.048.549-6.077.765-2.646.28-5.3.491-7.953.734-1.387.127-2.564-.686-3.87-.924-2-.364-2.86.6-2.447,2.66a6.672,6.672,0,0,0,6.484,5.463Z" transform="translate(-415.35 -136.703)" fill="#666"/>
    <path id="Path_23" data-name="Path 23" d="M438.426,493.6a44.186,44.186,0,0,1-6.128-.412c-1.356-.238-1.866-.9-1.631-2.254a31.463,31.463,0,0,1,.576-3.257c1.086-3.8,3.115-5.262,6.933-4.962a18.105,18.105,0,0,1,7.637,2.3c1.993,1.135,2.738,2.6,2.371,4.5a4.663,4.663,0,0,1-3.635,3.969,22.02,22.02,0,0,1-6.123.116Zm3.339-2.011a6.466,6.466,0,0,0,2.284-.433,2.422,2.422,0,0,0,1.738-2.2c.077-1.1-.622-1.641-1.448-2.1-1.754-.966-3.711-1.24-5.572-1.837-2.641-.845-4.919.834-5.5,4.043-.224,1.24.229,1.927,1.514,2.006C436.917,491.2,439.038,491.383,441.765,491.589Z" transform="translate(-252.855 -278.677)" fill="#666"/>
    <path id="Path_24" data-name="Path 24" d="M1322.682,564.161c.168-.179.337-.359.51-.533.861-.28,1.759-.644,1.983.776.214,1.341-.653,2.94-1.652,3.009-.744.053-1.106-.438-1.218-1.14a5.488,5.488,0,0,1,.377-2.117Z" transform="translate(-689.956 -316.777)" fill="#666"/>
  </g>
</svg>
