<svg xmlns="http://www.w3.org/2000/svg" width="381.2" height="186.482" viewBox="0 0 381.2 186.482">
  <g id="Group_85" data-name="Group 85" transform="translate(-0.065 -3.421)" opacity="0.6">
    <g id="Group_86" data-name="Group 86" transform="translate(0.079 3.996)">
      <path id="Path_13982" data-name="Path 13982" d="M.079,164.951c10.744.213,21.518-.288,32.266,0,6.208.166,12.384-.2,18.514-.2,3.035,0,8.567,1.21,11.129-.966,2.085-1.771,1.583-5.978,1.627-8.432.059-3.312.117-6.585.252-9.86.22-5.338-.521-10.511-.772-15.75-.261-5.447.028-10.794-1.068-16.132-1.365-6.649-2.436-13.357-3.279-20.092A41.164,41.164,0,0,1,64.539,66.18c4.129-6.95,13.59-8.853,17.135-16.766,1.886-4.209.723-9.176.687-13.607a32.544,32.544,0,0,1,2.213-11.233,15.788,15.788,0,0,1,6.123-7.68,5.644,5.644,0,0,1,3.715-.772,7.352,7.352,0,0,0,3.809-.494,9.776,9.776,0,0,1,3.422-1.571c2-.335,3.629.24,5.513.738a12.048,12.048,0,0,1,4.54,1.814,28.167,28.167,0,0,1,3.732,3.2,11.362,11.362,0,0,1,2.42,3.842c.455,1.24,1.107,2.332,1.559,3.578a15.676,15.676,0,0,1,.912,6.28c-.262,3.641-1.284,6.679.058,10.172,1.993,5.186-1,3.471-3.467,6.75-1.754,2.328-2.025,8.069-4.646,9.311-2.9,1.372-8.882-1.992-10.83-4.092-2.5-2.7-.244-6.9-2.922-9.646-2.084-2.137-4.733-4.308-3.9-7.727,1.494-6.112,6.937.567,6.312,4.278-1.646.087-4.241-2.368-4.236-3.984,2.33-.985,3.821,1.13,4.881,2.863.52.85,1.453,4.319,2.785,4.031.911-.2,1.373-2.213,1.66-2.92a14.337,14.337,0,0,0,1.3-4.228c.146-2.184,1.006-3.972,1.689-6.017.22-.66.207-1.4.989-1.213,1.079.26,1.445,2.18,2.281,2.748.8.544.289.048.958-.283.443-.22.742.035,1.159-.3.627-.5.534-2.23,1.672-1.87.716.227,1.083,1.6,1.739,2.054.288-.358.37-1.216.822-1.354.543-.166.85.5,1.3.759-.336-.2.788-1.12,1.022-1.141.194-.018.181.525.5.43.351-.1.347-.846.371-1.117a10.77,10.77,0,0,0-1.029-4.46,18.081,18.081,0,0,0-1.639-3.723,14.119,14.119,0,0,0-6.905-5.355,8.864,8.864,0,0,0-3.553-.794c-.118,1.031.531,2.088.484,3.195-.025.605-2.576-.828-2.8-1.018-.608-.509-1.851-1.341-2.713-1-.522.21-.345.273-.291.858.067.725.587,1.643.34,2.381-.165.494-.394.407-.659.749-.8,1.036-.708,2.613-.973,3.878-2.383-1.182-2.657-5.078-4.564-6.835-1.434-1.321-2.46.981-3.038,2.153-1.292,2.618-2.07,6.007-4.16,8.164-1.451,1.5-2.014-2.131-2.147-3.213-1.614.214-2.754,3.5-3.3,4.766a33.506,33.506,0,0,0-1.439,5.814,46.107,46.107,0,0,0-.529,6.63c-.133,1.877-.445,3.753-.534,5.631-.047.995.046,1.687.942,2.218,1.344.8,3.814,1.477,5.236.618,2.116-1.278,3.124-4.118,3.711-6.365.313-1.2.953-2.266,1.344-3.433a10.67,10.67,0,0,0,.23-2.774c.181-1.944,2.468-4.12,3.983-5.156,2.867-1.961,4.428.034,7.034,1.207,2.771,1.247,4.872.184,7.726.121,4.883-.107,4.7,4.5,4.125,8.1a29.934,29.934,0,0,1-1.134,5.869c-1.14,2.907-2.706,2.417-5.4,2.979-2.971.62-4.348.669-5.335,3.535a28.183,28.183,0,0,1-4.692,7.68c-1.748,2.171-2.322,1.9-4.925,1.173-2.544-.713-5.106-.18-7.721-.413-3.036-.27-11.606-3.743-11.724-7.6-2.194.623-.479,3.4.372,4.417,1.615,1.936,3.932,2.413,6.244,3.256C87.122,66,91.61,65.626,96.5,66.72c7.093,1.587,14.392,10.359,18.325,16.06a56.8,56.8,0,0,1,4.734,7.9c1.315,2.819,1.964,6.183,2.98,9.165.957,2.81,3.136,4.958,4.921,7.321,1.483,1.963,2.636,4.135,4.1,6.092,1.41,1.886,1.884,4.048,3.805,5.655,3.911,3.272,8.617,6.005,12.853,8.78a127.342,127.342,0,0,0,15.362,8.846c7.484,3.529,14.13,6.881,22.371,8.175,1.307.205,5.283.108,6.139,1.406,1.969,2.985-15.149,2.234-16.492,2.193a11.693,11.693,0,0,1-3.338-.474c-1.711-.546-2.773-1.984-4.207-2.955a11.592,11.592,0,0,0-4.291-1.489c-4.356-1-8.767-1.02-13.151-1.8a76.385,76.385,0,0,1-16.548-5.018C128,134,120.545,129.207,118.778,122.39a25.9,25.9,0,0,0,5.162-2.088c2.311-1.41,6.3-6.584,9.184-6.074-.981,2.68-2.787,4.108-4.868,5.931a28.442,28.442,0,0,1-7.109,5.088c-4.754,2.053-7.839-2.489-9.967-6.039C104.912,108.75,94.9,95.524,99.542,82.7c.707-1.953,2.421-6.531,5.24-5.159,2.015.981,2.568,4.7,2.848,6.616a107.574,107.574,0,0,1,1.024,14.015c.05,3.524-.837,6.749-.4,10.245,1.143,9.088,1.969,18.21,2.794,27.331.4,4.417,1.641,10.74-.245,14.955-3.086,6.9-14.743,7.387-20.97,7.407-8.627.028-18.654-1.036-26.382-5.263,3.451-3.072,11.857.1,15.775.54,7.137.794,14.277.112,21.416.643,2.412.18,5.68-.424,7.977.076,2.53.551,2.222,3.133,2.065,5.2-.174,2.3-1.123,7.446.5,9.356s5.783,1.193,7.951,1.29c4.413.2,12.275,2.133,13.99-3.461,2.243-7.319,1.708-15.571,1.231-23.078-.1-1.594-.313-4.633-1.888-5.548-1.638-.951-4.243.713-5.849,1.114-1.185.3-14.572-.062-14.379-1.129-.657,3.645,8.7,3.4,10.834,3.123,4.512-.586,8.824-.554,9.69-5.656a41.514,41.514,0,0,0,.255-10.01c-.489-6.79-1.555-13.423-1.554-20.256,0-3.172.149-6.2-.813-9.277-1-3.178-1.964-6.041-2.7-9.276-.691-3.023-1.465-6.36-3.506-8.8-1.081-1.291-2.829-1.663-4.31-2.358-1.086-.509-12.141-7.609-10.575-8.96-3.265,2.817,12.833,12.833,15.979,12.531-1.078.1-.913-9.228-1.258-9.945-.394-.819-1.243-1.431-1.716-2.221-.842-1.406-2.124-4.894-4.283-4.92-3.584-.027,3.647,6,4.133,6.37,3.542,2.665,6.606,2.88,9.193-.958,1.171-1.737,2.77-3.113,3.988-4.806a12.068,12.068,0,0,0,1.374-2.729c.424-1.07.3-2.175.65-3.26.179-.557.755-.652.915-1.265a17.951,17.951,0,0,0,.114-2.028c.057-.407.59-1.58.052-1.888-.292-.167-.651.259-.988.047-.232-.146-.594-1.894-.369-2.011-.3.154-1.111.915-1.48.888-.811-.06-1.873-1.027-2.594-1.4-.741-.383-1.144.431-1.786-.026-.8-.567-.821-1.614-2.057-1.209-.615.2-1.584,1.315-2.236,1.168-.726-.164-.5-1.706-1.2-1.731-.379-.013-1.208,1.444-1.443,1.721a23.274,23.274,0,0,0-3.212,4.9,10.459,10.459,0,0,1-2.716,3.538c-2.71,2.188-4.724-6.171-1.526-6.9,1.871-.424,2.6,2.254,2.792,3.691,1.47.353,3.25-.488,4.6-.965a8.5,8.5,0,0,1,5.148-.546c4.29.777,2.487,5.087,1.392,7.737-.147.355-.736.974-.675,1.362.118.747,1.793,1.5,2.441,1.724a1.454,1.454,0,0,0,2.154-1.372c.171-1.657.553-3.27.8-4.917.159-1.077-.048-1.884,1-2.492.8-.461,1.85-.552,2.528-1.213,1.476-1.44,1.593-3.706,1.547-5.679a17.966,17.966,0,0,0-1.356-6.239c-1.63-4.042-5.706-7.766-10.235-7.788-3.078-.015-6.946.059-9.536,1.864-8.044,5.6-6.182,15.346-7.365,23.737a14.352,14.352,0,0,1-4.265,8.2c-2,2.03-3.692,4.154-.524,6.07,1.823,1.1,3.629,1.779,5.257,3.234,1.607,1.437,3.021,3.07,4.644,4.5,2.432,2.137,4.908,4.232,7.327,6.382,1.694,1.507,4.934,4.7,5.622,6.874.623,1.971-.671,2.17-2.144,3.017a12.615,12.615,0,0,0-4.181,3.965c2.366-.5,4.635-2.961,7.086-2.963,1.53,0,2.27,1.272,3.348,2.236,6.075,5.433,11.681,11.035,18.073,16.134q5.165,4.12,10.363,8.2a34.556,34.556,0,0,0,11.965,5.6c4.144,1.209,7.963,2.927,12.039,4.322,1.493.511,5.417,2.062,3.409,4.2-1.535,1.639-5.608-.085-7.491-.148-2.607-.087-5.229.045-7.829-.225-2.4-.249-6.111-.793-7.494-3.077-1.032-1.7-.037-3.86,1.14-5.238.824-.964,1.562-1.44,2.676-.515-.706,1.052-1.653,1.7-2.23,2.957-.586,1.272-.409,2.659-.891,3.88-.391-.47-.591-1.16-1.26-1.346-.028-1.016,1.006-2.21,1.535-3.045a13.882,13.882,0,0,1,2.617-3.353,15.013,15.013,0,0,1,6.35-3.522c1.841-.373,4.492-.623,5.653-2.313,1.119-1.628.411-4.561.406-6.4-.014-5.32.671-10.634.765-15.958A76.981,76.981,0,0,0,181.644,79.3c-1.361-4.934-3.27-9.044-8.42-10.868a23.058,23.058,0,0,0-6.548-1.176c-.033,3.2-.19,5.953-3.953,6.3A17.157,17.157,0,0,1,152.41,71.38c-.788-.5-3.95-3.608-4.563-1.5-.905,3.109,11.113,6.975,13.6,7.012,7.1.1,5.175-7.835,5.181-12.73,0-3.231.673-6.476-.053-9.624-.342-1.485.317-6.057-1.8-6.489-.827-.169-2.268.451-3.128.546-2.17.241-4.731-.647-6.788.327-1.831.867-1.251,2.748-2.152,4.236-1.215,2.007-2.407-1.394-4.151-1.537-2.316-.189-.532,3.016.24,3.942.931,1.118,3.417,3.016,3.317.472-.058-1.48-.966-2.322-1.446-3.606a6.565,6.565,0,0,1-.034-3.622c.253-1.085.727-3.089,1.674-3.763.287.929.186,1.336,1.071,1.611.2.062.59-.33.893-.259.325.076.689.556.956.79.433-.549.725-1.308,1.13-1.916.525.279.834.971,1.271,1.4.9-.559,1.528-1.882,2.629-2.141,1.388-.326,1.457,1.137,2.463,1.227,1.685.15,1.589-1.768,2.8-2.553a20.641,20.641,0,0,1,1.131,2.168,3.881,3.881,0,0,0,.863-.741c-.257.427,1.276,1.754,1.5,2.074a1.981,1.981,0,0,1,.415,2.225c-1.491-.774-2.849-1.192-4.384-.591-1.007.394-1.48.345-1.544,1.455-.122,2.155,1.438,4.161,1.489,6.352.042,1.818-.938,1.7-2.459,1.695a7.561,7.561,0,0,1-2.013.022c-1.19-.494-.013-.646.735-.68,2.876-.129,2.39,3.286-.032,3.746-1.722.327-5.1-.4-6.452.94-1.755,1.748,2.657,3.356,3.6,3.932a6.946,6.946,0,0,0,6.678.656c2.2-1.087,2.165-3.162,2.927-5.171.66-1.739,1.989-3.593,2.238-5.4.279-2.022-.157-4.152.163-6.208.532-3.418,1.179-5.881-.854-8.961-2.332-3.534-5.776-6.991-10.353-7.274-2.2-.136-4.046,1.31-6.141,1.752a7.946,7.946,0,0,0-5.1,2.719c-4.145,4.751-3.407,13.89.532,18.6,1.921,2.3,2.96,4.645,2.178,7.773-.858,3.432-4.5,5.4-7.068,7.456-1.588,1.27-5.6,4.075-2.45,5.939,3.259,1.925,5.12,3.792,5.619,7.846.151,1.229.031,8.284,1.651,8.625,1.776.374.4-6.926.218-7.737-.746-3.334-5.73-16.324-10.488-9.683-3.525,4.919-3.277,10.385-2.537,16.066,1.3,9.977,9.255,15.932,16.863,21.4,5.613,4.033,11.411,10.367,18.41,11.822,3.448.717,6.875.4,10.292,1.517,1.521.5,8.707,3.177,4.99,5.021-3.037,1.507-6.42-.076-9.129-1.555-3.107-1.7-4.93-1.179-8.458-1.178-4.775,0-9.431,1.536-14.2.971-3.409-.4-6.45-.982-9.908-.407-3.538.588-2.437,8.906-2.369,11.342.306,11.051,4.443,21.563,4.751,32.558.1,3.411.341,6.815,2.807,9.431,2.413,2.56,6.582,4,9.964,2.64,3.943-1.583,4.212-7.146,4.193-10.729-.025-4.666-.626-9.3-1.1-13.933-.345-3.355-.869-8.48.456-11.645,2.173.335,2.047,5.1,2.291,6.782a84.81,84.81,0,0,1,1.153,14.022c-.08,4.6-.128,9.951,2.785,13.79,1.976,2.6,4.442,3.061,7.331,1.754a13.453,13.453,0,0,0,3.673-2.134c1.13-1.156,1.052-2.579,1.219-4.3.251-2.586.5-5.132.817-7.66.384-3.03-.643-6.666-1.013-9.7a71.2,71.2,0,0,1,.234-15.656c.279-2.823-.388-5.847,1.531-8.159,1.1-1.323,2.71-2.177,3.723-3.575,2.3-3.172,1.649-8.315,2.758-12.025,1.976-6.611,6.648-12.044,8.347-18.908,1.168-4.72,2.732-9.336,3.765-14.091a54.29,54.29,0,0,0,.775-14.468c-4.294-.528-6.789,3.632-8.045,6.969-2.138,5.679-3.807,11.517-5.706,17.276-1.643,4.982-1.992,10.234-3.967,15.122-.792,1.96-1.1,4.188-1.969,6.138a15.188,15.188,0,0,1-3.424,4.556c-1.986,1.978-6.736,4.611-7.035,7.6-.334,3.332,3.778,1.487,5.374.725a9.62,9.62,0,0,0,3.684-2.837c1-1.282,1.5-2.737,3.363-3.14-.131,2.174-1.917,3.552-2.142,5.444-.339,2.847,2.313.172,3.14-.876,1.351-1.712,3.233-3.915,4-5.972.47-1.265.1-2.179,1.235-3.142,1.869-1.591,4.944-.63,6.841-2.117,2.365-1.854,1.4-7.315,1.639-9.965.607-6.6.307-13.248.942-19.849a124.572,124.572,0,0,0,.8-12.776c-.026-3.879,1.7-4.8,5.1-6.381s8.407-2.385,8.737-6.966c.139-1.932-.949-3.728-1.784-5.4-1.027-2.057-1.054-4.7-1.912-6.856a14.864,14.864,0,0,1-1.054-5.568c.027-3.755,1.444-7.767,5.118-9.332,3.486-1.485,7.627-2.559,11.03-.461,5.7,3.514,6.974,8.721,4.9,14.915-.12.358-.992,1.841-.986,1.875-.171-.971.014-5,1.74-4.592,1.293.309.833,2.586.691,3.481a6.5,6.5,0,0,1-1.687,3.012c-.868,1.178-1.025,2.281-1.726,3.547-1.53,2.762-6.537,7.819-9.965,6.283-.872-.391-3.095-2.347-3.232-3.283-.192-1.309,1.533-2.068,1.984-3.192.508-1.265-.149-3.028,1.454-3.685,1.123-.46,2.444.141,1.489,1.206-1.494,1.668-4.128-.094-4.246-1.888-.087-1.32.05-4.354,1.164-5.279,1.158-.96,3.577-.32,4.973-.46,1.47-.148,3.312-1,4.617.06,1.434,1.168.965,3.624,1,5.217a48.89,48.89,0,0,0,.685,5.449c.651,4.881,3.494,10.42-3.189,11.439a12.447,12.447,0,0,1-5.241.03c-1.8-.5-3.263-1.823-5.048-2.357-1.257-.376-2.939-.691-2.916,1.059.024,1.813,3.183,3.144,4.522,3.6,2.8.945,7.828,1.71,10.665.46,1.866-.822,2.611-2.884,4.349-3.753,1.856-.928,4.911.193,5.35,2.431.366,1.865-1.669,3.982-2.518,5.449-1.153,1.992-1.781,4.237-2.965,6.211-.855,1.426-1.5,3.5-2.727,4.672-5.215,4.993-10.59,9.568-15.613,14.86-4.586,4.832-9.54,9.375-13.692,14.591-1.614,2.029-3.413,3.9-5.993,4.636-3.643,1.041-7.1.893-10.688,2.558-1.923.893-7.891,3.973-6.993,6.906,1.317,4.294,14.619-2.445,17.492-1.99-1.177,2.779-3.282,3.288-5.165,5.28-1.851,1.959.595,2.078,2.514,1.815a14.594,14.594,0,0,0,8.162-4.833c1.714-2.2,2.6-4.883,4.553-7.031,3.931-4.32,9.025-7.336,13.712-10.737a105.08,105.08,0,0,0,9.218-7.062c1.935-1.761,3.7-3.774,5.934-5.179,3.461-2.175,2.745,1.866,4.391,3.861,1.511-.132,2.934-2.308,4.27-3.114,3.809-2.3,10.188-3.745,13.148-7.244a29.124,29.124,0,0,0,1.981-3.622c1.558-2.562,2.858-5.419,4.479-7.873,1.04-1.575,2.449-2.879,3.49-4.473,1.069-1.637,4.49-7.426-.188-5.7-5.053,1.863-8.753,5.036-10.279-2.216-2.468.627-5.467.372-7.568,1.958-3.269,2.468-6.816,9.552-7.418,13.544-.644,4.271-.305,10.073-3.446,13.422-.591-3.472-.154-7.455-2.136-10.571-.672-1.056-2.5-2.082-2.228-3.442.265-1.338,2.373-3.066,3.193-4.174,1.326-1.792,3.021-3.308,4.52-4.965,2.324-2.569,5.595-6.242,8.823-7.626,1.791-.768,3.755-.374,5.648-.485,2.4-.14,4.764-.825,7.173-.765,2.2.055,4.359.351,6.586.244-.453.022-2.444,2.383-3.355,2.678a7.455,7.455,0,0,1-4.235.023c-2.708-.7-4.485-2.32-6.452-4.185-2.2-2.086-2.514-3.241-3.444-6.061-.591-1.791-2.425-2.2-3.589-3.506-1.058-1.191-1.1-2.955-1.257-4.44-.382-3.7.364-8.166,3.637-10.441,3.7-2.57,4.6-.443,5.013,3.051a7.74,7.74,0,0,0,1.07,3.9c.727,1.062,2.619,2.043,2.323,3.486a1.344,1.344,0,0,0-1.72,1.143c-2.671-.153-1.407.268-2.292,2.491-1,0-1.8-1.581-2.281-.393-.876.083-1.512-.616-2.222-.909a8.393,8.393,0,0,1-1.161,2.623c2.219.29,3.029-.444,4.089,1.789.586,1.233.913,4.383,2.541,4.813,1.73.454,3.918-1.148,5.41-1.764,2.2-.909,4.981-1.47,7.25-.324a8.27,8.27,0,0,1,3.446,3.673c.62,1.221.373,2.963,1.121,4.026,1.306,1.855,6.024-3.3,7.478-4.1,3.285-1.812,6.715-3.332,9.26-6.2a79.029,79.029,0,0,0,5.409-6.929c-2.107-.877-2.666-5.313-3.072-7.28-.377-1.825-.471-2.684-2.457-2.36-3.253.532-7.058,1.946-9.507-1.151-2.128-2.69-1.552-6.268-3.3-9.059-1.206-1.931-3.746-1.149-4.6.672-.815,1.73-1.646,5.9-4.372,5.808-2.343-.077-1.444-4.168-.02-5.04.645-.395,1.884-.39,2.279-1.115.589-1.08-.438-1.5-1.368-1.255-.952.246-1.326,1.138-2.458.732-.75-.269-1.092-1.086-1.789-1.455-1.695-.9-3.576-.558-5.361-.832-2.242-.344-2.872.723-2.573,2.9.313,2.277,1.021,4.7.369,7.015-.49,1.744-2.152,2-3.776,1.8.746-1.5,2.268-.787,3.19-1.78.766-.825.372-3.144.424-4.21.092-1.9,1.482-6.083-1.051-6.839-1.949-.581-4.493.785-4.137-2.39.095-.846,1.029-4.218,2.319-3.841.5.146.654,1.717,1.094,2.184,1.787,1.9,2.451-.37,3.312-1.46,1.107-1.4,1.689-.453,2.356.619a21.174,21.174,0,0,1,1.921,2.738c1,2.37.33,5.082.757,7.547.651,3.754,2.09-2.048,2.32-3.075.632-2.818,1.508-5.732,4.642-6.642,1.865-.542,2.611.225,2.956,2,.266,1.368-.172,2.61-.17,3.935,0,1.826,1.114,1.322,2.4,1.808C279.306,36.873,276.914,46.378,284,46.4c2.918.009,4.7.022,6.358-2.552a20.533,20.533,0,0,0,3.3-13.452c-.439-3.6.371-7.274-.094-10.924a16.614,16.614,0,0,0-2.6-6.591,23.709,23.709,0,0,0-3.1-3.931c-1.6-1.52-4.2-2.208-6.239-2.874-1.819-.595-3.461-.413-5.273-.853-4.133-1-8.049-1.934-12.216-.454-3.271,1.162-5.73,3.2-8.347,5.383-1.635,1.364-3.5,2.927-4.393,4.918-.915,2.05-1.482,4.293-2.471,6.363a13.375,13.375,0,0,0-.163,9.068.389.389,0,0,0,.236.038,5.486,5.486,0,0,0,.739-3.181c-1.3.478-.918,3.268-.619,4.243.618,2.018,1.968,3.766,1.066,6.032-.717,1.8-2.163,3.921-.652,5.731.818.98,1.713.923,2.263,2.254,1.028,2.487,1.182,5.374,1.988,7.953.414,1.325,1.064,4.071,2.017,5.113,1.145,1.251,3.177.829,4.747.827,5.209-.006,8.566,6.135,9.424,10.588.916,4.75-1.584,11.534-4.688,15.061-2.817,3.2-6.4,5.641-9.535,8.506-3.335,3.048-6.268,6.527-9.807,9.353-2.891,2.308-6.212,3.124-9.495,4.694-9.718,4.647-18.181,11.606-28.046,15.865-8.329,3.6-16.451,7.11-25.244,9.459-2.391.639-4.784,1.047-6.971,2.263-1.356.754-7.242,2.683-6.485,4.917.555,1.639,3.714,1.376,5.02,1.493,3.119.279,6.208-.372,9.326-.226-.336,2.35-2.979,2.269-4.242,3.738-2.2,2.565,1.359,2.27,2.97,1.639,2.824-1.107,5.525-2.511,8.258-3.78,2.317-1.076,5.039-1.416,7.048-3.139,1.079-.925,2.367-5.074-.4-4,.289,1.4-.437,2.951-.644,4.344-.3,2-.438,4.034-.553,6.051-.236,4.141-.223,8.291-.215,12.437.009,4.229-.188,8.4-.383,12.584-.143,3.068-.591,8.426,1.077,11.164,1.637,2.686,5.257,3.467,8.072,4.068,2.027.433,5.027,1.92,7.108,1.631,3.556-.493,3.284-7.925,3.42-10.616.224-4.433.048-8.755.632-13.171a19.155,19.155,0,0,0-1.048-8.711c-.072,5.551-.215,11.1-.262,16.653-.036,4.207-1.119,11.717,1.578,15.387,1.894,2.577,5.805,1.265,8.436.832,3.975-.655,10.123-.15,13.072-3.451,2.3-2.58,1.2-6.459,1.737-9.556.63-3.654,1.4-7.369,1.737-11.1.78-8.687,1.317-16.762-.063-25.487-.259-1.635.042-2.78-1.6-3.6-1.686-.847-4.25-.212-6.064-.159-4.373.128-8.644,1.13-12.971,1.671-4.059.507-8.056,1.7-12.14,1.938-3.337.193-6.465,1.368-9.818,1.433,2.627-1.853,5.927-2.27,9-2.856,3.059-.583,6.059-1.759,9.082-2.645,3.852-1.129,7.689-2.313,11.407-3.75,3.858-1.491,8.041-1.871,11.9-3.362,2.148-.83,4.222-2,6.5-2.444,1.7-.332,3.546.149,5.194-.294,6.1-1.639,8.038-26.733,5.515-26.659-2.926.087-1.953,25.153-1.9,27.494.2,8.965-.031,17.833-.308,26.789a138.686,138.686,0,0,1-2.347,20.737c-.476,2.641-1.335,6.366.409,8.744,1.594,2.172,4.828,2.307,7.273,2.384,5.347.167,9.467-1.4,14.108-3.8,4.215-2.186,5.7-6.88,6.866-11.177,4.307-15.808,2.905-32.861,2.581-49.167-.135-6.82-.364-13.469.152-20.274.354-4.682,2.067-8.28,4.409-12.355,1.863-3.243,3.626-5.476,7.012-6.928,6.011-2.578,11.284.281,14.393,5.772,1.413,2.5,3.525,4.977,4.452,7.615,1.949-6.887-3.625-14.948-7.028-20.535-1.944-3.192-4.577-5.891-6.714-8.946-.314-.449-4.678-8.526-5.6-7.245a109.487,109.487,0,0,1-9.735,11.962c-2.241,2.319-12.849,9.546-15.492,5.527,1.926-.572,3.922-.9,5.836-1.506,2.233-.712,4.415-2.442,6.712-2.818,4.1-.67,7.575,4.326,10.26,6.873a30.592,30.592,0,0,0,4.708,4.218c1.892,1.161,4.138,1.4,6.072,2.461,4.914,2.7,7.389,8.972,9.692,13.8,3.716,7.785,4.914,17.6,5.561,26.137.307,4.044.488,8.142.486,12.208,0,2.8-.8,5.216-.209,7.973a15.026,15.026,0,0,1,.046,7.143c-1.341,6.2-4.319,11.9-5.745,18.077-.7,3.053-3,15.222-8.424,9.548-3.044-3.185-3.778-9.9.679-12.009,4.978-2.353,41.832-1.776,44.168-1.761,10.5.066,20.992-.256,31.489-.254" transform="translate(-0.079 -3.996)" fill="none" stroke="#fff" stroke-width="1.4"/>
    </g>
  </g>
</svg>
