<svg xmlns="http://www.w3.org/2000/svg" width="50.385" height="50.385" viewBox="0 0 50.385 50.385">
  <path id="Icon_map-health" data-name="Icon map-health" d="M51.105,17.515a1.053,1.053,0,0,0-1.05-1.05H36.41a1.053,1.053,0,0,1-1.05-1.05V1.77A1.053,1.053,0,0,0,34.31.72h-16.8a1.053,1.053,0,0,0-1.05,1.05V15.416a1.053,1.053,0,0,1-1.05,1.05H1.77a1.053,1.053,0,0,0-1.05,1.05v16.8a1.053,1.053,0,0,0,1.05,1.05H15.416a1.053,1.053,0,0,1,1.05,1.05V50.056a1.053,1.053,0,0,0,1.05,1.05h16.8a1.053,1.053,0,0,0,1.05-1.05V36.41a1.053,1.053,0,0,1,1.05-1.05H50.056a1.053,1.053,0,0,0,1.05-1.05Z" transform="translate(-0.72 -0.72)" fill="#004891"/>
</svg>
