<svg xmlns="http://www.w3.org/2000/svg" xmlns:xlink="http://www.w3.org/1999/xlink" width="114.955" height="111.304" viewBox="0 0 114.955 111.304">
  <defs>
    <clipPath id="clip-path">
      <rect id="Rectangle_123" data-name="Rectangle 123" width="77.494" height="65.997" fill="#7f4197"/>
    </clipPath>
  </defs>
  <g id="Group_209" data-name="Group 209" transform="translate(-196 -4945)">
    <g id="Group_121" data-name="Group 121" transform="translate(196 4945)">
      <g id="Group_106" data-name="Group 106" transform="translate(0.001)">
        <path id="Path_14516" data-name="Path 14516" d="M55.5,0h1.7A1.58,1.58,0,0,0,59.2,1.117c4.721-1.322,9.123.42,13.7,1.054A36.7,36.7,0,0,1,87.744,7.707a56.68,56.68,0,0,1,25.649,35.534c.584,2.37,1.045,4.771,1.563,7.158V62.857c-.662.68-.5,1.588-.644,2.4-3.486,19.306-13.88,33.534-31.321,42.554a33.882,33.882,0,0,1-9.8,3.489c4.961-4.178,11.77-5.809,15.933-11.349-1.071-.5-1.522.156-2.041.441-3.38,1.857-6.731,3.765-10.1,5.633-.833.461-1.98.979-2.5-.041-.689-1.345,1.642.118,1.317-1.459-1.1-.3-1.983.464-2.922.918-3.188,1.541-6.257,3.368-9.678,4.364-7.159,2.084-14.349,1.62-21.416-.332-2.113-.584-4.362.808-5.978-.291-2.133-1.45-4.632-1.8-6.763-3.1C13.166,96.429,3.629,82.559.917,64.087.69,62.54.983,60.864,0,59.46V53.231c.883-.71.54-1.74.641-2.629A56.822,56.822,0,0,1,15.157,18.095c.634-.7,1.15-1.639,2.186-1.831,1.129,1.748-1.378,2.436-.849,4.1,1.232-.7,1.768-1.981,2.851-2.725,3.4-2.338,6.646-4.906,10-7.313,4.9-3.512,9.228-8.081,15.813-8.48-.992,1.4-3.47,1.662-3.693,4.385,1.68-.907,2.963-1.688,4.318-2.31,3-1.377,5.641-3.762,9.509-2.448,1.36.462.158-.935.2-1.472M83.6,100.175l-.285-.629c-2.4.668-4.263,2.374-6.317,3.7a.81.81,0,0,0-.115,1.238c.432.532.825.174,1.186-.1q2.773-2.095,5.531-4.209" transform="translate(-0.001)" fill="#f5d47b"/>
      </g>
    </g>
    <g id="Group_125" data-name="Group 125" transform="translate(218.753 4966.685)">
      <g id="Group_124" data-name="Group 124" clip-path="url(#clip-path)">
        <path id="Path_14603" data-name="Path 14603" d="M60.858,25.834c-.018-3.608-.281-8.367-.149-11.4-4.007-3.909-9.49-9.5-13.393-13.4l.33.139c-5.875.05-27.586.271-33.068.253l-.787,0a3.284,3.284,0,0,0-2.763,1.423,3.225,3.225,0,0,0-.546,1.492c-.012.159-.022.919-.015,1.1.028,11.486.106,23.168.048,34.643l-.078,25.195-.706-.706c11.7.043,26.6.207,38.346.326l12.782.195-.186.186c.044-3.364.117-6.728.186-10.091.07,3.425.144,6.849.189,10.274l-.189,0-12.782.195c-12.04.086-27.061.321-39.05.328C8.975,47.1,8.871,24.169,8.994,5.451l0-.792A4.734,4.734,0,0,1,13.791,0C14.262.02,15.656,0,16.152.01c4.232-.01,26.976.2,31.692.25,3.893,3.977,9.26,9.809,13.162,13.885l.06.063v.081q-.076,5.773-.207,11.545" transform="translate(-4.092 0)" fill="#7f4197"/>
        <path id="Path_14604" data-name="Path 14604" d="M79.762,1.324c.552,2.95.524,6.213.861,9.1A5.423,5.423,0,0,0,86.034,14.6l.771.047a58.905,58.905,0,0,1,6.169.635,58.614,58.614,0,0,1-6.169.634c-3.675.528-6.992-1.449-7.69-5.205a47.52,47.52,0,0,1,.647-9.391" transform="translate(-36.208 -0.606)" fill="#7f4197"/>
        <path id="Path_14605" data-name="Path 14605" d="M5.637,111.443A33.143,33.143,0,0,1,.9,105.189a4.576,4.576,0,0,1-.9-2.126,2.223,2.223,0,0,1,2.174-2.28c.412-.008,1.113.143,1.511.179a19.607,19.607,0,0,1,1.95.4,22.589,22.589,0,0,1-2.925.533,1.647,1.647,0,0,0-.717.179.939.939,0,0,0-.214,1.445,34.7,34.7,0,0,1,3.856,7.925" transform="translate(0 -46.154)" fill="#7f4197"/>
        <path id="Path_14606" data-name="Path 14606" d="M27.326,76.441a74.228,74.228,0,0,1,22.283,0,74.21,74.21,0,0,1-22.283,0" transform="translate(-12.514 -34.622)" fill="#7f4197"/>
        <path id="Path_14607" data-name="Path 14607" d="M27.326,90.246a74.228,74.228,0,0,1,22.283,0,74.21,74.21,0,0,1-22.283,0" transform="translate(-12.514 -40.944)" fill="#7f4197"/>
        <path id="Path_14608" data-name="Path 14608" d="M27.131,104.051a30.566,30.566,0,0,1,14.236,0,30.566,30.566,0,0,1-14.236,0" transform="translate(-12.425 -47.266)" fill="#7f4197"/>
        <path id="Path_14609" data-name="Path 14609" d="M35.872,36.9a34.782,34.782,0,0,1,5.428,4.31H40.182a39.348,39.348,0,0,1,7.447-6.328A39.381,39.381,0,0,1,41.3,42.332l-.591.558A36.957,36.957,0,0,1,35.872,36.9" transform="translate(-16.428 -15.976)" fill="#7f4197"/>
        <path id="Path_14610" data-name="Path 14610" d="M47.685,32.037A10.875,10.875,0,1,1,33,21.846a10.917,10.917,0,0,1,14.681,10.19m0,0a10.053,10.053,0,1,0-17.363,6.9,10.062,10.062,0,0,0,17.363-6.9" transform="translate(-11.903 -9.683)" fill="#7f4197"/>
        <path id="Path_14611" data-name="Path 14611" d="M101.852,59.5a11.463,11.463,0,1,1-18.768-1.735A11.5,11.5,0,0,1,101.852,59.5m0,0a10.64,10.64,0,1,0-12.4,15.4,10.65,10.65,0,0,0,12.4-15.4" transform="translate(-36.825 -24.59)" fill="#7f4197"/>
        <path id="Path_14612" data-name="Path 14612" d="M118.72,80.716c2.449,1.056,4.816,2.251,7.154,3.494,1.212.712,2.618,1.171,3.551,2.3a4.114,4.114,0,0,1-3.884,6.576c-1.439-.274-2.52-1.283-3.728-2-2.217-1.449-4.4-2.947-6.51-4.585,2.45,1.055,4.818,2.248,7.156,3.492,1.1.487,2.124,1.375,3.3,1.571a2.617,2.617,0,0,0,2.439-4.125c-.742-.939-2.013-1.409-2.97-2.138-2.217-1.449-4.405-2.947-6.512-4.582" transform="translate(-52.804 -36.965)" fill="#7f4197"/>
        <path id="Path_14613" data-name="Path 14613" d="M123.845,91.5a7.31,7.31,0,0,1,3.448-5.835,7.309,7.309,0,0,1-3.448,5.835" transform="translate(-56.716 -39.232)" fill="#7f4197"/>
      </g>
    </g>
  </g>
</svg>
