<svg xmlns="http://www.w3.org/2000/svg" xmlns:xlink="http://www.w3.org/1999/xlink" width="114.955" height="111.304" viewBox="0 0 114.955 111.304">
  <defs>
    <clipPath id="clip-path">
      <rect id="Rectangle_124" data-name="Rectangle 124" width="79.929" height="71.39" fill="#7f4197"/>
    </clipPath>
  </defs>
  <g id="Group_210" data-name="Group 210" transform="translate(-196 -5089.116)">
    <g id="Group_129" data-name="Group 129" transform="translate(196 5089.116)">
      <g id="Group_106" data-name="Group 106" transform="translate(0.001)">
        <path id="Path_14516" data-name="Path 14516" d="M55.5,0h1.7A1.58,1.58,0,0,0,59.2,1.117c4.721-1.322,9.123.42,13.7,1.054A36.7,36.7,0,0,1,87.744,7.707a56.68,56.68,0,0,1,25.649,35.534c.584,2.37,1.045,4.771,1.563,7.158V62.857c-.662.68-.5,1.588-.644,2.4-3.486,19.306-13.88,33.534-31.321,42.554a33.882,33.882,0,0,1-9.8,3.489c4.961-4.178,11.77-5.809,15.933-11.349-1.071-.5-1.522.156-2.041.441-3.38,1.857-6.731,3.765-10.1,5.633-.833.461-1.98.979-2.5-.041-.689-1.345,1.642.118,1.317-1.459-1.1-.3-1.983.464-2.922.918-3.188,1.541-6.257,3.368-9.678,4.364-7.159,2.084-14.349,1.62-21.416-.332-2.113-.584-4.362.808-5.978-.291-2.133-1.45-4.632-1.8-6.763-3.1C13.166,96.429,3.629,82.559.917,64.087.69,62.54.983,60.864,0,59.46V53.231c.883-.71.54-1.74.641-2.629A56.822,56.822,0,0,1,15.157,18.095c.634-.7,1.15-1.639,2.186-1.831,1.129,1.748-1.378,2.436-.849,4.1,1.232-.7,1.768-1.981,2.851-2.725,3.4-2.338,6.646-4.906,10-7.313,4.9-3.512,9.228-8.081,15.813-8.48-.992,1.4-3.47,1.662-3.693,4.385,1.68-.907,2.963-1.688,4.318-2.31,3-1.377,5.641-3.762,9.509-2.448,1.36.462.158-.935.2-1.472M83.6,100.175l-.285-.629c-2.4.668-4.263,2.374-6.317,3.7a.81.81,0,0,0-.115,1.238c.432.532.825.174,1.186-.1q2.773-2.095,5.531-4.209" transform="translate(-0.001)" fill="#f5d47b"/>
      </g>
    </g>
    <g id="Group_132" data-name="Group 132" transform="translate(213.514 5106.928)">
      <g id="Group_131" data-name="Group 131" transform="translate(0 0)" clip-path="url(#clip-path)">
        <path id="Path_14615" data-name="Path 14615" d="M63.3,26.289c0-.949-.048-3.254-.05-4.161a1.147,1.147,0,0,0-1.218-1.006l-.7.013-1.394.026-2.787.051-.324.007-.109-.341a20.683,20.683,0,0,0-1.729-3.892l.318-.324c.625-.643,2.343-2.375,2.953-3,.1-.148.666-.58.665-.8a.631.631,0,0,0-.143-.59l-.959-.96c-1-.988-2.979-2.979-3.975-3.968-.537-.472-.987-1.2-1.373-1.035-.131.021-.586.53-.7.624-.618.607-2.355,2.324-3,2.958l-.53.522a19.958,19.958,0,0,0-4.1-1.827l-.742-.234c.009-.538.043-3.009.051-3.592l.021-1.4.01-.7a.3.3,0,0,0-.28-.332c-.85-.014-3.26-.05-4.144-.062s-3.281-.073-4.143-.09c-.428.01-.265.657-.307,1.021-.02.874-.074,3.3-.094,4.209l-.018.783a21.035,21.035,0,0,0-4.237,1.541l-.685.347-.511-.543c-.862-.937-2.513-2.656-3.368-3.578a.432.432,0,0,0-.611-.069L24.1,6.8c-1.019.953-3.1,2.866-4.119,3.818l-.994.924a.625.625,0,0,0-.163.581c0,.21.513.657.635.818l.948,1.037c.235.242,2.031,2.235,2.2,2.409l-.218.365a20.431,20.431,0,0,0-1.778,3.8l-.325-.019c-1.228-.073-3.649-.2-4.871-.272a1.146,1.146,0,0,0-1.253.96L14.052,22.6l-.245,2.779-.035-2.788c-.123-1.936.135-3.009,2.355-2.892.844-.022,3.3-.059,4.182-.08l-.446.321a18.275,18.275,0,0,1,1.5-3.765l.089.7c-.632-.631-2.385-2.337-3-2.953A3.354,3.354,0,0,1,17.4,12.531a2.131,2.131,0,0,1,.453-2.033l1.022-1.031L20.861,7.48l1.984-1.987c.351-.348.616-.628,1.041-1.025a2.335,2.335,0,0,1,3.193.16c.3.3,1.165,1.184,1.479,1.5l1.972,2-1.2-.2a19.283,19.283,0,0,1,3.855-1.558l-.769.992c.033-.911.034-3.323.061-4.209A3.622,3.622,0,0,1,32.8,1.279,2.453,2.453,0,0,1,34.831.018L36.3.033l2.807.043,2.806.062L43.38.177a2.457,2.457,0,0,1,1.986,1.335A3.607,3.607,0,0,1,45.612,3.4c-.021.874-.073,3.3-.094,4.208l-.731-1.02a19.5,19.5,0,0,1,3.792,1.7l-1.2.151c.647-.624,2.433-2.279,3.066-2.886l.511-.481a2.335,2.335,0,0,1,3.193-.043c1.831,1.932,4,4.307,5.8,6.249a2.127,2.127,0,0,1-.2,2.919l-.519.473c-.642.581-2.441,2.234-3.111,2.842l.114-.695A18.36,18.36,0,0,1,57.6,20.633l-.432-.335c.841.04,3.343.191,4.177.233a3.416,3.416,0,0,1,1.477.248c1.041.531.822,1.79.72,2.729l-.244,2.78" transform="translate(1.295 0.002)" fill="#7f4197"/>
        <path id="Path_14616" data-name="Path 14616" d="M37.742,26.7C46,26.608,50.588,36.854,44.826,42.948A9.8,9.8,0,0,1,30.6,42.926c-5.747-6.113-1.11-16.348,7.145-16.224m0,0c-7.813-.042-11.545,9.732-5.808,14.891,5.139,4.86,13.967,1.341,14.367-5.757A8.643,8.643,0,0,0,37.742,26.7" transform="translate(2.642 2.515)" fill="#7f4197"/>
        <path id="Path_14617" data-name="Path 14617" d="M25.832,24.625c-1.276-8.8,8.628-15.408,16.556-11.71,4.485,1.892,7.587,7.019,6.787,11.752-.777-5.915-5.76-10.657-11.653-10.6-5.892-.084-10.9,4.645-11.69,10.558" transform="translate(2.423 1.118)" fill="#7f4197"/>
        <path id="Path_14618" data-name="Path 14618" d="M56.611,66.327c-.3-2.525-.2-5.216-.765-7.664a12.211,12.211,0,0,0-10.218-9.118c-2.112-.237-5.469-.039-7.63-.083-2.163.046-5.481-.191-7.6.1a12.178,12.178,0,0,0-10.037,9.3c-.541,2.447-.431,5.149-.741,7.675a47.131,47.131,0,0,1-.317-7.863A13.155,13.155,0,0,1,30.063,47.515c2.243-.386,5.641-.164,7.939-.239,2.307.083,5.658-.112,7.919.224A13.186,13.186,0,0,1,56.894,58.456a43.141,43.141,0,0,1-.283,7.871" transform="translate(1.809 4.454)" fill="#7f4197"/>
        <path id="Path_14619" data-name="Path 14619" d="M15.807,27.979c7.058-.126,11.092,8.756,6.15,13.982A8.469,8.469,0,0,1,9.6,41.942c-4.928-5.243-.855-14.116,6.2-13.963m0,0a7.259,7.259,0,0,0-4.866,12.63c4.283,4.032,11.731,1.085,12.1-4.823a7.307,7.307,0,0,0-7.237-7.807" transform="translate(0.7 2.636)" fill="#7f4197"/>
        <path id="Path_14620" data-name="Path 14620" d="M21.14,46.514a57.7,57.7,0,0,1-7.035.838c-2.245.2-4.469,0-6.538.914A11.26,11.26,0,0,0,1.1,55.056,21.837,21.837,0,0,0,.3,58.436a11.538,11.538,0,0,1-.258-3.613A10.686,10.686,0,0,1,6.768,46.23c2.319-.968,4.936-.764,7.34-.58a57.733,57.733,0,0,1,7.032.863" transform="translate(0 4.286)" fill="#7f4197"/>
        <path id="Path_14621" data-name="Path 14621" d="M58.681,27.554a7.307,7.307,0,0,0-7.237,7.807c.372,5.909,7.82,8.856,12.1,4.823a7.259,7.259,0,0,0-4.867-12.63m0,0c7.058-.152,11.133,8.72,6.2,13.963a8.469,8.469,0,0,1-12.355.019c-4.939-5.226-.906-14.109,6.152-13.982" transform="translate(4.742 2.596)" fill="#7f4197"/>
        <path id="Path_14622" data-name="Path 14622" d="M53.728,46.089a57.734,57.734,0,0,1,7.032-.863c2.4-.184,5.021-.388,7.34.58A10.684,10.684,0,0,1,74.821,54.4a11.538,11.538,0,0,1-.256,3.613,21.839,21.839,0,0,0-.792-3.38A11.26,11.26,0,0,0,67.3,47.84c-2.069-.909-4.293-.717-6.538-.914a57.72,57.72,0,0,1-7.035-.838" transform="translate(5.061 4.246)" fill="#7f4197"/>
        <path id="Path_14623" data-name="Path 14623" d="M30.369,59.062a38.066,38.066,0,0,1,6.04,4.883l-1.485-.021a45.439,45.439,0,0,1,9.722-8.257,24.963,24.963,0,0,1-1.8,2.691,55,55,0,0,1-7.274,7.786,41.623,41.623,0,0,1-5.2-7.083" transform="translate(2.861 5.244)" fill="#7f4197"/>
      </g>
    </g>
  </g>
</svg>
