<svg xmlns="http://www.w3.org/2000/svg" width="131.674" height="143.416" viewBox="0 0 131.674 143.416">
  <g id="Group_933" data-name="Group 933" transform="translate(-692.389 -1348.665)">
    <g id="Group_909" data-name="Group 909" transform="translate(712.396 1483.173)">
      <path id="Path_554" data-name="Path 554" d="M474.558,494.979h-19.47c0-4.917,4.358-8.908,9.736-8.908S474.558,490.063,474.558,494.979Z" transform="translate(-455.088 -486.072)" fill="#fff"/>
      <path id="Path_555" data-name="Path 555" d="M516.989,494.979H497.524c0-4.917,4.353-8.908,9.729-8.908S516.989,490.063,516.989,494.979Z" transform="translate(-425.332 -486.072)" fill="#fff"/>
    </g>
    <path id="Path_556" data-name="Path 556" d="M493.108,455.821c.008-.123.039-.236.039-.359a7.693,7.693,0,0,0-.16-1.555,7.865,7.865,0,0,0-7.467-6.3c-.089,0-.163-.022-.248-.022a7.868,7.868,0,1,0,7.836,8.232Z" transform="translate(272.952 970.117)" fill="#fff"/>
    <path id="Path_557" data-name="Path 557" d="M484.655,461.495l13.926,13.931a4.82,4.82,0,0,0,6.815,0l.071-.07a4.822,4.822,0,0,0,0-6.812L491.24,454.321A11.528,11.528,0,0,1,484.655,461.495Z" transform="translate(278.041 974.838)" fill="#fff"/>
    <path id="Path_558" data-name="Path 558" d="M510.176,435.051l-.071-.07a4.82,4.82,0,0,0-6.815,0l-19.21,19.213a11.543,11.543,0,0,1,7.237,6.533l18.859-18.865A4.806,4.806,0,0,0,510.176,435.051Z" transform="translate(277.637 960.288)" fill="#fff"/>
    <path id="Path_559" data-name="Path 559" d="M493.148,455.462c0,.122-.031.236-.039.359a7.86,7.86,0,1,1-7.836-8.232c.085,0,.16.022.248.022a7.865,7.865,0,0,1,7.467,6.3A7.693,7.693,0,0,1,493.148,455.462Z" transform="translate(272.952 970.117)" fill="#fff"/>
    <path id="Path_560" data-name="Path 560" d="M510.036,421.931v-5.687h5.291V414.1a7.087,7.087,0,0,0-7.089-7.091h-1.324a7.093,7.093,0,0,0-7.092,7.091v2.149h5.35v5.687a62.042,62.042,0,1,0,4.864,0Zm-2.436,114.3a52.315,52.315,0,1,1,52.317-52.313A52.373,52.373,0,0,1,507.6,536.233Z" transform="translate(250.625 941.66)" fill="#fff"/>
    <path id="Path_561" data-name="Path 561" d="M478.383,419.592c-9.75-5.707-21.622-5.138-28.988,2.223-7.819,7.82-7.977,20.738-1.075,30.8A66.257,66.257,0,0,1,478.383,419.592Z" transform="translate(249.062 947.79)" fill="#fff"/>
    <path id="Path_562" data-name="Path 562" d="M530.185,452.61c6.907-10.057,6.742-22.975-1.077-30.8-7.356-7.361-19.23-7.931-28.987-2.223A66.235,66.235,0,0,1,530.185,452.61Z" transform="translate(288.885 947.79)" fill="#fff"/>
  </g>
</svg>
