<svg xmlns="http://www.w3.org/2000/svg" width="169.451" height="115.949" viewBox="0 0 169.451 115.949">
  <g id="Group_936" data-name="Group 936" transform="translate(-673.502 -1717.803)">
    <path id="Path_548" data-name="Path 548" d="M517.43,649.033c0,13.829-11.207,28.182-25.04,28.182s-25.042-14.353-25.042-28.182a25.041,25.041,0,0,1,50.081,0Z" transform="translate(265.906 1093.811)" fill="#fff"/>
    <path id="Path_549" data-name="Path 549" d="M535.516,716.235a8.328,8.328,0,0,0,8.329-8.329v-5.781c0-17.873-12.9-44.323-43.744-44.323-29.64,0-43.746,25.457-43.746,43.561v6.543a8.331,8.331,0,0,0,8.332,8.329Z" transform="translate(258.196 1117.518)" fill="#fff"/>
    <path id="Path_550" data-name="Path 550" d="M476.829,651.2c0,10.1-8.19,21.43-18.29,21.43s-18.284-11.33-18.284-21.43a18.287,18.287,0,1,1,36.574,0Z" transform="translate(246.907 1100.065)" fill="#fff"/>
    <path id="Path_551" data-name="Path 551" d="M485.27,665.426a32.614,32.614,0,0,0-21.1-7.822,31.952,31.952,0,0,0-31.805,29h-.14A13.676,13.676,0,0,0,445.9,700.279h23.337A44.069,44.069,0,0,1,485.27,665.426Z" transform="translate(241.277 1117.379)" fill="#fff"/>
    <path id="Path_552" data-name="Path 552" d="M502.3,651.2c0,10.1,8.19,21.43,18.293,21.43s18.284-11.33,18.284-21.43a18.289,18.289,0,1,0-36.577,0Z" transform="translate(290.414 1100.065)" fill="#fff"/>
    <path id="Path_553" data-name="Path 553" d="M500.648,665.426a32.628,32.628,0,0,1,21.105-7.822,31.943,31.943,0,0,1,31.8,29h.143a13.679,13.679,0,0,1-13.679,13.678H516.685A44.078,44.078,0,0,0,500.648,665.426Z" transform="translate(289.255 1117.379)" fill="#fff"/>
  </g>
</svg>
