<svg xmlns="http://www.w3.org/2000/svg" width="64.86" height="41.825" viewBox="0 0 64.86 41.825">
  <g id="workers" transform="translate(-256.003 -528.75)">
    <path id="Path_97" data-name="Path 97" d="M681.389,1062.844H651.907a1.013,1.013,0,0,1-1.013-1.011c-.007-2.332.091-8.163,1.146-11.928a10.493,10.493,0,0,1,1.091-2.617,9.841,9.841,0,0,1,3.513-3.412,8.929,8.929,0,0,1,4.792-1.145,1.015,1.015,0,0,1,.551.193l4.541,3.312,4.8-3.326a1.01,1.01,0,0,1,.53-.179,8.929,8.929,0,0,1,4.792,1.145,9.839,9.839,0,0,1,3.513,3.412,10.489,10.489,0,0,1,1.091,2.617c1.055,3.765,1.153,9.6,1.146,11.928A1.014,1.014,0,0,1,681.389,1062.844Zm-14.778-2.027h13.76a47.186,47.186,0,0,0-1.066-10.365,8.4,8.4,0,0,0-.879-2.125,7.744,7.744,0,0,0-2.768-2.685,6.908,6.908,0,0,0-3.4-.894h-.027l-5.145,3.564a1.013,1.013,0,0,1-1.174-.014l-4.867-3.55a6.9,6.9,0,0,0-3.41.894,7.744,7.744,0,0,0-2.768,2.685,8.418,8.418,0,0,0-.88,2.125,47.21,47.21,0,0,0-1.066,10.365h13.687Z" transform="translate(-378.215 -492.269)" fill="#004891"/>
    <path id="Path_98" data-name="Path 98" d="M848.107,729.234a7.428,7.428,0,0,1-5.549-2.534,8.9,8.9,0,0,1-2.248-5.99v-3.173a1.013,1.013,0,0,1,.682-.958,5.846,5.846,0,0,0,2.067-1.273,1,1,0,0,1,1.377-.118,6.093,6.093,0,0,0,2.229.916,9.509,9.509,0,0,0,6.1-.912,1.013,1.013,0,0,1,1.168.22,9.332,9.332,0,0,0,1.492,1.263,1.014,1.014,0,0,1,.481.862v3.173a8.9,8.9,0,0,1-2.248,5.99A7.429,7.429,0,0,1,848.107,729.234Zm-5.77-11.02v2.5c0,3.583,2.588,6.5,5.77,6.5s5.77-2.914,5.77-6.5v-2.64a11.345,11.345,0,0,1-.9-.756,11.215,11.215,0,0,1-6.868.743,8.764,8.764,0,0,1-2.179-.8A8.09,8.09,0,0,1,842.337,718.215Z" transform="translate(-559.633 -178.353)" fill="#004891"/>
    <path id="Path_99" data-name="Path 99" d="M831.306,540.2a1.014,1.014,0,0,1-.931-.611,7.64,7.64,0,0,1-.486-2.615,7.81,7.81,0,0,1,.1-2.312,5.966,5.966,0,0,1,1.281-2.322c.107-.131.22-.26.335-.383a11.8,11.8,0,0,1,5.484-2.9,11.007,11.007,0,0,1,3.3-.281,9.723,9.723,0,0,1,1.879.308,2.951,2.951,0,0,1,1.732,1.2,4.277,4.277,0,0,1,.39.819,1.987,1.987,0,0,0,.236.493,3.515,3.515,0,0,0,.509.452,5.55,5.55,0,0,1,.751.676,5.475,5.475,0,0,1,1.353,2.9,4.611,4.611,0,0,1-.683,2.632l-.062.118a5.664,5.664,0,0,1-.936,1.557,1.013,1.013,0,0,1-1.45-1.411c.055-.084.2-.334.586-1.078.042-.081.072-.138.083-.159a2.662,2.662,0,0,0,.443-1.475,3.469,3.469,0,0,0-.852-1.738,3.791,3.791,0,0,0-.489-.429,5.245,5.245,0,0,1-.8-.735,3.545,3.545,0,0,1-.578-1.072,2.7,2.7,0,0,0-.2-.448,1.021,1.021,0,0,0-.577-.349,7.761,7.761,0,0,0-1.488-.239,8.974,8.974,0,0,0-2.686.236,9.513,9.513,0,0,0-4.458,2.3c-.085.091-.168.186-.247.283a4.035,4.035,0,0,0-.878,1.508,6.136,6.136,0,0,0-.05,1.715,6.041,6.041,0,0,0,.324,1.937,1.013,1.013,0,0,1-.528,1.332A1,1,0,0,1,831.306,540.2Zm12.883-1.762h0Z" transform="translate(-549.615)" fill="#004891"/>
    <g id="Group_669" data-name="Group 669" transform="translate(283.38 547.675)">
      <path id="Path_100" data-name="Path 100" d="M905.356,982.638a1.013,1.013,0,0,1-.917-1.444,5.423,5.423,0,0,0,.525-2.056,2.051,2.051,0,0,0-.105-.739c-.017-.062-.035-.127-.053-.195a1.013,1.013,0,0,1,1.961-.512c.015.058.03.113.045.166a4.044,4.044,0,0,1,.178,1.332,7.489,7.489,0,0,1-.716,2.864A1.014,1.014,0,0,1,905.356,982.638Zm8.007.005a1.013,1.013,0,0,1-.9-.551,7.171,7.171,0,0,1-.828-3.045,3.887,3.887,0,0,1,.114-1.092,1.014,1.014,0,0,1,2,.226h0a1.032,1.032,0,0,1-.031.249,1.871,1.871,0,0,0-.059.565,5.213,5.213,0,0,0,.606,2.171,1.013,1.013,0,0,1-.439,1.364A1,1,0,0,1,913.363,982.643Z" transform="translate(-904.343 -976.935)" fill="#004891"/>
    </g>
    <g id="Group_673" data-name="Group 673" transform="translate(256.003 531.934)">
      <path id="Path_101" data-name="Path 101" d="M273.811,1035.383H257.017a1.013,1.013,0,0,1-1.013-1.01,41.876,41.876,0,0,1,.931-9.675,8.659,8.659,0,0,1,.9-2.159,8.14,8.14,0,0,1,2.906-2.823,7.4,7.4,0,0,1,3.971-.949,1.013,1.013,0,0,1,.551.194l3.55,2.589,3.759-2.6a1.01,1.01,0,0,1,.53-.179,7.4,7.4,0,0,1,3.971.949,7.965,7.965,0,0,1,2.109,1.731,1.013,1.013,0,0,1-1.477,1.387h0q-.026-.026-.049-.053a5.938,5.938,0,0,0-1.577-1.3,5.369,5.369,0,0,0-2.6-.7l-4.1,2.84a1.013,1.013,0,0,1-1.174-.014l-3.874-2.826a5.374,5.374,0,0,0-2.591.7,6.05,6.05,0,0,0-2.161,2.1,6.624,6.624,0,0,0-.689,1.667,37.118,37.118,0,0,0-.85,8.111h15.775a1.013,1.013,0,1,1,0,2.026Z" transform="translate(-256.003 -1001.253)" fill="#004891"/>
      <path id="Path_102" data-name="Path 102" d="M415.275,766.225a6.185,6.185,0,0,1-4.621-2.108,7.371,7.371,0,0,1-1.864-4.963v-2.56a1.013,1.013,0,0,1,.682-.958,4.508,4.508,0,0,0,1.586-.973,1,1,0,0,1,1.377-.119,4.77,4.77,0,0,0,1.74.706,7.489,7.489,0,0,0,4.772-.726,1.013,1.013,0,0,1,1.168.22,7.205,7.205,0,0,0,1.165.986,1.013,1.013,0,0,1,.481.862v2.56a7.37,7.37,0,0,1-1.864,4.963A6.185,6.185,0,0,1,415.275,766.225Zm-4.458-8.961v1.89c0,2.781,2,5.044,4.458,5.044s4.459-2.263,4.459-5.044v-2.032c-.209-.16-.4-.328-.571-.479a9.87,9.87,0,0,1-3.718.767,7.731,7.731,0,0,1-3.517-.815A6.813,6.813,0,0,1,410.817,757.264Z" transform="translate(-402.338 -747.981)" fill="#004891"/>
      <path id="Path_103" data-name="Path 103" d="M401.715,613.8a1.014,1.014,0,0,1-.931-.611,8.989,8.989,0,0,1-.321-4.1,5,5,0,0,1,1.073-1.951c.09-.109.183-.217.279-.319a9.525,9.525,0,0,1,4.523-2.393,9.046,9.046,0,0,1,2.718-.231,8.069,8.069,0,0,1,1.554.255,2.572,2.572,0,0,1,1.508,1.05,3.669,3.669,0,0,1,.333.7,1.629,1.629,0,0,0,.157.342,2.789,2.789,0,0,0,.382.337,4.483,4.483,0,0,1,1.771,3.02,3.965,3.965,0,0,1-.574,2.235l-.047.091a4.677,4.677,0,0,1-.8,1.311,1.014,1.014,0,0,1-1.46-1.4c.046-.073.163-.276.457-.844l.069-.132a1.981,1.981,0,0,0,.334-1.078,2.627,2.627,0,0,0-.639-1.289,2.979,2.979,0,0,0-.369-.322,4.4,4.4,0,0,1-.675-.62,3.031,3.031,0,0,1-.5-.92,2.081,2.081,0,0,0-.144-.326.645.645,0,0,0-.354-.2,6.087,6.087,0,0,0-1.162-.186,7.04,7.04,0,0,0-2.108.186,7.464,7.464,0,0,0-3.5,1.8c-.065.07-.13.144-.191.218a3.079,3.079,0,0,0-.67,1.138,7.515,7.515,0,0,0,.21,2.823,1.013,1.013,0,0,1-.528,1.332A1.027,1.027,0,0,1,401.715,613.8Zm10.259-1.761h0Z" transform="translate(-394.25 -604.172)" fill="#004891"/>
      <g id="Group_670" data-name="Group 670" transform="translate(8.632 15.265)">
        <path id="Path_104" data-name="Path 104" d="M461.442,970.667a1.014,1.014,0,0,1-.917-1.444,4.171,4.171,0,0,0,.405-1.58,1.471,1.471,0,0,0-.078-.539c-.014-.051-.029-.1-.044-.16a1.014,1.014,0,1,1,1.961-.512c.012.046.024.089.035.131a3.424,3.424,0,0,1,.151,1.132,6.118,6.118,0,0,1-.6,2.388A1.013,1.013,0,0,1,461.442,970.667Zm6.459,0a1.013,1.013,0,0,1-.9-.551,5.9,5.9,0,0,1-.69-2.541,3.312,3.312,0,0,1,.1-.929,1.013,1.013,0,0,1,2,.225h0a1.025,1.025,0,0,1-.031.249,1.313,1.313,0,0,0-.041.4,4,4,0,0,0,.467,1.667,1.013,1.013,0,0,1-.9,1.476Z" transform="translate(-460.429 -965.675)" fill="#004891"/>
      </g>
      <g id="Group_672" data-name="Group 672" transform="translate(41.427 0)">
        <path id="Path_105" data-name="Path 105" d="M1259.488,1035.382h-16.794a1.013,1.013,0,0,1,0-2.027h15.775a37.128,37.128,0,0,0-.85-8.111,6.627,6.627,0,0,0-.689-1.666,6.047,6.047,0,0,0-2.161-2.1,5.373,5.373,0,0,0-2.6-.7l-4.1,2.84a1.014,1.014,0,0,1-1.174-.014l-3.875-2.826a5.372,5.372,0,0,0-2.591.7,5.948,5.948,0,0,0-1.577,1.3,1.067,1.067,0,0,1-.084.087,1.014,1.014,0,0,1-1.436-1.427,7.968,7.968,0,0,1,2.1-1.724,7.394,7.394,0,0,1,3.971-.949,1.013,1.013,0,0,1,.551.194l3.55,2.589,3.759-2.6a1.009,1.009,0,0,1,.53-.179,7.4,7.4,0,0,1,3.971.949,8.141,8.141,0,0,1,2.906,2.822,8.657,8.657,0,0,1,.9,2.158,41.861,41.861,0,0,1,.932,9.676A1.013,1.013,0,0,1,1259.488,1035.382Z" transform="translate(-1237.069 -1001.253)" fill="#004891"/>
        <path id="Path_106" data-name="Path 106" d="M1340.076,766.225a6.185,6.185,0,0,1-4.621-2.108,7.371,7.371,0,0,1-1.864-4.963v-2.56a1.013,1.013,0,0,1,.682-.958,4.508,4.508,0,0,0,1.586-.973,1,1,0,0,1,1.377-.119,4.766,4.766,0,0,0,1.74.706,7.489,7.489,0,0,0,4.772-.726,1.013,1.013,0,0,1,1.168.22,7.217,7.217,0,0,0,1.165.986,1.014,1.014,0,0,1,.481.862v2.56a7.37,7.37,0,0,1-1.864,4.963A6.183,6.183,0,0,1,1340.076,766.225Zm-4.458-8.961v1.89c0,2.781,2,5.044,4.458,5.044s4.459-2.263,4.459-5.044v-2.032c-.209-.16-.4-.328-.571-.479a9.87,9.87,0,0,1-3.718.767,7.731,7.731,0,0,1-3.517-.815A6.813,6.813,0,0,1,1335.617,757.264Z" transform="translate(-1329.514 -747.981)" fill="#004891"/>
        <path id="Path_107" data-name="Path 107" d="M1326.525,613.79a1.014,1.014,0,0,1-.931-.611,8.99,8.99,0,0,1-.321-4.1,5,5,0,0,1,1.073-1.951c.089-.109.183-.217.279-.319a9.527,9.527,0,0,1,4.523-2.393,9.061,9.061,0,0,1,2.718-.231,8.072,8.072,0,0,1,1.554.255,2.571,2.571,0,0,1,1.508,1.05,3.687,3.687,0,0,1,.333.7,1.674,1.674,0,0,0,.157.342,2.784,2.784,0,0,0,.382.337,4.483,4.483,0,0,1,1.771,3.02,3.968,3.968,0,0,1-.574,2.235l-.048.092a4.682,4.682,0,0,1-.8,1.31,1.014,1.014,0,0,1-1.46-1.4c.046-.073.163-.275.457-.843l.069-.133a1.984,1.984,0,0,0,.334-1.078,2.627,2.627,0,0,0-.639-1.289,2.963,2.963,0,0,0-.37-.322,4.408,4.408,0,0,1-.675-.62,3.033,3.033,0,0,1-.5-.921,2.08,2.08,0,0,0-.144-.326.646.646,0,0,0-.354-.2,6.092,6.092,0,0,0-1.162-.186,7.045,7.045,0,0,0-2.108.186,7.466,7.466,0,0,0-3.5,1.8c-.065.07-.13.144-.191.219a3.075,3.075,0,0,0-.669,1.138,7.518,7.518,0,0,0,.21,2.823,1.013,1.013,0,0,1-.93,1.415Zm10.26-1.761h0Z" transform="translate(-1321.435 -604.164)" fill="#004891"/>
        <g id="Group_671" data-name="Group 671" transform="translate(6.257 15.265)">
          <path id="Path_108" data-name="Path 108" d="M1386.256,970.658a1.014,1.014,0,0,1-.917-1.444,4.175,4.175,0,0,0,.405-1.58,1.471,1.471,0,0,0-.078-.539c-.014-.051-.029-.1-.044-.16a1.014,1.014,0,0,1,1.962-.512c.012.046.024.089.035.131a3.427,3.427,0,0,1,.151,1.132,6.124,6.124,0,0,1-.6,2.388A1.014,1.014,0,0,1,1386.256,970.658Zm6.459,0a1.013,1.013,0,0,1-.9-.551,5.9,5.9,0,0,1-.69-2.541,3.316,3.316,0,0,1,.1-.929,1.013,1.013,0,0,1,2,.225h0a1.026,1.026,0,0,1-.031.249,1.31,1.31,0,0,0-.041.4,4,4,0,0,0,.467,1.667,1.014,1.014,0,0,1-.9,1.476Z" transform="translate(-1385.243 -965.665)" fill="#004891"/>
        </g>
      </g>
    </g>
  </g>
</svg>
