<svg xmlns="http://www.w3.org/2000/svg" width="91.669" height="40.954" viewBox="0 0 91.669 40.954">
  <g id="Group_41" data-name="Group 41" transform="translate(0 0)">
    <g id="Group_18" data-name="Group 18" transform="translate(0 0)">
      <path id="Path_31" data-name="Path 31" d="M17.026,700.476a9.312,9.312,0,0,1-1.926.518,8.319,8.319,0,0,1-3.371-.206,7.19,7.19,0,0,1-5.19-4.877,12.441,12.441,0,0,1-.33-1.569l-.054-.749a3.952,3.952,0,0,1,.027-1.017l.08-.785a9.232,9.232,0,0,1,.464-1.667,7.193,7.193,0,0,1,4.94-4.37,8.808,8.808,0,0,1,3.923-.143,8,8,0,0,1,3.166,1.436l.678.58.392.392,2.747-4.218a2.061,2.061,0,0,0-.384-.33,14.147,14.147,0,0,0-1.5-1.043,13.534,13.534,0,0,0-7.276-1.775l-.553.018-1.3.116a16.627,16.627,0,0,0-3.469.919,12.082,12.082,0,0,0-7.178,8,18.482,18.482,0,0,0-.41,2.184c-.061.365.009.737-.053,1.123a3.674,3.674,0,0,0,.018,1.017c.059.375.023.727.089,1.079a14.658,14.658,0,0,0,.633,2.613,13.384,13.384,0,0,0,1.8,3.255c.277.367.615.68.9,1.035l.4.374.392.366c.364.287.722.567,1.115.829a13.992,13.992,0,0,0,4.4,1.917c.546.139,1.1.173,1.7.277l1.088.089h1l.936-.036c.564-.093,1.122-.1,1.65-.214a13.05,13.05,0,0,0,4.815-1.971c.608-.428,1.659-1.4,1.659-1.4l-2.97-4.066a13.312,13.312,0,0,1-3.059,2.3m53.237-3.054c-.162-1.831-.861-3.5-3.488-4.9a22.473,22.473,0,0,0-2.407-.981c-.683-.265-.83-.417-1.55-.642a20.767,20.767,0,0,1-2.086-.749,2.445,2.445,0,0,1-1.632-1.57,3.317,3.317,0,0,1,.205-1.819c.461-1.345,2.564-1.3,2.884-1.291a8.147,8.147,0,0,1,5.222,2.207l2.423-4.361s-1.73-1.138-2.174-1.4a9.156,9.156,0,0,0-1.31-.562,11.576,11.576,0,0,0-4.343-.7l-.651.027c-.429.071-.856.063-1.258.152a9.106,9.106,0,0,0-2.987,1.15,6.784,6.784,0,0,0-2.88,3.942,11.621,11.621,0,0,0-.258,1.346,7.158,7.158,0,0,0,.009,2.024,10.627,10.627,0,0,0,.223,1.249,5.835,5.835,0,0,0,1.98,2.961c1.571,1.224,6.383,2.9,8.105,4.3.621.5.807,3.392-2.961,3.068-2.458-.21-5.325-2.259-5.33-2.261-.535.92-3.015,4.142-3.015,4.145a9.537,9.537,0,0,0,.989.676,12.686,12.686,0,0,0,1.364.9,12.99,12.99,0,0,0,3.754,1.319l1.222.169.937.045h.633l.588-.018c.507-.085,1-.12,1.471-.2a7.513,7.513,0,0,0,6.323-8.226" transform="translate(-0.24 -672.446)" fill="#622f88" fill-rule="evenodd"/>
      <path id="Path_32" data-name="Path 32" d="M.616,752.01a.384.384,0,0,0,.432.348c.248,0,.42-.118.423-.307,0-.13-.054-.243-.348-.327l-.348-.1c-.638-.2-.747-.57-.747-.831a.909.909,0,0,1,.994-.864.886.886,0,0,1,.978.885H1.388c0-.194-.129-.327-.373-.327-.214,0-.374.117-.374.289,0,.075.03.214.31.293l.345.109c.7.2.8.595.792.872a.929.929,0,0,1-1.04.847A.934.934,0,0,1,0,752.01Z" transform="translate(0 -711.95)" fill="#5b3181"/>
      <path id="Path_33" data-name="Path 33" d="M8.477,749.934a1.483,1.483,0,1,1-1.464,1.485,1.468,1.468,0,0,1,1.464-1.485m0,2.357a.875.875,0,1,0-.851-.872.861.861,0,0,0,.851.872" transform="translate(-3.999 -711.95)" fill="#5b3181"/>
      <path id="Path_34" data-name="Path 34" d="M18.662,752.266a1.435,1.435,0,0,1-1.216.633,1.483,1.483,0,0,1,0-2.965,1.438,1.438,0,0,1,1.2.612l-.5.344a.872.872,0,1,0-.7,1.431.87.87,0,0,0,.722-.4Z" transform="translate(-9.12 -711.95)" fill="#5b3181"/>
      <rect id="Rectangle_3" data-name="Rectangle 3" width="0.612" height="2.89" transform="translate(10.561 38.018)" fill="#5b3181"/>
      <path id="Path_35" data-name="Path 35" d="M29,752.218l-.256.684H28.09l1.074-2.89h.667L30.9,752.9h-.646L30,752.218Zm.8-.532-.306-1.007-.294,1.007Z" transform="translate(-16.016 -711.994)" fill="#5b3181"/>
      <path id="Path_36" data-name="Path 36" d="M36.732,750.012h.616v2.349H38.43v.541h-1.7Z" transform="translate(-20.944 -711.994)" fill="#5b3181"/>
      <rect id="Rectangle_4" data-name="Rectangle 4" width="0.612" height="2.89" transform="translate(20.01 38.018)" fill="#5b3181"/>
      <path id="Path_37" data-name="Path 37" d="M53.152,750.012h.516l.352,2.89H53.4l-.2-1.732-.675,1.4h-.474l-.68-1.4-.205,1.732h-.617l.357-2.89h.507l.873,1.862Z" transform="translate(-28.824 -711.994)" fill="#5b3181"/>
      <path id="Path_38" data-name="Path 38" d="M61.193,750.011H62.38a.946.946,0,1,1,0,1.892h-.57v1h-.616Zm.616.541v.813h.541a.41.41,0,0,0,.017-.813Z" transform="translate(-34.891 -711.994)" fill="#5b3181"/>
      <path id="Path_39" data-name="Path 39" d="M68.306,752.218l-.256.684H67.4l1.074-2.89h.667l1.069,2.89H69.56l-.256-.684Zm.8-.532-.306-1.007-.294,1.007Z" transform="translate(-38.428 -711.994)" fill="#5b3181"/>
      <path id="Path_40" data-name="Path 40" d="M78.2,752.266a1.435,1.435,0,0,1-1.216.633,1.483,1.483,0,0,1,0-2.965,1.438,1.438,0,0,1,1.2.612l-.5.344a.872.872,0,1,0-.7,1.431.87.87,0,0,0,.722-.4Z" transform="translate(-43.066 -711.95)" fill="#5b3181"/>
      <path id="Path_41" data-name="Path 41" d="M83.587,750.012h2.181v.554h-.78V752.9h-.621v-2.336h-.78Z" transform="translate(-47.66 -711.994)" fill="#5b3181"/>
      <path id="Path_42" data-name="Path 42" d="M94.825,752.01a.383.383,0,0,0,.432.348c.248,0,.42-.118.424-.307,0-.13-.055-.243-.348-.327l-.348-.1c-.638-.2-.747-.57-.747-.831a.908.908,0,0,1,.994-.864.885.885,0,0,1,.977.885H95.6c0-.194-.13-.327-.373-.327-.214,0-.374.117-.374.289,0,.075.03.214.31.293l.344.109c.7.2.8.595.793.872a1.062,1.062,0,0,1-2.088-.046Z" transform="translate(-53.716 -711.95)" fill="#5b3181"/>
      <path id="Path_43" data-name="Path 43" d="M101.611,750.011H102.8a.946.946,0,1,1,0,1.892h-.57v1h-.617Zm.617.541v.813h.541a.41.41,0,0,0,.017-.813Z" transform="translate(-57.937 -711.994)" fill="#5b3181"/>
      <path id="Path_44" data-name="Path 44" d="M108.965,750.012h1.828v.541h-1.216v.659h1.066v.532h-1.066v.617h1.254v.541h-1.866Z" transform="translate(-62.13 -711.994)" fill="#5b3181"/>
      <path id="Path_45" data-name="Path 45" d="M118.1,752.266a1.435,1.435,0,0,1-1.216.633,1.483,1.483,0,1,1,1.2-2.353l-.5.344a.872.872,0,1,0-.7,1.431.871.871,0,0,0,.722-.4Z" transform="translate(-65.818 -711.95)" fill="#5b3181"/>
      <rect id="Rectangle_5" data-name="Rectangle 5" width="0.612" height="2.89" transform="translate(53.299 38.018)" fill="#5b3181"/>
      <path id="Path_46" data-name="Path 46" d="M128.436,752.218l-.256.684h-.654l1.074-2.89h.667l1.069,2.89h-.646l-.256-.684Zm.8-.532-.306-1.007-.294,1.007Z" transform="translate(-72.713 -711.994)" fill="#5b3181"/>
      <path id="Path_47" data-name="Path 47" d="M136.167,750.012h.617v2.349h1.082v.541h-1.7Z" transform="translate(-77.64 -711.994)" fill="#5b3181"/>
      <rect id="Rectangle_6" data-name="Rectangle 6" width="0.612" height="2.89" transform="translate(61.256 38.018)" fill="#5b3181"/>
      <path id="Path_48" data-name="Path 48" d="M147.142,752.01a.384.384,0,0,0,.432.348c.248,0,.42-.118.423-.307,0-.13-.054-.243-.348-.327l-.348-.1c-.638-.2-.747-.57-.747-.831a.908.908,0,0,1,.994-.864.885.885,0,0,1,.977.885h-.613c0-.194-.13-.327-.373-.327-.214,0-.373.117-.373.289,0,.075.03.214.31.293l.344.109c.7.2.8.595.793.872a1.062,1.062,0,0,1-2.088-.046Z" transform="translate(-83.547 -711.95)" fill="#5b3181"/>
      <path id="Path_49" data-name="Path 49" d="M153.352,750.012h2.181v.554h-.78V752.9h-.621v-2.336h-.78Z" transform="translate(-87.439 -711.994)" fill="#5b3181"/>
      <path id="Path_50" data-name="Path 50" d="M161.108,752.01a.384.384,0,0,0,.432.348c.248,0,.419-.118.423-.307,0-.13-.054-.243-.348-.327l-.348-.1c-.637-.2-.747-.57-.747-.831a.908.908,0,0,1,.994-.864.885.885,0,0,1,.977.885h-.612c0-.194-.13-.327-.373-.327-.214,0-.373.117-.373.289,0,.075.03.214.31.293l.344.109c.7.2.8.595.793.872a1.062,1.062,0,0,1-2.089-.046Z" transform="translate(-91.51 -711.95)" fill="#5b3181"/>
      <path id="Path_51" data-name="Path 51" d="M95.134,682.229l-7.062,8.454h0v10.04h0l6.786-7.918V706.19h.125v.044h6.492q.071-12,.143-24Z" transform="translate(-50.217 -673.345)" fill="#449e7b" fill-rule="evenodd"/>
      <path id="Path_52" data-name="Path 52" d="M70.419,690.669l-.017.017-6.608-8.454a1.636,1.636,0,0,0-.508-.018H62.127l-4.985.009c-.053.061-.018.309-.018.41v23.541h4.663a1.787,1.787,0,0,0,.651.045h1.471q0-6.843.009-13.688L70.4,700.69l.017.017Z" transform="translate(-32.565 -673.331)" fill="#622f88" fill-rule="evenodd"/>
      <rect id="Rectangle_7" data-name="Rectangle 7" width="10.014" height="10.014" transform="translate(72.283 0.371)" fill="#622f88"/>
      <path id="Path_53" data-name="Path 53" d="M174.133,675.5h0V662.427H161.065Z" transform="translate(-91.837 -662.054)" fill="#449e7b" fill-rule="evenodd"/>
      <path id="Path_54" data-name="Path 54" d="M196.747,662.04h-1.282v-.479h3.093v.479h-1.282v3.373h-.529Z" transform="translate(-111.451 -661.561)" fill="#622f88"/>
      <path id="Path_55" data-name="Path 55" d="M207.483,665.412l-.005-2.806-1.352,2.338h-.246l-1.351-2.322v2.79h-.513v-3.851h.438l1.56,2.707,1.539-2.707h.438l.005,3.851Z" transform="translate(-116.326 -661.561)" fill="#622f88"/>
    </g>
  </g>
</svg>
