<svg id="Group_108" data-name="Group 108" xmlns="http://www.w3.org/2000/svg" width="98.515" height="101.74" viewBox="0 0 98.515 101.74">
  <path id="Path_106" data-name="Path 106" d="M164.07,21.534c4.861-5.219,11.035-8.829,18.207-11.406L181.049,3.61c-8.332,2.137-16.354,7.917-21.86,14.053Z" transform="translate(-138.698 -2.804)" fill="#d9032a"/>
  <path id="Path_107" data-name="Path 107" d="M298.534,2.246c-6.5-1.331-13.319-2.1-19.774-.576l.219,2.912a41.64,41.64,0,0,1,18.6.476c.455-1.44.437-1.391.956-2.812" transform="translate(-231.561 -0.645)" fill="#009ccc"/>
  <path id="Path_108" data-name="Path 108" d="M124.776,234.556c-22.97-.863-37.644-16.847-37.926-37.637l-19.4-.522c.274,31.8,25.2,57.307,58.226,57.87Z" transform="translate(-67.455 -152.528)" fill="#003c5c"/>
  <path id="Path_109" data-name="Path 109" d="M136.308,42.28a37.459,37.459,0,0,1,34.857-30.333l.029-3.677c-21.137,1.616-33.926,16.156-38.627,32.339Z" transform="translate(-118.023 -6.423)" fill="#ea3a2e"/>
  <path id="Path_110" data-name="Path 110" d="M143.251,75.109a22.806,22.806,0,0,1-.511-7.573A32.19,32.19,0,0,1,159.961,40.95l-3.479-8.52c-13.146,5.988-22.326,19.833-23.093,34.461a35.355,35.355,0,0,0,.8,10.859Z" transform="translate(-118.596 -25.186)" fill="#2f9437"/>
  <path id="Path_111" data-name="Path 111" d="M179.138,145.715c-1.84-3.144-2.143-6.751-2.143-10.657a21.61,21.61,0,0,1,2.9-10.189l-11.428-6.505a34.225,34.225,0,0,0-4.3,16.645c0,6.08.5,11.788,3.266,16.744Z" transform="translate(-142.571 -91.925)" fill="#e9a11d"/>
  <path id="Path_112" data-name="Path 112" d="M137.844,248.027h-16.4c2.569,8.884,7.588,18.267,15.354,24.387l8.812-12.947a29.015,29.015,0,0,1-7.767-11.44" transform="translate(-109.385 -192.625)" fill="#005e90"/>
  <path id="Path_113" data-name="Path 113" d="M133.692,173.165a24.185,24.185,0,0,1-1.961-9.625c0-3.482-.062-6.9,1.126-9.963l-15.269-1.944A44.825,44.825,0,0,0,116.1,163.54a38.2,38.2,0,0,0,1.194,9.625Z" transform="translate(-105.233 -117.763)" fill="#e7213c"/>
  <path id="Path_114" data-name="Path 114" d="M393.917,13.164a45.517,45.517,0,0,1,17.311,12.787c.239-.141.7-.449.736-.477A46.214,46.214,0,0,0,394.4,12.2c-.153.325-.312.647-.48.963" transform="translate(-320.995 -9.476)" fill="#e31767"/>
  <path id="Path_115" data-name="Path 115" d="M354.342,0c-.213,1.2-.369,2.747-.553,3.957a59.663,59.663,0,0,1,7.277,2.1,39,39,0,0,1,1.258-3.727A62.043,62.043,0,0,0,354.342,0" transform="translate(-289.831)" fill="#fe9600"/>
  <path id="Path_116" data-name="Path 116" d="M388.966,10.234l-.722,2.534L391.21,14a26.829,26.829,0,0,0,2.739,1.57l1.452-2.243s-2.113-1.089-3.15-1.588-3.284-1.506-3.284-1.506" transform="translate(-316.589 -7.948)" fill="#a6093c"/>
  <path id="Path_117" data-name="Path 117" d="M381.825,376.27a91.3,91.3,0,0,0,8.308-3.81l-5.345-6.6a53.828,53.828,0,0,1-6.207,2.788c1.092,2.627,2.126,5.005,3.244,7.622" transform="translate(-309.085 -284.138)" fill="#f98723"/>
  <path id="Path_118" data-name="Path 118" d="M338.866,368.466a45.491,45.491,0,0,1-13.824,2.936c.03,2.846.458,5.722.394,8.573a46.934,46.934,0,0,0,16.024-3.6,79.1,79.1,0,0,1-2.593-7.91" transform="translate(-267.505 -286.162)" fill="#c27f1d"/>
  <path id="Path_119" data-name="Path 119" d="M415.209,24.088c-.43.6-1.044,1.607-1.425,2.243a34.024,34.024,0,0,1,3.361,2.148c.025-.033,1.074-1.513,1.419-2.148-1.037-.868-2.237-1.477-3.356-2.243" transform="translate(-336.424 -18.707)" fill="#ee5c29"/>
  <path id="Path_120" data-name="Path 120" d="M366.75,388.3a46.4,46.4,0,0,1-20.475,7.246c-.014.277-.029.555-.042.832,0,.048,0,.1,0,.146a47.344,47.344,0,0,0,21.053-7.294c-.188-.307-.369-.616-.54-.93" transform="translate(-283.962 -301.568)" fill="#226f3a"/>
  <path id="Path_121" data-name="Path 121" d="M196.475,366.568s-10.58-.827-21.018-9.362c-1.819,2.338-2.477,3.039-4.236,5.422a52.636,52.636,0,0,0,24.573,11.117Z" transform="translate(-148.043 -277.417)" fill="#3fa438"/>
  <path id="Path_122" data-name="Path 122" d="M315.307,391.882c-.5-1.4-.986-3.074-1.486-4.479a47.971,47.971,0,0,1-9.609,2.767,57.574,57.574,0,0,1-12.409.37c-.37,3.369-.364,4.055-.658,7.006a65.983,65.983,0,0,0,7.376.185,48.728,48.728,0,0,0,17.5-3.36c-.5-1.385-.218-1.1-.715-2.489" transform="translate(-241.18 -300.869)" fill="#0086cc"/>
  <path id="Path_123" data-name="Path 123" d="M333.1,119.19a5.371,5.371,0,0,0-1.982-1.27,7.08,7.08,0,0,0-2.472-.423h-5.926v2.534l3.669.005h1.506a4.875,4.875,0,0,1,1.876.318,2.943,2.943,0,0,1,1.222.914,3.752,3.752,0,0,1,.664,1.433,8.021,8.021,0,0,1,.2,1.876,5.63,5.63,0,0,1-.289,1.924,3.537,3.537,0,0,1-.769,1.279,2.8,2.8,0,0,1-1.1.7,3.878,3.878,0,0,1-1.27.212h-2.9v-2.636h-2.816v5.175h5.926a6.575,6.575,0,0,0,2.742-.529,5.454,5.454,0,0,0,1.943-1.453,6.1,6.1,0,0,0,1.164-2.193,9.514,9.514,0,0,0,.385-2.77,8.569,8.569,0,0,0-.471-2.982,5.873,5.873,0,0,0-1.308-2.116" transform="translate(-265.698 -91.252)" fill="#003c5c"/>
  <path id="Path_124" data-name="Path 124" d="M272.146,119.75a1.216,1.216,0,0,1,.17-.544,1.666,1.666,0,0,1,.491-.481,1.954,1.954,0,0,1,.664-.269,3.547,3.547,0,0,1,.731-.077,5.151,5.151,0,0,1,1.029.1,2.486,2.486,0,0,1,.837.327,1.7,1.7,0,0,1,.587.635,2.435,2.435,0,0,1,.26,1.02h2.925a4.222,4.222,0,0,0-.452-2.03,3.949,3.949,0,0,0-1.221-1.376,5.168,5.168,0,0,0-1.76-.779,8.753,8.753,0,0,0-2.069-.24,7.053,7.053,0,0,0-1.847.25,5.157,5.157,0,0,0-1.654.77,4.144,4.144,0,0,0-.429.356,6.026,6.026,0,0,0,1.741,2.343" transform="translate(-225.072 -90.114)" fill="#003c5c"/>
  <path id="Path_125" data-name="Path 125" d="M272.843,129.881a5.12,5.12,0,0,0-1.356-.644q-.683-.2-1.068-.279-1.289-.327-2.088-.539a7.25,7.25,0,0,1-1.25-.423,6.6,6.6,0,0,1-3.023-3.025c-.073.1-.145.21-.21.322a3.6,3.6,0,0,0-.452,1.837,3.359,3.359,0,0,0,.356,1.607,3.4,3.4,0,0,0,.933,1.106,5.147,5.147,0,0,0,1.309.722,13.169,13.169,0,0,0,1.5.471q.751.212,1.482.385a9.275,9.275,0,0,1,1.308.4,2.814,2.814,0,0,1,.933.577,1.2,1.2,0,0,1,.356.9,1.33,1.33,0,0,1-.269.856,1.9,1.9,0,0,1-.674.529,3.011,3.011,0,0,1-.866.26,5.993,5.993,0,0,1-.866.067,4.583,4.583,0,0,1-1.154-.145,2.851,2.851,0,0,1-.971-.442,2.176,2.176,0,0,1-.664-.779,2.518,2.518,0,0,1-.25-1.174h-2.925a4.537,4.537,0,0,0,.462,2.193,4.317,4.317,0,0,0,1.3,1.52,5.534,5.534,0,0,0,1.885.875,8.683,8.683,0,0,0,2.2.279,8.454,8.454,0,0,0,2.472-.327,5.213,5.213,0,0,0,1.789-.914,3.805,3.805,0,0,0,1.088-1.395,4.2,4.2,0,0,0,.365-1.751,3.371,3.371,0,0,0-.49-1.9,4.111,4.111,0,0,0-1.164-1.183" transform="translate(-219.27 -97.055)" fill="#003c5c"/>
  <path id="Path_126" data-name="Path 126" d="M396.612,124.922l.05-2.242-5.807-.009v2.251h3.057a3.871,3.871,0,0,1-.969,2.2,3.039,3.039,0,0,1-2.319.76,3.524,3.524,0,0,1-1.732-.394,3.3,3.3,0,0,1-1.154-1.048,4.539,4.539,0,0,1-.645-1.472,6.992,6.992,0,0,1-.2-1.684,7.516,7.516,0,0,1,.2-1.751,4.631,4.631,0,0,1,.645-1.51,3.271,3.271,0,0,1,1.154-1.058,3.529,3.529,0,0,1,1.732-.395,3.019,3.019,0,0,1,1.866.578,2.89,2.89,0,0,1,1.039,1.732h2.886a5.04,5.04,0,0,0-1.953-3.6,5.8,5.8,0,0,0-1.789-.933,6.658,6.658,0,0,0-2.049-.318,6.935,6.935,0,0,0-2.838.558,6.067,6.067,0,0,0-2.126,1.539,6.855,6.855,0,0,0-1.328,2.3,8.586,8.586,0,0,0-.461,2.857,8.3,8.3,0,0,0,.461,2.8,6.678,6.678,0,0,0,1.328,2.261,6.077,6.077,0,0,0,2.126,1.51,7.046,7.046,0,0,0,2.838.548,6.071,6.071,0,0,0,4.58-1.831,6.852,6.852,0,0,0,1.407-3.642h0v-.009Z" transform="translate(-313.194 -90.115)" fill="#003c5c"/>
  <path id="Path_127" data-name="Path 127" d="M324.246,202.649h1.215a5.724,5.724,0,0,1-9.006,1.358,5.206,5.206,0,0,1-1.687-3.9,5.455,5.455,0,0,1,1.665-4.053,5.564,5.564,0,0,1,4.039-1.637,5.424,5.424,0,0,1,2.881.822,5.147,5.147,0,0,1,1.994,2.152h-1.215a4.587,4.587,0,0,0-1.637-1.444,4.228,4.228,0,0,0-2.016-.55,4.427,4.427,0,0,0-3.273,1.379,4.555,4.555,0,0,0-1.351,3.317,4.329,4.329,0,0,0,1.387,3.195,4.547,4.547,0,0,0,7-.636" transform="translate(-259.526 -150.989)" fill="#1a1818"/>
  <path id="Path_128" data-name="Path 128" d="M365.744,195.182h6.119v.979h-2.516v9.885H368.26v-9.885h-2.516Z" transform="translate(-299.115 -151.584)" fill="#1a1818"/>
  <rect id="Rectangle_12" data-name="Rectangle 12" width="1.086" height="10.865" transform="translate(73.862 43.598)" fill="#1a1818"/>
  <path id="Path_129" data-name="Path 129" d="M410.768,200.1a5.433,5.433,0,0,1,1.68-4.053,5.827,5.827,0,0,1,8.106.007,5.427,5.427,0,0,1,0,7.905,5.8,5.8,0,0,1-8.106.015,5.261,5.261,0,0,1-1.68-3.874m1.086-.014a4.361,4.361,0,0,0,1.365,3.2,4.677,4.677,0,0,0,6.583.007,4.438,4.438,0,0,0,1.372-3.274,4.366,4.366,0,0,0-1.415-3.267,4.538,4.538,0,0,0-3.245-1.358,4.468,4.468,0,0,0-3.3,1.379,4.531,4.531,0,0,0-1.365,3.317" transform="translate(-334.082 -150.989)" fill="#1a1818"/>
  <path id="Path_130" data-name="Path 130" d="M469.839,195.182H471.3l6.09,9.042v-9.042h1.087v10.865h-1.087l-6.461-9.593v9.593h-1.086Z" transform="translate(-379.958 -151.584)" fill="#1a1818"/>
  <path id="Path_131" data-name="Path 131" d="M268.816,259.4H269.9v9.886h4.46v.979h-5.547Z" transform="translate(-223.838 -201.457)" fill="#1a1818"/>
  <path id="Path_132" data-name="Path 132" d="M347.088,270.264V259.4h2.973a3.482,3.482,0,0,1,2.337.779,2.519,2.519,0,0,1,.922,2.03,2.651,2.651,0,0,1-1.165,2.259,3,3,0,0,1,.8,4.953,4.008,4.008,0,0,1-2.723.843h-3.145Zm1.086-6.19h1.615q2.445,0,2.445-1.866a1.55,1.55,0,0,0-.672-1.351,3,3,0,0,0-1.787-.479h-1.6Zm0,5.211h1.9a3.037,3.037,0,0,0,2.145-.6,2.033,2.033,0,0,0,.622-1.53,1.828,1.828,0,0,0-.736-1.544,3.706,3.706,0,0,0-2.245-.557h-1.687Z" transform="translate(-284.626 -201.457)" fill="#1a1818"/>
  <path id="Path_133" data-name="Path 133" d="M381.966,266.638a2.25,2.25,0,0,0,.6,1.573,2.122,2.122,0,0,0,1.63.651,2.316,2.316,0,0,0,1.558-.579,2.032,2.032,0,0,0,.672-1.616,1.939,1.939,0,0,0-.5-1.3,4.544,4.544,0,0,0-2.144-1.05q-2.559-.722-2.559-2.8a2.672,2.672,0,0,1,.886-2.08,3.152,3.152,0,0,1,2.194-.808,2.852,2.852,0,0,1,2.13.872,2.9,2.9,0,0,1,.851,2.1H386.2a1.934,1.934,0,0,0-.572-1.4,1.808,1.808,0,0,0-1.358-.594,1.865,1.865,0,0,0-1.429.565,1.907,1.907,0,0,0-.529,1.351,1.527,1.527,0,0,0,.472,1.144,5.05,5.05,0,0,0,1.987.858q2.744.744,2.745,3.159a2.948,2.948,0,0,1-.972,2.245,3.559,3.559,0,0,1-4.725.021,3.042,3.042,0,0,1-.936-2.316Z" transform="translate(-310.87 -200.862)" fill="#1a1818"/>
  <path id="Path_134" data-name="Path 134" d="M274.572,201.71,269.359,189.6l-5.151,12.112h1.136l4.053-9.635,3.568,8.619h-3.022v1.021h3.849v0Z" transform="translate(-220.259 -147.247)" fill="#1a1818"/>
  <path id="Path_135" data-name="Path 135" d="M307.472,265.682l-5.213-12.112-5.151,12.112h1.137l4.053-9.635,3.568,8.619h-3.023v1.02h3.849v0Z" transform="translate(-245.81 -196.93)" fill="#1a1818"/>
</svg>
