<svg xmlns="http://www.w3.org/2000/svg" width="58.484" height="35.925" viewBox="0 0 58.484 35.925">
  <g id="Group_40" data-name="Group 40" transform="translate(0 0)">
    <g id="Group_17" data-name="Group 17" transform="translate(0 0)">
      <path id="Path_175" data-name="Path 175" d="M588.2,663.481l-1.211,2.969a20.481,20.481,0,0,1,4.544,2.305l1.916-1.916s-.994-1.571-5.248-3.358" transform="translate(-562.945 -662.084)" fill="#30a65f"/>
      <path id="Path_176" data-name="Path 176" d="M576.2,660.49l-1.045,3.01a26.437,26.437,0,0,0-4.994-.552l-.1-3.523a17.126,17.126,0,0,1,6.136,1.065" transform="translate(-551.845 -659.424)" fill="#ffe900"/>
      <path id="Path_177" data-name="Path 177" d="M556.093,659.425l.135,3.679a13.443,13.443,0,0,0-4.505,1.394l-1.611-3.676a15.3,15.3,0,0,1,5.981-1.4" transform="translate(-538.766 -659.424)" fill="#00a2cc"/>
      <path id="Path_178" data-name="Path 178" d="M530.376,664.43,532.1,668.3s-4.355,2.69-5.4,7.452l-5.3-2.052a18.193,18.193,0,0,1,8.981-9.271" transform="translate(-519.94 -662.706)" fill="#30a65f"/>
      <path id="Path_179" data-name="Path 179" d="M518.219,694.159l5.42,2.013s.058,3.213.155,3.852l-6.62.186a16.158,16.158,0,0,1,1.045-6.05" transform="translate(-517.171 -682.196)" fill="#ffbe00"/>
      <path id="Path_180" data-name="Path 180" d="M517.171,713.91l6.807-.194a24.275,24.275,0,0,0,1.287,3.252l-6.62,2.865s-1.187-1.761-1.474-5.923" transform="translate(-517.171 -695.017)" fill="#eb4e16"/>
      <path id="Path_181" data-name="Path 181" d="M522.519,728.365l6.658-2.9a22.469,22.469,0,0,0,2.071,2.575l-5.168,5.381a13.808,13.808,0,0,1-3.561-5.052" transform="translate(-520.677 -702.716)" fill="#007098"/>
      <path id="Path_182" data-name="Path 182" d="M534.714,740.244l5.148-5.342s1.916,1.161,2.806,1.761L540,743.457a17.936,17.936,0,0,1-5.284-3.213" transform="translate(-528.672 -708.906)" fill="#55ab37"/>
      <path id="Path_183" data-name="Path 183" d="M552.7,747.727l2.574-6.755s1.819.348,3.271.5l.193,7.336s-4.2-.019-6.039-1.084" transform="translate(-540.461 -712.885)" fill="#761214"/>
      <path id="Path_184" data-name="Path 184" d="M572.479,740.883a23.2,23.2,0,0,0,3.232-.755l3,6.755a20.069,20.069,0,0,1-6.02,1.374Z" transform="translate(-553.43 -712.332)" fill="#002c4f"/>
      <path id="Path_185" data-name="Path 185" d="M587.467,739.637l-2.961-6.707,2.09-1.491L585.377,730l9.523-.377-2.439,9.261-1.5-1.578s-.561.794-3.493,2.333" transform="translate(-561.314 -705.443)" fill="#2b903d"/>
      <path id="Path_186" data-name="Path 186" d="M549.551,692.984h.864v.533a1.928,1.928,0,0,1-.425,1.424,1.713,1.713,0,0,1-1.231.407,1.514,1.514,0,0,1-1.737-1.822v-2.637a2.139,2.139,0,0,1,.409-1.561,1.874,1.874,0,0,1,1.3-.421,1.744,1.744,0,0,1,1.227.376,1.609,1.609,0,0,1,.455,1.18v.721h-.864v-.627a1.523,1.523,0,0,0-.166-.775.651.651,0,0,0-.564-.228,1.013,1.013,0,0,0-.676.219,1.255,1.255,0,0,0-.26.887v3a1.2,1.2,0,0,0,.246.847.881.881,0,0,0,.6.215.685.685,0,0,0,.627-.3,2.156,2.156,0,0,0,.193-1.026Z" transform="translate(-536.74 -678.753)" fill="#002c4f"/>
      <path id="Path_187" data-name="Path 187" d="M558.421,695.406l1.464-6.307h.877l1.464,6.307h-.883l-.309-1.526h-1.462l-.314,1.526Zm1.3-2.14h1.216l-.588-2.948Z" transform="translate(-544.214 -678.878)" fill="#002c4f"/>
      <path id="Path_188" data-name="Path 188" d="M578.962,695.406l1.464-6.307h.878l1.464,6.307h-.883l-.309-1.526h-1.462l-.313,1.526Zm1.3-2.14h1.216l-.588-2.948Z" transform="translate(-557.68 -678.878)" fill="#002c4f"/>
      <path id="Path_189" data-name="Path 189" d="M568.931,688.986h3.383v.668h-1.242v5.678h-.864v-5.678h-1.277Z" transform="translate(-551.104 -678.805)" fill="#002c4f"/>
      <path id="Path_190" data-name="Path 190" d="M622.076,688.986h3.383v.668h-1.242v5.678h-.864v-5.678h-1.276Z" transform="translate(-585.945 -678.805)" fill="#002c4f"/>
      <path id="Path_191" data-name="Path 191" d="M591.887,688.986l.9.037v5.736l1.751.01-.006.564h-2.645Z" transform="translate(-566.153 -678.805)" fill="#002c4f"/>
      <path id="Path_192" data-name="Path 192" d="M599.509,689.059h.85l1.016,3.038,1.045-3.038h.867l-1.491,4.018v2.3h-.864v-2.3Z" transform="translate(-571.15 -678.852)" fill="#002c4f"/>
      <path id="Path_193" data-name="Path 193" d="M612.46,693.486a3.265,3.265,0,0,0,.174.982.942.942,0,0,0,1.214.194,1.162,1.162,0,0,0,.267-.924.767.767,0,0,0-.247-.489c-.131-.155-1.282-1.029-1.965-1.761a1.681,1.681,0,0,1,.093-2.037,1.532,1.532,0,0,1,1.168-.392,1.835,1.835,0,0,1,1.227.349.961.961,0,0,1,.4.9v.465h-.769v-.269a.886.886,0,0,0-.239-.632.756.756,0,0,0-.639-.2.839.839,0,0,0-.677.337.929.929,0,0,0-.02.57c.324.9,1.989,1.786,2.226,2.323a1.771,1.771,0,0,1,.253.845,1.655,1.655,0,0,1-.485,1.385,2.069,2.069,0,0,1-1.292.378,1.416,1.416,0,0,1-1.292-.8,4.237,4.237,0,0,1-.3-1.239Z" transform="translate(-579.054 -678.852)" fill="#002c4f"/>
      <path id="Path_194" data-name="Path 194" d="M548.862,714.55h.318a.72.72,0,0,1-.173.549.653.653,0,0,1-.531.205.707.707,0,0,1-.553-.218,1.645,1.645,0,0,1-.194-.926v-.8q0-.964.767-.964.658,0,.658.62v.187h-.318V713.1q0-.41-.355-.41a.4.4,0,0,0-.314.137,1.006,1.006,0,0,0-.12.606v.879a1.215,1.215,0,0,0,.089.53.351.351,0,0,0,.344.174.319.319,0,0,0,.28-.148.43.43,0,0,0,.1-.315" transform="translate(-537.204 -694.151)" fill="#002c4f"/>
      <path id="Path_195" data-name="Path 195" d="M552.9,715.837a1.839,1.839,0,0,1,.153-.887.577.577,0,0,1,.5-.213.538.538,0,0,1,.5.232,1.909,1.909,0,0,1,.14.836,1.515,1.515,0,0,1-.145.78.552.552,0,0,1-.5.219.587.587,0,0,1-.5-.2,1.345,1.345,0,0,1-.155-.763m.295-.206a2.739,2.739,0,0,0,.071.742.279.279,0,0,0,.288.181.272.272,0,0,0,.275-.185,2.675,2.675,0,0,0,.072-.739.977.977,0,0,0-.092-.509.3.3,0,0,0-.259-.134.29.29,0,0,0-.272.145,1.053,1.053,0,0,0-.084.5" transform="translate(-540.591 -695.687)" fill="#002c4f"/>
      <rect id="Rectangle_22" data-name="Rectangle 22" width="0.277" height="2.889" transform="translate(14.106 18.245)" fill="#002c4f"/>
      <rect id="Rectangle_23" data-name="Rectangle 23" width="0.277" height="2.874" transform="translate(14.933 18.245)" fill="#002c4f"/>
      <path id="Path_196" data-name="Path 196" d="M562.694,715.407c.006-.371.2-.668.571-.668a.633.633,0,0,1,.678.63s-.012,1.261.014,1.4h-.308v-.129a.456.456,0,0,1-.427.169.527.527,0,0,1-.582-.575.6.6,0,0,1,.276-.49,1.119,1.119,0,0,1,.511-.156c.229-.023.214-.179.214-.179a.374.374,0,0,0-.375-.393.26.26,0,0,0-.194.081.552.552,0,0,0-.083.312Zm.88.458a.909.909,0,0,0-.484.116.256.256,0,0,0-.142.244.35.35,0,0,0,.082.244.274.274,0,0,0,.214.089.347.347,0,0,0,.293-.138,1,1,0,0,0,.105-.555Z" transform="translate(-546.98 -695.687)" fill="#002c4f"/>
      <path id="Path_197" data-name="Path 197" d="M615.9,715.407c.007-.371.2-.668.571-.668a.633.633,0,0,1,.678.63s-.012,1.261.014,1.4h-.308v-.129a.456.456,0,0,1-.427.169.527.527,0,0,1-.582-.575.6.6,0,0,1,.276-.49,1.119,1.119,0,0,1,.511-.156c.229-.023.214-.179.214-.179a.374.374,0,0,0-.374-.393.26.26,0,0,0-.194.081.555.555,0,0,0-.084.312Zm.88.458a.91.91,0,0,0-.484.116.256.256,0,0,0-.141.244.351.351,0,0,0,.081.244.275.275,0,0,0,.214.089.346.346,0,0,0,.293-.138,1,1,0,0,0,.105-.555Z" transform="translate(-581.863 -695.687)" fill="#002c4f"/>
      <path id="Path_198" data-name="Path 198" d="M580.976,715.407c.007-.371.2-.668.571-.668a.633.633,0,0,1,.678.63s-.012,1.261.014,1.4h-.308v-.129a.456.456,0,0,1-.427.169.527.527,0,0,1-.582-.575.6.6,0,0,1,.276-.49,1.119,1.119,0,0,1,.51-.156c.229-.023.214-.179.214-.179a.374.374,0,0,0-.374-.393.259.259,0,0,0-.194.081.553.553,0,0,0-.083.312Zm.88.458a.909.909,0,0,0-.484.116.256.256,0,0,0-.142.244.35.35,0,0,0,.081.244.275.275,0,0,0,.214.089.347.347,0,0,0,.293-.138,1,1,0,0,0,.1-.555Z" transform="translate(-558.965 -695.687)" fill="#002c4f"/>
      <path id="Path_199" data-name="Path 199" d="M568,715.263V712.4h.277V713.4a.485.485,0,0,1,.163-.2.409.409,0,0,1,.23-.066.565.565,0,0,1,.469.245,2.557,2.557,0,0,1,.133.959,1.773,1.773,0,0,1-.12.748.488.488,0,0,1-.475.214.408.408,0,0,1-.4-.264v.223Zm.277-1.014a1.724,1.724,0,0,0,.079.63.264.264,0,0,0,.25.173.288.288,0,0,0,.28-.177,1.453,1.453,0,0,0,.086-.588,2.061,2.061,0,0,0-.075-.683.278.278,0,0,0-.28-.183.252.252,0,0,0-.21.095.517.517,0,0,0-.1.218,3.021,3.021,0,0,0-.031.516" transform="translate(-550.493 -694.151)" fill="#002c4f"/>
      <path id="Path_200" data-name="Path 200" d="M572.883,715.8a1.59,1.59,0,0,1,.153-.837.567.567,0,0,1,.5-.221.53.53,0,0,1,.5.242,2.312,2.312,0,0,1,0,1.6.544.544,0,0,1-.5.229.578.578,0,0,1-.5-.214,1.456,1.456,0,0,1-.155-.8m.295-.128a2.253,2.253,0,0,0,.071.687.279.279,0,0,0,.288.189.272.272,0,0,0,.275-.193,2.2,2.2,0,0,0,.072-.683,1.049,1.049,0,0,0-.092-.53.293.293,0,0,0-.259-.139.287.287,0,0,0-.271.151,1.137,1.137,0,0,0-.084.519" transform="translate(-553.694 -695.687)" fill="#002c4f"/>
      <path id="Path_201" data-name="Path 201" d="M608.595,715.8a1.588,1.588,0,0,1,.153-.837.566.566,0,0,1,.5-.221.53.53,0,0,1,.5.242,2.314,2.314,0,0,1,0,1.6.543.543,0,0,1-.5.229.578.578,0,0,1-.5-.214,1.455,1.455,0,0,1-.155-.8m.295-.128a2.245,2.245,0,0,0,.071.687.279.279,0,0,0,.288.189.271.271,0,0,0,.275-.193,2.193,2.193,0,0,0,.073-.683,1.051,1.051,0,0,0-.092-.53.293.293,0,0,0-.259-.139.287.287,0,0,0-.271.151,1.135,1.135,0,0,0-.084.519" transform="translate(-577.107 -695.687)" fill="#002c4f"/>
      <path id="Path_202" data-name="Path 202" d="M578.09,716.635v-2.042h.277v.308a.451.451,0,0,1,.47-.349h.058v.33a.587.587,0,0,0-.148-.019q-.379,0-.379.536v1.235Z" transform="translate(-557.108 -695.565)" fill="#002c4f"/>
      <path id="Path_203" data-name="Path 203" d="M585.552,713.981v-.3h.311l-.007-.513h.312v.511h.508v.307h-.508v1.171a.254.254,0,0,0,.061.183.77.77,0,0,0,.476.1l-.029.269a1.236,1.236,0,0,1-.469-.02.448.448,0,0,1-.339-.471l-.006-1.232Z" transform="translate(-562 -694.657)" fill="#002c4f"/>
      <path id="Path_204" data-name="Path 204" d="M604.184,713.981v-.3h.311l-.007-.513h.312v.511h.508v.307H604.8v1.171a.253.253,0,0,0,.061.183c.1.105.421.105.476.1l-.029.269a1.236,1.236,0,0,1-.469-.02.449.449,0,0,1-.339-.471l-.005-1.232Z" transform="translate(-574.215 -694.657)" fill="#002c4f"/>
      <path id="Path_205" data-name="Path 205" d="M649.815,713.981v-.3h.311l-.006-.513h.312v.511h.508v.307h-.508v1.171a.254.254,0,0,0,.061.183.77.77,0,0,0,.476.1l-.029.269a1.237,1.237,0,0,1-.469-.02.448.448,0,0,1-.339-.471l-.006-1.232Z" transform="translate(-604.13 -694.657)" fill="#002c4f"/>
      <path id="Path_206" data-name="Path 206" d="M589.874,712.845h.313v.4h-.313Zm.018.61h.277v2.051h-.277Z" transform="translate(-564.833 -694.446)" fill="#002c4f"/>
      <path id="Path_207" data-name="Path 207" d="M631.1,712.845h.313v.4H631.1Zm.018.61h.277v2.051h-.277Z" transform="translate(-591.862 -694.446)" fill="#002c4f"/>
      <path id="Path_208" data-name="Path 208" d="M592.721,716.666h-.277V715q0-.14-.008-.342h.295l-.01.258a.484.484,0,0,1,.191-.231.544.544,0,0,1,.277-.068.407.407,0,0,1,.344.142.808.808,0,0,1,.11.486v1.423h-.277v-1.417q0-.377-.295-.378-.351,0-.351.548Z" transform="translate(-566.513 -695.606)" fill="#002c4f"/>
      <path id="Path_209" data-name="Path 209" d="M597.3,716.705h.333a.367.367,0,0,0,.168.3.306.306,0,0,0,.18.061c.206,0,.309-.108.309-.324v-.392a.431.431,0,0,1-.406.238.488.488,0,0,1-.49-.326,1.927,1.927,0,0,1-.1-.693q0-.955.565-.956a.438.438,0,0,1,.425.3v-.256h.291v2.121q0,.526-.623.526a.715.715,0,0,1-.431-.132.618.618,0,0,1-.229-.466m.31-1.137a1.49,1.49,0,0,0,.084.591.276.276,0,0,0,.264.174.279.279,0,0,0,.253-.141,1.258,1.258,0,0,0,.088-.58,1.408,1.408,0,0,0-.081-.591.27.27,0,0,0-.255-.153.277.277,0,0,0-.274.175,1.336,1.336,0,0,0-.078.524" transform="translate(-569.705 -695.606)" fill="#002c4f"/>
      <path id="Path_210" data-name="Path 210" d="M622.035,716.049h.295a.719.719,0,0,1-.158.5.489.489,0,0,1-.381.177.522.522,0,0,1-.507-.247,2.122,2.122,0,0,1,.013-1.506.545.545,0,0,1,.5-.23.491.491,0,0,1,.381.15.717.717,0,0,1,.139.494h-.295a.584.584,0,0,0-.059-.289.187.187,0,0,0-.172-.1.281.281,0,0,0-.263.145,1.1,1.1,0,0,0-.08.5,1.96,1.96,0,0,0,.074.67.264.264,0,0,0,.262.17q.252,0,.252-.423" transform="translate(-585.339 -695.687)" fill="#002c4f"/>
      <path id="Path_211" data-name="Path 211" d="M626.023,712.56h.277V713.6a.477.477,0,0,1,.468-.293.4.4,0,0,1,.346.145.787.787,0,0,1,.109.47v1.329h-.277V713.93q0-.37-.29-.369-.356,0-.356.536v1.156h-.277Z" transform="translate(-588.532 -694.259)" fill="#002c4f"/>
      <path id="Path_212" data-name="Path 212" d="M633.9,715.829a1.08,1.08,0,0,0,.082.507.279.279,0,0,0,.257.135.251.251,0,0,0,.206-.1.453.453,0,0,0,.087-.265h.3a.634.634,0,0,1-.155.452.568.568,0,0,1-.432.163.514.514,0,0,1-.52-.271,1.7,1.7,0,0,1-.124-.7,1.529,1.529,0,0,1,.147-.79.552.552,0,0,1,.5-.225.507.507,0,0,1,.464.207,1.309,1.309,0,0,1,.134.684v.2Zm0-.232h.654a.961.961,0,0,0-.1-.534.242.242,0,0,0-.211-.092.275.275,0,0,0-.262.137,1.077,1.077,0,0,0-.078.488" transform="translate(-593.505 -695.687)" fill="#002c4f"/>
      <path id="Path_213" data-name="Path 213" d="M638.529,716.477l.41-1.621h.29l-.527,1.9h-.364l-.5-1.9h.311Z" transform="translate(-596.277 -695.764)" fill="#002c4f"/>
      <path id="Path_214" data-name="Path 214" d="M643.344,715.829a1.077,1.077,0,0,0,.082.507.278.278,0,0,0,.257.135.251.251,0,0,0,.206-.1.456.456,0,0,0,.087-.265h.3a.636.636,0,0,1-.155.452.569.569,0,0,1-.432.163.513.513,0,0,1-.52-.271,1.692,1.692,0,0,1-.124-.7,1.529,1.529,0,0,1,.147-.79.552.552,0,0,1,.5-.225.507.507,0,0,1,.465.207,1.31,1.31,0,0,1,.134.684v.2Zm0-.232H644a.966.966,0,0,0-.1-.534.243.243,0,0,0-.211-.092.277.277,0,0,0-.262.137,1.087,1.087,0,0,0-.077.488" transform="translate(-599.694 -695.687)" fill="#002c4f"/>
      <path id="Path_215" data-name="Path 215" d="M654.081,712.56h.277V713.6a.477.477,0,0,1,.468-.293.4.4,0,0,1,.346.145.789.789,0,0,1,.109.47v1.329H655V713.93q0-.37-.29-.369-.355,0-.355.536v1.156h-.277Z" transform="translate(-606.927 -694.259)" fill="#002c4f"/>
      <path id="Path_216" data-name="Path 216" d="M659.6,715.829a1.078,1.078,0,0,0,.082.507.278.278,0,0,0,.257.135.251.251,0,0,0,.206-.1.456.456,0,0,0,.087-.265h.3a.636.636,0,0,1-.155.452.568.568,0,0,1-.432.163.514.514,0,0,1-.52-.271,1.693,1.693,0,0,1-.124-.7,1.526,1.526,0,0,1,.147-.79.551.551,0,0,1,.5-.225.507.507,0,0,1,.464.207,1.311,1.311,0,0,1,.134.684v.2Zm0-.232h.654a.963.963,0,0,0-.1-.534.241.241,0,0,0-.211-.092.276.276,0,0,0-.262.137,1.085,1.085,0,0,0-.077.488" transform="translate(-610.352 -695.687)" fill="#002c4f"/>
      <path id="Path_217" data-name="Path 217" d="M666.318,714.354h.318v.095a.483.483,0,0,0,.109.332.47.47,0,0,0,.618.013.426.426,0,0,0,.114-.321.407.407,0,0,0-.114-.289,1.655,1.655,0,0,0-.4-.278,1.524,1.524,0,0,1-.473-.37.689.689,0,0,1-.122-.41.739.739,0,0,1,.189-.529.692.692,0,0,1,.531-.2.659.659,0,0,1,.507.183.713.713,0,0,1,.17.5v.1h-.318q0-.49-.377-.49a.373.373,0,0,0-.282.106.4.4,0,0,0-.1.285.444.444,0,0,0,.155.333,2.088,2.088,0,0,0,.385.253,1.29,1.29,0,0,1,.417.328.743.743,0,0,1,.148.459q0,.743-.779.743a.679.679,0,0,1-.515-.192.787.787,0,0,1-.181-.558Z" transform="translate(-614.949 -694.151)" fill="#002c4f"/>
      <path id="Path_218" data-name="Path 218" d="M672.215,715.254V712.56h.646a.564.564,0,0,1,.506.26,2.08,2.08,0,0,1,.169,1.025,2.2,2.2,0,0,1-.192,1.162.684.684,0,0,1-.578.247Zm.274-.3h.272a.422.422,0,0,0,.388-.176,1.171,1.171,0,0,0,.113-.6v-.6a1.085,1.085,0,0,0-.1-.555.339.339,0,0,0-.306-.165h-.363Z" transform="translate(-618.815 -694.259)" fill="#002c4f"/>
      <path id="Path_219" data-name="Path 219" d="M678.363,714.211v-.3h.695V715a1.142,1.142,0,0,1-.672.2.6.6,0,0,1-.521-.236,1.4,1.4,0,0,1-.174-.805v-.878q0-.887.705-.887a.593.593,0,0,1,.662.681v.11h-.289q0-.5-.381-.5a.331.331,0,0,0-.315.167.882.882,0,0,0-.091.428v.926a.988.988,0,0,0,.11.571.346.346,0,0,0,.277.134.577.577,0,0,0,.4-.119v-.582Z" transform="translate(-622.404 -694.151)" fill="#002c4f"/>
      <path id="Path_220" data-name="Path 220" d="M683.055,716.108q0,.364.272.364a.318.318,0,0,0,.219-.067.28.28,0,0,0,.076-.216.22.22,0,0,0-.085-.174,1.334,1.334,0,0,0-.257-.159,1.365,1.365,0,0,1-.371-.256.46.46,0,0,1-.13-.328.5.5,0,0,1,.156-.391.622.622,0,0,1,.433-.141.575.575,0,0,1,.4.124.384.384,0,0,1,.138.3v.1h-.316q0-.294-.254-.294a.258.258,0,0,0-.188.07.251.251,0,0,0-.072.19.241.241,0,0,0,.129.2,2.337,2.337,0,0,0,.257.146,1.261,1.261,0,0,1,.338.242.446.446,0,0,1,.12.318.521.521,0,0,1-.59.589q-.588,0-.588-.615Z" transform="translate(-625.714 -695.687)" fill="#002c4f"/>
      <path id="Path_221" data-name="Path 221" d="M638.743,689.6h2.088s.429-.116.486.5v.987a.391.391,0,0,1-.29.426,10.091,10.091,0,0,1-1.084,0,1.484,1.484,0,0,0-1.2.987,2.77,2.77,0,0,0,0,.7c0,.387-.026,1.913-.026,1.913h3.393V694.2l-2.575-.058s-.019-.988,0-1.3.155-.368.542-.368,1.219.039,1.568-.31a1.73,1.73,0,0,0,.464-1.471c-.058-.658.058-1.713-.658-1.911a7.033,7.033,0,0,0-1.78-.14.85.85,0,0,0-.929.949" transform="translate(-596.854 -678.582)" fill="#2b903d"/>
      <path id="Path_222" data-name="Path 222" d="M653.391,688.647h-1.205a1.384,1.384,0,0,0-1.234,1.439c-.029.232-.058,3.165,0,3.731a1.521,1.521,0,0,0,.74,1.132,4.181,4.181,0,0,0,2.41-.13,2.4,2.4,0,0,0,.479-1.248V689.94c-.16-1.321-1.19-1.293-1.19-1.293m.029,5.474a6.087,6.087,0,0,1-1.278,0c-.16.029-.407.043-.45-.552s0-2.99,0-3.266.073-.639.334-.639h1.306c.261,0,.471.015.475.639s0,3.048,0,3.237.033.465-.388.581" transform="translate(-604.853 -678.582)" fill="#2b903d"/>
      <path id="Path_223" data-name="Path 223" d="M678.813,688.647h-1.205a1.384,1.384,0,0,0-1.234,1.439c-.029.232-.058,3.165,0,3.731a1.521,1.521,0,0,0,.74,1.132,4.181,4.181,0,0,0,2.41-.13,2.4,2.4,0,0,0,.479-1.248V689.94c-.16-1.321-1.19-1.293-1.19-1.293m.029,5.474a6.086,6.086,0,0,1-1.277,0c-.16.029-.407.043-.45-.552s0-2.99,0-3.266.073-.639.334-.639h1.307c.261,0,.471.015.475.639s0,3.048,0,3.237.033.465-.388.581" transform="translate(-621.52 -678.582)" fill="#2b903d"/>
      <path id="Path_224" data-name="Path 224" d="M663.882,689.547s1.829-.01,2.013,0,.522.058.58.387a2.452,2.452,0,0,1-.048,1.171c-.126.213-.232.262-.523.29s-.919,0-.919,0v.929s.8-.019,1.016,0,.387.136.455.465a2.8,2.8,0,0,1-.01,1.113c-.078.154-.194.2-.474.244s-2.09,0-2.09,0v.9s2.129.029,2.39,0a1.223,1.223,0,0,0,.891-.9,6.43,6.43,0,0,0,.077-1.6.928.928,0,0,0-.445-.652,1.6,1.6,0,0,0,.463-.828c.012-.387.027-1.258,0-1.423a1.211,1.211,0,0,0-.879-.977,11.531,11.531,0,0,0-2.042,0,.855.855,0,0,0-.455.881" transform="translate(-613.351 -678.561)" fill="#2b903d"/>
    </g>
  </g>
</svg>
